<?xml version="1.0" encoding="UTF-8"?>
<svg width="485px" height="385px" viewBox="0 0 485 385" version="1.1" xmlns="http://www.w3.org/2000/svg" xmlns:xlink="http://www.w3.org/1999/xlink">
    <title>Address-bro</title>
    <g id="Page-1" stroke="none" stroke-width="1" fill="none" fill-rule="evenodd">
        <g id="shopping-on-splitchek-copy" transform="translate(-451.000000, -2367.000000)">
            <g id="how-does-it-work" transform="translate(150.000000, 1747.000000)">
                <g id="Address-bro" transform="translate(301.000000, 620.000000)">
                    <g id="freepik--background-simple--inject-1--inject-46" transform="translate(53.000000, 0.000000)" fill="#F9FBFF" fill-rule="nonzero">
                        <path d="M404.31,216.6 C398.07,211.78 391.7,207.11 387.95,200.14 C368.95,164.87 408.5,123.61 386.55,85.39 C375.41,66 353.44,51.81 332,59.87 C309.15,68.47 287.58,77.45 263,70.34 C220,57.88 197.67,-0.42 150.83,0.56 C112.38,1.36 69.59,41.86 91.83,83.89 C108.68,115.69 98.15,142.01 59.18,147.49 C20.21,152.97 3.45,199 15,218.77 C26.55,238.54 48.69,259.34 27.63,268.11 C6.57,276.88 -0.8,305.39 1.31,325.11 C3.42,344.83 7.62,352.52 7.62,352.52 L411.84,352.52 C411.84,352.52 428.89,330.59 430.99,280.16 C431.91,258.3 427.38,236.89 410.86,221.94 C408.77,220.08 406.55,218.33 404.31,216.6 Z" id="Path"></path>
                    </g>
                    <g id="freepik--Shadow--inject-1--inject-46" transform="translate(190.000000, 369.000000)" fill="#DEE8FB" fill-rule="nonzero">
                        <ellipse id="Oval" cx="76.56" cy="8" rx="76.5" ry="8"></ellipse>
                    </g>
                    <g id="freepik--Buildings--inject-1--inject-46" transform="translate(85.000000, 178.000000)">
                        <polygon id="Path" stroke="#2E353A" points="354.43 132.9 354.43 120.69 340.81 120.69 340.81 97 321.24 97 321.24 0.78 302.52 0.78 302.52 58.94 285.5 58.94 285.5 38.12 262.53 38.12 262.53 91.97 253.17 91.97 253.17 109.2 231.05 109.2 231.05 102.74 237.85 102.74 237.85 99.15 209.77 99.15 209.77 103.46 213.18 103.46 213.18 122.13 198.71 122.13 198.71 86.94 147.66 86.94 147.66 112.07 111.06 112.07 111.06 93.4 97.45 93.4 97.45 114.23 68.52 114.23 68.52 76.17 56.61 76.17 56.61 63.25 35.33 63.25 35.33 122.13 14.06 122.13 14.06 135.05 0.45 135.05 0.45 174.54 380.81 174.54 380.81 132.9"></polygon>
                        <rect id="Rectangle" fill="#2E353A" fill-rule="nonzero" x="39.1" y="76" width="4.6" height="4.6"></rect>
                        <rect id="Rectangle" fill="#2E353A" fill-rule="nonzero" x="48.68" y="76" width="4.6" height="4.6"></rect>
                        <rect id="Rectangle" fill="#2E353A" fill-rule="nonzero" x="39.1" y="85.59" width="4.6" height="4.6"></rect>
                        <rect id="Rectangle" fill="#2E353A" fill-rule="nonzero" x="48.68" y="85.59" width="4.6" height="4.6"></rect>
                        <rect id="Rectangle" fill="#2E353A" fill-rule="nonzero" x="59.03" y="85.59" width="4.6" height="4.6"></rect>
                        <rect id="Rectangle" fill="#2E353A" fill-rule="nonzero" x="59.03" y="95.17" width="4.6" height="4.6"></rect>
                        <rect id="Rectangle" fill="#2E353A" fill-rule="nonzero" x="59.03" y="104.76" width="4.6" height="4.6"></rect>
                        <rect id="Rectangle" fill="#2E353A" fill-rule="nonzero" x="59.03" y="114.34" width="4.6" height="4.6"></rect>
                        <rect id="Rectangle" fill="#2E353A" fill-rule="nonzero" x="59.03" y="123.93" width="4.6" height="4.6"></rect>
                        <rect id="Rectangle" fill="#2E353A" fill-rule="nonzero" x="59.03" y="133.52" width="4.6" height="4.6"></rect>
                        <rect id="Rectangle" fill="#2E353A" fill-rule="nonzero" x="39.1" y="95.17" width="4.6" height="4.6"></rect>
                        <rect id="Rectangle" fill="#2E353A" fill-rule="nonzero" x="48.68" y="95.17" width="4.6" height="4.6"></rect>
                        <rect id="Rectangle" fill="#2E353A" fill-rule="nonzero" x="39.1" y="104.76" width="4.6" height="4.6"></rect>
                        <rect id="Rectangle" fill="#2E353A" fill-rule="nonzero" x="48.68" y="104.76" width="4.6" height="4.6"></rect>
                        <rect id="Rectangle" fill="#2E353A" fill-rule="nonzero" x="39.1" y="114.34" width="4.6" height="4.6"></rect>
                        <rect id="Rectangle" fill="#2E353A" fill-rule="nonzero" x="48.68" y="114.34" width="4.6" height="4.6"></rect>
                        <rect id="Rectangle" fill="#2E353A" fill-rule="nonzero" x="39.1" y="123.93" width="4.6" height="4.6"></rect>
                        <rect id="Rectangle" fill="#2E353A" fill-rule="nonzero" x="18.01" y="129.3" width="4.6" height="4.6"></rect>
                        <rect id="Rectangle" fill="#2E353A" fill-rule="nonzero" x="84.34" y="118.94" width="4.6" height="4.6"></rect>
                        <rect id="Rectangle" fill="#2E353A" fill-rule="nonzero" x="93.54" y="118.94" width="4.6" height="4.6"></rect>
                        <rect id="Rectangle" fill="#2E353A" fill-rule="nonzero" x="305.58" y="6.21" width="4.6" height="4.6"></rect>
                        <rect id="Rectangle" fill="#2E353A" fill-rule="nonzero" x="311.33" y="6.21" width="4.6" height="4.6"></rect>
                        <rect id="Rectangle" fill="#2E353A" fill-rule="nonzero" x="305.58" y="15.8" width="4.6" height="4.6"></rect>
                        <rect id="Rectangle" fill="#2E353A" fill-rule="nonzero" x="311.33" y="15.8" width="4.6" height="4.6"></rect>
                        <rect id="Rectangle" fill="#2E353A" fill-rule="nonzero" x="305.58" y="25.39" width="4.6" height="4.6"></rect>
                        <rect id="Rectangle" fill="#2E353A" fill-rule="nonzero" x="311.33" y="25.39" width="4.6" height="4.6"></rect>
                        <rect id="Rectangle" fill="#2E353A" fill-rule="nonzero" x="305.58" y="34.97" width="4.6" height="4.6"></rect>
                        <rect id="Rectangle" fill="#2E353A" fill-rule="nonzero" x="311.33" y="34.97" width="4.6" height="4.6"></rect>
                        <rect id="Rectangle" fill="#2E353A" fill-rule="nonzero" x="305.58" y="44.56" width="4.6" height="4.6"></rect>
                        <rect id="Rectangle" fill="#2E353A" fill-rule="nonzero" x="311.33" y="44.56" width="4.6" height="4.6"></rect>
                        <rect id="Rectangle" fill="#2E353A" fill-rule="nonzero" x="305.58" y="54.14" width="4.6" height="4.6"></rect>
                        <rect id="Rectangle" fill="#2E353A" fill-rule="nonzero" x="311.33" y="54.14" width="4.6" height="4.6"></rect>
                        <rect id="Rectangle" fill="#2E353A" fill-rule="nonzero" x="305.58" y="63.73" width="4.6" height="4.6"></rect>
                        <rect id="Rectangle" fill="#2E353A" fill-rule="nonzero" x="311.33" y="63.73" width="4.6" height="4.6"></rect>
                        <rect id="Rectangle" fill="#2E353A" fill-rule="nonzero" x="305.58" y="73.32" width="4.6" height="4.6"></rect>
                        <rect id="Rectangle" fill="#2E353A" fill-rule="nonzero" x="311.33" y="73.32" width="4.6" height="4.6"></rect>
                        <rect id="Rectangle" fill="#2E353A" fill-rule="nonzero" x="305.58" y="82.9" width="4.6" height="4.6"></rect>
                        <rect id="Rectangle" fill="#2E353A" fill-rule="nonzero" x="311.33" y="82.9" width="4.6" height="4.6"></rect>
                        <rect id="Rectangle" fill="#2E353A" fill-rule="nonzero" x="266.47" y="82.9" width="4.6" height="4.6"></rect>
                        <rect id="Rectangle" fill="#2E353A" fill-rule="nonzero" x="276.44" y="82.9" width="4.6" height="4.6"></rect>
                        <rect id="Rectangle" fill="#2E353A" fill-rule="nonzero" x="286.41" y="82.9" width="4.6" height="4.6"></rect>
                        <rect id="Rectangle" fill="#2E353A" fill-rule="nonzero" x="266.47" y="103.61" width="4.6" height="4.6"></rect>
                        <rect id="Rectangle" fill="#2E353A" fill-rule="nonzero" x="276.44" y="103.61" width="4.6" height="4.6"></rect>
                        <rect id="Rectangle" fill="#2E353A" fill-rule="nonzero" x="286.41" y="103.61" width="4.6" height="4.6"></rect>
                        <rect id="Rectangle" fill="#2E353A" fill-rule="nonzero" x="266.47" y="124.31" width="4.6" height="4.6"></rect>
                        <rect id="Rectangle" fill="#2E353A" fill-rule="nonzero" x="276.44" y="124.31" width="4.6" height="4.6"></rect>
                        <rect id="Rectangle" fill="#2E353A" fill-rule="nonzero" x="286.41" y="124.31" width="4.6" height="4.6"></rect>
                        <rect id="Rectangle" fill="#2E353A" fill-rule="nonzero" x="305.58" y="92.49" width="4.6" height="4.6"></rect>
                        <rect id="Rectangle" fill="#2E353A" fill-rule="nonzero" x="311.33" y="92.49" width="4.6" height="4.6"></rect>
                        <rect id="Rectangle" fill="#2E353A" fill-rule="nonzero" x="305.58" y="102.07" width="4.6" height="4.6"></rect>
                        <rect id="Rectangle" fill="#2E353A" fill-rule="nonzero" x="311.33" y="102.07" width="4.6" height="4.6"></rect>
                        <rect id="Rectangle" fill="#2E353A" fill-rule="nonzero" x="305.58" y="111.66" width="4.6" height="4.6"></rect>
                        <rect id="Rectangle" fill="#2E353A" fill-rule="nonzero" x="311.33" y="111.66" width="4.6" height="4.6"></rect>
                        <rect id="Rectangle" fill="#2E353A" fill-rule="nonzero" x="320.92" y="102.07" width="4.6" height="4.6"></rect>
                        <rect id="Rectangle" fill="#2E353A" fill-rule="nonzero" x="331.66" y="102.07" width="4.6" height="4.6"></rect>
                        <rect id="Rectangle" fill="#2E353A" fill-rule="nonzero" x="320.92" y="111.28" width="4.6" height="4.6"></rect>
                        <rect id="Rectangle" fill="#2E353A" fill-rule="nonzero" x="331.66" y="111.28" width="4.6" height="4.6"></rect>
                        <rect id="Rectangle" fill="#2E353A" fill-rule="nonzero" x="320.92" y="120.48" width="4.6" height="4.6"></rect>
                        <rect id="Rectangle" fill="#2E353A" fill-rule="nonzero" x="331.66" y="120.48" width="4.6" height="4.6"></rect>
                        <rect id="Rectangle" fill="#2E353A" fill-rule="nonzero" x="320.92" y="129.68" width="4.6" height="4.6"></rect>
                        <rect id="Rectangle" fill="#2E353A" fill-rule="nonzero" x="331.66" y="129.68" width="4.6" height="4.6"></rect>
                        <rect id="Rectangle" fill="#2E353A" fill-rule="nonzero" x="305.58" y="121.25" width="4.6" height="4.6"></rect>
                        <rect id="Rectangle" fill="#2E353A" fill-rule="nonzero" x="311.33" y="121.25" width="4.6" height="4.6"></rect>
                        <rect id="Rectangle" fill="#2E353A" fill-rule="nonzero" x="305.58" y="130.83" width="4.6" height="4.6"></rect>
                        <rect id="Rectangle" fill="#2E353A" fill-rule="nonzero" x="311.33" y="130.83" width="4.6" height="4.6"></rect>
                        <rect id="Rectangle" fill="#2E353A" fill-rule="nonzero" x="48.68" y="123.93" width="4.6" height="4.6"></rect>
                        <rect id="Rectangle" fill="#2E353A" fill-rule="nonzero" x="39.1" y="133.52" width="4.6" height="4.6"></rect>
                        <rect id="Rectangle" fill="#2E353A" fill-rule="nonzero" x="48.68" y="133.52" width="4.6" height="4.6"></rect>
                        <rect id="Rectangle" fill="#2E353A" fill-rule="nonzero" x="39.1" y="143.1" width="4.6" height="4.6"></rect>
                        <rect id="Rectangle" fill="#2E353A" fill-rule="nonzero" x="48.68" y="143.1" width="4.6" height="4.6"></rect>
                        <rect id="Rectangle" fill="#2E353A" fill-rule="nonzero" x="39.1" y="152.69" width="4.6" height="4.6"></rect>
                        <rect id="Rectangle" fill="#2E353A" fill-rule="nonzero" x="48.68" y="152.69" width="4.6" height="4.6"></rect>
                        <polyline id="Path" stroke="#2E353A" points="295.61 155.57 295.61 174.54 257.27 174.54 257.27 136.82 295.61 136.82 295.61 152.19"></polyline>
                        <polyline id="Path" stroke="#2E353A" points="366.17 168.81 366.17 174.54 327.82 174.54 327.82 154.6 335.74 154.6"></polyline>
                        <polyline id="Path" stroke="#2E353A" points="340.41 154.6 366.17 154.6 366.17 165.7"></polyline>
                        <polyline id="Path" stroke="#2E353A" points="83.56 154.6 110.8 154.6 110.8 174.54 72.45 174.54 72.45 154.6 79.92 154.6"></polyline>
                        <polyline id="Path" stroke="#2E353A" points="23.57 154.6 27.21 154.6 27.21 174.54 13.02 174.54 13.02 154.6 20.71 154.6"></polyline>
                        <rect id="Rectangle" stroke="#2E353A" x="273.37" y="136.82" width="6.13" height="37.72"></rect>
                        <polyline id="Path" stroke="#2E353A" points="231.85 141.95 225.83 141.95 225.83 131.98 246.15 131.98 246.15 141.95 237.31 141.95"></polyline>
                        <rect id="Rectangle" stroke="#2E353A" x="100.83" y="125.08" width="23.39" height="8.44"></rect>
                        <rect id="Rectangle" stroke="#2E353A" x="111.95" y="125.08" width="2.3" height="49.46"></rect>
                    </g>
                    <g id="freepik--Location--inject-1--inject-46" transform="translate(132.000000, 2.000000)" fill-rule="nonzero" stroke="#2E353A" stroke-linecap="round" stroke-linejoin="round">
                        <path d="M139,0.63 C67.7552673,0.63 10,58.3852673 10,129.63 C10,193.98 129,345.63 129,345.63 L139,345.63 C139,345.63 268,200.87 268,129.63 C268,58.3852673 210.244733,0.63 139,0.63 Z M139,192.63 C104.206061,192.63 76,164.423939 76,129.63 C76,94.8360608 104.206061,66.63 139,66.63 C173.793939,66.63 202,94.8360608 202,129.63 C202,146.338639 195.362519,162.362935 183.547727,174.177727 C171.732935,185.992519 155.708639,192.63 139,192.63 L139,192.63 Z" id="Shape" fill="#2E353A"></path>
                        <path d="M129,0.63 C57.7552673,0.63 0,58.3852673 0,129.63 C0,200.87 129,345.63 129,345.63 C129,345.63 258,200.87 258,129.63 C258,58.3852673 200.244733,0.63 129,0.63 Z M129,192.63 C94.2060608,192.63 66,164.423939 66,129.63 C66,94.8360608 94.2060608,66.63 129,66.63 C163.793939,66.63 192,94.8360608 192,129.63 C192,164.423939 163.793939,192.63 129,192.63 L129,192.63 Z" id="Shape" fill="#F77D0E"></path>
                    </g>
                    <g id="freepik--Character--inject-1--inject-46" transform="translate(207.000000, 92.000000)">
                        <polygon id="Path" stroke="#2E353A" fill="#FFFFFF" fill-rule="nonzero" stroke-linecap="round" stroke-linejoin="round" points="13.43 118.25 27.68 94 27.93 102.75 19.43 119.75"></polygon>
                        <path d="M27.93,200.17 C27.1276009,204.392478 25.2854102,208.348377 22.57,211.68 C18.02,217.31 11.86,228.29 11.57,238.73 C11.28,249.17 -0.76,278.06 0.57,280.2 C1.9,282.34 13.69,285.29 18.24,285.29 C20.63,285.29 24.59,286.21 26.17,283.88 C26.26,283.75 16.82,278.88 16.17,278.41 C15.52,277.94 10.26,274.24 10.43,273.77 C10.43,273.77 22.77,240.33 28.93,231.77 C35.09,223.21 39.64,216.77 41.51,211.42 C43.38,206.07 45.06,201 45.06,201 L27.93,200.17 Z" id="Path" fill="#FFFFFF" fill-rule="nonzero"></path>
                        <path d="M24.58,208.82 C29.7620194,211.039231 35.2059515,212.588399 40.78,213.43 C41.08,212.74 41.35,212.07 41.58,211.43 C43.46,206.07 45.06,200.98 45.06,200.98 L27.93,200.18 C27.3579081,203.242574 26.2219784,206.172255 24.58,208.82 L24.58,208.82 Z" id="Path" fill="#FFB76F" fill-rule="nonzero" style="mix-blend-mode: multiply;"></path>
                        <path d="M27.93,200.17 C27.1276009,204.392478 25.2854102,208.348377 22.57,211.68 C18.02,217.31 11.86,228.29 11.57,238.73 C11.28,249.17 -0.76,278.06 0.57,280.2 C1.9,282.34 13.69,285.29 18.24,285.29 C20.63,285.29 24.59,286.21 26.17,283.88 C26.26,283.75 16.82,278.88 16.17,278.41 C15.52,277.94 10.26,274.24 10.43,273.77 C10.43,273.77 22.77,240.33 28.93,231.77 C35.09,223.21 39.64,216.77 41.51,211.42 C43.38,206.07 45.06,201 45.06,201 L27.93,200.17 Z" id="Path" stroke="#2E353A" stroke-linecap="round" stroke-linejoin="round"></path>
                        <path d="M66.68,202.36 C69.2916607,205.777175 71.0101512,209.791569 71.68,214.04 C72.81,221.19 76.85,233.11 84.44,240.3 C92.03,247.49 105.44,277.73 107.92,278.16 C110.83,278.68 115.27,274.96 117.43,273.45 C120.18,271.53 126.49,267.61 127.43,264.22 C128.56,260.32 124.55,262.28 122.86,263.54 C120.67,265.17 109.74,266.54 109.74,266.54 C109.74,266.54 93.13,233 90.89,222.7 C88.65,212.4 86.89,204.7 84.18,199.7 C81.47,194.7 78.75,190.13 78.75,190.13 L66.68,202.36 Z" id="Path" fill="#FFFFFF" fill-rule="nonzero"></path>
                        <path d="M84.18,199.73 C81.45,194.73 78.74,190.16 78.74,190.16 L66.68,202.36 C68.7274208,205.038124 70.2198898,208.097855 71.07,211.36 C76.5121712,210.390425 81.8640386,208.968835 87.07,207.11 C86.3603068,204.558067 85.3919538,202.085248 84.18,199.73 Z" id="Path" fill="#FFB76F" fill-rule="nonzero" style="mix-blend-mode: multiply;"></path>
                        <path d="M66.68,202.36 C69.2916607,205.777175 71.0101512,209.791569 71.68,214.04 C72.81,221.19 76.85,233.11 84.44,240.3 C92.03,247.49 105.44,277.73 107.92,278.16 C110.83,278.68 115.27,274.96 117.43,273.45 C120.18,271.53 126.49,267.61 127.43,264.22 C128.56,260.32 124.55,262.28 122.86,263.54 C120.67,265.17 109.74,266.54 109.74,266.54 C109.74,266.54 93.13,233 90.89,222.7 C88.65,212.4 86.89,204.7 84.18,199.7 C81.47,194.7 78.75,190.13 78.75,190.13 L66.68,202.36 Z" id="Path" stroke="#2E353A" stroke-linecap="round" stroke-linejoin="round"></path>
                        <path d="M127.44,264.22 C128.57,260.32 124.56,262.28 122.87,263.54 C120.68,265.17 109.75,266.54 109.75,266.54 C109.75,266.54 108.57,263.94 106.85,260.02 C104.719685,261.704372 102.363331,263.081156 99.85,264.11 C103.6,271.5 106.71,277.99 107.93,278.2 C110.84,278.72 115.28,275 117.44,273.49 C120.16,271.53 126.47,267.61 127.44,264.22 Z" id="Path" stroke="#2E353A" fill="#FFFFFF" fill-rule="nonzero" stroke-linecap="round" stroke-linejoin="round"></path>
                        <path d="M28.29,146.73 L19,198 C23.1901368,200.681846 27.6514892,202.914198 32.31,204.66 C39.63,207.32 52.31,206.66 52.31,206.66 L57.31,181.71 L59.31,205 C59.31,205 68.96,206 75.95,204.67 C82.94,203.34 94.25,196.01 94.25,196.01 L72.25,155.09 L67.25,145.44 L28.32,144.44 L28.29,146.73 Z" id="Path" fill="#FFFFFF" fill-rule="nonzero"></path>
                        <path d="M57.63,176.16 C61.01,171.93 62.23,147.06 62.23,147.06 L28.29,144.49 L28.29,146.73 L24.05,170 C33.55,173.06 55,179.44 57.63,176.16 Z" id="Path" fill="#FFB76F" fill-rule="nonzero" style="mix-blend-mode: multiply;"></path>
                        <path d="M28.29,146.73 L19,198 C23.1901368,200.681846 27.6514892,202.914198 32.31,204.66 C39.63,207.32 52.31,206.66 52.31,206.66 L57.31,181.71 L59.31,205 C59.31,205 68.96,206 75.95,204.67 C82.94,203.34 94.25,196.01 94.25,196.01 L72.25,155.09 L67.25,145.44 L28.32,144.44 L28.29,146.73 Z" id="Path" stroke="#2E353A"></path>
                        <polygon id="Path" stroke="#2E353A" fill="#2E353A" fill-rule="nonzero" stroke-linecap="round" stroke-linejoin="round" points="85.68 106.25 104.68 111.25 112.43 88.25 83.43 82.75 76.93 104"></polygon>
                        <line x1="89.39" y1="95.61" x2="101.47" y2="98.56" id="Path" stroke="#FFFFFF" stroke-linecap="round" stroke-linejoin="round"></line>
                        <line x1="88.22" y1="98.56" x2="100.3" y2="101.51" id="Path" stroke="#FFFFFF" stroke-linecap="round" stroke-linejoin="round"></line>
                        <path d="M65.93,107.5 C65.93,107.5 71.93,104.25 73.93,101.5 C75.93,98.75 78.18,94 79.18,93.25 C80.18,92.5 85.18,90 86.18,89.25 C87.18,88.5 88.68,90 86.93,91.5 C85.18,93 81.43,96.25 81.43,96.25 C81.43,96.25 82.43,100.75 81.18,102.25 C80.5111701,103.077 79.7570004,103.83117 78.93,104.5 L85.68,106.25 C85.68,106.25 81.18,109.5 79.18,110 C77.1986136,110.381322 75.1942845,110.631863 73.18,110.75 L64.93,117.25 L65.93,107.5 Z" id="Path" stroke="#2E353A" fill="#FFFFFF" fill-rule="nonzero" stroke-linecap="round" stroke-linejoin="round"></path>
                        <path d="M38.93,52.89 C38.93,52.89 30.93,64.54 28.93,78.18 C26.93,91.82 28.27,146.73 28.27,146.73 C28.27,146.73 38.91,151.05 47.27,151.05 C55.63,151.05 67.9,151.72 68.27,147.05 C68.64,142.38 65.94,88.82 62.27,75.84 C59.7281542,67.3708189 56.026367,59.2941923 51.27,51.84 C51.27,51.84 42.93,46.23 38.93,52.89 Z" id="Path" stroke="#2E353A" fill="#2E353A" fill-rule="nonzero" stroke-linecap="round" stroke-linejoin="round"></path>
                        <polygon id="Path" stroke="#2E353A" fill="#FFFFFF" fill-rule="nonzero" stroke-linecap="round" stroke-linejoin="round" points="57.18 63 46.43 131.5 55.93 135 60.18 69.25"></polygon>
                        <path d="M33.38,26.35 C33.38,26.35 34.71,32.67 37.38,36 C40.05,39.33 45.03,41 45.03,41 L43.6,48.57 L52.92,54.23 L56.34,38 L57.34,18.7 C57.34,18.7 34,22.69 33.38,26.35 Z" id="Path" stroke="#2E353A" fill="#FFFFFF" fill-rule="nonzero" stroke-linecap="round" stroke-linejoin="round"></path>
                        <path d="M33.38,26.35 C33.38,26.35 34.71,32.67 37.38,36 C40.05,39.33 45.03,41 45.03,41 C45.03,41 53.03,38.67 53.68,33.35 C54.16,29.51 53.44,22.92 52.99,19.53 C46.2,20.87 33.86,23.7 33.38,26.35 Z" id="Path" stroke="#2E353A" fill="#2E353A" fill-rule="nonzero" stroke-linecap="round" stroke-linejoin="round"></path>
                        <path d="M47,28 C47,28 43.67,24 41.68,25.67 C39.69,27.34 40.34,32 42.68,34.33 C45.02,36.66 48.01,34.66 48.01,34.66 C48.01,34.66 49.34,38.98 51.67,40.98 C54,42.98 61.98,44.31 64.67,42.31 C67.36,40.31 66.33,32.99 66.33,32.99 C66.33,32.99 70.99,30.66 70.66,28.99 C70.33,27.32 66.99,25.99 66.99,24.67 C66.9619344,23.6626782 66.8515668,22.6593366 66.66,21.67 L66.66,19 L51.36,22.33 C51.36,22.33 49.35,30 47,28 Z" id="Path" fill="#FFFFFF" fill-rule="nonzero"></path>
                        <g id="Group" opacity="0.5" style="mix-blend-mode: multiply;" transform="translate(49.000000, 19.000000)" fill="#FFB76F" fill-rule="nonzero">
                            <path d="M2.35,3.36 C1.92062747,4.96687175 1.29597265,6.51507537 0.49,7.97 C6.49,7.7 12.9,7.32 18.64,6.82 C18.2867695,6.53882858 18.0513708,6.13579745 17.98,5.69 C17.9519344,4.68267822 17.8415668,3.67933664 17.65,2.69 L17.65,0 L2.35,3.36 Z" id="Path" style="mix-blend-mode: multiply;"></path>
                        </g>
                        <path d="M47,28 C47,28 43.67,24 41.68,25.67 C39.69,27.34 40.34,32 42.68,34.33 C45.02,36.66 48.01,34.66 48.01,34.66 C48.01,34.66 49.34,38.98 51.67,40.98 C54,42.98 61.98,44.31 64.67,42.31 C67.36,40.31 66.33,32.99 66.33,32.99 C66.33,32.99 70.99,30.66 70.66,28.99 C70.33,27.32 66.99,25.99 66.99,24.67 C66.9619344,23.6626782 66.8515668,22.6593366 66.66,21.67 L66.66,19 L51.36,22.33 C51.36,22.33 49.35,30 47,28 Z" id="Path" stroke="#2E353A" stroke-linecap="round" stroke-linejoin="round"></path>
                        <path d="M33.38,26.35 L66.65,19 C66.65,19 61.99,2.69 56.34,1.36 C50.69,0.03 39.7,-0.64 33.71,5.36 C27.72,11.36 33.38,26.35 33.38,26.35 Z" id="Path" stroke="#2E353A" fill="#FFFFFF" fill-rule="nonzero" stroke-linecap="round" stroke-linejoin="round"></path>
                        <path d="M55.67,21.69 C60.055048,22.6638214 64.5024027,23.332094 68.98,23.69 C74.98,24.02 88.61,18.69 85.29,18.36 C81.97,18.03 66.65,19.03 66.65,19.03 L55.67,21.69 Z" id="Path" stroke="#2E353A" fill="#2E353A" fill-rule="nonzero" stroke-linecap="round" stroke-linejoin="round"></path>
                        <polygon id="Path" stroke="#2E353A" fill="#FFFFFF" fill-rule="nonzero" stroke-linecap="round" stroke-linejoin="round" points="40.27 45.9 37.27 52.56 52.25 61.87 55.24 52.56"></polygon>
                        <path d="M9.43,115.5 L62.68,129.25 L57.15,168.19 C56.967117,169.47764 56.2431173,170.625918 55.1601033,171.346017 C54.0770894,172.066117 52.7381286,172.289507 51.48,171.96 L3.07,159.38 C1.18097246,158.892823 0.0207195048,156.99302 0.45,155.09 L9.43,115.5 Z" id="Path" stroke="#2E353A" fill="#FFFFFF" fill-rule="nonzero" stroke-linecap="round" stroke-linejoin="round"></path>
                        <path d="M9.43,115.5 C9.43,115.5 22,146 29.7,150 C37.4,154 62.7,129.28 62.7,129.28" id="Path" stroke="#2E353A" stroke-linecap="round" stroke-linejoin="round"></path>
                        <path d="M20,102.14 C20,102.14 16.67,109.46 17.67,112.14 C18.67,114.82 59.93,129.78 59.93,129.78 C59.93,129.78 60.26,135.43 61.26,136.78 C62.1163169,138.244898 62.788087,139.810122 63.26,141.44 C63.26,141.44 61.26,146.1 62.26,147.1 C63.26,148.1 66.26,142.44 66.26,140.78 C66.26,139.12 66.59,130.13 65.6,127.78 C64.61,125.43 36.31,108.15 36.31,108.15 L20,102.14 Z" id="Path" stroke="#2E353A" fill="#FFFFFF" fill-rule="nonzero" stroke-linecap="round" stroke-linejoin="round"></path>
                        <polyline id="Path" stroke="#2E353A" fill="#2E353A" fill-rule="nonzero" stroke-linecap="round" stroke-linejoin="round" points="38.27 62.21 18.97 103.13 36.27 108.13 50.25 75.52"></polyline>
                        <line x1="36.27" y1="108.13" x2="49.01" y2="79.56" id="Path" stroke="#FFFFFF" stroke-linecap="round" stroke-linejoin="round"></line>
                        <line x1="44.64" y1="90.05" x2="51.05" y2="83.64" id="Path" stroke="#FFFFFF" stroke-linecap="round" stroke-linejoin="round"></line>
                        <path d="M25.64,196.93 C33.6282559,201.071557 42.6040198,202.929685 51.58,202.3" id="Path" stroke="#2E353A" stroke-linecap="round" stroke-linejoin="round"></path>
                        <path d="M21.3,194.31 C21.3,194.31 22.07,194.89 23.5,195.75" id="Path" stroke="#2E353A" stroke-linecap="round" stroke-linejoin="round"></path>
                        <path d="M86.16,194.58 C87.4302809,193.890854 88.6621036,193.133066 89.85,192.31" id="Path" stroke="#2E353A" stroke-linecap="round" stroke-linejoin="round"></path>
                        <path d="M60.56,201 C68.3668507,200.896256 76.0730548,199.223064 83.22,196.08" id="Path" stroke="#2E353A" stroke-linecap="round" stroke-linejoin="round"></path>
                        <line x1="57.24" y1="181.67" x2="64.42" y2="169.24" id="Path" stroke="#2E353A" stroke-linecap="round" stroke-linejoin="round"></line>
                        <line x1="57.63" y1="181.02" x2="69.6" y2="167.45" id="Path" stroke="#2E353A" stroke-linecap="round" stroke-linejoin="round"></line>
                        <path d="M27.1,175.63 L26.1,183.01 C28.5559851,184.728593 31.2515344,186.076368 34.1,187.01 C38.89,188.61 49.1,188.41 49.1,188.41 L50.5,181.41 C50.5,181.41 32.74,179.41 29.15,176.41" id="Path" stroke="#2E353A" stroke-linecap="round" stroke-linejoin="round"></path>
                        <path d="M25.91,185.8 C25.91,185.8 23.11,192.59 24.91,194.19 C26.71,195.79 39.47,200.57 42.91,200.19 C46.35,199.81 48.29,191.41 48.29,191.41" id="Path" stroke="#2E353A" stroke-linecap="round" stroke-linejoin="round"></path>
                        <path d="M127.44,264.22 C128.57,260.32 124.56,262.28 122.87,263.54 C120.68,265.17 109.75,266.54 109.75,266.54 L108.42,263.54 C106.416027,265.301167 104.122114,266.701875 101.64,267.68 C104.55,273.46 106.88,278 107.9,278.17 C110.81,278.69 115.25,274.97 117.41,273.46 C120.16,271.53 126.47,267.61 127.44,264.22 Z" id="Path" stroke="#2E353A" fill="#2E353A" fill-rule="nonzero" stroke-linecap="round" stroke-linejoin="round"></path>
                        <path d="M119.13,269.68 C114.63,272.02 109.38,274.86 106.35,276.45 C107.01,277.45 107.54,278.1 107.9,278.16 C110.81,278.68 115.25,274.96 117.41,273.45 C120.16,271.53 126.47,267.61 127.41,264.22 C127.89,262.58 127.41,261.98 126.66,261.93 C125,264.71 122.42,268 119.13,269.68 Z" id="Path" stroke="#2E353A" fill="#FFFFFF" fill-rule="nonzero" stroke-linecap="round" stroke-linejoin="round"></path>
                        <path d="M16.24,278.41 C15.76,278.05 10.33,274.24 10.5,273.77 C10.5,273.77 11.59,270.84 13.26,266.5 C10.3964168,266.141715 7.59638964,265.387861 4.94,264.26 C2.28,272.34 -0.06,279.2 0.6,280.2 C1.93,282.34 13.72,285.29 18.27,285.29 C20.66,285.29 24.62,286.21 26.2,283.88 C26.29,283.75 16.85,278.86 16.24,278.41 Z" id="Path" stroke="#2E353A" fill="#FFFFFF" fill-rule="nonzero" stroke-linecap="round" stroke-linejoin="round"></path>
                        <path d="M26.2,283.88 C26.29,283.75 16.85,278.88 16.2,278.41 C15.55,277.94 10.29,274.24 10.46,273.77 L11.52,270.94 C8.76424474,270.44021 6.06450771,269.669814 3.46,268.64 C1.46,274.7 0.05,279.38 0.56,280.2 C1.89,282.34 13.68,285.29 18.23,285.29 C20.66,285.29 24.62,286.21 26.2,283.88 Z" id="Path" stroke="#2E353A" fill="#2E353A" fill-rule="nonzero" stroke-linecap="round" stroke-linejoin="round"></path>
                        <path d="M16.84,283.08 C10.71,282.71 3.9,280.19 0.57,278.81 C0.436377105,279.263699 0.436377105,279.746301 0.57,280.2 C1.9,282.34 13.69,285.29 18.24,285.29 C20.63,285.29 24.59,286.21 26.17,283.88 C25.7239068,283.564592 25.2522702,283.286962 24.76,283.05 C22.1238827,283.24346 19.4775073,283.253484 16.84,283.08 Z" id="Path" stroke="#2E353A" fill="#FFFFFF" fill-rule="nonzero" stroke-linecap="round" stroke-linejoin="round"></path>
                        <line x1="53.94" y1="21.72" x2="48.6" y2="9.03" id="Path" stroke="#000000" stroke-linecap="round" stroke-linejoin="round"></line>
                        <path d="M47.93,6.7 C47.93,6.7 46.26,3.02 47.6,1.35" id="Path" stroke="#000000" stroke-linecap="round" stroke-linejoin="round"></path>
                    </g>
                    <g id="Group-17">
                        <path d="M6.15307749,37.415548 C7.03507749,46.659548 7.69007749,55.918548 7.59707749,65.202548 C13.8990775,63.494548 20.6720775,63.198548 27.1470775,62.822548 C34.3360775,62.405548 41.5310775,62.223548 48.7320775,62.154548 C63.0980775,62.014548 77.4870775,62.227548 91.8390775,61.434548 C118.342077,59.971548 144.838077,57.389548 171.396077,57.322548 C172.273077,57.320548 172.881077,57.727548 173.237077,58.294548 C177.064077,61.317548 179.433077,67.650548 181.503077,71.778548 C183.750077,76.259548 185.831077,80.830548 187.873077,85.411548 C189.107077,78.900548 188.921077,71.798548 188.977077,65.276548 C189.037077,58.112548 188.892077,50.952548 188.774077,43.790548 C188.660077,36.679548 188.533077,29.555548 188.823077,22.446548 C189.042077,17.081548 189.085077,11.332548 190.070077,5.93654804 C183.468077,7.12054804 176.286077,6.84754804 169.642077,7.04654804 C161.541077,7.28854804 153.435077,7.31454804 145.331077,7.15254804 C129.130077,6.82854804 112.952077,5.91054804 96.7680775,5.12154804 C80.6420775,4.33554804 64.4940775,3.67154804 48.3450775,3.98054804 C40.2910775,4.13654804 32.2410775,4.49254804 24.2120775,5.17854804 C17.1000775,5.78554804 10.0460775,6.97254804 2.94407749,7.60254804 C3.78507749,12.137548 3.94607749,16.852548 4.44007749,21.428548 C5.01507749,26.756548 5.64407749,32.080548 6.15307749,37.415548" id="Fill-289" fill="#FFFFFF"></path>
                        <path d="M6.15307749,37.415548 C7.03507749,46.659548 7.69007749,55.918548 7.59707749,65.202548 C13.8990775,63.494548 20.6720775,63.198548 27.1470775,62.822548 C34.3360775,62.405548 41.5310775,62.223548 48.7320775,62.154548 C63.0980775,62.014548 77.4870775,62.227548 91.8390775,61.434548 C118.342077,59.971548 144.838077,57.389548 171.396077,57.322548 C172.273077,57.320548 172.881077,57.727548 173.237077,58.294548 C177.064077,61.317548 179.433077,67.650548 181.503077,71.778548 C183.750077,76.259548 185.831077,80.830548 187.873077,85.411548 C189.107077,78.900548 188.921077,71.798548 188.977077,65.276548 C189.037077,58.112548 188.892077,50.952548 188.774077,43.790548 C188.660077,36.679548 188.533077,29.555548 188.823077,22.446548 C189.042077,17.081548 189.085077,11.332548 190.070077,5.93654804 C183.468077,7.12054804 176.286077,6.84754804 169.642077,7.04654804 C161.541077,7.28854804 153.435077,7.31454804 145.331077,7.15254804 C129.130077,6.82854804 112.952077,5.91054804 96.7680775,5.12154804 C80.6420775,4.33554804 64.4940775,3.67154804 48.3450775,3.98054804 C40.2910775,4.13654804 32.2410775,4.49254804 24.2120775,5.17854804 C17.1000775,5.78554804 10.0460775,6.97254804 2.94407749,7.60254804 C3.78507749,12.137548 3.94607749,16.852548 4.44007749,21.428548 C5.01507749,26.756548 5.64407749,32.080548 6.15307749,37.415548" id="Fill-290" fill="#FFFFFF"></path>
                        <path d="M24.2120775,5.17854804 C32.2410775,4.49254804 40.2910775,4.13654804 48.3450775,3.98054804 C64.4940775,3.67154804 80.6420775,4.33554804 96.7680775,5.12154804 C112.952077,5.91054804 129.130077,6.82854804 145.331077,7.15254804 C153.435077,7.31454804 161.541077,7.28854804 169.642077,7.04654804 C176.286077,6.84754804 183.468077,7.12054804 190.070077,5.93654804 C189.085077,11.332548 189.042077,17.081548 188.823077,22.446548 C188.533077,29.555548 188.660077,36.679548 188.774077,43.790548 C188.892077,50.952548 189.037077,58.112548 188.977077,65.276548 C188.921077,71.798548 189.107077,78.900548 187.873077,85.411548 C185.831077,80.830548 183.750077,76.259548 181.503077,71.778548 C179.433077,67.650548 177.064077,61.317548 173.237077,58.294548 C172.881077,57.727548 172.273077,57.320548 171.396077,57.322548 C144.838077,57.389548 118.342077,59.971548 91.8390775,61.434548 C77.4870775,62.227548 63.0980775,62.014548 48.7320775,62.154548 C41.5310775,62.223548 34.3360775,62.405548 27.1470775,62.822548 C20.6720775,63.198548 13.8990775,63.494548 7.59707749,65.202548 C7.69007749,55.918548 7.03507749,46.659548 6.15307749,37.415548 C5.64407749,32.080548 5.01507749,26.756548 4.44007749,21.428548 C3.94607749,16.852548 3.78507749,12.137548 2.94407749,7.60254804 C10.0460775,6.97254804 17.1000775,5.78554804 24.2120775,5.17854804 Z M1.05407749,21.428548 C1.53807749,26.757548 2.04607749,32.086548 2.52807749,37.415548 C3.44907749,47.561548 4.06707749,57.739548 3.72807749,67.931548 C3.64507749,70.398548 7.48907749,70.395548 7.55607749,67.931548 C7.55807749,67.852548 7.55707749,67.773548 7.55907749,67.694548 C14.0790775,67.745548 20.6390775,66.832548 27.1470775,66.496548 C34.3330775,66.126548 41.5360775,66.012548 48.7320775,65.954548 C63.1030775,65.837548 77.4780775,66.054548 91.8390775,65.364548 C118.269077,64.095548 144.636077,61.925548 171.114077,61.895548 C171.820077,63.094548 172.648077,64.239548 173.337077,65.425548 C174.948077,68.196548 176.365077,71.082548 177.761077,73.966548 C180.413077,79.447548 182.885077,85.011548 185.511077,90.504548 C186.419077,92.403548 188.697077,91.595548 189.257077,90.015548 C190.353077,90.126548 191.511077,89.516548 191.501077,88.043548 C191.455077,80.932548 192.413077,73.753548 192.519077,66.619548 C192.624077,59.456548 192.450077,52.292548 192.312077,45.131548 C192.174077,38.010548 192.105077,30.893548 192.225077,23.772548 C192.344077,16.741548 193.475077,9.74154804 193.567233,2.73854804 C193.581077,1.74154804 192.649077,1.27054804 191.866077,1.44654804 C191.409077,1.17754804 190.849077,1.05554804 190.198077,1.19354804 C186.963077,1.88654804 183.722077,1.67654804 180.448077,1.89454804 C176.399077,2.16554804 172.346077,2.35754804 168.291077,2.50554804 C160.191077,2.80054804 152.084077,2.81254804 143.982077,2.70454804 C127.784077,2.48654804 111.603077,1.63654804 95.4210775,0.953548042 C79.7390775,0.291548042 64.0420775,-0.209451958 48.3450775,0.0875480415 C40.2910775,0.240548042 32.2360775,0.646548042 24.2120775,1.36454804 C16.5230775,2.05354804 8.54407749,2.72254804 1.07507749,4.73554804 C0.0500774941,5.01254804 -0.214922506,6.18154804 0.165077494,6.97554804 C-0.141922506,11.752548 0.621077494,16.673548 1.05407749,21.428548 L1.05407749,21.428548 Z" id="Fill-291" fill="#000000"></path>
                        <path d="M44.5760775,38.535548 C42.6300775,34.405548 36.7100775,33.835548 34.9580775,29.644548 C34.0960775,27.581548 33.7290775,25.315548 33.7330775,23.091548 C33.7430775,18.659548 37.4250775,18.675548 40.8850775,19.149548 C41.9700775,19.298548 42.8330775,17.843548 41.6910775,17.235548 C31.8260775,11.985548 28.5690775,22.053548 31.1240775,29.979548 C32.5920775,34.534548 36.6710775,36.053548 40.0680775,38.908548 C42.9620775,41.341548 42.0760775,45.713548 38.4340775,46.559548 C37.0330775,46.886548 35.0750775,46.376548 34.0620775,47.669548 C33.3670775,48.554548 33.5480775,49.745548 34.4130775,50.244548 L34.3950775,50.259548 C34.4760775,50.296548 34.5570775,50.324548 34.6380775,50.358548 C34.6670775,50.370548 34.6940775,50.384548 34.7240775,50.393548 C41.8850775,53.327548 47.5500775,44.846548 44.5760775,38.535548" id="Fill-292" fill="#000000"></path>
                        <path d="M57.3120775,45.002548 C55.7070775,42.233548 54.8960775,39.005548 54.1510775,35.920548 C52.8700775,30.609548 52.4720775,25.155548 51.2630775,19.837548 C50.9740775,18.559548 49.0280775,18.872548 49.0230775,20.139548 C48.9950775,25.734548 49.7450775,31.354548 50.8060775,36.843548 C51.4830775,40.343548 52.8880775,47.978548 56.9230775,49.014548 C57.3540775,49.124548 57.9660775,48.876548 58.0370775,48.380548 C58.2610775,46.811548 58.1370775,46.427548 57.3120775,45.002548" id="Fill-293" fill="#000000"></path>
                        <path d="M87.8150775,46.487548 C87.8010775,46.472548 87.4110775,43.050548 87.3410775,42.372548 C87.0540775,39.639548 87.0070775,36.875548 86.8990775,34.132548 C86.6900775,28.761548 86.8390775,22.762548 84.8810775,17.666548 C84.3000775,16.153548 82.5800775,15.967548 81.6250775,17.241548 C79.4600775,20.129548 77.1850775,23.014548 75.4550775,26.185548 C74.2690775,23.036548 72.6610775,20.133548 70.6000775,17.300548 C69.6790775,16.034548 67.4830775,16.360548 67.4989905,18.139548 C67.5510775,24.023548 67.8960775,29.903548 68.3350775,35.769548 C68.5820775,39.075548 68.3620775,44.921548 70.8100775,47.493548 C71.0950775,47.793548 71.5100775,47.600548 71.6460775,47.272548 C73.0980775,43.755548 71.6810775,38.124548 71.4330775,34.437548 C71.2060775,31.069548 71.0380775,27.693548 70.9350775,24.316548 C72.0580775,26.600548 72.9230775,28.992548 73.5030775,31.597548 C73.8920775,33.341548 76.3310775,33.139548 76.8230775,31.597548 C77.9560775,28.044548 80.1600775,24.946548 82.4400775,21.973548 C83.7030775,27.630548 83.2810775,33.936548 83.5750775,39.559548 C83.6750775,41.483548 83.5850775,49.738548 87.6280775,47.935548 C88.2090775,47.677548 88.1650775,46.893548 87.8150775,46.487548" id="Fill-294" fill="#000000"></path>
                        <path d="M98.4230775,32.022548 C97.7350775,28.044548 96.9950775,24.081548 96.2730775,20.146548 C100.254077,19.263548 105.671077,18.911548 105.838077,23.531548 C105.989077,27.702548 102.134077,30.239548 98.4230775,32.022548 Z M108.700077,22.751548 C107.335077,15.169548 97.5910775,17.347548 92.7530775,19.438548 C91.9010775,19.806548 92.5130775,21.197548 93.3790775,20.923548 C93.5960775,20.854548 93.8370775,20.780548 94.0970775,20.704548 C94.2450775,24.956548 94.6590775,29.216548 95.1830775,33.471548 C94.9070775,33.589548 94.6420775,33.705548 94.3900775,33.817548 C92.7020775,34.569548 93.9810775,36.910548 95.5700775,36.616548 C95.5750775,36.615548 95.5790775,36.614548 95.5850775,36.613548 C96.1890775,41.139548 96.8690775,45.655548 97.4440775,50.139548 C97.7190775,52.280548 101.069077,52.383548 100.882077,50.139548 C100.475077,45.274548 99.8020775,40.395548 99.0120775,35.532548 C104.189077,33.298548 109.704077,28.327548 108.700077,22.751548 L108.700077,22.751548 Z" id="Fill-295" fill="#000000"></path>
                        <path d="M129.782077,46.520548 C128.101077,45.190548 127.386077,45.639548 125.131077,45.921548 C122.440077,46.259548 119.706077,46.301548 116.989077,46.317548 C117.134077,36.911548 118.245077,26.818548 115.489077,17.774548 C115.054077,16.347548 112.627077,16.543548 112.788077,18.139548 C113.804077,28.200548 113.462077,38.049548 113.353077,48.139548 C113.342077,49.131548 114.185077,49.944548 115.163077,49.950548 C118.784077,49.970548 127.963077,51.431548 129.919077,47.581548 C130.082077,47.260548 130.099077,46.770548 129.782077,46.520548" id="Fill-296" fill="#000000"></path>
                        <path d="M149.912077,47.421548 C150.717077,46.837548 151.025077,45.370548 149.912077,44.858548 C149.867077,44.834548 149.839077,44.823548 149.819077,44.819548 C149.412077,44.366548 148.841077,44.019548 148.214077,44.075548 C144.525077,44.404548 140.821077,44.761548 137.117077,44.913548 C136.805077,41.428548 136.629077,37.934548 136.489077,34.439548 C136.839077,34.437548 137.189077,34.431548 137.538077,34.431548 C139.416077,34.431548 141.285077,34.146548 143.163077,34.124548 C145.721077,34.093548 145.724077,30.124548 143.163077,30.155548 C141.243077,30.179548 139.370077,30.452548 137.485077,30.802548 C137.151077,30.864548 136.761077,30.934548 136.360077,31.027548 C136.332077,30.227548 136.304077,29.429548 136.276077,28.630548 C136.199077,26.427548 136.899077,21.412548 135.673077,18.774548 C137.853077,18.988548 140.054077,19.019548 142.240077,19.049548 C144.798077,19.083548 148.032077,19.919548 149.970077,17.946548 C150.408077,17.500548 150.408077,16.779548 149.970077,16.333548 C148.214077,14.544548 145.737077,15.182548 143.394077,15.215548 C140.190077,15.259548 136.948077,15.239548 133.776077,15.738548 C132.698077,15.908548 132.464077,17.354548 133.057077,18.104548 C131.288077,20.456548 132.192077,26.225548 132.188077,28.630548 C132.173077,34.800548 132.401077,40.999548 133.010077,47.139548 C133.125077,48.298548 133.902077,49.304548 135.163077,49.2936374 C139.524077,49.253548 143.878077,48.823548 148.214077,48.389548 C148.915077,48.318548 149.765077,48.042548 150.076077,47.320548 C149.802077,47.505548 149.747077,47.539548 149.912077,47.421548" id="Fill-297" fill="#000000"></path>
                    </g>
                </g>
            </g>
        </g>
    </g>
</svg>