<?xml version="1.0" encoding="UTF-8"?>
<svg width="187px" height="159px" viewBox="0 0 187 159" version="1.1" xmlns="http://www.w3.org/2000/svg" xmlns:xlink="http://www.w3.org/1999/xlink">
    <title>Confirmed-bro</title>
    <g id="Page-1" stroke="none" stroke-width="1" fill="none" fill-rule="evenodd">
        <g id="selling-on-splitchek-copy" transform="translate(-759.000000, -191.000000)">
            <g id="form" transform="translate(682.000000, 87.000000)">
                <g id="Confirmed-bro" transform="translate(78.000000, 104.000000)">
                    <g id="freepik--background-simple--inject-94" fill="#F9FBFF" fill-rule="nonzero">
                        <path d="M137.3328,151.1136 C137.3328,151.1136 160.1424,149.688 175.824,121.6512 C191.5056,93.6144 188.6544,50.8464 169.1712,27.0864 C149.688,3.3264 119.2752,-4.752 90.288,2.8512 C76.165056,6.553008 66.746592,16.1568 58.606416,27.742176 C51.516432,37.835424 43.542576,47.558016 32.81256,53.944704 C22.187088,60.264864 11.26224,65.311488 5.897232,77.324544 C-7.161264,106.577856 2.376,140.602176 33.264,152.064 C66.528,164.4192 122.1264,157.7664 137.3328,151.1136 Z" id="Path"></path>
                    </g>
                    <g id="freepik--Graphics--inject-94" transform="translate(0.000000, 11.404800)" stroke="#263238" stroke-linecap="round" stroke-linejoin="round" stroke-width="0.9504">
                        <line x1="13.291344" y1="69.04656" x2="13.291344" y2="73.261584" id="Path"></line>
                        <line x1="15.401232" y1="71.156448" x2="11.186208" y2="71.156448" id="Path"></line>
                        <line x1="157.120128" y1="32.93136" x2="157.120128" y2="37.146384" id="Path"></line>
                        <line x1="159.225264" y1="35.041248" x2="155.01024" y2="35.041248" id="Path"></line>
                        <line x1="97.244928" y1="0.304128" x2="97.244928" y2="4.519152" id="Path"></line>
                        <line x1="99.350064" y1="2.409264" x2="95.13504" y2="2.409264" id="Path"></line>
                        <line x1="27.865728" y1="116.252928" x2="27.865728" y2="120.467952" id="Path"></line>
                        <line x1="29.970864" y1="118.358064" x2="25.75584" y2="118.358064" id="Path"></line>
                        <path d="M155.233587,17.739216 C155.235507,19.1503982 154.386911,20.4236956 153.0837,20.9650644 C151.780489,21.5064331 150.279473,21.2091915 149.280935,20.2120145 C148.282398,19.2148375 147.98311,17.7142281 148.522702,16.4102803 C149.062293,15.1063325 150.334432,14.256 151.745616,14.256 C153.670113,14.256 155.230962,15.8147205 155.233587,17.739216 L155.233587,17.739216 Z" id="Path"></path>
                        <circle id="Oval" transform="translate(4.752453, 98.211185) rotate(-22.500000) translate(-4.752453, -98.211185) " cx="4.75245312" cy="98.2111849" r="3.483216"></circle>
                        <path d="M171.072,53.379216 C171.095058,53.676525 170.9495,53.9616647 170.695182,54.1173782 C170.440864,54.2730918 170.12072,54.2730918 169.866402,54.1173782 C169.612084,53.9616647 169.466526,53.676525 169.489584,53.379216 C169.521634,52.9659727 169.866308,52.6469954 170.280792,52.6469954 C170.695276,52.6469954 171.03995,52.9659727 171.072,53.379216 L171.072,53.379216 Z" id="Path"></path>
                        <path d="M50.2143983,41.974416 C50.2163086,42.2958162 50.0241831,42.586641 49.7277986,42.7109714 C49.4314142,42.8353018 49.089303,42.768584 48.8613533,42.5419992 C48.6334035,42.3154144 48.5646323,41.9737102 48.6871803,41.6765843 C48.8097284,41.3794585 49.099394,41.185584 49.4208,41.185584 C49.8572353,41.185584 50.2117706,41.5379886 50.2143983,41.974416 L50.2143983,41.974416 Z" id="Path"></path>
                    </g>
                    <g id="Group-15" transform="translate(6.336000, 6.336000)" stroke="#0B0212" stroke-width="0.792">
                        <path d="M5.80388552,9.7588163 C6.08573803,9.49907092 6.21942579,9.11583266 6.16028552,8.7371363 L5.08316552,1.3240163 C5.01945697,0.889363641 5.20754707,0.456150122 5.56861255,0.20592335 C5.92967802,-0.0443034218 6.40135059,-0.0683207693 6.78596552,0.143936303 L13.3516455,3.7633763 C13.6884204,3.94219523 14.0919906,3.94219523 14.4287655,3.7633763 L21.1370055,0.413216303 C21.5306218,0.215140242 22.0026011,0.257994353 22.3541053,0.523724798 C22.7056095,0.789455244 22.8755315,1.23186626 22.7922855,1.6645763 L21.3746055,9.0301763 C21.2962689,9.40355122 21.4125577,9.79118071 21.6834855,10.0597763 L26.9423655,15.3978563 C27.2544792,15.7111403 27.3605794,16.1750012 27.2156919,16.5928163 C27.0708044,17.0106313 26.7003063,17.3092203 26.2612455,17.3620163 L18.8243655,18.2886563 C18.4468196,18.334833 18.1156356,18.562522 17.9373255,18.8984963 L14.4842055,25.5592163 C14.2807676,25.9503319 13.8726328,26.1917359 13.4318874,26.1816425 C12.991142,26.1715491 12.5944858,25.9117147 12.4091655,25.5116963 L9.24116552,18.7242563 C9.08107041,18.3795787 8.76082183,18.136427 8.38580552,18.0748163 L0.988525525,16.8472163 C0.557088936,16.7813354 0.198734344,16.4796913 0.06022009,16.0658174 C-0.0782941645,15.6519435 0.0262991482,15.1953611 0.331165525,14.8830563 L5.80388552,9.7588163 Z" id="Path"></path>
                        <path d="M158.197269,147.417015 L153.017589,146.371575 C152.754143,146.31418 152.479596,146.394754 152.288949,146.585415 L148.495269,150.260295 C148.279409,150.4984 147.941061,150.582451 147.638872,150.473038 C147.336683,150.363624 147.130575,150.082442 147.117189,149.761335 L146.507349,144.510375 C146.480305,144.242714 146.319241,144.007082 146.079669,143.884695 L141.438549,141.429495 C141.149642,141.29734 140.967664,141.005336 140.976294,140.687755 C140.984924,140.370174 141.182491,140.088484 141.478149,139.972215 L146.285589,137.770455 C146.533978,137.662853 146.710207,137.435845 146.752869,137.168535 L147.639909,131.925495 C147.672046,131.604234 147.895977,131.33464 148.205888,131.244105 C148.515798,131.153569 148.849642,131.260217 149.049669,131.513655 L152.621589,135.410295 C152.800876,135.610126 153.069191,135.705527 153.334389,135.663735 L158.569509,134.927175 C158.875985,134.879685 159.18198,135.015447 159.352435,135.274538 C159.52289,135.533629 159.526436,135.86837 159.361509,136.131015 L156.763749,140.740455 C156.645071,140.977215 156.645071,141.256094 156.763749,141.492855 L159.084309,146.244855 C159.250965,146.522111 159.232254,146.872853 159.037047,147.130805 C158.84184,147.388758 158.509377,147.502066 158.197269,147.417015 Z" id="Path"></path>
                        <path d="M163.091829,124.971735 L160.604949,124.464855 C160.479038,124.442038 160.349762,124.480233 160.256469,124.567815 L158.434869,126.333975 C158.326575,126.436624 158.169775,126.469686 158.029255,126.4195 C157.888736,126.369315 157.788355,126.244402 157.769589,126.096375 L157.476549,123.577815 C157.469841,123.449067 157.394125,123.333979 157.278549,123.276855 L155.029269,122.080935 C154.896274,122.015756 154.811975,121.880562 154.811975,121.732455 C154.811975,121.584347 154.896274,121.449153 155.029269,121.383975 L157.341909,120.322695 C157.457393,120.268865 157.539922,120.162756 157.563669,120.037575 L157.999269,117.534855 C158.02798,117.39032 158.134571,117.273682 158.275942,117.232102 C158.417312,117.190523 158.570078,117.23088 158.672469,117.336855 L160.446549,119.205975 C160.532845,119.300879 160.659765,119.348105 160.787109,119.332695 L163.305669,118.976295 C163.451679,118.959304 163.595087,119.024589 163.678153,119.145865 C163.761218,119.267141 163.770272,119.42445 163.701669,119.554455 L162.450309,121.772055 C162.39113,121.886285 162.39113,122.022144 162.450309,122.136375 L163.567029,124.409415 C163.643668,124.55254 163.625182,124.727946 163.52039,124.85195 C163.415597,124.975954 163.245731,125.023433 163.091829,124.971735 Z" id="Path"></path>
                    </g>
                    <g id="freepik--Device--inject-94" transform="translate(51.004800, 43.137600)">
                        <path d="M12.672,23.58048 C1.40800543,39.9008178 2.73320937,61.8007487 15.8829543,76.6437675 C29.0326993,91.4867862 50.6132127,95.4421091 68.1722968,86.2274706 C85.7313809,77.012832 94.737272,57.0064064 89.99347,37.7521253 C85.2496681,18.4978441 67.9804847,4.96497879 48.150432,4.962144 C45.5080668,4.962144 42.8711042,5.20086084 40.271616,5.674944" id="Path" stroke="#263238" stroke-width="0.9504" stroke-linecap="round" stroke-linejoin="round"></path>
                        <path d="M20.018592,15.435552 C18.5704777,16.6888163 17.2053598,18.0348861 15.931872,19.465248" id="Path" stroke="#263238" stroke-width="0.9504" stroke-linecap="round" stroke-linejoin="round"></path>
                        <circle id="Oval" fill="#ADC7F7" fill-rule="nonzero" transform="translate(48.179290, 48.071074) rotate(-66.930000) translate(-48.179290, -48.071074) " cx="48.1792899" cy="48.0710745" r="36.571392"></circle>
                        <polyline id="Path" stroke="#263238" stroke-width="5.7024" stroke-linecap="round" stroke-linejoin="round" points="31.290336 44.270688 45.166176 60.037824 67.861728 27.885792"></polyline>
                    </g>
                </g>
            </g>
        </g>
    </g>
</svg>