<?xml version="1.0" encoding="UTF-8"?>
<svg width="310px" height="320px" viewBox="0 0 310 320" version="1.1" xmlns="http://www.w3.org/2000/svg" xmlns:xlink="http://www.w3.org/1999/xlink">
    <title>Group Chat-bro</title>
    <g id="Page-1" stroke="none" stroke-width="1" fill="none" fill-rule="evenodd">
        <g id="selling-on-splitchek" transform="translate(-818.000000, -2010.000000)">
            <g id="why-choose-us" transform="translate(150.000000, 1516.000000)">
                <g id="Group-Chat-bro" transform="translate(668.000000, 494.000000)">
                    <g id="freepik--background-simple--inject-2" fill-rule="nonzero">
                        <path d="M0.363372807,133.832712 C0.363372807,133.832712 -5.54321655,190.819177 36.5581544,238.06808 C78.6595253,285.316982 143.774507,301.144973 196.29969,315.370219 C248.824873,329.595465 293.640853,307.72691 305.981279,263.562399 C318.321704,219.397889 279.618938,197.956732 264.713528,141.882051 C249.808118,85.8073693 254.068842,69.224308 211.903346,28.1085737 C169.737851,-13.0071606 94.3415557,-8.08495468 48.7418309,38.7009329 C3.14210604,85.4868204 0.363372807,133.832712 0.363372807,133.832712 Z" id="Path" fill="#ADC7F7"></path>
                        <path d="M0.363372807,133.832712 C0.363372807,133.832712 -5.54321655,190.819177 36.5581544,238.06808 C78.6595253,285.316982 143.774507,301.144973 196.29969,315.370219 C248.824873,329.595465 293.640853,307.72691 305.981279,263.562399 C318.321704,219.397889 279.618938,197.956732 264.713528,141.882051 C249.808118,85.8073693 254.068842,69.224308 211.903346,28.1085737 C169.737851,-13.0071606 94.3415557,-8.08495468 48.7418309,38.7009329 C3.14210604,85.4868204 0.363372807,133.832712 0.363372807,133.832712 Z" id="Path" fill="#F9FBFF"></path>
                    </g>
                    <g id="freepik--Device--inject-2" transform="translate(85.499484, 41.315187)">
                        <rect id="Rectangle" fill="#263238" fill-rule="nonzero" x="0.0997493981" y="0.0498631566" width="134.725812" height="262.850069" rx="4.02401848"></rect>
                        <g id="Group">
                            <path d="M11.7063044,0.0498631566 C8.62681972,0.0498631566 5.67356677,1.27338731 3.49671056,3.45107575 C1.31985435,5.62876418 0.0978589839,8.58208396 0.0997385392,11.6608553 L0.0997385392,251.28894 C0.0950440556,254.727547 1.61973198,257.990251 4.26072429,260.193075 L82.86325,0.0498631566 L11.7063044,0.0498631566 Z" id="Path" fill="#FFFFFF" fill-rule="nonzero" opacity="0.2"></path>
                            <path d="M72.0333376,255.299362 C72.0333376,253.446161 70.9163311,251.775573 69.2035241,251.067051 C67.490717,250.358529 65.51964,250.751707 64.2099461,252.063137 C62.9002523,253.374567 62.5100523,255.345798 63.2214033,257.057103 C63.9327543,258.768409 65.6054652,259.882531 67.4590929,259.879655 C68.6740697,259.88155 69.8397274,259.399367 70.6981779,258.539779 C71.5566284,257.68019 72.0371077,256.514053 72.0333376,255.299362 L72.0333376,255.299362 Z" id="Path" stroke="#FFFFFF" stroke-width="0.5" stroke-linecap="round" stroke-linejoin="round"></path>
                        </g>
                        <rect id="Rectangle" stroke="#263238" stroke-width="0.5" stroke-linecap="round" stroke-linejoin="round" x="0.0997493981" y="0.0498631566" width="134.725812" height="262.850069" rx="4.02401848"></rect>
                        <rect id="Rectangle" stroke="#263238" stroke-width="0.5" fill="#FFFFFF" fill-rule="nonzero" stroke-linecap="round" stroke-linejoin="round" x="6.08471328" y="17.9008732" width="122.741634" height="229.399014"></rect>
                        <rect id="Rectangle" stroke="#263238" stroke-width="0.5" stroke-linecap="round" stroke-linejoin="round" x="114.476684" y="20.2800581" width="10.1744386" height="5.57755023"></rect>
                        <rect id="Rectangle" stroke="#263238" stroke-width="0.5" fill="#263238" fill-rule="nonzero" stroke-linecap="round" stroke-linejoin="round" x="114.476684" y="20.2800581" width="7.9372021" height="5.57755023"></rect>
                        <rect id="Rectangle" stroke="#263238" stroke-width="0.5" fill="#263238" fill-rule="nonzero" stroke-linecap="round" stroke-linejoin="round" x="124.629748" y="21.8400626" width="1.43211636" height="2.45754129"></rect>
                        <rect id="Rectangle" stroke="#263238" stroke-width="0.5" fill="#263238" fill-rule="nonzero" stroke-linecap="round" stroke-linejoin="round" x="8.8491966" y="22.011022" width="1.86673874" height="3.19836533"></rect>
                        <rect id="Rectangle" stroke="#263238" stroke-width="0.5" fill="#263238" fill-rule="nonzero" stroke-linecap="round" stroke-linejoin="round" x="11.7846789" y="20.8855393" width="1.86673874" height="4.32384801"></rect>
                        <rect id="Rectangle" stroke="#263238" stroke-width="0.5" fill="#263238" fill-rule="nonzero" stroke-linecap="round" stroke-linejoin="round" x="14.7130362" y="19.560604" width="1.86673874" height="5.64878332"></rect>
                        <rect id="Rectangle" fill="#ADC7F7" fill-rule="nonzero" x="8.06545133" y="28.9633707" width="117.861039" height="8.86139526"></rect>
                    </g>
                    <g id="freepik--text-balloons--inject-2" transform="translate(97.611911, 89.041351)" fill-rule="nonzero">
                        <path d="M106.760356,107.355234 L70.5370743,107.355234 C68.0658911,107.355234 66.0626013,109.358202 66.0626013,111.828814 L66.0626013,116.273758 L57.1136553,120.298427 L66.0626013,122.698982 L66.0626013,125.477072 C66.0626013,127.947683 68.0658911,129.950509 70.5370743,129.950509 L106.795981,129.950509 C109.267164,129.950509 111.270459,127.947683 111.270459,125.477072 L111.270459,111.835937 C111.272393,110.642077 110.796928,109.496972 109.949872,108.655464 C109.102817,107.813956 107.954456,107.345869 106.760356,107.355234 L106.760356,107.355234 Z" id="Path" stroke="#263238" stroke-width="0.5" fill="#FFFFFF"></path>
                        <path d="M82.3075168,119.016232 C82.3075168,119.780373 81.846699,120.469134 81.1402842,120.760889 C80.4338694,121.052643 79.6212021,120.889831 79.0817704,120.348481 C78.5423386,119.807132 78.3825631,118.994043 78.6770534,118.2889 C78.9715438,117.583756 79.6622022,117.125671 80.4265147,117.128541 C80.9266208,117.128541 81.4061406,117.327658 81.7590999,117.681872 C82.1120592,118.036087 82.3093977,118.516245 82.3075168,119.016232 Z" id="Path" fill="#263238"></path>
                        <path d="M90.5439671,119.016232 C90.5400221,120.053896 89.6961419,120.892274 88.658233,120.889662 C87.6203241,120.887038 86.7806858,120.044414 86.7819898,119.006743 C86.7832968,117.969072 87.6250527,117.128555 88.662965,117.128555 C89.1630711,117.128555 89.6425909,117.327658 89.9955502,117.681872 C90.3485095,118.036087 90.545848,118.516245 90.5439671,119.016232 Z" id="Path" fill="#263238"></path>
                        <path d="M98.7875289,119.016232 C98.7875289,120.058767 97.9421916,120.903908 96.8994153,120.903908 C95.8566389,120.903908 95.0113017,120.058767 95.0113017,119.016232 C95.0113017,117.973697 95.8566389,117.128555 96.8994153,117.128555 C97.9421916,117.128555 98.7875289,117.973697 98.7875289,119.016232 L98.7875289,119.016232 Z" id="Path" fill="#263238"></path>
                        <path d="M106.760356,0.505612841 L70.5370743,0.505612841 C68.0686709,0.505612841 66.0665319,2.50424003 66.0626013,4.97206905 L66.0626013,9.4241366 L57.1136553,13.4488057 L66.0626013,15.8493605 L66.0626013,18.6274507 C66.0626013,21.098062 68.0658911,23.1008881 70.5370743,23.1008881 L106.795981,23.1008881 C109.267164,23.1008881 111.270459,21.098062 111.270459,18.6274507 L111.270459,4.98631566 C111.272393,3.79245526 110.796928,2.64735045 109.949872,1.8058425 C109.102817,0.964334542 107.954456,0.496248029 106.760356,0.505612841 L106.760356,0.505612841 Z" id="Path" stroke="#263238" stroke-width="0.5" fill="#FFFFFF"></path>
                        <path d="M82.3075168,12.1666102 C82.3075168,12.9307512 81.846699,13.619513 81.1402842,13.9112672 C80.4338694,14.2030213 79.6212021,14.0402098 79.0817704,13.4988601 C78.5423386,12.9575104 78.3825631,12.1444214 78.6770534,11.4392782 C78.9715438,10.7341349 79.6622022,10.27605 80.4265147,10.27892 C80.9266208,10.27892 81.4061406,10.4780367 81.7590999,10.832251 C82.1120592,11.1864653 82.3093977,11.6666234 82.3075168,12.1666102 Z" id="Path" fill="#263238"></path>
                        <path d="M90.5439671,12.1666102 C90.5400221,13.2042748 89.6961419,14.0426522 88.658233,14.0400404 C87.6203241,14.0374164 86.7806858,13.1947927 86.7819898,12.1571215 C86.7832968,11.1194503 87.6250527,10.2789336 88.662965,10.2789336 C89.1630711,10.2789336 89.6425909,10.4780367 89.9955502,10.832251 C90.3485095,11.1864653 90.545848,11.6666234 90.5439671,12.1666102 Z" id="Path" fill="#263238"></path>
                        <path d="M98.7875289,12.1666102 C98.7875289,13.2091452 97.9421916,14.0542869 96.8994153,14.0542869 C95.8566389,14.0542869 95.0113017,13.2091452 95.0113017,12.1666102 C95.0113017,11.1240752 95.8566389,10.2789336 96.8994153,10.2789336 C97.9421916,10.2789336 98.7875289,11.1240752 98.7875289,12.1666102 L98.7875289,12.1666102 Z" id="Path" fill="#263238"></path>
                        <path d="M4.55284753,165.260748 L40.8117537,165.260748 C43.2829369,165.260748 45.2862267,167.263574 45.2862267,169.734185 L45.2862267,174.179129 L54.2351727,178.203799 L45.2862267,180.604353 L45.2862267,183.382443 C45.2862267,185.853055 43.2829369,187.855881 40.8117537,187.855881 L4.55284753,187.855881 C2.08166433,187.855881 0.0782836348,185.853055 0.0782836348,183.382443 L0.0782836348,169.762678 C0.0707843454,168.57132 0.538847788,167.42615 1.37879833,166.581045 C2.21874888,165.73594 3.36118905,165.260748 4.55284753,165.260748 Z" id="Path" stroke="#263238" stroke-width="0.5" fill="#FFFFFF"></path>
                        <path d="M29.0056865,176.950096 C29.0028187,177.714879 29.4617834,178.405827 30.1679665,178.699828 C30.8741497,178.99383 31.687986,178.832782 32.2288981,178.291995 C32.7698102,177.751208 32.9308958,176.93756 32.6368259,176.231541 C32.3427559,175.525521 31.6516484,175.066662 30.8866886,175.069529 C29.8478473,175.069529 29.0056865,175.911495 29.0056865,176.950096 L29.0056865,176.950096 Z" id="Path" fill="#263238"></path>
                        <path d="M20.7692497,176.950096 C20.7692497,177.988697 21.611397,178.83065 22.6502383,178.83065 C23.6890797,178.83065 24.531227,177.988697 24.531227,176.950096 C24.531227,175.911495 23.6890797,175.069543 22.6502383,175.069543 C21.611397,175.069543 20.7692497,175.911495 20.7692497,176.950096 Z" id="Path" fill="#263238"></path>
                        <path d="M12.5256609,176.950096 C12.5227902,177.714232 12.9809811,178.40473 13.6862876,178.699153 C14.3915941,178.993575 15.2048713,178.833836 15.7463463,178.294529 C16.2878214,177.755222 16.4506705,176.942743 16.1588488,176.236492 C15.8670271,175.530241 15.1781059,175.069543 14.413788,175.069543 C13.3737878,175.069543 12.5295989,175.910344 12.5256609,176.950096 Z" id="Path" fill="#263238"></path>
                        <path d="M4.55284753,56.9864647 L40.8117537,56.9864647 C43.2829369,56.9864647 45.2862267,58.9892909 45.2862267,61.4599022 L45.2862267,65.9048465 L54.2351727,69.9295155 L45.2862267,72.3300704 L45.2862267,75.1081605 C45.2862267,77.5787718 43.2829369,79.581598 40.8117537,79.581598 L4.55284753,79.581598 C2.08166433,79.581598 0.0783745271,77.5787718 0.0783745271,75.1081605 L0.0783745271,61.4527789 C0.0823051057,58.9849499 2.08444412,56.9864647 4.55284753,56.9864647 Z" id="Path" stroke="#263238" stroke-width="0.5" fill="#FFFFFF"></path>
                        <path d="M29.0056865,68.6401968 C29.0056865,69.4043378 29.4665042,70.0930995 30.1729191,70.3848537 C30.8793339,70.6766079 31.6920012,70.5137964 32.2314329,69.9724467 C32.7708647,69.4310969 32.9306402,68.618008 32.6361499,67.9128647 C32.3416595,67.2077215 31.651001,66.7496366 30.8866886,66.7525066 C30.3865825,66.7525066 29.9070627,66.9516232 29.5541034,67.3058375 C29.2011441,67.6600518 29.0038056,68.1402099 29.0056865,68.6401968 L29.0056865,68.6401968 Z" id="Path" fill="#263238"></path>
                        <path d="M20.7692362,68.6401968 C20.7731812,69.6778613 21.6170614,70.5162387 22.6549703,70.5136269 C23.6928792,70.5110029 24.5325175,69.6683792 24.5312135,68.630708 C24.5299065,67.5930368 23.6881505,66.7525201 22.6502383,66.7525201 C22.1501322,66.7525201 21.6706124,66.9516232 21.3176531,67.3058375 C20.9646938,67.6600518 20.7673553,68.1402099 20.7692362,68.6401968 Z" id="Path" fill="#263238"></path>
                        <path d="M12.5256744,68.6401968 C12.5256744,69.6827318 13.3710117,70.5278734 14.413788,70.5278734 C15.4565644,70.5278734 16.3019016,69.6827318 16.3019016,68.6401968 C16.3019016,67.5976617 15.4565644,66.7525201 14.413788,66.7525201 C13.3710117,66.7525201 12.5256744,67.5976617 12.5256744,68.6401968 L12.5256744,68.6401968 Z" id="Path" fill="#263238"></path>
                    </g>
                    <g id="freepik--character-1--inject-2" transform="translate(93.336937, 73.370073)">
                        <path d="M61.6023783,69.7300629 C60.7616333,66.0188194 57.5126529,52.0713821 55.4820402,49.3360318 C53.1379293,46.173283 39.5720112,38.8291524 37.6340229,37.5042171 C35.6960346,36.1792818 32.7391774,35.1606487 31.820058,35.1606487 C31.820058,35.1606487 24.3744779,37.710793 17.0357722,39.6483328 C9.69706648,41.5858726 5.63584099,42.9108079 4.79509606,45.3469793 C4.08260036,47.4839717 0.826495013,65.4489547 0.064124613,69.7158163 L61.6023783,69.7300629 Z" id="Path" stroke="#263238" stroke-width="0.5" fill="#616161" fill-rule="nonzero" stroke-linecap="round" stroke-linejoin="round"></path>
                        <path d="M17.0998968,68.4549908 C16.7911487,63.1315052 16.4895255,57.8127685 16.1950273,52.4987806" id="Path" stroke="#263238" stroke-width="0.5" stroke-linecap="round" stroke-linejoin="round"></path>
                        <path d="M37.3276497,51.4730243 C40.7975038,50.9672694 42.7354921,44.6417718 43.248489,41.9919012 C43.3197386,41.6072426 43.3909882,41.2795704 43.4551128,40.9590215 C40.6906295,39.327784 38.3536436,38.0028487 37.6340229,37.5042171 C35.6960346,36.1792818 32.7391774,35.1606487 31.820058,35.1606487 C31.820058,35.1606487 29.1054494,36.0938021 25.3363471,37.2549013 C25.8422191,38.4088772 27.1318363,41.2582005 29.0698246,45.0549237 C31.6205592,50.0483626 33.8649206,52.0001491 37.3276497,51.4730243 Z" id="Path" stroke="#263238" stroke-width="0.5" fill="#FFFFFF" fill-rule="nonzero" stroke-linecap="round" stroke-linejoin="round"></path>
                        <path d="M29.5756965,25.8789783 C29.5756965,25.8789783 28.5568277,36.3858577 28.4570783,36.9984622 C28.3573289,37.6110667 29.7823203,41.6855989 32.2333055,45.4609522 C34.6842907,49.2363055 37.9332711,48.9300033 39.5720112,45.6604049 C40.7969852,42.928949 41.7862044,40.0978155 42.5288684,37.1979148 C39.3188203,36.50859 36.5866384,34.4174516 35.0832883,31.4992684 C32.639428,26.5984324 30.5945654,24.4543167 29.5756965,25.8789783 Z" id="Path" stroke="#263238" stroke-width="0.5" fill="#B2B2B2" fill-rule="nonzero" stroke-linecap="round" stroke-linejoin="round"></path>
                        <path d="M36.615154,0.897536819 C36.615154,0.897536819 30.0886934,2.83507662 27.7445826,7.93536521 C25.8350941,12.0811305 26.9252125,18.541971 27.7445826,20.6789634 C28.5639526,22.8159558 28.8632008,27.004461 30.3950666,30.7798143 C31.9269323,34.5551675 36.0024077,39.327784 39.4722618,40.0401148 C42.9421159,40.7524456 49.7749496,35.2461284 51.5846887,32.7031074 C53.3944278,30.1600865 52.8101813,25.7650054 53.0096801,25.0526746 C53.2091789,24.3403437 55.8596629,19.2400552 55.5604147,12.9430508 C55.2611665,6.64604645 46.5117193,-0.833427047 36.615154,0.897536819 Z" id="Path" stroke="#263238" stroke-width="0.5" fill="#B2B2B2" fill-rule="nonzero" stroke-linecap="round" stroke-linejoin="round"></path>
                        <path d="M49.1622033,24.3545904 C49.1622033,24.3545904 50.0813228,30.2669361 48.6492064,30.8795406 C47.2170901,31.4921451 44.4668567,30.5732383 44.0607341,29.7540579" id="Path" stroke="#263238" stroke-width="0.5" stroke-linecap="round" stroke-linejoin="round"></path>
                        <path d="M43.248489,32.9168067 C41.6688817,32.1794025 40.2994886,31.0576907 39.2656381,29.6543316 C39.2656381,29.6543316 37.0212766,33.016533 39.4722618,33.9283164 C40.8140862,34.4967178 42.3706479,34.0797732 43.248489,32.9168067 Z" id="Path" stroke="#263238" stroke-width="0.5" fill="#263238" fill-rule="nonzero" stroke-linecap="round" stroke-linejoin="round"></path>
                        <path d="M44.4383568,24.1693844 C44.1889833,24.9743182 43.6617365,25.5299362 43.255614,25.40884 C42.8494914,25.2877437 42.7283672,24.5326731 42.9706157,23.7206159 C43.2128642,22.9085588 43.747236,22.3600641 44.1462336,22.4811603 C44.5452312,22.6022566 44.6806054,23.3573272 44.4383568,24.1693844 Z" id="Path" fill="#263238" fill-rule="nonzero"></path>
                        <path d="M51.5775638,25.2877437 C51.3281903,26.0998008 50.8009434,26.6554189 50.3948209,26.5271993 C49.9886983,26.3989798 49.8675741,25.6510324 50.1098226,24.8460986 C50.3520712,24.0411648 50.8864429,23.4784235 51.2925655,23.5995197 C51.698688,23.7206159 51.8198123,24.4828099 51.5775638,25.2877437 Z" id="Path" fill="#263238" fill-rule="nonzero"></path>
                        <path d="M46.5117193,20.5364972 C46.3424204,20.53824 46.1790134,20.4744239 46.0557221,20.3584145 C44.1533586,18.5348477 42.0229964,20.2159484 41.930372,20.2871814 C41.7483686,20.4347864 41.501426,20.4741038 41.2825651,20.3903232 C41.0637041,20.3065426 40.9061751,20.1123922 40.8693176,19.8810067 C40.83246,19.6496211 40.9218736,19.4161533 41.103877,19.2685484 C42.8073048,17.8128767 45.3332953,17.8711789 46.9677166,19.4038912 C47.2240171,19.66217 47.2240171,20.0787658 46.9677166,20.3370446 C46.8483116,20.4615323 46.6842063,20.5333117 46.5117193,20.5364972 Z" id="Path" fill="#263238" fill-rule="nonzero"></path>
                        <path d="M54.0570488,22.7946093 C53.8334628,22.7938548 53.6249875,22.6816249 53.5013021,22.495407 C53.2379124,21.9704846 52.7550683,21.5895175 52.1831851,21.455404 C51.6888935,21.4346841 51.2043317,21.5970128 50.8223183,21.9112957 C50.5527705,22.1532425 50.1380767,22.130918 49.8960739,21.8614325 C49.6540711,21.5919471 49.6764008,21.1773493 49.9459486,20.9354025 C50.6114113,20.3574449 51.4832055,20.0746273 52.361309,20.1518386 C53.3212804,20.324035 54.1502489,20.9246358 54.6127954,21.7830761 C54.7438696,21.9854597 54.7532043,22.2434541 54.6370987,22.4547769 C54.5209931,22.6660997 54.298201,22.7966174 54.0570488,22.7946093 L54.0570488,22.7946093 Z" id="Path" fill="#263238" fill-rule="nonzero"></path>
                        <path d="M27.9155815,21.1989649 C27.9583313,21.3271844 27.9939561,21.455404 28.0295809,21.5907468 L28.0295809,21.6762265 C28.0723306,21.8186927 28.1079554,21.9682822 28.1435802,22.1178716 L28.1435802,22.1606115 C28.1435802,22.3315709 28.2219547,22.5025303 28.2575795,22.680613 L31.47806,21.9682822 C31.47806,21.9682822 34.4349172,22.5808866 34.8481647,21.5622536 C35.2614122,20.5436205 33.316299,19.0121093 34.7412904,17.4877214 C36.1662818,15.9633334 40.1491327,16.9748432 40.5552553,15.0373034 C40.9613778,13.0997636 41.9802467,6.16878481 50.2451968,8.30577723 C51.9301883,8.85446911 53.5463354,9.59543014 55.0616677,10.5140027 C53.0524299,4.87234273 45.243477,-0.655344344 36.5795293,0.861920279 C36.5795293,0.861920279 30.0530686,2.79946008 27.7089578,7.89974867 C25.7994693,12.045514 26.8895877,18.5063544 27.7089578,20.6433468 C27.7588325,20.7786897 27.8087072,20.9282792 27.8585819,21.0778686 L27.9155815,21.1989649 Z" id="Path" stroke="#263238" stroke-width="0.5" fill="#263238" fill-rule="nonzero" stroke-linecap="round" stroke-linejoin="round"></path>
                        <path d="M32.9458012,23.7419859 C32.9458012,23.7419859 32.0266817,19.76718 29.5756965,19.3540281 C27.1247113,18.9408762 26.2127168,21.9041724 26.7257137,24.554043 C27.2387106,27.2039136 29.8820697,29.6543316 32.2333055,28.9420008" id="Path" stroke="#263238" stroke-width="0.5" fill="#B2B2B2" fill-rule="nonzero" stroke-linecap="round" stroke-linejoin="round"></path>
                        <path d="M41.0255024,69.7300629 C42.8851162,67.7070434 47.2099651,63.0127834 47.5305882,62.6922345 C47.8512112,62.3716856 48.549457,62.2862059 50.8935679,61.6736014 C53.2376787,61.060997 57.1136553,59.7360616 57.7264017,59.2231835 C58.6452908,58.6368665 59.4714048,57.916585 60.1773869,57.086191 C60.6752,56.2664594 61.1179245,55.4145308 61.5026289,54.5360467 C61.809002,54.0231686 64.2528623,52.9048092 64.8656086,52.3990543 C65.4783549,51.8932994 66.0911012,50.8746664 65.8844774,50.3617882 C65.6778537,49.84891 62.1153752,50.8746664 58.8521449,51.5869972 C57.105618,51.9901989 55.3312603,52.2616485 53.5440519,52.3990543 C53.5440519,52.3990543 55.3822908,49.7491837 56.500909,48.5239747 C57.6195273,47.2987657 57.2134047,44.6488951 56.4011596,45.6746515 C55.5889145,46.7004078 50.3876959,52.0001491 49.2762026,52.4061776 C48.1647094,52.8122062 45.6068498,56.5875595 43.8683603,58.3256466 C42.4433689,59.7503083 30.8581888,67.2511517 26.9822122,69.7229396 L41.0255024,69.7300629 Z" id="Path" stroke="#263238" stroke-width="0.5" fill="#B2B2B2" fill-rule="nonzero" stroke-linecap="round" stroke-linejoin="round"></path>
                        <line x1="61.5026289" y1="54.5360467" x2="58.0327748" y2="55.7612557" id="Path" stroke="#263238" stroke-width="0.5" stroke-linecap="round" stroke-linejoin="round"></line>
                        <line x1="118.944032" y1="69.7300629" x2="2.07336249" y2="69.7300629" id="Path" stroke="#263238" stroke-width="0.5" stroke-linecap="round" stroke-linejoin="round"></line>
                    </g>
                    <g id="freepik--character-2--inject-2" transform="translate(94.761928, 123.945561)">
                        <path d="M117.241168,71.0692448 C116.88492,68.3552644 115.367304,57.7201655 113.130067,52.8335761 C110.955821,48.0241909 106.823344,44.3776631 101.780011,42.8182049 C97.6831605,41.5787493 92.3394428,40.531623 89.6675839,40.9091584 C89.6675839,40.9091584 80.7970124,43.9650575 76.9851604,44.8198545 C73.1733084,45.6746515 69.2189573,48.345892 67.5944671,50.6395972 C66.1694757,52.6768633 58.7025208,67.7711532 57.0851555,71.0692448 L117.241168,71.0692448 Z" id="Path" stroke="#263238" stroke-width="0.5" fill="#FFFFFF" fill-rule="nonzero" stroke-linecap="round" stroke-linejoin="round"></path>
                        <path d="M117.241168,71.0692448 C116.88492,68.3552644 115.367304,57.7201655 113.130067,52.8335761 C110.955821,48.0241909 106.823344,44.3776631 101.780011,42.8182049 C97.6831605,41.5787493 92.3394428,40.531623 89.6675839,40.9091584 C89.6675839,40.9091584 83.5899956,43.0034109 79.3292713,44.20725 C77.9969043,46.287256 75.0044224,50.9031596 72.2043143,54.8352257 C68.6418358,59.8215413 67.2168444,67.0303291 69.1477077,71.0692448 L117.241168,71.0692448 Z" id="Path" stroke="#263238" stroke-width="0.5" fill="#ADC7F7" fill-rule="nonzero" stroke-linecap="round" stroke-linejoin="round"></path>
                        <path d="M83.9462434,35.3814713 C84.8177788,38.7094596 85.1402647,42.1573353 84.9009877,45.5891718 C84.51624,51.4089145 81.4667584,55.1272813 82.6138765,58.0834542 C83.7609945,61.039627 88.3138421,62.1793563 92.3394428,59.0379775 C96.3650435,55.8965986 97.106039,48.1678093 97.2057884,44.7343748 C97.3055378,41.3009403 98.9229031,30.6302248 98.9229031,30.6302248 C98.9229031,30.6302248 94.6479288,35.6806502 89.6604589,35.8729795 C84.672989,36.0653089 83.9462434,35.3814713 83.9462434,35.3814713 Z" id="Path" stroke="#263238" stroke-width="0.5" fill="#FFFFFF" fill-rule="nonzero" stroke-linecap="round" stroke-linejoin="round"></path>
                        <path d="M84.9936121,8.11344792 C84.9936121,8.11344792 78.5811508,9.25317721 75.6527935,14.8805906 C72.8028107,20.2729348 74.1565525,29.340906 76.9709105,34.7118803 C80.533389,41.4932696 80.3196403,43.8154681 80.3552651,49.8061702 C80.4242569,50.6241435 80.1507751,51.4340812 79.6000197,52.0428889 C78.1322785,53.4675505 77.9399047,51.3305581 77.555157,52.5415205 C77.1704093,53.7524829 81.1176355,56.4308467 85.1859859,52.8905626 C87.82222,50.5897341 88.4278414,44.1573869 87.1880989,40.4318967 C85.9483563,36.7064066 79.7496438,28.9918639 81.0891357,22.9869152 C82.4286276,16.9819665 87.0954744,12.0241441 87.501597,9.73043885 C87.9077195,7.43673365 84.9936121,8.11344792 84.9936121,8.11344792 Z" id="Path" fill="#263238" fill-rule="nonzero"></path>
                        <path d="M85.2643605,11.6038689 C85.2643605,11.6038689 74.1779274,18.2499153 75.9092919,28.5359722 C77.6406565,38.8220291 88.7342145,41.8280651 87.6868459,52.4275475" id="Path" stroke="#636363" stroke-width="0.5" stroke-linecap="round" stroke-linejoin="round"></path>
                        <path d="M84.9936121,8.11344792 C84.9936121,8.11344792 78.5811508,9.25317721 75.6527935,14.8805906 C72.8028107,20.2729348 74.1565525,29.340906 76.9709105,34.7118803 C80.533389,41.4932696 80.3196403,43.8154681 80.3552651,49.8061702 C80.4242569,50.6241435 80.1507751,51.4340812 79.6000197,52.0428889 C78.1322785,53.4675505 77.9399047,51.3305581 77.555157,52.5415205 C77.1704093,53.7524829 81.1176355,56.4308467 85.1859859,52.8905626 C87.82222,50.5897341 88.4278414,44.1573869 87.1880989,40.4318967 C85.9483563,36.7064066 79.7496438,28.9918639 81.0891357,22.9869152 C82.4286276,16.9819665 87.0954744,12.0241441 87.501597,9.73043885 C87.9077195,7.43673365 84.9936121,8.11344792 84.9936121,8.11344792 Z" id="Path" stroke="#263238" stroke-width="0.5" stroke-linecap="round" stroke-linejoin="round"></path>
                        <path d="M102.749005,71.0692448 L117.241168,71.0692448 L117.241168,70.933902 L117.241168,70.8270523 L117.241168,70.8270523 L117.241168,70.6703396 L117.241168,70.6703396 L117.241168,70.5207501 L117.241168,70.4566403 L117.241168,70.3141742 L117.241168,70.2714343 L117.241168,70.0862283 L117.241168,70.0862283 L117.241168,69.893899 L117.241168,69.8440358 L117.241168,69.6730764 L117.241168,69.59472 C117.244619,69.5306567 117.244619,69.4664541 117.241168,69.4023907 L117.241168,69.3525276 C117.241168,69.2812945 117.241168,69.2100614 117.241168,69.1388283 L117.241168,69.0889652 C117.241168,69.0177321 117.241168,68.9536223 117.241168,68.8895125 L117.241168,68.7969095 C117.241168,68.7327998 117.241168,68.66869 117.241168,68.5974569 L117.241168,68.5262238 L117.198418,68.2697847 L117.198418,68.2697847 L117.155668,68.0133456 L117.155668,67.9563592 L117.112918,67.6785502 L117.112918,67.6785502 C117.112918,67.5717005 117.077293,67.4648509 117.063044,67.3580013 L117.063044,67.3580013 C117.013169,67.0303291 116.956169,66.6884103 116.89917,66.3393682 L116.89917,66.3393682 C116.89917,66.2325186 116.89917,66.125669 116.84217,66.0188194 L116.84217,65.9832028 C116.84217,65.8763532 116.806545,65.7695036 116.78517,65.662654 L116.78517,65.6127908 C116.78517,65.5130645 116.749545,65.4133382 116.728171,65.3064886 L116.728171,65.2281322 C116.728171,65.1355292 116.728171,65.0429262 116.678296,64.9503232 L116.678296,64.8363502 L116.635546,64.5870345 L116.635546,64.4588149 L116.592796,64.2166224 L116.592796,64.0955262 C116.592796,64.0100465 116.557172,63.9245668 116.542922,63.8390871 L116.542922,63.7179909 C116.542922,63.6325112 116.507297,63.5470315 116.493047,63.4615518 L116.493047,63.3333322 C116.493047,63.2478525 116.493047,63.1694961 116.443172,63.0840165 L116.443172,62.9557969 C116.443172,62.8703172 116.443172,62.7848375 116.393298,62.6993578 L116.393298,62.564015 C116.393298,62.4856586 116.357673,62.4001789 116.343423,62.3146992 L116.343423,62.1793563 C116.343423,62.0938766 116.307798,62.0155202 116.286423,61.9300405 L116.286423,61.7946977 C116.286423,61.709218 116.286423,61.6237383 116.229424,61.5382586 C116.232745,61.4955833 116.232745,61.4527144 116.229424,61.410039 C116.229424,61.3245594 116.193799,61.2319563 116.179549,61.1464767 L116.179549,61.0182571 L115.424303,60.5481188 L115.424303,60.4412691 C115.424303,60.3415428 115.381554,60.2346932 115.353054,60.1278436 L115.353054,60.0566105 L115.267554,59.6861985 L115.267554,59.6861985 C115.210555,59.4297594 115.14643,59.1733203 115.082306,58.9168812 L115.082306,58.8598948 C115.082306,58.7530451 115.032431,58.6461955 115.011056,58.5393459 L115.011056,58.425373 L114.946931,58.1689339 C114.932601,58.1245016 114.920708,58.0793201 114.911307,58.033591 L114.847182,57.7913985 C114.847182,57.7486587 114.847182,57.6987955 114.811557,57.6560557 C114.775932,57.6133158 114.775932,57.5064662 114.754558,57.4281098 L114.711808,57.2785204 C114.711808,57.2072873 114.676183,57.1360542 114.654808,57.0648211 L114.612058,56.9152316 L114.555059,56.7086557 L114.512309,56.5519429 C114.512309,56.4878332 114.476684,56.4237234 114.455309,56.3524903 L114.41256,56.2029008 C114.390299,56.1398025 114.371274,56.0756092 114.35556,56.0105715 C114.35556,55.9535851 114.319935,55.9037219 114.305685,55.8538587 C114.291435,55.8039956 114.305685,55.7256392 114.248686,55.6686527 C114.191686,55.6116663 114.248686,55.5689264 114.198811,55.51194 C114.183061,55.4515879 114.164033,55.3921388 114.141811,55.3338572 C114.128416,55.2829752 114.111757,55.2330086 114.091937,55.1842678 C114.076207,55.1215733 114.057181,55.059752 114.034937,54.9990618 C114.034937,54.9563219 114.034937,54.9064588 113.985062,54.8565956 C113.935187,54.8067324 113.949437,54.7354994 113.928063,54.6785129 C113.906688,54.6215264 113.892438,54.5859099 113.878188,54.5360467 L113.814063,54.3650873 C113.800591,54.3188735 113.783926,54.2736505 113.764188,54.2297445 C113.748411,54.1717344 113.729381,54.1146577 113.707189,54.0587851 C113.687501,54.0173002 113.670833,53.9744491 113.657314,53.9305656 L113.59319,53.7596062 C113.59319,53.7168663 113.59319,53.6741265 113.543315,53.6385099 L113.472065,53.4675505 L113.429316,53.3535776 C113.429316,53.2894678 113.379441,53.2324814 113.350941,53.1754949 C113.335917,53.1434625 113.323988,53.1100688 113.315316,53.0757686 L113.194192,52.8193295 C111.119547,48.278591 107.299294,44.7674429 102.599381,43.0817673 C101.96526,45.2971161 100.369269,51.4943942 100.754017,56.6160527 C101.096015,61.4883954 102.221758,68.1273186 102.749005,71.0692448 Z" id="Path" stroke="#263238" stroke-width="0.5" fill="#FFFFFF" fill-rule="nonzero" stroke-linecap="round" stroke-linejoin="round"></path>
                        <path d="M85.8557319,8.49098324 C85.8557319,8.49098324 82.2291288,11.2548268 81.0891357,14.310726 C79.9491425,17.3666251 78.9872734,25.0811678 79.1796472,28.137067 C79.372021,31.1929661 83.2764975,36.5283239 84.8796128,37.8603825 C86.4827281,39.1924411 93.4295612,37.6680532 96.7070414,34.6192773 C98.9727778,32.4822849 100.903641,25.1808941 99.3789003,18.0290928 C97.8541595,10.8772915 90.5297037,6.77426599 85.8557319,8.49098324 Z" id="Path" stroke="#263238" stroke-width="0.5" fill="#FFFFFF" fill-rule="nonzero" stroke-linecap="round" stroke-linejoin="round"></path>
                        <path d="M89.0049629,22.4170506 C89.0049629,22.4170506 91.0997003,20.2230717 94.626554,22.0323919" id="Path" stroke="#263238" stroke-width="0.5" stroke-linecap="round" stroke-linejoin="round"></path>
                        <path d="M83.853619,21.177595 C83.5213798,19.7945517 82.461741,18.7023934 81.0891357,18.3282717" id="Path" stroke="#263238" stroke-width="0.5" stroke-linecap="round" stroke-linejoin="round"></path>
                        <path d="M85.5707336,20.2230717 C85.5707336,20.2230717 85.3783598,22.0323919 84.7086138,22.7019829 C84.0388679,23.3715738 82.6138765,24.0340415 83.183873,25.3732234 C83.7538696,26.7124053 85.4709842,26.9902144 86.2333546,26.2280204" id="Path" stroke="#263238" stroke-width="0.5" stroke-linecap="round" stroke-linejoin="round"></path>
                        <path d="M81.2743846,16.5047048 C81.2743846,16.5047048 82.8988747,14.5030553 85.5493588,16.5047048" id="Path" stroke="#263238" stroke-width="0.5" stroke-linecap="round" stroke-linejoin="round"></path>
                        <path d="M88.5275908,17.4592281 C88.5275908,17.4592281 91.6696968,15.5501816 94.1491819,19.0762191" id="Path" stroke="#263238" stroke-width="0.5" stroke-linecap="round" stroke-linejoin="round"></path>
                        <path d="M82.9914992,28.4219993 C82.9914992,28.4219993 84.3309911,30.2313195 87.9789691,29.7540579 C91.6269471,29.2767963 92.460567,27.7524083 92.460567,27.7524083" id="Path" stroke="#263238" stroke-width="0.5" stroke-linecap="round" stroke-linejoin="round"></path>
                        <path d="M91.6696968,22.3671874 C91.6696968,22.8668174 91.2645729,23.2718475 90.7648273,23.2718475 C90.2650816,23.2718475 89.8599577,22.8668174 89.8599577,22.3671874 C89.8599577,21.8675574 90.2650816,21.4625273 90.7648273,21.4625273 C91.2645729,21.4625273 91.6696968,21.8675574 91.6696968,22.3671874 L91.6696968,22.3671874 Z" id="Path" fill="#263238" fill-rule="nonzero"></path>
                        <path d="M83.2764975,20.2658115 C83.2764975,20.7654415 82.8713736,21.1704716 82.3716279,21.1704716 C81.8718823,21.1704716 81.4667584,20.7654415 81.4667584,20.2658115 C81.4667584,19.7661815 81.8718823,19.3611514 82.3716279,19.3611514 C82.6116143,19.3611514 82.8417714,19.4564635 83.0114673,19.6261202 C83.1811633,19.7957769 83.2764975,20.0258807 83.2764975,20.2658115 L83.2764975,20.2658115 Z" id="Path" fill="#263238" fill-rule="nonzero"></path>
                        <path d="M85.0933615,29.6614549 C85.0933615,29.6614549 86.6181023,32.8099571 89.2899612,32.5107781 C91.9618201,32.2115992 91.7694462,28.4932324 91.7694462,28.4932324 C89.7561784,29.6703482 87.3868437,30.0849491 85.0933615,29.6614549 Z" id="Path" stroke="#263238" stroke-width="0.5" fill="#263238" fill-rule="nonzero" stroke-linecap="round" stroke-linejoin="round"></path>
                        <path d="M93.7644342,0.29917894 L93.5506855,0.29917894 C90.1307061,0.690960885 85.6419832,1.410415 82.8988747,3.6115172 C79.5572699,6.27563443 80.704388,6.94522539 83.7538696,8.46961332 C86.8033512,9.99400125 95.8662965,15.05155 96.7284163,22.2959543 C97.5905361,29.5403587 94.626554,40.8877884 93.2015626,46.0379402 C91.7765712,51.1880919 93.6718097,54.7141294 96.443418,57.1930407 C97.7067943,58.3661823 99.4175617,58.9328403 101.13164,58.7459218 C102.68488,58.589209 104.637119,58.1760572 105.869736,57.1645474 C106.00511,57.0576978 107.565476,55.4122136 107.294728,55.1913911 C105.926736,54.0302919 104.280871,55.697146 103.447251,54.1015249 C101.744386,50.8248032 104.387745,46.8998605 106.176109,44.20725 C107.636725,42.0061478 110.066336,40.645596 111.548327,38.5086035 C112.990168,36.2030838 113.864349,33.5884705 114.099061,30.8795406 C114.775932,25.0811678 113.685814,18.9337529 111.648076,13.4986688 C109.004717,6.44659382 103.53275,0.178082702 95.4744239,0.199398146 C94.9186772,0.206575935 94.3344307,0.235069167 93.7644342,0.29917894 Z" id="Path" fill="#263238" fill-rule="nonzero"></path>
                        <g id="Group" transform="translate(78.374527, 0.712331)" stroke="#636363" stroke-linecap="round" stroke-linejoin="round" stroke-width="0.5">
                            <path d="M0.292123237,2.57863753 C0.292123237,2.57863753 10.267063,3.65425705 16.6225247,12.2805831 C22.9779863,20.9069092 24.7877254,26.7622685 24.6309764,34.7688668 C24.4742273,42.7754651 30.9508132,46.4795853 35.7245344,44.1645102" id="Path"></path>
                            <path d="M9.07007027,0.113972929 C9.07007027,0.113972929 22.0161171,2.57863753 26.1699671,15.514565 C30.323817,28.4504925 28.6423272,36.3288713 34.1997936,37.3902442" id="Path"></path>
                            <path d="M15.5395312,24.2976039 C15.5395312,24.2976039 20.3203774,35.8516096 19.1020097,46.7858875 C17.8836421,57.7201655 22.6644882,59.7289383 30.3523168,57.7201655" id="Path"></path>
                        </g>
                        <path d="M93.7644342,0.29917894 L93.5506855,0.29917894 C90.1307061,0.690960885 85.6419832,1.410415 82.8988747,3.6115172 C79.5572699,6.27563443 80.704388,6.94522539 83.7538696,8.46961332 C86.8033512,9.99400125 95.8662965,15.05155 96.7284163,22.2959543 C97.5905361,29.5403587 94.626554,40.8877884 93.2015626,46.0379402 C91.7765712,51.1880919 93.6718097,54.7141294 96.443418,57.1930407 C97.7067943,58.3661823 99.4175617,58.9328403 101.13164,58.7459218 C102.68488,58.589209 104.637119,58.1760572 105.869736,57.1645474 C106.00511,57.0576978 107.565476,55.4122136 107.294728,55.1913911 C105.926736,54.0302919 104.280871,55.697146 103.447251,54.1015249 C101.744386,50.8248032 104.387745,46.8998605 106.176109,44.20725 C107.636725,42.0061478 110.066336,40.645596 111.548327,38.5086035 C112.990168,36.2030838 113.864349,33.5884705 114.099061,30.8795406 C114.775932,25.0811678 113.685814,18.9337529 111.648076,13.4986688 C109.004717,6.44659382 103.53275,0.178082702 95.4744239,0.199398146 C94.9186772,0.206575935 94.3344307,0.235069167 93.7644342,0.29917894 Z" id="Path" stroke="#263238" stroke-width="0.5" stroke-linecap="round" stroke-linejoin="round"></path>
                        <path d="M47.3239644,53.5957701 C48.0929274,54.292355 49.004799,54.8126093 49.9958233,55.120158 C49.9958233,55.120158 51.5205641,59.7930481 51.4208147,63.5114149 C51.4125195,66.0401573 51.588736,68.5661364 51.9480615,71.0692448 L63.632991,71.0692448 C61.4914332,67.3781087 59.6702784,63.5102419 58.1895239,59.5081158 C56.3797848,54.0730317 57.1421552,51.0171325 55.9024127,47.491095 C54.6626701,43.9650575 54.0855486,42.2483403 51.9908113,39.4844967 C49.8960739,36.7206532 47.9865854,37.5754502 47.9865854,38.5299735 C47.9865854,39.4844967 49.1265785,39.8620321 49.9886983,41.201214 C50.5778655,42.1927285 51.0557566,43.2462346 51.4136897,44.3425929 C51.4136897,44.3425929 47.402339,46.1590364 46.2623458,48.160686 C45.1223527,50.1623356 46.0842219,52.4489175 47.3239644,53.5957701 Z" id="Path" stroke="#263238" stroke-width="0.5" fill="#FFFFFF" fill-rule="nonzero" stroke-linecap="round" stroke-linejoin="round"></path>
                        <path d="M44.5594811,46.6362981 C44.5594811,46.6362981 43.0347403,48.0609597 43.0347403,49.4856213 C43.0347403,50.9102829 44.1747334,52.9190558 44.7518549,52.9190558 C45.3289765,52.9190558 45.6068498,51.8719295 45.3218515,50.8248032 C45.0368532,49.7776769 44.5594811,46.6362981 44.5594811,46.6362981 Z" id="Path" stroke="#263238" stroke-width="0.5" fill="#FFFFFF" fill-rule="nonzero" stroke-linecap="round" stroke-linejoin="round"></path>
                        <path d="M46.3692202,44.6275252 C46.3692202,44.6275252 44.5594811,45.7743778 44.082109,47.2061627 C43.7609215,48.4675706 44.0424677,49.8065786 44.8444794,50.8319265 C45.4144759,51.6867235 47.1315906,51.8790528 47.6089627,51.4017912 C48.0863348,50.9245295 47.7015871,49.8774033 47.6089627,49.2647988 C47.5163383,48.6521943 46.561594,46.7858875 46.6542185,45.9310906 C46.7105355,45.4867141 46.7438297,45.0397232 46.7539679,44.5919086 L46.3692202,44.6275252 Z" id="Path" stroke="#263238" stroke-width="0.5" fill="#FFFFFF" fill-rule="nonzero" stroke-linecap="round" stroke-linejoin="round"></path>
                        <path d="M51.4279397,44.3425929 C51.4279397,44.3425929 48.9413297,42.8182049 47.0389661,43.8653312 C45.1366026,44.9124575 45.2221021,47.0138334 45.8918481,48.5382213 C46.561594,50.0626093 48.2787087,50.9245295 49.0410791,50.2549386 C49.8034495,49.5853476 48.9413297,48.5382213 49.1337035,47.1135597 C49.3260773,45.6888981 51.4279397,44.3425929 51.4279397,44.3425929 Z" id="Path" stroke="#263238" stroke-width="0.5" fill="#FFFFFF" fill-rule="nonzero" stroke-linecap="round" stroke-linejoin="round"></path>
                        <path d="M53.9074247,47.0138334 C53.9074247,47.0138334 51.8981868,44.3425929 50.0884477,44.5349222 C48.2787087,44.7272515 45.3218515,48.0965762 45.8918481,48.92288 C46.4618446,49.7491837 49.874699,48.438495 49.874699,48.438495 C49.874699,48.438495 48.9199548,51.5869972 51.2996904,52.2494648" id="Path" stroke="#263238" stroke-width="0.5" fill="#FFFFFF" fill-rule="nonzero" stroke-linecap="round" stroke-linejoin="round"></path>
                        <line x1="117.519041" y1="71.0692448" x2="0.648371087" y2="71.0692448" id="Path" stroke="#263238" stroke-width="0.5" stroke-linecap="round" stroke-linejoin="round"></line>
                    </g>
                    <g id="freepik--character-3--inject-2" transform="translate(94.049432, 185.206010)">
                        <line x1="118.231537" y1="66.1470389" x2="1.36086679" y2="66.1470389" id="Path" stroke="#263238" stroke-width="0.5" stroke-linecap="round" stroke-linejoin="round"></line>
                        <path d="M64.2172375,65.9190931 C64.2172375,65.9190931 65.2574812,56.7015324 61.6807528,54.2796077 C58.1040244,51.8576829 42.5573682,40.6883358 36.5652793,39.3206607 C30.5731905,37.9529855 26.8895877,36.6707901 24.4528524,38.0527118 C22.0161171,39.4346336 12.0269274,48.438495 7.88020245,51.2878183 C3.73347747,54.1371415 1.66011498,57.1645474 1.08299346,59.351403 C0.725029072,61.288468 0.607766903,63.2623231 0.733870571,65.2281322 L0.733870571,66.1470389 C0.733870571,66.1470389 64.4523611,65.6840239 64.2172375,65.9190931 Z" id="Path" stroke="#263238" stroke-width="0.5" fill="#263238" fill-rule="nonzero" stroke-linecap="round" stroke-linejoin="round"></path>
                        <path d="M24.4671024,38.0384652 C23.5125588,38.656587 22.5964985,39.3321738 21.7239939,40.0614847 C21.750044,42.4302766 22.2339198,44.7716934 23.1489853,46.9568469 C26.1272173,54.194128 32.8318019,58.2971534 38.111395,56.1245444 C42.6143678,54.2724843 44.6592305,48.4883582 43.3553634,42.3551899 C41.2236472,41.0633503 38.9406698,40.0393586 36.5581544,39.306414 C30.5731905,37.9244923 26.8895877,36.6565434 24.4671024,38.0384652 Z" id="Path" stroke="#263238" stroke-width="0.5" fill="#FFFFFF" fill-rule="nonzero" stroke-linecap="round" stroke-linejoin="round"></path>
                        <path d="M25.849344,27.2110369 C25.849344,27.2110369 25.6213454,34.241742 25.0442239,37.2335314 C24.4671024,40.2253208 24.4671024,44.2642365 27.3527099,49.3431551 C30.2383175,54.4220738 37.2564002,54.1798813 39.4651368,52.1924784 C41.6738735,50.2050754 41.1893764,44.7058816 41.1893764,42.6329989 C41.1893764,40.5601163 42.4077441,35.6877735 42.4077441,35.6877735 C42.4077441,35.6877735 35.6604098,33.0735195 32.2048057,30.772691 C28.7492015,28.4718624 27.003587,26.520076 25.849344,27.2110369 Z" id="Path" stroke="#263238" stroke-width="0.5" fill="#FFFFFF" fill-rule="nonzero" stroke-linecap="round" stroke-linejoin="round"></path>
                        <path d="M44.1747334,8.44112009 C44.1747334,8.44112009 46.9392167,13.1638734 47.6303376,14.5457951 C48.1821276,15.7859807 48.0499238,17.2237014 47.2812147,18.3425183 C46.6542185,19.2186852 52.2686846,21.9540355 52.1689352,23.3929438 C52.0691858,24.831852 51.5633138,25.6225392 50.4304457,27.2537768 C49.1907032,29.0346038 49.6538254,32.0192699 49.1052037,34.1135224 C48.6420815,35.8943495 48.0720849,36.3359946 46.2552209,37.0055855 C42.7924918,38.2735344 36.3444057,37.8105193 33.1168002,36.2006517 C29.8891946,34.5907841 28.7420766,31.7058443 27.5878335,29.6329617 C26.4335905,27.560079 26.3195912,23.7562325 27.010712,19.7244401 C27.7018328,15.6926477 33.1168002,10.2789336 36.5724043,8.78303888 C40.0280085,7.28714418 44.1747334,8.44112009 44.1747334,8.44112009 Z" id="Path" stroke="#263238" stroke-width="0.5" fill="#FFFFFF" fill-rule="nonzero" stroke-linecap="round" stroke-linejoin="round"></path>
                        <path d="M47.5092133,29.7469346 C45.5968693,30.254725 43.5602449,29.9642133 41.8662474,28.9420008 C41.8662474,28.9420008 41.8662474,32.3968052 43.5976119,32.5036548 C45.3289765,32.6105044 47.5092133,29.7469346 47.5092133,29.7469346 Z" id="Path" fill="#263238" fill-rule="nonzero"></path>
                        <path d="M44.1747334,20.4225243 C44.3528574,21.1989649 44.1747334,21.9041724 43.7614859,21.9967754 C43.3482384,22.0893784 42.8922412,21.5337604 42.7141172,20.7573198 C42.5359933,19.9808792 42.7141172,19.2756717 43.1273647,19.1830687 C43.5406123,19.0904657 43.9752346,19.6460837 44.1747334,20.4225243 Z" id="Path" fill="#263238" fill-rule="nonzero"></path>
                        <path d="M39.6788856,18.1145725 C40.4894374,16.8978502 41.908241,16.2311393 43.3624883,16.3836086" id="Path" stroke="#263238" stroke-width="0.5" stroke-linecap="round" stroke-linejoin="round"></path>
                        <path d="M50.7368188,26.1710339 C50.7368188,26.1710339 48.9555796,28.0943271 47.8512112,28.2367933 C46.7468429,28.3792594 45.5142253,26.8619948 46.062847,25.9003482" id="Path" stroke="#263238" stroke-width="0.5" stroke-linecap="round" stroke-linejoin="round"></path>
                        <path d="M30.3451919,27.2110369 C30.8938136,27.0329542 33.5727974,27.4461061 33.1951747,25.9430881 C32.817552,24.4400701 32.0480566,24.2192475 32.6180532,23.0937648 C33.1880497,21.9682822 39.0732642,19.1759454 37.8050219,16.8751169 C36.9616374,15.3882886 35.9581812,13.9981069 34.8125399,12.7293516 C34.8125399,12.7293516 44.4882315,10.8844148 46.561594,8.00659829 C48.6349565,5.12878183 46.3335954,0.63397442 43.91111,0.63397442 C41.4886246,0.63397442 42.6428677,1.43890823 36.1947816,3.48329766 C29.7466955,5.52768708 26.511965,3.02740594 21.6741192,8.09207799 C16.8362734,13.15675 18.3325144,23.051025 20.1778782,26.1781572 C22.0232421,29.3052895 25.7068449,31.8198172 27.5522087,31.1288564 C29.3975726,30.4378955 28.9629502,27.6740519 30.3451919,27.2110369 Z" id="Path" stroke="#263238" stroke-width="0.5" fill="#263238" fill-rule="nonzero" stroke-linecap="round" stroke-linejoin="round"></path>
                        <path d="M32.0623065,28.2510399 C32.0623065,28.2510399 27.7873323,22.8373257 24.9373495,24.5611663 C22.0873667,26.2850069 26.3195912,31.4778985 28.164955,32.0548864 C30.0103189,32.6318744 32.1976807,31.2428293 32.1976807,31.2428293" id="Path" stroke="#263238" stroke-width="0.5" fill="#FFFFFF" fill-rule="nonzero" stroke-linecap="round" stroke-linejoin="round"></path>
                    </g>
                    <g id="freepik--character-4--inject-2" transform="translate(94.049432, 220.110220)">
                        <line x1="117.462041" y1="64.0599097" x2="0.477372119" y2="64.0599097" id="Path" stroke="#263238" stroke-width="0.5" stroke-linecap="round" stroke-linejoin="round"></line>
                        <path d="M56.1019115,60.9968872 C56.1019115,60.9968872 55.9950371,54.657143 56.9426564,53.7026197 C57.8902757,52.7480964 81.2530097,39.9688817 87.8079701,40.068608 C94.3629306,40.1683343 103.319002,49.0938394 108.099848,51.465901 C115.709302,55.2697475 115.709302,57.3782467 116.343423,59.4938692 C116.977544,61.6094917 117.504791,64.0385397 117.504791,64.0385397 L56.1019115,64.0385397 L56.1019115,60.9968872 Z" id="Path" fill="#FFFFFF" fill-rule="nonzero"></path>
                        <path d="M117.205543,62.7634676 C115.438553,62.6423713 113.53619,62.5355217 111.505577,62.450042 L112.317822,57.3640001 L115.666552,57.5064662 C115.242475,56.6098164 114.635779,55.8115887 113.885313,55.1628979 L112.67407,55.1130347 L112.809444,54.286731 C112.64557,54.1656347 112.474571,54.0374152 112.289322,53.9163189 L112.104074,55.0916648 L111.013955,55.0489249 L111.298953,53.2680979 L111.298953,53.2680979 C110.686207,52.8905626 109.987961,52.4916573 109.197091,52.0713821 L109.111592,52.577137 C106.781731,52.4489175 104.43762,52.3563145 102.100634,52.2850814 L102.492507,48.7234273 L103.917498,48.7590439 C102.542381,47.7617807 101.067515,46.6220515 99.5071495,45.5393086 L99.3789003,46.4083522 C96.8067908,46.3727357 94.2418063,46.3584891 91.7195715,46.3513657 L92.1969436,41.1513508 L91.6483219,40.923405 L91.149575,46.3513657 L89.9953319,46.3513657 L90.4299543,40.4960065 C89.7020681,40.2735535 88.9517246,40.132598 88.1927178,40.0757313 L87.7224706,46.3584891 C86.3616039,46.3584891 85.014987,46.3584891 83.68262,46.3584891 L84.1101174,40.6598426 L83.525871,40.8379253 L83.1126235,46.3371191 L81.19601,46.3371191 L81.3456341,41.5573794 C80.6331384,41.8209418 79.8422682,42.1201207 79.0585229,42.4335463 L78.9373987,46.3656124 C76.9566606,46.3656124 75.0400472,46.4297221 73.2018083,46.472462 L73.2730578,44.9623207 L72.6959363,45.2330064 L72.6318117,46.4867086 L71.1569456,46.4867086 L71.1569456,45.9239673 C69.0764582,46.9283537 67.0458454,47.9469868 65.1933566,48.9157567 L68.7558351,48.808907 L68.613336,52.4417942 L64.8371087,52.7124799 L64.965358,49.1508258 L64.3882365,49.4500048 L64.2742371,52.7267265 L63.2767432,52.7765896 L63.4263673,49.9272664 C62.5856223,50.3760348 61.8018771,50.79631 61.0893814,51.1880919 L61.0038819,52.876316 L57.8119011,53.0686453 C57.5191557,53.2332044 57.2403541,53.4214115 56.9782812,53.6313866 L56.9284065,53.6954964 L60.975382,53.4461806 L60.8827576,55.1913911 L56.4154096,55.3623505 C56.3085352,56.0746813 56.2444106,56.8582452 56.2016609,57.6346858 C57.498403,57.5848226 59.0516437,57.5207128 60.7616333,57.4637264 L60.5122598,62.172233 L56.1375362,62.2577127 L56.1375362,62.8204541 L60.48376,62.7349744 L60.4196354,63.9886766 L62.6853717,63.9886766 L62.7494963,62.6922345 L63.9251142,62.6922345 L63.8752395,64.0029232 L64.4452361,64.0029232 L64.4879858,62.6779879 L68.3140878,62.6210014 L68.2570881,64.0029232 L70.5228244,64.0029232 L70.5798241,62.5782616 L71.9335659,62.5782616 L71.8694413,64.0029232 L72.4394379,64.0029232 L72.5035625,62.5782616 L78.4814014,62.5283984 L78.4386517,64.0100465 L80.697263,64.0100465 L80.7471377,62.5212751 L81.9370056,62.5212751 L81.8301312,64.0171698 L82.3930028,64.0171698 L82.5070021,62.5212751 L86.5397278,62.5212751 L86.4257285,64.0242931 L88.6914648,64.0242931 L88.8054641,62.5283984 L89.6960837,62.5283984 L89.5607095,64.0171698 L90.1307061,64.0171698 L90.2660803,62.5283984 C92.5389416,62.5283984 94.8118029,62.5283984 97.0561643,62.5853849 L96.8495406,64.0100465 L99.1295268,64.0100465 L99.3361506,62.5853849 L100.433394,62.5853849 L100.28377,63.9601833 L100.853766,63.9601833 L101.00339,62.5925082 C103.226377,62.635248 105.399489,62.6922345 107.501351,62.7634676 L107.308977,63.9601833 L109.596089,63.9601833 L109.774213,62.841824 L110.892831,62.8845638 L110.721832,63.9601833 L111.291828,63.9601833 L111.455702,62.9130571 C113.55044,63.0056601 115.524053,63.1125097 117.355167,63.2336059 C117.305292,63.1694961 117.255417,62.9771668 117.205543,62.7634676 Z M63.9108643,62.1793563 L62.7423714,62.1793563 L62.9917449,57.4352331 L64.0747383,57.3996166 L63.9108643,62.1793563 Z M64.1531129,55.1557745 L63.1128691,55.1913911 L63.2126185,53.3891941 L64.2172375,53.339331 L64.1531129,55.1557745 Z M68.2998378,62.1152466 L64.4737359,62.172233 L64.6376099,57.3996166 L68.4922117,57.292767 L68.2998378,62.1152466 Z M68.5777112,55.027555 L64.7159845,55.1344046 L64.7801091,53.3108378 C65.9913518,53.246728 67.288094,53.1897415 68.6560857,53.132755 L68.5777112,55.027555 Z M71.926441,62.0725067 L70.5655742,62.0725067 L70.757948,57.2144106 L72.1829394,57.2144106 L71.926441,62.0725067 Z M72.2613139,54.9491986 L70.8363225,54.9848152 L70.9146971,53.0543987 L72.3396885,52.9974122 L72.2613139,54.9491986 Z M72.3753133,52.4346709 L70.9503219,52.484534 L71.092821,48.8872634 L72.5534372,48.8872634 L72.3753133,52.4346709 Z M78.4671515,62.0297669 L72.4964375,62.07963 L72.7173112,57.200164 L78.6167756,57.086191 L78.4671515,62.0297669 Z M78.6880252,54.8281024 C76.6645374,54.8281024 74.7051742,54.8922121 72.8241855,54.934952 L72.91681,52.9760423 C74.7692988,52.9119325 76.721537,52.854946 78.7521498,52.8122062 L78.6880252,54.8281024 Z M78.7663997,52.2423415 C76.7429119,52.2922047 74.7977986,52.3491912 72.9453098,52.4133009 L73.1091838,48.8516469 C74.9616726,48.808907 76.892536,48.7732905 78.880399,48.7447973 L78.7663997,52.2423415 Z M81.1390104,48.6806875 L82.9629994,48.6806875 L82.699376,52.1639851 L81.032136,52.1639851 L81.1390104,48.6806875 Z M81.9370056,61.9727804 L80.7257629,61.9727804 L80.8825119,56.9864647 L82.3075033,56.9864647 L81.9370056,61.9727804 Z M80.9252617,54.749746 L80.9893863,52.7196032 L82.6281264,52.7196032 L82.4785023,54.7639926 L80.9252617,54.749746 Z M86.5682276,61.9727804 L82.5355019,61.9727804 L82.9059997,56.9864647 L86.9458503,56.9864647 L86.5682276,61.9727804 Z M87.1097243,54.7070061 L83.0769987,54.7070061 L83.2266228,52.6626167 C84.5518648,52.6626167 85.8984816,52.6483701 87.2664734,52.6198769 L87.1097243,54.7070061 Z M87.3092231,52.0856288 L83.2693725,52.1212453 L83.525871,48.645071 L87.5657216,48.645071 L87.3092231,52.0856288 Z M89.8385829,48.6094544 L90.9572011,48.6094544 L90.643703,52.0785055 L89.5749595,52.0785055 L89.8385829,48.6094544 Z M89.7317085,61.9727804 L88.8339639,61.9727804 L89.2115867,56.9508482 L90.1948307,56.9508482 L89.7317085,61.9727804 Z M89.3825856,54.6856362 L89.5322097,52.6341235 L90.5867034,52.6341235 L90.4014545,54.6856362 L89.3825856,54.6856362 Z M97.1202889,62.0368902 C94.8688025,62.0368902 92.5888163,61.987027 90.3017051,61.9799037 L90.7648273,56.9508482 C93.1018132,56.9508482 95.4672989,56.9508482 97.8541595,56.9864647 L97.1202889,62.0368902 Z M98.1819075,54.7283761 C95.7594221,54.7283761 93.3440617,54.6856362 90.971451,54.6856362 L91.1566999,52.6341235 C93.5578104,52.6341235 96.0087956,52.66974 98.4740308,52.7196032 L98.1819075,54.7283761 Z M98.5595302,52.1568618 C96.0800452,52.1069987 93.621935,52.0785055 91.2065746,52.0713821 L91.5271977,48.6023311 C94.0138077,48.6023311 96.5146676,48.6023311 99.0654022,48.6593176 L98.5595302,52.1568618 Z M101.352513,48.6949341 L101.958135,48.6949341 L101.566262,52.2565882 L100.853766,52.2565882 L101.352513,48.6949341 Z M100.754017,52.7765896 L101.509262,52.7765896 L101.288389,54.749746 L100.469019,54.749746 L100.754017,52.7765896 Z M100.461894,62.1223699 L99.3789003,62.1223699 L100.091396,57.0648211 L100.989141,57.0648211 L100.461894,62.1223699 Z M107.586851,62.3004526 C105.449364,62.2292195 103.311877,62.172233 101.067515,62.1294932 L101.623262,57.0648211 C103.888998,57.1004377 106.154734,57.1574241 108.413346,57.2215339 L107.586851,62.3004526 Z M108.776719,54.9705685 C106.482482,54.8993355 104.173996,54.8494723 101.872635,54.8067324 L102.086384,52.8478227 C104.416245,52.9190558 106.746106,53.0116588 109.075967,53.1398784 L108.776719,54.9705685 Z M110.97833,62.4286721 L109.866837,62.3788089 L110.693332,57.2998903 L111.790575,57.3355068 L110.97833,62.4286721 Z" id="Shape" fill="#ADADAD" fill-rule="nonzero"></path>
                        <path d="M56.1019115,60.9968872 C56.1019115,60.9968872 55.9950371,54.657143 56.9426564,53.7026197 C57.8902757,52.7480964 81.2530097,39.9688817 87.8079701,40.068608 C94.3629306,40.1683343 103.319002,49.0938394 108.099848,51.465901 C115.709302,55.2697475 115.709302,57.3782467 116.343423,59.4938692 C116.977544,61.6094917 117.504791,64.0385397 117.504791,64.0385397 L56.1019115,64.0385397 L56.1019115,60.9968872 Z" id="Path" stroke="#263238" stroke-width="0.5" stroke-linecap="round" stroke-linejoin="round"></path>
                        <path d="M84.3167412,37.5327103 C84.3167412,37.5327103 81.1461353,37.7464096 80.3053904,39.3349073 C79.4646455,40.923405 79.877893,41.870805 78.1679033,46.6220515 C76.4579136,51.3732979 75.5245442,52.7552197 76.4792885,52.7552197 C77.4340327,52.7552197 80.041767,50.0056228 81.0178861,49.5853476 C81.9940052,49.1650724 84.1956169,52.854946 84.1956169,52.854946 C84.1956169,52.854946 88.4207164,50.6395972 89.7958331,50.5327476 C91.1709498,50.425898 94.127807,56.1316678 94.6550538,55.1842678 C95.1823006,54.2368678 96.5574173,50.7464468 98.0394084,47.5765747 C99.5213994,44.4067026 99.8348975,41.7639553 98.5666552,39.6483328 C97.2984129,37.5327103 85.3783598,36.8987359 84.3167412,37.5327103 Z" id="Path" stroke="#263238" stroke-width="0.5" fill="#263238" fill-rule="nonzero" stroke-linecap="round" stroke-linejoin="round"></path>
                        <path d="M82.4143777,36.4784607 C81.9270746,39.7347024 81.8911113,43.0425637 82.3075033,46.3086259 C83.019999,51.0598724 84.1101174,53.8094693 84.9508624,53.1754949 C85.7916073,52.5415205 90.978576,49.3716484 93.621935,46.0949267 C96.2652941,42.8182049 96.6856666,42.3979298 97.4266621,40.6028561 C98.1676576,38.8077825 99.0084025,36.7990096 99.0084025,36.7990096 C99.0084025,36.7990096 89.1830868,40.4960065 82.4143777,36.4784607 Z" id="Path" stroke="#263238" stroke-width="0.5" fill="#FFFFFF" fill-rule="nonzero" stroke-linecap="round" stroke-linejoin="round"></path>
                        <path d="M82.521252,19.0406025 C82.521252,19.0406025 80.6188885,16.0844297 79.5643949,19.5748506 C78.5099012,23.0652716 81.039261,24.9600715 81.359884,24.7463723 C81.6805071,24.5326731 82.521252,19.0406025 82.521252,19.0406025 Z" id="Path" stroke="#263238" stroke-width="0.5" fill="#FFFFFF" fill-rule="nonzero" stroke-linecap="round" stroke-linejoin="round"></path>
                        <path d="M83.4759963,11.6466087 C83.4759963,11.6466087 79.9847673,26.7551452 79.2437718,31.0932398 C78.5027763,35.4313344 83.2622476,39.4346336 88.5489657,40.1754576 C93.8356838,40.9162817 98.9015282,38.380384 100.276645,35.7376367 C101.651762,33.0948894 105.97661,16.1912793 106.617857,15.0301801 C107.259103,13.8690809 109.467839,8.79728549 107.78635,7.10193817 C106.10486,5.40659084 103.347501,6.68166299 103.347501,6.68166299 C103.347501,6.68166299 101.438013,1.81644356 98.1676576,1.69534733 C94.8973023,1.57425109 94.46268,3.06302248 94.46268,3.06302248 C94.46268,3.06302248 91.6126972,-0.420275177 88.9693381,0.320548864 C86.3259791,1.06137291 86.3259791,2.74959692 86.3259791,2.74959692 C86.3259791,2.74959692 81.4667584,1.5884977 79.6712692,5.07179536 C77.8757801,8.55509302 82.8418751,9.61646592 82.8418751,9.61646592 C82.8418751,9.61646592 81.7802565,11.1194839 83.4759963,11.6466087 Z" id="Path" stroke="#263238" stroke-width="0.5" fill="#FFFFFF" fill-rule="nonzero" stroke-linecap="round" stroke-linejoin="round"></path>
                        <path d="M102.81313,24.0126716 C103.133753,23.905822 105.249865,20.5222506 107.251978,21.8756791 C109.254091,23.2291077 106.93848,28.4291226 105.249865,29.2696729 C104.666845,29.5843523 103.977856,29.6376657 103.353348,29.4164238 C102.72884,29.195182 102.227147,28.7200506 101.972385,28.1085737" id="Path" stroke="#263238" stroke-width="0.5" fill="#FFFFFF" fill-rule="nonzero" stroke-linecap="round" stroke-linejoin="round"></path>
                        <path d="M107.78635,7.12330809 C106.09061,5.43508407 103.347501,6.70303291 103.347501,6.70303291 C103.347501,6.70303291 101.438013,1.83781349 98.1676576,1.71671725 C94.8973023,1.59562101 94.46268,3.0843924 94.46268,3.0843924 C94.46268,3.0843924 91.6126972,-0.398905253 88.9693381,0.341918788 C86.3259791,1.08274283 86.3259791,2.77096685 86.3259791,2.77096685 C86.3259791,2.77096685 81.4667584,1.60986763 79.6712692,5.09316528 C77.8757801,8.57646294 82.8418751,9.63783585 82.8418751,9.63783585 C82.8418751,9.63783585 81.7802565,11.1194839 83.4759963,11.6466087 C84.1101174,11.0126343 85.3783598,8.16331107 91.8264459,8.08495468 C98.274532,8.00659829 103.447251,12.6296252 103.447251,12.6296252 C103.447251,12.6296252 101.124515,15.3720989 101.86551,16.5331981 C102.606506,17.6942973 103.447251,17.594571 103.347501,18.541971 C103.247752,19.4893709 101.210014,28.1584369 100.383519,29.5332353 C99.4508785,30.9002147 97.7609055,31.5355887 96.1584197,31.121733 C94.6764287,30.6943346 93.8285588,29.640085 91.1709498,28.2724098 C88.5133409,26.9047347 86.3046042,26.3704866 84.4022407,27.1113106 C82.4998772,27.8521346 82.3930028,28.4861091 81.3385092,28.7995346 C80.4265147,29.0773436 80.1415164,28.4789857 79.877893,27.7737782 C79.5928947,29.1485767 79.3648961,30.3239225 79.2223969,31.1288564 C78.5099012,35.4598277 83.2408727,39.4702501 88.5275908,40.2110742 C93.8143089,40.9518982 98.8801533,38.4160005 100.25527,35.7732532 C101.630387,33.1305059 105.955236,16.2268958 106.596482,15.0657966 C107.237728,13.9046974 109.474964,8.79728549 107.78635,7.12330809 Z" id="Path" stroke="#263238" stroke-width="0.5" fill="#ADC7F7" fill-rule="nonzero" stroke-linecap="round" stroke-linejoin="round"></path>
                        <path d="M84.851113,29.0844669 C84.851113,29.0844669 88.7555894,31.513515 91.3989485,30.0318669 C91.3989485,30.0318669 88.7555894,33.201739 87.3875977,33.201739 C86.0196059,33.201739 84.851113,29.0844669 84.851113,29.0844669 Z" id="Path" stroke="#263238" stroke-width="0.5" fill="#263238" fill-rule="nonzero" stroke-linecap="round" stroke-linejoin="round"></path>
                        <path d="M87.8079701,20.1518386 C87.8079701,22.1188858 86.2129942,23.7134926 84.2454916,23.7134926 C82.2779891,23.7134926 80.6830131,22.1188858 80.6830131,20.1518386 C80.6830131,18.1847914 82.2779891,16.5901845 84.2454916,16.5901845 C86.2129942,16.5901845 87.8079701,18.1847914 87.8079701,20.1518386 Z" id="Path" stroke="#263238" stroke-width="0.5" stroke-linecap="round" stroke-linejoin="round"></path>
                        <path d="M98.0607833,21.9469122 C98.0607833,23.9139594 96.4658073,25.5085663 94.4983048,25.5085663 C92.5308022,25.5085663 90.9358262,23.9139594 90.9358262,21.9469122 C90.9358262,19.979865 92.5308022,18.3852582 94.4983048,18.3852582 C96.4658073,18.3852582 98.0607833,19.979865 98.0607833,21.9469122 Z" id="Path" stroke="#263238" stroke-width="0.5" stroke-linecap="round" stroke-linejoin="round"></path>
                        <path d="M87.9148445,19.7814266 C87.9148445,19.7814266 89.3897106,19.0690958 91.1923247,20.4937574" id="Path" stroke="#263238" stroke-width="0.5" stroke-linecap="round" stroke-linejoin="round"></path>
                        <line x1="98.0607833" y1="21.9469122" x2="104.929242" y2="22.2104746" id="Path" stroke="#263238" stroke-width="0.5" stroke-linecap="round" stroke-linejoin="round"></line>
                        <path d="M88.4420913,20.2088251 C87.5716046,21.8536901 86.7960887,23.547063 86.1193553,25.2806204 C85.9056066,26.2280204 87.0669746,26.7551452 88.5489657,26.7551452 C90.0309567,26.7551452 90.6864528,26.1211708 90.6864528,25.4871963" id="Path" stroke="#263238" stroke-width="0.5" stroke-linecap="round" stroke-linejoin="round"></path>
                        <path d="M88.1214682,16.1912793 C87.9770924,16.1896788 87.8352704,16.1530092 87.7082207,16.0844297 C86.5797004,15.3450067 85.1346981,15.2901806 83.9533684,15.9419635 C83.5598679,16.2055478 83.0271459,16.1003038 82.7635006,15.7068943 C82.4998552,15.3134849 82.6051236,14.7808862 82.9986241,14.5173019 C84.7138369,13.5038732 86.8505362,13.5285851 88.5418407,14.5814117 C88.8808292,14.7698402 89.0487072,15.1642182 88.9495031,15.5390894 C88.850299,15.9139606 88.5093088,16.1737364 88.1214682,16.1699094 L88.1214682,16.1912793 Z" id="Path" fill="#ADC7F7" fill-rule="nonzero"></path>
                        <path d="M98.4811557,19.6817003 C98.1994663,19.6875996 97.9329531,19.5543738 97.76866,19.3255348 C96.7469652,17.7456049 94.8386685,16.9830341 93.0091887,17.4236116 C92.5690169,17.5439766 92.1125136,17.2944448 91.9762897,16.8590129 C91.8400658,16.4235809 92.0729923,15.9584624 92.5033168,15.8066207 C95.0337692,15.1405637 97.7074258,16.160501 99.1509017,18.3425183 C99.3373343,18.6041916 99.3597811,18.9487484 99.2088739,19.2323881 C99.0579668,19.5160279 98.7596423,19.6900011 98.438406,19.6817003 L98.4811557,19.6817003 Z" id="Path" fill="#ADC7F7" fill-rule="nonzero"></path>
                        <ellipse id="Oval" stroke="#263238" stroke-width="0.5" fill="#263238" fill-rule="nonzero" stroke-linecap="round" stroke-linejoin="round" cx="84.687239" cy="20.3085514" rx="1" ry="1.26794884"></ellipse>
                        <path d="M94.6764287,21.8970491 C94.6764287,22.6093799 94.3700555,23.1649979 93.963933,23.1649979 C93.5578104,23.1649979 93.2514373,22.5951333 93.2514373,21.8970491 C93.2514373,21.1989649 93.5578104,20.6291002 93.963933,20.6291002 C94.3700555,20.6291002 94.6764287,21.1989649 94.6764287,21.8970491 Z" id="Path" stroke="#263238" stroke-width="0.5" fill="#263238" fill-rule="nonzero" stroke-linecap="round" stroke-linejoin="round"></path>
                    </g>
                </g>
            </g>
        </g>
    </g>
</svg>