<?xml version="1.0" encoding="UTF-8"?>
<svg width="429px" height="320px" viewBox="0 0 429 320" version="1.1" xmlns="http://www.w3.org/2000/svg" xmlns:xlink="http://www.w3.org/1999/xlink">
    <title>Online shopping-bro (2)</title>
    <g id="Page-1" stroke="none" stroke-width="1" fill="none" fill-rule="evenodd">
        <g id="selling-on-splitchek" transform="translate(-150.000000, -1628.000000)">
            <g id="why-choose-us" transform="translate(150.000000, 1516.000000)">
                <g id="Online-shopping-bro-(2)" transform="translate(0.000000, 112.000000)">
                    <g id="freepik--background-simple--inject-2" fill-rule="nonzero">
                        <path d="M379.492383,289.02268 C379.492383,289.02268 439.495615,219.502405 424.082243,130.595189 C408.668872,41.6879725 329.170642,-4.8604811 275.845438,0.406872852 C222.520234,5.6742268 169.426066,57.9189003 117.32205,64.3738832 C65.2180335,70.828866 -13.3230497,116.783505 2.55239268,204.217182 C18.4278351,291.650859 66.670257,300.206186 144.760271,303.417182 C222.850285,306.628179 333.351285,346.666667 379.492383,289.02268 Z" id="Path" fill="#ADC7F7"></path>
                        <path d="M379.492383,289.02268 C379.492383,289.02268 439.495615,219.502405 424.082243,130.595189 C408.668872,41.6879725 329.170642,-4.8604811 275.845438,0.406872852 C222.520234,5.6742268 169.426066,57.9189003 117.32205,64.3738832 C65.2180335,70.828866 -13.3230497,116.783505 2.55239268,204.217182 C18.4278351,291.650859 66.670257,300.206186 144.760271,303.417182 C222.850285,306.628179 333.351285,346.666667 379.492383,289.02268 Z" id="Path" fill="#F9FBFF"></path>
                    </g>
                    <g id="freepik--Desk--inject-2" transform="translate(11.001693, 210.034364)" stroke="#263238" stroke-linecap="round" stroke-linejoin="round">
                        <line x1="0" y1="1.6" x2="416.964148" y2="1.6" id="Path"></line>
                    </g>
                    <g id="freepik--Plant--inject-2" transform="translate(16.502539, 85.773196)">
                        <ellipse id="Oval" fill="#263238" fill-rule="nonzero" cx="46.4051393" cy="151.158763" rx="35.4254501" ry="13.1408935"></ellipse>
                        <path d="M25.7219572,109.756701 L30.6617172,149.828179 C30.6617172,156.250172 42.6535621,161.462543 57.4508386,161.462543 C72.2481151,161.462543 84.23996,156.250172 84.23996,149.828179 L89.17972,109.756701 L25.7219572,109.756701 Z" id="Path" fill="#FFFFFF" fill-rule="nonzero"></path>
                        <g id="Group" transform="translate(25.303893, 108.865979)" fill-rule="nonzero">
                            <path d="M27.5042314,0.890721649 L0.418064318,0.890721649 L5.35782428,40.9621993 C5.35782428,47.3841924 17.3496692,52.5965636 32.1469457,52.5965636 C33.1077602,52.5965636 34.0539057,52.5745704 34.9853824,52.5305842 C26.5470842,37.5752577 26.4040622,15.6261168 27.5042314,0.890721649 Z" id="Path" fill="#ADC7F7"></path>
                            <path d="M27.5042314,0.890721649 L0.418064318,0.890721649 L5.35782428,40.9621993 C5.35782428,47.3841924 17.3496692,52.5965636 32.1469457,52.5965636 C33.1077602,52.5965636 34.0539057,52.5745704 34.9853824,52.5305842 C26.5470842,37.5752577 26.4040622,15.6261168 27.5042314,0.890721649 Z" id="Path" fill="#FFFFFF" opacity="0.4"></path>
                        </g>
                        <path d="M25.7219572,109.756701 L30.6617172,149.828179 C30.6617172,156.250172 42.6535621,161.462543 57.4508386,161.462543 C72.2481151,161.462543 84.23996,156.250172 84.23996,149.828179 L89.17972,109.756701 L25.7219572,109.756701 Z" id="Path" stroke="#263238" stroke-linecap="round" stroke-linejoin="round"></path>
                        <ellipse id="Oval" stroke="#263238" fill="#FFFFFF" fill-rule="nonzero" stroke-linecap="round" stroke-linejoin="round" cx="57.4508386" cy="109.756701" rx="31.7288814" ry="13.7786942"></ellipse>
                        <ellipse id="Oval" stroke="#263238" fill="#263238" fill-rule="nonzero" stroke-linecap="round" stroke-linejoin="round" cx="57.4508386" cy="109.393814" rx="28.3513617" ry="11.9862543"></ellipse>
                        <path d="M59.6071703,110.636426 C59.6071703,110.636426 57.076781,87.3017182 41.3113556,69.6412371 C25.5459301,51.980756 29.4075242,54.147079 29.4075242,54.147079" id="Path" stroke="#263238" stroke-linecap="round" stroke-linejoin="round"></path>
                        <path d="M88.0135405,41.2591065 C88.0135405,41.2591065 69.0906293,60.1841924 65.9331436,81.6274914 C62.7756578,103.07079 64.8329743,106.534708 64.8329743,106.534708" id="Path" stroke="#263238" stroke-linecap="round" stroke-linejoin="round"></path>
                        <path d="M62.7096476,109.349828 C62.7096476,109.349828 59.0130789,96.1539519 55.2284967,69.6412371 C51.4439144,43.1285223 53.3362056,29.2838488 53.3362056,29.2838488" id="Path" stroke="#263238" stroke-linecap="round" stroke-linejoin="round"></path>
                        <path d="M31.0467764,61.3608247 C31.0467764,61.3608247 25.7549623,67.1010309 17.6137098,55.862543 C9.4724573,44.624055 12.1788737,31.5161512 12.1788737,31.5161512 C12.1788737,31.5161512 16.3265118,37.8391753 22.6084782,40.5003436 C28.8904447,43.161512 38.0658563,58.2817869 31.0467764,61.3608247 Z" id="Path" fill="#ADC7F7" fill-rule="nonzero"></path>
                        <path d="M53.2921988,35.5848797 C53.2921988,35.5848797 45.7230343,37.4762887 45.0959378,23.609622 C44.4688414,9.74295533 53.8972919,0.274914089 53.8972919,0.274914089 C53.8972919,0.274914089 53.8972919,7.84054983 57.6818741,13.4707904 C61.4664564,19.1010309 60.872365,36.8494845 53.2921988,35.5848797 Z" id="Path" fill="#ADC7F7" fill-rule="nonzero"></path>
                        <path d="M84.526004,48.2639175 C84.526004,48.2639175 77.15487,45.7017182 84.2289583,33.7594502 C91.3030466,21.8171821 104.406062,19.0680412 104.406062,19.0680412 C104.406062,19.0680412 100.258424,25.4020619 100.313433,32.2639175 C100.368441,39.1257732 90.2138791,53.4652921 84.526004,48.2639175 Z" id="Path" fill="#ADC7F7" fill-rule="nonzero"></path>
                        <path d="M62.1265579,107.480412 C62.1265579,107.480412 67.1763348,84.7725086 77.9029851,74.0618557 C84.2660417,67.6934423 92.8716476,64.0696409 101.875673,63.9670103 C101.875673,63.9670103 89.2567318,69.014433 85.4721496,79.0982818 C81.6875673,89.1821306 75.3505924,111.26323 75.3505924,111.26323 L43.8417449,111.26323 C43.8417449,111.26323 40.0461609,103.07079 29.3195107,93.6027491 C18.5928604,84.1347079 0.924142176,77.8446735 0.924142176,77.8446735 C0.924142176,77.8446735 20.4851516,70.9058419 34.3692876,76.5800687 C48.2534236,82.2542955 58.3419757,106.27079 58.3419757,106.27079 L62.1265579,107.480412 Z" id="Path" fill="#ADC7F7" fill-rule="nonzero"></path>
                        <path d="M66.989306,107.42543 C66.989306,107.42543 54.4693799,98.8371134 40.8052777,100.266667 C27.1411756,101.69622 26.0080012,112.791753 25.4029081,116.013746 C25.0678049,117.906088 24.8802123,119.821582 24.8418218,121.742955 C24.8418218,121.742955 42.4445299,116.376632 53.2921988,114.584192 C64.1398677,112.791753 68.6945684,117.806186 66.989306,107.42543 Z" id="Path" fill="#ADC7F7" fill-rule="nonzero"></path>
                        <path d="M62.3245884,107.42543 C62.3245884,107.42543 70.2018003,98.8371134 78.8271273,100.266667 C87.4524542,101.69622 88.1345592,112.791753 88.4866133,116.013746 C88.703912,117.916168 88.8250845,119.828333 88.8496692,121.742955 C88.8496692,121.742955 77.7489614,116.376632 70.9499154,114.584192 C64.1508694,112.791753 61.2464225,117.806186 62.3245884,107.42543 Z" id="Path" fill="#ADC7F7" fill-rule="nonzero"></path>
                    </g>
                    <g id="freepik--Device--inject-2" transform="translate(78.112017, 54.982818)">
                        <path d="M47.9783813,0.131958763 L286.121019,0.131958763 C291.066937,0.131958763 295.076396,4.13954874 295.076396,9.08316151 L295.076396,175.483162 L39.0230035,175.483162 L39.0230035,9.07216495 C39.0290743,4.13284715 43.036756,0.131958763 47.9783813,0.131958763 Z" id="Path" stroke="#263238" fill="#263238" fill-rule="nonzero" stroke-linecap="round" stroke-linejoin="round"></path>
                        <polygon id="Path" stroke="#263238" fill="#FFFFFF" fill-rule="nonzero" stroke-linecap="round" stroke-linejoin="round" points="333.472303 252.997938 0.616094784 252.997938 39.0230035 175.483162 295.065395 175.483162"></polygon>
                        <rect id="Rectangle" stroke="#263238" fill="#ADC7F7" fill-rule="nonzero" stroke-linecap="round" stroke-linejoin="round" x="54.5353901" y="14.009622" width="225.02862" height="147.58488"></rect>
                        <circle id="Oval" fill="#263238" fill-rule="nonzero" transform="translate(94.564953, 95.943045) rotate(-45.000000) translate(-94.564953, -95.943045) " cx="94.5649532" cy="95.9430452" r="31.7984801"></circle>
                        <circle id="Oval" fill="#263238" fill-rule="nonzero" transform="translate(168.069246, 95.941061) rotate(-45.000000) translate(-168.069246, -95.941061) " cx="168.069246" cy="95.9410614" r="31.7984801"></circle>
                        <ellipse id="Oval" fill="#263238" fill-rule="nonzero" transform="translate(241.577609, 95.928275) rotate(-13.120000) translate(-241.577609, -95.928275) " cx="241.577609" cy="95.9282747" rx="31.8051292" ry="31.7918293"></ellipse>
                        <path d="M72.7101862,87.8405498 C72.7101862,87.8405498 86.7263425,49.5725086 94.9666102,49.5725086 C103.206878,49.5725086 117.71811,87.3896907 117.71811,87.3896907 L115.264733,87.609622 C115.264733,87.609622 101.017541,54.4659794 96.7928912,52.4206186 C92.5682413,50.3752577 84.7680412,62.4274914 75.1965687,87.7965636 L72.7101862,87.8405498 Z" id="Path" stroke="#263238" fill="#FFFFFF" fill-rule="nonzero" stroke-linecap="round" stroke-linejoin="round"></path>
                        <path d="M74.1294045,85.6082474 L116.254885,85.6082474 C118.879746,85.6082474 121.007617,87.7351256 121.007617,90.3587629 L121.007617,112.945704 C121.007617,113.954803 120.606567,114.922572 119.892693,115.636112 C119.17882,116.349653 118.2106,116.750515 117.201031,116.750515 L73.1942607,116.750515 C71.0919415,116.750515 69.3876622,115.047044 69.3876622,112.945704 L69.3876622,90.3697595 C69.3847538,89.1098434 69.8826871,87.9003707 70.7719347,87.0074132 C71.6611822,86.1144558 72.8689008,85.6111605 74.1294045,85.6082474 L74.1294045,85.6082474 Z" id="Path" stroke="#263238" fill="#FFFFFF" fill-rule="nonzero" stroke-linecap="round" stroke-linejoin="round"></path>
                        <line x1="69.816741" y1="102.301031" x2="116.551931" y2="102.301031" id="Path" stroke="#263238" fill="#FFFFFF" fill-rule="nonzero" stroke-linecap="round" stroke-linejoin="round"></line>
                        <path d="M118.565241,86.7189003 C118.565241,86.7189003 117.465072,88.0604811 117.465072,91.843299 C117.465072,95.6261168 116.133867,115.650859 116.364902,116.530584 C116.595938,117.410309 117.927143,116.761512 117.927143,116.761512" id="Path" stroke="#263238" fill="#FFFFFF" fill-rule="nonzero" stroke-linecap="round" stroke-linejoin="round"></path>
                        <rect id="Rectangle" stroke="#263238" fill="#FFFFFF" fill-rule="nonzero" stroke-linecap="round" stroke-linejoin="round" x="91.4020619" y="97.8474227" width="3.56454839" height="8.00549828"></rect>
                        <path d="M140.238575,77.3498282 C140.238575,77.3498282 155.101862,76.0522337 172.550546,76.0522337 C189.999231,76.0522337 198.195492,77.15189 198.404524,78.2515464 C198.613556,79.3512027 196.03916,93.3278351 196.03916,94.614433 C196.03916,95.9010309 196.03916,114.001375 195.610094,115.079038 C195.181028,116.156701 193.233728,117.014433 192.375596,117.223368 C191.517464,117.432302 146.267503,117.872165 144.980305,117.872165 C143.634643,117.763068 142.59952,116.637417 142.603939,115.287973 C142.603939,114.001375 143.253039,99.7828179 142.174873,94.614433 C141.096707,89.4460481 140.238575,77.3498282 140.238575,77.3498282 Z" id="Path" stroke="#263238" fill="#FFFFFF" fill-rule="nonzero" stroke-linecap="round" stroke-linejoin="round"></path>
                        <path d="M156.224034,84.4536082 C156.224034,84.4536082 156.004001,67.4419244 157.731266,61.6247423 C159.251887,56.5724882 163.873151,53.0881308 169.151023,53.014433 C175.997328,53.4752085 181.787016,58.2490325 183.541237,64.8797251 C185.741576,73.2701031 183.970303,83.8268041 183.761271,84.9044674 C183.552239,85.9821306 181.175873,88.995189 180.735806,83.1780069 C180.295738,77.3608247 181.175873,63.8020619 179.448607,59.9202749 C177.418033,55.7310055 172.820208,53.4331645 168.248884,54.3230241 C163.716187,55.4226804 161.350823,57.3360825 160.492691,62.9333333 C159.634559,68.5305842 161.350823,81.462543 160.272657,84.2556701 C159.194491,87.0487973 156.609094,88.3243986 156.224034,84.4536082 Z" id="Path" stroke="#263238" fill="#FFFFFF" fill-rule="nonzero" stroke-linecap="round" stroke-linejoin="round"></path>
                        <path d="M144.331205,77.5587629 C144.331205,77.5587629 143.231036,88.9731959 143.231036,93.2838488 C143.231036,97.5945017 143.011002,100.387629 143.011002,100.387629" id="Path" stroke="#263238" fill="#FFFFFF" fill-rule="nonzero" stroke-linecap="round" stroke-linejoin="round"></path>
                        <path d="M194.729958,77.7786942 C194.729958,77.7786942 195.170026,89.1931271 195.170026,95.8680412" id="Path" stroke="#263238" stroke-linecap="round" stroke-linejoin="round"></path>
                        <path d="M250.288506,75.590378 C249.736296,75.5958104 249.265623,75.1912206 249.188337,74.6446735 C247.06501,61.3718213 244.4026,46.7353952 243.038391,41.9848797 C241.025081,46.4714777 236.6024,60.7560137 232.938837,73.7429553 C232.771745,74.3502788 232.143728,74.7072201 231.536121,74.5402062 C230.928514,74.3731922 230.571406,73.7454678 230.738498,73.1381443 C230.738498,73.0501718 233.09286,64.7697595 235.645253,56.5113402 C240.959071,39.2907216 241.960225,38.9168385 242.752347,38.6639175 C243.153544,38.526789 243.596341,38.5923579 243.940529,38.8398625 C244.523619,39.2687285 245.326743,39.8515464 248.49523,57.3580756 C250.024465,65.8034364 251.366672,74.204811 251.377673,74.2927835 C251.431464,74.5882995 251.361974,74.8929471 251.185348,75.1359547 C251.008722,75.3789622 250.740333,75.5391775 250.44253,75.5793814 C250.391725,75.5885087 250.340092,75.592195 250.288506,75.590378 L250.288506,75.590378 Z" id="Path" stroke="#263238" fill="#FFFFFF" fill-rule="nonzero" stroke-linecap="round" stroke-linejoin="round"></path>
                        <path d="M214.588014,71.8955326 C214.588014,71.8955326 236.492383,70.5539519 244.039545,70.8508591 C251.586706,71.1477663 264.997769,71.9505155 264.942929,72.819244 C264.887752,73.6879725 264.623711,101.410309 263.842591,106.908591 C263.061471,112.406873 259.133867,119.312715 255.723342,120.57732 C252.312817,121.841924 240.849054,121.380069 234.97415,121.138144 C229.099246,120.89622 223.807432,120.12646 221.167026,116.376632 C218.526619,112.626804 216.634328,96.8797251 216.634328,96.8797251 L214.588014,71.8955326 Z" id="Path" stroke="#263238" fill="#FFFFFF" fill-rule="nonzero" stroke-linecap="round" stroke-linejoin="round"></path>
                        <path d="M231.992691,77.9216495 C232.020616,76.7179402 231.075,75.715546 229.871167,75.6727421 C228.667334,75.6299382 227.652849,76.5626383 227.595133,77.7652884 C227.537417,78.9679384 228.457928,79.9934138 229.660332,80.0659794 C230.256977,80.1019871 230.842602,79.8938233 231.282532,79.4893592 C231.722462,79.0848951 231.978834,78.5189412 231.992691,77.9216495 Z" id="Path" stroke="#263238" fill="#FFFFFF" fill-rule="nonzero" stroke-linecap="round" stroke-linejoin="round"></path>
                        <ellipse id="Oval" stroke="#263238" fill="#FFFFFF" fill-rule="nonzero" stroke-linecap="round" stroke-linejoin="round" transform="translate(250.702467, 78.955355) rotate(-80.560000) translate(-250.702467, -78.955355) " cx="250.702467" cy="78.9553552" rx="2.23233041" ry="2.23331558"></ellipse>
                        <path d="M218.416603,108.734021 C218.416603,108.734021 234.149023,107.403436 262.940452,108.854983" id="Path" stroke="#263238" fill="#FFFFFF" fill-rule="nonzero" stroke-linecap="round" stroke-linejoin="round"></path>
                        <rect id="Rectangle" fill="#263238" fill-rule="nonzero" x="58.0229266" y="18.3642612" width="217.29443" height="17.6604811"></rect>
                        <line x1="163.40814" y1="28.4261168" x2="184.949454" y2="28.4261168" id="Path" stroke="#FFFFFF" stroke-width="2"></line>
                        <line x1="209.868287" y1="28.4261168" x2="231.409601" y2="28.4261168" id="Path" stroke="#FFFFFF" stroke-width="2"></line>
                        <path d="M268.507309,22.9608247 C268.424297,22.8427567 268.288624,22.7728975 268.144253,22.7738832 L256.339437,22.7738832 L255.888367,21.4103093 C255.822561,21.2242373 255.645739,21.1005196 255.4483,21.1023842 L252.455839,21.1023842 C252.206721,21.1023842 252.004636,21.304262 252.004636,21.5532646 C252.001805,21.6747336 252.048016,21.7922569 252.132932,21.8792028 C252.217847,21.9661488 252.334278,22.0151564 252.455839,22.0151203 L255.118249,22.0151203 L258.000692,30.6694158 C258.066499,30.8554878 258.243321,30.9792055 258.44076,30.9773196 L258.605786,30.9773196 C258.444923,31.230836 258.357348,31.523885 258.352747,31.824055 C258.302992,32.4192711 258.592547,32.9918282 259.101556,33.3047288 C259.610565,33.6176295 260.252414,33.6176295 260.761423,33.3047288 C261.270432,32.9918282 261.559986,32.4192711 261.510232,31.824055 C261.511133,31.5230639 261.423107,31.2285062 261.257193,30.9773196 L263.457532,30.9773196 C263.30001,31.231737 263.216222,31.5248599 263.215495,31.824055 C263.165741,32.4192711 263.455295,32.9918282 263.964304,33.3047288 C264.473313,33.6176295 265.115162,33.6176295 265.624171,33.3047288 C266.13318,32.9918282 266.422735,32.4192711 266.37298,31.824055 C266.368379,31.523885 266.280804,31.230836 266.119942,30.9773196 L266.471996,30.9773196 C266.727191,30.9773196 266.934067,30.7705398 266.934067,30.5154639 C266.934103,30.3939588 266.885072,30.2775825 266.798086,30.1927066 C266.711099,30.1078308 266.593521,30.0616413 266.471996,30.0646048 L258.770811,30.0646048 L258.264733,28.547079 L266.846053,28.547079 C267.050615,28.5495842 267.23125,28.4141715 267.286121,28.2171821 L268.595322,23.356701 C268.628613,23.2182365 268.596138,23.0721641 268.507309,22.9608247 Z M259.925989,32.4948454 C259.653596,32.4993093 259.405531,32.3387372 259.298182,32.0884666 C259.190832,31.838196 259.245502,31.5478922 259.43654,31.3537608 C259.627578,31.1596293 259.917074,31.1001949 260.169201,31.2033431 C260.421328,31.3064913 260.586054,31.5517528 260.58609,31.824055 C260.586139,32.19027 260.292325,32.4888418 259.925989,32.4948454 L259.925989,32.4948454 Z M264.777735,32.4948454 C264.505342,32.4993093 264.257278,32.3387372 264.149928,32.0884666 C264.042579,31.838196 264.097248,31.5478922 264.288286,31.3537608 C264.479324,31.1596293 264.76882,31.1001949 265.020948,31.2033431 C265.273075,31.3064913 265.4378,31.5517528 265.437837,31.824055 C265.440786,32.0009407 265.372545,32.1716007 265.24843,32.2977247 C265.124316,32.4238487 264.954728,32.4948699 264.777735,32.4948454 L264.777735,32.4948454 Z M265.998923,27.6343643 L264.304662,27.6343643 L264.304662,23.6975945 L265.998923,23.6975945 L265.998923,27.6343643 Z M261.686259,23.6975945 L263.391522,23.6975945 L263.391522,27.6343643 L261.686259,27.6343643 L261.686259,23.6975945 Z M260.773119,27.6343643 L259.067857,27.6343643 L259.067857,23.6975945 L260.740114,23.6975945 L260.773119,27.6343643 Z M256.636483,23.6975945 L258.154716,23.6975945 L258.154716,27.6343643 L257.945684,27.6343643 L256.636483,23.6975945 Z M266.923065,26.0178694 L266.923065,23.6975945 L267.53916,23.6975945 L266.923065,26.0178694 Z" id="Shape" fill="#FFFFFF" fill-rule="nonzero"></path>
                        <path d="M272.060856,22.6749141 C272.083186,21.3135859 271.27995,20.0738398 270.028014,19.5373435 C268.776077,19.0008471 267.323881,19.2740661 266.352771,20.2288108 C265.381662,21.1835555 265.084351,22.6303604 265.600332,23.8904096 C266.116314,25.1504588 267.343193,25.9737002 268.705339,25.9738832 C270.534859,25.9682585 272.024991,24.503238 272.060856,22.6749141 L272.060856,22.6749141 Z" id="Path" fill="#FFFFFF" fill-rule="nonzero"></path>
                        <path d="M267.341129,24.742268 C267.259831,24.6802882 267.204845,24.5899971 267.187106,24.4893471 C267.139671,24.2675911 267.205649,24.0367748 267.363133,23.8735395 L268.90337,22.3670103 C269.082595,22.2335955 269.195004,22.0289458 269.211417,21.8061856 C269.213204,21.66732 269.147607,21.5361859 269.03539,21.4542955 C268.915145,21.3639875 268.767651,21.3174322 268.617326,21.3223368 L268.441299,21.3223368 L268.243268,21.3223368 L268.089244,21.3883162 L267.924219,21.4872852 L267.781197,21.5642612 C267.720768,21.5860984 267.654597,21.5860984 267.594168,21.5642612 C267.519684,21.5468237 267.453574,21.5040661 267.40714,21.443299 C267.359785,21.3798187 267.322663,21.3093205 267.297123,21.2343643 C267.269288,21.1599022 267.269288,21.0778985 267.297123,21.0034364 C267.329672,20.9182001 267.392278,20.8478009 267.47315,20.8054983 C267.882496,20.5535557 268.356874,20.4273687 268.83736,20.4426117 C269.211972,20.4345142 269.575013,20.5725632 269.849515,20.8274914 C270.09836,21.0518161 270.238636,21.3722971 270.234575,21.7072165 C270.233687,21.9455937 270.173176,22.1799651 270.058547,22.3890034 C269.920608,22.6399786 269.73353,22.8606279 269.508463,23.0378007 L268.331282,23.9725086 L269.871519,23.9725086 C269.958414,23.9703151 270.039187,24.0170566 270.080551,24.0934708 C270.130484,24.1765211 270.157088,24.2714927 270.157563,24.3683849 C270.155583,24.4720267 270.1292,24.573744 270.080551,24.6652921 C270.035865,24.7383954 269.957195,24.7839203 269.871519,24.7862543 L267.67118,24.7862543 C267.560041,24.820774 267.439337,24.8046876 267.341129,24.742268 L267.341129,24.742268 Z" id="Path" fill="#263238" fill-rule="nonzero"></path>
                        <path d="M145.66241,32.4948454 L66.1201723,32.4948454 C64.7147877,32.4948454 63.3671241,31.9360702 62.3743996,30.9417456 C61.3816751,29.947421 60.8254364,28.5992281 60.8283468,27.1945017 L60.8283468,27.1945017 C60.8283468,24.273276 63.1975841,21.9051546 66.1201723,21.9051546 L145.66241,21.9051546 C148.584998,21.9051546 150.954235,24.273276 150.954235,27.1945017 L150.954235,27.1945017 C150.957146,28.5992281 150.400907,29.947421 149.408182,30.9417456 C148.415458,31.9360702 147.067794,32.4948454 145.66241,32.4948454 Z" id="Path" fill="#FFFFFF" fill-rule="nonzero"></path>
                        <line x1="78.2330359" y1="137.63299" x2="110.798046" y2="137.63299" id="Path" stroke="#263238" stroke-width="2" stroke-linecap="round" stroke-linejoin="round"></line>
                        <line x1="78.2330359" y1="143.802062" x2="110.798046" y2="143.802062" id="Path" stroke="#263238" stroke-width="2" stroke-linecap="round" stroke-linejoin="round"></line>
                        <line x1="151.779351" y1="137.63299" x2="184.355362" y2="137.63299" id="Path" stroke="#263238" stroke-width="2" stroke-linecap="round" stroke-linejoin="round"></line>
                        <line x1="151.779351" y1="143.802062" x2="184.355362" y2="143.802062" id="Path" stroke="#263238" stroke-width="2" stroke-linecap="round" stroke-linejoin="round"></line>
                        <line x1="225.336667" y1="137.63299" x2="257.901677" y2="137.63299" id="Path" stroke="#263238" stroke-width="2" stroke-linecap="round" stroke-linejoin="round"></line>
                        <line x1="225.336667" y1="143.802062" x2="257.901677" y2="143.802062" id="Path" stroke="#263238" stroke-width="2" stroke-linecap="round" stroke-linejoin="round"></line>
                        <polygon id="Path" stroke="#FFFFFF" fill="#263238" fill-rule="nonzero" stroke-linecap="round" stroke-linejoin="round" points="156.367056 200.027491 156.807124 190.581443 143.286044 190.581443 142.383905 200.027491"></polygon>
                        <polygon id="Path" stroke="#FFFFFF" fill="#263238" fill-rule="nonzero" stroke-linecap="round" stroke-linejoin="round" points="184.333359 200.027491 183.871288 190.581443 170.339206 190.581443 170.350208 200.027491"></polygon>
                        <polygon id="Path" stroke="#FFFFFF" fill="#263238" fill-rule="nonzero" stroke-linecap="round" stroke-linejoin="round" points="257.153562 210.122337 271.609786 210.122337 268.221265 200.027491 254.238114 200.027491"></polygon>
                        <polygon id="Path" stroke="#FFFFFF" fill="#263238" fill-rule="nonzero" stroke-linecap="round" stroke-linejoin="round" points="142.383905 200.027491 143.286044 190.581443 129.753962 190.581443 128.411756 200.027491"></polygon>
                        <polygon id="Path" stroke="#FFFFFF" fill="#263238" fill-rule="nonzero" stroke-linecap="round" stroke-linejoin="round" points="114.428604 200.027491 116.22188 190.581443 102.7008 190.581443 100.445453 200.027491"></polygon>
                        <polygon id="Path" stroke="#FFFFFF" fill="#263238" fill-rule="nonzero" stroke-linecap="round" stroke-linejoin="round" points="240.254962 200.027491 237.988614 190.581443 224.456532 190.581443 226.271811 200.027491"></polygon>
                        <polygon id="Path" stroke="#FFFFFF" fill="#263238" fill-rule="nonzero" stroke-linecap="round" stroke-linejoin="round" points="254.238114 200.027491 251.509694 190.581443 237.988614 190.581443 240.254962 200.027491"></polygon>
                        <polygon id="Path" stroke="#FFFFFF" fill="#263238" fill-rule="nonzero" stroke-linecap="round" stroke-linejoin="round" points="100.445453 200.027491 102.7008 190.581443 89.1687183 190.581443 86.4623019 200.027491"></polygon>
                        <polygon id="Path" stroke="#FFFFFF" fill="#263238" fill-rule="nonzero" stroke-linecap="round" stroke-linejoin="round" points="198.31651 200.027491 197.40337 190.581443 183.871288 190.581443 184.333359 200.027491"></polygon>
                        <polygon id="Path" stroke="#FFFFFF" fill="#263238" fill-rule="nonzero" stroke-linecap="round" stroke-linejoin="round" points="268.221265 200.027491 265.041776 190.581443 251.509694 190.581443 254.238114 200.027491"></polygon>
                        <polygon id="Path" stroke="#FFFFFF" fill="#263238" fill-rule="nonzero" stroke-linecap="round" stroke-linejoin="round" points="226.271811 200.027491 224.456532 190.581443 210.92445 190.581443 212.28866 200.027491"></polygon>
                        <polygon id="Path" stroke="#FFFFFF" fill="#263238" fill-rule="nonzero" stroke-linecap="round" stroke-linejoin="round" points="212.28866 200.027491 210.92445 190.581443 197.40337 190.581443 198.31651 200.027491"></polygon>
                        <polygon id="Path" stroke="#FFFFFF" fill="#263238" fill-rule="nonzero" stroke-linecap="round" stroke-linejoin="round" points="170.350208 200.027491 170.339206 190.581443 156.807124 190.581443 156.367056 200.027491"></polygon>
                        <polygon id="Path" stroke="#FFFFFF" fill="#263238" fill-rule="nonzero" stroke-linecap="round" stroke-linejoin="round" points="72.4791506 200.027491 58.4959994 200.027491 54.6344053 210.122337 69.101631 210.122337"></polygon>
                        <polygon id="Path" stroke="#FFFFFF" fill="#263238" fill-rule="nonzero" stroke-linecap="round" stroke-linejoin="round" points="75.6366364 190.581443 62.1155562 190.581443 58.4959994 200.027491 72.4791506 200.027491"></polygon>
                        <polygon id="Path" stroke="#FFFFFF" fill="#263238" fill-rule="nonzero" stroke-linecap="round" stroke-linejoin="round" points="86.4623019 200.027491 89.1687183 190.581443 75.6366364 190.581443 72.4791506 200.027491"></polygon>
                        <polygon id="Path" stroke="#FFFFFF" fill="#263238" fill-rule="nonzero" stroke-linecap="round" stroke-linejoin="round" points="50.4977689 220.942955 46.0530851 232.57732 61.5984767 232.57732 65.4820742 220.942955"></polygon>
                        <polygon id="Path" stroke="#FFFFFF" fill="#263238" fill-rule="nonzero" stroke-linecap="round" stroke-linejoin="round" points="69.101631 210.122337 54.6344053 210.122337 50.4977689 220.942955 65.4820742 220.942955"></polygon>
                        <polygon id="Path" stroke="#FFFFFF" fill="#263238" fill-rule="nonzero" stroke-linecap="round" stroke-linejoin="round" points="65.4820742 220.942955 61.5984767 232.57732 77.1438683 232.57732 80.4663794 220.942955"></polygon>
                        <polygon id="Path" stroke="#FFFFFF" fill="#263238" fill-rule="nonzero" stroke-linecap="round" stroke-linejoin="round" points="128.411756 200.027491 129.753962 190.581443 116.22188 190.581443 114.428604 200.027491"></polygon>
                        <polygon id="Path" stroke="#FFFFFF" fill="#263238" fill-rule="nonzero" stroke-linecap="round" stroke-linejoin="round" points="126.959532 210.122337 128.411756 200.027491 114.428604 200.027491 112.503308 210.122337"></polygon>
                        <polygon id="Path" stroke="#FFFFFF" fill="#263238" fill-rule="nonzero" stroke-linecap="round" stroke-linejoin="round" points="112.503308 210.122337 114.428604 200.027491 100.445453 200.027491 98.0360825 210.122337"></polygon>
                        <polygon id="Path" stroke="#FFFFFF" fill="#263238" fill-rule="nonzero" stroke-linecap="round" stroke-linejoin="round" points="141.426758 210.122337 142.383905 200.027491 128.411756 200.027491 126.959532 210.122337"></polygon>
                        <polygon id="Path" stroke="#FFFFFF" fill="#263238" fill-rule="nonzero" stroke-linecap="round" stroke-linejoin="round" points="86.4623019 200.027491 72.4791506 200.027491 69.101631 210.122337 83.5688567 210.122337"></polygon>
                        <polygon id="Path" stroke="#FFFFFF" fill="#263238" fill-rule="nonzero" stroke-linecap="round" stroke-linejoin="round" points="260.267041 220.942955 275.251346 220.942955 271.609786 210.122337 257.153562 210.122337"></polygon>
                        <polygon id="Path" stroke="#FFFFFF" fill="#263238" fill-rule="nonzero" stroke-linecap="round" stroke-linejoin="round" points="98.0360825 210.122337 100.445453 200.027491 86.4623019 200.027491 83.5688567 210.122337"></polygon>
                        <polygon id="Path" stroke="#FFFFFF" fill="#263238" fill-rule="nonzero" stroke-linecap="round" stroke-linejoin="round" points="69.101631 210.122337 65.4820742 220.942955 80.4663794 220.942955 83.5688567 210.122337"></polygon>
                        <polygon id="Path" stroke="#FFFFFF" fill="#263238" fill-rule="nonzero" stroke-linecap="round" stroke-linejoin="round" points="228.219111 210.122337 226.271811 200.027491 212.28866 200.027491 213.751885 210.122337"></polygon>
                        <polygon id="Path" stroke="#FFFFFF" fill="#263238" fill-rule="nonzero" stroke-linecap="round" stroke-linejoin="round" points="213.751885 210.122337 212.28866 200.027491 198.31651 200.027491 199.284659 210.122337"></polygon>
                        <polygon id="Path" stroke="#FFFFFF" fill="#263238" fill-rule="nonzero" stroke-linecap="round" stroke-linejoin="round" points="257.153562 210.122337 254.238114 200.027491 240.254962 200.027491 242.686336 210.122337"></polygon>
                        <polygon id="Path" stroke="#FFFFFF" fill="#263238" fill-rule="nonzero" stroke-linecap="round" stroke-linejoin="round" points="170.361209 210.122337 170.350208 200.027491 156.367056 200.027491 155.893984 210.122337"></polygon>
                        <polygon id="Path" stroke="#FFFFFF" fill="#263238" fill-rule="nonzero" stroke-linecap="round" stroke-linejoin="round" points="199.284659 210.122337 198.31651 200.027491 184.333359 200.027491 184.828435 210.122337"></polygon>
                        <polygon id="Path" stroke="#FFFFFF" fill="#263238" fill-rule="nonzero" stroke-linecap="round" stroke-linejoin="round" points="184.828435 210.122337 184.333359 200.027491 170.350208 200.027491 170.361209 210.122337"></polygon>
                        <polygon id="Path" stroke="#FFFFFF" fill="#263238" fill-rule="nonzero" stroke-linecap="round" stroke-linejoin="round" points="155.893984 210.122337 156.367056 200.027491 142.383905 200.027491 141.426758 210.122337"></polygon>
                        <polygon id="Path" stroke="#FFFFFF" fill="#263238" fill-rule="nonzero" stroke-linecap="round" stroke-linejoin="round" points="199.284659 210.122337 200.340822 220.942955 215.314125 220.942955 213.751885 210.122337"></polygon>
                        <polygon id="Path" stroke="#FFFFFF" fill="#263238" fill-rule="nonzero" stroke-linecap="round" stroke-linejoin="round" points="213.751885 210.122337 215.314125 220.942955 230.298431 220.942955 228.219111 210.122337"></polygon>
                        <polygon id="Path" stroke="#FFFFFF" fill="#263238" fill-rule="nonzero" stroke-linecap="round" stroke-linejoin="round" points="83.5688567 210.122337 80.4663794 220.942955 95.4506847 220.942955 98.0360825 210.122337"></polygon>
                        <polygon id="Path" stroke="#FFFFFF" fill="#263238" fill-rule="nonzero" stroke-linecap="round" stroke-linejoin="round" points="228.219111 210.122337 230.298431 220.942955 245.282736 220.942955 242.686336 210.122337"></polygon>
                        <polygon id="Path" stroke="#FFFFFF" fill="#263238" fill-rule="nonzero" stroke-linecap="round" stroke-linejoin="round" points="170.361209 210.122337 170.372211 220.942955 185.356516 220.942955 184.828435 210.122337"></polygon>
                        <polygon id="Path" stroke="#FFFFFF" fill="#263238" fill-rule="nonzero" stroke-linecap="round" stroke-linejoin="round" points="242.686336 210.122337 245.282736 220.942955 260.267041 220.942955 257.153562 210.122337"></polygon>
                        <polygon id="Path" stroke="#FFFFFF" fill="#263238" fill-rule="nonzero" stroke-linecap="round" stroke-linejoin="round" points="184.828435 210.122337 185.356516 220.942955 200.340822 220.942955 199.284659 210.122337"></polygon>
                        <polygon id="Path" stroke="#FFFFFF" fill="#263238" fill-rule="nonzero" stroke-linecap="round" stroke-linejoin="round" points="112.503308 210.122337 110.43499 220.942955 125.419295 220.942955 126.959532 210.122337"></polygon>
                        <polygon id="Path" stroke="#FFFFFF" fill="#263238" fill-rule="nonzero" stroke-linecap="round" stroke-linejoin="round" points="98.0360825 210.122337 95.4506847 220.942955 110.43499 220.942955 112.503308 210.122337"></polygon>
                        <polygon id="Path" stroke="#FFFFFF" fill="#263238" fill-rule="nonzero" stroke-linecap="round" stroke-linejoin="round" points="155.893984 210.122337 155.387906 220.942955 170.372211 220.942955 170.361209 210.122337"></polygon>
                        <polygon id="Path" stroke="#FFFFFF" fill="#263238" fill-rule="nonzero" stroke-linecap="round" stroke-linejoin="round" points="141.426758 210.122337 140.403601 220.942955 155.387906 220.942955 155.893984 210.122337"></polygon>
                        <polygon id="Path" stroke="#FFFFFF" fill="#263238" fill-rule="nonzero" stroke-linecap="round" stroke-linejoin="round" points="126.959532 210.122337 125.419295 220.942955 140.403601 220.942955 141.426758 210.122337"></polygon>
                        <polygon id="Path" stroke="#FFFFFF" fill="#263238" fill-rule="nonzero" stroke-linecap="round" stroke-linejoin="round" points="242.686336 210.122337 240.254962 200.027491 226.271811 200.027491 228.219111 210.122337"></polygon>
                        <polygon id="Path" stroke="#FFFFFF" fill="#263238" fill-rule="nonzero" stroke-linecap="round" stroke-linejoin="round" points="75.6366364 190.581443 78.871134 180.904467 65.8011232 180.904467 62.1155562 190.581443"></polygon>
                        <polygon id="Path" stroke="#FFFFFF" fill="#263238" fill-rule="nonzero" stroke-linecap="round" stroke-linejoin="round" points="62.1155562 190.581443 49.6176335 190.581443 45.591014 200.027491 58.4959994 200.027491"></polygon>
                        <polygon id="Path" stroke="#FFFFFF" fill="#263238" fill-rule="nonzero" stroke-linecap="round" stroke-linejoin="round" points="65.8011232 180.904467 53.7432682 180.904467 49.6176335 190.581443 62.1155562 190.581443"></polygon>
                        <polygon id="Path" stroke="#FFFFFF" fill="#263238" fill-rule="nonzero" stroke-linecap="round" stroke-linejoin="round" points="58.4959994 200.027491 45.591014 200.027491 41.2893522 210.122337 54.6344053 210.122337"></polygon>
                        <polygon id="Path" stroke="#FFFFFF" fill="#263238" fill-rule="nonzero" stroke-linecap="round" stroke-linejoin="round" points="54.6344053 210.122337 41.2893522 210.122337 36.6686413 220.942955 50.4977689 220.942955"></polygon>
                        <polygon id="Path" stroke="#FFFFFF" fill="#263238" fill-rule="nonzero" stroke-linecap="round" stroke-linejoin="round" points="50.4977689 220.942955 36.6686413 220.942955 31.706878 232.57732 46.0530851 232.57732"></polygon>
                        <polygon id="Path" stroke="#FFFFFF" fill="#263238" fill-rule="nonzero" stroke-linecap="round" stroke-linejoin="round" points="282.193414 200.027491 286.077012 210.122337 298.87198 210.122337 294.570319 200.027491"></polygon>
                        <polygon id="Path" stroke="#FFFFFF" fill="#263238" fill-rule="nonzero" stroke-linecap="round" stroke-linejoin="round" points="290.235652 220.942955 303.492691 220.942955 298.87198 210.122337 286.077012 210.122337"></polygon>
                        <polygon id="Path" stroke="#FFFFFF" fill="#263238" fill-rule="nonzero" stroke-linecap="round" stroke-linejoin="round" points="294.702339 232.57732 308.454455 232.57732 303.492691 220.942955 290.235652 220.942955"></polygon>
                        <polygon id="Path" stroke="#FFFFFF" fill="#263238" fill-rule="nonzero" stroke-linecap="round" stroke-linejoin="round" points="183.871288 190.581443 183.398215 180.904467 170.328204 180.904467 170.339206 190.581443"></polygon>
                        <polygon id="Path" stroke="#FFFFFF" fill="#263238" fill-rule="nonzero" stroke-linecap="round" stroke-linejoin="round" points="282.193414 200.027491 294.570319 200.027491 290.543699 190.581443 278.573858 190.581443"></polygon>
                        <polygon id="Path" stroke="#FFFFFF" fill="#263238" fill-rule="nonzero" stroke-linecap="round" stroke-linejoin="round" points="275.251346 220.942955 290.235652 220.942955 286.077012 210.122337 271.609786 210.122337"></polygon>
                        <polygon id="Path" stroke="#FFFFFF" fill="#263238" fill-rule="nonzero" stroke-linecap="round" stroke-linejoin="round" points="89.1687183 190.581443 91.9411448 180.904467 78.871134 180.904467 75.6366364 190.581443"></polygon>
                        <polygon id="Path" stroke="#FFFFFF" fill="#263238" fill-rule="nonzero" stroke-linecap="round" stroke-linejoin="round" points="265.041776 190.581443 268.221265 200.027491 282.193414 200.027491 278.573858 190.581443"></polygon>
                        <polygon id="Path" stroke="#FFFFFF" fill="#263238" fill-rule="nonzero" stroke-linecap="round" stroke-linejoin="round" points="290.543699 190.581443 286.418064 180.904467 274.855285 180.904467 278.573858 190.581443"></polygon>
                        <polygon id="Path" stroke="#FFFFFF" fill="#263238" fill-rule="nonzero" stroke-linecap="round" stroke-linejoin="round" points="278.573858 190.581443 274.855285 180.904467 261.796276 180.904467 265.041776 190.581443"></polygon>
                        <polygon id="Path" stroke="#FFFFFF" fill="#263238" fill-rule="nonzero" stroke-linecap="round" stroke-linejoin="round" points="230.298431 220.942955 232.542776 232.57732 248.077166 232.57732 245.282736 220.942955"></polygon>
                        <polygon id="Path" stroke="#FFFFFF" fill="#263238" fill-rule="nonzero" stroke-linecap="round" stroke-linejoin="round" points="279.156947 232.57732 294.702339 232.57732 290.235652 220.942955 275.251346 220.942955"></polygon>
                        <polygon id="Path" stroke="#FFFFFF" fill="#263238" fill-rule="nonzero" stroke-linecap="round" stroke-linejoin="round" points="265.041776 190.581443 261.796276 180.904467 248.726266 180.904467 251.509694 190.581443"></polygon>
                        <polygon id="Path" stroke="#FFFFFF" fill="#263238" fill-rule="nonzero" stroke-linecap="round" stroke-linejoin="round" points="260.267041 220.942955 263.622557 232.57732 279.156947 232.57732 275.251346 220.942955"></polygon>
                        <polygon id="Path" stroke="#FFFFFF" fill="#263238" fill-rule="nonzero" stroke-linecap="round" stroke-linejoin="round" points="245.282736 220.942955 248.077166 232.57732 263.622557 232.57732 260.267041 220.942955"></polygon>
                        <polygon id="Path" stroke="#FFFFFF" fill="#263238" fill-rule="nonzero" stroke-linecap="round" stroke-linejoin="round" points="271.609786 210.122337 286.077012 210.122337 282.193414 200.027491 268.221265 200.027491"></polygon>
                        <polygon id="Path" stroke="#FFFFFF" fill="#263238" fill-rule="nonzero" stroke-linecap="round" stroke-linejoin="round" points="143.286044 190.581443 144.199184 180.904467 131.129174 180.904467 129.753962 190.581443"></polygon>
                        <polygon id="Path" stroke="#FFFFFF" fill="#263238" fill-rule="nonzero" stroke-linecap="round" stroke-linejoin="round" points="251.509694 190.581443 248.726266 180.904467 235.656255 180.904467 237.988614 190.581443"></polygon>
                        <polygon id="Path" stroke="#FFFFFF" fill="#263238" fill-rule="nonzero" stroke-linecap="round" stroke-linejoin="round" points="129.753962 190.581443 131.129174 180.904467 118.070165 180.904467 116.22188 190.581443"></polygon>
                        <polygon id="Path" stroke="#FFFFFF" fill="#263238" fill-rule="nonzero" stroke-linecap="round" stroke-linejoin="round" points="170.339206 190.581443 170.328204 180.904467 157.269195 180.904467 156.807124 190.581443"></polygon>
                        <polygon id="Path" stroke="#FFFFFF" fill="#263238" fill-rule="nonzero" stroke-linecap="round" stroke-linejoin="round" points="116.22188 190.581443 118.070165 180.904467 105.000154 180.904467 102.7008 190.581443"></polygon>
                        <polygon id="Path" stroke="#FFFFFF" fill="#263238" fill-rule="nonzero" stroke-linecap="round" stroke-linejoin="round" points="102.7008 190.581443 105.000154 180.904467 91.9411448 180.904467 89.1687183 190.581443"></polygon>
                        <polygon id="Path" stroke="#FFFFFF" fill="#263238" fill-rule="nonzero" stroke-linecap="round" stroke-linejoin="round" points="156.807124 190.581443 157.269195 180.904467 144.199184 180.904467 143.286044 190.581443"></polygon>
                        <polygon id="Path" stroke="#FFFFFF" fill="#263238" fill-rule="nonzero" stroke-linecap="round" stroke-linejoin="round" points="237.988614 190.581443 235.656255 180.904467 222.597246 180.904467 224.456532 190.581443"></polygon>
                        <polygon id="Path" stroke="#FFFFFF" fill="#263238" fill-rule="nonzero" stroke-linecap="round" stroke-linejoin="round" points="224.456532 190.581443 222.597246 180.904467 209.527235 180.904467 210.92445 190.581443"></polygon>
                        <polygon id="Path" stroke="#FFFFFF" fill="#263238" fill-rule="nonzero" stroke-linecap="round" stroke-linejoin="round" points="197.40337 190.581443 196.457224 180.904467 183.398215 180.904467 183.871288 190.581443"></polygon>
                        <polygon id="Path" stroke="#FFFFFF" fill="#263238" fill-rule="nonzero" stroke-linecap="round" stroke-linejoin="round" points="230.298431 220.942955 215.314125 220.942955 200.340822 220.942955 185.356516 220.942955 170.372211 220.942955 155.387906 220.942955 140.403601 220.942955 125.419295 220.942955 110.43499 220.942955 95.4506847 220.942955 80.4663794 220.942955 77.1438683 232.57732 92.6782582 232.57732 108.22365 232.57732 123.75804 232.57732 139.303431 232.57732 154.837821 232.57732 170.383213 232.57732 185.917603 232.57732 201.462994 232.57732 216.997384 232.57732 232.542776 232.57732"></polygon>
                        <polygon id="Path" stroke="#FFFFFF" fill="#263238" fill-rule="nonzero" stroke-linecap="round" stroke-linejoin="round" points="210.92445 190.581443 209.527235 180.904467 196.457224 180.904467 197.40337 190.581443"></polygon>
                        <rect id="Rectangle" stroke="#263238" fill="#263238" fill-rule="nonzero" stroke-linecap="round" stroke-linejoin="round" x="0.616094784" y="252.997938" width="333.010232" height="4.72852234"></rect>
                    </g>
                </g>
            </g>
        </g>
    </g>
</svg>