<?xml version="1.0" encoding="UTF-8"?>
<svg width="365px" height="360px" viewBox="0 0 365 360" version="1.1" xmlns="http://www.w3.org/2000/svg" xmlns:xlink="http://www.w3.org/1999/xlink">
    <title>Savings-bro</title>
    <g id="Page-1" stroke="none" stroke-width="1" fill="none" fill-rule="evenodd">
        <g id="selling-on-splitchek" transform="translate(-150.000000, -2353.000000)">
            <g id="why-choose-us" transform="translate(150.000000, 1516.000000)">
                <g id="Savings-bro" transform="translate(0.000000, 838.000000)">
                    <g id="freepik--background-simple--inject-2" transform="translate(0.000000, 5.718933)" fill-rule="nonzero">
                        <path d="M114.596673,21.9933809 C114.596673,21.9933809 52.6593743,53.5292093 21.7683815,102.123797 C-9.12261126,150.718384 -6.67847079,213.234488 30.8582953,259.639541 C68.3950613,306.044594 140.14162,299.949846 200.215159,329.34516 C260.288699,358.740473 326.566595,352.686575 354.972575,290.407398 C383.378556,228.128222 340.54479,204.852166 333.187845,132.777276 C325.830901,60.7023848 260.820034,-44.8364317 114.596673,21.9933809 Z" id="Path" fill="#ADC7F7"></path>
                        <path d="M114.596673,21.9933809 C114.596673,21.9933809 52.6593743,53.5292093 21.7683815,102.123797 C-9.12261126,150.718384 -6.67847079,213.234488 30.8582953,259.639541 C68.3950613,306.044594 140.14162,299.949846 200.215159,329.34516 C260.288699,358.740473 326.566595,352.686575 354.972575,290.407398 C383.378556,228.128222 340.54479,204.852166 333.187845,132.777276 C325.830901,60.7023848 260.820034,-44.8364317 114.596673,21.9933809 Z" id="Path" fill="#F9FBFF"></path>
                    </g>
                    <g id="freepik--Plants--inject-2" transform="translate(268.937196, 153.594190)">
                        <path d="M27.9972613,156.641564 C27.9972613,156.641564 -6.80926092,95.5878737 1.22615743,80.0160372 C9.26157577,64.4442007 29.7792767,92.4424608 29.7792767,92.4424608 C29.7792767,92.4424608 11.934599,35.4982317 21.7520328,10.6208749 C31.5694666,-14.256482 48.5231366,10.6208749 49.4141443,28.2270174 C50.3051521,45.83316 45.841939,75.8575562 45.841939,75.8575562 C45.841939,75.8575562 52.9863497,13.7662878 69.9400197,32.3691586 C86.8936897,50.9720294 48.5231366,113.128657 48.5231366,113.128657 C48.5231366,113.128657 74.4032327,98.6352478 73.5040506,117.270798 C72.6048685,135.906349 42.2779081,152.474913 42.2779081,152.474913" id="Path" fill="#ADC7F7" fill-rule="nonzero"></path>
                        <path d="M28.2915391,145.252719 C28.2915391,145.252719 -3.91552939,115.220152 11.7792857,101.764321 C27.4741008,88.3084895 35.7302274,116.25773 35.7302274,116.25773 C35.7302274,116.25773 18.384187,30.3185128 46.4631921,27.2057795 C74.5421972,24.0930461 53.8937061,101.756151 53.8937061,101.756151 C53.8937061,101.756151 77.8446479,68.6271914 76.1934226,95.5878737 C74.5421972,122.548556 39.0326781,145.293568 39.0326781,145.293568" id="Path" stroke="#263238"></path>
                        <line x1="44.1089699" y1="139.787053" x2="22.3487627" y2="116.216881" id="Path" stroke="#263238"></line>
                        <line x1="39.5803618" y1="141.600772" x2="45.4740918" y2="72.7039734" id="Path" stroke="#263238"></line>
                        <line x1="38.6730053" y1="136.60896" x2="58.1689084" y2="110.775725" id="Path" stroke="#263238"></line>
                        <polygon id="Path" fill="#263238" fill-rule="nonzero" points="66.8746261 131.805057 6.67029641 131.805057 12.6948166 202.777011 60.850106 202.777011"></polygon>
                    </g>
                    <g id="freepik--piggy-bank--inject-2" transform="translate(54.768365, 182.188853)">
                        <path d="M51.2125086,20.9067837 C43.3848748,17.0682509 35.293549,13.7919948 26.9999866,11.1028992 C15.0490388,7.4264425 0.948228411,10.7924428 0.637601863,14.771186 C0.326975314,18.7499291 2.45231486,16.9280405 5.23977941,21.2417497 C8.02724396,25.5554589 6.768389,35.6371201 10.7574878,44.8282618 C14.7465867,54.0194035 26.68936,58.6108894 26.68936,58.6108894 L51.2125086,20.9067837 Z" id="Path" stroke="#263238" fill="#ADC7F7" fill-rule="nonzero" stroke-linecap="round" stroke-linejoin="round"></path>
                        <path d="M43.2424853,29.7956389 C43.2424853,29.7956389 24.8501239,18.1535261 14.1253336,14.1666131 C3.40054327,10.1797001 2.78746455,16.0048414 2.78746455,16.0048414 C6.40705635,17.3326878 8.75986917,20.8385357 8.61579953,24.6894491 C8.61579953,31.568508 12.0572147,45.8168202 20.4196084,48.7579855 C28.782002,51.6991509 43.2424853,29.7956389 43.2424853,29.7956389 Z" id="Path" fill="#000000" fill-rule="nonzero" opacity="0.3"></path>
                        <ellipse id="Oval" stroke="#263238" fill="#ADC7F7" fill-rule="nonzero" stroke-linecap="round" stroke-linejoin="round" transform="translate(170.928656, 33.463392) rotate(-20.800000) translate(-170.928656, -33.463392) " cx="170.928656" cy="33.463392" rx="9.30997892" ry="9.99248319"></ellipse>
                        <path d="M42.6948016,140.375286 L53.0108728,171.306542 C53.5846979,173.025403 55.1951386,174.184021 57.008146,174.182353 L73.0871571,174.182353 C74.7685606,174.184913 76.2895851,173.18538 76.9536402,171.641508 L84.1470971,154.958564" id="Path" fill="#ADC7F7" fill-rule="nonzero"></path>
                        <path d="M47.869186,140.375286 L56.4032417,171.306542 C56.7351362,172.902831 58.0939567,174.080276 59.7220411,174.182348 L73.0544596,174.182348 C74.5555064,174.105244 75.8423223,173.084886 76.2588176,171.641508 L82.2261171,154.958564" id="Path" fill="#000000" fill-rule="nonzero" opacity="0.3"></path>
                        <path d="M42.6948016,140.375286 L53.0108728,171.306542 C53.5846979,173.025403 55.1951386,174.184021 57.008146,174.182353 L73.0871571,174.182353 C74.7685606,174.184913 76.2895851,173.18538 76.9536402,171.641508 L84.1470971,154.958564" id="Path" stroke="#263238" stroke-linecap="round" stroke-linejoin="round"></path>
                        <path d="M120.286044,140.375286 L109.978147,171.306542 C109.404322,173.025403 107.793881,174.184021 105.980874,174.182353 L89.9182114,174.182353 C88.2368078,174.184913 86.7157834,173.18538 86.0517283,171.641508 L78.8582714,154.958564" id="Path" stroke="#263238" fill="#263238" fill-rule="nonzero" stroke-linecap="round" stroke-linejoin="round"></path>
                        <path d="M154.44679,140.375286 L144.130718,171.306542 C143.556893,173.025403 141.946453,174.184021 140.133445,174.182353 L124.054434,174.182353 C122.373031,174.184913 120.852006,173.18538 120.187951,171.641508 L112.994494,154.958564" id="Path" fill="#ADC7F7" fill-rule="nonzero"></path>
                        <path d="M147.138891,140.375286 L140.084399,171.306542 C139.692029,173.022221 138.596661,174.182348 137.354155,174.182348 L126.35961,174.182348 C125.215197,174.182348 124.17705,173.185619 123.719284,171.641508 L116.8855,155.3017" id="Path" fill="#000000" fill-rule="nonzero" opacity="0.3"></path>
                        <path d="M154.44679,140.375286 L144.130718,171.306542 C143.556893,173.025403 141.946453,174.184021 140.133445,174.182353 L124.054434,174.182353 C122.373031,174.184913 120.852006,173.18538 120.187951,171.641508 L112.994494,154.958564" id="Path" stroke="#263238" stroke-linecap="round" stroke-linejoin="round"></path>
                        <ellipse id="Oval" fill="#ADC7F7" fill-rule="nonzero" cx="99.3187517" cy="80.5797606" rx="88.4222993" ry="80.1467557"></ellipse>
                        <path d="M160.217904,25.8168958 C165.40305,36.0944079 168.104786,47.4438761 168.106183,58.9540254 C168.106183,103.218564 128.517647,139.100781 79.683884,139.100781 C61.5110791,139.192701 43.6987301,134.034915 28.3896316,124.247896 C43.8065177,144.925922 69.9073222,158.561492 99.5067625,158.561492 C146.918183,158.561492 185.337782,123.749532 185.337782,80.800348 C185.288736,59.3053312 175.692011,39.8854701 160.217904,25.8168958 Z" id="Path" fill="#000000" fill-rule="nonzero" opacity="0.3"></path>
                        <ellipse id="Oval" stroke="#263238" stroke-linecap="round" stroke-linejoin="round" cx="99.3187517" cy="80.5797606" rx="88.4222993" ry="80.1467557"></ellipse>
                        <path d="M180.302363,87.7692759 C178.373208,103.913006 170.926345,118.561643 159.711092,130.130227" id="Path" stroke="#ADC7F7" stroke-width="2" stroke-linecap="round" stroke-linejoin="round"></path>
                        <path d="M178.839148,62.9082588 C180.1437,68.3152176 180.802247,73.8576928 180.801002,79.4196342" id="Path" stroke="#ADC7F7" stroke-width="2" stroke-linecap="round" stroke-linejoin="round"></path>
                        <path d="M77.3950568,5.43298599 C84.6808318,3.73067337 92.1389923,2.87533279 99.6212038,2.88397602 C104.411458,2.88302684 109.195356,3.23254335 113.934548,3.9297237" id="Path" stroke="#263238" stroke-width="4" stroke-linecap="round" stroke-linejoin="round"></path>
                        <path d="M116.664792,61.3804868 C116.664792,61.3804868 125.247894,55.5553454 125.558521,44.8364317 C125.869147,34.117518 111.760162,18.4966621 100.422293,12.0587779 C89.0844243,5.62089377 80.8037745,6.85454924 80.5013223,11.4460351 C80.1988702,16.037521 76.2097713,21.2499196 74.6811617,30.130605 C73.1525521,39.0112904 72.5312991,52.1893451 84.4904212,56.4785445" id="Path" stroke="#263238" fill="#ADC7F7" fill-rule="nonzero" stroke-linecap="round" stroke-linejoin="round"></path>
                        <path d="M98.1988612,57.9409573 L99.9563535,58.2023942 C107.493135,59.2889914 110.141635,54.3707094 109.920926,46.9851164 C109.618474,36.5684891 95.8282902,14.509749 89.9999552,11.4460351 C84.1716202,8.38232124 82.3405585,12.6715207 82.3405585,12.6715207 C82.3405585,12.6715207 83.1579968,13.2189042 80.2887884,22.7368421 C78.9645384,27.1322503 74.0353855,42.4589897 78.9154921,49.2563496 C83.2315662,55.2612289 91.2506358,56.9033795 98.1988612,57.9409573 Z" id="Path" fill="#000000" fill-rule="nonzero" opacity="0.3"></path>
                        <path d="M122.615743,47.3854417 L122.501301,47.3854417 C122.285195,47.3570436 122.089385,47.2435605 121.95738,47.0702074 C121.825376,46.8968543 121.768109,46.6779894 121.798305,46.4622426 C121.88685,45.8339862 121.938709,45.2011086 121.953618,44.5668249 C122.117105,38.8478923 117.449533,30.637139 109.773787,23.0636383 C109.450994,22.7455343 109.447335,22.226128 109.765613,21.9035119 C110.083891,21.5808958 110.603582,21.577238 110.926375,21.895342 C119.035363,29.9018477 123.768331,38.3903777 123.588494,44.6076744 C123.570908,45.3018037 123.516334,45.9945038 123.425007,46.68283 C123.367999,47.0857959 123.02294,47.3854417 122.615743,47.3854417 Z" id="Path" fill="#000000" fill-rule="nonzero" opacity="0.3"></path>
                        <path d="M118.217925,57.2383504 C117.902189,57.2394215 117.614064,57.0586669 117.477775,56.7740149 C117.341487,56.4893629 117.381406,56.1517157 117.580323,55.9066513 C118.927501,54.2570903 120.003611,52.4038848 120.768332,50.416476 C120.9286,49.9945934 121.400714,49.7824415 121.822828,49.9426216 C122.244942,50.1028016 122.45721,50.5746565 122.296942,50.9965391 C121.471093,53.1474456 120.306538,55.1525829 118.847352,56.9360592 C118.693331,57.1258272 118.462407,57.2367297 118.217925,57.2383504 L118.217925,57.2383504 Z" id="Path" fill="#000000" fill-rule="nonzero" opacity="0.3"></path>
                        <ellipse id="Oval" fill="#000000" fill-rule="nonzero" opacity="0.3" transform="translate(35.491293, 90.301763) rotate(-75.990000) translate(-35.491293, -90.301763) " cx="35.4912934" cy="90.3017631" rx="18.072408" ry="23.909302"></ellipse>
                        <ellipse id="Oval" stroke="#263238" fill="#ADC7F7" fill-rule="nonzero" stroke-linecap="round" stroke-linejoin="round" transform="translate(34.340836, 88.543241) rotate(-75.990000) translate(-34.340836, -88.543241) " cx="34.3408359" cy="88.5432414" rx="18.072408" ry="23.909302"></ellipse>
                        <path d="M27.1226023,85.6205912 C27.2697412,87.8101254 26.4277798,89.6565236 25.2506686,89.7055431 C24.0735575,89.7545625 22.9863646,88.0715623 22.7983538,85.8820281 C22.610343,83.6924939 23.4931763,81.8379258 24.6784618,81.7970762 C25.8637473,81.7562267 26.9754634,83.4228871 27.1226023,85.6205912 Z" id="Path" stroke="#263238" stroke-linecap="round" stroke-linejoin="round"></path>
                        <path d="M43.3242291,89.6810333 C43.471368,91.8787374 42.6294066,93.7169658 41.4522954,93.7659852 C40.2751843,93.8150046 39.1879914,92.1320045 38.9999806,89.9343004 C38.8119698,87.7365963 39.6948031,85.8983679 40.8800886,85.8493485 C42.0653742,85.8003291 43.1525671,87.4833292 43.3242291,89.6810333 Z" id="Path" stroke="#263238" stroke-linecap="round" stroke-linejoin="round"></path>
                        <path d="M70.0626354,95.3591164 C69.8901036,96.9318586 69.522146,98.4769826 68.9672681,99.9587722 C64.2751724,112.630293 47.2888048,118.112298 30.5067968,112.654803" id="Path" stroke="#263238" stroke-width="3" stroke-linecap="round" stroke-linejoin="round"></path>
                        <line x1="67.3242172" y1="94.1581406" x2="72.5312991" y2="94.1581406" id="Path" stroke="#263238" stroke-width="3" stroke-linecap="round" stroke-linejoin="round"></line>
                        <path d="M34.1525716,60.2367003 C33.5803648,62.6141423 32.1171502,64.3216521 30.8828184,64.0111958 C29.6484866,63.7007395 29.1089773,61.5602247 29.6893585,59.158273 C30.2697397,56.7563213 31.7247799,55.0733211 32.9591117,55.3756075 C34.1934435,55.677894 34.7329527,57.8510884 34.1525716,60.2367003 Z" id="Path" stroke="#263238" fill="#263238" fill-rule="nonzero" stroke-linecap="round" stroke-linejoin="round"></path>
                        <ellipse id="Oval" stroke="#263238" fill="#263238" fill-rule="nonzero" stroke-linecap="round" stroke-linejoin="round" transform="translate(46.994922, 62.983489) rotate(-76.450000) translate(-46.994922, -62.983489) " cx="46.9949218" cy="62.9834894" rx="4.44456139" ry="2.29693256"></ellipse>
                        <path d="M71.7383839,150.326229 L80.7302051,171.649678 C81.390037,173.208922 82.9191396,174.222403 84.6130369,174.223197 L100.961803,174.223197 C102.63934,174.220761 104.156623,173.226892 104.828286,171.690527 L114.637545,149.035384 L114.212477,149.035384" id="Path" fill="#ADC7F7" fill-rule="nonzero"></path>
                        <path d="M90.7356497,147.605651 C85.5530909,147.605651 79.5203964,148.283753 74.6402898,147.156306 L83.0435554,171.608828 C83.4537295,173.064914 84.7448517,174.099216 86.2560879,174.182348 L99.7274708,174.182348 C101.220148,174.099635 102.498071,173.084406 102.91548,171.649678 L111.048991,146.706961 L107.779238,147.156306 C97.4059461,148.283753 97.6757007,147.605651 90.7356497,147.605651 Z" id="Path" fill="#000000" fill-rule="nonzero" opacity="0.3"></path>
                        <path d="M71.7383839,150.326229 L80.7302051,171.649678 C81.390037,173.208922 82.9191396,174.222403 84.6130369,174.223197 L100.961803,174.223197 C102.63934,174.220761 104.156623,173.226892 104.828286,171.690527 L114.637545,149.035384 L114.212477,149.035384" id="Path" stroke="#263238" stroke-linecap="round" stroke-linejoin="round"></path>
                    </g>
                    <g id="freepik--Hand--inject-2" transform="translate(123.433181, 0.000000)">
                        <path d="M165.939972,0.359475765 L120.72746,65.4654387 C120.72746,65.4654387 116.860977,74.6810901 112.103486,81.5192995 C107.345996,88.3575089 94.0054028,95.1957184 94.0054028,95.1957184 C94.0054028,95.1957184 92.8201173,107.973448 88.9536342,112.434215 C85.0871511,116.894983 76.757455,114.223424 76.757455,114.223424 C76.757455,114.223424 73.1852497,118.087789 69.3187666,119.868828 C65.4522835,121.649867 53.5585565,115.113944 53.5585565,115.113944 C53.5585565,115.113944 64.2588236,126.707037 65.7465613,130.571402 C67.234299,134.435766 69.9154965,137.703728 65.1580057,141.273975 C60.4005149,144.844223 55.0381197,139.787053 55.0381197,139.787053 C55.0381197,139.787053 57.4250395,147.515782 50.5830811,149.002704 C43.7411226,150.489627 36.2860855,135.620402 33.3106101,130.571402 C30.3351348,125.522401 21.7111609,106.486525 20.2315976,105.596006 C18.7520343,104.705486 16.6675666,99.9506023 19.643042,95.4898349 C22.6185174,91.0290675 43.7247739,62.4915937 46.1035193,60.4572877 C48.4822647,58.4229816 94.0054028,47.6305388 94.0054028,47.6305388 L111.261525,0.0653592299" id="Path" fill="#FFFFFF" fill-rule="nonzero"></path>
                        <path d="M116.076237,66.1762203 C116.076237,66.1762203 111.171607,80.882047 105.858258,83.7415133 C100.544909,86.6009796 70.2996925,94.3623882 58.4468374,92.7284074 C46.5939823,91.0944267 40.054476,86.6009796 40.054476,86.6009796 C40.054476,86.6009796 33.5149697,95.1793786 30.6539357,98.0388449 C28.6617036,99.8880373 26.2908053,101.281919 23.7057103,102.123797 C23.7057103,102.123797 37.9291364,137.834446 48.1552894,148.888326 C48.9498086,149.133612 49.793682,149.172971 50.6076042,149.002704 C57.4495627,147.515782 55.0626429,139.787053 55.0626429,139.787053 C55.0626429,139.787053 60.4168637,144.836053 65.1825289,141.273975 C69.9481941,137.711897 67.2588221,134.435766 65.7710844,130.571402 C64.2833468,126.707037 53.5422077,115.113944 53.5422077,115.113944 C53.5422077,115.113944 65.4359347,121.649867 69.3024178,119.868828 C73.1689009,118.087789 76.7411062,114.215254 76.7411062,114.215254 C76.7411062,114.215254 85.0708023,116.894983 88.9372854,112.434215 C92.8037685,107.973448 93.989054,95.1957184 93.989054,95.1957184 C93.989054,95.1957184 107.370519,88.3575089 112.136184,81.5192995 C116.901849,74.6810901 120.760158,65.4654387 120.760158,65.4654387 L139.389576,38.6436447 L116.076237,66.1762203 Z" id="Path" fill="#000000" fill-rule="nonzero" opacity="0.2"></path>
                        <path d="M165.939972,0.359475765 L120.72746,65.4654387 C120.72746,65.4654387 116.860977,74.6810901 112.103486,81.5192995 C107.345996,88.3575089 94.0054028,95.1957184 94.0054028,95.1957184 C94.0054028,95.1957184 92.8201173,107.973448 88.9536342,112.434215 C85.0871511,116.894983 76.757455,114.223424 76.757455,114.223424 C76.757455,114.223424 73.1852497,118.087789 69.3187666,119.868828 C65.4522835,121.649867 53.5585565,115.113944 53.5585565,115.113944 C53.5585565,115.113944 64.2588236,126.707037 65.7465613,130.571402 C67.234299,134.435766 69.9154965,137.703728 65.1580057,141.273975 C60.4005149,144.844223 55.0381197,139.787053 55.0381197,139.787053 C55.0381197,139.787053 57.4250395,147.515782 50.5830811,149.002704 C43.7411226,150.489627 36.2860855,135.620402 33.3106101,130.571402 C30.3351348,125.522401 21.7111609,106.486525 20.2315976,105.596006 C18.7520343,104.705486 16.6675666,99.9506023 19.643042,95.4898349 C22.6185174,91.0290675 43.7247739,62.4915937 46.1035193,60.4572877 C48.4822647,58.4229816 94.0054028,47.6305388 94.0054028,47.6305388 L111.261525,0.0653592299" id="Path" stroke="#263238" stroke-linecap="round" stroke-linejoin="round"></path>
                        <polygon id="Path" stroke="#263238" fill="#FFFFFF" fill-rule="nonzero" stroke-linecap="round" stroke-linejoin="round" points="11.3051715 173.96993 12.490457 178.430698 30.9318647 173.96993 48.1879869 128.782193 36.8828154 124.917828"></polygon>
                        <polygon id="Path" stroke="#263238" fill="#FFFFFF" fill-rule="nonzero" stroke-linecap="round" stroke-linejoin="round" points="16.95367 113.921138 42.531314 123.439076 30.040857 179.91762 0 170.701969"></polygon>
                        <polygon id="Path" stroke="#263238" fill="#ADC7F7" fill-rule="nonzero" stroke-linecap="round" stroke-linejoin="round" points="1.00544909 167.327798 27.6621116 175.162736 39.2615608 124.917828 15.907349 117.417857"></polygon>
                        <path d="M15.8010821,129.84428 C14.640955,129.537407 13.4286323,129.481698 12.2452255,129.680882 L5.28065132,153.005957 C6.28867561,153.987734 7.52875668,154.698774 8.88555416,155.072943 C14.3460419,156.576205 20.3296902,152.139947 22.2424957,145.17102 C24.1553013,138.202092 21.2533954,131.339373 15.8010821,129.84428 Z" id="Path" stroke="#263238" fill="#FFFFFF" fill-rule="nonzero" stroke-linecap="round" stroke-linejoin="round"></path>
                        <path d="M14.8119817,133.708645 C14.7398558,133.676095 14.6993404,133.598483 14.7138891,133.520737 L15.0245157,132.311591 C15.0628651,132.208353 15.0517527,132.093243 14.9943619,131.999237 C14.9369712,131.905232 14.8396347,131.842704 14.7302379,131.829567 L13.430511,131.51911 C13.3272924,131.477237 13.2103243,131.486744 13.1152312,131.544735 C13.0201381,131.602726 12.9581782,131.702336 12.9482224,131.813227 L12.6948166,133.063222 C12.6751468,133.14044 12.6026179,133.192218 12.5231545,133.185771 C12.0801715,133.140431 11.6337132,133.140431 11.1907301,133.185771 L8.81198472,141.167767 C10.6675696,143.095864 13.5613012,144.059913 13.1771052,145.677554 C12.9563968,146.592583 12.1226098,147.311534 10.6593952,146.984738 C10.0402794,146.901988 9.48778249,146.554212 9.14565958,146.031898 C8.80353666,145.509583 8.70561748,144.864379 8.87737978,144.26416 L8.95094922,143.937364 C8.99182114,143.757626 8.88555416,143.610568 8.63214829,143.553379 L8.13351094,143.43083 L6.7193427,148.153034 C7.28732781,148.669104 7.95108527,149.068805 8.67302021,149.329501 C8.74868124,149.362737 8.78990529,149.44514 8.7711128,149.525578 L8.47683502,150.563156 C8.43100074,150.666158 8.43871025,150.785091 8.4974593,150.881321 C8.55620836,150.977552 8.65850201,151.038803 8.7711128,151.04518 L10.119886,151.371976 C10.215978,151.422995 10.3302933,151.426659 10.4294586,151.381899 C10.5286239,151.337139 10.601458,151.249002 10.6266977,151.143219 L10.847406,150.113811 C10.8723821,150.035681 10.9451767,149.982768 11.0272425,149.983093 C13.9046252,150.285379 15.8583027,148.871986 16.4632071,146.355656 C16.9373213,144.345859 16.2588475,142.638349 14.1580311,141.028878 C12.2370511,139.574635 10.2098042,138.855684 10.5613026,137.368761 C10.8065341,136.339354 11.7465882,135.865499 13.0136175,136.167786 C13.6482126,136.269853 14.2063542,136.644319 14.5412033,137.192668 C14.8760523,137.741017 14.954081,138.408343 14.754761,139.019082 L14.6975404,139.247839 C14.6975404,139.386728 14.7792842,139.509276 15.0326901,139.574635 L17.4277842,140.146529 C17.5310787,140.184857 17.6462523,140.173751 17.7403093,140.116391 C17.8343663,140.059032 17.8969286,139.961749 17.9100728,139.852412 L18.0899093,139.092611 C18.6375929,136.698829 17.4850049,134.664523 14.8119817,133.708645 Z" id="Path" fill="#263238" fill-rule="nonzero"></path>
                        <path d="M38.0681009,84.190858 C38.0681009,84.190858 41.6403063,89.542145 42.2370362,94.3051989 C42.7440039,98.3649098 41.7939597,102.472757 39.5558386,105.898292 C37.7738232,108.569851 35.9918077,110.947293 34.50407,115.113944 C33.0163323,119.280595 32.7220546,125.220115 30.6375869,128.18579 C28.5531193,131.151465 27.3678338,134.12531 30.3351348,136.805038 C33.3024357,139.484767 41.0435763,139.18248 45.2125116,131.453751 C49.3814468,123.725022 52.05447,115.39989 54.7274932,112.426045 C57.4005164,109.4522 66.0326647,102.622161 66.0326647,102.622161 C66.0326647,102.622161 89.525841,99.3541994 93.989054,95.1957184 C98.4522671,91.0372374 102.31875,79.7382605 102.31875,79.7382605" id="Path" fill="#FFFFFF" fill-rule="nonzero"></path>
                        <path d="M100.544909,83.7415133 C100.544909,83.7415133 87.8746157,91.9114171 78.0653562,94.3623882 C68.2560968,96.8133593 62.1253097,96.8133593 58.4468374,101.715302 C54.7683651,106.617244 51.0898928,122.140061 46.1852631,124.999527 C41.2806334,127.858994 40.4631951,117.646614 33.5149697,119.68909 L33.286087,119.770789 C32.6076132,122.957051 32.0108833,126.225013 30.6375869,128.19396 C28.5531193,131.167805 27.3678338,134.13348 30.3351348,136.813208 C33.3024357,139.492936 41.0435763,139.19065 45.2125116,131.461921 C49.3814468,123.733192 52.05447,115.40806 54.7274932,112.434215 C57.4005164,109.46037 66.0326647,102.630331 66.0326647,102.630331 C66.0326647,102.630331 89.525841,99.3623693 93.989054,95.2038883 C96.6866004,92.6875579 99.1634384,87.5731982 100.700222,83.9130813 L100.544909,83.7415133 Z" id="Path" fill="#000000" fill-rule="nonzero" opacity="0.2"></path>
                        <path d="M38.0681009,84.190858 C38.0681009,84.190858 41.6403063,89.542145 42.2370362,94.3051989 C42.7440039,98.3649098 41.7939597,102.472757 39.5558386,105.898292 C37.7738232,108.569851 35.9918077,110.947293 34.50407,115.113944 C33.0163323,119.280595 32.7220546,125.220115 30.6375869,128.18579 C28.5531193,131.151465 27.3678338,134.12531 30.3351348,136.805038 C33.3024357,139.484767 41.0435763,139.18248 45.2125116,131.453751 C49.3814468,123.725022 52.05447,115.39989 54.7274932,112.426045 C57.4005164,109.4522 66.0326647,102.622161 66.0326647,102.622161 C66.0326647,102.622161 89.525841,99.3541994 93.989054,95.1957184 C98.4522671,91.0372374 102.31875,79.7382605 102.31875,79.7382605" id="Path" stroke="#263238" stroke-linecap="round" stroke-linejoin="round"></path>
                        <path d="M28.8473971,99.0600828 C28.8473971,99.0600828 36.5885376,103.218564 42.2370362,98.4636799" id="Path" stroke="#263238" stroke-linecap="round" stroke-linejoin="round"></path>
                        <line x1="55.021771" y1="139.787053" x2="48.1879869" y2="126.707037" id="Path" stroke="#263238" stroke-linecap="round" stroke-linejoin="round"></line>
                        <path d="M76.7411062,114.223424 C76.7411062,114.223424 82.095327,109.762657 81.7928748,99.9506023" id="Path" stroke="#263238" stroke-linecap="round" stroke-linejoin="round"></path>
                    </g>
                    <g id="freepik--Floor--inject-2" transform="translate(8.991821, 355.390813)" stroke="#263238" stroke-linecap="round" stroke-linejoin="round">
                        <line x1="28.61034" y1="2.16" x2="352.315901" y2="2.16" id="Path"></line>
                        <line x1="0" y1="2.16" x2="14.7138891" y2="2.16" id="Path"></line>
                    </g>
                </g>
            </g>
        </g>
    </g>
</svg>