<?xml version="1.0" encoding="UTF-8"?>
<svg width="243px" height="81px" viewBox="0 0 243 81" version="1.1" xmlns="http://www.w3.org/2000/svg" xmlns:xlink="http://www.w3.org/1999/xlink">
    <title>tag</title>
    <g id="Page-1" stroke="none" stroke-width="1" fill="none" fill-rule="evenodd">
        <g id="selling-on-splitchek" transform="translate(-688.000000, -594.000000)">
            <g id="tag" transform="translate(688.000000, 594.000000)">
                <path d="M235.506779,36.0904709 C233.052549,25.8512709 232.677736,15.3344709 231.653977,4.92727092 C212.387972,7.05287092 192.842851,6.86887092 173.470184,6.64887092 C160.095528,6.49687092 146.717881,6.20327092 133.341231,6.33047092 C119.334575,6.46247092 105.34686,7.19847092 91.3501726,7.64327092 C76.3426856,8.11927092 61.3322082,8.49367092 46.3187402,8.69047092 C32.2622424,8.87527092 17.9744769,9.50327092 3.92695077,8.58247092 C4.64168795,14.0760709 4.41241382,19.7664709 4.72741653,25.2712709 C5.06534666,31.1944709 5.38832413,37.1176709 5.73721954,43.0392709 C6.42603877,54.7440709 7.08993689,66.4520709 7.12981066,78.1744709 C14.9480584,77.6352709 22.793221,77.6176709 30.6333993,77.4264709 C39.0985988,77.2176709 47.5628015,76.9712709 56.0240137,76.7024709 C116.557368,74.7656709 177.00599,70.6848709 237.603142,70.6520709 C237.937085,70.6520709 238.235141,70.7016709 238.501298,70.7864709 C238.486346,64.5704709 238.402611,58.3440709 237.513426,52.1712709 C237.425704,51.5643376 237.896879,50.8238042 238.926951,49.9496709 C238.044412,44.3504709 237.603142,40.2096709 237.603142,37.5272709 C236.670096,37.4256709 235.727081,37.0080709 235.506779,36.0904709 Z" id="Fill-110" fill="#FFFFFF"></path>
                <path d="M237.018758,52.0845575 C237.901975,58.2365251 237.985148,64.4419118 238,70.6369336 C237.735629,70.5524198 237.439573,70.5029871 237.107872,70.5029871 C176.917418,70.5356764 116.874497,74.6027043 56.7474131,76.5329678 C48.3429884,76.8008606 39.9355933,77.0464291 31.527208,77.2545244 C23.7396491,77.4450791 15.9471394,77.4626197 8.18136386,78 C8.14175771,66.3171616 7.48231534,54.6486746 6.79811913,42.9833768 C6.45156534,37.0817615 6.13075553,31.1785515 5.79509343,25.2753416 C5.48220486,19.7891196 5.70994021,14.117924 5,8.64286416 C18.953246,9.56055658 33.1451191,8.934676 47.1072766,8.75049968 C62.0199816,8.55436385 76.9297161,8.18122741 91.8364802,7.70683384 C105.739228,7.26353499 119.633065,6.53001889 133.545715,6.39846438 C146.832588,6.27169366 160.12045,6.5643028 173.405343,6.71578982 C192.64799,6.93504735 212.061933,7.11842637 231.198634,5 C232.215522,15.372077 232.58782,25.8533842 235.025578,36.0580282 C235.244402,36.9725314 236.888057,51.17723 237.018758,52.0845575 Z M238.331053,33.5040719 C236.630769,20.3858674 235.097548,10.579165 233.731389,4.08396479 C235.45441,2.669636 234.398652,-0.350727573 231.302554,0.033479855 C205.924828,3.18748079 180.031086,2.40236126 154.484321,2.36020186 C126.5967,2.31167876 98.8069443,3.80555361 70.9420595,4.60737781 C59.6707591,4.93113023 48.3964931,5.1896549 37.1222271,5.38772457 C26.193949,5.57943055 15.17176,5.35908799 4.26424124,6.11159364 C3.32513096,5.02579004 0.802384193,5.24772352 0.541410389,6.79966698 C-0.42142478,12.5126644 0.159835055,18.5621416 0.324920756,24.3220712 C0.492972069,30.2164336 0.844891289,36.1052277 1.1859366,41.9940219 C1.88483236,54.0850217 2.57779689,66.1784079 2.5886708,78.2877033 C2.59064787,80.4091965 5.02640337,81.1076108 6.63969597,80.3916964 C21.055533,81.5085229 35.7778166,80.812495 50.2173785,80.4624923 C65.2332576,80.097376 80.2432054,79.572372 95.2511762,78.9980495 C125.291831,77.8502 155.323589,76.4756442 185.376107,75.5895012 C202.439246,75.0851793 219.509306,74.7725633 236.581342,74.7693814 C237.282215,74.7693814 237.829864,74.5554026 238.226268,74.2213092 C239.735764,75.5529101 242.996948,74.9833603 243,72.5094781 C243.005214,68.2055064 242.769584,61.7527308 242.293109,53.1511511 L238.331053,33.5040719 Z" id="Fill-111" fill="#000000"></path>
            </g>
        </g>
    </g>
</svg>