<?xml version="1.0" encoding="UTF-8"?>
<svg width="133px" height="64px" viewBox="0 0 133 64" version="1.1" xmlns="http://www.w3.org/2000/svg" xmlns:xlink="http://www.w3.org/1999/xlink">
    <title>2</title>
    <g id="Page-1" stroke="none" stroke-width="1" fill="none" fill-rule="evenodd">
        <g id="shopping-on-splitchek-copy" transform="translate(-1126.000000, -995.000000)" stroke="#0B0212">
            <g id="introduction" transform="translate(150.000000, 895.000000)">
                <g id="stars" transform="translate(0.000000, 101.000000)">
                    <g id="2" transform="translate(977.000000, 0.000000)">
                        <path d="M7.32813829,12.3217378 C7.68401266,11.9937764 7.85281034,11.5098897 7.77813829,11.0317378 L6.41813829,1.67173776 C6.3376982,1.12293389 6.5751857,0.575947124 7.03107645,0.26000423 C7.4869672,-0.0559386639 8.08251337,-0.0862635976 8.56813829,0.181737756 L16.8581383,4.75173776 C17.2833592,4.97751924 17.7929174,4.97751924 18.2181383,4.75173776 L26.6881383,0.521737756 C27.1851285,0.27164172 27.781062,0.325750445 28.2248805,0.661268685 C28.6686989,0.996786924 28.8832468,1.5553867 28.7781383,2.10173776 L26.9881383,11.4017378 C26.8892284,11.8731707 27.0360578,12.3626019 27.3781383,12.7017378 L34.0181383,19.4417378 C34.4122213,19.8372983 34.5461861,20.4229813 34.3632474,20.9505256 C34.1803086,21.4780699 33.712508,21.8550761 33.1581383,21.9217378 L23.7681383,23.0917378 C23.2914389,23.1500417 22.8732773,23.4375278 22.6481383,23.8617378 L18.2881383,32.2717378 C18.0312723,32.7655706 17.5159504,33.0703736 16.9594537,33.0576294 C16.402957,33.0448852 15.9021286,32.7168115 15.6681383,32.2117378 L11.6681383,23.6417378 C11.465998,23.2065388 11.0616437,22.899529 10.5881383,22.8217378 L1.24813829,21.2717378 C0.703395121,21.1885549 0.250927203,20.8076911 0.0760354672,20.285123 C-0.0988562683,19.7625549 0.0332059952,19.186062 0.418138289,18.7917378 L7.32813829,12.3217378 Z" id="Path"></path>
                        <path d="M123.744026,58.1325941 L117.204026,56.8125941 C116.871393,56.7401264 116.524742,56.8418609 116.284026,57.0825941 L111.494026,61.7225941 C111.221476,62.0232318 110.794269,62.1293571 110.412718,61.9912091 C110.031166,61.853061 109.770928,61.4980333 109.754026,61.0925941 L108.984026,54.4625941 C108.949881,54.1246389 108.746516,53.8271244 108.444026,53.6725941 L102.584026,50.5725941 C102.219245,50.405732 101.989475,50.0370407 102.000371,49.6360546 C102.011268,49.2350685 102.260721,48.8793995 102.634026,48.7325941 L108.704026,45.9525941 C109.017648,45.8167337 109.240161,45.5301076 109.294026,45.1925941 L110.414026,38.5725941 C110.454604,38.1669619 110.737345,37.8265662 111.128646,37.7122535 C111.519947,37.5979408 111.941467,37.7325973 112.194026,38.0525941 L116.704026,42.9725941 C116.930399,43.2249067 117.26918,43.3453621 117.604026,43.2925941 L124.214026,42.3625941 C124.600992,42.3026326 124.987349,42.474049 125.202569,42.8011843 C125.41779,43.1283197 125.422268,43.5509723 125.214026,43.8825941 L121.934026,49.7025941 C121.78418,50.0015341 121.78418,50.3536542 121.934026,50.6525941 L124.864026,56.6525941 C125.07445,57.0026651 125.050826,57.4455217 124.804352,57.771219 C124.557878,58.0969162 124.138102,58.2399824 123.744026,58.1325941 Z" id="Path"></path>
                        <path d="M129.924026,29.7925941 L126.784026,29.1525941 C126.625048,29.1237851 126.461821,29.1720111 126.344026,29.2825941 L124.044026,31.5125941 C123.907292,31.6422019 123.709312,31.6839471 123.531888,31.6205814 C123.354464,31.5572157 123.227721,31.399498 123.204026,31.2125941 L122.834026,28.0325941 C122.825556,27.8700338 122.729956,27.7247206 122.584026,27.6525941 L119.744026,26.1425941 C119.576104,26.0602975 119.469665,25.8895985 119.469665,25.7025941 C119.469665,25.5155897 119.576104,25.3448908 119.744026,25.2625941 L122.664026,23.9225941 C122.80984,23.8546273 122.914043,23.7206515 122.944026,23.5625941 L123.494026,20.4025941 C123.530278,20.2201013 123.664863,20.0728306 123.843361,20.0203311 C124.021859,19.9678316 124.214745,20.0187873 124.344026,20.1525941 L126.584026,22.5125941 C126.692986,22.6324227 126.853239,22.6920515 127.014026,22.6725941 L130.194026,22.2225941 C130.378383,22.2011414 130.559453,22.2835725 130.664334,22.4366984 C130.769215,22.5898242 130.780647,22.7884465 130.694026,22.9525941 L129.114026,25.7525941 C129.039306,25.8968244 129.039306,26.0683638 129.114026,26.2125941 L130.524026,29.0825941 C130.620793,29.2633081 130.597452,29.4847799 130.465139,29.6413509 C130.332825,29.7979219 130.118347,29.8578695 129.924026,29.7925941 Z" id="Path"></path>
                    </g>
                </g>
            </g>
        </g>
    </g>
</svg>