<?xml version="1.0" encoding="UTF-8"?>
<svg width="167px" height="227px" viewBox="0 0 167 227" version="1.1" xmlns="http://www.w3.org/2000/svg" xmlns:xlink="http://www.w3.org/1999/xlink">
    <title>balloons</title>
    <g id="Page-1" stroke="none" stroke-width="1" fill="none" fill-rule="evenodd">
        <g id="shopping-on-splitchek-copy" transform="translate(-1107.000000, -4886.000000)" fill="#282826">
            <g id="balloons" transform="translate(1107.000000, 4886.000000)">
                <path d="M135.557761,127.228928 C134.204485,123.016467 130.23656,120.324427 125.60597,122.208157 C121.596125,123.839289 119.723681,127.783567 120.599709,131.694255 C109.308348,132.90054 97.3959733,129.70223 87.5626885,121.838397 C78.3165577,114.444556 73.0972018,104.067112 71.0955037,92.7797816 C75.7755378,92.543039 79.465606,88.7731608 79.2202643,83.988057 C78.9698169,79.1024518 74.7847657,76.1091755 70.3043909,76.9166802 C70.8638667,68.5352916 72.8849127,60.1748631 76.0912842,52.5929177 C79.3511312,54.1729935 83.2454269,53.2332783 85.6846018,50.2827286 C88.6018302,46.7541613 87.7725591,41.127694 84.1287108,38.5205688 C84.3079473,38.2824826 84.4807345,38.0344537 84.6631956,37.8003982 C93.842415,26.9868214 105.159574,19.5292935 119.703527,19.638394 C130.144657,19.7173977 140.239407,24.5054575 147.947382,31.4190954 C144.746654,34.4817015 144.500237,39.0848816 147.433858,42.8080025 C149.945856,45.9969072 154.368993,45.7254996 157.443692,43.6714011 C161.865486,52.4160996 163.445561,62.8838333 162.990349,73.3840821 C159.094979,73.1521764 155.399536,75.9920134 154.344002,79.8202039 C153.060056,84.4768594 156.531386,88.6011797 160.79571,89.3342489 C159.169414,96.4214802 156.759261,103.092464 153.840958,108.74634 C149.483119,117.189803 143.025231,123.373328 135.557761,127.228928 Z M132.558841,128.635411 C129.753132,129.812943 126.834022,130.684135 123.849614,131.234743 C122.107231,125.631117 131.231631,122.044237 132.558841,128.635411 Z M110.576708,143.341671 C109.096596,143.202742 104.564627,143.071338 104.382703,140.946835 C104.344814,140.500221 104.491804,140.058714 104.720216,139.629836 C108.005054,141.648464 112.14496,141.971466 115.959983,141.41199 C117.001543,144.556287 112.257016,143.499141 110.576708,143.341671 Z M113.922814,135.382711 C114.182935,136.943439 114.773852,138.370881 115.361006,139.82439 C112.058432,140.258911 108.545988,139.958481 105.684385,138.284622 C106.037215,137.875361 106.391119,137.49324 106.647747,137.156534 C107.226034,136.39928 107.630458,135.634502 107.955072,134.793138 C109.932585,135.114528 111.925953,135.310693 113.922814,135.382711 Z M22.7661435,103.999395 C37.5661871,109.354455 56.3029842,106.79543 69.8940548,100.4367 C70.4285397,102.109753 71.042297,103.755666 71.7286089,105.372019 C56.3126582,116.418845 36.6334586,115.358743 22.7661435,103.999395 Z M57.5345297,119.367513 C54.4136112,119.946606 51.2921553,120.207265 48.1776861,119.679229 C48.4837586,119.171348 48.7995051,118.686307 49.0254989,118.249905 C49.3388269,117.646091 49.5220942,117.036364 49.6497364,116.407558 C51.6562714,116.336348 53.6633439,116.124865 55.6577866,115.76881 C56.1060122,117.05813 56.8028041,118.220346 57.5345297,119.367513 Z M53.2766553,124.130851 C51.6828748,124.250969 47.3605075,124.818775 47.1885264,122.456185 C47.1595046,122.056598 47.2497947,121.64465 47.3975909,121.232164 C51.0683112,121.945885 54.7753089,121.590637 58.4516724,120.870198 C58.5492179,121.036536 58.6558999,121.19723 58.7488771,121.365987 C60.339433,124.262255 54.8325463,124.014495 53.2766553,124.130851 Z M68.0232236,68.350412 C67.848824,68.3874954 67.672006,68.4302219 67.4911572,68.5401286 C56.9328648,74.9187442 42.4456117,73.9806413 30.7310155,72.3003328 C21.2271819,70.9373831 10.4356402,68.5240053 3.76196954,61.1503181 C3.72004916,61.1032921 3.67087333,61.0911996 3.62734063,61.0508916 C3.33739134,56.4098219 3.43681788,51.7725143 3.87913163,47.2547873 C14.3339667,54.2619399 26.1334785,57.0904906 38.7652174,57.4204793 C48.9892217,57.6886622 62.2742198,56.7997352 72.3907359,52.9135011 C70.4075795,57.8703172 68.9347231,63.0654883 68.0232236,68.350412 Z M70.6053577,89.5142916 C70.2388231,86.4987115 70.0969387,83.4336868 70.1525639,80.3563011 C73.3879572,79.3590797 75.7731193,81.2621575 75.9467127,84.6528712 C76.0937027,87.5104437 73.2893368,89.476402 70.6975288,89.4952124 C70.6628639,89.4952124 70.6394852,89.5121418 70.6053577,89.5142916 Z M67.0106852,83.8010276 C66.9631217,83.8195693 66.9185141,83.8139262 66.8709506,83.8364987 C50.800397,91.5686589 19.6882203,93.0404404 6.64399561,78.3086518 C5.44308423,74.3197665 4.60736385,70.1992082 4.09142073,66.0369982 C11.1842951,71.9571769 20.9044487,74.0007954 29.8525686,75.489775 C41.6324639,77.451165 56.4177278,78.0719091 67.4524615,72.3358039 C67.0026236,76.151902 66.8483781,79.9913788 67.0106852,83.8010276 Z M15.8293956,96.7815655 C13.0575449,93.1293868 10.7949193,89.1155105 8.99906101,84.8691911 C24.301343,95.9125238 51.3743838,94.3203556 67.2495776,87.2801504 C67.5677425,90.6520537 68.1290994,93.9860674 68.9704629,97.2391963 C53.5666046,104.695381 30.4483217,106.864223 15.8293956,96.7815655 Z M77.4163444,49.6335001 C78.8325008,46.6652148 80.4426733,43.8522499 82.2084349,41.2206712 C86.9290458,44.5417864 81.9493885,52.3424703 77.4163444,49.6335001 Z M7.60708945,30.8456461 C18.7525359,38.8742049 32.0278601,40.7450361 45.6073757,39.4143328 C58.282916,38.1717698 74.0500842,33.5191451 84.1674065,25.296839 C85.1799449,26.9827906 86.1013871,28.7351162 86.9242089,30.5460229 C85.312424,32.1174996 83.7710439,33.7583063 82.3247909,35.4619935 C79.223489,39.4369053 76.5475714,43.828065 74.3287473,48.4852579 C74.3231041,48.4876764 74.3182672,48.4868703 74.312624,48.4892887 C64.1829406,53.5933636 49.8765364,54.075448 38.7652174,54.1133376 C26.312715,54.1560641 14.4543534,50.6987077 4.32735722,43.5155432 C4.39023779,43.0737669 4.4404885,42.6247352 4.50981836,42.1864522 C5.14104253,38.2048224 6.19415769,34.4123717 7.60708945,30.8456461 Z M18.6482724,14.4034522 C25.9281762,22.1597973 37.7051155,23.2822423 47.8151823,22.9777821 C56.590515,22.7130925 68.955952,21.4839655 74.4862174,13.6389428 C77.4405293,16.2299447 80.0914558,19.218384 82.375579,22.5177328 C72.7524335,30.6123968 57.8201795,34.5195911 45.6073757,36.1069224 C32.8262283,37.7686892 19.3523198,35.6791195 8.94424205,27.7701413 C11.3772364,22.6743968 14.6295591,18.145921 18.6482724,14.4034522 Z M55.4987041,3.95506647 C53.5472567,6.15937974 49.2055416,6.62292239 46.5884738,6.9725276 C42.6264605,7.50217547 38.4470525,7.13644704 35.104171,5.01839301 C36.691771,4.53818969 38.3121548,4.10769964 40.005362,3.79275936 C45.3773511,2.79392571 50.5854207,2.91673092 55.4987041,3.95506647 Z M31.3794378,6.33377926 C35.5274056,10.0442703 41.1270008,10.870048 46.5884738,10.279938 C50.6517947,9.84138637 56.8479492,8.94036694 58.9063473,4.83512571 C63.6186278,6.27976647 68.005488,8.5851186 71.9425103,11.5671086 C71.9151008,11.6015049 71.8852729,11.6299892 71.8594757,11.6678788 C67.1786354,18.6887361 55.3519828,19.2836831 47.8151823,19.6706404 C38.6891695,20.1387513 27.8194302,19.0834864 21.1570458,12.2445527 C24.199498,9.83413092 27.6254141,7.85419917 31.3794378,6.33377926 Z M155.8354,40.7748641 C154.286496,41.9730883 152.155812,42.467265 150.469054,41.1634338 C147.864348,39.1504494 148.186275,35.7245333 150.338994,33.7233726 C150.621688,34.0125158 150.909218,34.2968219 151.182776,34.590802 C152.954449,36.4938797 154.492605,38.571357 155.8354,40.7748641 Z M161.45918,86.2200485 C158.630092,86.0190456 156.944141,82.8368589 157.686884,80.1415935 C158.292579,77.9437295 160.601156,76.6718759 162.768117,76.7479238 C162.501009,79.935485 162.060845,83.1088039 161.45918,86.2200485 Z M154.906971,33.9001906 C146.42535,23.8105466 134.731714,17.8022276 121.66223,16.4416963 C109.36881,15.1625873 98.3512743,20.400485 89.4464184,28.2124551 C80.5791833,9.30528922 62.4703857,-2.0032705 41.2635108,0.294826182 C19.9394738,2.60582144 5.89856528,19.4032636 1.65950129,39.4726451 C-2.57338212,59.507093 1.15081362,84.271557 14.4519349,100.38833 C22.693589,110.375861 34.3291814,115.876836 46.28267,116.39466 C45.407179,119.366707 42.7984416,121.489598 44.5440492,124.974633 C45.9903022,127.862839 50.6679179,127.593313 53.2766553,127.437993 C53.4623411,127.426706 53.660388,127.417839 53.8522544,127.407358 C55.9541852,135.98975 55.7789795,143.866482 52.1867255,152.181765 C48.9997018,159.559483 44.119471,166.113573 40.3573857,173.194893 C32.6561283,187.691013 30.3354591,205.003593 37.2980041,220.171783 C37.4256463,220.449371 37.8598985,220.249981 37.7817008,219.967287 C32.6787008,201.4194 36.8562278,183.661014 46.564289,167.473298 C50.293053,161.255109 54.0825477,155.123178 56.3419487,148.188043 C58.6204288,141.194595 58.0074776,134.188248 56.241716,127.239408 C58.4565094,127.01422 60.6535672,126.454745 61.8929056,124.553817 C63.9537221,121.391784 60.1352056,117.917498 58.9031226,115.067181 C63.8559079,113.780011 68.6692274,111.572473 73.1246112,108.423339 C75.7578022,113.703425 79.268634,118.591718 83.7323482,122.87109 C89.7008966,128.59349 96.9923553,132.335959 104.684207,134.147134 C103.350011,136.982134 100.237423,138.799759 101.338639,142.480153 C102.225416,145.444408 106.242248,146.150067 108.87947,146.463395 C105.056116,155.853292 98.4415643,162.832766 89.8704591,168.26038 C82.1697392,173.135774 73.6381359,176.673478 66.4020335,182.285972 C52.5194013,193.052522 49.6844013,210.018721 54.64068,226.307475 C54.7221022,226.575658 55.1832264,226.538306 55.1482928,226.238952 C54.1671947,217.762974 53.7796999,209.516483 56.1164923,201.198243 C58.895061,191.308527 66.2510127,185.022351 74.7331714,179.883074 C82.1221757,175.406461 90.163633,171.903691 96.9566155,166.488169 C103.498613,161.272844 108.293391,154.596755 111.074109,146.740984 C113.685534,147.064792 116.637427,147.239997 118.449409,145.299836 C121.151124,142.405986 117.889933,138.489656 117.21652,135.394803 C130.684785,134.961894 143.893198,128.888276 152.215468,117.323089 C167.788083,95.6833053 173.277234,55.756294 154.906971,33.9001906 L154.906971,33.9001906 Z" id="Fill-242"></path>
                <path d="M101.786864,72.7267921 C99.4081515,67.7721257 106.69961,62.6771873 109.686169,67.7713195 C112.735339,72.9721338 104.931161,78.2917224 101.786864,72.7267921 Z M102.448991,63.3288342 C98.2292752,65.399056 96.9899368,70.3526475 98.9317103,74.3966205 C101.144891,78.3151011 105.44388,79.5294485 109.411536,77.4495527 C113.473245,75.3202124 114.460524,70.5563376 112.785321,66.5892186 C111.008004,62.3799826 106.248966,61.4652584 102.448991,63.3288342 L102.448991,63.3288342 Z" id="Fill-243"></path>
                <path d="M110.332172,36.3460835 C107.95346,31.3914172 115.24465,26.2964788 118.231477,31.3908797 C121.280378,36.591694 113.47647,41.9110139 110.332172,36.3460835 Z M110.994299,26.9481257 C106.774583,29.0183475 105.535245,33.9722077 107.477018,38.015912 C109.690199,41.9343925 113.989188,43.1487399 117.956844,41.0688442 C122.018284,38.9395039 123.006907,34.175629 121.33036,30.2087788 C119.553312,25.9995428 114.794274,25.0845499 110.994299,26.9481257 L110.994299,26.9481257 Z" id="Fill-244"></path>
                <path d="M128.661321,93.6735456 C126.282608,88.719148 133.573798,83.6239409 136.560625,88.7183418 C139.609526,93.919156 131.805618,99.2384759 128.661321,93.6735456 Z M129.323448,84.2755878 C125.103732,86.3460783 123.864393,91.2996698 125.806167,95.343374 C128.019348,99.2621233 132.318336,100.476471 136.286261,98.396575 C140.347701,96.2672347 141.336055,91.5030911 139.659777,87.5362409 C137.882461,83.3270049 133.123423,82.412012 129.323448,84.2755878 L129.323448,84.2755878 Z" id="Fill-245"></path>
                <path d="M98.8833406,106.992671 C95.8341705,101.791857 103.638348,96.4722684 106.782645,102.037199 C109.161358,106.991596 101.869899,112.086803 98.8833406,106.992671 Z M99.1579729,97.314438 C95.0962643,99.4437783 94.1089857,104.207653 95.7841885,108.174772 C97.5615051,112.384008 102.320543,113.298732 106.120518,111.435157 C110.340234,109.364935 111.579572,104.411075 109.637799,100.36737 C107.424618,96.4488897 103.125629,95.2345423 99.1579729,97.314438 L99.1579729,97.314438 Z" id="Fill-246"></path>
                <path d="M131.957445,60.6916124 C128.908543,55.4907982 136.712452,50.1712096 139.856749,55.7364086 C142.235462,60.6908063 134.944003,65.7857447 131.957445,60.6916124 Z M132.231808,51.013648 C128.170369,53.1427195 127.182821,57.9065944 128.858561,61.8737134 C130.635609,66.0829494 135.394647,66.9976736 139.194622,65.1340977 C143.414338,63.0638759 144.653677,58.1102845 142.711903,54.0663115 C140.498453,50.1478309 136.199734,48.9334835 132.231808,51.013648 L132.231808,51.013648 Z" id="Fill-247"></path>
            </g>
        </g>
    </g>
</svg>