<?xml version="1.0" encoding="UTF-8"?>
<svg width="210px" height="138px" viewBox="0 0 210 138" version="1.1" xmlns="http://www.w3.org/2000/svg" xmlns:xlink="http://www.w3.org/1999/xlink">
    <title>become</title>
    <g id="Page-1" stroke="none" stroke-width="1" fill="none" fill-rule="evenodd">
        <g id="shopping-on-splitchek-copy" transform="translate(-993.000000, -4412.000000)">
            <g id="definitions" transform="translate(150.000000, 3790.000000)">
                <g id="become" transform="translate(843.000000, 622.000000)">
                    <g id="Group-36" transform="translate(105.000000, 69.000000) rotate(90.000000) translate(-105.000000, -69.000000) translate(36.000000, -36.000000)">
                        <path d="M121.563967,183.596692 C134.485735,160.959914 133.769695,134.304499 132.844351,109.452403 C132.414727,97.9913562 132.447775,86.521497 131.874943,75.0637554 C131.313127,63.7635426 129.980191,52.2639402 125.915287,41.3801322 C121.960543,30.7981626 115.141639,20.392449 104.390023,13.8037794 C94.0019349,7.4442426 81.3555669,4.3057842 68.7973269,4.29249899 C58.8608949,4.281549 47.8559109,5.6442282 40.8937989,12.1756146 C33.8766069,18.756573 31.0675269,28.8020634 28.9083909,37.3284474 C22.1445669,63.988269 27.0907509,91.4159058 26.8263669,118.507555 C26.8153509,119.619069 25.6807029,120.657878 24.4248789,120.814305 C17.7822309,121.639403 11.0294229,121.497297 4.33169486,121.908194 C9.65242286,127.010805 17.2093989,130.520503 24.1825269,133.777934 C24.3257349,133.276706 24.4689429,132.775478 24.6341829,132.277555 C24.9866949,131.151719 27.2670069,131.589055 27.0026229,132.747938 C26.8373829,133.45847 26.6831589,134.173408 26.5399509,134.889448 C26.6941749,134.963255 26.8483989,135.035961 27.0026229,135.109768 C29.5363029,136.31602 28.0601589,139.011635 25.7688309,139.331099 C23.9401749,151.721896 24.9095829,164.882711 29.5693509,176.716099 C32.2242069,183.447976 36.2891109,190.041052 42.3919749,194.981728 C48.7151589,200.104168 57.3627189,203.558786 65.7569109,205.074587 C87.6897669,209.037043 111.550423,201.138571 121.563967,183.596692" id="Fill-276" fill="#FFFFFF"></path>
                        <path d="M121.563967,183.596692 C134.485735,160.959914 133.769695,134.304499 132.844351,109.452403 C132.414727,97.9913562 132.447775,86.521497 131.874943,75.0637554 C131.313127,63.7635426 129.980191,52.2639402 125.915287,41.3801322 C121.960543,30.7981626 115.141639,20.392449 104.390023,13.8037794 C94.0019349,7.4442426 81.3555669,4.3057842 68.7973269,4.29249899 C58.8608949,4.281549 47.8559109,5.6442282 40.8937989,12.1756146 C33.8766069,18.756573 31.0675269,28.8020634 28.9083909,37.3284474 C22.1445669,63.988269 27.0907509,91.4159058 26.8263669,118.507555 C26.8153509,119.619069 25.6807029,120.657878 24.4248789,120.814305 C17.7822309,121.639403 11.0294229,121.497297 4.33169486,121.908194 C9.65242286,127.010805 17.2093989,130.520503 24.1825269,133.777934 C24.3257349,133.276706 24.4689429,132.775478 24.6341829,132.277555 C24.9866949,131.151719 27.2670069,131.589055 27.0026229,132.747938 C26.8373829,133.45847 26.6831589,134.173408 26.5399509,134.889448 C26.6941749,134.963255 26.8483989,135.035961 27.0026229,135.109768 C29.5363029,136.31602 28.0601589,139.011635 25.7688309,139.331099 C23.9401749,151.721896 24.9095829,164.882711 29.5693509,176.716099 C32.2242069,183.447976 36.2891109,190.041052 42.3919749,194.981728 C48.7151589,200.104168 57.3627189,203.558786 65.7569109,205.074587 C87.6897669,209.037043 111.550423,201.138571 121.563967,183.596692" id="Fill-277" fill="#FFFFFF"></path>
                        <path d="M65.7569108,205.074587 C57.3627188,203.558786 48.7151588,200.104168 42.3919748,194.981728 C36.2891108,190.041052 32.2242068,183.447976 29.5693508,176.716099 C24.9095828,164.882711 23.9401748,151.721896 25.7688308,139.331099 C28.0601588,139.011635 29.5363028,136.31602 27.0026228,135.109768 C26.8483988,135.035961 26.6941748,134.963255 26.5399508,134.889448 C26.6831588,134.173408 26.8373828,133.45847 27.0026228,132.747938 C27.2670068,131.589055 24.9866948,131.151719 24.6341828,132.277555 C24.4689428,132.775478 24.3257348,133.276706 24.1825268,133.777934 C17.7822308,133.777934 11.8059579,136.431176 3.58449809,140.228537 C7.89834771,130.520503 17.7822308,121.639403 24.4248788,120.814305 C25.6807028,120.657878 26.8153508,119.619069 26.8263668,118.507555 C27.0907508,91.4159058 22.1445668,63.988269 28.9083908,37.3284474 C31.0675268,28.8020634 33.8766068,18.756573 40.8937988,12.1756146 C47.8559108,5.6442282 58.8608948,4.281549 68.7973268,4.29224265 C81.3555668,4.3057842 94.0019348,7.4442426 104.390023,13.8037794 C115.141639,20.392449 121.960543,30.7981626 125.915287,41.3801322 C129.980191,52.2639402 131.313127,63.7635426 131.874943,75.0637554 C132.447775,86.521497 132.414727,97.9913562 132.844351,109.452403 C133.769695,134.304499 134.485735,160.959914 121.563967,183.596692 C111.550423,201.138571 87.6897668,209.037043 65.7569108,205.074587 Z M132.590983,168.661199 C140.015767,144.244235 136.854175,118.802783 136.611823,93.759009 C136.402519,71.9605482 136.578775,48.5801898 124.240855,28.6037754 C118.215103,18.8513106 109.424335,11.0927418 97.9676948,6.0947826 C86.8084868,1.2257106 74.1070388,-0.401352597 61.8572468,0.0811482026 C51.5683028,0.487638603 42.3258788,2.9904738 35.4408788,9.7036242 C28.3796228,16.6095546 25.5044468,26.6858898 23.2021028,35.4876738 C16.2730388,61.9370898 20.8446788,89.0595834 20.8446788,115.971671 C13.3427828,116.65907 6.92999899,124.343382 2.28648719,133.430001 C0.809728141,136.319786 -0.27862575,144.840006 1.27631971,144.840006 C6.17128718,144.840006 11.9672589,142.233122 22.9707668,138.610653 C19.5227588,154.835018 21.7039268,173.101749 31.1556548,187.603211 C42.2487668,204.614119 66.3297428,211.915523 87.6677348,208.782573 C98.2100468,207.233723 108.135463,202.976039 115.780567,196.655059 C124.780639,189.223665 129.473455,178.925908 132.590983,168.661199 Z" id="Fill-278" fill="#000000"></path>
                    </g>
                    <text id="Become-a-SplitCheker" font-family="Noteworthy-Bold, Noteworthy" font-size="24" font-weight="bold" fill="#0B0212">
                        <tspan x="40.91" y="66">BECOME A </tspan>
                        <tspan x="19.175" y="105">SPLITCHEKER</tspan>
                    </text>
                </g>
            </g>
        </g>
    </g>
</svg>