<?xml version="1.0" encoding="UTF-8"?>
<svg width="492px" height="347px" viewBox="0 0 492 347" version="1.1" xmlns="http://www.w3.org/2000/svg" xmlns:xlink="http://www.w3.org/1999/xlink">
    <title>Gifts-bro</title>
    <g id="Page-1" stroke="none" stroke-width="1" fill="none" fill-rule="evenodd">
        <g id="shopping-on-splitchek-copy" transform="translate(-149.000000, -1240.000000)">
            <g id="introduction" transform="translate(150.000000, 895.000000)">
                <g id="Gifts-bro" transform="translate(0.000000, 345.000000)">
                    <g id="freepik--background-simple--inject-33" transform="translate(10.000000, 0.000000)" fill="#F9FBFF" fill-rule="nonzero">
                        <path d="M447.481293,266.030821 C475.68599,221.115965 477.615627,161.26856 458.119293,113.290617 C441.352445,71.9858276 404.03946,40.4641627 360.947562,21.7105693 C310.946962,-0.0514130974 251.358165,-6.52921682 197.668259,7.20779035 C183.560912,10.8178571 169.813496,14.1309919 156.505998,20.0696298 C101.956254,44.4024173 112.514269,104.367032 93.3478725,125.230405 C77.2409007,142.780643 46.4566884,137.607777 27.0403388,151.055666 C-25.2898227,187.367311 5.00448174,280.893044 61.1739214,314.461976 C126.571626,353.547591 377.634424,377.247444 447.481293,266.030821 Z" id="Path"></path>
                    </g>
                    <g id="freepik--Floor--inject-33" transform="translate(0.000000, 345.000000)" stroke="#263238" stroke-linecap="round" stroke-linejoin="round">
                        <line x1="0" y1="1.24" x2="490" y2="1.24" id="Path"></line>
                    </g>
                    <g id="freepik--Plant--inject-33" transform="translate(12.000000, 87.000000)">
                        <line x1="38.02" y1="163.81" x2="38.02" y2="41.87" id="Path" stroke="#DEE8FB" stroke-linecap="round" stroke-linejoin="round"></line>
                        <path d="M37.11,152.81 C37.11,152.81 30.69,143.64 22.44,139.06 C14.19,134.48 0.44,134.47 0.44,134.47 C0.44,134.47 7.77,161.06 37.11,152.81 Z" id="Path" fill="#DEE8FB" fill-rule="nonzero"></path>
                        <path d="M38,152.81 C38,152.81 44.42,143.64 52.67,139.06 C60.92,134.48 74.67,134.47 74.67,134.47 C74.67,134.47 67.36,161.06 38,152.81 Z" id="Path" fill="#DEE8FB" fill-rule="nonzero"></path>
                        <path d="M37.11,119.8 C37.11,119.8 30.69,110.63 22.44,106.05 C14.19,101.47 0.44,101.47 0.44,101.47 C0.44,101.47 7.77,128.05 37.11,119.8 Z" id="Path" fill="#DEE8FB" fill-rule="nonzero"></path>
                        <path d="M38,119.8 C38,119.8 44.42,110.63 52.67,106.05 C60.92,101.47 74.67,101.47 74.67,101.47 C74.67,101.47 67.36,128.05 38,119.8 Z" id="Path" fill="#DEE8FB" fill-rule="nonzero"></path>
                        <path d="M37.11,86.8 C37.11,86.8 30.69,77.63 22.44,73 C14.19,68.37 0.44,68.4199886 0.44,68.4199886 C0.44,68.4199886 7.77,95.05 37.11,86.8 Z" id="Path" fill="#DEE8FB" fill-rule="nonzero"></path>
                        <path d="M38,86.8 C38,86.8 44.42,77.63 52.67,73.04 C60.92,68.45 74.67,68.4599999 74.67,68.4599999 C74.67,68.4599999 67.36,95.05 38,86.8 Z" id="Path" fill="#DEE8FB" fill-rule="nonzero"></path>
                        <path d="M37.11,53.79 C37.11,53.79 30.69,44.62 22.44,40 C14.19,35.38 0.44,35.4199941 0.44,35.4199941 C0.44,35.4199941 7.77,62 37.11,53.79 Z" id="Path" fill="#DEE8FB" fill-rule="nonzero"></path>
                        <path d="M38,53.79 C38,53.79 44.42,44.62 52.67,40.03 C60.92,35.44 74.67,35.4499999 74.67,35.4499999 C74.67,35.4499999 67.36,62 38,53.79 Z" id="Path" fill="#DEE8FB" fill-rule="nonzero"></path>
                        <path d="M38,41.87 C38,41.87 30.67,32 30.3,22.56 C29.93,13.12 36.13,0.86 36.13,0.86 C36.13,0.86 58.62,19.4 38,41.87 Z" id="Path" fill="#DEE8FB" fill-rule="nonzero"></path>
                        <polygon id="Path" fill="#DEE8FB" fill-rule="nonzero" points="19.66 161.53 55.24 161.53 46.34 258.84 28.55 258.84"></polygon>
                    </g>
                    <g id="freepik--Character--inject-33" transform="translate(76.000000, 85.000000)">
                        <path d="M111.77,8.76 C111.77,8.76 104.57,4.2 102.18,5.4 C99.79,6.6 96.18,10.2 96.18,12.12 C96.18,14.04 98.82,14.28 100.26,13.56 C101.7,12.84 111.77,8.76 111.77,8.76 Z" id="Path" stroke="#263238" fill="#FFFFFF" fill-rule="nonzero" stroke-linecap="round" stroke-linejoin="round"></path>
                        <path d="M116.09,8.28 C116.09,8.28 108.89,3.72 106.49,4.92 C104.09,6.12 100.49,9.72 100.49,11.64 C100.49,13.56 103.12,13.8 104.56,13.08 C106,12.36 116.09,8.28 116.09,8.28 Z" id="Path" stroke="#263238" fill="#FFFFFF" fill-rule="nonzero" stroke-linecap="round" stroke-linejoin="round"></path>
                        <path d="M156.41,29.64 C156.41,29.64 135.53,26.28 133.13,24.84 C130.218628,22.8446729 127.628814,20.4167228 125.45,17.64 C122.81,14.52 119.69,7.8 116.57,7.08 C113.45,6.36 101.22,11.16 101.46,13.32 C101.7,15.48 119.46,30.12 122.81,32.04 C126.16,33.96 133.61,35.16 134.57,36.12 C135.53,37.08 152.81,47.4 152.81,47.4 L156.41,29.64 Z" id="Path" stroke="#263238" fill="#FFFFFF" fill-rule="nonzero" stroke-linecap="round" stroke-linejoin="round"></path>
                        <path d="M184.43,212.66 C184.43,212.66 166.91,235.29 150.05,244.35 C133.19,253.41 107.05,253.68 89.22,248.87 C71.39,244.06 47.22,222.56 45.22,215.77 C43.22,208.98 57.78,200.49 62.41,198.51 C67.04,196.53 112.66,198.79 125.56,196.24 C138.46,193.69 149.03,197.09 160.56,195.4 C172.09,193.71 189.39,196.53 184.43,212.66 Z" id="Path" stroke="#263238" fill="#263238" fill-rule="nonzero" stroke-linecap="round" stroke-linejoin="round"></path>
                        <path d="M62.27,201.94 C62.27,201.94 93.59,216.36 111.49,216.36 C129.39,216.36 153.26,198 154.75,196 C156.24,194 154.75,191 138.84,193 C122.93,195 89.62,197 76.19,194.49 C62.76,191.98 55.31,192 62.27,201.94 Z" id="Path" stroke="#263238" fill="#FB7D00" fill-rule="nonzero" stroke-linecap="round" stroke-linejoin="round"></path>
                        <path d="M83.14,202.49 C83.14,202.49 84.45,205.75 82.14,208.03" id="Path" stroke="#263238" stroke-linecap="round" stroke-linejoin="round"></path>
                        <path d="M90.64,204.77 C89.64,204.77 88.36,211.29 88.36,211.29" id="Path" stroke="#263238" stroke-linecap="round" stroke-linejoin="round"></path>
                        <line x1="95.52" y1="205.75" x2="94.55" y2="209.33" id="Path" stroke="#263238" stroke-linecap="round" stroke-linejoin="round"></line>
                        <line x1="104.97" y1="215.52" x2="104.65" y2="207.38" id="Path" stroke="#263238" stroke-linecap="round" stroke-linejoin="round"></line>
                        <line x1="113.61" y1="207.45" x2="114.09" y2="211.62" id="Path" stroke="#263238" stroke-linecap="round" stroke-linejoin="round"></line>
                        <path d="M76.5,90.35 C76.5,90.35 62.42,90.35 57.3,89.35 C52.18,88.35 42.9,86.15 42.9,86.15 L35.23,68.87 C35.23,68.87 12.51,84.23 5.47,89.35 C-1.57,94.47 0.35,108.23 2.91,114.63 C5.47,121.03 16.67,122 29.47,122 C42.27,122 59.22,126.47 59.22,126.47 C59.22,126.47 59.86,165.47 58.58,176.71 C57.3,187.95 54.1,192.38 63.38,196.22 C72.66,200.06 104.01,208.38 113.61,207.42 C123.21,206.46 149.13,194.3 153.29,191.74 C157.45,189.18 154.29,181.51 152.01,176.39 C149.73,171.27 140.81,119.44 140.81,119.44 C140.81,119.44 186.56,71.12 191.36,61.85 C196.16,52.58 188.16,41.37 184.36,37.21 C180.56,33.05 167.08,30.81 167.08,30.81 L150.13,55.13 L155.93,60.29 C155.93,60.29 137.93,74.29 133.81,77.2 C129.69,80.11 115.89,86.2 109.49,87.12 C103.09,88.04 76.5,90.35 76.5,90.35 Z" id="Path" stroke="#263238" fill="#DEE8FB" fill-rule="nonzero" stroke-linecap="round" stroke-linejoin="round"></path>
                        <path d="M103.43,121.69 C102.066816,126.951582 99.4526604,131.805952 95.81,135.84 C89.81,142.37 90.37,145.64 93.63,145.64 C96.89,145.64 113.23,139.64 113.23,135.84 C113.23,132.04 103.43,121.69 103.43,121.69 Z" id="Path" fill="#FB7D00" fill-rule="nonzero"></path>
                        <path d="M93.63,145.64 C92.5097829,149.138981 90.8570544,152.444438 88.73,155.44 C85.47,159.79 80.02,164.15 92.54,163.06 C105.06,161.97 118.67,150.54 116.54,145.64 C114.41,140.74 113.28,138.56 113.28,138.56 L93.63,145.64 Z" id="Path" fill="#FB7D00" fill-rule="nonzero"></path>
                        <path d="M113.23,132.58 C113.23,132.58 103.43,140.74 95.81,142.37 C88.19,144 84.92,146.73 88.19,149.45 C91.46,152.17 107.78,145.1 114.32,140.74 C120.86,136.38 120.3,129.85 113.23,132.58 Z" id="Path" fill="#FFFFFF" fill-rule="nonzero"></path>
                        <path d="M87.64,163.6 C87.0868301,167.857397 84.9433328,171.747844 81.64,174.49 C76.19,178.84 73.47,184.83 85.99,184.83 C98.51,184.83 116.47,182.65 122.46,172.31 C128.45,161.97 117,153.26 117,153.26 C117,153.26 95.81,162.51 87.64,163.6 Z" id="Path" fill="#FB7D00" fill-rule="nonzero"></path>
                        <path d="M119.21,147.27 C113.991975,151.492416 108.336328,155.143275 102.34,158.16 C92.54,163.06 81.11,160.88 82.75,164.16 C84.39,167.44 84.38,168.51 100.16,163.07 C115.94,157.63 119.21,155.45 121.39,151.64 C123.57,147.83 119.21,147.27 119.21,147.27 Z" id="Path" fill="#FFFFFF" fill-rule="nonzero"></path>
                        <path d="M125.75,163.6 C125.75,163.6 123.57,170.13 109.96,174.49 C96.35,178.85 82.75,180.49 78.96,180.49 C75.17,180.49 72.42,184.3 80.04,186.49 C87.66,188.68 110.53,184.86 123.04,178.33 C135.55,171.8 131.73,161.42 125.75,163.6 Z" id="Path" fill="#FFFFFF" fill-rule="nonzero"></path>
                        <path d="M90.91,171 C90.91,172.955088 89.325088,174.54 87.37,174.54 C85.414912,174.54 83.83,172.955088 83.83,171 C83.83,169.044912 85.414912,167.46 87.37,167.46 C89.325088,167.46 90.91,169.044912 90.91,171 L90.91,171 Z" id="Path" fill="#263238" fill-rule="nonzero"></path>
                        <circle id="Oval" fill="#263238" fill-rule="nonzero" cx="104.25" cy="162.24" r="3.54"></circle>
                        <circle id="Oval" fill="#263238" fill-rule="nonzero" cx="91.45" cy="151.63" r="3.54"></circle>
                        <circle id="Oval" fill="#263238" fill-rule="nonzero" cx="117.58" cy="136.93" r="3.54"></circle>
                        <path d="M106.42,117.88 C106.42,119.835088 104.835088,121.42 102.88,121.42 C100.924912,121.42 99.34,119.835088 99.34,117.88 C99.34,115.924912 100.924912,114.34 102.88,114.34 C103.818866,114.34 104.719279,114.712963 105.383158,115.376842 C106.047037,116.040721 106.42,116.941134 106.42,117.88 Z" id="Path" fill="#263238" fill-rule="nonzero"></path>
                        <path d="M126,153.53 C126,155.485088 124.415088,157.07 122.46,157.07 C120.504912,157.07 118.92,155.485088 118.92,153.53 C118.92,151.574912 120.504912,149.99 122.46,149.99 C124.415088,149.99 126,151.574912 126,153.53 Z" id="Path" fill="#263238" fill-rule="nonzero"></path>
                        <circle id="Oval" fill="#263238" fill-rule="nonzero" cx="126.83" cy="175.58" r="3.54"></circle>
                        <circle id="Oval" fill="#263238" fill-rule="nonzero" cx="108.87" cy="184.29" r="3.54"></circle>
                        <path d="M91.18,187 C91.18,188.955088 89.595088,190.54 87.64,190.54 C85.684912,190.54 84.1,188.955088 84.1,187 C84.1,185.044912 85.684912,183.46 87.64,183.46 C88.5788664,183.46 89.4792792,183.832963 90.143158,184.496842 C90.8070368,185.160721 91.18,186.061134 91.18,187 L91.18,187 Z" id="Path" fill="#263238" fill-rule="nonzero"></path>
                        <line x1="42.61" y1="90.66" x2="26.74" y2="108.18" id="Path" stroke="#263238" stroke-linecap="round" stroke-linejoin="round"></line>
                        <line x1="39.96" y1="93.96" x2="32.69" y2="111.16" id="Path" stroke="#263238" stroke-linecap="round" stroke-linejoin="round"></line>
                        <polygon id="Path" stroke="#263238" fill="#263238" fill-rule="nonzero" stroke-linecap="round" stroke-linejoin="round" points="59.22 126.5 48.89 112.81 52.43 124.51"></polygon>
                        <polygon id="Path" stroke="#263238" fill="#263238" fill-rule="nonzero" stroke-linecap="round" stroke-linejoin="round" points="140.81 119.47 140.46 98.59 143.85 116.08"></polygon>
                        <path d="M156.49,61.56 C156.49,61.56 161.95,68.18 166.58,70.49 C171.21,72.8 180.8,67.49 182.12,63.88" id="Path" stroke="#263238" stroke-linecap="round" stroke-linejoin="round"></path>
                        <path d="M158,66.53 C158,66.53 164.61,77.1 169.57,76.77" id="Path" stroke="#263238" stroke-linecap="round" stroke-linejoin="round"></path>
                        <path d="M116.81,16.92 C116.81,16.92 88,1.32 82.5,0.84 C77,0.36 63.5,11.16 55.86,18.12 C48.22,25.08 45.3,33.96 46.26,39.72 C47.22,45.48 50.58,67.31 50.58,67.31 C50.58,67.31 53.7,68.31 55.38,67.55 C57.06,66.79 58.98,53.64 59.94,51.24 C60.9,48.84 66.66,45 66.66,45 L116.81,16.92 Z" id="Path" stroke="#263238" fill="#FB7D00" fill-rule="nonzero" stroke-linecap="round" stroke-linejoin="round"></path>
                        <path d="M82.26,76.19 C82.26,76.19 76.5,75.95 76.5,77.63 C76.5,79.31 75.3,89.63 75.3,92.27 C75.3,94.91 80.82,104.99 94.3,105.47 C107.78,105.95 114.45,100.19 116.13,96.11 C117.81,92.03 116.85,87.23 116.37,85.11 L115.89,82.95 C115.89,82.95 96.46,80.07 91.66,77.95 C88.7140155,76.615241 85.4893239,76.0114689 82.26,76.19 Z" id="Path" stroke="#263238" fill="#FB7D00" fill-rule="nonzero" stroke-linecap="round" stroke-linejoin="round"></path>
                        <path d="M81.3,68.75 L81.3,84.11 C81.3,84.11 88.98,92.03 100.02,91.11 C111.06,90.19 114.17,85.59 114.17,85.59 L114.41,81.75 L81.3,68.75 Z" id="Path" stroke="#263238" fill="#FFFFFF" fill-rule="nonzero" stroke-linecap="round" stroke-linejoin="round"></path>
                        <path d="M114.41,81.71 L81.3,68.71 L81.3,79.13 C90.13,87.35 101.66,92.35 112.56,84.39 L114.33,83.07 L114.41,81.71 Z" id="Path" stroke="#263238" fill="#263238" fill-rule="nonzero" stroke-linecap="round" stroke-linejoin="round"></path>
                        <path d="M81.51,86.18 C80.8864527,87.7369428 80.5477376,89.3932597 80.51,91.07 L80.51,97.58" id="Path" stroke="#263238" stroke-linecap="round" stroke-linejoin="round"></path>
                        <line x1="83.47" y1="91.39" x2="83.47" y2="99.86" id="Path" stroke="#263238" stroke-linecap="round" stroke-linejoin="round"></line>
                        <line x1="87.05" y1="91.07" x2="87.05" y2="101.17" id="Path" stroke="#263238" stroke-linecap="round" stroke-linejoin="round"></line>
                        <line x1="90.31" y1="96.61" x2="90.31" y2="102.47" id="Path" stroke="#263238" stroke-linecap="round" stroke-linejoin="round"></line>
                        <path d="M79.89,81.62 C79.89,81.62 77.6,83.57 77.6,84.55 L77.6,90.42" id="Path" stroke="#263238" stroke-linecap="round" stroke-linejoin="round"></path>
                        <path d="M124.49,36.36 C125.39,44.69 128.49,53.13 130.24,61.36 C132.39,71.51 125.36,78.12 117.77,83.66 C101.65,95.44 84.13,78.83 76.02,65.42 C74.29,62.56 72.66,57.75 72.66,56.31 C72.66,54.87 73.14,43.31 87.06,36.63 C100.98,29.95 107.21,28.23 113.93,27.99 C120.65,27.75 123.53,27.48 124.49,36.36 Z" id="Path" stroke="#263238" fill="#FFFFFF" fill-rule="nonzero" stroke-linecap="round" stroke-linejoin="round"></path>
                        <path d="M79.54,60.43 C79.54,60.43 73.23,57.12 70.54,60.13 C67.85,63.14 69.33,70.05 74.44,72.75 C77.8046382,74.5588019 81.9570281,73.9493513 84.66,71.25" id="Path" stroke="#263238" fill="#FFFFFF" fill-rule="nonzero" stroke-linecap="round" stroke-linejoin="round"></path>
                        <path d="M86.82,43.8 C86.82,43.8 85.14,51 87.06,55.08 C88.2364655,57.5410528 90.1712141,59.5599209 92.58,60.84 C92.58,60.84 88.02,62.27 87.06,61.56 C86.3866529,61.0392965 85.7454779,60.4782683 85.14,59.88 C85.4286391,61.4135427 86.285836,62.781486 87.54,63.71 C88.7622667,64.6711583 90.0448973,65.5529669 91.38,66.35 C91.38,66.35 88.26,67.55 85.86,66.11 C84.6128396,65.3831052 83.4106569,64.5816501 82.26,63.71 L84.9,67.79 C83.084157,67.2148718 81.3182929,66.4924728 79.62,65.63 C78.8359376,64.9770467 78.1129533,64.2540624 77.46,63.47 L77.46,67.07 C77.46,67.79 75.78,59.4 75.06,57.96 C74.34,56.52 86.82,43.8 86.82,43.8 Z" id="Path" stroke="#263238" fill="#263238" fill-rule="nonzero" stroke-linecap="round" stroke-linejoin="round"></path>
                        <path d="M114.41,44.76 C114.41,44.76 115.13,49.56 116.09,50.04 C117.05,50.52 123.29,49.8 123.29,52.92 C123.29,56.04 118.73,57.24 118.73,57.24" id="Path" stroke="#263238" stroke-linecap="round" stroke-linejoin="round"></path>
                        <path d="M120.89,62 C120.89,62 114.89,66.56 107.69,65.12 C100.49,63.68 99.54,60.57 99.54,60.57" id="Path" stroke="#263238" stroke-linecap="round" stroke-linejoin="round"></path>
                        <line x1="101.22" y1="59.16" x2="97.86" y2="62.03" id="Path" stroke="#263238" stroke-linecap="round" stroke-linejoin="round"></line>
                        <path d="M101.27,62.72 C103.048509,66.2044016 105.031987,69.5803215 107.21,72.83 C110.09,76.91 112.73,76.19 113.69,73.55 C114.65,70.91 113.77,65.23 113.77,65.23 C113.77,65.23 108,66.8 101.27,62.72 Z" id="Path" stroke="#263238" fill="#263238" fill-rule="nonzero" stroke-linecap="round" stroke-linejoin="round"></path>
                        <path d="M107.89,48.26 C108.33,49.79 108.17,51.18 107.53,51.36 C106.89,51.54 106.02,50.46 105.58,48.93 C105.14,47.4 105.3,46.01 105.94,45.83 C106.58,45.65 107.45,46.74 107.89,48.26 Z" id="Path" stroke="#263238" fill="#263238" fill-rule="nonzero" stroke-linecap="round" stroke-linejoin="round"></path>
                        <path d="M119.65,44.43 C120.09,45.95 119.93,47.34 119.29,47.52 C118.65,47.7 117.78,46.62 117.34,45.09 C116.9,43.56 117.06,42.17 117.7,41.99 C118.34,41.81 119.2,42.9 119.65,44.43 Z" id="Path" stroke="#263238" fill="#263238" fill-rule="nonzero" stroke-linecap="round" stroke-linejoin="round"></path>
                        <path d="M97.86,45 C97.86,45 99.3,39.24 107.21,38.76" id="Path" stroke="#263238" stroke-linecap="round" stroke-linejoin="round"></path>
                        <path d="M114.17,38.28 C114.17,38.28 117.29,34.44 122.33,37.8" id="Path" stroke="#263238" stroke-linecap="round" stroke-linejoin="round"></path>
                        <path d="M71,62 L88.76,44.73 C97.64,36.09 107.47,34.17 115.15,32.49 C122.83,30.81 122.83,32.01 122.83,32.01 L124.51,36.33 C125.717186,35.8563338 126.849039,35.2095604 127.87,34.41 C129.31,33.21 127.39,28.41 126.19,25.77 C124.99,23.13 120.67,16.41 118.99,14.97 C117.31,13.53 109.87,14.73 98.84,18.33 C87.81,21.93 76,34.2 71.46,38.28 C66.92,42.36 62.82,46.68 62.58,49.8 C62.34,52.92 64.98,57 66.18,59.88 C67.38,62.76 67.62,63 71,62 Z" id="Path" stroke="#263238" fill="#FFFFFF" fill-rule="nonzero" stroke-linecap="round" stroke-linejoin="round"></path>
                        <path d="M47.9,63.94 L65.73,47.15 C65.73,47.15 66.73,32.84 67.18,30.56 C67.63,28.28 70.5,26.62 71.12,24.34 C71.74,22.06 72.78,21.44 73.61,21.23 C74.44,21.02 74.61,23.1 74.61,23.1 C74.61,23.1 83.32,16.46 86.02,14.6 C88.72,12.74 89.96,13.15 90.58,13.6 C91.2,14.05 90.79,15.26 90.79,15.26 C90.79,15.26 96.79,10.7 98.66,12.15 C100.53,13.6 99.66,15.26 96.59,17.15 C93.52,19.04 87.26,24.61 86.43,25.85 C85.9191201,26.6277371 85.5028455,27.4636434 85.19,28.34 C85.19,28.34 95.55,24.2 98.25,22.95 C100.95,21.7 103.64,21.09 104.05,22.33 C104.46,23.57 103.85,25.02 101.57,26.27 C99.29,27.52 91.82,31.04 91.2,31.45 C90.7328719,31.7540617 90.2487493,32.0311801 89.75,32.28 C89.75,32.28 97,32.07 98.66,32.28 C100.32,32.49 104.47,31.66 103.85,33.28 C103.23,34.9 103.22,34.94 100.53,35.56 C97.84,36.18 89.75,36.8 89.75,36.8 C89.75,36.8 84.75,45.72 82.49,48.41 C80.23,51.1 75.24,53.8 74.61,54.41 C73.98,55.02 54.09,78.46 54.09,78.46 L47.9,63.94 Z" id="Path" stroke="#263238" fill="#FFFFFF" fill-rule="nonzero" stroke-linecap="round" stroke-linejoin="round"></path>
                        <path d="M90.82,15.22 C90.82,15.22 81.49,20.82 79.82,23.93" id="Path" stroke="#263238" stroke-linecap="round" stroke-linejoin="round"></path>
                        <path d="M74.64,23.1 C74.64,23.1 71.74,27.87 71.12,30.56" id="Path" stroke="#263238" stroke-linecap="round" stroke-linejoin="round"></path>
                        <path d="M159.81,190.86 L158,192 C149.64,197.24 114.51,219.18 106.17,222.67 C96.7,226.67 90.9,228.92 90.9,228.92 L106.78,250.35 C106.78,250.35 108.58,249.67 127.42,247.77 C146.26,245.87 177.69,226.77 189.67,216.57 C201.65,206.37 204.86,196.18 200.13,187.24 C195.4,178.3 177.05,179.24 172.13,182.07 C167.854927,184.756485 163.741189,187.69153 159.81,190.86 L159.81,190.86 Z" id="Path" stroke="#263238" fill="#263238" fill-rule="nonzero" stroke-linecap="round" stroke-linejoin="round"></path>
                        <path d="M60.82,231.75 C60.82,231.75 48.08,229.75 43.55,230.58 C39.02,231.41 41.99,239.03 43.72,246.07 C45.45,253.11 52.67,259.49 59.17,260.69 C65.67,261.89 75.74,258.37 80.5,256.23 C85.26,254.09 60.82,231.75 60.82,231.75 Z" id="Path" stroke="#263238" fill="#FFB76F" fill-rule="nonzero" stroke-linecap="round" stroke-linejoin="round"></path>
                        <path d="M59.17,260.69 C61.9536162,261.079491 64.7843026,260.971139 67.53,260.37 C63.13,258.94 57.65,256.21 53.91,250.98 C48.7,243.72 46.78,234.79 46.11,230.37 C45.2524712,230.372551 44.3964808,230.442769 43.55,230.58 C39.03,231.42 41.99,239.03 43.72,246.07 C45.45,253.11 52.67,259.49 59.17,260.69 Z" id="Path" stroke="#263238" fill="#FFFFFF" fill-rule="nonzero" stroke-linecap="round" stroke-linejoin="round"></path>
                        <path d="M118.36,258.59 C118.36,258.59 153.36,262.52 163.81,261 C174.26,259.48 186.58,261.37 191.81,258.27 C197.04,255.17 193.59,238.27 189.65,234.2 C185.71,230.13 174.32,234.42 167.36,237.1 C160.4,239.78 140.02,242.1 133,242.1 C129.276596,242.162979 125.554257,241.922181 121.87,241.38 L115.19,259.73 L118.36,258.59 Z" id="Path" stroke="#263238" fill="#FFFFFF" fill-rule="nonzero" stroke-linecap="round" stroke-linejoin="round"></path>
                        <path d="M167.36,237.1 C164.001737,238.219405 160.551891,239.04255 157.05,239.56 C154.943212,243.411392 154.505932,247.957651 155.84,252.14 C156.924171,255.963422 159.48133,259.200332 162.95,261.14 L163.81,261.03 C174.28,259.51 186.58,261.4 191.81,258.3 C197.04,255.2 193.59,238.3 189.65,234.23 C185.71,230.16 174.32,234.42 167.36,237.1 Z" id="Path" stroke="#263238" fill="#DEE8FB" fill-rule="nonzero" stroke-linecap="round" stroke-linejoin="round"></path>
                        <path d="M189.65,234.2 C187.54,231.99 183.27,232.2 178.65,233.33 C180.55,233.85 187.06,236.33 189.31,245.93 C190.93,252.85 188.2,257.39 185.84,259.88 C187.905067,259.749043 189.922248,259.201377 191.77,258.27 C197,255.17 193.59,238.3 189.65,234.2 Z" id="Path" stroke="#263238" fill="#FFFFFF" fill-rule="nonzero" stroke-linecap="round" stroke-linejoin="round"></path>
                        <path d="M24.93,229.4 C36.3,234.1 67.38,250.29 81.24,258.3 C83.0533333,259.346667 84.84,260.346667 86.6,261.3 L117.85,261.3 C119.980369,258.857315 121.913127,256.249095 123.63,253.5 C128.48,245.44 125.5,234.18 125.5,234.18 C125.5,234.18 89.75,220.34 71.91,210.18 C54.07,200.02 45.45,191.31 33.01,188.44 C20.57,185.57 11.67,197.89 8.7,207.34 C5.73,216.79 13.55,224.71 24.93,229.4 Z" id="Path" stroke="#263238" fill="#263238" fill-rule="nonzero" stroke-linecap="round" stroke-linejoin="round"></path>
                        <path d="M49.77,57.93 C49.77,57.93 62.41,74.93 62.83,76.38 C63.4446266,77.8217579 62.913375,79.4962629 61.58,80.32 C59.93,81.56 47.07,91.72 44.79,91.72 C42.51,91.72 29.24,73.06 28.62,71.4 C28,69.74 29.24,68.5 30.07,67.67 C30.9,66.84 46.24,57.51 47.28,56.89 C48.32,56.27 49.77,57.93 49.77,57.93 Z" id="Path" stroke="#263238" fill="#FB7D00" fill-rule="nonzero" stroke-linecap="round" stroke-linejoin="round"></path>
                        <line x1="49.77" y1="57.93" x2="33.3" y2="68.91" id="Path" stroke="#263238" stroke-linecap="round" stroke-linejoin="round"></line>
                        <line x1="47.9" y1="63.94" x2="35.58" y2="71.85" id="Path" stroke="#263238" stroke-linecap="round" stroke-linejoin="round"></line>
                        <line x1="36.23" y1="78.04" x2="51.87" y2="67.94" id="Path" stroke="#263238" stroke-linecap="round" stroke-linejoin="round"></line>
                        <line x1="38.18" y1="84.55" x2="45.35" y2="79.99" id="Path" stroke="#263238" stroke-linecap="round" stroke-linejoin="round"></line>
                        <path d="M155,27.06 C154.823751,27.159919 154.688989,27.3195062 154.62,27.51 C152.71,30.89 154.51,34.29 150.36,40.33 C143.82,49.85 145.17,52.68 146.36,54.2 C147.55,55.72 153.36,59.75 156.12,59.75 C158.88,59.75 165.3,55.2 169,46.4 C172.7,37.6 172.65,32.13 170.83,30.62 C169.59,29.62 163.99,27.86 160.53,26.85 C158.731133,26.3331781 156.813947,26.4067812 155.06,27.06 L155,27.06 Z" id="Path" stroke="#263238" fill="#FB7D00" fill-rule="nonzero" stroke-linecap="round" stroke-linejoin="round"></path>
                        <line x1="146.67" y1="50.99" x2="158.73" y2="56.86" id="Path" stroke="#263238" stroke-linecap="round" stroke-linejoin="round"></line>
                        <line x1="152.21" y1="49.04" x2="161.34" y2="53.93" id="Path" stroke="#263238" stroke-linecap="round" stroke-linejoin="round"></line>
                        <line x1="150.91" y1="45.13" x2="164.59" y2="50.99" id="Path" stroke="#263238" stroke-linecap="round" stroke-linejoin="round"></line>
                        <line x1="160.03" y1="45.78" x2="166.87" y2="47.74" id="Path" stroke="#263238" stroke-linecap="round" stroke-linejoin="round"></line>
                    </g>
                    <g id="freepik--Gifts--inject-33" transform="translate(18.000000, 84.000000)">
                        <rect id="Rectangle" stroke="#263238" fill="#FFFFFF" fill-rule="nonzero" stroke-linecap="round" stroke-linejoin="round" x="262.03" y="40.64" width="179.39" height="221.6"></rect>
                        <polygon id="Path" fill="#263238" fill-rule="nonzero" points="423.57 40.86 423.87 40.64 422.32 40.64 422.32 40.86"></polygon>
                        <polygon id="Path" fill="#263238" fill-rule="nonzero" points="436.51 53.04 435.81 50.9 435.12 53.04 432.87 53.04 434.69 54.36 433.99 56.5 435.81 55.18 437.64 56.5 436.94 54.36 438.76 53.04"></polygon>
                        <polygon id="Path" fill="#263238" fill-rule="nonzero" points="422.32 67.77 423.57 67.77 425.22 66.57 425.22 66.57 422.97 66.57 422.32 64.57 422.32 64.57"></polygon>
                        <polygon id="Path" fill="#263238" fill-rule="nonzero" points="422.32 40.86 422.32 41.83 424.1 43.12 423.4 40.98 423.57 40.86"></polygon>
                        <polygon id="Path" fill="#263238" fill-rule="nonzero" points="436.51 79.95 435.81 77.81 435.12 79.95 432.87 79.95 434.69 81.27 433.99 83.42 435.81 82.09 437.64 83.42 436.94 81.27 438.76 79.95"></polygon>
                        <polygon id="Path" fill="#263238" fill-rule="nonzero" points="422.32 94.69 423.57 94.69 425.22 93.49 425.22 93.49 422.97 93.49 422.32 91.48 422.32 91.48"></polygon>
                        <polygon id="Path" fill="#263238" fill-rule="nonzero" points="422.32 67.77 422.32 68.75 424.1 70.04 423.4 67.89 423.57 67.77"></polygon>
                        <polygon id="Path" fill="#263238" fill-rule="nonzero" points="436.51 106.87 435.81 104.73 435.12 106.87 432.87 106.87 434.69 108.19 433.99 110.33 435.81 109.01 437.64 110.33 436.94 108.19 438.76 106.87"></polygon>
                        <polygon id="Path" fill="#263238" fill-rule="nonzero" points="422.32 121.6 423.57 121.6 425.22 120.4 425.22 120.4 422.97 120.4 422.32 118.4 422.32 118.4"></polygon>
                        <polygon id="Path" fill="#263238" fill-rule="nonzero" points="422.32 94.69 422.32 95.66 424.1 96.95 423.4 94.81 423.57 94.69"></polygon>
                        <polygon id="Path" fill="#263238" fill-rule="nonzero" points="436.51 133.78 435.81 131.64 435.12 133.78 432.87 133.78 434.69 135.11 433.99 137.25 435.81 135.92 437.64 137.25 436.94 135.11 438.76 133.78"></polygon>
                        <polygon id="Path" fill="#263238" fill-rule="nonzero" points="422.32 148.52 423.57 148.52 425.22 147.32 425.22 147.32 422.97 147.32 422.32 145.31 422.32 145.31"></polygon>
                        <polygon id="Path" fill="#263238" fill-rule="nonzero" points="422.32 121.6 422.32 122.58 424.1 123.87 423.4 121.73 423.57 121.6"></polygon>
                        <polygon id="Path" fill="#263238" fill-rule="nonzero" points="436.51 160.7 435.81 158.56 435.12 160.7 432.87 160.7 434.69 162.02 433.99 164.16 435.81 162.84 437.64 164.16 436.94 162.02 438.76 160.7"></polygon>
                        <polygon id="Path" fill="#263238" fill-rule="nonzero" points="422.32 175.43 423.57 175.43 425.22 174.23 425.22 174.23 422.97 174.23 422.32 172.23 422.32 172.23"></polygon>
                        <polygon id="Path" fill="#263238" fill-rule="nonzero" points="422.32 148.52 422.32 149.49 424.1 150.78 423.4 148.64 423.57 148.52"></polygon>
                        <polygon id="Path" fill="#263238" fill-rule="nonzero" points="436.51 187.61 435.81 185.47 435.12 187.61 432.87 187.61 434.69 188.94 433.99 191.08 435.81 189.75 437.64 191.08 436.94 188.94 438.76 187.61"></polygon>
                        <polygon id="Path" fill="#263238" fill-rule="nonzero" points="422.32 202.35 423.57 202.35 425.22 201.15 425.22 201.15 422.97 201.15 422.32 199.14 422.32 199.15"></polygon>
                        <polygon id="Path" fill="#263238" fill-rule="nonzero" points="422.32 175.43 422.32 176.41 424.1 177.7 423.4 175.56 423.57 175.43"></polygon>
                        <polygon id="Path" fill="#263238" fill-rule="nonzero" points="436.51 214.53 435.81 212.39 435.12 214.53 432.87 214.53 434.69 215.85 433.99 217.99 435.81 216.67 437.64 217.99 436.94 215.85 438.76 214.53"></polygon>
                        <polygon id="Path" fill="#263238" fill-rule="nonzero" points="422.32 229.26 423.57 229.26 425.22 228.06 425.22 228.06 422.97 228.06 422.32 226.06 422.32 226.06"></polygon>
                        <polygon id="Path" fill="#263238" fill-rule="nonzero" points="422.32 202.35 422.32 203.32 424.1 204.61 423.4 202.47 423.57 202.35"></polygon>
                        <polygon id="Path" fill="#263238" fill-rule="nonzero" points="436.51 241.44 435.81 239.3 435.12 241.44 432.87 241.44 434.69 242.77 433.99 244.91 435.81 243.59 437.64 244.91 436.94 242.77 438.76 241.44"></polygon>
                        <polygon id="Path" fill="#263238" fill-rule="nonzero" points="425.22 254.98 422.97 254.98 422.32 252.98 422.32 252.98 422.32 256.18 423.57 256.18 425.22 254.98"></polygon>
                        <polygon id="Path" fill="#263238" fill-rule="nonzero" points="422.32 229.26 422.32 230.24 424.1 231.53 423.4 229.39 423.57 229.26"></polygon>
                        <polygon id="Path" fill="#263238" fill-rule="nonzero" points="422.32 256.18 422.32 257.15 424.1 258.44 423.4 256.3 423.57 256.18"></polygon>
                        <polygon id="Path" fill="#263238" fill-rule="nonzero" points="422.32 40.86 422.32 40.64 420.69 40.64 420.98 40.86"></polygon>
                        <polygon id="Path" fill="#263238" fill-rule="nonzero" points="396.65 40.86 396.95 40.64 395.41 40.64 395.41 40.86"></polygon>
                        <polygon id="Path" fill="#263238" fill-rule="nonzero" points="409.6 53.04 408.9 50.9 408.2 53.04 405.95 53.04 407.77 54.36 407.08 56.5 408.9 55.18 410.72 56.5 410.03 54.36 411.85 53.04"></polygon>
                        <polygon id="Path" fill="#263238" fill-rule="nonzero" points="419.33 66.57 420.98 67.77 422.32 67.77 422.32 64.57 422.28 64.43 421.58 66.57 419.33 66.57"></polygon>
                        <polygon id="Path" fill="#263238" fill-rule="nonzero" points="422.32 40.86 420.98 40.86 421.15 40.98 420.45 43.12 422.28 41.8 422.32 41.83 422.32 41.83"></polygon>
                        <polygon id="Path" fill="#263238" fill-rule="nonzero" points="395.41 67.77 396.65 67.77 398.31 66.57 398.31 66.57 396.06 66.57 395.41 64.57 395.41 64.57"></polygon>
                        <polygon id="Path" fill="#263238" fill-rule="nonzero" points="395.41 40.86 395.41 41.83 397.18 43.12 396.49 40.98 396.65 40.86"></polygon>
                        <polygon id="Path" fill="#263238" fill-rule="nonzero" points="409.6 79.95 408.9 77.81 408.2 79.95 405.95 79.95 407.77 81.27 407.08 83.42 408.9 82.09 410.72 83.42 410.03 81.27 411.85 79.95"></polygon>
                        <polygon id="Path" fill="#263238" fill-rule="nonzero" points="419.33 93.49 420.98 94.69 422.32 94.69 422.32 91.48 422.28 91.35 421.58 93.49 419.33 93.49"></polygon>
                        <polygon id="Path" fill="#263238" fill-rule="nonzero" points="422.32 67.77 420.98 67.77 421.15 67.89 420.45 70.04 422.28 68.71 422.32 68.75 422.32 68.75"></polygon>
                        <polygon id="Path" fill="#263238" fill-rule="nonzero" points="395.41 94.69 396.65 94.69 398.31 93.49 398.31 93.49 396.06 93.49 395.41 91.48 395.41 91.48"></polygon>
                        <polygon id="Path" fill="#263238" fill-rule="nonzero" points="395.41 67.77 395.41 68.75 397.18 70.04 396.49 67.89 396.65 67.77"></polygon>
                        <polygon id="Path" fill="#263238" fill-rule="nonzero" points="409.6 106.87 408.9 104.73 408.2 106.87 405.95 106.87 407.77 108.19 407.08 110.33 408.9 109.01 410.72 110.33 410.03 108.19 411.85 106.87"></polygon>
                        <polygon id="Path" fill="#263238" fill-rule="nonzero" points="419.33 120.4 420.98 121.6 422.32 121.6 422.32 118.4 422.28 118.26 421.58 120.4 419.33 120.4"></polygon>
                        <polygon id="Path" fill="#263238" fill-rule="nonzero" points="422.32 94.69 420.98 94.69 421.15 94.81 420.45 96.95 422.28 95.63 422.32 95.66 422.32 95.66"></polygon>
                        <polygon id="Path" fill="#263238" fill-rule="nonzero" points="395.41 121.6 396.65 121.6 398.31 120.4 398.31 120.4 396.06 120.4 395.41 118.4 395.41 118.4"></polygon>
                        <polygon id="Path" fill="#263238" fill-rule="nonzero" points="395.41 94.69 395.41 95.66 397.18 96.95 396.49 94.81 396.65 94.69"></polygon>
                        <polygon id="Path" fill="#263238" fill-rule="nonzero" points="409.6 133.78 408.9 131.64 408.2 133.78 405.95 133.78 407.77 135.11 407.08 137.25 408.9 135.92 410.72 137.25 410.03 135.11 411.85 133.78"></polygon>
                        <polygon id="Path" fill="#263238" fill-rule="nonzero" points="419.33 147.32 420.98 148.52 422.32 148.52 422.32 145.31 422.28 145.18 421.58 147.32 419.33 147.32"></polygon>
                        <polygon id="Path" fill="#263238" fill-rule="nonzero" points="422.32 121.6 420.98 121.6 421.15 121.73 420.45 123.87 422.28 122.54 422.32 122.58 422.32 122.58"></polygon>
                        <polygon id="Path" fill="#263238" fill-rule="nonzero" points="395.41 148.52 396.65 148.52 398.31 147.32 398.31 147.32 396.06 147.32 395.41 145.31 395.41 145.31"></polygon>
                        <polygon id="Path" fill="#263238" fill-rule="nonzero" points="395.41 121.6 395.41 122.58 397.18 123.87 396.49 121.73 396.65 121.6"></polygon>
                        <polygon id="Path" fill="#263238" fill-rule="nonzero" points="409.6 160.7 408.9 158.56 408.2 160.7 405.95 160.7 407.77 162.02 407.08 164.16 408.9 162.84 410.72 164.16 410.03 162.02 411.85 160.7"></polygon>
                        <polygon id="Path" fill="#263238" fill-rule="nonzero" points="419.33 174.23 420.98 175.43 422.32 175.43 422.32 172.23 422.28 172.09 421.58 174.23 419.33 174.23"></polygon>
                        <polygon id="Path" fill="#263238" fill-rule="nonzero" points="422.32 148.52 420.98 148.52 421.15 148.64 420.45 150.78 422.28 149.46 422.32 149.49 422.32 149.49"></polygon>
                        <polygon id="Path" fill="#263238" fill-rule="nonzero" points="395.41 175.43 396.65 175.43 398.31 174.23 398.31 174.23 396.06 174.23 395.41 172.23 395.41 172.23"></polygon>
                        <polygon id="Path" fill="#263238" fill-rule="nonzero" points="395.41 148.52 395.41 149.49 397.18 150.78 396.49 148.64 396.65 148.52"></polygon>
                        <polygon id="Path" fill="#263238" fill-rule="nonzero" points="409.6 187.61 408.9 185.47 408.2 187.61 405.95 187.61 407.77 188.94 407.08 191.08 408.9 189.75 410.72 191.08 410.03 188.94 411.85 187.61"></polygon>
                        <polygon id="Path" fill="#263238" fill-rule="nonzero" points="419.33 201.15 420.98 202.35 422.32 202.35 422.32 199.15 422.28 199.01 421.58 201.15 419.33 201.15"></polygon>
                        <polygon id="Path" fill="#263238" fill-rule="nonzero" points="422.32 175.43 420.98 175.43 421.15 175.56 420.45 177.7 422.28 176.38 422.32 176.41 422.32 176.41"></polygon>
                        <polygon id="Path" fill="#263238" fill-rule="nonzero" points="395.41 202.35 396.65 202.35 398.31 201.15 398.31 201.15 396.06 201.15 395.41 199.14 395.41 199.15"></polygon>
                        <polygon id="Path" fill="#263238" fill-rule="nonzero" points="395.41 175.43 395.41 176.41 397.18 177.7 396.49 175.56 396.65 175.43"></polygon>
                        <polygon id="Path" fill="#263238" fill-rule="nonzero" points="409.6 214.53 408.9 212.39 408.2 214.53 405.95 214.53 407.77 215.85 407.08 217.99 408.9 216.67 410.72 217.99 410.03 215.85 411.85 214.53"></polygon>
                        <polygon id="Path" fill="#263238" fill-rule="nonzero" points="422.32 229.26 422.32 226.06 422.28 225.92 421.58 228.06 419.33 228.06 419.33 228.06 420.98 229.26"></polygon>
                        <polygon id="Path" fill="#263238" fill-rule="nonzero" points="422.32 202.35 420.98 202.35 421.15 202.47 420.45 204.61 422.28 203.29 422.32 203.32 422.32 203.32"></polygon>
                        <polygon id="Path" fill="#263238" fill-rule="nonzero" points="398.31 228.06 396.06 228.06 395.41 226.06 395.41 226.06 395.41 229.26 396.65 229.26 398.31 228.06"></polygon>
                        <polygon id="Path" fill="#263238" fill-rule="nonzero" points="395.41 202.35 395.41 203.32 397.18 204.61 396.49 202.47 396.65 202.35"></polygon>
                        <polygon id="Path" fill="#263238" fill-rule="nonzero" points="409.6 241.44 408.9 239.3 408.2 241.44 405.95 241.44 407.77 242.77 407.08 244.91 408.9 243.59 410.72 244.91 410.03 242.77 411.85 241.44"></polygon>
                        <polygon id="Path" fill="#263238" fill-rule="nonzero" points="422.32 252.98 422.28 252.84 421.58 254.98 419.33 254.98 419.33 254.98 420.98 256.18 422.32 256.18"></polygon>
                        <polygon id="Path" fill="#263238" fill-rule="nonzero" points="422.32 229.26 420.98 229.26 421.15 229.39 420.45 231.53 422.28 230.21 422.32 230.24 422.32 230.24"></polygon>
                        <polygon id="Path" fill="#263238" fill-rule="nonzero" points="395.41 256.18 396.65 256.18 398.31 254.98 398.31 254.98 396.06 254.98 395.41 252.98 395.41 252.98"></polygon>
                        <polygon id="Path" fill="#263238" fill-rule="nonzero" points="395.41 229.26 395.41 230.24 397.18 231.53 396.49 229.39 396.65 229.26"></polygon>
                        <polygon id="Path" fill="#263238" fill-rule="nonzero" points="422.32 256.18 420.98 256.18 421.15 256.3 420.45 258.44 422.28 257.12 422.32 257.15 422.32 257.15"></polygon>
                        <polygon id="Path" fill="#263238" fill-rule="nonzero" points="395.41 256.18 395.41 257.15 397.18 258.44 396.49 256.3 396.65 256.18"></polygon>
                        <polygon id="Path" fill="#263238" fill-rule="nonzero" points="395.41 40.86 395.41 40.64 393.77 40.64 394.07 40.86"></polygon>
                        <polygon id="Path" fill="#263238" fill-rule="nonzero" points="369.74 40.86 370.04 40.64 368.49 40.64 368.49 40.86"></polygon>
                        <polygon id="Path" fill="#263238" fill-rule="nonzero" points="382.68 53.04 381.98 50.9 381.29 53.04 379.04 53.04 380.86 54.36 380.16 56.5 381.98 55.18 383.81 56.5 383.11 54.36 384.93 53.04"></polygon>
                        <polygon id="Path" fill="#263238" fill-rule="nonzero" points="392.41 66.57 394.07 67.77 395.41 67.77 395.41 64.57 395.36 64.43 394.67 66.57 392.41 66.57"></polygon>
                        <polygon id="Path" fill="#263238" fill-rule="nonzero" points="395.41 40.86 394.07 40.86 394.23 40.98 393.54 43.12 395.36 41.8 395.41 41.83 395.41 41.83"></polygon>
                        <polygon id="Path" fill="#263238" fill-rule="nonzero" points="368.49 67.77 369.74 67.77 371.39 66.57 371.39 66.57 369.14 66.57 368.49 64.57"></polygon>
                        <polygon id="Path" fill="#263238" fill-rule="nonzero" points="368.49 41.83 370.27 43.12 369.57 40.98 369.74 40.86 368.49 40.86"></polygon>
                        <polygon id="Path" fill="#263238" fill-rule="nonzero" points="382.68 79.95 381.98 77.81 381.29 79.95 379.04 79.95 380.86 81.27 380.16 83.42 381.98 82.09 383.81 83.42 383.11 81.27 384.93 79.95"></polygon>
                        <polygon id="Path" fill="#263238" fill-rule="nonzero" points="392.41 93.49 394.07 94.69 395.41 94.69 395.41 91.48 395.36 91.35 394.67 93.49 392.41 93.49"></polygon>
                        <polygon id="Path" fill="#263238" fill-rule="nonzero" points="395.41 67.77 394.07 67.77 394.23 67.89 393.54 70.04 395.36 68.71 395.41 68.75 395.41 68.75"></polygon>
                        <polygon id="Path" fill="#263238" fill-rule="nonzero" points="368.49 94.69 369.74 94.69 371.39 93.49 371.39 93.49 369.14 93.49 368.49 91.48"></polygon>
                        <polygon id="Path" fill="#263238" fill-rule="nonzero" points="368.49 67.77 368.49 68.75 370.27 70.04 369.57 67.89 369.74 67.77"></polygon>
                        <polygon id="Path" fill="#263238" fill-rule="nonzero" points="382.68 106.87 381.98 104.73 381.29 106.87 379.04 106.87 380.86 108.19 380.16 110.33 381.98 109.01 383.81 110.33 383.11 108.19 384.93 106.87"></polygon>
                        <polygon id="Path" fill="#263238" fill-rule="nonzero" points="392.41 120.4 394.07 121.6 395.41 121.6 395.41 118.4 395.36 118.26 394.67 120.4 392.41 120.4"></polygon>
                        <polygon id="Path" fill="#263238" fill-rule="nonzero" points="395.41 94.69 394.07 94.69 394.23 94.81 393.54 96.95 395.36 95.63 395.41 95.66 395.41 95.66"></polygon>
                        <polygon id="Path" fill="#263238" fill-rule="nonzero" points="371.39 120.4 369.14 120.4 368.49 118.4 368.49 121.6 369.74 121.6 371.39 120.4"></polygon>
                        <polygon id="Path" fill="#263238" fill-rule="nonzero" points="368.49 94.69 368.49 95.66 370.27 96.95 369.57 94.81 369.74 94.69"></polygon>
                        <polygon id="Path" fill="#263238" fill-rule="nonzero" points="382.68 133.78 381.98 131.64 381.29 133.78 379.04 133.78 380.86 135.11 380.16 137.25 381.98 135.92 383.81 137.25 383.11 135.11 384.93 133.78"></polygon>
                        <polygon id="Path" fill="#263238" fill-rule="nonzero" points="392.41 147.32 394.07 148.52 395.41 148.52 395.41 145.31 395.36 145.18 394.67 147.32 392.41 147.32"></polygon>
                        <polygon id="Path" fill="#263238" fill-rule="nonzero" points="395.41 121.6 394.07 121.6 394.23 121.73 393.54 123.87 395.36 122.54 395.41 122.58 395.41 122.58"></polygon>
                        <polygon id="Path" fill="#263238" fill-rule="nonzero" points="371.39 147.32 369.14 147.32 368.49 145.31 368.49 148.52 369.74 148.52 371.39 147.32"></polygon>
                        <polygon id="Path" fill="#263238" fill-rule="nonzero" points="368.49 121.6 368.49 122.58 370.27 123.87 369.57 121.73 369.74 121.6"></polygon>
                        <polygon id="Path" fill="#263238" fill-rule="nonzero" points="382.68 160.7 381.98 158.56 381.29 160.7 379.04 160.7 380.86 162.02 380.16 164.16 381.98 162.84 383.81 164.16 383.11 162.02 384.93 160.7"></polygon>
                        <polygon id="Path" fill="#263238" fill-rule="nonzero" points="392.41 174.23 394.07 175.43 395.41 175.43 395.41 172.23 395.36 172.09 394.67 174.23 392.41 174.23"></polygon>
                        <polygon id="Path" fill="#263238" fill-rule="nonzero" points="395.41 148.52 394.07 148.52 394.23 148.64 393.54 150.78 395.36 149.46 395.41 149.49 395.41 149.49"></polygon>
                        <polygon id="Path" fill="#263238" fill-rule="nonzero" points="371.39 174.23 369.14 174.23 368.49 172.23 368.49 175.43 369.74 175.43 371.39 174.23"></polygon>
                        <polygon id="Path" fill="#263238" fill-rule="nonzero" points="368.49 148.52 368.49 149.49 370.27 150.78 369.57 148.64 369.74 148.52"></polygon>
                        <polygon id="Path" fill="#263238" fill-rule="nonzero" points="382.68 187.61 381.98 185.47 381.29 187.61 379.04 187.61 380.86 188.94 380.16 191.08 381.98 189.75 383.81 191.08 383.11 188.94 384.93 187.61"></polygon>
                        <polygon id="Path" fill="#263238" fill-rule="nonzero" points="395.41 202.35 395.41 199.15 395.36 199.01 394.67 201.15 392.41 201.15 392.41 201.15 394.07 202.35"></polygon>
                        <polygon id="Path" fill="#263238" fill-rule="nonzero" points="395.41 175.43 394.07 175.43 394.23 175.56 393.54 177.7 395.36 176.38 395.41 176.41 395.41 176.41"></polygon>
                        <polygon id="Path" fill="#263238" fill-rule="nonzero" points="371.39 201.15 369.14 201.15 368.49 199.14 368.49 202.35 369.74 202.35 371.39 201.15"></polygon>
                        <polygon id="Path" fill="#263238" fill-rule="nonzero" points="368.49 175.43 368.49 176.41 370.27 177.7 369.57 175.56 369.74 175.43"></polygon>
                        <polygon id="Path" fill="#263238" fill-rule="nonzero" points="382.68 214.53 381.98 212.39 381.29 214.53 379.04 214.53 380.86 215.85 380.16 217.99 381.98 216.67 383.81 217.99 383.11 215.85 384.93 214.53"></polygon>
                        <polygon id="Path" fill="#263238" fill-rule="nonzero" points="395.41 226.06 395.36 225.92 394.67 228.06 392.41 228.06 392.41 228.06 394.07 229.26 395.41 229.26"></polygon>
                        <polygon id="Path" fill="#263238" fill-rule="nonzero" points="395.41 202.35 394.07 202.35 394.23 202.47 393.54 204.61 395.36 203.29 395.41 203.32 395.41 203.32"></polygon>
                        <polygon id="Path" fill="#263238" fill-rule="nonzero" points="369.74 229.26 371.39 228.06 371.39 228.06 369.14 228.06 368.49 226.06 368.49 229.26"></polygon>
                        <polygon id="Path" fill="#263238" fill-rule="nonzero" points="368.49 202.35 368.49 203.32 370.27 204.61 369.57 202.47 369.74 202.35"></polygon>
                        <polygon id="Path" fill="#263238" fill-rule="nonzero" points="382.68 241.44 381.98 239.3 381.29 241.44 379.04 241.44 380.86 242.77 380.16 244.91 381.98 243.59 383.81 244.91 383.11 242.77 384.93 241.44"></polygon>
                        <polygon id="Path" fill="#263238" fill-rule="nonzero" points="395.41 256.18 395.41 252.98 395.36 252.84 394.67 254.98 392.41 254.98 392.41 254.98 394.07 256.18"></polygon>
                        <polygon id="Path" fill="#263238" fill-rule="nonzero" points="395.41 229.26 394.07 229.26 394.23 229.39 393.54 231.53 395.36 230.21 395.41 230.24 395.41 230.24"></polygon>
                        <polygon id="Path" fill="#263238" fill-rule="nonzero" points="369.74 256.18 371.39 254.98 371.39 254.98 369.14 254.98 368.49 252.98 368.49 256.18"></polygon>
                        <polygon id="Path" fill="#263238" fill-rule="nonzero" points="368.49 229.26 368.49 230.24 370.27 231.53 369.57 229.39 369.74 229.26"></polygon>
                        <polygon id="Path" fill="#263238" fill-rule="nonzero" points="395.41 256.18 394.07 256.18 394.23 256.3 393.54 258.44 395.36 257.12 395.41 257.15 395.41 257.15"></polygon>
                        <polygon id="Path" fill="#263238" fill-rule="nonzero" points="368.49 256.18 368.49 257.15 370.27 258.44 369.57 256.3 369.74 256.18"></polygon>
                        <polygon id="Path" fill="#263238" fill-rule="nonzero" points="368.49 40.86 368.49 40.64 366.85 40.64 367.15 40.86"></polygon>
                        <polygon id="Path" fill="#263238" fill-rule="nonzero" points="342.82 40.86 343.12 40.64 341.57 40.64 341.57 40.86"></polygon>
                        <polygon id="Path" fill="#263238" fill-rule="nonzero" points="355.76 53.04 355.07 50.9 354.37 53.04 352.12 53.04 353.94 54.36 353.25 56.5 355.07 55.18 356.89 56.5 356.19 54.36 358.02 53.04"></polygon>
                        <polygon id="Path" fill="#263238" fill-rule="nonzero" points="365.5 66.57 367.15 67.77 368.49 67.77 368.49 64.57 368.44 64.43 367.75 66.57 365.5 66.57"></polygon>
                        <polygon id="Path" fill="#263238" fill-rule="nonzero" points="367.15 40.86 367.32 40.98 366.62 43.12 368.44 41.8 368.49 41.83 368.49 40.86"></polygon>
                        <polygon id="Path" fill="#263238" fill-rule="nonzero" points="341.57 67.77 342.82 67.77 344.48 66.57 344.48 66.57 342.23 66.57 341.57 64.57 341.57 64.57"></polygon>
                        <polygon id="Path" fill="#263238" fill-rule="nonzero" points="341.57 40.86 341.57 41.83 343.35 43.12 342.66 40.98 342.82 40.86"></polygon>
                        <polygon id="Path" fill="#263238" fill-rule="nonzero" points="355.76 79.95 355.07 77.81 354.37 79.95 352.12 79.95 353.94 81.27 353.25 83.42 355.07 82.09 356.89 83.42 356.19 81.27 358.02 79.95"></polygon>
                        <polygon id="Path" fill="#263238" fill-rule="nonzero" points="365.5 93.49 367.15 94.69 368.49 94.69 368.49 91.48 368.44 91.35 367.75 93.49 365.5 93.49"></polygon>
                        <polygon id="Path" fill="#263238" fill-rule="nonzero" points="367.15 67.77 367.32 67.89 366.62 70.04 368.44 68.71 368.49 68.75 368.49 67.77"></polygon>
                        <polygon id="Path" fill="#263238" fill-rule="nonzero" points="341.57 94.69 342.82 94.69 344.48 93.49 344.48 93.49 342.23 93.49 341.57 91.48 341.57 91.48"></polygon>
                        <polygon id="Path" fill="#263238" fill-rule="nonzero" points="341.57 67.77 341.57 68.75 343.35 70.04 342.66 67.89 342.82 67.77"></polygon>
                        <polygon id="Path" fill="#263238" fill-rule="nonzero" points="355.76 106.87 355.07 104.73 354.37 106.87 352.12 106.87 353.94 108.19 353.25 110.33 355.07 109.01 356.89 110.33 356.19 108.19 358.02 106.87"></polygon>
                        <polygon id="Path" fill="#263238" fill-rule="nonzero" points="368.49 121.6 368.49 118.4 368.44 118.26 367.75 120.4 365.5 120.4 365.5 120.4 367.15 121.6"></polygon>
                        <polygon id="Path" fill="#263238" fill-rule="nonzero" points="367.15 94.69 367.32 94.81 366.62 96.95 368.44 95.63 368.49 95.66 368.49 94.69"></polygon>
                        <polygon id="Path" fill="#263238" fill-rule="nonzero" points="341.57 121.6 342.82 121.6 344.48 120.4 344.48 120.4 342.23 120.4 341.57 118.4 341.57 118.4"></polygon>
                        <polygon id="Path" fill="#263238" fill-rule="nonzero" points="341.57 95.66 343.35 96.95 342.66 94.81 342.82 94.69 341.57 94.69"></polygon>
                        <polygon id="Path" fill="#263238" fill-rule="nonzero" points="355.76 133.78 355.07 131.64 354.37 133.78 352.12 133.78 353.94 135.11 353.25 137.25 355.07 135.92 356.89 137.25 356.19 135.11 358.02 133.78"></polygon>
                        <polygon id="Path" fill="#263238" fill-rule="nonzero" points="368.49 148.52 368.49 145.31 368.44 145.18 367.75 147.32 365.5 147.32 365.5 147.32 367.15 148.52"></polygon>
                        <polygon id="Path" fill="#263238" fill-rule="nonzero" points="367.32 121.73 366.62 123.87 368.44 122.54 368.49 122.58 368.49 121.6 367.15 121.6"></polygon>
                        <polygon id="Path" fill="#263238" fill-rule="nonzero" points="341.57 148.52 342.82 148.52 344.48 147.32 344.48 147.32 342.23 147.32 341.57 145.31 341.57 145.31"></polygon>
                        <polygon id="Path" fill="#263238" fill-rule="nonzero" points="341.57 122.58 343.35 123.87 342.66 121.73 342.82 121.6 341.57 121.6"></polygon>
                        <polygon id="Path" fill="#263238" fill-rule="nonzero" points="355.76 160.7 355.07 158.56 354.37 160.7 352.12 160.7 353.94 162.02 353.25 164.16 355.07 162.84 356.89 164.16 356.19 162.02 358.02 160.7"></polygon>
                        <polygon id="Path" fill="#263238" fill-rule="nonzero" points="368.49 175.43 368.49 172.23 368.44 172.09 367.75 174.23 365.5 174.23 365.5 174.23 367.15 175.43"></polygon>
                        <polygon id="Path" fill="#263238" fill-rule="nonzero" points="367.32 148.64 366.62 150.78 368.44 149.46 368.49 149.49 368.49 148.52 367.15 148.52"></polygon>
                        <polygon id="Path" fill="#263238" fill-rule="nonzero" points="341.57 175.43 342.82 175.43 344.48 174.23 344.48 174.23 342.23 174.23 341.57 172.23 341.57 172.23"></polygon>
                        <polygon id="Path" fill="#263238" fill-rule="nonzero" points="341.57 149.49 343.35 150.78 342.66 148.64 342.82 148.52 341.57 148.52"></polygon>
                        <polygon id="Path" fill="#263238" fill-rule="nonzero" points="355.76 187.61 355.07 185.47 354.37 187.61 352.12 187.61 353.94 188.94 353.25 191.08 355.07 189.75 356.89 191.08 356.19 188.94 358.02 187.61"></polygon>
                        <polygon id="Path" fill="#263238" fill-rule="nonzero" points="368.49 202.35 368.49 199.15 368.44 199.01 367.75 201.15 365.5 201.15 365.5 201.15 367.15 202.35"></polygon>
                        <polygon id="Path" fill="#263238" fill-rule="nonzero" points="367.32 175.56 366.62 177.7 368.44 176.38 368.49 176.41 368.49 175.43 367.15 175.43"></polygon>
                        <polygon id="Path" fill="#263238" fill-rule="nonzero" points="341.57 202.35 342.82 202.35 344.48 201.15 344.48 201.15 342.23 201.15 341.57 199.14 341.57 199.15"></polygon>
                        <polygon id="Path" fill="#263238" fill-rule="nonzero" points="341.57 176.41 343.35 177.7 342.66 175.56 342.82 175.43 341.57 175.43"></polygon>
                        <polygon id="Path" fill="#263238" fill-rule="nonzero" points="355.76 214.53 355.07 212.39 354.37 214.53 352.12 214.53 353.94 215.85 353.25 217.99 355.07 216.67 356.89 217.99 356.19 215.85 358.02 214.53"></polygon>
                        <polygon id="Path" fill="#263238" fill-rule="nonzero" points="368.49 229.26 368.49 226.06 368.44 225.92 367.75 228.06 365.5 228.06 365.5 228.06 367.15 229.26"></polygon>
                        <polygon id="Path" fill="#263238" fill-rule="nonzero" points="368.49 202.35 367.15 202.35 367.32 202.47 366.62 204.61 368.44 203.29 368.49 203.32"></polygon>
                        <polygon id="Path" fill="#263238" fill-rule="nonzero" points="341.57 229.26 342.82 229.26 344.48 228.06 344.48 228.06 342.23 228.06 341.57 226.06 341.57 226.06"></polygon>
                        <polygon id="Path" fill="#263238" fill-rule="nonzero" points="341.57 202.35 341.57 203.32 343.35 204.61 342.66 202.47 342.82 202.35"></polygon>
                        <polygon id="Path" fill="#263238" fill-rule="nonzero" points="355.76 241.44 355.07 239.3 354.37 241.44 352.12 241.44 353.94 242.77 353.25 244.91 355.07 243.59 356.89 244.91 356.19 242.77 358.02 241.44"></polygon>
                        <polygon id="Path" fill="#263238" fill-rule="nonzero" points="368.49 256.18 368.49 252.98 368.44 252.84 367.75 254.98 365.5 254.98 365.5 254.98 367.15 256.18"></polygon>
                        <polygon id="Path" fill="#263238" fill-rule="nonzero" points="368.49 229.26 367.15 229.26 367.32 229.39 366.62 231.53 368.44 230.21 368.49 230.24"></polygon>
                        <polygon id="Path" fill="#263238" fill-rule="nonzero" points="341.57 256.18 342.82 256.18 344.48 254.98 344.48 254.98 342.23 254.98 341.57 252.98 341.57 252.98"></polygon>
                        <polygon id="Path" fill="#263238" fill-rule="nonzero" points="341.57 229.26 341.57 230.24 343.35 231.53 342.66 229.39 342.82 229.26"></polygon>
                        <polygon id="Path" fill="#263238" fill-rule="nonzero" points="368.49 256.18 367.15 256.18 367.32 256.3 366.62 258.44 368.44 257.12 368.49 257.15"></polygon>
                        <polygon id="Path" fill="#263238" fill-rule="nonzero" points="341.57 256.18 341.57 257.15 343.35 258.44 342.66 256.3 342.82 256.18"></polygon>
                        <polygon id="Path" fill="#263238" fill-rule="nonzero" points="341.57 40.86 341.57 40.64 339.94 40.64 340.24 40.86"></polygon>
                        <polygon id="Path" fill="#263238" fill-rule="nonzero" points="315.91 40.86 316.2 40.64 314.66 40.64 314.66 40.86"></polygon>
                        <polygon id="Path" fill="#263238" fill-rule="nonzero" points="328.85 53.04 328.15 50.9 327.46 53.04 325.21 53.04 327.03 54.36 326.33 56.5 328.15 55.18 329.98 56.5 329.28 54.36 331.1 53.04"></polygon>
                        <polygon id="Path" fill="#263238" fill-rule="nonzero" points="338.58 66.57 340.24 67.77 341.57 67.77 341.57 64.57 341.53 64.43 340.83 66.57 338.58 66.57"></polygon>
                        <polygon id="Path" fill="#263238" fill-rule="nonzero" points="341.57 40.86 340.24 40.86 340.4 40.98 339.71 43.12 341.53 41.8 341.57 41.83 341.57 41.83"></polygon>
                        <polygon id="Path" fill="#263238" fill-rule="nonzero" points="314.66 67.77 315.91 67.77 317.56 66.57 317.56 66.57 315.31 66.57 314.66 64.57 314.66 64.57"></polygon>
                        <polygon id="Path" fill="#263238" fill-rule="nonzero" points="314.66 40.86 314.66 41.83 316.44 43.12 315.74 40.98 315.91 40.86"></polygon>
                        <polygon id="Path" fill="#263238" fill-rule="nonzero" points="328.85 79.95 328.15 77.81 327.46 79.95 325.21 79.95 327.03 81.27 326.33 83.42 328.15 82.09 329.98 83.42 329.28 81.27 331.1 79.95"></polygon>
                        <polygon id="Path" fill="#263238" fill-rule="nonzero" points="338.58 93.49 340.24 94.69 341.57 94.69 341.57 91.48 341.53 91.35 340.83 93.49 338.58 93.49"></polygon>
                        <polygon id="Path" fill="#263238" fill-rule="nonzero" points="341.57 67.77 340.24 67.77 340.4 67.89 339.71 70.04 341.53 68.71 341.57 68.75 341.57 68.75"></polygon>
                        <polygon id="Path" fill="#263238" fill-rule="nonzero" points="314.66 94.69 315.91 94.69 317.56 93.49 317.56 93.49 315.31 93.49 314.66 91.48 314.66 91.48"></polygon>
                        <polygon id="Path" fill="#263238" fill-rule="nonzero" points="314.66 67.77 314.66 68.75 316.44 70.04 315.74 67.89 315.91 67.77"></polygon>
                        <polygon id="Path" fill="#263238" fill-rule="nonzero" points="328.85 106.87 328.15 104.73 327.46 106.87 325.21 106.87 327.03 108.19 326.33 110.33 328.15 109.01 329.98 110.33 329.28 108.19 331.1 106.87"></polygon>
                        <polygon id="Path" fill="#263238" fill-rule="nonzero" points="341.57 121.6 341.57 118.4 341.53 118.26 340.83 120.4 338.58 120.4 338.58 120.4 340.24 121.6"></polygon>
                        <polygon id="Path" fill="#263238" fill-rule="nonzero" points="340.4 94.81 339.71 96.95 341.53 95.63 341.57 95.66 341.57 95.66 341.57 94.69 340.24 94.69"></polygon>
                        <polygon id="Path" fill="#263238" fill-rule="nonzero" points="314.66 121.6 315.91 121.6 317.56 120.4 317.56 120.4 315.31 120.4 314.66 118.4 314.66 118.4"></polygon>
                        <polygon id="Path" fill="#263238" fill-rule="nonzero" points="314.66 95.66 316.44 96.95 315.74 94.81 315.91 94.69 314.66 94.69"></polygon>
                        <polygon id="Path" fill="#263238" fill-rule="nonzero" points="328.85 133.78 328.15 131.64 327.46 133.78 325.21 133.78 327.03 135.11 326.33 137.25 328.15 135.92 329.98 137.25 329.28 135.11 331.1 133.78"></polygon>
                        <polygon id="Path" fill="#263238" fill-rule="nonzero" points="341.57 148.52 341.57 145.31 341.53 145.18 340.83 147.32 338.58 147.32 338.58 147.32 340.24 148.52"></polygon>
                        <polygon id="Path" fill="#263238" fill-rule="nonzero" points="340.4 121.73 339.71 123.87 341.53 122.54 341.57 122.58 341.57 122.58 341.57 121.6 340.24 121.6"></polygon>
                        <polygon id="Path" fill="#263238" fill-rule="nonzero" points="314.66 148.52 315.91 148.52 317.56 147.32 317.56 147.32 315.31 147.32 314.66 145.31 314.66 145.31"></polygon>
                        <polygon id="Path" fill="#263238" fill-rule="nonzero" points="314.66 122.58 316.44 123.87 315.74 121.73 315.91 121.6 314.66 121.6"></polygon>
                        <polygon id="Path" fill="#263238" fill-rule="nonzero" points="328.85 160.7 328.15 158.56 327.46 160.7 325.21 160.7 327.03 162.02 326.33 164.16 328.15 162.84 329.98 164.16 329.28 162.02 331.1 160.7"></polygon>
                        <polygon id="Path" fill="#263238" fill-rule="nonzero" points="341.57 175.43 341.57 172.23 341.53 172.09 340.83 174.23 338.58 174.23 338.58 174.23 340.24 175.43"></polygon>
                        <polygon id="Path" fill="#263238" fill-rule="nonzero" points="340.4 148.64 339.71 150.78 341.53 149.46 341.57 149.49 341.57 149.49 341.57 148.52 340.24 148.52"></polygon>
                        <polygon id="Path" fill="#263238" fill-rule="nonzero" points="314.66 175.43 315.91 175.43 317.56 174.23 317.56 174.23 315.31 174.23 314.66 172.23 314.66 172.23"></polygon>
                        <polygon id="Path" fill="#263238" fill-rule="nonzero" points="314.66 149.49 316.44 150.78 315.74 148.64 315.91 148.52 314.66 148.52"></polygon>
                        <polygon id="Path" fill="#263238" fill-rule="nonzero" points="328.85 187.61 328.15 185.47 327.46 187.61 325.21 187.61 327.03 188.94 326.33 191.08 328.15 189.75 329.98 191.08 329.28 188.94 331.1 187.61"></polygon>
                        <polygon id="Path" fill="#263238" fill-rule="nonzero" points="341.57 202.35 341.57 199.15 341.53 199.01 340.83 201.15 338.58 201.15 338.58 201.15 340.24 202.35"></polygon>
                        <polygon id="Path" fill="#263238" fill-rule="nonzero" points="340.4 175.56 339.71 177.7 341.53 176.38 341.57 176.41 341.57 176.41 341.57 175.43 340.24 175.43"></polygon>
                        <polygon id="Path" fill="#263238" fill-rule="nonzero" points="314.66 202.35 315.91 202.35 317.56 201.15 317.56 201.15 315.31 201.15 314.66 199.14 314.66 199.15"></polygon>
                        <polygon id="Path" fill="#263238" fill-rule="nonzero" points="314.66 176.41 316.44 177.7 315.74 175.56 315.91 175.43 314.66 175.43"></polygon>
                        <polygon id="Path" fill="#263238" fill-rule="nonzero" points="328.85 214.53 328.15 212.39 327.46 214.53 325.21 214.53 327.03 215.85 326.33 217.99 328.15 216.67 329.98 217.99 329.28 215.85 331.1 214.53"></polygon>
                        <polygon id="Path" fill="#263238" fill-rule="nonzero" points="341.57 229.26 341.57 226.06 341.53 225.92 340.83 228.06 338.58 228.06 338.58 228.06 340.24 229.26"></polygon>
                        <polygon id="Path" fill="#263238" fill-rule="nonzero" points="341.57 202.35 340.24 202.35 340.4 202.47 339.71 204.61 341.53 203.29 341.57 203.32 341.57 203.32"></polygon>
                        <polygon id="Path" fill="#263238" fill-rule="nonzero" points="314.66 229.26 315.91 229.26 317.56 228.06 317.56 228.06 315.31 228.06 314.66 226.06 314.66 226.06"></polygon>
                        <polygon id="Path" fill="#263238" fill-rule="nonzero" points="314.66 203.32 316.44 204.61 315.74 202.47 315.91 202.35 314.66 202.35"></polygon>
                        <polygon id="Path" fill="#263238" fill-rule="nonzero" points="328.85 241.44 328.15 239.3 327.46 241.44 325.21 241.44 327.03 242.77 326.33 244.91 328.15 243.59 329.98 244.91 329.28 242.77 331.1 241.44"></polygon>
                        <polygon id="Path" fill="#263238" fill-rule="nonzero" points="341.57 256.18 341.57 252.98 341.53 252.84 340.83 254.98 338.58 254.98 338.58 254.98 340.24 256.18"></polygon>
                        <polygon id="Path" fill="#263238" fill-rule="nonzero" points="341.57 229.26 340.24 229.26 340.4 229.39 339.71 231.53 341.53 230.21 341.57 230.24 341.57 230.24"></polygon>
                        <polygon id="Path" fill="#263238" fill-rule="nonzero" points="314.66 256.18 315.91 256.18 317.56 254.98 317.56 254.98 315.31 254.98 314.66 252.98 314.66 252.98"></polygon>
                        <polygon id="Path" fill="#263238" fill-rule="nonzero" points="314.66 229.26 314.66 230.24 316.44 231.53 315.74 229.39 315.91 229.26"></polygon>
                        <polygon id="Path" fill="#263238" fill-rule="nonzero" points="341.57 256.18 340.24 256.18 340.4 256.3 339.71 258.44 341.53 257.12 341.57 257.15 341.57 257.15"></polygon>
                        <polygon id="Path" fill="#263238" fill-rule="nonzero" points="314.66 256.18 314.66 257.15 316.44 258.44 315.74 256.3 315.91 256.18"></polygon>
                        <polygon id="Path" fill="#263238" fill-rule="nonzero" points="314.66 40.86 314.66 40.64 313.02 40.64 313.32 40.86"></polygon>
                        <polygon id="Path" fill="#263238" fill-rule="nonzero" points="288.99 40.86 289.29 40.64 287.74 40.64 287.74 40.86"></polygon>
                        <polygon id="Path" fill="#263238" fill-rule="nonzero" points="301.93 53.04 301.24 50.9 300.54 53.04 298.29 53.04 300.11 54.36 299.42 56.5 301.24 55.18 303.06 56.5 302.36 54.36 304.19 53.04"></polygon>
                        <polygon id="Path" fill="#263238" fill-rule="nonzero" points="311.67 66.57 313.32 67.77 314.66 67.77 314.66 64.57 314.61 64.43 313.92 66.57 311.67 66.57"></polygon>
                        <polygon id="Path" fill="#263238" fill-rule="nonzero" points="314.66 40.86 313.32 40.86 313.49 40.98 312.79 43.12 314.61 41.8 314.66 41.83 314.66 41.83"></polygon>
                        <polygon id="Path" fill="#263238" fill-rule="nonzero" points="288.99 67.77 290.65 66.57 290.65 66.57 288.39 66.57 287.74 64.57 287.74 67.77"></polygon>
                        <polygon id="Path" fill="#263238" fill-rule="nonzero" points="287.74 41.83 289.52 43.12 288.82 40.98 288.99 40.86 287.74 40.86"></polygon>
                        <polygon id="Path" fill="#263238" fill-rule="nonzero" points="299.42 83.42 301.24 82.09 303.06 83.42 302.36 81.27 304.19 79.95 301.93 79.95 301.24 77.81 300.54 79.95 298.29 79.95 300.11 81.27"></polygon>
                        <polygon id="Path" fill="#263238" fill-rule="nonzero" points="314.66 94.69 314.66 91.48 314.61 91.35 313.92 93.49 311.67 93.49 311.67 93.49 313.32 94.69"></polygon>
                        <polygon id="Path" fill="#263238" fill-rule="nonzero" points="314.66 67.77 313.32 67.77 313.49 67.89 312.79 70.04 314.61 68.71 314.66 68.75 314.66 68.75"></polygon>
                        <polygon id="Path" fill="#263238" fill-rule="nonzero" points="288.99 94.69 290.65 93.49 290.65 93.49 288.39 93.49 287.74 91.48 287.74 94.69"></polygon>
                        <polygon id="Path" fill="#263238" fill-rule="nonzero" points="287.74 68.75 289.52 70.04 288.82 67.89 288.99 67.77 287.74 67.77"></polygon>
                        <polygon id="Path" fill="#263238" fill-rule="nonzero" points="299.42 110.33 301.24 109.01 303.06 110.33 302.36 108.19 304.19 106.87 301.93 106.87 301.24 104.73 300.54 106.87 298.29 106.87 300.11 108.19"></polygon>
                        <polygon id="Path" fill="#263238" fill-rule="nonzero" points="314.66 121.6 314.66 118.4 314.61 118.26 313.92 120.4 311.67 120.4 311.67 120.4 313.32 121.6"></polygon>
                        <polygon id="Path" fill="#263238" fill-rule="nonzero" points="313.49 94.81 312.79 96.95 314.61 95.63 314.66 95.66 314.66 95.66 314.66 94.69 313.32 94.69"></polygon>
                        <polygon id="Path" fill="#263238" fill-rule="nonzero" points="288.99 121.6 290.65 120.4 290.65 120.4 288.39 120.4 287.74 118.4 287.74 121.6"></polygon>
                        <polygon id="Path" fill="#263238" fill-rule="nonzero" points="287.74 95.66 289.52 96.95 288.82 94.81 288.99 94.69 287.74 94.69"></polygon>
                        <polygon id="Path" fill="#263238" fill-rule="nonzero" points="299.42 137.25 301.24 135.92 303.06 137.25 302.36 135.11 304.19 133.78 301.93 133.78 301.24 131.64 300.54 133.78 298.29 133.78 300.11 135.11"></polygon>
                        <polygon id="Path" fill="#263238" fill-rule="nonzero" points="314.66 148.52 314.66 145.31 314.61 145.18 313.92 147.32 311.67 147.32 311.67 147.32 313.32 148.52"></polygon>
                        <polygon id="Path" fill="#263238" fill-rule="nonzero" points="313.49 121.73 312.79 123.87 314.61 122.54 314.66 122.58 314.66 122.58 314.66 121.6 313.32 121.6"></polygon>
                        <polygon id="Path" fill="#263238" fill-rule="nonzero" points="288.99 148.52 290.65 147.32 290.65 147.32 288.39 147.32 287.74 145.31 287.74 148.52"></polygon>
                        <polygon id="Path" fill="#263238" fill-rule="nonzero" points="287.74 122.58 289.52 123.87 288.82 121.73 288.99 121.6 287.74 121.6"></polygon>
                        <polygon id="Path" fill="#263238" fill-rule="nonzero" points="299.42 164.16 301.24 162.84 303.06 164.16 302.36 162.02 304.19 160.7 301.93 160.7 301.24 158.56 300.54 160.7 298.29 160.7 300.11 162.02"></polygon>
                        <polygon id="Path" fill="#263238" fill-rule="nonzero" points="314.66 175.43 314.66 172.23 314.61 172.09 313.92 174.23 311.67 174.23 311.67 174.23 313.32 175.43"></polygon>
                        <polygon id="Path" fill="#263238" fill-rule="nonzero" points="313.49 148.64 312.79 150.78 314.61 149.46 314.66 149.49 314.66 149.49 314.66 148.52 313.32 148.52"></polygon>
                        <polygon id="Path" fill="#263238" fill-rule="nonzero" points="288.99 175.43 290.65 174.23 290.65 174.23 288.39 174.23 287.74 172.23 287.74 175.43"></polygon>
                        <polygon id="Path" fill="#263238" fill-rule="nonzero" points="287.74 149.49 289.52 150.78 288.82 148.64 288.99 148.52 287.74 148.52"></polygon>
                        <polygon id="Path" fill="#263238" fill-rule="nonzero" points="299.42 191.08 301.24 189.75 303.06 191.08 302.36 188.94 304.19 187.61 301.93 187.61 301.24 185.47 300.54 187.61 298.29 187.61 300.11 188.94"></polygon>
                        <polygon id="Path" fill="#263238" fill-rule="nonzero" points="314.66 202.35 314.66 199.15 314.61 199.01 313.92 201.15 311.67 201.15 311.67 201.15 313.32 202.35"></polygon>
                        <polygon id="Path" fill="#263238" fill-rule="nonzero" points="313.49 175.56 312.79 177.7 314.61 176.38 314.66 176.41 314.66 176.41 314.66 175.43 313.32 175.43"></polygon>
                        <polygon id="Path" fill="#263238" fill-rule="nonzero" points="288.99 202.35 290.65 201.15 290.65 201.15 288.39 201.15 287.74 199.14 287.74 202.35"></polygon>
                        <polygon id="Path" fill="#263238" fill-rule="nonzero" points="287.74 176.41 289.52 177.7 288.82 175.56 288.99 175.43 287.74 175.43"></polygon>
                        <polygon id="Path" fill="#263238" fill-rule="nonzero" points="299.42 217.99 301.24 216.67 303.06 217.99 302.36 215.85 304.19 214.53 301.93 214.53 301.24 212.39 300.54 214.53 298.29 214.53 300.11 215.85"></polygon>
                        <polygon id="Path" fill="#263238" fill-rule="nonzero" points="314.66 229.26 314.66 226.06 314.61 225.92 313.92 228.06 311.67 228.06 311.67 228.06 313.32 229.26"></polygon>
                        <polygon id="Path" fill="#263238" fill-rule="nonzero" points="313.49 202.47 312.79 204.61 314.61 203.29 314.66 203.32 314.66 203.32 314.66 202.35 313.32 202.35"></polygon>
                        <polygon id="Path" fill="#263238" fill-rule="nonzero" points="288.99 229.26 290.65 228.06 290.65 228.06 288.39 228.06 287.74 226.06 287.74 229.26"></polygon>
                        <polygon id="Path" fill="#263238" fill-rule="nonzero" points="287.74 203.32 289.52 204.61 288.82 202.47 288.99 202.35 287.74 202.35"></polygon>
                        <polygon id="Path" fill="#263238" fill-rule="nonzero" points="301.93 241.44 301.24 239.3 300.54 241.44 298.29 241.44 300.11 242.77 299.42 244.91 301.24 243.59 303.06 244.91 302.36 242.77 304.19 241.44"></polygon>
                        <polygon id="Path" fill="#263238" fill-rule="nonzero" points="314.66 256.18 314.66 252.98 314.61 252.84 313.92 254.98 311.67 254.98 311.67 254.98 313.32 256.18"></polygon>
                        <polygon id="Path" fill="#263238" fill-rule="nonzero" points="314.66 229.26 313.32 229.26 313.49 229.39 312.79 231.53 314.61 230.21 314.66 230.24 314.66 230.24"></polygon>
                        <polygon id="Path" fill="#263238" fill-rule="nonzero" points="288.99 256.18 290.65 254.98 290.65 254.98 288.39 254.98 287.74 252.98 287.74 256.18"></polygon>
                        <polygon id="Path" fill="#263238" fill-rule="nonzero" points="287.74 229.26 287.74 230.24 289.52 231.53 288.82 229.39 288.99 229.26"></polygon>
                        <polygon id="Path" fill="#263238" fill-rule="nonzero" points="314.66 256.18 313.32 256.18 313.49 256.3 312.79 258.44 314.61 257.12 314.66 257.15 314.66 257.15"></polygon>
                        <polygon id="Path" fill="#263238" fill-rule="nonzero" points="287.74 256.18 287.74 257.15 289.52 258.44 288.82 256.3 288.99 256.18"></polygon>
                        <polygon id="Path" fill="#263238" fill-rule="nonzero" points="287.74 40.86 287.74 40.64 286.11 40.64 286.4 40.86"></polygon>
                        <polygon id="Path" fill="#263238" fill-rule="nonzero" points="262.03 40.64 262.03 40.86 262.08 40.86 262.37 40.64"></polygon>
                        <polygon id="Path" fill="#263238" fill-rule="nonzero" points="272.5 56.5 274.32 55.18 276.14 56.5 275.45 54.36 277.27 53.04 275.02 53.04 274.32 50.9 273.63 53.04 271.38 53.04 273.2 54.36"></polygon>
                        <polygon id="Path" fill="#263238" fill-rule="nonzero" points="287.74 67.77 287.74 64.57 287.7 64.43 287 66.57 284.75 66.57 284.75 66.57 286.4 67.77"></polygon>
                        <polygon id="Path" fill="#263238" fill-rule="nonzero" points="286.4 40.86 286.57 40.98 285.88 43.12 287.7 41.8 287.74 41.83 287.74 40.86"></polygon>
                        <polygon id="Path" fill="#263238" fill-rule="nonzero" points="263.73 66.57 262.03 66.57 262.03 67.77 262.08 67.77"></polygon>
                        <polygon id="Path" fill="#263238" fill-rule="nonzero" points="262.03 40.9 262.08 40.86 262.03 40.86"></polygon>
                        <polygon id="Path" fill="#263238" fill-rule="nonzero" points="262.61 43.12 262.03 41.34 262.03 42.7"></polygon>
                        <polygon id="Path" fill="#263238" fill-rule="nonzero" points="272.5 83.42 274.32 82.09 276.14 83.42 275.45 81.27 277.27 79.95 275.02 79.95 274.32 77.81 273.63 79.95 271.38 79.95 273.2 81.27"></polygon>
                        <polygon id="Path" fill="#263238" fill-rule="nonzero" points="287.74 94.69 287.74 91.48 287.7 91.35 287 93.49 284.75 93.49 284.75 93.49 286.4 94.69"></polygon>
                        <polygon id="Path" fill="#263238" fill-rule="nonzero" points="286.57 67.89 285.88 70.04 287.7 68.71 287.74 68.75 287.74 67.77 286.4 67.77"></polygon>
                        <polygon id="Path" fill="#263238" fill-rule="nonzero" points="263.73 93.49 262.03 93.49 262.03 94.69 262.08 94.69"></polygon>
                        <polygon id="Path" fill="#263238" fill-rule="nonzero" points="262.61 70.04 262.03 68.25 262.03 69.62"></polygon>
                        <polygon id="Path" fill="#263238" fill-rule="nonzero" points="262.03 67.81 262.08 67.77 262.03 67.77"></polygon>
                        <polygon id="Path" fill="#263238" fill-rule="nonzero" points="272.5 110.33 274.32 109.01 276.14 110.33 275.45 108.19 277.27 106.87 275.02 106.87 274.32 104.73 273.63 106.87 271.38 106.87 273.2 108.19"></polygon>
                        <polygon id="Path" fill="#263238" fill-rule="nonzero" points="287.74 121.6 287.74 118.4 287.7 118.26 287 120.4 284.75 120.4 284.75 120.4 286.4 121.6"></polygon>
                        <polygon id="Path" fill="#263238" fill-rule="nonzero" points="286.57 94.81 285.88 96.95 287.7 95.63 287.74 95.66 287.74 94.69 286.4 94.69"></polygon>
                        <polygon id="Path" fill="#263238" fill-rule="nonzero" points="263.73 120.4 262.03 120.4 262.03 121.6 262.08 121.6"></polygon>
                        <polygon id="Path" fill="#263238" fill-rule="nonzero" points="262.03 94.73 262.08 94.69 262.03 94.69"></polygon>
                        <polygon id="Path" fill="#263238" fill-rule="nonzero" points="262.61 96.95 262.03 95.17 262.03 96.53"></polygon>
                        <polygon id="Path" fill="#263238" fill-rule="nonzero" points="272.5 137.25 274.32 135.92 276.14 137.25 275.45 135.11 277.27 133.78 275.02 133.78 274.32 131.64 273.63 133.78 271.38 133.78 273.2 135.11"></polygon>
                        <polygon id="Path" fill="#263238" fill-rule="nonzero" points="287.74 148.52 287.74 145.31 287.7 145.18 287 147.32 284.75 147.32 284.75 147.32 286.4 148.52"></polygon>
                        <polygon id="Path" fill="#263238" fill-rule="nonzero" points="286.57 121.73 285.88 123.87 287.7 122.54 287.74 122.58 287.74 121.6 286.4 121.6"></polygon>
                        <polygon id="Path" fill="#263238" fill-rule="nonzero" points="263.73 147.32 262.03 147.32 262.03 148.52 262.08 148.52"></polygon>
                        <polygon id="Path" fill="#263238" fill-rule="nonzero" points="262.61 123.87 262.03 122.08 262.03 123.45"></polygon>
                        <polygon id="Path" fill="#263238" fill-rule="nonzero" points="262.03 121.64 262.08 121.6 262.03 121.6"></polygon>
                        <polygon id="Path" fill="#263238" fill-rule="nonzero" points="272.5 164.16 274.32 162.84 276.14 164.16 275.45 162.02 277.27 160.7 275.02 160.7 274.32 158.56 273.63 160.7 271.38 160.7 273.2 162.02"></polygon>
                        <polygon id="Path" fill="#263238" fill-rule="nonzero" points="287.74 175.43 287.74 172.23 287.7 172.09 287 174.23 284.75 174.23 284.75 174.23 286.4 175.43"></polygon>
                        <polygon id="Path" fill="#263238" fill-rule="nonzero" points="286.57 148.64 285.88 150.78 287.7 149.46 287.74 149.49 287.74 148.52 286.4 148.52"></polygon>
                        <polygon id="Path" fill="#263238" fill-rule="nonzero" points="263.73 174.23 262.03 174.23 262.03 175.43 262.08 175.43"></polygon>
                        <polygon id="Path" fill="#263238" fill-rule="nonzero" points="262.61 150.78 262.03 149 262.03 150.36"></polygon>
                        <polygon id="Path" fill="#263238" fill-rule="nonzero" points="262.03 148.56 262.08 148.52 262.03 148.52"></polygon>
                        <polygon id="Path" fill="#263238" fill-rule="nonzero" points="272.5 191.08 274.32 189.75 276.14 191.08 275.45 188.94 277.27 187.61 275.02 187.61 274.32 185.47 273.63 187.61 271.38 187.61 273.2 188.94"></polygon>
                        <polygon id="Path" fill="#263238" fill-rule="nonzero" points="287.74 202.35 287.74 199.15 287.7 199.01 287 201.15 284.75 201.15 284.75 201.15 286.4 202.35"></polygon>
                        <polygon id="Path" fill="#263238" fill-rule="nonzero" points="286.57 175.56 285.88 177.7 287.7 176.38 287.74 176.41 287.74 175.43 286.4 175.43"></polygon>
                        <polygon id="Path" fill="#263238" fill-rule="nonzero" points="263.73 201.15 262.03 201.15 262.03 202.35 262.08 202.35"></polygon>
                        <polygon id="Path" fill="#263238" fill-rule="nonzero" points="262.61 177.7 262.03 175.91 262.03 177.28"></polygon>
                        <polygon id="Path" fill="#263238" fill-rule="nonzero" points="262.03 175.47 262.08 175.43 262.03 175.43"></polygon>
                        <polygon id="Path" fill="#263238" fill-rule="nonzero" points="272.5 217.99 274.32 216.67 276.14 217.99 275.45 215.85 277.27 214.53 275.02 214.53 274.32 212.39 273.63 214.53 271.38 214.53 273.2 215.85"></polygon>
                        <polygon id="Path" fill="#263238" fill-rule="nonzero" points="287.74 229.26 287.74 226.06 287.7 225.92 287 228.06 284.75 228.06 284.75 228.06 286.4 229.26"></polygon>
                        <polygon id="Path" fill="#263238" fill-rule="nonzero" points="286.57 202.47 285.88 204.61 287.7 203.29 287.74 203.32 287.74 202.35 286.4 202.35"></polygon>
                        <polygon id="Path" fill="#263238" fill-rule="nonzero" points="263.73 228.06 262.03 228.06 262.03 229.26 262.08 229.26"></polygon>
                        <polygon id="Path" fill="#263238" fill-rule="nonzero" points="262.03 202.39 262.08 202.35 262.03 202.35"></polygon>
                        <polygon id="Path" fill="#263238" fill-rule="nonzero" points="262.61 204.61 262.03 202.83 262.03 204.19"></polygon>
                        <polygon id="Path" fill="#263238" fill-rule="nonzero" points="272.5 244.91 274.32 243.59 276.14 244.91 275.45 242.77 277.27 241.44 275.02 241.44 274.32 239.3 273.63 241.44 271.38 241.44 273.2 242.77"></polygon>
                        <polygon id="Path" fill="#263238" fill-rule="nonzero" points="287.74 256.18 287.74 252.98 287.7 252.84 287 254.98 284.75 254.98 284.75 254.98 286.4 256.18"></polygon>
                        <polygon id="Path" fill="#263238" fill-rule="nonzero" points="286.57 229.39 285.88 231.53 287.7 230.21 287.74 230.24 287.74 229.26 286.4 229.26"></polygon>
                        <polygon id="Path" fill="#263238" fill-rule="nonzero" points="263.73 254.98 262.03 254.98 262.03 256.18 262.08 256.18"></polygon>
                        <polygon id="Path" fill="#263238" fill-rule="nonzero" points="262.61 231.53 262.03 229.75 262.03 231.11"></polygon>
                        <polygon id="Path" fill="#263238" fill-rule="nonzero" points="262.03 229.3 262.08 229.26 262.03 229.26"></polygon>
                        <polygon id="Path" fill="#263238" fill-rule="nonzero" points="287.74 256.18 286.4 256.18 286.57 256.3 285.88 258.44 287.7 257.12 287.74 257.15"></polygon>
                        <polygon id="Path" fill="#263238" fill-rule="nonzero" points="262.03 256.66 262.03 258.02 262.61 258.44"></polygon>
                        <polygon id="Path" fill="#263238" fill-rule="nonzero" points="262.03 256.18 262.03 256.22 262.08 256.18"></polygon>
                        <rect id="Rectangle" stroke="#263238" stroke-linecap="round" stroke-linejoin="round" x="379.61" y="40.64" width="61.81" height="221.6"></rect>
                        <path d="M351,20.54 C351,20.54 332.91,10.75 325.37,3.21 C317.83,-4.33 317.08,8.48 317.08,15.27 C317.08,22.06 313.31,27.33 319.34,28.08 C325.37,28.83 351,25.82 351,25.82 L351,20.54 Z" id="Path" stroke="#263238" fill="#FB7D00" fill-rule="nonzero" stroke-linecap="round" stroke-linejoin="round"></path>
                        <path d="M357.2,20.54 C357.2,20.54 375.29,10.75 382.83,3.21 C390.37,-4.33 391.12,8.48 391.12,15.27 C391.12,22.06 394.89,27.33 388.86,28.08 C382.83,28.83 357.2,25.82 357.2,25.82 L357.2,20.54 Z" id="Path" stroke="#263238" fill="#FB7D00" fill-rule="nonzero" stroke-linecap="round" stroke-linejoin="round"></path>
                        <rect id="Rectangle" stroke="#263238" fill="#FB7D00" fill-rule="nonzero" stroke-linecap="round" stroke-linejoin="round" x="350.47" y="19.23" width="7.13" height="7.13"></rect>
                        <rect id="Rectangle" stroke="#263238" fill="#263238" fill-rule="nonzero" stroke-linecap="round" stroke-linejoin="round" x="256.75" y="25.57" width="189.94" height="18.84"></rect>
                        <rect id="Rectangle" stroke="#263238" fill="#FB7D00" fill-rule="nonzero" stroke-linecap="round" stroke-linejoin="round" x="297.67" y="25.46" width="23" height="236.65"></rect>
                        <rect id="Rectangle" stroke="#263238" fill="#FB7D00" fill-rule="nonzero" stroke-linecap="round" stroke-linejoin="round" transform="translate(347.597768, 105.873294) rotate(-12.190000) translate(-347.597768, -105.873294) " x="328.777768" y="94.8182941" width="37.64" height="22.11"></rect>
                        <rect id="Rectangle" stroke="#263238" fill="#FB7D00" fill-rule="nonzero" stroke-linecap="round" stroke-linejoin="round" transform="translate(414.680000, 143.795000) rotate(180.000000) translate(-414.680000, -143.795000) " x="403.18" y="25.47" width="23" height="236.65"></rect>
                        <path d="M320.67,25.46 C318.492904,27.3778081 316.561554,29.5577133 314.92,31.95 C311.92,36.2 313.17,43.7 313.17,48.45 C313.17,53.2 311.67,68.95 311.67,68.95 L320.92,58.45 C320.92,58.45 329.42,70.7 329.42,69.7 L329.42,39 C329.315159,35.4665608 330.273146,31.982973 332.17,29 C333.67,26.75 337.42,25.5 337.42,25.5 L320.67,25.46 Z" id="Path" stroke="#263238" fill="#FB7D00" fill-rule="nonzero" stroke-linecap="round" stroke-linejoin="round"></path>
                        <path d="M341.34,25.46 C339.162904,27.3778081 337.231554,29.5577133 335.59,31.95 C332.59,36.2 333.84,43.7 333.84,48.45 C333.84,53.2 332.34,68.95 332.34,68.95 L341.59,58.45 C341.59,58.45 350.09,70.7 350.09,69.7 L350.09,39 C349.985159,35.4665608 350.943146,31.982973 352.84,29 C354.34,26.75 358.09,25.5 358.09,25.5 L341.34,25.46 Z" id="Path" stroke="#263238" fill="#FB7D00" fill-rule="nonzero" stroke-linecap="round" stroke-linejoin="round"></path>
                        <rect id="Rectangle" stroke="#263238" fill="#FFFFFF" fill-rule="nonzero" stroke-linecap="round" stroke-linejoin="round" x="0.32" y="220.12" width="82.65" height="42.13"></rect>
                        <rect id="Rectangle" stroke="#263238" fill="#FB7D00" fill-rule="nonzero" stroke-linecap="round" stroke-linejoin="round" x="21.87" y="220.12" width="9.75" height="42.13"></rect>
                        <rect id="Rectangle" stroke="#263238" fill="#FFFFFF" fill-rule="nonzero" stroke-linecap="round" stroke-linejoin="round" x="54.5" y="220.12" width="28.48" height="42.13"></rect>
                        <rect id="Rectangle" stroke="#263238" fill="#FFFFFF" fill-rule="nonzero" stroke-linecap="round" stroke-linejoin="round" x="62.33" y="220.12" width="9.75" height="42.13"></rect>
                        <rect id="Rectangle" fill="#FFFFFF" fill-rule="nonzero" x="59.05" y="220.12" width="82.65" height="42.13"></rect>
                        <polygon id="Path" fill="#FB7D00" fill-rule="nonzero" points="141.69 242.87 141.69 239.13 110.63 262.24 115.66 262.24"></polygon>
                        <polygon id="Path" fill="#FB7D00" fill-rule="nonzero" points="59.05 227.83 59.05 231.57 74.44 220.12 69.42 220.12"></polygon>
                        <polygon id="Path" fill="#FB7D00" fill-rule="nonzero" points="94.01 220.12 88.98 220.12 59.05 242.39 59.05 246.13"></polygon>
                        <polygon id="Path" fill="#FB7D00" fill-rule="nonzero" points="113.57 220.12 108.55 220.12 59.05 256.95 59.05 260.69"></polygon>
                        <polygon id="Path" fill="#FB7D00" fill-rule="nonzero" points="91.07 262.24 96.09 262.24 141.69 228.31 141.69 224.57"></polygon>
                        <polygon id="Path" fill="#FB7D00" fill-rule="nonzero" points="71.5 262.24 76.53 262.24 133.13 220.12 128.11 220.12"></polygon>
                        <polygon id="Path" fill="#FFB76F" fill-rule="nonzero" points="141.69 257.43 141.69 253.69 130.19 262.24 135.22 262.24"></polygon>
                        <rect id="Rectangle" stroke="#263238" fill="#263238" fill-rule="nonzero" stroke-linecap="round" stroke-linejoin="round" x="80.59" y="220.12" width="9.75" height="42.13"></rect>
                        <rect id="Rectangle" stroke="#263238" stroke-linecap="round" stroke-linejoin="round" x="113.22" y="220.12" width="28.48" height="42.13"></rect>
                        <rect id="Rectangle" stroke="#263238" fill="#263238" fill-rule="nonzero" stroke-linecap="round" stroke-linejoin="round" x="121.05" y="220.12" width="9.75" height="42.13"></rect>
                        <rect id="Rectangle" stroke="#263238" stroke-linecap="round" stroke-linejoin="round" x="59.05" y="220.12" width="82.65" height="42.13"></rect>
                        <rect id="Rectangle" stroke="#263238" fill="#FB7D00" fill-rule="nonzero" stroke-linecap="round" stroke-linejoin="round" x="115.06" y="248.81" width="82.65" height="13.43"></rect>
                        <rect id="Rectangle" stroke="#263238" fill="#FFFFFF" fill-rule="nonzero" stroke-linecap="round" stroke-linejoin="round" x="136.6" y="248.81" width="9.75" height="13.43"></rect>
                        <rect id="Rectangle" stroke="#263238" fill="#FB7D00" fill-rule="nonzero" stroke-linecap="round" stroke-linejoin="round" x="169.23" y="248.81" width="28.48" height="13.43"></rect>
                        <rect id="Rectangle" stroke="#263238" fill="#FFFFFF" fill-rule="nonzero" stroke-linecap="round" stroke-linejoin="round" x="177.07" y="248.81" width="9.75" height="13.43"></rect>
                        <path d="M148.51,236.72 C148.51,236.72 142.75,221.72 133.51,224.06 C124.27,226.4 148.51,236.72 148.51,236.72 Z" id="Path" stroke="#FFFFFF" stroke-linecap="round" stroke-linejoin="round"></path>
                        <path d="M148.51,236.72 C148.51,236.72 155.42,217.15 165.2,223.48 C174.98,229.81 148.51,236.72 148.51,236.72 Z" id="Path" stroke="#FFFFFF" stroke-linecap="round" stroke-linejoin="round"></path>
                        <rect id="Rectangle" stroke="#263238" fill="#FB7D00" fill-rule="nonzero" stroke-linecap="round" stroke-linejoin="round" x="111.68" y="235.57" width="82.65" height="13.43"></rect>
                        <rect id="Rectangle" stroke="#263238" fill="#FFFFFF" fill-rule="nonzero" stroke-linecap="round" stroke-linejoin="round" x="133.22" y="235.57" width="9.75" height="13.43"></rect>
                        <rect id="Rectangle" stroke="#263238" fill="#FB7D00" fill-rule="nonzero" stroke-linecap="round" stroke-linejoin="round" x="165.85" y="235.57" width="28.48" height="13.43"></rect>
                        <rect id="Rectangle" stroke="#263238" fill="#FFFFFF" fill-rule="nonzero" stroke-linecap="round" stroke-linejoin="round" x="173.69" y="235.57" width="9.75" height="13.43"></rect>
                        <rect id="Rectangle" stroke="#263238" fill="#FB7D00" fill-rule="nonzero" stroke-linecap="round" stroke-linejoin="round" x="25.87" y="182.19" width="12.3" height="8.13"></rect>
                        <polygon id="Path" stroke="#263238" fill="#FFFFFF" fill-rule="nonzero" stroke-linecap="round" stroke-linejoin="round" points="31.22 191.8 24.44 186.87 20.53 192.17 23.92 194.64"></polygon>
                        <polygon id="Path" stroke="#263238" fill="#FFFFFF" fill-rule="nonzero" stroke-linecap="round" stroke-linejoin="round" points="40.01 186.51 33.23 191.44 40.53 194.28 43.92 191.82"></polygon>
                        <polygon id="Path" stroke="#263238" fill="#FFFFFF" fill-rule="nonzero" stroke-linecap="round" stroke-linejoin="round" points="36.93 189.14 27.34 189.14 29.74 194.91 34.54 194.91"></polygon>
                        <polygon id="Path" stroke="#263238" fill="#FB7D00" fill-rule="nonzero" stroke-linecap="round" stroke-linejoin="round" points="24.44 185.33 20.53 180.02 23.92 177.56 31.22 180.4"></polygon>
                        <polygon id="Path" stroke="#263238" fill="#FB7D00" fill-rule="nonzero" stroke-linecap="round" stroke-linejoin="round" points="40.35 185.88 33.58 180.95 40.87 178.11 44.26 180.58"></polygon>
                        <polygon id="Path" stroke="#263238" fill="#FB7D00" fill-rule="nonzero" stroke-linecap="round" stroke-linejoin="round" points="36.93 182.97 27.34 182.97 29.74 177.2 34.54 177.2"></polygon>
                        <polygon id="Path" stroke="#263238" fill="#FB7D00" fill-rule="nonzero" stroke-linecap="round" stroke-linejoin="round" points="27.55 182.57 27.55 189.54 19.63 187.8 19.63 184.31"></polygon>
                        <polygon id="Path" stroke="#263238" fill="#FB7D00" fill-rule="nonzero" stroke-linecap="round" stroke-linejoin="round" points="36.5 182.57 36.5 189.54 44.42 187.8 44.42 184.31"></polygon>
                        <rect id="Rectangle" stroke="#263238" fill="#263238" fill-rule="nonzero" stroke-linecap="round" stroke-linejoin="round" x="1.54" y="187.56" width="62.99" height="32.11"></rect>
                        <rect id="Rectangle" stroke="#263238" fill="#FB7D00" fill-rule="nonzero" stroke-linecap="round" stroke-linejoin="round" x="17.96" y="187.56" width="7.43" height="32.11"></rect>
                        <rect id="Rectangle" stroke="#263238" fill="#263238" fill-rule="nonzero" stroke-linecap="round" stroke-linejoin="round" x="42.83" y="187.56" width="21.7" height="32.11"></rect>
                        <rect id="Rectangle" stroke="#263238" fill="#FB7D00" fill-rule="nonzero" stroke-linecap="round" stroke-linejoin="round" x="48.8" y="187.56" width="7.43" height="32.11"></rect>
                        <rect id="Rectangle" stroke="#263238" fill="#FFFFFF" fill-rule="nonzero" stroke-linecap="round" stroke-linejoin="round" x="306.36" y="208.77" width="17.56" height="11.6"></rect>
                        <polygon id="Path" stroke="#263238" fill="#FFFFFF" fill-rule="nonzero" stroke-linecap="round" stroke-linejoin="round" points="314 222.48 304.32 215.44 298.75 223.01 303.58 226.54"></polygon>
                        <polygon id="Path" stroke="#263238" fill="#FFFFFF" fill-rule="nonzero" stroke-linecap="round" stroke-linejoin="round" points="326.55 214.93 316.87 221.97 327.28 226.03 332.12 222.51"></polygon>
                        <polygon id="Path" stroke="#263238" fill="#FFFFFF" fill-rule="nonzero" stroke-linecap="round" stroke-linejoin="round" points="322.15 218.69 308.47 218.69 311.89 226.92 318.73 226.92"></polygon>
                        <polygon id="Path" stroke="#263238" fill="#FFFFFF" fill-rule="nonzero" stroke-linecap="round" stroke-linejoin="round" points="314 206.21 304.32 213.25 298.75 205.68 303.58 202.16"></polygon>
                        <polygon id="Path" stroke="#263238" fill="#FFFFFF" fill-rule="nonzero" stroke-linecap="round" stroke-linejoin="round" points="327.04 214.04 317.36 207 327.77 202.95 332.61 206.47"></polygon>
                        <polygon id="Path" stroke="#263238" fill="#FFFFFF" fill-rule="nonzero" stroke-linecap="round" stroke-linejoin="round" points="322.15 209.88 308.47 209.88 311.89 201.66 318.73 201.66"></polygon>
                        <polygon id="Path" stroke="#263238" fill="#FFFFFF" fill-rule="nonzero" stroke-linecap="round" stroke-linejoin="round" points="308.76 209.31 308.76 219.26 297.46 216.77 297.46 211.8"></polygon>
                        <polygon id="Path" stroke="#263238" fill="#FFFFFF" fill-rule="nonzero" stroke-linecap="round" stroke-linejoin="round" points="321.54 209.31 321.54 219.26 332.84 216.77 332.84 211.8"></polygon>
                        <rect id="Rectangle" stroke="#263238" fill="#FB7D00" fill-rule="nonzero" stroke-linecap="round" stroke-linejoin="round" x="271.65" y="216.43" width="89.88" height="45.82"></rect>
                        <rect id="Rectangle" stroke="#263238" fill="#FFFFFF" fill-rule="nonzero" stroke-linecap="round" stroke-linejoin="round" x="295.08" y="216.43" width="10.6" height="45.82"></rect>
                        <rect id="Rectangle" stroke="#263238" fill="#FB7D00" fill-rule="nonzero" stroke-linecap="round" stroke-linejoin="round" x="330.57" y="216.43" width="30.97" height="45.82"></rect>
                        <rect id="Rectangle" stroke="#263238" fill="#FFFFFF" fill-rule="nonzero" stroke-linecap="round" stroke-linejoin="round" x="339.09" y="216.43" width="10.6" height="45.82"></rect>
                        <path d="M417.31,194.45 C417.31,194.45 408.31,172.95 398.81,173.95 C389.31,174.95 386.81,186.95 394.31,190.45 C401.81,193.95 417.31,194.45 417.31,194.45 Z" id="Path" stroke="#263238" stroke-width="3" stroke-linecap="round" stroke-linejoin="round"></path>
                        <path d="M417.31,194.45 C417.31,194.45 422.81,172.95 433.81,174.45 C444.81,175.95 441.17,192.95 435.67,193.95 C430.17,194.95 417.31,194.45 417.31,194.45 Z" id="Path" stroke="#263238" stroke-width="3" stroke-linecap="round" stroke-linejoin="round"></path>
                        <rect id="Rectangle" fill="#FFFFFF" fill-rule="nonzero" x="373.67" y="193.95" width="82.65" height="68.3"></rect>
                        <path d="M433.47,249.66 C441.396825,243.976155 449.020596,237.881144 456.31,231.4 L456.31,227.29 C448.51,234.77 439.56,241.41 431.68,247.29 C423.6,253.29 417.09,258.12 413.93,262.29 L417.88,262.29 C421.32,258.68 427.28,254.26 433.47,249.66 Z" id="Path" fill="#FB7D00" fill-rule="nonzero"></path>
                        <path d="M395.93,212.07 C386.61,219.87 378.93,226.45 373.67,231.9 L373.67,236.34 C379.47,229.76 389.67,221.23 397.86,214.34 C406.76,206.9 415.16,199.86 418.52,195.34 C418.85816,194.904583 419.156051,194.439336 419.41,193.95 L410.41,193.95 C407.08,195.82 402.41,198.64 395.83,202.7 C388.68,207.1 380.53,212.1 373.71,215.82 L373.71,219.22 C380.8,215.46 389.41,210.17 397.4,205.22 C403.98,201.17 411.23,196.71 415.17,194.74 C411.46,199.08 403.9,205.41 395.93,212.07 Z" id="Path" fill="#FB7D00" fill-rule="nonzero"></path>
                        <path d="M456.31,237.61 C452.49,240.96 448.31,245.14 443.88,249.55 C439.62,253.79 434.94,258.46 430.58,262.24 L435.11,262.24 C438.6,259.05 442.27,255.39 445.99,251.68 C449.29,248.39 452.89,244.81 456.31,241.68 L456.31,237.61 Z" id="Path" fill="#FB7D00" fill-rule="nonzero"></path>
                        <path d="M373.67,206.87 C377.74,202.87 382.51,198.45 387.54,193.95 L383.1,193.95 C380.99,195.85 378.79,197.87 376.61,199.95 L373.67,202.74 L373.67,206.87 Z" id="Path" fill="#FB7D00" fill-rule="nonzero"></path>
                        <path d="M456.31,214.38 L456.31,210.67 C451.01,214.51 444.31,219.57 436.02,225.97 C418.77,239.21 396.69,256.14 383.53,262.24 L390.06,262.24 C401.9,255.64 418.27,243.37 437.84,228.35 C443.83,223.75 450.42,218.7 456.31,214.38 Z" id="Path" fill="#FB7D00" fill-rule="nonzero"></path>
                        <path d="M433.48,194 L428.48,194 C422.48,198.63 413.76,206.28 401.07,217.71 C391.97,225.92 380.41,236.34 373.65,241.29 L373.65,244.88 C379.2,241.27 388.35,233.22 403.08,219.94 C413.21,210.78 426.08,199.18 433.48,194 Z" id="Path" fill="#FB7D00" fill-rule="nonzero"></path>
                        <path d="M439.46,197.65 C440.049504,196.466894 440.563856,195.247811 441,194 L437.8,194 C437.54,194.66 437.2,195.45 436.75,196.41 C428.83,213 408.06,228.55 391.38,241 C383.33,247 377.38,251.54 373.67,255.21 L373.67,259.61 C376.93,255.54 385.15,249.4 393.17,243.41 C410.12,230.75 431.22,215 439.46,197.65 Z" id="Path" fill="#FB7D00" fill-rule="nonzero"></path>
                        <rect id="Rectangle" stroke="#263238" stroke-linecap="round" stroke-linejoin="round" x="373.67" y="193.95" width="82.65" height="68.3"></rect>
                        <rect id="Rectangle" stroke="#263238" fill="#263238" fill-rule="nonzero" stroke-linecap="round" stroke-linejoin="round" x="395.21" y="193.95" width="9.75" height="68.3"></rect>
                        <rect id="Rectangle" stroke="#263238" stroke-linecap="round" stroke-linejoin="round" x="427.84" y="193.95" width="28.48" height="68.3"></rect>
                        <rect id="Rectangle" stroke="#263238" fill="#263238" fill-rule="nonzero" stroke-linecap="round" stroke-linejoin="round" x="435.67" y="193.95" width="9.75" height="68.3"></rect>
                        <path d="M413.34,237.45 L413.34,207.45 C413.34,197.45 417.34,194.45 417.34,194.45 C417.34,194.45 420.57,193.68 422.34,199.15 C424.11,204.62 422.34,226.06 422.34,226.06" id="Path" stroke="#263238" stroke-width="3" stroke-linecap="round" stroke-linejoin="round"></path>
                    </g>
                </g>
            </g>
        </g>
    </g>
</svg>