<?xml version="1.0" encoding="UTF-8"?>
<svg width="129px" height="166px" viewBox="0 0 129 166" version="1.1" xmlns="http://www.w3.org/2000/svg" xmlns:xlink="http://www.w3.org/1999/xlink">
    <title>have fun</title>
    <g id="Page-1" stroke="none" stroke-width="1" fill="none" fill-rule="evenodd">
        <g id="shopping-on-splitchek-copy" transform="translate(-181.000000, -4850.000000)">
            <g id="have-fun" transform="translate(181.000000, 4850.000000)">
                <path d="M61.3843152,156.07104 C63.7963152,153.2328 66.0499152,150.25416 67.6051152,146.92416 C67.9435152,146.20776 69.2179152,146.5836 69.1819152,147.29784 C69.4915152,147.1272 69.9019152,147.10128 70.3699152,147.33384 C80.3851152,152.35584 89.8531152,142.92744 95.2891152,136.56696 C105.966715,124.07064 113.685115,109.00464 119.761915,94.0970404 C126.529915,77.4945604 126.702715,58.9977604 120.352315,41.7588004 C113.627515,23.4859204 98.8099152,6.05688037 76.6123152,4.07328037 C51.8371152,1.85928037 29.9491152,16.4925604 18.2203152,35.0246404 C12.1795152,44.5718404 8.06111522,55.1493604 6.05951522,66.1516804 C4.24511522,76.1481604 3.64751522,86.6169604 6.85871522,96.6019204 C10.3507152,107.47248 16.3123152,117.92184 24.0523152,126.88152 C30.5971152,134.46528 39.1651152,142.0332 49.6339152,144.29328 C49.5043152,143.57328 49.3675152,142.854 49.2595152,142.13112 C48.9499152,140.14032 52.3411152,140.02152 52.6291152,142.00512 C53.5579152,148.4556 55.3291152,154.79088 57.1795152,161.0952 C57.4027152,160.81152 57.6187152,160.52208 57.8491152,160.24272 C59.0083152,158.83728 60.2107152,157.46208 61.3843152,156.07104" id="Fill-141" fill="#FFFFFF"></path>
                <path d="M61.3843152,156.07104 C63.7963152,153.2328 66.0499152,150.25416 67.6051152,146.92416 C67.9435152,146.20776 69.2179152,146.5836 69.1819152,147.29784 C69.4915152,147.1272 69.9019152,147.10128 70.3699152,147.33384 C80.3851152,152.35584 89.8531152,142.92744 95.2891152,136.56696 C105.966715,124.07064 113.685115,109.00464 119.761915,94.0970404 C126.529915,77.4945604 126.702715,58.9977604 120.352315,41.7588004 C113.627515,23.4859204 98.8099152,6.05688037 76.6123152,4.07328037 C51.8371152,1.85928037 29.9491152,16.4925604 18.2203152,35.0246404 C12.1795152,44.5718404 8.06111522,55.1493604 6.05951522,66.1516804 C4.24511522,76.1481604 3.64751522,86.6169604 6.85871522,96.6019204 C10.3507152,107.47248 16.3123152,117.92184 24.0523152,126.88152 C30.5971152,134.46528 39.1651152,142.0332 49.6339152,144.29328 C49.5043152,143.57328 49.3675152,142.854 49.2595152,142.13112 C48.9499152,140.14032 52.3411152,140.02152 52.6291152,142.00512 C53.5579152,148.4556 55.3291152,154.79088 57.1795152,161.0952 C57.4027152,160.81152 57.6187152,160.52208 57.8491152,160.24272 C59.0083152,158.83728 60.2107152,157.46208 61.3843152,156.07104" id="Fill-142" fill="#FFFFFF"></path>
                <path d="M42.8186632,67.3383362 C42.7000234,64.3123059 42.5200731,61.2894736 42.3624175,58.2650423 C42.3520664,58.0739667 42.3425115,57.8820916 42.3321603,57.6918154 C43.1498991,57.079414 43.1061059,55.8514134 42.2103356,55.3005719 C41.9420026,49.8976888 41.7389613,44.4788161 41.9571312,39.077532 C42.016053,37.6248776 39.839132,37.6568567 39.7300471,39.077532 C39.3239646,44.3253161 39.3733315,49.576298 39.5445231,54.828879 C38.6025709,54.8352748 37.6399164,54.9320118 36.7751995,54.9400066 C35.1062798,54.9559962 33.4493038,55.0719208 31.7923278,55.2310172 C31.7867541,54.9807801 31.7803842,54.730543 31.7748105,54.4811054 C31.7158888,51.1440775 31.6872241,47.7998544 31.8321398,44.465225 C31.882303,43.3331619 31.9245037,42.1971014 32.0439397,41.0706346 C32.084548,40.6948792 32.0917142,40.3055326 32.1116202,39.9265793 C32.1251563,39.6763422 32.147451,39.3365634 32.0901217,39.4348994 C32.3942855,38.902446 31.8950428,38.2252867 31.2954739,38.3955759 C29.5851498,38.882459 29.4816385,41.4455906 29.3112431,42.8494767 C28.9059568,46.1793092 29.0102643,49.6186705 29.0166342,52.9660915 C29.0301703,59.5306185 29.3884784,66.0871506 29.4219205,72.6484797 C29.4306792,74.4497072 32.2023916,74.4513062 32.2055765,72.6484797 C32.2119464,67.7132921 31.9945728,62.7773051 31.856027,57.8413181 C33.2900558,57.9708338 34.7185108,58.059576 36.1636869,58.1235344 C37.2155203,58.1691047 38.47358,58.3010189 39.6711253,58.2714381 C39.7857839,61.1287782 39.9155711,63.9837198 40.0055463,66.8402604 C40.0453583,68.1034382 39.3637766,72.772399 41.5128291,72.772399 C43.6571042,72.772399 42.8664376,68.541553 42.8186632,67.3383362" id="Fill-88" fill="#000000"></path>
                <path d="M59.0017025,59.4566391 C57.959443,59.4645808 56.9163615,59.5281144 55.872458,59.5964131 C56.0393182,58.4075398 56.2119322,57.2178724 56.4083833,56.0313817 C56.8193689,53.531333 57.3051539,51.0416084 57.8854656,48.5725323 C58.7222323,52.185214 59.5795483,55.7963072 60.3711066,59.4185189 C59.9223103,59.4248723 59.4652943,59.4526682 59.0017025,59.4566391 Z M65.9794162,69.8308883 C64.5664477,60.1499499 61.8654503,50.7080568 59.6814727,41.1740399 C59.3050099,39.5356662 56.8695091,39.6833819 56.4100272,41.1740399 C54.9411646,45.9557405 53.9630189,50.8549784 53.2109152,55.7836005 C52.5196374,60.3222849 51.5447795,65.3057048 52.2377013,69.8833036 C52.3905879,70.9061952 53.9186324,70.7259185 54.1915269,69.8833036 C54.8597895,67.8144894 55.0118542,65.6217847 55.3242032,63.4862602 C55.3833852,63.0812332 55.4392792,62.6777946 55.4968172,62.2735618 C56.4535917,62.329948 57.4087223,62.3847457 58.3646748,62.4411318 C59.2113052,62.4927529 60.1434205,62.5793175 61.0278616,62.4999004 C61.5925558,65.2382003 62.1087537,67.9852361 62.5386447,70.7473611 C62.8814067,72.9488017 66.2950532,71.9981796 65.9794162,69.8308883 L65.9794162,69.8308883 Z" id="Fill-89" fill="#000000"></path>
                <path d="M38.1564396,115.835156 C38.1564396,112.404266 37.6684396,108.856156 37.5284396,105.361156 C37.8784396,105.359156 38.2284396,105.353156 38.5774396,105.353156 C40.4554396,105.353156 42.3244396,105.068156 44.2024396,105.046156 C46.7604396,105.015156 46.7634396,101.046156 44.2024396,101.077156 C42.2824396,101.101156 40.4094396,101.374156 38.5244396,101.724156 C38.1904396,101.786156 37.8004396,101.856156 37.3994396,101.949156 C37.3714396,101.149156 37.3434396,100.351156 37.3154396,99.5521562 C37.2384396,97.3491562 37.9384396,92.3341562 36.7124396,89.6961562 C38.8924396,89.9101562 41.0934396,89.9411562 43.2794396,89.9711562 C45.8374396,90.0051562 49.0714396,90.8411562 51.0094396,88.8681562 C51.4474396,88.4221562 51.4474396,87.7011562 51.0094396,87.2551562 C49.2534396,85.4661562 46.7764396,86.1041562 44.4334396,86.1371562 C41.2294396,86.1811562 37.9874396,86.1611562 34.8154396,86.6601562 C33.7374396,86.8301562 33.5034396,88.2761562 34.0964396,89.0261562 C32.3274396,91.3781562 33.2314396,97.1471562 33.2274396,99.5521562 C33.2124396,105.722156 33.4404396,111.921156 34.0494396,118.061156 C34.1644396,119.220156 35.4749386,120.294158 36.7124396,119.841481 C38.2816769,119.267454 38.1564396,119.266047 38.1564396,115.835156 Z" id="Fill-297" fill="#0B0212"></path>
                <path d="M69.9230261,95.756313 C69.7688588,92.8372984 69.5935146,89.5523482 68.2381974,86.8993146 C67.1971443,84.8629504 64.3103185,86.6468868 65.217534,88.6646154 C65.1099557,88.4274348 65.4089726,89.2448606 65.4581028,89.4202047 C65.5809284,89.8488238 65.6961304,90.2799841 65.795238,90.7162269 C66.0510541,91.8436814 66.2018332,92.9906187 66.3221176,94.1392501 C66.6219815,97.0345466 66.6685706,99.9577965 66.5796279,102.866646 C66.4915322,105.761096 66.2272454,108.658086 65.6368353,111.495782 C65.2488757,113.361884 64.7228432,115.639664 63.3675259,117.044959 C63.0092139,117.415977 62.6619139,117.513391 62.4603104,117.482049 C61.7538513,117.373623 61.0058856,116.870462 60.5806548,116.285134 C58.9966277,114.109003 58.7086228,110.8393 58.4307828,108.256574 C57.7455005,101.889971 58.1080478,95.6055339 58.8119658,89.2702728 C58.838225,89.0254686 58.8509311,88.7798173 58.8788845,88.5350132 C59.011028,87.3279337 57.2067619,86.9569156 56.6620937,87.9352853 C55.5024504,90.0233209 55.4507789,92.7441204 55.2610345,95.0676424 C54.9704884,98.599091 54.9306759,102.156799 55.1009377,105.695024 C55.3304945,110.476753 55.6447587,118.17919 60.8957661,120.318897 C65.3937252,122.15027 67.6350812,116.586692 68.522814,113.26193 C70.0246749,107.645834 70.2262784,101.532506 69.9230261,95.756313" id="Fill-166" fill="#000000"></path>
                <path d="M89.7946498,82.4789587 C88.8218998,81.2677087 86.8816498,82.5757087 87.2791498,83.9422087 C88.8526498,89.3399587 89.1203998,94.3552087 88.7888998,99.9854587 C88.5683998,103.745209 88.1296498,107.484709 87.7133998,111.225709 C84.6818998,104.396209 81.8783998,97.4774587 79.9081498,90.2452087 C79.4716498,88.6402087 76.9636498,88.9537087 77.0003998,90.6382087 C77.0948998,95.1494587 77.1541498,99.6577087 77.1938998,104.169709 C77.2313998,108.397459 77.0731498,112.655209 77.8703998,116.827459 C77.9858998,117.433459 78.9743998,117.433459 79.0906498,116.827459 C79.8871498,112.655209 79.7288998,108.397459 79.7663998,104.169709 C79.7783998,102.866959 79.7956498,101.564209 79.8106498,100.261459 C81.9661498,106.392709 84.6331498,112.341709 87.3106498,118.277959 C88.0516498,119.918209 90.2453998,118.895959 90.3743998,117.447709 C90.9406498,111.116959 91.9013998,104.831959 92.2636498,98.4809587 C92.5403998,93.6262087 93.0481498,86.5304587 89.7946498,82.4789587" id="Fill-198" fill="#0B0212"></path>
                <path d="M79.7194598,64.2445055 C78.009068,61.165978 76.3844361,58.034263 74.6916772,54.9509724 C72.3256618,50.6356358 70.0606349,46.2782255 67.8300723,41.8954121 C67.8004169,41.5048408 67.7683571,41.1142695 67.7419078,40.7229044 C67.6842001,39.8830173 67.1159396,39.3408218 66.2767736,39.2725512 C66.0267069,39.2519112 65.7774417,39.2312713 65.5273751,39.2106313 C64.2425774,39.1066377 63.8009533,40.5450833 64.2089146,41.4873762 C64.3943273,41.9144644 64.6783239,42.5521858 65.0609046,43.4005406 L68.7870582,50.8293338 C73.8343439,59.4679455 77.59042,65.9758795 80.0552865,70.353136 C80.7517863,71.5891513 82.6040429,70.9890051 82.6497282,69.6561408 C83.0047908,59.032125 82.96151,48.3858816 83.061697,37.7563089 C83.0841389,35.4509856 79.4301199,35.4509856 79.4517603,37.7563089 C79.5359173,46.5822678 79.5230934,55.4185466 79.7194598,64.2445055 Z" id="Fill-107" fill="#000000" transform="translate(73.561902, 53.527316) rotate(7.000000) translate(-73.561902, -53.527316) "></path>
                <path d="M101.678188,67.6214004 C98.703882,67.6222061 95.7052099,67.6326806 92.7593313,67.1822767 C92.5181056,62.7169128 92.4783074,58.2434916 92.4393214,53.774099 C94.6485273,54.3775919 97.4677014,54.1350667 99.5778179,53.4735612 C101.500314,52.8716798 100.694604,49.8985306 98.7412436,50.4697942 C96.6936671,51.067647 94.4454752,50.8557396 92.4133307,51.4229746 C92.3946499,49.4747158 92.3694715,47.5248456 92.3215512,45.5749754 C92.2728187,43.5227773 92.2833774,41.3867832 91.9999168,39.3289449 C95.1520962,39.8172182 98.5178864,40.50209 101.678188,40.2861539 C103.535708,40.1580426 103.510529,37.6038738 101.678188,37.4419218 C98.4114871,37.1534699 94.866199,36.8053939 91.6092447,37.2138998 C91.4143148,37.2380717 91.2396901,37.3162277 91.091056,37.4314473 C90.6638346,37.4225842 90.1976272,37.7368195 90.1529557,38.2387902 C89.9401572,40.6567904 90.1643266,43.1505294 90.1846318,45.5749754 C90.2057492,48.0227877 90.181383,50.4681827 90.1594534,52.9143835 C90.1131575,58.0138581 90.1009744,63.1076926 90.403928,68.1999156 C90.4339797,68.702692 90.7466798,69.2530066 91.2892348,69.3537231 C94.7167527,69.9942796 98.200313,70.0240917 101.678188,70.0273164 C103.241688,70.0297318 103.241688,67.6197889 101.678188,67.6214004" id="Fill-123" fill="#000000"></path>
                <path d="M52.6291152,142.00512 C52.3411152,140.02152 48.9499152,140.14032 49.2595152,142.13112 C49.3675152,142.854 49.5043152,143.57328 49.6339152,144.29328 C39.1651152,142.0332 30.5971152,134.46528 24.0523152,126.88152 C16.3123152,117.92184 10.3507152,107.47248 6.85871522,96.6019204 C3.64751522,86.6169604 4.24511522,76.1481604 6.05951522,66.1516804 C8.06111522,55.1493604 12.1795152,44.5718404 18.2203152,35.0246404 C29.9491152,16.4925604 51.8371152,1.85928037 76.6123152,4.07328037 C98.8099152,6.05688037 113.627515,23.4859204 120.352315,41.7588004 C126.702715,58.9977604 126.529915,77.4945604 119.761915,94.0970404 C113.685115,109.00464 105.966715,124.07064 95.2891152,136.56696 C89.8531152,142.92744 80.3851152,152.35584 70.3699152,147.33384 C69.9019152,147.10128 69.4915152,147.1272 69.1819152,147.29784 C69.2179152,146.5836 67.9435152,146.20776 67.6051152,146.92416 C66.0499152,150.25416 63.7963152,153.2328 61.3843152,156.07104 C60.2107152,157.46208 59.0083152,158.83728 57.8491152,160.24272 C57.6187152,160.52208 57.4027152,160.81152 57.1795152,161.0952 C55.3291152,154.79088 53.5579152,148.4556 52.6291152,142.00512 Z M56.5387152,165.328449 C57.5683152,165.28776 58.2307152,164.95872 58.7275152,164.12784 C59.8147152,162.32064 61.1251152,160.59408 62.3923152,158.88336 C64.8115152,155.64264 67.2667152,152.46744 68.6995152,148.75512 C68.8003152,148.98912 68.9659152,149.21088 69.2395152,149.38512 C82.9771152,158.2368 96.6643152,141.16056 103.021915,132.468 C112.151515,119.98824 119.416315,105.83304 124.701115,91.5158404 C131.181115,73.9348804 129.676315,53.7669604 122.080315,36.1802404 C114.412315,18.4365604 98.7667152,2.78160037 77.3971152,0.365280369 C53.2771152,-2.36135963 31.1155152,10.5144004 18.0403152,27.7152004 C11.2363152,36.6590404 6.49151522,46.8247204 3.48911522,57.4483204 C0.671035218,67.3857604 -0.850324782,78.3960004 0.497515218,88.7870404 C2.20031522,101.9004 9.24191522,114.90216 17.5507152,125.718 C25.3699152,135.89088 36.5731152,146.45544 50.3899152,148.66944 C50.4403152,148.67808 50.4907152,148.6752 50.5483152,148.68096 C51.7579152,153.93912 53.3491152,159.13968 54.9475152,164.3208 C55.1347152,164.93784 55.8763152,165.35256 56.5387152,165.328449 L56.5387152,165.328449 Z" id="Fill-143" fill="#000000"></path>
            </g>
        </g>
    </g>
</svg>