<?xml version="1.0" encoding="UTF-8"?>
<svg width="122px" height="148px" viewBox="0 0 122 148" version="1.1" xmlns="http://www.w3.org/2000/svg" xmlns:xlink="http://www.w3.org/1999/xlink">
    <title>join us</title>
    <g id="Page-1" stroke="none" stroke-width="1" fill="none" fill-rule="evenodd">
        <g id="shopping-on-splitchek-copy" transform="translate(-107.000000, -4785.000000)">
            <g id="join-us" transform="translate(107.000000, 4785.000000)">
                <path d="M4.76159039,73.2414113 C6.03779039,83.4807113 8.31209039,93.7137113 11.8913904,103.404011 C14.8136904,111.315911 20.6294904,118.808411 27.3812904,123.843911 C30.8264904,126.412511 34.6757904,128.616611 38.9210904,129.508511 C41.7227904,130.096211 44.5820904,130.041311 47.3684904,129.511211 C47.4242904,127.992911 48.9794904,126.536711 50.6138904,127.603211 C50.9747904,127.837211 51.3221904,128.083811 51.6587904,128.336711 C52.3211904,128.216111 52.7864904,128.737211 52.8737904,129.328511 C56.0561904,132.130211 58.1954904,135.725711 60.5075904,139.249211 C60.4859904,138.113411 60.4301904,136.976711 60.3410904,135.833711 C60.2132904,134.178611 60.0989904,132.433511 61.0178904,130.962911 C62.1878904,129.088211 64.7501904,128.393411 66.6842904,127.676111 C70.7378904,126.173111 74.8697904,124.889711 78.9260904,123.395711 C88.1222904,120.008111 97.1078904,115.360511 103.71389,107.934611 C109.14899,101.824511 112.67159,94.2195113 114.79829,86.3724113 C119.26949,69.8709113 118.81049,51.6747113 114.52649,35.1750113 C113.00099,29.2962113 110.86439,23.6568113 106.91519,18.9462113 C103.36469,14.7099113 98.9420904,11.3664113 93.9659904,8.96701126 C83.2235904,3.78841126 70.7387904,2.85241126 59.0360904,4.32841126 C36.5765904,7.16161126 9.86099039,20.4843113 4.73999039,44.6421113 C3.83729039,48.8973113 3.74189039,53.3874113 3.76169039,57.7254113 C3.78419039,62.9112113 4.12079039,68.0943113 4.76159039,73.2414113" id="Fill-267" fill="#FFFFFF"></path>
                <path d="M4.76159039,73.2414113 C6.03779039,83.4807113 8.31209039,93.7137113 11.8913904,103.404011 C14.8136904,111.315911 20.6294904,118.808411 27.3812904,123.843911 C30.8264904,126.412511 34.6757904,128.616611 38.9210904,129.508511 C41.7227904,130.096211 44.5820904,130.041311 47.3684904,129.511211 C47.4242904,127.992911 48.9794904,126.536711 50.6138904,127.603211 C50.9747904,127.837211 51.3221904,128.083811 51.6587904,128.336711 C52.3211904,128.216111 52.7864904,128.737211 52.8737904,129.328511 C56.0561904,132.130211 58.1954904,135.725711 60.5075904,139.249211 C60.4859904,138.113411 60.4301904,136.976711 60.3410904,135.833711 C60.2132904,134.178611 60.0989904,132.433511 61.0178904,130.962911 C62.1878904,129.088211 64.7501904,128.393411 66.6842904,127.676111 C70.7378904,126.173111 74.8697904,124.889711 78.9260904,123.395711 C88.1222904,120.008111 97.1078904,115.360511 103.71389,107.934611 C109.14899,101.824511 112.67159,94.2195113 114.79829,86.3724113 C119.26949,69.8709113 118.81049,51.6747113 114.52649,35.1750113 C113.00099,29.2962113 110.86439,23.6568113 106.91519,18.9462113 C103.36469,14.7099113 98.9420904,11.3664113 93.9659904,8.96701126 C83.2235904,3.78841126 70.7387904,2.85241126 59.0360904,4.32841126 C36.5765904,7.16161126 9.86099039,20.4843113 4.73999039,44.6421113 C3.83729039,48.8973113 3.74189039,53.3874113 3.76169039,57.7254113 C3.78419039,62.9112113 4.12079039,68.0943113 4.76159039,73.2414113" id="Fill-268" fill="#FFFFFF"></path>
                <path d="M4.73999039,44.6421113 C9.86099039,20.4843113 36.5765904,7.16161126 59.0360904,4.32841126 C70.7387904,2.85241126 83.2235904,3.78841126 93.9659904,8.96701126 C98.9420904,11.3664113 103.36469,14.7099113 106.91519,18.9462113 C110.86439,23.6568113 113.00099,29.2962113 114.52649,35.1750113 C118.81049,51.6747113 119.26949,69.8709113 114.79829,86.3724113 C112.67159,94.2195113 109.14899,101.824511 103.71389,107.934611 C97.1078904,115.360511 88.1222904,120.008111 78.9260904,123.395711 C74.8697904,124.889711 70.7378904,126.173111 66.6842904,127.676111 C64.7501904,128.393411 62.1878904,129.088211 61.0178904,130.962911 C60.0989904,132.433511 60.2132904,134.178611 60.3410904,135.833711 C60.4301904,136.976711 60.4859904,138.113411 60.5075904,139.249211 C58.1954904,135.725711 56.0561904,132.130211 52.8737904,129.328511 C52.7864904,128.737211 52.3211904,128.216111 51.6587904,128.336711 C51.3221904,128.083811 50.9747904,127.837211 50.6138904,127.603211 C48.9794904,126.536711 47.4242904,127.992911 47.3684904,129.511211 C44.5820904,130.041311 41.7227904,130.096211 38.9210904,129.508511 C34.6757904,128.616611 30.8264904,126.412511 27.3812904,123.843911 C20.6294904,118.808411 14.8136904,111.315911 11.8913904,103.404011 C8.31209039,93.7137113 6.03779039,83.4807113 4.76159039,73.2414113 C4.12079039,68.0943113 3.78419039,62.9112113 3.76169039,57.7254113 C3.74189039,53.3874113 3.83729039,48.8973113 4.73999039,44.6421113 Z M4.10729039,90.5763113 C5.59319039,96.7926113 7.31219039,103.295111 10.2182904,109.016411 C12.8426904,114.180611 16.5272904,118.840811 20.6978904,122.840411 C28.0238904,129.865811 39.3026904,135.899411 49.2890904,132.046511 C54.3425904,135.823811 56.8526904,142.172411 60.8783904,146.910911 C62.1959904,148.461611 64.3379904,147.062111 64.4945904,145.412411 C64.7969904,142.203911 64.7537904,139.038611 64.4639904,135.833711 C64.3946904,135.062411 64.3217904,134.286611 64.3658904,133.511711 C64.3721904,133.854611 64.6592904,132.706211 64.3937904,133.274111 C64.6484904,132.729611 64.3550904,133.141811 64.8356904,132.699011 C66.4187904,131.240111 70.2221904,130.377011 72.5531904,129.622811 C77.2484904,128.104511 81.9509904,126.605111 86.5040904,124.693511 C95.2313904,121.030511 103.31699,115.470311 109.07519,107.879711 C114.08549,101.273711 117.25799,93.4716113 119.23079,85.4616113 C123.32939,68.8161113 122.55449,50.6685113 118.28669,34.1391113 C116.70809,28.0254113 114.37889,22.2807113 110.46209,17.2803113 C107.00519,12.8658113 102.58529,9.30271126 97.6685904,6.63061126 C87.1304904,0.906611265 74.6060904,-0.649488735 62.7854904,0.228011265 C50.1872904,1.16491126 37.6943904,4.93411126 26.7854904,11.3259113 C16.5371904,17.3307113 7.73969039,26.0130113 3.15509039,37.0965113 C0.219290393,44.1957113 -0.0930096074,51.9510113 0.0185903926,59.5416113 C0.171590393,69.9771113 1.68539039,80.4342113 4.10729039,90.5763113 L4.10729039,90.5763113 Z" id="Fill-269" fill="#000000"></path>
                <g id="Group-19" transform="translate(32.000000, 77.000000)" fill="#000000">
                    <path d="M26.9557108,18.2242349 C24.9905108,15.6123974 22.1821533,12.9911674 21.4560408,9.70740488 C21.0543308,7.89320738 21.2212283,5.85575738 22.1308558,4.22362988 C23.1221258,2.44555738 25.5287733,2.44989238 27.2150883,3.02789238 C28.2150283,3.37035738 28.8602208,1.81409238 27.9310858,1.32857238 C26.0085133,0.324297382 23.9898483,-0.559320118 21.8722008,0.437007382 C20.1179708,1.26137988 19.0862408,2.88917238 18.5270258,4.68819738 C17.3406808,8.50733238 18.5364183,12.3878799 20.8686483,15.4447774 C23.1018958,18.3759599 25.8206633,21.0723299 27.4231683,24.4305099 C29.4591733,28.6983174 24.1473533,28.9548049 21.3534458,29.8600974 C20.0110408,30.2957649 20.3014858,32.1735424 21.6800158,32.2652999 C24.9211508,32.4820499 30.0212783,30.9062774 30.6881458,27.1969624 C31.2813183,23.9052524 28.8074783,20.6814574 26.9557108,18.2242349" id="Fill-165"></path>
                    <path d="M14.9230261,9.75631298 C14.7688588,6.83729842 14.5935146,3.55234818 13.2381974,0.899314629 C12.1971443,-1.13704957 9.3103185,0.646886787 10.217534,2.66461537 C10.1099557,2.42743485 10.4089726,3.24486058 10.4581028,3.42020475 C10.5809284,3.84882384 10.6961304,4.27998414 10.795238,4.71622689 C11.0510541,5.84368144 11.2018332,6.99061868 11.3221176,8.13925007 C11.6219815,11.0345466 11.6685706,13.9577965 11.5796279,16.8666462 C11.4915322,19.7610957 11.2272454,22.6580863 10.6368353,25.4957818 C10.2488757,27.3618843 9.7228432,29.6396644 8.36752593,31.044959 C8.00921392,31.4159771 7.66191387,31.5133905 7.46031043,31.4820488 C6.7538513,31.3736234 6.00588559,30.8704619 5.58065479,30.2851342 C3.99662773,28.109003 3.70862281,24.8393 3.43078277,22.2565736 C2.74550048,15.8899707 3.10804785,9.60553394 3.81196576,3.27027278 C3.83822503,3.02546859 3.85093113,2.77981734 3.87888455,2.53501316 C4.01102798,1.32793371 2.20676186,0.956915612 1.66209374,1.93528527 C0.502450399,4.02332093 0.450778928,6.74412035 0.26103451,9.0676424 C-0.0295116296,12.599091 -0.0693240744,16.1567988 0.100937658,19.6950239 C0.33049452,24.4767527 0.644758712,32.1791901 5.89576606,34.3188973 C10.3937252,36.1502697 12.6350812,30.5866923 13.522814,27.2619297 C15.0246749,21.6458337 15.2262784,15.5325058 14.9230261,9.75631298" id="Fill-166"></path>
                </g>
                <path d="M78.1529375,88.4999375 C78.0711875,84.9951875 77.9136875,81.4919375 77.7719375,77.9871875 C77.7179375,76.6709375 75.7814375,76.6709375 75.7281875,77.9871875 C75.5864375,81.4919375 75.4281875,84.9951875 75.3471875,88.4999375 C75.2811875,91.3536875 74.5904375,94.8006875 75.8684375,97.4264375 C76.1924375,98.0931875 77.3076875,98.0931875 77.6316875,97.4264375 C78.9096875,94.8006875 78.2181875,91.3536875 78.1529375,88.4999375" id="Fill-201" fill="#0B0212"></path>
                <path d="M75.9614375,104.345187 C73.3461875,104.345187 73.3461875,108.400437 75.9614375,108.400437 C78.5766875,108.400437 78.5766875,104.345187 75.9614375,104.345187" id="Fill-202" fill="#0B0212"></path>
                <path d="M34.4078209,53.7871614 C32.6294209,54.2825214 30.7286209,53.9981214 28.8710209,53.8210014 C28.8278209,49.9625214 28.6622209,46.1062014 28.4894209,42.2513214 C28.2950209,37.8442014 28.5614209,33.1814814 27.7046209,28.8456414 C27.4814209,27.7210014 25.6526209,27.7152414 25.4294209,28.8456414 C24.6302209,32.9762814 25.1630209,37.4280414 25.3142209,41.6054814 C25.4726209,46.1854014 25.6094209,50.7610014 25.6310209,55.3438014 C25.6310209,56.2438014 26.3654209,56.9566014 27.2582209,56.9731614 C29.9294209,57.0170814 32.6366209,57.6456414 35.2646209,56.9018814 C37.2662209,56.3338014 36.4166209,53.2248414 34.4078209,53.7871614" id="Fill-152" fill="#000000" transform="translate(30.703139, 42.631493) scale(-1, 1) translate(-30.703139, -42.631493) "></path>
                <path d="M48.6746245,52.5169654 C46.4498245,49.5124054 45.5642245,45.2118454 45.2186245,41.7090454 C44.9378245,38.8679254 44.8226245,34.5270454 46.8242245,32.0380054 C50.7482245,37.8008854 52.0658245,46.2364054 48.6746245,52.5169654 Z M53.6570245,42.7105654 C53.4626245,38.3351254 52.1666245,33.4319254 49.3010245,29.9716054 C49.4666245,29.2861654 48.7466245,28.3976854 47.9042245,28.5546454 C42.4970245,29.5612054 41.7914245,36.5164054 42.0434245,40.9566454 C42.3386245,46.0931254 43.8002245,52.6084054 47.7746245,56.2256854 C48.5810245,56.9644054 49.6178245,56.7332854 50.2442245,55.9060054 C53.0450245,52.1814454 53.8658245,47.2732054 53.6570245,42.7105654 L53.6570245,42.7105654 Z" id="Fill-149" fill="#000000"></path>
                <path d="M63.7745901,50.8170454 C63.3713901,48.3028054 63.1481901,45.7640854 62.9537901,43.2260854 C62.5649901,38.1104854 62.4209901,32.9603254 61.4993901,27.9037654 C61.2401901,26.5033654 58.8425901,26.8194454 59.0081901,28.2400054 C59.5985901,33.3980854 59.7281901,38.5993654 60.0377901,43.7797654 C60.1961901,46.4070454 60.4193901,49.0300054 60.8009901,51.6349654 C61.0889901,53.5847254 61.2617901,56.6245654 62.9249901,57.8809654 C63.6161901,58.3993654 64.5953901,57.8320054 64.8113901,57.1120054 C65.1209901,56.0874454 64.6817901,55.1788054 64.4297901,54.1794454 C64.1489901,53.0713654 63.9545901,51.9431254 63.7745901,50.8170454 Z" id="Fill-150" fill="#000000"></path>
                <path d="M84.7946498,21.4789587 C83.8218998,20.2677087 81.8816498,21.5757087 82.2791498,22.9422087 C83.8526498,28.3399587 84.1203998,33.3552087 83.7888998,38.9854587 C83.5683998,42.7452087 83.1296498,46.4847087 82.7133998,50.2257087 C79.6818998,43.3962087 76.8783998,36.4774587 74.9081498,29.2452087 C74.4716498,27.6402087 71.9636498,27.9537087 72.0003998,29.6382087 C72.0948998,34.1494587 72.1541498,38.6577087 72.1938998,43.1697087 C72.2313998,47.3974587 72.0731498,51.6552087 72.8703998,55.8274587 C72.9858998,56.4334587 73.9743998,56.4334587 74.0906498,55.8274587 C74.8871498,51.6552087 74.7288998,47.3974587 74.7663998,43.1697087 C74.7783998,41.8669587 74.7956498,40.5642087 74.8106498,39.2614587 C76.9661498,45.3927087 79.6331498,51.3417087 82.3106498,57.2779587 C83.0516498,58.9182087 85.2453998,57.8959587 85.3743998,56.4477087 C85.9406498,50.1169587 86.9013998,43.8319587 87.2636498,37.4809587 C87.5403998,32.6262087 88.0481498,25.5304587 84.7946498,21.4789587" id="Fill-198" fill="#0B0212"></path>
            </g>
        </g>
    </g>
</svg>