<?xml version="1.0" encoding="UTF-8"?>
<svg width="249px" height="183px" viewBox="0 0 249 183" version="1.1" xmlns="http://www.w3.org/2000/svg" xmlns:xlink="http://www.w3.org/1999/xlink">
    <title>quality</title>
    <g id="Page-1" stroke="none" stroke-width="1" fill="none" fill-rule="evenodd">
        <g id="shopping-on-splitchek-copy" transform="translate(-150.000000, -3245.000000)">
            <g id="source-products" transform="translate(150.000000, 2993.000000)">
                <g id="quality" transform="translate(0.000000, 252.000000)">
                    <g id="Group-32" transform="translate(124.500000, 91.500000) rotate(10.000000) translate(-124.500000, -91.500000) translate(11.000000, 19.000000)">
                        <path d="M70.2405061,117.97626 C70.1349061,115.23426 74.8581061,114.31986 76.1529061,117.41946 C78.1089061,122.10306 79.5105061,126.97386 80.8209061,131.87226 C82.3077061,127.11666 83.4969061,122.25786 84.7125061,117.44346 C84.9525061,116.49426 85.7613061,115.69746 86.7045061,115.45266 C90.5457061,114.44586 94.4433061,113.67426 98.3781061,113.14506 C113.130906,111.16146 128.007306,111.56946 142.841706,110.80146 C156.150906,110.11506 170.020506,108.62826 182.100906,102.57666 C191.984106,97.62426 200.945706,90.64386 208.019706,82.12746 C214.631706,74.16906 220.031706,64.17546 220.277706,53.60826 C220.740906,33.71346 204.416106,19.29186 187.102506,12.80586 C168.731706,5.92145999 148.691706,4.33985999 129.222906,4.88705999 C108.392106,5.47505999 87.5349061,8.47625999 67.4229061,13.96026 C58.6905061,16.33866 50.0121061,19.13706 41.7213061,22.79586 C34.4553061,26.00226 27.0105061,29.72586 21.1437061,35.17626 C6.83250605,48.47226 -0.41189395,71.41746 8.27610605,89.77746 C13.4421061,100.69626 23.0517061,107.85186 34.4721061,111.39906 C46.1337061,115.02066 58.4241061,115.20906 70.2405061,117.97626" id="Fill-41" fill="#FFFFFF"></path>
                        <path d="M8.27610605,89.77746 C-0.41189395,71.41746 6.83250605,48.47226 21.1437061,35.17626 C27.0105061,29.72586 34.4553061,26.00226 41.7213061,22.79586 C50.0121061,19.13706 58.6905061,16.33866 67.4229061,13.96026 C87.5349061,8.47625999 108.392106,5.47505999 129.222906,4.88705999 C148.691706,4.33985999 168.731706,5.92145999 187.102506,12.80586 C204.416106,19.29186 220.740906,33.71346 220.277706,53.60826 C220.031706,64.17546 214.631706,74.16906 208.019706,82.12746 C200.945706,90.64386 191.984106,97.62426 182.100906,102.57666 C170.020506,108.62826 156.150906,110.11506 142.841706,110.80146 C128.007306,111.56946 113.130906,111.16146 98.3781061,113.14506 C94.4433061,113.67426 90.5457061,114.44586 86.7045061,115.45266 C85.7613061,115.69746 84.9525061,116.49426 84.7125061,117.44346 C83.4969061,122.25786 82.3077061,127.11666 80.8209061,131.87226 C79.5105061,126.97386 78.1089061,122.10306 76.1529061,117.41946 C74.8581061,114.31986 70.1349061,115.23426 70.2405061,117.97626 C58.4241061,115.20906 46.1337061,115.02066 34.4721061,111.39906 C23.0517061,107.85186 13.4421061,100.69626 8.27610605,89.77746 Z M71.2173061,120.82626 C73.9173061,127.76586 75.5553061,135.06546 77.5929061,142.21746 C78.4509061,145.22226 82.1373061,144.71466 83.1825061,142.21746 C86.1081061,135.23226 87.9969061,127.88946 89.8185061,120.55506 C117.958506,113.62626 147.903306,120.04506 175.816506,111.36426 C196.389306,104.96706 215.387706,88.54386 223.413306,68.43666 C227.418906,58.40226 227.637306,47.05746 223.318506,37.09986 C219.352506,27.95706 212.285706,20.48226 203.948106,15.15906 C188.558106,5.33105999 169.534506,2.02145999 151.640106,0.624659986 C130.676106,-1.01454001 109.430106,0.690659986 88.7613061,4.35665999 C70.3341061,7.62425999 51.8505061,12.59706 34.9533061,20.76906 C27.2997061,24.46986 20.1297061,29.02746 14.3745061,35.36226 C7.57890605,42.84066 2.95410605,52.27626 0.98730605,62.17026 C-0.94469395,71.88786 -0.0686939499,81.90786 3.85770605,91.01346 C8.20650605,101.10426 16.7865061,108.80946 26.8233061,113.00586 C41.0373061,118.95186 56.3097061,118.42386 71.2173061,120.82626 L71.2173061,120.82626 Z" id="Fill-42" fill="#000000"></path>
                    </g>
                    <text id="Only-quality-product" transform="translate(141.000000, 82.000000) rotate(6.000000) translate(-141.000000, -82.000000) " font-family="Noteworthy-Bold, Noteworthy" font-size="24" font-weight="bold" fill="#0B0212">
                        <tspan x="40" y="74">ONLY QUALITY</tspan>
                        <tspan x="40" y="113">PRODUCTS</tspan>
                    </text>
                </g>
            </g>
        </g>
    </g>
</svg>