<?xml version="1.0" encoding="UTF-8"?>
<svg width="206px" height="160px" viewBox="0 0 206 160" version="1.1" xmlns="http://www.w3.org/2000/svg" xmlns:xlink="http://www.w3.org/1999/xlink">
    <title>400 Error Bad Request-bro</title>
    <g id="Page-1" stroke="none" stroke-width="1" fill="none" fill-rule="evenodd">
        <g id="register-hashtag-success/error" transform="translate(-617.000000, -664.000000)">
            <g id="check_ok" transform="translate(400.000000, 490.000000)">
                <g id="400-Error-Bad-Request-bro" transform="translate(218.000000, 174.000000)">
                    <g id="freepik--background-simple--inject-291" transform="translate(8.067227, 0.000000)" fill-rule="nonzero">
                        <path d="M38.8302521,154.868347 C38.8302521,154.868347 60.3428571,166.041457 84.8985994,154.263305 C109.454342,142.485154 117.422969,119.663866 130.187115,102.498599 C136.864986,93.535014 147.791597,88.5154062 156.123249,80.9591036 C182.771989,56.8112045 173.154062,16.4212885 148.777591,5.3557423 C127.672829,-4.23529412 103.291877,-0.797759104 73.080112,15.4397759 C42.8683473,31.6773109 21.0913165,42.1557423 5.23921569,74.5142857 C-10.6128852,106.872829 12.1008403,139.213445 38.8302521,154.868347 Z" id="Path" fill="#ADC7F7"></path>
                        <path d="M38.8302521,154.868347 C38.8302521,154.868347 60.3428571,166.041457 84.8985994,154.263305 C109.454342,142.485154 117.422969,119.663866 130.187115,102.498599 C136.864986,93.535014 147.791597,88.5154062 156.123249,80.9591036 C182.771989,56.8112045 173.154062,16.4212885 148.777591,5.3557423 C127.672829,-4.23529412 103.291877,-0.797759104 73.080112,15.4397759 C42.8683473,31.6773109 21.0913165,42.1557423 5.23921569,74.5142857 C-10.6128852,106.872829 12.1008403,139.213445 38.8302521,154.868347 Z" id="Path" fill="#FFFFFF" opacity="0.7"></path>
                    </g>
                    <g id="freepik--Plants--inject-291" transform="translate(150.140056, 91.428571)">
                        <path d="M27.4733894,49.3579832 C27.4733894,49.3579832 25.9943978,43.0252101 27.0969188,37.4005602 C28.1994398,31.7759104 30.8347339,35.5316527 33.8196078,31.7938375 C36.8044818,28.0560224 35.3165266,20.9568627 38.6778711,17.967507 C42.0392157,14.9781513 46.9019608,15.3501401 48.022409,9.74341737 C49.1428571,4.13669468 49.8913165,-0.345098039 52.1322129,0.403361345 C54.3731092,1.15182073 50.2633053,7.8745098 50.2633053,11.9887955 C50.2633053,16.1030812 52.5042017,18.7114846 51.0117647,22.8257703 C49.5193277,26.940056 43.1641457,25.4386555 43.1641457,30.2969188 C43.1641457,35.1551821 45.7815126,40.0134454 43.5361345,43.3792717 C41.2907563,46.745098 35.3165266,47.4890756 34.572549,49.3579832 C33.8285714,51.2268908 31.9551821,54.5882353 30.0907563,54.5882353 C28.2263305,54.5882353 27.4733894,49.3579832 27.4733894,49.3579832 Z" id="Path" fill="#BFBFBF" fill-rule="nonzero"></path>
                        <path d="M26.2543417,49.4252101 C26.6308123,48.3047619 25.8823529,38.5882353 22.5210084,36.7193277 C19.1596639,34.8504202 15.4173669,35.5988796 13.557423,32.237535 C11.697479,28.8761905 11.6885154,27.3792717 9.82408964,27.0072829 C7.95966387,26.6352941 -1.01736695,25.1383754 0.107563025,27.0072829 C1.232493,28.8761905 7.95518207,25.8868347 7.95518207,29.6201681 C7.95518207,33.3535014 7.20672269,39.3366947 9.44761905,40.8246499 C11.6885154,42.312605 17.6717087,41.945098 17.2952381,45.3064426 C16.9187675,48.6677871 15.8028011,49.7882353 17.6717087,50.9086835 C19.5406162,52.0291317 24.7708683,56.8918768 25.5193277,53.1495798 L26.2543417,49.4252101 Z" id="Path" fill="#BFBFBF" fill-rule="nonzero"></path>
                        <path d="M30.4134454,57.6627451 C30.4134454,57.6627451 28.6745098,52.2263305 33.4610644,42.2140056 C38.247619,32.2016807 41.729972,24.5871148 43.9081232,20.670028" id="Path" stroke="#263238" stroke-width="0.5"></path>
                        <path d="M26.4963585,58.5366947 C26.4963585,58.5366947 25.8464986,55.9238095 23.6683473,48.7439776 C21.4901961,41.5641457 18.8817927,39.6011204 15.1798319,37.2078431 C11.4778711,34.8145658 11.2627451,30.897479 10.6128852,29.8084034" id="Path" stroke="#263238" stroke-width="0.5"></path>
                        <path d="M35.6392157,54.6196078 C35.6392157,54.6196078 36.087395,50.702521 39.5563025,49.6134454 C43.0252101,48.5243697 46.3014006,48.9591036 46.9557423,46.5658263 C47.610084,44.172549 47.6056022,41.7792717 49.1294118,40.4705882 C50.6532213,39.1619048 52.6117647,38.5120448 52.8313725,39.1663866 C53.0509804,39.8207283 50.6532213,40.2554622 50.6532213,42.4291317 C50.6532213,44.6028011 53.9159664,50.0481793 49.1294118,52.2263305 C44.3428571,54.4044818 40.4257703,52.4414566 38.6868347,53.9652661 C36.9478992,55.4890756 35.8543417,56.5781513 35.8543417,56.5781513 L35.6392157,54.6196078 Z" id="Path" fill="#BFBFBF" fill-rule="nonzero"></path>
                        <path d="M35.2044818,58.5366947 C35.2044818,58.5366947 36.7507003,52.8851541 40.4257703,51.5719888 C44.1008403,50.2588235 48.259944,53.0957983 49.9988796,50.4829132 C51.7378151,47.870028 50.4470588,45.2616246 50.2184874,43.5182073" id="Path" stroke="#263238" stroke-width="0.5"></path>
                        <path d="M37.6470588,57.6627451 L24.1568627,57.6627451 C23.8684324,57.6627451 23.5918803,57.777627 23.3883502,57.9819982 C23.1848201,58.1863693 23.071077,58.4633928 23.0722596,58.7518207 L23.0722596,58.7518207 C23.071077,59.0402486 23.1848201,59.3172721 23.3883502,59.5216433 C23.5918803,59.7260144 23.8684324,59.8408988 24.1568627,59.8408964 L24.2689076,59.8408964 L25.3176471,62.5971989 C25.4846135,63.0338743 25.9033615,63.3225431 26.3708683,63.3232493 L35.437535,63.3232493 C35.9050419,63.3225431 36.3237899,63.0338743 36.4907563,62.5971989 L37.5439776,59.8408964 L37.6470588,59.8408964 C38.2485387,59.8408964 38.7361345,59.3533006 38.7361345,58.7518207 L38.7361345,58.7518207 C38.7361345,58.1503409 38.2485387,57.6627451 37.6470588,57.6627451 L37.6470588,57.6627451 Z" id="Path" fill="#263238" fill-rule="nonzero"></path>
                    </g>
                    <g id="freepik--Clock--inject-291" transform="translate(28.235294, 28.683473)" stroke="#263238" stroke-linecap="round" stroke-linejoin="round" stroke-width="0.5">
                        <circle id="Oval" cx="14.6689076" cy="14.4985994" r="14.3014006"></circle>
                        <circle id="Oval" transform="translate(14.673799, 14.493257) rotate(-8.960000) translate(-14.673799, -14.493257) " cx="14.6737987" cy="14.493257" r="11.8498599"></circle>
                        <polyline id="Path" points="7.10812325 14.4985994 14.6689076 14.4985994 14.6689076 25.4028011"></polyline>
                    </g>
                    <g id="freepik--Character--inject-291" transform="translate(42.128852, 43.025210)">
                        <path d="M66.6666625,109.328852 C66.6666625,108.004606 67.74018,106.931092 69.0644258,106.931092 C70.3886716,106.931092 71.4621849,108.004606 71.4621849,109.328852 C71.4621849,110.653097 70.3886716,111.726615 69.0644258,111.726615 C68.4281356,111.727803 67.817563,111.475566 67.3676372,111.02564 C66.9177113,110.575714 66.665474,109.965142 66.6666625,109.328852 Z" id="Path" stroke="#263238" stroke-width="0.5" fill="#263238" fill-rule="nonzero" stroke-linecap="round" stroke-linejoin="round"></path>
                        <path d="M67.8632969,109.328852 C67.8614911,108.84264 68.1529816,108.403294 68.6016629,108.215971 C69.0503442,108.028647 69.5677009,108.130301 69.9121488,108.473463 C70.2565968,108.816626 70.3601837,109.333599 70.1745387,109.782977 C69.9888937,110.232356 69.5506408,110.52549 69.0644258,110.52549 C68.4028116,110.52549 67.865774,109.990461 67.8632969,109.328852 L67.8632969,109.328852 Z" id="Path" stroke="#263238" stroke-width="0.5" fill="#FFFFFF" fill-rule="nonzero" stroke-linecap="round" stroke-linejoin="round"></path>
                        <path d="M40.9815126,109.328852 C40.9815126,108.004606 42.0550259,106.931092 43.3792717,106.931092 C44.7035175,106.931092 45.7770308,108.004606 45.7770308,109.328852 C45.7770308,110.653097 44.7035175,111.726611 43.3792717,111.726611 C42.7433465,111.726611 42.133467,111.47399 41.6838,111.024323 C41.2341329,110.574656 40.9815126,109.964777 40.9815126,109.328852 L40.9815126,109.328852 Z" id="Path" stroke="#263238" stroke-width="0.5" fill="#263238" fill-rule="nonzero" stroke-linecap="round" stroke-linejoin="round"></path>
                        <path d="M42.1826247,109.328852 C42.1808207,108.842233 42.4727979,108.402604 42.9220306,108.215545 C43.3712633,108.028486 43.8889717,108.130964 44.2330656,108.475058 C44.5771594,108.819152 44.679637,109.33686 44.4925779,109.786093 C44.3055188,110.235325 43.8658905,110.527303 43.3792717,110.525499 C42.7194071,110.523033 42.1850907,109.988716 42.1826247,109.328852 L42.1826247,109.328852 Z" id="Path" stroke="#263238" stroke-width="0.5" fill="#FFFFFF" fill-rule="nonzero" stroke-linecap="round" stroke-linejoin="round"></path>
                        <path d="M32.5915924,109.328852 C32.5915924,108.004606 33.66511,106.931092 34.9893557,106.931092 C36.3136015,106.931092 37.3871148,108.004606 37.3871148,109.328852 C37.3871148,110.653097 36.3136015,111.726615 34.9893557,111.726615 C34.3530656,111.727803 33.742493,111.475566 33.2925671,111.02564 C32.8426413,110.575714 32.590404,109.965142 32.5915924,109.328852 L32.5915924,109.328852 Z" id="Path" stroke="#263238" stroke-width="0.5" fill="#263238" fill-rule="nonzero" stroke-linecap="round" stroke-linejoin="round"></path>
                        <path d="M33.7882269,109.328852 C33.7864211,108.84264 34.0779116,108.403294 34.5265929,108.215971 C34.9752742,108.028647 35.4926309,108.130301 35.8370788,108.473463 C36.1815267,108.816626 36.2851136,109.333599 36.0994687,109.782977 C35.9138237,110.232356 35.4755707,110.52549 34.9893557,110.52549 C34.3277416,110.52549 33.790704,109.990461 33.7882269,109.328852 L33.7882269,109.328852 Z" id="Path" stroke="#263238" stroke-width="0.5" fill="#FFFFFF" fill-rule="nonzero" stroke-linecap="round" stroke-linejoin="round"></path>
                        <polygon id="Path" stroke="#263238" stroke-width="0.5" fill="#263238" fill-rule="nonzero" stroke-linecap="round" stroke-linejoin="round" transform="translate(49.633613, 93.611204) rotate(180.000000) translate(-49.633613, -93.611204) " points="47.0991597 80.6364146 52.1680672 80.6364146 52.1680672 106.585994 47.112605 106.585994 47.112605 80.6364146"></polygon>
                        <rect id="Rectangle" stroke="#263238" stroke-width="0.5" fill="#263238" fill-rule="nonzero" stroke-linecap="round" stroke-linejoin="round" transform="translate(49.635854, 97.418487) rotate(180.000000) translate(-49.635854, -97.418487) " x="45.7501401" y="88.2509804" width="7.77142857" height="18.335014"></rect>
                        <polygon id="Path" stroke="#263238" stroke-width="0.5" fill="#263238" fill-rule="nonzero" stroke-linecap="round" stroke-linejoin="round" transform="translate(58.081793, 69.306443) rotate(180.000000) translate(-58.081793, -69.306443) " points="54.8436975 62.3282913 61.3333333 62.3282913 61.3333333 76.2845938 54.8302521 76.2845938 54.8302521 62.3507003"></polygon>
                        <path d="M45.2302521,62.2969188 L70.6240896,62.2969188 C71.8233089,62.2960912 72.9714432,61.8113289 73.8083806,60.9524556 C74.645318,60.0935824 75.1002201,58.9332932 75.070028,57.7344538 L74.4605042,32.9456583 C74.3997088,30.531624 72.4248836,28.6065175 70.010084,28.6072822 L49.0442577,28.6072822 C46.8467406,28.6060702 44.9773012,30.2089907 44.6431373,32.3809524 L40.8336134,57.1697479 C40.6362116,58.4527964 41.0088578,59.7580808 41.8538923,60.7435236 C42.6989268,61.7289665 43.932107,62.2963279 45.2302521,62.2969188 L45.2302521,62.2969188 Z" id="Path" stroke="#263238" stroke-width="0.5" fill="#ADC7F7" fill-rule="nonzero" stroke-linecap="round" stroke-linejoin="round"></path>
                        <line x1="53.5305322" y1="81.5282913" x2="64.6677871" y2="88.864986" id="Path" stroke="#263238" stroke-width="0.5" stroke-linecap="round" stroke-linejoin="round"></line>
                        <path d="M65.0890756,87.7535014 L66.9893557,89.0308123 C67.2981545,89.2412463 67.496654,89.5787597 67.5304857,89.9509082 C67.5643174,90.3230567 67.429935,90.6908322 67.1641457,90.9535014 L67.0296919,91.0789916 C66.5765059,91.5232036 65.8612694,91.5541328 65.3714286,91.1507003 L63.6414566,89.7120448 C63.3772465,89.4959895 63.2157094,89.1790686 63.1961169,88.8383297 C63.1765244,88.4975908 63.3006711,88.1642432 63.5383754,87.9193277 L63.5383754,87.9193277 C63.9476837,87.4973972 64.5998034,87.4276618 65.0890756,87.7535014 Z" id="Path" stroke="#263238" stroke-width="0.5" fill="#263238" fill-rule="nonzero" stroke-linecap="round" stroke-linejoin="round"></path>
                        <path d="M28.9837535,82.7966387 L70.2834734,82.7966387 C72.4839491,82.7966387 74.2677871,81.0128006 74.2677871,78.8123249 L74.2677871,78.8123249 C74.2677871,76.6118492 72.4839491,74.8280112 70.2834734,74.8280112 L28.9837535,74.8280112 C26.7832778,74.8280112 24.9994398,76.6118492 24.9994398,78.8123249 L24.9994398,78.8123249 C24.9994398,81.0128006 26.7832778,82.7966387 28.9837535,82.7966387 L28.9837535,82.7966387 Z" id="Path" stroke="#263238" stroke-width="0.5" fill="#ADC7F7" fill-rule="nonzero" stroke-linecap="round" stroke-linejoin="round"></path>
                        <path d="M25.0263305,78.3282913 C25.3328722,76.3050398 27.0854966,74.8183704 29.1316527,74.8459384 L50.5546218,74.8459384 C52.6134341,74.810549 54.3785446,76.3089743 54.6778711,78.3462185 C54.819223,79.4811141 54.4666339,80.6220891 53.7096489,81.4793768 C52.9526639,82.3366645 51.8641126,82.8277849 50.7204482,82.8280115 L28.9837535,82.8280115 C27.836541,82.8284383 26.7446858,82.3349004 25.9870566,81.4734512 C25.2294274,80.6120019 24.8793841,79.4660538 25.0263305,78.3282913 Z" id="Path" stroke="#263238" stroke-width="0.5" fill="#ADC7F7" fill-rule="nonzero" stroke-linecap="round" stroke-linejoin="round"></path>
                        <path d="M31.8207283,108.033613 L71.4756303,108.033613 C71.4731586,106.83488 70.5006972,105.864426 69.3019608,105.864426 L33.989916,105.864426 C32.7919067,105.864426 31.8207283,106.835604 31.8207283,108.033613 L31.8207283,108.033613 Z" id="Path" stroke="#263238" stroke-width="0.5" fill="#263238" fill-rule="nonzero" stroke-linecap="round" stroke-linejoin="round"></path>
                        <path d="M38.8795518,108.033613 L51.7871148,108.033613 L51.7871148,105.864426 L41.0308123,105.864426 C39.8320759,105.864426 38.8596145,106.83488 38.8571429,108.033613 L38.8795518,108.033613 Z" id="Path" stroke="#263238" stroke-width="0.5" fill="#263238" fill-rule="nonzero" stroke-linecap="round" stroke-linejoin="round"></path>
                        <path d="M36.1098039,58.1647059 L33.2504202,62.87507 C33.2504202,62.87507 23.2515406,63.8789916 17.5372549,65.1607843 C11.8229692,66.442577 10.680112,72.735014 10.3932773,74.0212885 C10.07507,75.4554622 8.3047619,105.434174 8.87394958,105.577591 C9.44313725,105.721008 13.7322129,106.146779 13.7322129,106.146779 C13.7322129,106.146779 20.9658263,77.0151261 23.1081232,76.5893557 C25.2504202,76.1635854 56.9635854,76.8761905 61.6784314,74.3036415 C66.3932773,71.7310924 67.5361345,64.3047619 64.8156863,59.1641457 C62.0952381,54.0235294 36.1098039,58.1647059 36.1098039,58.1647059 Z" id="Path" stroke="#263238" stroke-width="0.5" fill="#263238" fill-rule="nonzero" stroke-linecap="round" stroke-linejoin="round"></path>
                        <path d="M55.5383754,63.8789916 C55.5383754,63.8789916 42.2498599,63.8789916 35.8184874,64.4481793 C29.3871148,65.0173669 25.3893557,69.8756303 25.6761905,74.1647059 C25.9630252,78.4537815 31.157423,106.577031 31.157423,106.577031 L36.1546218,106.128852 L38.8436975,75.9932773 C38.8436975,75.9932773 43.3254902,78.897479 60.7103641,74.4336134" id="Path" stroke="#263238" stroke-width="0.5" fill="#263238" fill-rule="nonzero" stroke-linecap="round" stroke-linejoin="round"></path>
                        <path d="M86.8212885,18.0212885 C86.3731092,17.7344538 84.9658263,21.4498599 84.9658263,21.4498599 C84.0611531,21.4013858 83.1545332,21.4013858 82.2498599,21.4498599 C80.6812325,21.5932773 79.394958,23.7355742 79.394958,25.1652661 C79.394958,26.594958 72.8201681,38.0190476 72.8201681,38.0190476 C72.8201681,38.0190476 67.1058824,28.6072829 65.1070028,27.0207283 C63.1081232,25.4341737 55.6952381,24.022409 55.6952381,24.022409 C52.6616375,23.5471637 49.5725362,23.5471637 46.5389356,24.022409 C46.5389356,24.022409 39.112605,25.447619 37.1271709,27.0207283 C35.1417367,28.5938375 29.4095238,38.0190476 29.4095238,38.0190476 C29.4095238,38.0190476 22.8392157,26.5904762 22.8392157,25.1652661 C22.8392157,23.740056 21.5529412,21.5798319 19.9843137,21.4498599 C19.0796414,21.4013515 18.1730197,21.4013515 17.2683473,21.4498599 C17.2683473,21.4498599 15.8386555,17.7344538 15.4128852,18.0212885 C14.9871148,18.3081232 15.6952381,22.8795518 16.1254902,23.8789916 C16.5557423,24.8784314 20.1277311,25.5910364 20.1277311,25.5910364 C20.1277311,25.5910364 24.5557423,42.4470588 25.9809524,44.7327731 C27.4061625,47.0184874 28.9837535,49.8778711 32.8380952,48.1613445 C36.692437,46.4448179 41.5551821,40.8784314 41.5551821,40.8784314 L49.707563,41.0039216 L49.707563,41.0039216 L50.3215686,41.0039216 L50.8369748,41.0039216 L50.8369748,41.0039216 L60.6969188,40.8784314 C60.6969188,40.8784314 65.5551821,46.4492997 69.4095238,48.1613445 C73.2638655,49.8733894 74.8414566,47.0184874 76.2666667,44.7327731 C77.6918768,42.4470588 82.1064426,25.5910364 82.1064426,25.5910364 C82.1064426,25.5910364 85.6918768,24.8784314 86.1086835,23.8789916 C86.5254902,22.8795518 87.2515406,18.3081232 86.8212885,18.0212885 Z" id="Path" stroke="#263238" stroke-width="0.5" fill="#9C9C9C" fill-rule="nonzero" stroke-linecap="round" stroke-linejoin="round"></path>
                        <path d="M75.1327731,33.9092437 C73.8733894,36.194958 72.8201681,38.0190476 72.8201681,38.0190476 C72.8201681,38.0190476 67.1058824,28.6072829 65.1070028,27.0207283 C63.1081232,25.4341737 55.6952381,24.022409 55.6952381,24.022409 C52.6616375,23.5471637 49.5725362,23.5471637 46.5389356,24.022409 C46.5389356,24.022409 39.112605,25.447619 37.1271709,27.0207283 C35.1417367,28.5938375 29.4095238,38.0190476 29.4095238,38.0190476 C29.4095238,38.0190476 28.2711485,36.042577 26.9445378,33.6268908 L23.0140056,36.0201681 C24.1613445,39.9596639 25.3579832,43.7378151 25.9809524,44.7327731 C27.4106443,47.0184874 28.9837535,49.8778711 32.8380952,48.1613445 C36.692437,46.4448179 41.5551821,40.8784314 41.5551821,40.8784314 L49.707563,41.0039216 L49.707563,41.0039216 L50.3215686,41.0039216 L50.8369748,41.0039216 L50.8369748,41.0039216 L60.6969188,40.8784314 C60.6969188,40.8784314 65.5551821,46.4492997 69.4095238,48.1613445 C73.2638655,49.8733894 74.8414566,47.0184874 76.2666667,44.7327731 C76.8941176,43.7333333 78.0952381,39.9417367 79.2470588,35.9887955 L75.1327731,33.9092437 Z" id="Path" fill="#FFFFFF" fill-rule="nonzero"></path>
                        <g id="Group" transform="translate(29.579832, 32.268908)" fill-rule="nonzero">
                            <path d="M42.1288515,8.39439776 C42.0526611,7.45770308 41.9809524,6.57030812 42.3619048,6.00112045 C42.5394236,5.73481167 42.7340439,5.48030824 42.9445378,5.23921569 L42.3798319,4.34285714 C42.0477673,4.68039451 41.747698,5.04797934 41.4834734,5.44089636 C40.9053221,6.31036415 40.9904762,7.41736695 41.080112,8.4929972 C41.1518207,9.42969188 41.2235294,10.312605 40.842577,10.8862745 C40.5154062,11.3747899 40.1971989,11.3344538 39.3232493,11.1551821 C38.4945464,10.9163692 37.6152575,10.9163692 36.7865546,11.1551821 C36.0525263,11.4235827 35.4988,12.0377155 35.307563,12.7955182 C35.589916,13.0420168 35.8812325,13.2885154 36.1770308,13.5260504 C36.2980392,12.8851541 36.5669468,12.3159664 37.1137255,12.1366947 C37.7705489,11.9572979 38.4644406,11.9650596 39.1170868,12.1591036 C39.9865546,12.3383754 40.9770308,12.5445378 41.7030812,11.4509804 C42.2901961,10.5770308 42.2005602,9.47002801 42.1288515,8.39439776 Z" id="Path" fill="#ADC7F7"></path>
                            <path d="M31.0991597,8.60952381 L31.4397759,8.99047619 C31.7471455,8.86362343 32.0401172,8.70436702 32.3137255,8.51540616 C32.6282393,8.4468413 32.9538335,8.4468413 33.2683473,8.51540616 C34.3340007,8.65690854 35.4171477,8.58530811 36.454902,8.3047619 C38.1893557,7.80728291 38.247619,5.92492997 38.3103641,4.27114846 C38.3417367,3.34789916 38.3731092,2.38879552 38.6913165,1.81064426 C38.9998254,1.22502357 39.6796152,0.939586994 40.3137255,1.12941176 C40.0851541,0.77535014 39.8655462,0.421288515 39.610084,0.0672268908 C38.8237219,0.131667955 38.1291918,0.604901765 37.7815126,1.31316527 C37.3333333,2.10644258 37.3109244,3.19103641 37.27507,4.23529412 C37.2168067,5.9697479 37.1092437,7.04537815 36.172549,7.30980392 C35.2572996,7.55707105 34.301716,7.61803332 33.362465,7.48907563 C32.6857143,7.43081232 32.1030812,7.37703081 31.6638655,7.72661064 C30.9877148,8.09289228 30.2777952,8.3930697 29.5439776,8.62296919 L31.0991597,8.60952381 Z" id="Path" fill="#ADC7F7"></path>
                            <path d="M6.52997199,11.1507003 C5.70126908,10.9118874 4.82198022,10.9118874 3.99327731,11.1507003 C3.11932773,11.329972 2.80112045,11.3703081 2.47394958,10.8817927 C2.0929972,10.3081232 2.16470588,9.42521008 2.24089636,8.48851541 C2.32605042,7.41288515 2.41120448,6.30588235 1.83305322,5.43641457 C1.53493378,4.97485706 1.18452844,4.54925745 0.788795518,4.16806723 L0.224089636,5.06442577 C0.502043438,5.35280696 0.752606432,5.6663858 0.97254902,6.00112045 C1.3535014,6.57030812 1.28179272,7.45770308 1.20560224,8.39439776 C1.12044818,9.47002801 1.03081232,10.5770308 1.61344538,11.4464986 C2.3394958,12.540056 3.32997199,12.3428571 4.19943978,12.1546218 C4.85208604,11.9605778 5.54597766,11.9528162 6.20280112,12.1322129 C6.69258658,12.3463862 7.03323067,12.8028493 7.09915966,13.3333333 C7.39047619,13.0957983 7.67282913,12.8537815 7.95070028,12.6072829 C7.7282296,11.9279486 7.20355181,11.3900297 6.52997199,11.1507003 L6.52997199,11.1507003 Z" id="Path" fill="#ADC7F7"></path>
                            <path d="M9.96302521,7.47563025 C9.02228426,7.60458399 8.06523723,7.54362558 7.14845938,7.29635854 C6.21176471,7.03193277 6.10420168,5.95182073 6.04593838,4.22184874 C6.01008403,3.17759104 5.97422969,2.0929972 5.5394958,1.29971989 C5.14529036,0.507242149 4.32678591,0.0157896865 3.44201681,0.0403361345 C3.18207283,0.430252101 2.92661064,0.820168067 2.67563025,1.20560224 C3.2,1.02633053 4.13221289,0.878431373 4.62969188,1.79719888 C4.94789916,2.37535014 4.97927171,3.33445378 5.01064426,4.25770308 C5.06890756,5.91596639 5.13613445,7.79831933 6.86610644,8.29131653 C7.9038607,8.57186273 8.98700767,8.64346316 10.0526611,8.50196078 C10.3671749,8.43339593 10.6927691,8.43339593 11.0072829,8.50196078 C11.2188327,8.65240525 11.4456732,8.78009695 11.6840336,8.88291317 L11.9484594,8.59159664 L13.8039216,8.61848739 C13.0604433,8.38011714 12.3415555,8.07095034 11.6571429,7.6952381 C11.2044818,7.36358543 10.6352941,7.41736695 9.96302521,7.47563025 Z" id="Path" fill="#ADC7F7"></path>
                            <g opacity="0.5" fill="#FFFFFF" id="Path">
                                <path d="M42.1288515,8.39439776 C42.0526611,7.45770308 41.9809524,6.57030812 42.3619048,6.00112045 C42.5394236,5.73481167 42.7340439,5.48030824 42.9445378,5.23921569 L42.3798319,4.34285714 C42.0477673,4.68039451 41.747698,5.04797934 41.4834734,5.44089636 C40.9053221,6.31036415 40.9904762,7.41736695 41.080112,8.4929972 C41.1518207,9.42969188 41.2235294,10.312605 40.842577,10.8862745 C40.5154062,11.3747899 40.1971989,11.3344538 39.3232493,11.1551821 C38.4945464,10.9163692 37.6152575,10.9163692 36.7865546,11.1551821 C36.0525263,11.4235827 35.4988,12.0377155 35.307563,12.7955182 C35.589916,13.0420168 35.8812325,13.2885154 36.1770308,13.5260504 C36.2980392,12.8851541 36.5669468,12.3159664 37.1137255,12.1366947 C37.7705489,11.9572979 38.4644406,11.9650596 39.1170868,12.1591036 C39.9865546,12.3383754 40.9770308,12.5445378 41.7030812,11.4509804 C42.2901961,10.5770308 42.2005602,9.47002801 42.1288515,8.39439776 Z"></path>
                                <path d="M31.0991597,8.60952381 L31.4397759,8.99047619 C31.7471455,8.86362343 32.0401172,8.70436702 32.3137255,8.51540616 C32.6282393,8.4468413 32.9538335,8.4468413 33.2683473,8.51540616 C34.3340007,8.65690854 35.4171477,8.58530811 36.454902,8.3047619 C38.1893557,7.80728291 38.247619,5.92492997 38.3103641,4.27114846 C38.3417367,3.34789916 38.3731092,2.38879552 38.6913165,1.81064426 C38.9998254,1.22502357 39.6796152,0.939586994 40.3137255,1.12941176 C40.0851541,0.77535014 39.8655462,0.421288515 39.610084,0.0672268908 C38.8237219,0.131667955 38.1291918,0.604901765 37.7815126,1.31316527 C37.3333333,2.10644258 37.3109244,3.19103641 37.27507,4.23529412 C37.2168067,5.9697479 37.1092437,7.04537815 36.172549,7.30980392 C35.2572996,7.55707105 34.301716,7.61803332 33.362465,7.48907563 C32.6857143,7.43081232 32.1030812,7.37703081 31.6638655,7.72661064 C30.9877148,8.09289228 30.2777952,8.3930697 29.5439776,8.62296919 L31.0991597,8.60952381 Z"></path>
                                <path d="M6.52997199,11.1507003 C5.70126908,10.9118874 4.82198022,10.9118874 3.99327731,11.1507003 C3.11932773,11.329972 2.80112045,11.3703081 2.47394958,10.8817927 C2.0929972,10.3081232 2.16470588,9.42521008 2.24089636,8.48851541 C2.32605042,7.41288515 2.41120448,6.30588235 1.83305322,5.43641457 C1.53493378,4.97485706 1.18452844,4.54925745 0.788795518,4.16806723 L0.224089636,5.06442577 C0.502043438,5.35280696 0.752606432,5.6663858 0.97254902,6.00112045 C1.3535014,6.57030812 1.28179272,7.45770308 1.20560224,8.39439776 C1.12044818,9.47002801 1.03081232,10.5770308 1.61344538,11.4464986 C2.3394958,12.540056 3.32997199,12.3428571 4.19943978,12.1546218 C4.85208604,11.9605778 5.54597766,11.9528162 6.20280112,12.1322129 C6.69258658,12.3463862 7.03323067,12.8028493 7.09915966,13.3333333 C7.39047619,13.0957983 7.67282913,12.8537815 7.95070028,12.6072829 C7.7282296,11.9279486 7.20355181,11.3900297 6.52997199,11.1507003 L6.52997199,11.1507003 Z"></path>
                                <path d="M9.96302521,7.47563025 C9.02228426,7.60458399 8.06523723,7.54362558 7.14845938,7.29635854 C6.21176471,7.03193277 6.10420168,5.95182073 6.04593838,4.22184874 C6.01008403,3.17759104 5.97422969,2.0929972 5.5394958,1.29971989 C5.14529036,0.507242149 4.32678591,0.0157896865 3.44201681,0.0403361345 C3.18207283,0.430252101 2.92661064,0.820168067 2.67563025,1.20560224 C3.2,1.02633053 4.13221289,0.878431373 4.62969188,1.79719888 C4.94789916,2.37535014 4.97927171,3.33445378 5.01064426,4.25770308 C5.06890756,5.91596639 5.13613445,7.79831933 6.86610644,8.29131653 C7.9038607,8.57186273 8.98700767,8.64346316 10.0526611,8.50196078 C10.3671749,8.43339593 10.6927691,8.43339593 11.0072829,8.50196078 C11.2188327,8.65240525 11.4456732,8.78009695 11.6840336,8.88291317 L11.9484594,8.59159664 L13.8039216,8.61848739 C13.0604433,8.38011714 12.3415555,8.07095034 11.6571429,7.6952381 C11.2044818,7.36358543 10.6352941,7.41736695 9.96302521,7.47563025 Z"></path>
                            </g>
                        </g>
                        <path d="M75.1327731,33.9092437 C73.8733894,36.194958 72.8201681,38.0190476 72.8201681,38.0190476 C72.8201681,38.0190476 67.1058824,28.6072829 65.1070028,27.0207283 C63.1081232,25.4341737 55.6952381,24.022409 55.6952381,24.022409 C52.6616375,23.5471637 49.5725362,23.5471637 46.5389356,24.022409 C46.5389356,24.022409 39.112605,25.447619 37.1271709,27.0207283 C35.1417367,28.5938375 29.4095238,38.0190476 29.4095238,38.0190476 C29.4095238,38.0190476 28.2711485,36.042577 26.9445378,33.6268908 L23.0140056,36.0201681 C24.1613445,39.9596639 25.3579832,43.7378151 25.9809524,44.7327731 C27.4106443,47.0184874 28.9837535,49.8778711 32.8380952,48.1613445 C36.692437,46.4448179 41.5551821,40.8784314 41.5551821,40.8784314 L49.707563,41.0039216 L49.707563,41.0039216 L50.3215686,41.0039216 L50.8369748,41.0039216 L50.8369748,41.0039216 L60.6969188,40.8784314 C60.6969188,40.8784314 65.5551821,46.4492997 69.4095238,48.1613445 C73.2638655,49.8733894 74.8414566,47.0184874 76.2666667,44.7327731 C76.8941176,43.7333333 78.0952381,39.9417367 79.2470588,35.9887955 L75.1327731,33.9092437 Z" id="Path" stroke="#263238" stroke-width="0.5" stroke-linecap="round" stroke-linejoin="round"></path>
                        <path d="M38.8212885,34.0212885 C38.8212885,34.0212885 36.9658263,38.0190476 37.3960784,40.5915966 C37.5987946,41.6281945 37.7409588,42.6757201 37.8218487,43.7288515 C37.8218487,43.7288515 35.1327731,51.1596639 34.6845938,53.8711485 C34.2871633,56.170701 35.2286513,58.4966279 37.1137255,59.8722689 C38.6868347,61.0151261 60.1142857,61.3019608 63.3994398,60.4459384 C66.6845938,59.589916 66.3977591,56.4436975 66.2543417,53.5887955 C66.1109244,50.7338936 64.9859944,44.5938375 64.9859944,44.5938375 C64.9859944,44.5938375 65.4341737,35.8767507 63.5607843,33.7344538" id="Path" fill="#FFFFFF" fill-rule="nonzero"></path>
                        <g id="Group" transform="translate(29.579832, 33.613445)" fill-rule="nonzero">
                            <path d="M25.6403361,6.14901961 C24.8789029,6.11319263 24.1609209,5.78391678 23.6369748,5.2302521 C21.687395,3.43753501 20.3876751,3.14173669 19.0072829,4.14565826 L18.3753501,4.62969188 C16.9456583,5.7232493 15.5921569,6.75406162 13.4767507,5.44985994 C12.9927171,5.15406162 12.5535014,4.83585434 12.1680672,4.5535014 C10.7473389,3.52268908 10.1288515,3.1372549 9.11148459,3.97086835 C8.35406162,4.58935574 7.76694678,4.95686275 7.09467787,4.86722689 C6.23865546,4.76414566 5.63809524,3.97086835 4.44593838,2.37535014 L4.36526611,2.26778711 C4.01559209,1.71631687 3.44276853,1.34479987 2.79663866,1.25042017 C2.11827465,1.2634231 1.4698998,1.5323786 0.981512605,2.00336134 C0.884789395,2.1005207 0.753342523,2.15514107 0.616246499,2.15514107 C0.479150474,2.15514107 0.347703602,2.1005207 0.250980392,2.00336134 C0.152699999,1.907239 0.0973015725,1.7755672 0.0973015725,1.63809524 C0.0973015725,1.50062328 0.152699999,1.36895147 0.250980392,1.27282913 C0.950479715,0.590444455 1.89116313,0.211916027 2.86834734,0.219607843 C3.81771079,0.323232502 4.67096793,0.846037453 5.19439776,1.64481793 L5.27058824,1.75238095 C6.19383754,2.98039216 6.79887955,3.79159664 7.22016807,3.84089636 C7.45770308,3.86778711 7.83417367,3.66610644 8.45714286,3.15966387 C10.1288515,1.78823529 11.4151261,2.71148459 12.777591,3.70644258 C13.167507,3.98879552 13.5708683,4.28011204 14.0190476,4.55798319 C15.5294118,5.49019608 16.3630252,4.85378151 17.7478992,3.80056022 C17.9585434,3.63473389 18.1960784,3.46890756 18.4112045,3.30308123 C20.7058824,1.63137255 22.7002801,2.94901961 24.3495798,4.45938375 C25.5820728,5.58879552 26.3619048,5.09131653 27.9977591,3.85882353 C28.3114846,3.62577031 28.6386555,3.37478992 28.9927171,3.13277311 L29.1540616,3.02072829 C31.264986,1.55518207 31.4980392,1.67619048 34.3529412,3.25826331 L35.1193277,3.67955182 C36.1098039,4.22633053 36.7193277,4.57591036 37.0016807,4.54453782 C37.2840336,4.51316527 37.4901961,4.23529412 38.032493,3.62128852 C38.2521008,3.36582633 38.5165266,3.07002801 38.8392157,2.72492997 C41.1518207,0.246498599 41.9092437,0.41232493 43.7691877,1.25938375 L43.9170868,1.32661064 C44.0852118,1.40266718 44.19999,1.56263994 44.2181856,1.74626871 C44.2363812,1.92989749 44.1552299,2.10928471 44.0053005,2.21685695 C43.8553711,2.32442919 43.6594415,2.34384365 43.4913165,2.26778711 L43.3434174,2.20056022 C41.8016807,1.49691877 41.5238095,1.37142857 39.5966387,3.43305322 C39.287395,3.76918768 39.0319328,4.05602241 38.8123249,4.3070028 C37.3243697,5.99663866 37.0196078,5.9070028 34.6218487,4.58487395 L33.859944,4.16358543 C31.3322129,2.77422969 31.3322129,2.77422969 29.7501401,3.87226891 L29.5843137,3.98431373 C29.2436975,4.22184874 28.929972,4.45938375 28.6252101,4.68795518 C27.6257703,5.43193277 26.680112,6.14901961 25.6403361,6.14901961 Z M28.6072829,9.6627451 C28.9120448,9.43417367 29.2257703,9.19215686 29.5663866,8.95910364 L29.7322129,8.84705882 C31.3142857,7.74453782 31.3142857,7.74901961 33.8420168,9.13837535 L34.6039216,9.55966387 C36.9927171,10.8817927 37.2929972,10.9714286 38.7943978,9.28179272 C39.0140056,9.03081232 39.2694678,8.7394958 39.5787115,8.40784314 C41.5058824,6.34173669 41.7837535,6.47170868 43.3254902,7.17535014 L43.4733894,7.24257703 C43.7332881,7.36015025 44.0392895,7.24477266 44.1568627,6.98487395 C44.274436,6.72497524 44.1590584,6.41897378 43.8991597,6.30140056 L43.7512605,6.23417367 C41.9002801,5.38711485 41.1383754,5.22128852 38.8212885,7.69971989 C38.4985994,8.04481793 38.2341737,8.34061625 38.0145658,8.59607843 C37.4722689,9.21008403 37.2033613,9.49243697 36.9837535,9.51932773 C36.7641457,9.54621849 36.087395,9.20112045 35.1014006,8.65434174 L34.335014,8.23305322 C31.480112,6.65994398 31.2470588,6.52997199 29.1361345,7.99551821 L28.9747899,8.10756303 C28.6207283,8.34957983 28.2935574,8.59607843 27.9798319,8.83361345 C26.3439776,10.0661064 25.5641457,10.5635854 24.3316527,9.43417367 C22.6823529,7.92380952 20.6879552,6.60168067 18.3932773,8.27338936 C18.1602241,8.44369748 17.945098,8.60952381 17.729972,8.77535014 C16.345098,9.82857143 15.5114846,10.464986 14.0011204,9.53277311 C13.5529412,9.25490196 13.1495798,8.96358543 12.7596639,8.68123249 C11.4151261,7.6952381 10.1109244,6.76302521 8.43921569,8.13445378 C7.8162465,8.64089636 7.45322129,8.84705882 7.2022409,8.81568627 C6.78095238,8.76638655 6.17591036,7.95518207 5.25266106,6.72717087 L5.17647059,6.61960784 C4.65304076,5.82082737 3.79978362,5.29802242 2.85042017,5.19439776 C1.87323595,5.18670594 0.932552545,5.56523437 0.233053221,6.24761905 C0.134772829,6.34374139 0.0793744017,6.47541319 0.0793744017,6.61288515 C0.0793744017,6.75035711 0.134772829,6.88202892 0.233053221,6.97815126 C0.329776431,7.07531062 0.461223303,7.12993099 0.598319328,7.12993099 C0.735415352,7.12993099 0.866862224,7.07531062 0.963585434,6.97815126 C1.45197263,6.50716851 2.10034748,6.23821302 2.77871148,6.22521008 C3.42659617,6.3149041 4.00122763,6.68759365 4.34733894,7.24257703 L4.4280112,7.35014006 C5.62016807,8.94117647 6.22072829,9.73893557 7.0767507,9.84201681 C7.73109244,9.92268908 8.33613445,9.55518207 9.09355742,8.94565826 C10.1109244,8.11652661 10.7294118,8.49747899 12.1501401,9.53277311 C12.5355742,9.81512605 12.9747899,10.1333333 13.4588235,10.4291317 C15.5742297,11.7333333 16.9277311,10.702521 18.357423,9.60896359 L19.0028011,9.12492997 C20.3831933,8.1210084 21.6918768,8.42577031 23.632493,10.2095238 C24.1595428,10.755704 24.8773994,11.0768926 25.6358543,11.1059034 C26.680112,11.1103641 27.6257703,10.3977591 28.6072829,9.6627451 Z" id="Shape" fill="#ADC7F7"></path>
                            <path d="M25.6403361,6.14901961 C24.8789029,6.11319263 24.1609209,5.78391678 23.6369748,5.2302521 C21.687395,3.43753501 20.3876751,3.14173669 19.0072829,4.14565826 L18.3753501,4.62969188 C16.9456583,5.7232493 15.5921569,6.75406162 13.4767507,5.44985994 C12.9927171,5.15406162 12.5535014,4.83585434 12.1680672,4.5535014 C10.7473389,3.52268908 10.1288515,3.1372549 9.11148459,3.97086835 C8.35406162,4.58935574 7.76694678,4.95686275 7.09467787,4.86722689 C6.23865546,4.76414566 5.63809524,3.97086835 4.44593838,2.37535014 L4.36526611,2.26778711 C4.01559209,1.71631687 3.44276853,1.34479987 2.79663866,1.25042017 C2.11827465,1.2634231 1.4698998,1.5323786 0.981512605,2.00336134 C0.884789395,2.1005207 0.753342523,2.15514107 0.616246499,2.15514107 C0.479150474,2.15514107 0.347703602,2.1005207 0.250980392,2.00336134 C0.152699999,1.907239 0.0973015725,1.7755672 0.0973015725,1.63809524 C0.0973015725,1.50062328 0.152699999,1.36895147 0.250980392,1.27282913 C0.950479715,0.590444455 1.89116313,0.211916027 2.86834734,0.219607843 C3.81771079,0.323232502 4.67096793,0.846037453 5.19439776,1.64481793 L5.27058824,1.75238095 C6.19383754,2.98039216 6.79887955,3.79159664 7.22016807,3.84089636 C7.45770308,3.86778711 7.83417367,3.66610644 8.45714286,3.15966387 C10.1288515,1.78823529 11.4151261,2.71148459 12.777591,3.70644258 C13.167507,3.98879552 13.5708683,4.28011204 14.0190476,4.55798319 C15.5294118,5.49019608 16.3630252,4.85378151 17.7478992,3.80056022 C17.9585434,3.63473389 18.1960784,3.46890756 18.4112045,3.30308123 C20.7058824,1.63137255 22.7002801,2.94901961 24.3495798,4.45938375 C25.5820728,5.58879552 26.3619048,5.09131653 27.9977591,3.85882353 C28.3114846,3.62577031 28.6386555,3.37478992 28.9927171,3.13277311 L29.1540616,3.02072829 C31.264986,1.55518207 31.4980392,1.67619048 34.3529412,3.25826331 L35.1193277,3.67955182 C36.1098039,4.22633053 36.7193277,4.57591036 37.0016807,4.54453782 C37.2840336,4.51316527 37.4901961,4.23529412 38.032493,3.62128852 C38.2521008,3.36582633 38.5165266,3.07002801 38.8392157,2.72492997 C41.1518207,0.246498599 41.9092437,0.41232493 43.7691877,1.25938375 L43.9170868,1.32661064 C44.0852118,1.40266718 44.19999,1.56263994 44.2181856,1.74626871 C44.2363812,1.92989749 44.1552299,2.10928471 44.0053005,2.21685695 C43.8553711,2.32442919 43.6594415,2.34384365 43.4913165,2.26778711 L43.3434174,2.20056022 C41.8016807,1.49691877 41.5238095,1.37142857 39.5966387,3.43305322 C39.287395,3.76918768 39.0319328,4.05602241 38.8123249,4.3070028 C37.3243697,5.99663866 37.0196078,5.9070028 34.6218487,4.58487395 L33.859944,4.16358543 C31.3322129,2.77422969 31.3322129,2.77422969 29.7501401,3.87226891 L29.5843137,3.98431373 C29.2436975,4.22184874 28.929972,4.45938375 28.6252101,4.68795518 C27.6257703,5.43193277 26.680112,6.14901961 25.6403361,6.14901961 Z M28.6072829,9.6627451 C28.9120448,9.43417367 29.2257703,9.19215686 29.5663866,8.95910364 L29.7322129,8.84705882 C31.3142857,7.74453782 31.3142857,7.74901961 33.8420168,9.13837535 L34.6039216,9.55966387 C36.9927171,10.8817927 37.2929972,10.9714286 38.7943978,9.28179272 C39.0140056,9.03081232 39.2694678,8.7394958 39.5787115,8.40784314 C41.5058824,6.34173669 41.7837535,6.47170868 43.3254902,7.17535014 L43.4733894,7.24257703 C43.7332881,7.36015025 44.0392895,7.24477266 44.1568627,6.98487395 C44.274436,6.72497524 44.1590584,6.41897378 43.8991597,6.30140056 L43.7512605,6.23417367 C41.9002801,5.38711485 41.1383754,5.22128852 38.8212885,7.69971989 C38.4985994,8.04481793 38.2341737,8.34061625 38.0145658,8.59607843 C37.4722689,9.21008403 37.2033613,9.49243697 36.9837535,9.51932773 C36.7641457,9.54621849 36.087395,9.20112045 35.1014006,8.65434174 L34.335014,8.23305322 C31.480112,6.65994398 31.2470588,6.52997199 29.1361345,7.99551821 L28.9747899,8.10756303 C28.6207283,8.34957983 28.2935574,8.59607843 27.9798319,8.83361345 C26.3439776,10.0661064 25.5641457,10.5635854 24.3316527,9.43417367 C22.6823529,7.92380952 20.6879552,6.60168067 18.3932773,8.27338936 C18.1602241,8.44369748 17.945098,8.60952381 17.729972,8.77535014 C16.345098,9.82857143 15.5114846,10.464986 14.0011204,9.53277311 C13.5529412,9.25490196 13.1495798,8.96358543 12.7596639,8.68123249 C11.4151261,7.6952381 10.1109244,6.76302521 8.43921569,8.13445378 C7.8162465,8.64089636 7.45322129,8.84705882 7.2022409,8.81568627 C6.78095238,8.76638655 6.17591036,7.95518207 5.25266106,6.72717087 L5.17647059,6.61960784 C4.65304076,5.82082737 3.79978362,5.29802242 2.85042017,5.19439776 C1.87323595,5.18670594 0.932552545,5.56523437 0.233053221,6.24761905 C0.134772829,6.34374139 0.0793744017,6.47541319 0.0793744017,6.61288515 C0.0793744017,6.75035711 0.134772829,6.88202892 0.233053221,6.97815126 C0.329776431,7.07531062 0.461223303,7.12993099 0.598319328,7.12993099 C0.735415352,7.12993099 0.866862224,7.07531062 0.963585434,6.97815126 C1.45197263,6.50716851 2.10034748,6.23821302 2.77871148,6.22521008 C3.42659617,6.3149041 4.00122763,6.68759365 4.34733894,7.24257703 L4.4280112,7.35014006 C5.62016807,8.94117647 6.22072829,9.73893557 7.0767507,9.84201681 C7.73109244,9.92268908 8.33613445,9.55518207 9.09355742,8.94565826 C10.1109244,8.11652661 10.7294118,8.49747899 12.1501401,9.53277311 C12.5355742,9.81512605 12.9747899,10.1333333 13.4588235,10.4291317 C15.5742297,11.7333333 16.9277311,10.702521 18.357423,9.60896359 L19.0028011,9.12492997 C20.3831933,8.1210084 21.6918768,8.42577031 23.632493,10.2095238 C24.1595428,10.755704 24.8773994,11.0768926 25.6358543,11.1059034 C26.680112,11.1103641 27.6257703,10.3977591 28.6072829,9.6627451 Z" id="Shape" fill="#FFFFFF" opacity="0.5"></path>
                        </g>
                        <path d="M38.8212885,34.0212885 C38.8212885,34.0212885 36.9658263,38.0190476 37.3960784,40.5915966 C37.5987946,41.6281945 37.7409588,42.6757201 37.8218487,43.7288515 C37.8218487,43.7288515 35.1327731,51.1596639 34.6845938,53.8711485 C34.2871633,56.170701 35.2286513,58.4966279 37.1137255,59.8722689 C38.6868347,61.0151261 60.1142857,61.3019608 63.3994398,60.4459384 C66.6845938,59.589916 66.3977591,56.4436975 66.2543417,53.5887955 C66.1109244,50.7338936 64.9859944,44.5938375 64.9859944,44.5938375 C64.9859944,44.5938375 65.4341737,35.8767507 63.5607843,33.7344538" id="Path" stroke="#263238" stroke-width="0.5" stroke-linecap="round" stroke-linejoin="round"></path>
                        <path d="M46.5254902,24.022409 L45.9159664,24.1434174 C45.8575316,24.4084735 45.8259993,24.6787508 45.8218487,24.9501401 C45.8218487,27.6705882 48.735014,29.880112 52.32493,29.880112 C55.9148459,29.880112 58.8235294,27.6705882 58.8235294,24.9501401 C58.8235294,24.8694678 58.8235294,24.7977591 58.8235294,24.7170868 C57.0890756,24.2689076 55.6862745,24.022409 55.6862745,24.022409 C52.6512074,23.5466955 49.5605574,23.5466955 46.5254902,24.022409 L46.5254902,24.022409 Z" id="Path" stroke="#263238" stroke-width="0.5" fill="#ADC7F7" fill-rule="nonzero" stroke-linecap="round" stroke-linejoin="round"></path>
                        <path d="M47.9551821,21.3064426 C47.9551821,21.3064426 47.5070028,24.735014 47.9551821,25.8778711 C48.4033613,27.0207283 51.092437,29.1630252 53.8128852,28.3070028 C55.6336655,27.7353429 56.8927323,26.0733746 56.9501401,24.1658263 L56.9501401,20.1680672 L48.0941176,20.454902 L47.9551821,21.3064426 Z" id="Path" stroke="#263238" stroke-width="0.5" fill="#9C9C9C" fill-rule="nonzero" stroke-linecap="round" stroke-linejoin="round"></path>
                        <ellipse id="Oval" stroke="#263238" stroke-width="0.5" fill="#263238" fill-rule="nonzero" stroke-linecap="round" stroke-linejoin="round" cx="52.5355742" cy="9.94957983" rx="10.1422969" ry="9.92717087"></ellipse>
                        <path d="M46.1086835,13.3064426 C46.1086835,13.3064426 45.2526611,11.307563 44.6789916,13.1630252 C44.1053221,15.0184874 45.3960784,17.3086835 46.2521008,17.447619 C47.1081232,17.5865546 46.1086835,13.3064426 46.1086835,13.3064426 Z" id="Path" stroke="#263238" stroke-width="0.5" fill="#9C9C9C" fill-rule="nonzero" stroke-linecap="round" stroke-linejoin="round"></path>
                        <path d="M58.4560224,13.3064426 C58.4560224,13.3064426 59.3120448,11.307563 59.8857143,13.1630252 C60.4593838,15.0184874 59.1686275,17.3086835 58.312605,17.447619 C57.4565826,17.5865546 58.4560224,13.3064426 58.4560224,13.3064426 Z" id="Path" stroke="#263238" stroke-width="0.5" fill="#9C9C9C" fill-rule="nonzero" stroke-linecap="round" stroke-linejoin="round"></path>
                        <path d="M56.757423,6.63305322 C55.9824212,6.04313188 54.996006,5.80424716 54.0369748,5.97422969 C53.1665326,6.14459336 52.2785147,6.20780819 51.3927171,6.16246499 C49.967507,6.02352941 48.8246499,5.44985994 47.6817927,6.61064426 C46.5389356,7.77142857 45.9652661,13.037535 45.9652661,15.7535014 C45.9652661,18.4694678 47.9551821,22.3058824 49.3938375,23.3053221 C50.832493,24.3047619 54.8212885,24.1658263 55.8207283,23.3053221 C56.8201681,22.4448179 58.3932773,19.307563 58.680112,16.735014 C58.9669468,14.162465 58.3932773,9.16526611 57.8240896,7.8789916 C57.5723725,7.38496526 57.2067545,6.95789883 56.757423,6.63305322 L56.757423,6.63305322 Z" id="Path" stroke="#263238" stroke-width="0.5" fill="#9C9C9C" fill-rule="nonzero" stroke-linecap="round" stroke-linejoin="round"></path>
                        <ellipse id="Oval" fill="#263238" fill-rule="nonzero" cx="50.4022409" cy="12.8582633" rx="1" ry="1"></ellipse>
                        <path d="M55.1484594,12.8582633 C55.1484594,13.3422969 54.9109244,13.7322129 54.6151261,13.7322129 C54.3193277,13.7322129 54.0817927,13.3422969 54.0817927,12.8582633 C54.0817927,12.3742297 54.3238095,11.9843137 54.6151261,11.9843137 C54.9064426,11.9843137 55.1484594,12.3787115 55.1484594,12.8582633 Z" id="Path" fill="#263238" fill-rule="nonzero"></path>
                        <path d="M53.1630252,17.8016807 C53.1630252,18.2812325 52.9254902,18.6711485 52.6296919,18.6711485 C52.3338936,18.6711485 52.0963585,18.2812325 52.0963585,17.8016807 C52.0963585,17.3221289 52.3338936,16.9277311 52.6296919,16.9277311 C52.9254902,16.9277311 53.1630252,17.3176471 53.1630252,17.8016807 Z" id="Path" fill="#263238" fill-rule="nonzero"></path>
                        <path d="M51.5630252,13.92493 C50.6666667,15.3277311 52.3697479,16.2285714 53.5036415,15.3770308 C54.2789916,14.7943978 53.5036415,13.92493 53.5036415,13.92493" id="Path" stroke="#263238" stroke-width="0.5" fill="#9C9C9C" fill-rule="nonzero" stroke-linecap="round" stroke-linejoin="round"></path>
                        <path d="M48.5602241,10.9221289 C48.5602241,10.9221289 50.0123249,9.57759104 51.4689076,10.2408964" id="Path" stroke="#263238" stroke-width="0.5" stroke-linecap="round" stroke-linejoin="round"></path>
                        <path d="M53.8890756,10.3394958 C53.8890756,10.3394958 55.2336134,9.46554622 56.5064426,11.1148459" id="Path" stroke="#263238" stroke-width="0.5" stroke-linecap="round" stroke-linejoin="round"></path>
                        <path d="M8.87394958,105.577591 C8.87394958,105.577591 0.291316527,107.258263 0.291316527,108.132213 C0.291316527,109.006162 11.2268908,111.489076 12.3921569,111.632493 C13.557423,111.77591 13.7366947,106.146779 13.7366947,106.146779 L8.87394958,105.577591 Z" id="Path" stroke="#263238" stroke-width="0.5" fill="#FFFFFF" fill-rule="nonzero" stroke-linecap="round" stroke-linejoin="round"></path>
                        <path d="M13.1092437,110.794398 L0.864985994,107.657143 C0.506442577,107.822969 0.291316527,107.984314 0.291316527,108.105322 C0.291316527,109.001681 11.2268908,111.462185 12.3921569,111.605602 C12.692437,111.668347 12.9254902,111.323249 13.1092437,110.794398 Z" id="Path" stroke="#263238" stroke-width="0.5" fill="#ADC7F7" fill-rule="nonzero" stroke-linecap="round" stroke-linejoin="round"></path>
                        <path d="M31.1619048,106.577031 C31.1619048,106.577031 22.4537815,110.319328 23.0364146,111.197759 C23.6190476,112.07619 34.9938375,111.645938 36.1591036,111.489076 C37.3243697,111.332213 36.1591036,106.146779 36.1591036,106.146779 L31.1619048,106.577031 Z" id="Path" stroke="#263238" stroke-width="0.5" fill="#FFFFFF" fill-rule="nonzero" stroke-linecap="round" stroke-linejoin="round"></path>
                        <path d="M23.3053221,110.646499 C23.0498599,110.87507 22.9333333,111.067787 23.0184874,111.197759 C23.6011204,112.071709 34.9759104,111.645938 36.1411765,111.489076 C36.4235294,111.453221 36.5669468,111.121569 36.6252101,110.646499 L23.3053221,110.646499 Z" id="Path" stroke="#263238" stroke-width="0.5" fill="#ADC7F7" fill-rule="nonzero" stroke-linecap="round" stroke-linejoin="round"></path>
                    </g>
                    <g id="freepik--Device--inject-291" transform="translate(22.408964, 59.607843)" fill-rule="nonzero">
                        <rect id="Rectangle" stroke="#263238" stroke-width="0.5" fill="#FFFFFF" stroke-linecap="round" stroke-linejoin="round" transform="translate(31.706443, 31.923810) rotate(180.000000) translate(-31.706443, -31.923810) " x="15.2739496" y="31.2605042" width="32.864986" height="1.32661064"></rect>
                        <rect id="Rectangle" stroke="#263238" stroke-width="0.5" fill="#FFFFFF" stroke-linecap="round" stroke-linejoin="round" transform="translate(22.438095, 31.923810) rotate(180.000000) translate(-22.438095, -31.923810) " x="6.00560224" y="31.2605042" width="32.864986" height="1.32661064"></rect>
                        <polygon id="Path" stroke="#263238" stroke-width="0.5" fill="#FFFFFF" stroke-linecap="round" stroke-linejoin="round" points="9.66722689 28.9030812 37.0733894 28.9030812 34.119888 7.98207283 6.71372549 7.98207283"></polygon>
                        <polygon id="Path" stroke="#263238" stroke-width="0.5" fill="#263238" stroke-linecap="round" stroke-linejoin="round" points="8.53333333 28.9030812 35.9394958 28.9030812 32.9859944 7.98207283 5.57983193 7.98207283"></polygon>
                        <path d="M16.9322129,19.177591 L14.1803922,32.5871148 L21.2526611,32.5871148 L24.0044818,19.177591 L16.9322129,19.177591 Z M21.7277311,23.157423 C21.7009494,23.2696567 21.6010951,23.3491703 21.4857143,23.3501401 L17.4789916,23.3053221 C17.4025475,23.3046809 17.3305632,23.2692341 17.2834484,23.2090319 C17.2363336,23.1488296 17.2192255,23.0704362 17.2369748,22.9960784 L17.6,21.4946779 C17.6271693,21.3808148 17.7294441,21.3008545 17.8464986,21.3019494 L21.8532213,21.3422969 C21.928504,21.3429007 21.9993834,21.3778748 22.0456644,21.4372542 C22.0919454,21.4966337 22.1085534,21.5739075 22.0907563,21.6470588 L21.7277311,23.157423 Z" id="Shape" stroke="#263238" stroke-width="0.5" fill="#FFFFFF" stroke-linecap="round" stroke-linejoin="round"></path>
                        <circle id="Oval" stroke="#263238" stroke-width="0.5" fill="#ADC7F7" stroke-linecap="round" stroke-linejoin="round" transform="translate(6.205770, 6.471302) rotate(-76.720000) translate(-6.205770, -6.471302) " cx="6.20577037" cy="6.47130221" r="5.0464986"></circle>
                        <path d="M6.13557423,7.50252101 L4.64761905,9.19663866 C4.58254099,9.28216023 4.50379924,9.35635919 4.41456583,9.4162465 C4.20720232,9.5739175 3.93480407,9.61763573 3.68851541,9.53277311 C3.49814546,9.47622127 3.34543332,9.33346861 3.27619048,9.14733894 C3.17381596,8.83781441 3.2634029,8.49703274 3.5047619,8.27787115 L5.2302521,6.44929972 L3.58543417,4.54005602 C3.45941867,4.38834633 3.3869552,4.19931119 3.37927171,4.0022409 C3.36547728,3.83815112 3.42069816,3.67573677 3.53165266,3.55406162 C3.6385902,3.44227969 3.77075912,3.35775305 3.91708683,3.30756303 C4.07787234,3.24973908 4.25378033,3.24973908 4.41456583,3.30756303 C4.60775913,3.38121339 4.77575464,3.50876554 4.89859944,3.67507003 L6.32829132,5.37815126 L7.67282913,3.8140056 C7.74235035,3.71474072 7.82704432,3.62702197 7.92380952,3.55406162 C8.12975686,3.36150827 8.42855657,3.30559253 8.69019608,3.41064426 C8.87607937,3.47807371 9.02441866,3.62152269 9.09803922,3.80504202 C9.19612596,4.0184268 9.15538724,4.26994411 8.99495798,4.44145658 L7.2022409,6.4 L8.99495798,8.50196078 C9.05193187,8.57277174 9.09869873,8.65121938 9.13389356,8.73501401 C9.22227533,8.95687407 9.17901048,9.20954081 9.02184874,9.38935574 C8.88301686,9.56639879 8.67303507,9.67303016 8.44817927,9.68067227 C8.11239662,9.68674602 7.79789682,9.51674613 7.61904762,9.232493 L6.13557423,7.50252101 Z" id="Path" fill="#263238"></path>
                    </g>
                    <g id="freepik--Table--inject-291" transform="translate(7.619048, 91.428571)" fill-rule="nonzero" stroke="#263238" stroke-linecap="round" stroke-linejoin="round" stroke-width="0.5">
                        <path d="M85.6022409,8.39439776 L84.1770308,62.0459384 C84.1599938,62.7564235 83.5790367,63.3232494 82.8683473,63.3232494 L82.8683473,63.3232494 C82.1552914,63.316014 81.5783258,62.7410379 81.5686275,62.0280112 L80.8694678,8.39439776 L85.6022409,8.39439776 Z" id="Path" fill="#FFFFFF"></path>
                        <path d="M68.2756303,8.39439776 L66.854902,62.0459384 C66.8378279,62.7581689 66.2541669,63.3258938 65.5417367,63.3232585 L65.5417367,63.3232585 C64.8241891,63.3232585 64.2404253,62.7455209 64.2330532,62.0280112 L63.5294118,8.39439776 L68.2756303,8.39439776 Z" id="Path" fill="#FFFFFF"></path>
                        <path d="M25.4207283,8.39439776 L24,62.0459384 C23.982926,62.7581689 23.399265,63.3258938 22.6868347,63.3232585 L22.6868347,63.3232585 C21.9692872,63.3232585 21.3855233,62.7455209 21.3781513,62.0280112 L20.6745098,8.39439776 L25.4207283,8.39439776 Z" id="Path" fill="#FFFFFF"></path>
                        <path d="M8.06722689,8.39439776 L6.66442577,62.0459384 C6.64769498,62.7478045 6.08011717,63.311427 5.37815126,63.3236274 L5.37815126,63.3236274 C5.02756265,63.3316589 4.68817551,63.1994875 4.43561354,62.9561861 C4.18305158,62.7128848 4.03830017,62.3786693 4.03361345,62.0280112 L3.34341737,8.39439776 L8.06722689,8.39439776 Z" id="Path" fill="#FFFFFF"></path>
                        <rect id="Rectangle" fill="#FFFFFF" transform="translate(44.528852, 5.747899) rotate(180.000000) translate(-44.528852, -5.747899) " x="1.76134454" y="2.53669468" width="85.535014" height="6.42240896"></rect>
                        <rect id="Rectangle" fill="#FFFFFF" transform="translate(75.350140, 5.747899) rotate(180.000000) translate(-75.350140, -5.747899) " x="63.4039216" y="2.53669468" width="23.892437" height="6.42240896"></rect>
                        <rect id="Rectangle" fill="#263238" transform="translate(44.528852, 4.141176) rotate(180.000000) translate(-44.528852, -4.141176) " x="1.76134454" y="2.53669468" width="85.535014" height="3.20896359"></rect>
                        <rect id="Rectangle" fill="#ADC7F7" transform="translate(44.528852, 2.095238) rotate(180.000000) translate(-44.528852, -2.095238) " x="0.434733894" y="0.327170868" width="88.1882353" height="3.53613445"></rect>
                        <rect id="Rectangle" fill="#ADC7F7" transform="translate(31.126050, 2.095238) rotate(180.000000) translate(-31.126050, -2.095238) " x="0.434733894" y="0.327170868" width="61.3826331" height="3.53613445"></rect>
                    </g>
                    <g id="freepik--Floor--inject-291" transform="translate(0.000000, 154.173669)" stroke="#263238" stroke-linecap="round" stroke-linejoin="round" stroke-width="0.5">
                        <line x1="200.681232" y1="0.578151261" x2="204.369748" y2="0.578151261" id="Path"></line>
                        <line x1="0" y1="0.578151261" x2="194.680112" y2="0.578151261" id="Path"></line>
                    </g>
                </g>
            </g>
        </g>
    </g>
</svg>