<?xml version="1.0" encoding="UTF-8"?>
<svg width="179px" height="162px" viewBox="0 0 179 162" version="1.1" xmlns="http://www.w3.org/2000/svg" xmlns:xlink="http://www.w3.org/1999/xlink">
    <title>403 Error Forbidden-bro</title>
    <g id="Page-1" stroke="none" stroke-width="1" fill="none" fill-rule="evenodd">
        <g id="hashtag-copy" transform="translate(-982.000000, -744.000000)">
            <g id="check_no" transform="translate(752.000000, 572.000000)">
                <g id="403-Error-Forbidden-bro" transform="translate(231.000000, 172.000000)">
                    <g id="freepik--background-simple--inject-2" transform="translate(6.800000, 0.000000)" fill-rule="nonzero">
                        <path d="M0.204,86.58525 C0.204,86.58525 1.19,117.18525 26.73675,137.58525 C52.2835,157.98525 87.686,159.443 116.34375,161.38525 C145.0015,163.3275 167.0165,147.09675 170.31875,122.57425 C173.621,98.05175 151.73775,90.85225 139.85475,62.934 C127.97175,35.01575 129.047,25.84 103.90825,8.67 C78.7695,-8.5 39.44,2.04425 18.82325,31.45 C-1.7935,60.85575 0.204,86.58525 0.204,86.58525 Z" id="Path" fill="#ADC7F7"></path>
                        <path d="M0.204,86.58525 C0.204,86.58525 1.19,117.18525 26.73675,137.58525 C52.2835,157.98525 87.686,159.443 116.34375,161.38525 C145.0015,163.3275 167.0165,147.09675 170.31875,122.57425 C173.621,98.05175 151.73775,90.85225 139.85475,62.934 C127.97175,35.01575 129.047,25.84 103.90825,8.67 C78.7695,-8.5 39.44,2.04425 18.82325,31.45 C-1.7935,60.85575 0.204,86.58525 0.204,86.58525 Z" id="Path" fill="#FFFFFF" opacity="0.7"></path>
                    </g>
                    <g id="freepik--Padlock--inject-2" transform="translate(11.050000, 15.725000)" stroke="#263238" stroke-linecap="round" stroke-linejoin="round" stroke-width="0.5">
                        <path d="M7.90925,30.89325 L7.90925,19.941 C7.90925,12.189 14.35225,5.882 22.27,5.882 C30.18775,5.882 36.63075,12.189 36.63075,19.941 L36.63075,30.89325 L42.3555,30.89325 L42.3555,19.941 C42.3555,9.09925 33.3455,0.27625 22.27,0.27625 C11.1945,0.27625 2.1845,9.09925 2.1845,19.941 L2.1845,30.89325 L7.90925,30.89325 Z" id="Path"></path>
                        <rect id="Rectangle" x="0.0595" y="30.96975" width="43.8515" height="36.27375"></rect>
                        <path d="M26.5455,46.036 C26.4684705,43.4543606 24.3534133,41.4014701 21.770625,41.4014701 C19.1878367,41.4014701 17.0727795,43.4543606 16.99575,46.036 C17.0061885,47.7656027 17.9707334,49.3481102 19.50325,50.15 L18.7,58.3865 L24.84125,58.3865 L24.038,50.15 C25.5705166,49.3481102 26.5350615,47.7656027 26.5455,46.036 L26.5455,46.036 Z" id="Path"></path>
                    </g>
                    <g id="freepik--Padlock--inject-2" transform="translate(123.000000, 16.000000)" stroke="#263238" stroke-linecap="round" stroke-linejoin="round" stroke-width="0.5">
                        <path d="M3.954625,15.446625 L3.954625,9.9705 C3.954625,6.0945 7.176125,2.941 11.135,2.941 C15.093875,2.941 18.315375,6.0945 18.315375,9.9705 L18.315375,15.446625 L21.17775,15.446625 L21.17775,9.9705 C21.17775,4.549625 16.67275,0.138125 11.135,0.138125 C5.59725,0.138125 1.09225,4.549625 1.09225,9.9705 L1.09225,15.446625 L3.954625,15.446625 Z" id="Path"></path>
                        <rect id="Rectangle" x="0.02975" y="15.484875" width="21.92575" height="18.136875"></rect>
                        <path d="M13.27275,23.018 C13.2342352,21.7271803 12.1767066,20.7007351 10.8853125,20.7007351 C9.59391836,20.7007351 8.53638977,21.7271803 8.497875,23.018 C8.50309426,23.8828013 8.9853667,24.6740551 9.751625,25.075 L9.35,29.19325 L12.420625,29.19325 L12.019,25.075 C12.7852583,24.6740551 13.2675307,23.8828013 13.27275,23.018 L13.27275,23.018 Z" id="Path"></path>
                    </g>
                    <g id="freepik--Character--inject-2" transform="translate(40.375000, 27.200000)">
                        <polygon id="Path" stroke="#263238" stroke-width="0.5" fill="#263238" fill-rule="nonzero" stroke-linecap="round" stroke-linejoin="round" points="41.922 56.94575 31.00375 56.2275 31.00375 56.049 29.66075 56.13825 28.322 56.049 28.322 56.2275 17.40375 56.94575 9.35 123.16075 17.40375 123.16075 29.393 70.36725 29.93275 70.36725 41.922 123.16075 49.97575 123.16075"></polygon>
                        <path d="M9.35,123.1565 L7.38225,126.1995 L1.29625,128.8855 C0.643573881,129.246034 0.234663343,129.929175 0.22525,130.67475 L0.22525,132.9995 L17.58225,132.9995 C17.684529,131.749255 17.684529,130.492745 17.58225,129.2425 C17.40375,127.45325 17.40375,123.1565 17.40375,123.1565 L9.35,123.1565 Z" id="Path" stroke="#263238" stroke-width="0.5" fill="#4C4C4C" fill-rule="nonzero" stroke-linecap="round" stroke-linejoin="round"></path>
                        <path d="M0.22525,131.03175 L0.22525,132.9995 L17.58225,132.9995 C17.58225,132.9995 17.663,132.1495 17.663,131.03175 L0.22525,131.03175 Z" id="Path" stroke="#263238" stroke-width="0.5" fill="#263238" fill-rule="nonzero" stroke-linecap="round" stroke-linejoin="round"></path>
                        <path d="M49.94175,123.1565 L51.9095,126.1995 L57.9955,128.8855 C58.6481761,129.246034 59.0570867,129.929175 59.0665,130.67475 L59.0665,132.9995 L41.7095,132.9995 C41.607221,131.749255 41.607221,130.492745 41.7095,129.2425 C41.888,127.45325 41.888,123.1565 41.888,123.1565 L49.94175,123.1565 Z" id="Path" stroke="#263238" stroke-width="0.5" fill="#4C4C4C" fill-rule="nonzero" stroke-linecap="round" stroke-linejoin="round"></path>
                        <path d="M59.075,131.03175 L59.075,132.9995 L41.7095,132.9995 C41.7095,132.9995 41.633,132.1495 41.62875,131.03175 L59.075,131.03175 Z" id="Path" stroke="#263238" stroke-width="0.5" fill="#263238" fill-rule="nonzero" stroke-linecap="round" stroke-linejoin="round"></path>
                        <path d="M12.77975,26.14175 C12.77975,26.14175 0.02975,44.05975 0.02975,45.373 C0.02975,46.68625 2.057,56.82675 5.2785,57.77875 C8.5,58.73075 10.28925,57.06475 10.88425,53.72425 C11.47925,50.38375 9.452,45.611 9.452,45.611 L15.402,40.24325 L12.77975,26.14175 Z" id="Path" stroke="#263238" stroke-width="0.5" fill="#ADC7F7" fill-rule="nonzero" stroke-linecap="round" stroke-linejoin="round"></path>
                        <path d="M10.30625,53.24825 C10.30625,53.24825 14.00375,52.649 14.96,52.887 C15.91625,53.125 16.63025,55.3945 16.63025,55.3945 C16.63025,55.3945 16.98725,58.735 16.388,59.449 C15.78875,60.163 12.9285,61.00025 11.7385,61.23825 C10.5485,61.47625 8.03675,58.735 7.0635,57.06475 C6.09025,55.3945 7.79875,52.53 10.30625,53.24825 Z" id="Path" stroke="#263238" stroke-width="0.5" fill="#CCCCCC" fill-rule="nonzero" stroke-linecap="round" stroke-linejoin="round"></path>
                        <polygon id="Path" stroke="#263238" stroke-width="0.5" fill="#ADC7F7" fill-rule="nonzero" stroke-linecap="round" stroke-linejoin="round" points="15.4615 25.33 12.77975 26.14175 17.00425 54.3405 42.11325 54.3405 45.934 26.30325 42.52125 25.00275 29.92425 22.24025"></polygon>
                        <polygon id="Path" stroke="#263238" stroke-width="0.5" fill="#263238" fill-rule="nonzero" stroke-linecap="round" stroke-linejoin="round" points="43.4945 34.7565 42.92925 38.8195 38.539 39.8735 34.068 38.0885 34.39525 34.42925"></polygon>
                        <circle id="Oval" stroke="#263238" stroke-width="0.5" fill="#4C4C4C" fill-rule="nonzero" stroke-linecap="round" stroke-linejoin="round" cx="38.82375" cy="38.046" r="1"></circle>
                        <polygon id="Path" stroke="#263238" stroke-width="0.5" fill="#263238" fill-rule="nonzero" stroke-linecap="round" stroke-linejoin="round" points="27.2425 27.44225 29.60125 30.20475 26.59225 49.38075 29.76275 54.42125 33.50275 49.1385 30.33225 30.2855 33.014 27.6845 30.17075 24.0295"></polygon>
                        <polygon id="Path" stroke="#263238" stroke-width="0.5" fill="#263238" fill-rule="nonzero" stroke-linecap="round" stroke-linejoin="round" points="24.96875 22.64825 14.161 25.33 14.48825 26.6305 25.0495 23.70225"></polygon>
                        <polygon id="Path" stroke="#263238" stroke-width="0.5" fill="#263238" fill-rule="nonzero" stroke-linecap="round" stroke-linejoin="round" points="33.82575 22.321 44.6335 25.00275 44.3105 26.30325 33.745 23.37925"></polygon>
                        <path d="M44.625,25.00275 C44.625,25.00275 48.7135,25.925 51.21675,27.35725 C53.72,28.7895 54.31925,32.011 52.887,35.5895 C51.45475,39.168 47.04325,38.692 45.016,37.7145 C42.98875,36.737 42.3895,33.184 42.7465,31.63275" id="Path" stroke="#263238" stroke-width="0.5" fill="#ADC7F7" fill-rule="nonzero" stroke-linecap="round" stroke-linejoin="round"></path>
                        <polygon id="Path" stroke="#263238" stroke-width="0.5" fill="#ADC7F7" fill-rule="nonzero" stroke-linecap="round" stroke-linejoin="round" points="25.4575 21.267 24.23775 22.07875 24.56075 30.2855 29.8435 26.54975 35.3685 30.36625 35.85725 22.24025 34.39525 21.0205"></polygon>
                        <path d="M36.125,11.50475 C36.125,11.50475 39.1255,10.77375 39.69075,7.77325 C40.256,4.77275 34.85,1.122 31.1015,0.476 C27.353,-0.17 21.85775,3.71875 20.96525,6.39625 C20.07275,9.07375 23.55775,11.747 27.28925,12.3165 C31.02075,12.886 36.125,11.50475 36.125,11.50475 Z" id="Path" stroke="#263238" stroke-width="0.5" fill="#263238" fill-rule="nonzero" stroke-linecap="round" stroke-linejoin="round"></path>
                        <path d="M24.939,11.9935 C24.939,11.9935 23.3155,9.4775 22.91175,11.66625 C22.508,13.855 24.208,14.82825 24.939,14.7475 C25.67,14.66675 24.939,11.9935 24.939,11.9935 Z" id="Path" stroke="#263238" stroke-width="0.5" fill="#CCCCCC" fill-rule="nonzero" stroke-linecap="round" stroke-linejoin="round"></path>
                        <path d="M35.48325,11.9935 C35.48325,11.9935 37.10675,9.4775 37.5105,11.66625 C37.91425,13.855 36.2355,14.82825 35.48325,14.7475 C34.731,14.66675 35.48325,11.9935 35.48325,11.9935 Z" id="Path" stroke="#263238" stroke-width="0.5" fill="#CCCCCC" fill-rule="nonzero" stroke-linecap="round" stroke-linejoin="round"></path>
                        <polygon id="Path" stroke="#263238" stroke-width="0.5" fill="#CCCCCC" fill-rule="nonzero" stroke-linecap="round" stroke-linejoin="round" points="25.296 16.9575 25.296 22.321 29.8435 26.54975 34.96475 22.1595 34.96475 17.12325"></polygon>
                        <path d="M24.616,10.37 C24.616,10.37 24.3695,15.39775 24.7775,17.02125 C25.1855,18.64475 27.85875,22.049 29.96675,22.78 C32.07475,23.511 34.9945,19.12925 35.64475,17.68 C36.295,16.23075 36.0485,10.0555 36.0485,10.0555 C36.0485,10.0555 35.16025,7.9305 33.37525,7.3015 C31.59025,6.6725 26.07375,5.525 24.616,10.37 Z" id="Path" stroke="#263238" stroke-width="0.5" fill="#CCCCCC" fill-rule="nonzero" stroke-linecap="round" stroke-linejoin="round"></path>
                        <path d="M27.98625,13.039 C27.98625,13.4215 27.812,13.73175 27.59525,13.73175 C27.3785,13.73175 27.20425,13.4215 27.20425,13.039 C27.20425,12.6565 27.3785,12.34625 27.59525,12.34625 C27.812,12.34625 27.98625,12.6565 27.98625,13.039 Z" id="Path" fill="#263238" fill-rule="nonzero"></path>
                        <path d="M32.963,13.039 C32.963,13.4215 32.78875,13.73175 32.572,13.73175 C32.35525,13.73175 32.181,13.4215 32.181,13.039 C32.181,12.6565 32.35525,12.34625 32.572,12.34625 C32.78875,12.34625 32.963,12.6565 32.963,13.039 Z" id="Path" fill="#263238" fill-rule="nonzero"></path>
                        <path d="M28.832,14.977 C28.6130949,14.9247302 28.3846042,15.0126545 28.2572054,15.1981838 C28.1298066,15.3837131 28.1298066,15.6285369 28.2572054,15.8140662 C28.3846042,15.9995955 28.6130949,16.0875198 28.832,16.03525 C29.0026874,16.0388604 29.1693663,15.9833007 29.30375,15.878 C29.5578344,16.1767355 29.9281906,16.351678 30.3203123,16.3581862 C30.712434,16.3646944 31.0883917,16.2021389 31.35225,15.912 C31.4786816,15.9940541 31.626535,16.0369316 31.77725,16.03525 C31.9961551,16.0875198 32.2246458,15.9995955 32.3520446,15.8140662 C32.4794434,15.6285369 32.4794434,15.3837131 32.3520446,15.1981838 C32.2246458,15.0126545 31.9961551,14.9247302 31.77725,14.977" id="Path" stroke="#263238" stroke-width="0.5" fill="#CCCCCC" fill-rule="nonzero" stroke-linecap="round" stroke-linejoin="round"></path>
                        <line x1="29.478" y1="18.30475" x2="31.17375" y2="18.30475" id="Path" stroke="#263238" stroke-width="0.5" fill="#CCCCCC" fill-rule="nonzero" stroke-linecap="round" stroke-linejoin="round"></line>
                        <path d="M24.429,11.58975 C24.429,11.58975 24.4885,13.22175 25.0325,12.79675 C25.5765,12.37175 25.755,9.60075 25.27475,9.2395 C24.7945,8.87825 24.429,10.74825 24.429,11.58975 Z" id="Path" stroke="#263238" stroke-width="0.5" fill="#263238" fill-rule="nonzero" stroke-linecap="round" stroke-linejoin="round"></path>
                        <path d="M34.89675,11.58975 C34.89675,11.58975 34.9605,13.22175 35.50025,12.79675 C36.04,12.37175 36.227,9.60075 35.7425,9.2395 C35.258,8.87825 34.89675,10.74825 34.89675,11.58975 Z" id="Path" stroke="#263238" stroke-width="0.5" fill="#263238" fill-rule="nonzero" stroke-linecap="round" stroke-linejoin="round"></path>
                        <path d="M24.429,10.26375 C24.429,10.26375 24.61175,10.4125 24.6075,10.48475 C25.39375,10.90975 27.2,11.69175 30.1325,11.849 C32.2122895,11.9208373 34.271458,11.416341 36.0825,10.39125 C36.0825,10.1745 36.0825,10.047 36.0825,10.04275 C36.01025,8.143 34.59925,6.8765 32.8525,6.392 C31.1354644,5.91924988 29.3120238,6.01012396 27.6505,6.65125 C26.8078897,6.96902535 26.0644459,7.50424626 25.49575,8.2025 C25.279,8.4405 24.1315,10.02575 24.429,10.26375 Z" id="Path" stroke="#263238" stroke-width="0.5" fill="#4C4C4C" fill-rule="nonzero" stroke-linecap="round" stroke-linejoin="round"></path>
                        <path d="M24.616,10.37 C26.4284776,10.7708782 28.289499,10.906876 30.141,10.77375 C33.63025,10.61225 36.057,10.37 36.057,10.37 C34.453525,11.8731459 32.383771,12.7820379 30.192,12.9455 C28.0170992,13.0867505 25.9185319,12.1174427 24.616,10.37 L24.616,10.37 Z" id="Path" stroke="#263238" stroke-width="0.5" fill="#4C4C4C" fill-rule="nonzero" stroke-linecap="round" stroke-linejoin="round"></path>
                        <polygon id="Path" stroke="#263238" stroke-width="0.5" fill="#263238" fill-rule="nonzero" stroke-linecap="round" stroke-linejoin="round" points="15.708 34.7565 16.27325 38.8195 20.6635 39.8735 25.13025 38.0885 24.80725 34.42925"></polygon>
                        <circle id="Oval" stroke="#263238" stroke-width="0.5" fill="#4C4C4C" fill-rule="nonzero" stroke-linecap="round" stroke-linejoin="round" cx="20.37875" cy="38.046" r="1"></circle>
                        <rect id="Rectangle" stroke="#263238" stroke-width="0.5" fill="#4C4C4C" fill-rule="nonzero" stroke-linecap="round" stroke-linejoin="round" x="16.63025" y="54.08125" width="25.76775" height="4.0545"></rect>
                        <rect id="Rectangle" stroke="#263238" stroke-width="0.5" fill="#4C4C4C" fill-rule="nonzero" stroke-linecap="round" stroke-linejoin="round" x="14.841" y="54.31925" width="7.87525" height="5.01075" rx="1.13475"></rect>
                        <rect id="Rectangle" stroke="#263238" stroke-width="0.5" fill="#4C4C4C" fill-rule="nonzero" stroke-linecap="round" stroke-linejoin="round" x="35.36" y="54.31925" width="7.87525" height="5.01075" rx="1.13475"></rect>
                        <rect id="Rectangle" stroke="#263238" stroke-width="0.5" fill="#FFFFFF" fill-rule="nonzero" stroke-linecap="round" stroke-linejoin="round" x="27.12775" y="54.31925" width="5.60575" height="3.5785"></rect>
                        <path d="M9.469,45.611 C9.469,45.611 5.8905,45.373 4.57725,43.1035" id="Path" stroke="#263238" stroke-width="0.5" stroke-linecap="round" stroke-linejoin="round"></path>
                        <ellipse id="Oval" stroke="#263238" stroke-width="0.5" fill="#ADC7F7" fill-rule="nonzero" stroke-linecap="round" stroke-linejoin="round" cx="49.2575" cy="28.9085" rx="5.9075" ry="6.205"></ellipse>
                        <ellipse id="Oval" stroke="#263238" stroke-width="0.5" fill="#ADC7F7" fill-rule="nonzero" stroke-linecap="round" stroke-linejoin="round" cx="49.2575" cy="25.76775" rx="4.624" ry="4.14375"></ellipse>
                        <ellipse id="Oval" stroke="#263238" stroke-width="0.5" fill="#CCCCCC" fill-rule="nonzero" stroke-linecap="round" stroke-linejoin="round" cx="49.2575" cy="22.7205" rx="4.624" ry="4.14375"></ellipse>
                        <path d="M41.8285,13.787 C41.8285,13.787 41.90925,19.8985 42.2195,21.7005 C42.52975,23.5025 43.78775,25.85275 45.51325,25.85275 C46.6626723,25.8243836 47.8002808,25.6135029 48.8835,25.228 C48.8835,25.228 50.91925,26.3245 52.8785,26.01 C54.83775,25.6955 54.52325,22.95425 54.52325,21.76 C54.52325,20.56575 54.2895,11.73 54.2895,11.73 C54.2895,11.73 54.44675,10.88 53.6605,10.71425 C53.2748902,10.6274122 52.8823661,10.5747912 52.4875,10.557 L52.4875,8.67425 C52.1927565,8.23485529 51.6792225,7.9944429 51.153,8.0495 C50.13725,8.0495 50.0565,8.28325 50.0565,8.28325 L50.0565,6.55775 C50.0565,6.55775 49.2065,5.185 48.09725,5.85225 C47.6431508,6.11291994 47.3496171,6.58353104 47.31525,7.106 L47.2345,8.755 C47.2345,8.755 45.356,8.0495 45.19875,9.146 C45.0415,10.2425 44.727,17 44.727,17 C44.6156705,15.9375087 44.4065338,14.8875573 44.10225,13.8635 C43.71125,12.8435 41.8285,12.8435 41.8285,13.787 Z" id="Path" stroke="#263238" stroke-width="0.5" fill="#CCCCCC" fill-rule="nonzero" stroke-linecap="round" stroke-linejoin="round"></path>
                        <line x1="47.2345" y1="8.772" x2="47.39175" y2="15.98" id="Path" stroke="#263238" stroke-width="0.5" stroke-linecap="round" stroke-linejoin="round"></line>
                        <line x1="50.0565" y1="8.30025" x2="50.13725" y2="16.0565" id="Path" stroke="#263238" stroke-width="0.5" stroke-linecap="round" stroke-linejoin="round"></line>
                        <line x1="52.4875" y1="10.574" x2="52.33025" y2="15.98" id="Path" stroke="#263238" stroke-width="0.5" stroke-linecap="round" stroke-linejoin="round"></line>
                        <line x1="46.21875" y1="15.9035" x2="53.35025" y2="16.21375" id="Path" stroke="#263238" stroke-width="0.5" stroke-linecap="round" stroke-linejoin="round"></line>
                        <path d="M44.727,17 C44.7313314,17.5995668 45.0159751,18.1625638 45.49625,18.5215 C46.26975,19.006 48.01225,20.264 48.2035,22.2955" id="Path" stroke="#263238" stroke-width="0.5" stroke-linecap="round" stroke-linejoin="round"></path>
                    </g>
                    <g id="freepik--security-barrier--inject-2" transform="translate(6.800000, 94.775000)">
                        <polygon id="Path" stroke="#263238" stroke-width="0.5" fill="#263238" fill-rule="nonzero" points="13.54475 65.2375 7.48425 65.2375 15.5635 8.92075 21.624 8.92075"></polygon>
                        <polygon id="Path" stroke="#263238" stroke-width="0.5" fill="#FFFFFF" fill-rule="nonzero" points="25.66575 65.2375 31.722 65.2375 23.64275 8.92075 17.5865 8.92075"></polygon>
                        <polygon id="Path" stroke="#263238" stroke-width="0.5" fill="#263238" fill-rule="nonzero" points="99.5265 65.2375 93.47025 65.2375 101.54525 8.92075 107.60575 8.92075"></polygon>
                        <polygon id="Path" stroke="#263238" stroke-width="0.5" fill="#FFFFFF" fill-rule="nonzero" points="111.6475 65.2375 117.70375 65.2375 109.6245 8.92075 103.56825 8.92075"></polygon>
                        <rect id="Rectangle" stroke="#263238" stroke-width="0.5" fill="#ADC7F7" fill-rule="nonzero" x="0.31025" y="0.08925" width="115.57025" height="11.203"></rect>
                        <rect id="Rectangle" stroke="#263238" stroke-width="0.5" fill="#ADC7F7" fill-rule="nonzero" x="3.128" y="0.08925" width="115.57025" height="11.203"></rect>
                        <polygon id="Path" fill="#263238" fill-rule="nonzero" points="5.01925 11.29225 14.82825 11.29225 19.8985 0.08925 10.0895 0.08925"></polygon>
                        <polygon id="Path" fill="#263238" fill-rule="nonzero" points="43.84725 0.08925 34.03825 0.08925 28.968 11.29225 38.777 11.29225"></polygon>
                        <polygon id="Path" fill="#263238" fill-rule="nonzero" points="115.68925 0.08925 105.88025 0.08925 100.81425 11.29225 110.62325 11.29225"></polygon>
                        <polygon id="Path" fill="#263238" fill-rule="nonzero" points="91.74475 0.08925 81.9315 0.08925 76.8655 11.29225 86.6745 11.29225"></polygon>
                        <polygon id="Path" fill="#263238" fill-rule="nonzero" points="67.796 0.08925 57.987 0.08925 52.91675 11.29225 62.72575 11.29225"></polygon>
                        <line x1="118.065" y1="5.0575" x2="98.94" y2="5.0575" id="Path" stroke="#263238" stroke-width="0.5"></line>
                        <line x1="117.72925" y1="6.93175" x2="114.71175" y2="6.93175" id="Path" stroke="#263238" stroke-width="0.5"></line>
                        <line x1="2.63925" y1="6.46425" x2="21.76425" y2="6.46425" id="Path" stroke="#263238" stroke-width="0.5"></line>
                        <line x1="2.975" y1="4.35625" x2="27.132" y2="4.35625" id="Path" stroke="#263238" stroke-width="0.5"></line>
                        <rect id="Rectangle" stroke="#263238" stroke-width="0.5" fill="#263238" fill-rule="nonzero" stroke-linecap="round" stroke-linejoin="round" x="117.45725" y="62.781" width="32.7845" height="2.46075"></rect>
                        <polygon id="Path" stroke="#263238" stroke-width="0.5" fill="#ADC7F7" fill-rule="nonzero" stroke-linecap="round" stroke-linejoin="round" points="144.70825 62.713 122.99075 62.713 131.5035 16.405 136.1955 16.405"></polygon>
                        <polygon id="Path" stroke="#263238" stroke-width="0.5" fill="#FFFFFF" fill-rule="nonzero" stroke-linecap="round" stroke-linejoin="round" points="128.3415 33.6175 139.36175 33.6175 138.3035 27.88 129.3955 27.88"></polygon>
                        <line x1="141.44425" y1="54.98225" x2="141.98825" y2="58.1485" id="Path" stroke="#263238" stroke-width="0.5" fill="#ADC7F7" fill-rule="nonzero" stroke-linecap="round" stroke-linejoin="round"></line>
                        <line x1="135.2435" y1="18.9635" x2="140.76" y2="51" id="Path" stroke="#263238" stroke-width="0.5" fill="#ADC7F7" fill-rule="nonzero" stroke-linecap="round" stroke-linejoin="round"></line>
                    </g>
                    <g id="freepik--Floor--inject-2" transform="translate(0.000000, 159.800000)" stroke="#263238" stroke-linecap="round" stroke-linejoin="round" stroke-width="0.5">
                        <line x1="174.67925" y1="0.2125" x2="177.616" y2="0.2125" id="Path"></line>
                        <line x1="0.15725" y1="0.2125" x2="170.578" y2="0.2125" id="Path"></line>
                    </g>
                </g>
            </g>
        </g>
    </g>
</svg>