<?xml version="1.0" encoding="UTF-8"?>
<svg width="18px" height="18px" viewBox="0 0 18 18" version="1.1" xmlns="http://www.w3.org/2000/svg" xmlns:xlink="http://www.w3.org/1999/xlink">
    <title>check-square-regular</title>
    <g id="Page-1" stroke="none" stroke-width="1" fill="none" fill-rule="evenodd">
        <g id="register-hashtag" transform="translate(-448.000000, -724.000000)" fill="#F77D0E" fill-rule="nonzero">
            <g id="Register-hashtag" transform="translate(360.000000, 64.000000)">
                <g id="payment" transform="translate(88.000000, 590.000000)">
                    <g id="check-square-regular" transform="translate(0.000000, 70.000000)">
                        <path d="M16.0714286,0 L1.92857143,0 C0.8634375,0 0,0.8634375 0,1.92857143 L0,16.0714286 C0,17.1365625 0.8634375,18 1.92857143,18 L16.0714286,18 C17.1365625,18 18,17.1365625 18,16.0714286 L18,1.92857143 C18,0.8634375 17.1365625,0 16.0714286,0 Z M16.0714286,16.0714286 L1.92857143,16.0714286 L1.92857143,1.92857143 L16.0714286,1.92857143 L16.0714286,16.0714286 Z M14.6304643,6.35930357 L7.69608482,13.2380357 C7.50704464,13.4255491 7.20176786,13.4243438 7.01425446,13.2353036 L3.36680357,9.55832143 C3.17929018,9.36928125 3.18049554,9.06400446 3.36957589,8.87645089 L4.28239286,7.97098661 C4.47143304,7.78347321 4.77670982,7.78467857 4.96422321,7.97375893 L7.36658036,10.3956027 L13.0459018,4.76192411 C13.234942,4.57441071 13.5402187,4.57561607 13.7277321,4.76465625 L14.6331964,5.67743304 C14.8207098,5.86651339 14.8195045,6.17179018 14.6304643,6.35930357 Z" id="Shape"></path>
                    </g>
                </g>
            </g>
        </g>
    </g>
</svg>