<?xml version="1.0" encoding="UTF-8"?>
<svg width="162px" height="137px" viewBox="0 0 162 137" version="1.1" xmlns="http://www.w3.org/2000/svg" xmlns:xlink="http://www.w3.org/1999/xlink">
    <title>Credit card-bro</title>
    <g id="Page-1" stroke="none" stroke-width="1" fill="none" fill-rule="evenodd">
        <g id="hashtag" transform="translate(-297.000000, -3128.000000)">
            <g id="other" transform="translate(297.000000, 2805.000000)">
                <g id="list" transform="translate(0.000000, 120.000000)">
                    <g id="2" transform="translate(0.000000, 168.000000)">
                        <g id="Credit-card-bro" transform="translate(0.000000, 35.000000)">
                            <g id="freepik--background-simple--inject-9" transform="translate(7.075145, 4.323699)" fill="#F9FBFF" fill-rule="nonzero">
                                <path d="M131.963237,83.4041618 C128.484624,76.7889017 126.85341,70.385896 128.76763,63.0591908 C130.795838,55.339422 134.69896,47.1322543 133.484393,38.9683237 C131.652717,26.822659 122.918844,14.5747977 111.657572,7.22057803 C100.805087,0.145433526 87.6020809,-2.4134104 75.9556069,4.04069364 C66.3609249,9.36277457 60.3234682,20.5493642 48.6887861,22.1216185 C35.100578,23.9768786 29.5976879,14.4254335 14.5433526,20.6633526 C8.62381503,23.1160694 3.53757225,27.5734104 1.17919075,33.6344509 C-1.46219653,40.497341 0.817572254,45.6268208 3.63583815,52.0219653 C6.67019749,58.9613114 8.09718204,66.4966498 7.81017341,74.0649711 C7.56254335,80.7706358 4.83861272,87.0360694 4.82682081,93.7181503 C4.80323699,105.510058 11.9923699,117.231214 23.6938728,120.446474 C38.3669364,124.479306 52.6783815,102.467746 68.8215029,101.001618 C77.2409249,100.235145 81.6786127,107.015491 87.169711,112.034913 C93.7495954,118.052717 102.459884,122.175954 111.512139,121.775029 C130.854798,120.929942 140.567399,99.7556069 131.963237,83.4041618 Z" id="Path"></path>
                            </g>
                            <g id="freepik--Bills--inject-9" transform="translate(1.572254, 60.138728)">
                                <rect id="Rectangle" stroke="#263238" stroke-width="0.5" fill="#FFFFFF" fill-rule="nonzero" stroke-linecap="round" stroke-linejoin="round" transform="translate(44.035755, 34.880677) rotate(39.550000) translate(-44.035755, -34.880677) " x="10.6528653" y="17.2655322" width="66.7657803" height="35.230289"></rect>
                                <path d="M27.6873988,6.90612717 L13.6117919,23.9532948 C14.7286152,25.3154074 14.7286152,27.2765001 13.6117919,28.6386127 L13.4663584,28.7997688 L55.2136416,63.283237 C55.2568786,63.2282081 55.296185,63.1653179 55.3433526,63.110289 C56.6464821,61.551418 58.9630813,61.3355531 60.5317919,62.6268208 L74.5209249,45.689711 C73.7670593,45.0632917 73.2929901,44.1629973 73.2030542,43.1869718 C73.1131183,42.2109462 73.4146865,41.2391807 74.0413873,40.4855491 L32.2901734,6.00208092 C31.166788,7.36076925 29.241231,7.7389743 27.6873988,6.90612717 Z" id="Path" stroke="#263238" stroke-width="0.5" fill="#FFFFFF" fill-rule="nonzero" stroke-linecap="round" stroke-linejoin="round"></path>
                                <path d="M33.5951445,29.963237 C31.5517935,35.0166561 33.2644092,40.8116881 37.7264747,43.9425504 C42.1885403,47.0734128 48.2205537,46.7124935 52.2774566,43.0719075" id="Path" stroke="#263238" stroke-width="0.5" stroke-linecap="round" stroke-linejoin="round"></path>
                                <path d="M39.0272832,23.9768786 C37.6394797,24.7015897 36.4111615,25.6973427 35.4150289,26.9052023 C35.3010405,27.0427746 35.1909827,27.1803468 35.0887861,27.3218497" id="Path" stroke="#263238" stroke-width="0.5" stroke-linecap="round" stroke-linejoin="round"></path>
                                <path d="M55.0760694,39.3063584 C57.0456408,35.0392254 56.274049,30.0080518 53.1162397,26.5272652 C49.9584303,23.0464786 45.0259184,21.7901391 40.5877457,23.336185" id="Path" stroke="#263238" stroke-width="0.5" stroke-linecap="round" stroke-linejoin="round"></path>
                                <circle id="Oval" fill="#263238" fill-rule="nonzero" transform="translate(44.440913, 34.374128) rotate(-45.000000) translate(-44.440913, -34.374128) " cx="44.4409132" cy="34.3741276" r="10.7267052"></circle>
                                <path d="M37.8048555,34.982659 C37.7447771,34.754398 37.7613493,34.5127213 37.8520231,34.2947977 C37.9273972,34.0923116 38.0650067,33.9189237 38.2450867,33.7995376 C38.4282104,33.6832316 38.6350337,33.6093662 38.8504046,33.5833526 C39.0705006,33.5556955 39.2930581,33.610285 39.4753757,33.7366474 C39.6887367,33.8954978 39.8556732,34.1085794 39.9588439,34.3537572 C39.9824277,34.4048555 40.0453179,34.550289 40.1435838,34.7900578 C40.2418497,35.0298266 40.3283237,35.230289 40.4069364,35.3993064 C40.5191104,35.6238763 40.6506284,35.8382507 40.8,36.04 C40.9920932,36.3064222 41.2121521,36.5515177 41.4564162,36.7710983 C41.6284519,36.9526702 41.8210389,37.1135991 42.030289,37.2506358 C42.2371732,37.4006093 42.4568214,37.5321352 42.6867052,37.6436994 C42.8915192,37.7438112 43.1202471,37.7846555 43.347052,37.7616185 C43.5719275,37.7363102 43.776551,37.6197885 43.9130636,37.4393064 C44.0428679,37.2477717 44.0776381,37.0072775 44.0073988,36.7868208 C43.9143957,36.4363306 43.7482924,36.1094823 43.52,35.8277457 L42.5963006,34.5306358 C42.2543353,34.0353757 41.987052,33.6265896 41.8101734,33.3082081 C41.6099631,32.9779942 41.4364628,32.632308 41.2913295,32.2744509 C41.1494454,31.9588297 41.0719411,31.6180781 41.0633526,31.2721387 C41.0672362,30.9532847 41.1284824,30.6377333 41.2441618,30.340578 C41.3904708,29.9718555 41.5977552,29.6303676 41.857341,29.3304046 C42.4938808,28.5148479 43.525173,28.1122821 44.545896,28.2809249 C45.646474,28.4198073 46.7719461,29.0251252 47.9223121,30.0968786 C48.2456628,30.3875811 48.5416979,30.707299 48.8067052,31.0520231 C49.0061947,31.3024489 49.1899764,31.5649943 49.3569942,31.8381503 C49.4696724,32.0373025 49.6006936,32.2993449 49.7500578,32.6242775 C49.8701942,32.8606213 49.9128283,33.1288036 49.8719075,33.3907514 C49.8447018,33.6203277 49.7424533,33.8344969 49.5810405,34 C49.4274119,34.1495139 49.2419855,34.2623821 49.0386127,34.3301734 C48.8281433,34.4028351 48.596733,34.3828367 48.4018497,34.2751445 C48.16713,34.1473261 47.9725343,33.9568129 47.8397688,33.7248555 C47.4485617,33.0510746 46.9759569,32.4279754 46.4326012,31.8695954 C46.2360694,31.6848555 46.0395376,31.5040462 45.7801156,31.3193064 C45.5487386,31.1425453 45.2797332,31.0214929 44.9939884,30.9655491 C44.7689785,30.9012388 44.5269515,30.969737 44.3690173,31.1424277 C44.2070499,31.3258273 44.1440483,31.5763685 44.2,31.8145665 C44.3093968,32.1500625 44.4829403,32.4611057 44.7109827,32.7304046 L45.6504046,33.9960694 C45.9745216,34.4381268 46.2724506,34.8988011 46.542659,35.3757225 C46.7544731,35.7613655 46.9131375,36.1738932 47.0143353,36.6020809 C47.1166567,37.0044641 47.1166567,37.4260561 47.0143353,37.8284393 C46.8810434,38.2608946 46.6617856,38.661976 46.369711,39.0076301 C45.9177361,39.6126577 45.2707225,40.0430745 44.5380347,40.2261272 C43.8142753,40.3949384 43.0563244,40.3401137 42.3643931,40.0689017 C41.5568137,39.7546419 40.817446,39.2875323 40.1868208,38.6931792 C39.0508847,37.7125636 38.2235177,36.4237279 37.8048555,34.982659 L37.8048555,34.982659 Z M48.5551445,27.5734104 C48.6854189,27.3933714 48.8912305,27.2832187 49.1132948,27.2746821 C49.3090557,27.2657269 49.5011031,27.33021 49.6517919,27.4554913 C49.8015246,27.5848474 49.8969691,27.7659112 49.9190751,27.9625434 C49.9538382,28.177015 49.8886925,28.3956153 49.7421965,28.5560694 L47.9537572,30.7061272 L46.7745665,29.7273988 L48.5551445,27.5734104 Z M40.2732948,37.9345665 L41.4524855,38.9211561 L39.699422,41.0554913 C39.5317808,41.28901 39.2412035,41.4002949 38.9604624,41.3384971 C38.6868771,41.294099 38.4568879,41.1089129 38.3551445,40.8510983 C38.2390152,40.5838895 38.2965393,40.2729488 38.500578,40.0649711 L40.2732948,37.9345665 Z" id="Shape" stroke="#263238" stroke-width="0.5" fill="#FFFFFF" fill-rule="nonzero"></path>
                                <rect id="Rectangle" stroke="#263238" stroke-width="0.5" fill="#FFFFFF" fill-rule="nonzero" stroke-linecap="round" stroke-linejoin="round" transform="translate(39.371026, 36.579317) rotate(47.840000) translate(-39.371026, -36.579317) " x="5.98813602" y="18.9641723" width="66.7657803" height="35.230289"></rect>
                                <path d="M27.243237,6.55236994 L10.8524855,21.3905202 C11.7566772,22.903874 11.4671473,24.8450401 10.1606936,26.0286705 L9.9916763,26.1662428 L46.3579191,66.3176879 C46.4090173,66.2665896 46.456185,66.2154913 46.5112139,66.1643931 C48.024916,64.7963739 50.3604981,64.9124495 51.7310983,66.423815 L68,51.68 C66.6315432,50.1649814 66.7475928,47.8281646 68.259422,46.456185 L31.9246243,6.32046243 C30.6185361,7.50280972 28.6597865,7.59984266 27.243237,6.55236994 Z" id="Path" stroke="#263238" stroke-width="0.5" fill="#FFFFFF" fill-rule="nonzero" stroke-linecap="round" stroke-linejoin="round"></path>
                                <path d="M29.7627746,30.2187283 C26.9870532,34.9294096 27.8409051,40.9339792 31.8197636,44.6841568 C35.7986221,48.4343345 41.8431701,48.9316863 46.3815029,45.8823121" id="Path" stroke="#263238" stroke-width="0.5" stroke-linecap="round" stroke-linejoin="round"></path>
                                <path d="M36.0006936,25.0892486 C34.5224569,25.6063454 33.1631028,26.4150075 32.003237,27.4672832 C31.873526,27.5852023 31.743815,27.707052 31.6101734,27.8328324" id="Path" stroke="#263238" stroke-width="0.5" stroke-linecap="round" stroke-linejoin="round"></path>
                                <path d="M49.6753757,42.537341 C52.2404554,38.5998203 52.2030259,33.5102382 49.5803126,29.6108693 C46.9575992,25.7115004 42.2577574,23.7578542 37.6436994,24.6490173" id="Path" stroke="#263238" stroke-width="0.5" stroke-linecap="round" stroke-linejoin="round"></path>
                                <circle id="Oval" fill="#263238" fill-rule="nonzero" transform="translate(39.862217, 36.145604) rotate(-45.000000) translate(-39.862217, -36.145604) " cx="39.8622168" cy="36.1456044" r="10.7267052"></circle>
                                <path d="M33.2099422,35.7687861 C33.1818643,35.5347791 33.2330722,35.2981157 33.3553757,35.0966474 C33.4637221,34.9054732 33.6303782,34.7539678 33.8309827,34.6642775 C34.0288434,34.5766985 34.2435595,34.5337553 34.4598844,34.5384971 C34.6828588,34.5404101 34.8966411,34.6276108 35.057341,34.7821965 C35.2477907,34.9673142 35.3837544,35.2011718 35.4504046,35.4582659 C35.4504046,35.5132948 35.5093642,35.6665896 35.5683237,35.9142197 C35.6272832,36.1618497 35.6901734,36.3819653 35.7452023,36.5549133 C35.8242817,36.7957099 35.9256052,37.0286223 36.0478613,37.2506358 C36.200002,37.5420431 36.3831846,37.8161581 36.5942197,38.0682081 C36.7371124,38.2728272 36.9033153,38.4601353 37.0894798,38.6263584 C37.2766892,38.7969542 37.4763987,38.9533057 37.6869364,39.094104 C37.8739605,39.2219424 38.0933786,39.2941732 38.3197688,39.3024277 C38.5462204,39.3129341 38.7668687,39.2289454 38.9290173,39.0705202 C39.0871522,38.8990408 39.1555624,38.6632439 39.1137572,38.4337572 C39.0744335,38.0755397 38.9591941,37.7298214 38.7757225,37.4196532 L38.0485549,36.0006936 C37.777341,35.4582659 37.572948,35.0180347 37.4275145,34.6760694 C37.2800714,34.3186029 37.1592038,33.950745 37.065896,33.5754913 C36.9690349,33.2440438 36.9396304,32.8965365 36.979422,32.553526 C37.0318081,32.2371036 37.1395858,31.9323989 37.2978035,31.6534104 C37.4948407,31.3115493 37.747204,31.0047285 38.0446243,30.7454335 C38.792294,30.028656 39.8721595,29.7782961 40.8589595,30.092948 C41.9307129,30.3890559 42.9579191,31.1515992 43.940578,32.380578 C44.4227921,32.9678607 44.8197654,33.6202201 45.1197688,34.3183815 C45.2023121,34.5345665 45.300578,34.8175723 45.4106358,35.1713295 C45.4946273,35.4266415 45.4946273,35.7021446 45.4106358,35.9574566 C45.3449316,36.181849 45.2067025,36.3781343 45.0175723,36.5156069 C44.8448391,36.6417794 44.6460783,36.7277301 44.4358382,36.7671676 C44.2175745,36.8086231 43.9919607,36.7557895 43.8147977,36.6217341 C43.6000723,36.460275 43.4341231,36.2426366 43.3352601,35.9928324 C43.0447405,35.2697195 42.6672411,34.584677 42.2110983,33.9528324 C42.0420809,33.7445087 41.8534104,33.5322543 41.6411561,33.3160694 C41.4442599,33.1080105 41.2002671,32.9502913 40.929711,32.856185 C40.7165983,32.7552794 40.4640712,32.7891549 40.2850867,32.942659 C40.0959237,33.0972079 39.9969955,33.3364075 40.0217341,33.579422 C40.0845699,33.9290761 40.2183386,34.2621601 40.4147977,34.5581503 L41.1576879,35.9495954 C41.4161137,36.4335329 41.6457988,36.9322778 41.8455491,37.443237 C42.0003964,37.8537721 42.0982623,38.2835884 42.1364162,38.7206936 C42.1746846,39.1352816 42.1084682,39.5528506 41.943815,39.9352601 C41.4116692,41.0405373 40.3606123,41.8052107 39.1452023,41.9713295 C38.4053705,42.0342802 37.6638569,41.8711746 37.0187283,41.5035838 C36.2612751,41.0764432 35.5938476,40.50646 35.0534104,39.8252023 C34.0535855,38.6836416 33.4123835,37.2727237 33.2099422,35.7687861 L33.2099422,35.7687861 Z M44.9153757,29.9868208 C45.0711693,29.8274652 45.2911398,29.7478706 45.5128324,29.7706358 C45.7069349,29.7916345 45.8862788,29.8841087 46.0159538,30.0300578 C46.1454853,30.1790097 46.2142395,30.371241 46.2085549,30.5685549 C46.211776,30.7844427 46.1162422,30.9899851 45.9491329,31.1267052 L43.865896,33.017341 L42.8439306,31.8813873 L44.9153757,29.9868208 Z M35.230289,39.0272832 L36.2719075,40.1789595 L34.1965318,42.0774566 C33.9939401,42.2896682 33.6823135,42.356668 33.4104046,42.246474 C33.1477768,42.1631435 32.9479449,41.9483987 32.8836994,41.6804624 C32.8056608,41.4003004 32.9070131,41.1009212 33.1391908,40.9257803 L35.230289,39.0272832 Z" id="Shape" stroke="#263238" stroke-width="0.5" fill="#FFFFFF" fill-rule="nonzero"></path>
                                <rect id="Rectangle" stroke="#263238" stroke-width="0.5" fill="#FFFFFF" fill-rule="nonzero" stroke-linecap="round" stroke-linejoin="round" transform="translate(32.005352, 37.849406) rotate(60.360000) translate(-32.005352, -37.849406) " x="-1.37753807" y="20.2342615" width="66.7657803" height="35.230289"></rect>
                                <path d="M26.6732948,5.89595376 L7.46820809,16.8388439 C8.02595262,18.5170749 7.31766419,20.3553305 5.77803468,21.2254335 L5.58150289,21.3236994 L32.3766474,68.3930636 C32.4356069,68.3537572 32.4945665,68.3144509 32.5574566,68.2790751 C33.4094982,67.7930145 34.4198531,67.6657237 35.3658294,67.9252589 C36.3118057,68.1847941 37.115749,68.8098503 37.6004624,69.662659 L56.6915607,58.7983815 C55.6816392,57.0236525 56.3009683,54.7662681 58.0751445,53.7553757 L31.2917919,6.68208092 C29.7614137,7.55270312 27.8294555,7.22385917 26.6732948,5.89595376 Z" id="Path" stroke="#263238" stroke-width="0.5" fill="#FFFFFF" fill-rule="nonzero" stroke-linecap="round" stroke-linejoin="round"></path>
                                <path d="M24.0043931,29.5544509 C20.2858001,33.5508156 19.8220032,39.586511 22.8863644,44.1040938 C25.9507256,48.6216767 31.7301604,50.4224707 36.8182659,48.4450867" id="Path" stroke="#263238" stroke-width="0.5" stroke-linecap="round" stroke-linejoin="round"></path>
                                <path d="M31.2013873,25.8989595 C29.6477884,26.0846668 28.1470028,26.5791376 26.7872832,27.3532948 C26.6339884,27.4436994 26.4806936,27.534104 26.3313295,27.6284393" id="Path" stroke="#263238" stroke-width="0.5" stroke-linecap="round" stroke-linejoin="round"></path>
                                <path d="M40.7724855,45.8980347 C44.127364,42.6098887 45.1932906,37.6355134 43.4803063,33.2614081 C41.767322,28.8873027 37.6068262,25.9596955 32.9112139,25.8242775" id="Path" stroke="#263238" stroke-width="0.5" stroke-linecap="round" stroke-linejoin="round"></path>
                                <circle id="Oval" fill="#263238" fill-rule="nonzero" transform="translate(32.575789, 37.530046) rotate(-48.690000) translate(-32.575789, -37.530046) " cx="32.5757894" cy="37.5300457" r="10.7267052"></circle>
                                <path d="M26.1623121,35.7255491 C26.186806,35.4913885 26.2876314,35.2717826 26.4492486,35.100578 C26.5974337,34.9387033 26.7926363,34.8273553 27.0073988,34.7821965 C27.2196983,34.7351493 27.4397236,34.7351493 27.6520231,34.7821965 C27.8677798,34.832429 28.0561934,34.9631937 28.1787283,35.1477457 C28.3260377,35.36954 28.4077816,35.6283959 28.4145665,35.8945665 C28.4145665,35.9495954 28.4145665,36.1068208 28.4145665,36.3662428 C28.4145665,36.6256647 28.4145665,36.8457803 28.4460116,37.0305202 C28.4737055,37.28177 28.5223527,37.5302651 28.5914451,37.7734104 C28.6786878,38.090236 28.7985585,38.3971577 28.9491329,38.6892486 C29.0445136,38.9197654 29.1658347,39.1386709 29.3107514,39.3417341 C29.456778,39.5489674 29.6184032,39.7447572 29.7942197,39.9273988 C29.948548,40.094322 30.1478374,40.2130767 30.3680925,40.2693642 C30.5869154,40.3257861 30.8192373,40.2917878 31.0127168,40.1750289 C31.2033775,40.0410396 31.321008,39.8261098 31.3310983,39.5932948 C31.3690464,39.2341615 31.3301909,38.871064 31.2171098,38.5280925 L30.8240462,36.9833526 C30.6786127,36.3976879 30.5724855,35.9220809 30.5056647,35.5604624 C30.4371838,35.1787974 30.3977643,34.792486 30.3877457,34.4048555 C30.3672815,34.0594981 30.4153732,33.7135055 30.5292486,33.3868208 C30.6500178,33.0916243 30.8201548,32.8191391 31.0323699,32.5810405 C31.300324,32.2885686 31.6151593,32.0428112 31.9639306,31.8538728 C32.8481452,31.3161637 33.9561307,31.3071066 34.8490173,31.830289 C35.8316763,32.3543738 36.6689017,33.32 37.3606936,34.7271676 C37.5570072,35.1148889 37.7200587,35.5185728 37.8480925,35.9338728 C37.9445069,36.2419838 38.0219544,36.5557121 38.08,36.8732948 C38.1153757,37.1012717 38.1507514,37.4 38.1782659,37.7694798 C38.208377,38.0339174 38.1532954,38.301063 38.0210405,38.5320231 C37.913179,38.7353987 37.7421126,38.8981877 37.5336416,38.9958382 C37.3372578,39.0830032 37.1233143,39.1233699 36.9086705,39.1137572 C36.6871472,39.1070359 36.4787522,39.0071205 36.3347977,38.8386127 C36.1605337,38.6338663 36.046267,38.3849281 36.0046243,38.1193064 C35.8771749,37.3512383 35.65675,36.6015295 35.3482081,35.8867052 C35.230289,35.6469364 35.0887861,35.3993064 34.9315607,35.1398844 C34.7815181,34.8949219 34.5770844,34.6877983 34.334104,34.5345665 C34.1482396,34.3923602 33.8967584,34.3708923 33.6894798,34.4795376 C33.472655,34.591297 33.3253998,34.8033444 33.2964162,35.0455491 C33.2787849,35.3981599 33.3308773,35.7507858 33.449711,36.083237 L33.8742197,37.6004624 C34.0221981,38.128783 34.1377126,38.6656628 34.2201156,39.2080925 C34.2790339,39.6437201 34.2790339,40.0852972 34.2201156,40.5209249 C34.1768128,40.9305207 34.0337549,41.323255 33.8034682,41.6647399 C33.5257829,42.0313974 33.1751366,42.3365399 32.7736416,42.5609249 C32.1354287,42.9649405 31.3776302,43.1370413 30.6275145,43.0483237 C29.8956295,42.946225 29.2111054,42.6272368 28.6621965,42.1324855 C28.0177774,41.5508853 27.4919011,40.8501618 27.113526,40.0689017 C26.3786703,38.745239 26.047963,37.2351916 26.1623121,35.7255491 L26.1623121,35.7255491 Z M38.8425434,32.6203468 C39.0289076,32.4991417 39.2601154,32.4687957 39.4714451,32.5378035 C39.65813,32.5974592 39.8144836,32.7270495 39.9077457,32.899422 C40.0036942,33.0731634 40.0303734,33.2767676 39.9824277,33.4693642 C39.9332454,33.6845397 39.7884953,33.8654772 39.5893642,33.9606936 L37.1445087,35.3482081 L36.3819653,34.0117919 L38.8425434,32.6203468 Z M27.4436994,39.3613873 L28.2298266,40.713526 L25.8046243,42.0931792 C25.5657568,42.2490356 25.2573646,42.2490356 25.0184971,42.0931792 C24.7824338,41.951714 24.6343852,41.7000313 24.6254335,41.4249711 C24.6133741,41.1347352 24.7780187,40.8660227 25.0420809,40.7449711 L27.4436994,39.3613873 Z" id="Shape" stroke="#263238" stroke-width="0.5" fill="#FFFFFF" fill-rule="nonzero"></path>
                            </g>
                            <g id="freepik--Card--inject-9" transform="translate(34.589595, 33.803468)">
                                <rect id="Rectangle" stroke="#263238" stroke-width="0.5" fill="#ADC7F7" fill-rule="nonzero" stroke-linecap="round" stroke-linejoin="round" transform="translate(46.672863, 30.594095) rotate(-3.700000) translate(-46.672863, -30.594095) " x="1.81448195" y="3.17397963" width="89.716763" height="54.8402312" rx="3.19560694"></rect>
                                <path d="M86.9220809,0.518843931 L2.88508671,5.94705202 C2.15550069,5.99348448 1.47438795,6.32836158 0.992093293,6.87776451 C0.509798634,7.42716745 0.265977982,8.14592243 0.314450867,8.87537572 L1.23028902,23.0256647 L90.7623121,17.2397688 L89.846474,3.08947977 C89.8000192,2.36062104 89.4656921,1.6801352 88.9171546,1.19795301 C88.368617,0.715770818 87.6508797,0.471458066 86.9220809,0.518843931 Z" id="Path" stroke="#263238" stroke-width="0.5" fill="#263238" fill-rule="nonzero" stroke-linecap="round" stroke-linejoin="round"></path>
                                <path d="M34.8175723,46.9828902 C19.4487861,54.8913295 9.41780347,56.6522543 3.39606936,56.5775723 L3.49433526,58.1065896 C3.54076772,58.8361756 3.87564481,59.5172883 4.42504775,59.999583 C4.97445069,60.4818777 5.69320567,60.7256983 6.42265896,60.6772254 L90.4557225,55.2450867 C91.1853086,55.1986542 91.8664213,54.8637772 92.348716,54.3143742 C92.8310106,53.7649713 93.0748313,53.0462163 93.0263584,52.316763 L91.2536416,24.8691329 C67.1549133,25.3211561 60.3273988,33.8545665 34.8175723,46.9828902 Z" id="Path" stroke="#263238" stroke-width="0.5" fill="#263238" fill-rule="nonzero" stroke-linecap="round" stroke-linejoin="round"></path>
                                <rect id="Rectangle" stroke="#263238" stroke-width="0.5" fill="#FFFFFF" fill-rule="nonzero" stroke-linecap="round" stroke-linejoin="round" transform="translate(14.175986, 23.263095) rotate(-3.700000) translate(-14.175986, -23.263095) " x="9.37667994" y="18.622979" width="9.59861272" height="9.28023121" rx="1.2067052"></rect>
                                <rect id="Rectangle" stroke="#263238" stroke-width="0.5" fill="#FFFFFF" fill-rule="nonzero" stroke-linecap="round" stroke-linejoin="round" transform="translate(14.173898, 23.265191) rotate(-3.700000) translate(-14.173898, -23.265191) " x="12.6861526" y="21.8265781" width="2.97549133" height="2.87722543" rx="0.589595376"></rect>
                                <path d="M9.15052023,19.9833526 L11.9569942,19.8025434 C12.2198249,19.7853237 12.4786907,19.8734957 12.6763658,20.0475678 C12.8740408,20.2216398 12.9942447,20.4672754 13.0104046,20.7301734 L13.0890173,21.9093642" id="Path" stroke="#263238" stroke-width="0.5" stroke-linecap="round" stroke-linejoin="round"></path>
                                <path d="M18.7294798,19.3662428 L15.9583815,19.5431214 C15.4118408,19.5788899 14.9971093,20.0498561 15.0307514,20.5965318 L15.1093642,21.7757225" id="Path" stroke="#263238" stroke-width="0.5" stroke-linecap="round" stroke-linejoin="round"></path>
                                <path d="M9.62219653,27.2471676 L12.4286705,27.0663584 C12.6908673,27.0491991 12.9355027,26.9285638 13.1087385,26.7310013 C13.2819743,26.5334387 13.3696139,26.2751392 13.3523699,26.012948 L13.2776879,24.8337572" id="Path" stroke="#263238" stroke-width="0.5" stroke-linecap="round" stroke-linejoin="round"></path>
                                <path d="M19.2011561,26.6300578 L16.449711,26.8069364 C16.1868661,26.8252689 15.9275486,26.7381225 15.7291201,26.5647742 C15.5306916,26.3914259 15.4095061,26.1461626 15.3923699,25.883237 L15.3176879,24.7040462" id="Path" stroke="#263238" stroke-width="0.5" stroke-linecap="round" stroke-linejoin="round"></path>
                                <line x1="9.41387283" y1="23.8" x2="12.703815" y2="23.5877457" id="Path" stroke="#263238" stroke-width="0.5" stroke-linecap="round" stroke-linejoin="round"></line>
                                <line x1="15.5928324" y1="23.3990751" x2="18.8788439" y2="23.1868208" id="Path" stroke="#263238" stroke-width="0.5" stroke-linecap="round" stroke-linejoin="round"></line>
                                <text id="CREDIT-CARD" fill="#FFFFFF" fill-rule="nonzero" transform="translate(65.743501, 11.149193) rotate(-3.700000) translate(-65.743501, -11.149193) " font-family="Nunito-Regular, Nunito" font-size="4.89384996" font-weight="normal">
                                    <tspan x="49.431362" y="12.6491926">CREDIT CARD</tspan>
                                </text>
                                <g id="Group" stroke-linecap="round" stroke-linejoin="round" transform="translate(37.425994, 38.108157) rotate(-3.700000) translate(-37.425994, -38.108157) translate(9.925994, 34.108157)" fill="#FFFFFF" fill-rule="nonzero" font-family="Nunito-Regular, Nunito" font-size="5.65365371" font-weight="normal" stroke="#263238" stroke-width="0.5">
                                    <text id="0000000000000000">
                                        <tspan x="0" y="6">0000000000000000</tspan>
                                    </text>
                                </g>
                                <circle id="Oval" stroke="#263238" stroke-width="0.5" fill="#FFFFFF" fill-rule="nonzero" stroke-linecap="round" stroke-linejoin="round" transform="translate(74.041160, 47.219328) rotate(-68.970000) translate(-74.041160, -47.219328) " cx="74.0411604" cy="47.2193285" r="4.48878613"></circle>
                                <circle id="Oval" stroke="#263238" stroke-width="0.5" fill="#FFFFFF" fill-rule="nonzero" stroke-linecap="round" stroke-linejoin="round" transform="translate(80.124260, 46.818599) rotate(-86.040000) translate(-80.124260, -46.818599) " cx="80.12426" cy="46.8185994" r="4.48878613"></circle>
                            </g>
                            <g id="freepik--Coins--inject-9" transform="translate(115.953757, 64.069364)">
                                <circle id="Oval" stroke="#263238" stroke-width="0.5" fill="#FFFFFF" fill-rule="nonzero" stroke-linecap="round" stroke-linejoin="round" transform="translate(29.003412, 15.197174) rotate(-15.380000) translate(-29.003412, -15.197174) " cx="29.003412" cy="15.1971736" r="10.2982659"></circle>
                                <circle id="Oval" stroke="#263238" stroke-width="0.5" fill="#FFFFFF" fill-rule="nonzero" stroke-linecap="round" stroke-linejoin="round" transform="translate(29.008490, 13.833955) rotate(-86.440000) translate(-29.008490, -13.833955) " cx="29.0084895" cy="13.8339552" r="10.2982659"></circle>
                                <path d="M37.4,11.3634682 C36.9862614,9.9523863 36.2238629,8.66820432 35.1831214,7.62936416" id="Path" stroke="#263238" stroke-width="0.5" fill="#FFFFFF" fill-rule="nonzero" stroke-linecap="round" stroke-linejoin="round"></path>
                                <path d="M29.9710983,22.526474 C30.4023623,22.4789335 30.8294037,22.3987811 31.2485549,22.2867052 C35.4172279,21.1777081 38.1574882,17.198243 37.7065896,12.9082081" id="Path" stroke="#263238" stroke-width="0.5" fill="#FFFFFF" fill-rule="nonzero" stroke-linecap="round" stroke-linejoin="round"></path>
                                <path d="M33.913526,6.58381503 C30.8002144,4.47204759 26.6857783,4.58564482 23.6937302,6.86597775 C20.701682,9.14631068 19.5012197,13.0833628 20.711917,16.6451716 C21.9226143,20.2069805 25.2736881,22.5969163 29.0356069,22.581577" id="Path" stroke="#263238" stroke-width="0.5" fill="#FFFFFF" fill-rule="nonzero" stroke-linecap="round" stroke-linejoin="round"></path>
                                <path d="M26.3352601,18.3128324 C26.1639134,18.2492051 26.0186796,18.1302517 25.9225434,17.9747977 C25.834157,17.8323391 25.7903565,17.6667185 25.796763,17.4991908 C25.8059923,17.3310361 25.8530156,17.1671262 25.9343353,17.0196532 C26.0177802,16.8646302 26.1590335,16.7488025 26.3273988,16.697341 C26.5216318,16.6336656 26.7295503,16.624153 26.9287861,16.6698266 L27.2825434,16.7523699 C27.4751445,16.7956069 27.6441618,16.8349133 27.7817341,16.8584971 C27.9757401,16.8854876 28.1715547,16.8973154 28.3673988,16.8938728 C28.6198881,16.8934101 28.871592,16.8657358 29.1181503,16.8113295 C29.308914,16.7831873 29.4960599,16.734424 29.6763006,16.665896 C29.8599984,16.6004176 30.0375646,16.5188686 30.2069364,16.4221965 C30.3616202,16.3387577 30.4896705,16.2134319 30.5764162,16.060578 C30.6606129,15.9080499 30.6790626,15.7278106 30.6275145,15.5613873 C30.5664209,15.3944569 30.4314187,15.2652612 30.2619653,15.2115607 C30.0014506,15.1121073 29.7227543,15.069231 29.4443931,15.0857803 L28.214104,15.0857803 C27.750289,15.0857803 27.3768786,15.0661272 27.0899422,15.0425434 C26.7932591,15.0202092 26.4988348,14.9742054 26.2094798,14.9049711 C25.9483331,14.8528651 25.6999439,14.7500373 25.4783815,14.6023121 C25.2800166,14.4556888 25.1096033,14.2746247 24.9752601,14.0677457 C24.8089872,13.8107294 24.6867693,13.5277682 24.6136416,13.2305202 C24.389129,12.4659213 24.6001939,11.6397531 25.1639306,11.0765318 C25.8880104,10.3718284 26.8169385,9.91493342 27.8171098,9.77156069 C28.1444942,9.70190653 28.4771436,9.65983229 28.8115607,9.64578035 C29.0588924,9.62859089 29.3071191,9.62859089 29.5544509,9.64578035 C29.7313295,9.66543353 29.9475145,9.69687861 30.2423121,9.74797688 C30.4457344,9.77732449 30.6344316,9.87098441 30.7808092,10.0152601 C30.911804,10.1338254 30.9990381,10.2930623 31.0284393,10.4672832 C31.0553316,10.6313262 31.0445789,10.7993363 30.9969942,10.9586127 C30.9514502,11.1288759 30.835707,11.2717687 30.6786127,11.3516763 C30.4919114,11.4422624 30.2836555,11.4790134 30.0772254,11.4578035 C29.4798996,11.4023285 28.8780507,11.4194865 28.2848555,11.5089017 C28.0694675,11.5510448 27.856825,11.6061743 27.6480925,11.6739884 C27.4356956,11.7357929 27.2405777,11.8461354 27.0781503,11.9963006 C26.9344295,12.1069523 26.8683973,12.2912282 26.9091329,12.4679769 C26.9544609,12.6470264 27.0831955,12.7933158 27.2550289,12.8610405 C27.5089091,12.9410282 27.7757463,12.9717145 28.0411561,12.9514451 L29.2557225,12.9278613 C29.6783756,12.9241387 30.1009107,12.943822 30.5213873,12.9868208 C30.8573553,13.026831 31.1864943,13.111429 31.5001156,13.2383815 C31.7959089,13.3596438 32.0576561,13.5512319 32.262659,13.7965318 C32.824278,14.5555534 32.9716158,15.54419 32.6557225,16.4339884 C32.4357268,16.9628528 32.0618707,17.4133973 31.582659,17.7271676 C31.0230401,18.0917599 30.3985157,18.3453062 29.7431214,18.4739884 C28.6155601,18.7517253 27.4315801,18.6957354 26.3352601,18.3128324 Z M26.5082081,8.25433526 C26.4527428,8.09217847 26.4759937,7.91343752 26.5710983,7.77086705 C26.6507747,7.64244401 26.7778944,7.55063535 26.9248555,7.51537572 C27.0721912,7.4809731 27.2269768,7.50049562 27.3611561,7.57040462 C27.5137944,7.64926027 27.6212317,7.79444584 27.6520231,7.96346821 L28.2101734,10.0584971 L27.0624277,10.3650867 L26.5082081,8.25433526 Z M29.2910983,18.0809249 L30.4467052,17.7743353 L31.0009249,19.8536416 C31.0711644,20.0639303 31.0093206,20.2958445 30.8436994,20.443237 C30.6923726,20.5912442 30.4760815,20.6519835 30.2698266,20.6043931 C30.0516977,20.5554994 29.8842965,20.3803482 29.8453179,20.1602312 L29.2910983,18.0809249 Z" id="Shape" fill="#263238" fill-rule="nonzero"></path>
                                <line x1="20.4904046" y1="19.5942197" x2="20.4904046" y2="20.8952601" id="Path" stroke="#263238" stroke-width="0.5" stroke-linecap="round" stroke-linejoin="round"></line>
                                <line x1="21.4101734" y1="20.8952601" x2="21.4101734" y2="22.2788439" id="Path" stroke="#263238" stroke-width="0.5" stroke-linecap="round" stroke-linejoin="round"></line>
                                <line x1="23.249711" y1="22.4321387" x2="23.249711" y2="23.7331792" id="Path" stroke="#263238" stroke-width="0.5" stroke-linecap="round" stroke-linejoin="round"></line>
                                <line x1="25.8557225" y1="23.7331792" x2="25.8557225" y2="24.8848555" id="Path" stroke="#263238" stroke-width="0.5" stroke-linecap="round" stroke-linejoin="round"></line>
                                <line x1="28.6936416" y1="24.2716763" x2="28.6936416" y2="24.8062428" id="Path" stroke="#263238" stroke-width="0.5" stroke-linecap="round" stroke-linejoin="round"></line>
                                <line x1="34.2908671" y1="24.0397688" x2="34.2908671" y2="23.1986127" id="Path" stroke="#263238" stroke-width="0.5" stroke-linecap="round" stroke-linejoin="round"></line>
                                <line x1="35.5172254" y1="23.1986127" x2="35.5172254" y2="21.8936416" id="Path" stroke="#263238" stroke-width="0.5" stroke-linecap="round" stroke-linejoin="round"></line>
                                <circle id="Oval" stroke="#263238" stroke-width="0.5" fill="#FFFFFF" fill-rule="nonzero" stroke-linecap="round" stroke-linejoin="round" transform="translate(14.292899, 23.660190) rotate(-9.940000) translate(-14.292899, -23.660190) " cx="14.2928991" cy="23.6601903" r="10.2982659"></circle>
                                <circle id="Oval" stroke="#263238" stroke-width="0.5" fill="#FFFFFF" fill-rule="nonzero" stroke-linecap="round" stroke-linejoin="round" transform="translate(14.290586, 22.281594) rotate(-9.940000) translate(-14.290586, -22.281594) " cx="14.290586" cy="22.2815939" r="10.2982659"></circle>
                                <path d="M21.7521387,26.8619653 C23.6051569,23.844578 23.4577955,20.0080084 21.3787844,17.141649 C19.2997733,14.2752897 15.6986535,12.9437801 12.2550027,13.7681419 C8.81135198,14.5925038 6.20352936,17.4103475 5.64783454,20.9074186 C5.09213972,24.4044896 6.69803811,27.8919059 9.71653179,29.7431214 C13.8362952,32.2671941 19.2219128,30.9779525 21.7521387,26.8619653 L21.7521387,26.8619653 Z" id="Path" stroke="#263238" stroke-width="0.5" fill="#FFFFFF" fill-rule="nonzero" stroke-linecap="round" stroke-linejoin="round"></path>
                                <path d="M9.20947977,23.4462428 C9.13816435,23.2785519 9.12434386,23.0919753 9.17017341,22.9156069 C9.211196,22.7520117 9.30181009,22.605107 9.42959538,22.4950289 C9.55602679,22.3871822 9.70516403,22.3092546 9.86589595,22.267052 C10.0310141,22.2196519 10.2079538,22.2365033 10.3611561,22.3142197 C10.5407451,22.4140099 10.6911453,22.5589903 10.7974566,22.7347977 C10.8210405,22.7701734 10.8839306,22.8723699 10.9821965,23.0453179 C11.0804624,23.2182659 11.1708671,23.3636994 11.2494798,23.4816185 C11.3676618,23.6417745 11.4991496,23.7916706 11.6425434,23.929711 C11.8177449,24.1117496 12.0113856,24.2750928 12.2203468,24.4171098 C12.3727558,24.5353815 12.5374865,24.6368556 12.7116763,24.7197688 C12.8858536,24.8085276 13.0673291,24.8821698 13.254104,24.9398844 C13.4225055,24.9870212 13.6006159,24.9870212 13.7690173,24.9398844 C13.9351667,24.8954712 14.0766797,24.7865062 14.1620809,24.6372254 C14.2420953,24.4762949 14.2420953,24.2871733 14.1620809,24.1262428 C14.0536614,23.8693475 13.8930404,23.6377856 13.6904046,23.4462428 L12.8453179,22.5539884 C12.5308671,22.2159538 12.283237,21.932948 12.1024277,21.7128324 C11.9155446,21.4806405 11.7460662,21.2349625 11.5953757,20.9778035 C11.4512172,20.7535715 11.3548735,20.5020076 11.3123699,20.2388439 C11.2812298,19.9934617 11.2945445,19.7444768 11.3516763,19.503815 C11.4234375,19.207992 11.5443467,18.9263134 11.7093642,18.6705202 C12.1058436,17.9782862 12.8496559,17.5588545 13.6471676,17.5778035 C14.6558791,17.619292 15.6257122,17.9783366 16.4182659,18.6036994 C16.6991388,18.7901191 16.9622876,19.0019538 17.2043931,19.2365318 C17.3836105,19.408912 17.5529001,19.5913248 17.7114451,19.7828902 C17.8215029,19.9243931 17.9512139,20.1130636 18.1045087,20.3528324 C18.2250287,20.5196492 18.2884462,20.7209307 18.2853179,20.9267052 C18.2867476,21.1030731 18.2316472,21.2752618 18.1280925,21.4180347 C18.0231223,21.5518089 17.8885825,21.6594407 17.7350289,21.7324855 C17.5838924,21.8106414 17.4066023,21.8206497 17.2476301,21.76 C17.0544186,21.6856468 16.8847289,21.5607552 16.7563006,21.3983815 C16.385287,20.9258769 15.9575674,20.5007976 15.4827746,20.1327168 C15.3026368,20.0081402 15.1163517,19.8926959 14.9246243,19.7868208 C14.733971,19.6758081 14.5198865,19.6111788 14.2996532,19.5981503 C14.1193722,19.5689194 13.9388785,19.6491389 13.8397688,19.8025434 C13.7346864,19.9579302 13.7140451,20.1554969 13.7847399,20.3292486 C13.9024109,20.5745871 14.0681541,20.7937958 14.2721387,20.9738728 L15.1250867,21.8386127 C15.4192787,22.1425254 15.6961695,22.4627213 15.9544509,22.7976879 C16.1577743,23.0672907 16.3230963,23.3635478 16.4457803,23.6781503 C16.5652905,23.9759208 16.6072176,24.2991656 16.5676301,24.6175723 C16.5156748,24.9664378 16.3925901,25.300907 16.2060116,25.6002312 C15.9258026,26.1125176 15.4773491,26.5123771 14.9364162,26.7322543 C14.402121,26.9368917 13.8184488,26.9752551 13.2619653,26.8423121 C12.611895,26.689787 11.9977607,26.4120915 11.4538728,26.0247399 C10.4695132,25.4034169 9.68913679,24.5068724 9.20947977,23.4462428 L9.20947977,23.4462428 Z M16.6147977,16.6383815 C16.6945727,16.4865286 16.8393213,16.3794146 17.0078613,16.3475145 C17.1559673,16.3211934 17.3085749,16.3505949 17.4363006,16.4300578 C17.5634497,16.5145728 17.6567067,16.6412353 17.6996532,16.7877457 C17.7472478,16.9481828 17.7198003,17.1215352 17.6249711,17.259422 L16.492948,19.1068208 L15.4827746,18.4739884 L16.6147977,16.6383815 Z M11.3988439,25.4312139 L12.4168786,26.056185 L11.3045087,27.9075145 C11.2015987,28.1017492 10.9929695,28.2161089 10.7738728,28.1983815 C10.560946,28.1950925 10.3654102,28.0801592 10.2589595,27.8957225 C10.1416048,27.7050046 10.1525095,27.4619842 10.286474,27.2825434 L11.3988439,25.4312139 Z" id="Shape" fill="#263238" fill-rule="nonzero"></path>
                                <line x1="5.78196532" y1="28.0490173" x2="5.78196532" y2="29.3539884" id="Path" stroke="#263238" stroke-width="0.5" stroke-linecap="round" stroke-linejoin="round"></line>
                                <line x1="6.7017341" y1="29.3539884" x2="6.7017341" y2="30.7336416" id="Path" stroke="#263238" stroke-width="0.5" stroke-linecap="round" stroke-linejoin="round"></line>
                                <line x1="8.54127168" y1="30.8869364" x2="8.54127168" y2="32.1879769" id="Path" stroke="#263238" stroke-width="0.5" stroke-linecap="round" stroke-linejoin="round"></line>
                                <line x1="11.1472832" y1="32.1879769" x2="11.1472832" y2="33.3396532" id="Path" stroke="#263238" stroke-width="0.5" stroke-linecap="round" stroke-linejoin="round"></line>
                                <line x1="13.9852023" y1="32.726474" x2="13.9852023" y2="33.2649711" id="Path" stroke="#263238" stroke-width="0.5" stroke-linecap="round" stroke-linejoin="round"></line>
                                <line x1="19.5824277" y1="32.4945665" x2="19.5824277" y2="31.6534104" id="Path" stroke="#263238" stroke-width="0.5" stroke-linecap="round" stroke-linejoin="round"></line>
                                <line x1="20.8087861" y1="31.6534104" x2="20.8087861" y2="30.3484393" id="Path" stroke="#263238" stroke-width="0.5" stroke-linecap="round" stroke-linejoin="round"></line>
                                <circle id="Oval" stroke="#263238" stroke-width="0.5" fill="#FFFFFF" fill-rule="nonzero" stroke-linecap="round" stroke-linejoin="round" transform="translate(14.289979, 21.543889) rotate(-11.850000) translate(-14.289979, -21.543889) " cx="14.2899792" cy="21.5438891" r="10.2982659"></circle>
                                <circle id="Oval" stroke="#263238" stroke-width="0.5" fill="#FFFFFF" fill-rule="nonzero" stroke-linecap="round" stroke-linejoin="round" transform="translate(14.290480, 20.166040) rotate(-11.850000) translate(-14.290480, -20.166040) " cx="14.2904801" cy="20.1660401" r="10.2982659"></circle>
                                <circle id="Oval" stroke="#263238" stroke-width="0.5" fill="#FFFFFF" fill-rule="nonzero" stroke-linecap="round" stroke-linejoin="round" transform="translate(14.286147, 20.178210) rotate(-13.370000) translate(-14.286147, -20.178210) " cx="14.286147" cy="20.1782099" r="8.75352601"></circle>
                                <path d="M9.20947977,21.3276301 C9.07059782,20.9974661 9.15936563,20.6154475 9.42959538,20.3803468 C9.55580419,20.2713133 9.70491586,20.1920557 9.86589595,20.1484393 C10.0316636,20.1041691 10.2079194,20.1223542 10.3611561,20.1995376 C10.5411408,20.2970296 10.6917783,20.4408816 10.7974566,20.616185 C10.8210405,20.6554913 10.8839306,20.7576879 10.9821965,20.9306358 C11.0804624,21.1035838 11.1708671,21.2490173 11.2494798,21.3669364 C11.3676618,21.5270924 11.4991496,21.6769885 11.6425434,21.8150289 C11.8178249,21.9958213 12.0114721,22.1578527 12.2203468,22.2984971 C12.3716513,22.4194416 12.536541,22.5223328 12.7116763,22.6050867 C12.8859195,22.6926413 13.0674041,22.7649721 13.254104,22.8212717 C13.4203634,22.8767499 13.5990129,22.8835686 13.7690173,22.8409249 C13.9356503,22.7951728 14.0771352,22.6848145 14.1620809,22.5343353 C14.2420953,22.3734047 14.2420953,22.1842831 14.1620809,22.0233526 C14.0534904,21.7676974 13.8928557,21.5374544 13.6904046,21.3472832 L12.833526,20.4393064 C12.5190751,20.097341 12.2714451,19.8182659 12.0906358,19.5942197 C11.9028478,19.3627039 11.7333208,19.1169556 11.5835838,18.8591908 C11.4389142,18.6352178 11.3425283,18.3835435 11.300578,18.1202312 C11.2694833,17.8761555 11.2827999,17.6284678 11.3398844,17.3891329 C11.4122773,17.0922919 11.5331281,16.8094215 11.6975723,16.5519075 C12.094446,15.8605543 12.8384734,15.4425105 13.6353757,15.4631214 C14.6444626,15.5027326 15.6148578,15.8619853 16.406474,16.4890173 C16.6873469,16.675437 16.9504956,16.8872717 17.1926012,17.1218497 C17.3693655,17.2999743 17.5347773,17.4890163 17.6878613,17.6878613 C17.7979191,17.8293642 17.9276301,18.0180347 18.0809249,18.2538728 C18.2004446,18.4211903 18.2637557,18.6221343 18.2618018,18.8277457 C18.264009,19.0054535 18.2088673,19.1791498 18.1045087,19.3230058 C17.9984629,19.4557097 17.8641907,19.5631275 17.7114451,19.6374566 C17.5597405,19.7143303 17.3824641,19.7229082 17.2240462,19.6610405 C17.0310119,19.5882979 16.8612426,19.4647058 16.7327168,19.3033526 C16.3627664,18.8299032 15.9349218,18.4046996 15.4591908,18.0376879 C15.2906474,17.9127572 15.1161873,17.7960132 14.9364162,17.6878613 C14.7457629,17.5768486 14.5316784,17.5122193 14.3114451,17.4991908 C14.1317083,17.4739937 13.9532999,17.5532863 13.8515607,17.7035838 C13.7464584,17.8604293 13.7258509,18.0591448 13.7965318,18.2342197 C13.9108876,18.4739629 14.071135,18.6889615 14.2682081,18.867052 L15.1211561,19.7317919 C15.4172401,20.033968 15.6942302,20.3542789 15.9505202,20.6908671 C16.1546528,20.9599417 16.32004,21.2563157 16.4418497,21.5713295 C16.5615279,21.8690561 16.6034606,22.1923444 16.5636994,22.5107514 C16.5110968,22.8594512 16.3880591,23.1937928 16.2020809,23.4934104 C15.9206585,24.0038184 15.4724522,24.4020698 14.9324855,24.6215029 C14.3985927,24.8274478 13.8149121,24.8671819 13.2580347,24.7354913 C12.6085732,24.5811787 11.9947701,24.3036329 11.4499422,23.9179191 C10.4648227,23.293395 9.68555414,22.3924511 9.20947977,21.3276301 L9.20947977,21.3276301 Z M16.6147977,14.5197688 C16.692479,14.3792065 16.8251575,14.2773166 16.9810055,14.238541 C17.1368534,14.1997654 17.3018087,14.2276029 17.4363006,14.3153757 C17.5651784,14.3980621 17.6589662,14.5254455 17.6996532,14.6730636 C17.747153,14.8322252 17.7196706,15.0043517 17.6249711,15.1408092 L16.492948,16.9882081 L15.4827746,16.3671676 L16.6147977,14.5197688 Z M11.3988439,23.3165318 L12.4168786,23.9415029 L11.2927168,25.7731792 C11.1917215,25.969704 10.9822976,26.0860507 10.7620809,26.0679769 C10.5490109,26.0615719 10.3543334,25.9456571 10.2471676,25.7613873 C10.1298129,25.5706693 10.1407176,25.3276489 10.2746821,25.1482081 L11.3988439,23.3165318 Z" id="Shape" fill="#263238" fill-rule="nonzero"></path>
                                <line x1="5.78196532" y1="25.9343353" x2="5.78196532" y2="27.2353757" id="Path" stroke="#263238" stroke-width="0.5" stroke-linecap="round" stroke-linejoin="round"></line>
                                <line x1="6.7017341" y1="27.2353757" x2="6.7017341" y2="28.6150289" id="Path" stroke="#263238" stroke-width="0.5" stroke-linecap="round" stroke-linejoin="round"></line>
                                <line x1="8.54127168" y1="28.7683237" x2="8.54127168" y2="30.0732948" id="Path" stroke="#263238" stroke-width="0.5" stroke-linecap="round" stroke-linejoin="round"></line>
                                <line x1="11.1472832" y1="30.0732948" x2="11.1472832" y2="31.2249711" id="Path" stroke="#263238" stroke-width="0.5" stroke-linecap="round" stroke-linejoin="round"></line>
                                <line x1="13.9852023" y1="30.6117919" x2="13.9852023" y2="31.1463584" id="Path" stroke="#263238" stroke-width="0.5" stroke-linecap="round" stroke-linejoin="round"></line>
                                <line x1="19.5824277" y1="30.3798844" x2="19.5824277" y2="29.5387283" id="Path" stroke="#263238" stroke-width="0.5" stroke-linecap="round" stroke-linejoin="round"></line>
                                <line x1="20.8087861" y1="29.5387283" x2="20.8087861" y2="28.2337572" id="Path" stroke="#263238" stroke-width="0.5" stroke-linecap="round" stroke-linejoin="round"></line>
                                <circle id="Oval" stroke="#263238" stroke-width="0.5" fill="#FFFFFF" fill-rule="nonzero" stroke-linecap="round" stroke-linejoin="round" transform="translate(14.294867, 19.420737) rotate(-57.400000) translate(-14.294867, -19.420737) " cx="14.2948674" cy="19.4207367" r="10.2982659"></circle>
                                <circle id="Oval" stroke="#263238" stroke-width="0.5" fill="#FFFFFF" fill-rule="nonzero" stroke-linecap="round" stroke-linejoin="round" transform="translate(14.295424, 18.042775) rotate(-57.400000) translate(-14.295424, -18.042775) " cx="14.2954243" cy="18.0427746" r="10.2982659"></circle>
                                <circle id="Oval" stroke="#263238" stroke-width="0.5" fill="#FFFFFF" fill-rule="nonzero" stroke-linecap="round" stroke-linejoin="round" transform="translate(14.288365, 18.026633) rotate(-71.200000) translate(-14.288365, -18.026633) " cx="14.2883651" cy="18.0266335" r="8.75352601"></circle>
                                <path d="M9.20947977,19.1972254 C9.13817222,19.0309127 9.12434103,18.8455748 9.17017341,18.6705202 C9.21209375,18.5061926 9.30248549,18.3582789 9.42959538,18.2460116 C9.55737057,18.1401707 9.70604328,18.0624859 9.86589595,18.0180347 C10.0313262,17.9697949 10.2090601,17.9881326 10.3611561,18.0691329 C10.5411408,18.166625 10.6917783,18.310477 10.7974566,18.4857803 C10.8210405,18.5211561 10.8839306,18.6272832 10.9821965,18.7963006 C11.0804624,18.9653179 11.1708671,19.1146821 11.2494798,19.2326012 C11.3656557,19.3943618 11.4972972,19.5444332 11.6425434,19.6806936 C11.8177449,19.8627323 12.0113856,20.0260754 12.2203468,20.1680925 C12.3716513,20.289037 12.536541,20.3919281 12.7116763,20.4746821 C12.8866683,20.5605604 13.0680136,20.6328357 13.254104,20.6908671 C13.4222412,20.7398908 13.6008802,20.7398908 13.7690173,20.6908671 C13.9359748,20.6481012 14.0780658,20.5386912 14.1620809,20.3882081 C14.2420953,20.2272776 14.2420953,20.0381559 14.1620809,19.8772254 C14.0534904,19.6215702 13.8928557,19.3913272 13.6904046,19.2011561 L12.8453179,18.3089017 C12.5308671,17.9669364 12.283237,17.6839306 12.1024277,17.463815 C11.9155446,17.2316231 11.7460662,16.9859452 11.5953757,16.7287861 C11.4512172,16.5045542 11.3548735,16.2529902 11.3123699,15.9898266 C11.2812753,15.7457509 11.2945918,15.4980632 11.3516763,15.2587283 C11.423586,14.9617266 11.5444699,14.6787788 11.7093642,14.4215029 C12.1049737,13.7288751 12.8498343,13.3103631 13.6471676,13.3327168 C14.6559151,13.3706612 15.6264274,13.7285807 16.4182659,14.3546821 C16.6982163,14.5423591 16.9612563,14.7541063 17.2043931,14.9875145 C17.3847941,15.1601186 17.5541466,15.3439119 17.7114451,15.5378035 C17.8215029,15.6793064 17.9512139,15.8679769 18.1045087,16.103815 C18.2245243,16.2708847 18.2878879,16.4719953 18.2853931,16.6776879 C18.2875928,16.8553957 18.2324511,17.029092 18.1280925,17.172948 C18.0218095,17.3044133 17.8875238,17.410499 17.7350289,17.4834682 C17.5838924,17.561624 17.4066023,17.5716323 17.2476301,17.5109827 C17.053652,17.4380361 16.8836138,17.3128879 16.7563006,17.1493642 C16.385287,16.6768595 15.9575674,16.2517802 15.4827746,15.8836994 C15.3026368,15.7591228 15.1163517,15.6436786 14.9246243,15.5378035 C14.733971,15.4267908 14.5198865,15.3621615 14.2996532,15.3491329 C14.1196451,15.3219653 13.9402271,15.4017066 13.8397688,15.553526 C13.7346665,15.7103715 13.714059,15.909087 13.7847399,16.0841618 C13.9026744,16.3282032 14.0684175,16.5460752 14.2721387,16.7248555 L15.1250867,17.5895954 C15.4192787,17.8935081 15.6961695,18.213704 15.9544509,18.5486705 C16.1586427,18.81913 16.3240199,19.1168089 16.4457803,19.4330636 C16.5654666,19.7294117 16.607411,20.0514359 16.5676301,20.3685549 C16.5157602,20.7186701 16.3926888,21.0544408 16.2060116,21.3551445 C15.9245892,21.8655525 15.4763828,22.2638039 14.9364162,22.483237 C14.4021006,22.6872666 13.819002,22.7269611 13.2619653,22.5972254 C12.6125038,22.4429128 11.9987007,22.165367 11.4538728,21.7796532 C10.4701407,21.1558704 9.69005955,20.2582989 9.20947977,19.1972254 Z M16.6147977,12.3893642 C16.6945732,12.2382335 16.839609,12.1323573 17.0078613,12.1024277 C17.1554734,12.0729823 17.3087578,12.1011078 17.4363006,12.1810405 C17.5634497,12.2655555 17.6567067,12.392218 17.6996532,12.5387283 C17.7472478,12.6991655 17.7198003,12.8725179 17.6249711,13.0104046 L16.5086705,14.8578035 L15.4984971,14.236763 L16.6147977,12.3893642 Z M11.3988439,21.1861272 L12.4168786,21.8110983 L11.2927168,23.6427746 C11.1894062,23.8370421 10.9816042,23.9524876 10.7620809,23.9375723 C10.5490109,23.9311673 10.3543334,23.8152525 10.2471676,23.6309827 C10.1298129,23.4402647 10.1407176,23.1972443 10.2746821,23.0178035 L11.3988439,21.1861272 Z" id="Shape" fill="#263238" fill-rule="nonzero"></path>
                                <line x1="5.78196532" y1="23.8" x2="5.78196532" y2="25.1049711" id="Path" stroke="#263238" stroke-width="0.5" stroke-linecap="round" stroke-linejoin="round"></line>
                                <line x1="6.7017341" y1="25.1049711" x2="6.7017341" y2="26.4846243" id="Path" stroke="#263238" stroke-width="0.5" stroke-linecap="round" stroke-linejoin="round"></line>
                                <line x1="8.54127168" y1="26.6379191" x2="8.54127168" y2="27.9428902" id="Path" stroke="#263238" stroke-width="0.5" stroke-linecap="round" stroke-linejoin="round"></line>
                                <line x1="11.1472832" y1="27.9428902" x2="11.1472832" y2="29.0906358" id="Path" stroke="#263238" stroke-width="0.5" stroke-linecap="round" stroke-linejoin="round"></line>
                                <line x1="13.9852023" y1="28.4774566" x2="13.9852023" y2="29.0159538" id="Path" stroke="#263238" stroke-width="0.5" stroke-linecap="round" stroke-linejoin="round"></line>
                                <line x1="19.5824277" y1="28.2494798" x2="19.5824277" y2="27.4043931" id="Path" stroke="#263238" stroke-width="0.5" stroke-linecap="round" stroke-linejoin="round"></line>
                                <line x1="20.8087861" y1="27.4043931" x2="20.8087861" y2="26.1033526" id="Path" stroke="#263238" stroke-width="0.5" stroke-linecap="round" stroke-linejoin="round"></line>
                                <circle id="Oval" stroke="#263238" stroke-width="0.5" fill="#FFFFFF" fill-rule="nonzero" stroke-linecap="round" stroke-linejoin="round" transform="translate(14.292866, 17.491321) rotate(-9.940000) translate(-14.292866, -17.491321) " cx="14.2928662" cy="17.4913215" r="10.2982659"></circle>
                                <circle id="Oval" stroke="#263238" stroke-width="0.5" fill="#FFFFFF" fill-rule="nonzero" stroke-linecap="round" stroke-linejoin="round" transform="translate(14.295943, 16.108961) rotate(-9.570000) translate(-14.295943, -16.108961) " cx="14.2959434" cy="16.1089614" r="10.2982659"></circle>
                                <circle id="Oval" stroke="#263238" stroke-width="0.5" fill="#FFFFFF" fill-rule="nonzero" stroke-linecap="round" stroke-linejoin="round" transform="translate(14.284782, 16.106172) rotate(-71.200000) translate(-14.284782, -16.106172) " cx="14.2847823" cy="16.1061723" r="8.75352601"></circle>
                                <path d="M9.20947977,17.2947977 C9.07059782,16.9646337 9.15936563,16.5826151 9.42959538,16.3475145 C9.55580419,16.2384809 9.70491586,16.1592233 9.86589595,16.1156069 C10.0315061,16.0694165 10.2084656,16.0876742 10.3611561,16.1667052 C10.5411408,16.2641972 10.6917783,16.4080492 10.7974566,16.5833526 C10.8210405,16.6187283 10.8839306,16.7248555 10.9821965,16.8978035 C11.0804624,17.0707514 11.1708671,17.216185 11.2494798,17.334104 C11.3676618,17.49426 11.4991496,17.6441561 11.6425434,17.7821965 C11.8178249,17.9629889 12.0114721,18.1250203 12.2203468,18.2656647 C12.3716513,18.3866092 12.536541,18.4895004 12.7116763,18.5722543 C12.8859195,18.6598089 13.0674041,18.7321397 13.254104,18.7884393 C13.4207353,18.8418395 13.5988004,18.8486358 13.7690173,18.8080925 C13.9356503,18.7623404 14.0771352,18.6519821 14.1620809,18.5015029 C14.2420953,18.3405724 14.2420953,18.1514507 14.1620809,17.9905202 C14.0534904,17.734865 13.8928557,17.504622 13.6904046,17.3144509 L12.8453179,16.4221965 C12.5308671,16.0802312 12.283237,15.8011561 12.1024277,15.5771098 C11.9146397,15.3455941 11.7451128,15.0998458 11.5953757,14.8420809 C11.4507061,14.618108 11.3543202,14.3664337 11.3123699,14.1031214 C11.2812753,13.8590457 11.2945918,13.611358 11.3516763,13.3720231 C11.4240692,13.0751821 11.54492,12.7923116 11.7093642,12.5347977 C12.1062379,11.8434445 12.8502653,11.4254006 13.6471676,11.4460116 C14.6562545,11.4856227 15.6266497,11.8448754 16.4182659,12.4719075 C16.6991388,12.6583272 16.9622876,12.8701619 17.2043931,13.1047399 C17.3845739,13.2761711 17.5539182,13.4586429 17.7114451,13.6510983 C17.8215029,13.7926012 17.9512139,13.9812717 18.1045087,14.2171098 C18.2240284,14.3844273 18.2873395,14.5853713 18.2853856,14.7909827 C18.2875928,14.9686905 18.2324511,15.1423868 18.1280925,15.2862428 C18.0220467,15.4189467 17.8877745,15.5263645 17.7350289,15.6006936 C17.5833243,15.6775673 17.4060479,15.6861452 17.2476301,15.6242775 C17.053652,15.5513309 16.8836138,15.4261827 16.7563006,15.262659 C16.3852189,14.7913765 15.9574885,14.3676065 15.4827746,14.0009249 C15.302722,13.8750097 15.1164354,13.7582526 14.9246243,13.6510983 C14.733971,13.5400856 14.5198865,13.4754563 14.2996532,13.4624277 C14.1199164,13.4372307 13.941508,13.5165233 13.8397688,13.6668208 C13.7346665,13.8236663 13.714059,14.0223818 13.7847399,14.1974566 C13.9024109,14.4427952 14.0681541,14.6620039 14.2721387,14.8420809 L15.1250867,15.7068208 C15.4211707,16.0089969 15.6981609,16.3293078 15.9544509,16.665896 C16.1585834,16.9349707 16.3239707,17.2313446 16.4457803,17.5463584 C16.5654585,17.844085 16.6073913,18.1673733 16.5676301,18.4857803 C16.5150275,18.8344801 16.3919898,19.1688217 16.2060116,19.4684393 C15.9245892,19.9788473 15.4763828,20.3770987 14.9364162,20.5965318 C14.4025233,20.8024767 13.8188428,20.8422108 13.2619653,20.7105202 C12.6125038,20.5562076 11.9987007,20.2786618 11.4538728,19.892948 C10.4661205,19.2669174 9.68531563,18.3630435 9.20947977,17.2947977 L9.20947977,17.2947977 Z M16.6147977,10.4869364 C16.692479,10.3463741 16.8251575,10.2444842 16.9810055,10.2057086 C17.1368534,10.166933 17.3018087,10.1947706 17.4363006,10.2825434 C17.5641562,10.3645423 17.6577737,10.4902972 17.6996532,10.6363006 C17.7472478,10.7967378 17.7198003,10.9700901 17.6249711,11.1079769 L16.492948,12.9553757 L15.4827746,12.3343353 L16.6147977,10.4869364 Z M11.3988439,19.2601156 L12.4168786,19.8850867 L11.2927168,21.716763 C11.1917215,21.9132879 10.9822976,22.0296345 10.7620809,22.0115607 C10.5490109,22.0051557 10.3543334,21.8892409 10.2471676,21.7049711 C10.1298129,21.5142532 10.1407176,21.2712327 10.2746821,21.0917919 L11.3988439,19.2601156 Z" id="Shape" fill="#263238" fill-rule="nonzero"></path>
                                <line x1="5.78196532" y1="21.8818497" x2="5.78196532" y2="23.1828902" id="Path" stroke="#263238" stroke-width="0.5" stroke-linecap="round" stroke-linejoin="round"></line>
                                <line x1="6.7017341" y1="23.1828902" x2="6.7017341" y2="24.5625434" id="Path" stroke="#263238" stroke-width="0.5" stroke-linecap="round" stroke-linejoin="round"></line>
                                <line x1="8.54127168" y1="24.7158382" x2="8.54127168" y2="26.0208092" id="Path" stroke="#263238" stroke-width="0.5" stroke-linecap="round" stroke-linejoin="round"></line>
                                <line x1="11.1472832" y1="26.0208092" x2="11.1472832" y2="27.1724855" id="Path" stroke="#263238" stroke-width="0.5" stroke-linecap="round" stroke-linejoin="round"></line>
                                <line x1="13.9852023" y1="26.5593064" x2="13.9852023" y2="27.0938728" id="Path" stroke="#263238" stroke-width="0.5" stroke-linecap="round" stroke-linejoin="round"></line>
                                <line x1="19.5824277" y1="26.3273988" x2="19.5824277" y2="25.4862428" id="Path" stroke="#263238" stroke-width="0.5" stroke-linecap="round" stroke-linejoin="round"></line>
                                <line x1="20.8087861" y1="25.4862428" x2="20.8087861" y2="24.1812717" id="Path" stroke="#263238" stroke-width="0.5" stroke-linecap="round" stroke-linejoin="round"></line>
                                <circle id="Oval" stroke="#263238" stroke-width="0.5" fill="#FFFFFF" fill-rule="nonzero" stroke-linecap="round" stroke-linejoin="round" transform="translate(14.291935, 15.574450) rotate(-9.940000) translate(-14.291935, -15.574450) " cx="14.2919347" cy="15.57445" r="10.2982659"></circle>
                                <circle id="Oval" stroke="#263238" stroke-width="0.5" fill="#FFFFFF" fill-rule="nonzero" stroke-linecap="round" stroke-linejoin="round" transform="translate(14.293552, 14.191923) rotate(-9.940000) translate(-14.293552, -14.191923) " cx="14.2935522" cy="14.1919229" r="10.2982659"></circle>
                                <circle id="Oval" stroke="#263238" stroke-width="0.5" fill="#FFFFFF" fill-rule="nonzero" stroke-linecap="round" stroke-linejoin="round" transform="translate(14.285130, 14.185711) rotate(-71.200000) translate(-14.285130, -14.185711) " cx="14.2851302" cy="14.1857111" r="8.75352601"></circle>
                                <path d="M9.20947977,15.3569942 C9.13845389,15.1892332 9.12464057,15.0027534 9.17017341,14.8263584 C9.211196,14.6627631 9.30181009,14.5158584 9.42959538,14.4057803 C9.55602679,14.2979336 9.70516403,14.2200061 9.86589595,14.1778035 C10.0310141,14.1304033 10.2079538,14.1472547 10.3611561,14.2249711 C10.5407451,14.3247614 10.6911453,14.4697418 10.7974566,14.6455491 C10.8210405,14.6809249 10.8839306,14.7831214 10.9821965,14.9560694 C11.0804624,15.1290173 11.1708671,15.2744509 11.2494798,15.3923699 C11.3676618,15.5525259 11.4991496,15.702422 11.6425434,15.8404624 C11.8177449,16.0225011 12.0113856,16.1858442 12.2203468,16.3278613 C12.3727558,16.446133 12.5374865,16.5476071 12.7116763,16.6305202 C12.8866092,16.7176141 13.0679473,16.7912006 13.254104,16.8506358 C13.4225055,16.8977727 13.6006159,16.8977727 13.7690173,16.8506358 C13.9356503,16.8048838 14.0771352,16.6945255 14.1620809,16.5440462 C14.2420204,16.3844811 14.2420204,16.1965594 14.1620809,16.0369942 C14.0536614,15.780099 13.8930404,15.5485371 13.6904046,15.3569942 L12.8453179,14.4647399 C12.5308671,14.1227746 12.283237,13.8436994 12.1024277,13.6196532 C11.9137778,13.388784 11.7442023,13.1429652 11.5953757,12.8846243 C11.4507061,12.6606513 11.3543202,12.408977 11.3123699,12.1456647 C11.2812753,11.9015891 11.2945918,11.6539013 11.3516763,11.4145665 C11.4234375,11.1187435 11.5443467,10.8370648 11.7093642,10.5812717 C12.1058436,9.88903762 12.8496559,9.46960592 13.6471676,9.48855491 C14.6558791,9.53004342 15.6257122,9.88908801 16.4182659,10.5144509 C16.6991388,10.7008705 16.9622876,10.9127053 17.2043931,11.1472832 C17.3836105,11.3196634 17.5529001,11.5020762 17.7114451,11.6936416 C17.8215029,11.8351445 17.9512139,12.023815 18.1045087,12.2635838 C18.2250287,12.4304006 18.2884462,12.6316822 18.2853179,12.8374566 C18.2867476,13.0138246 18.2316472,13.1860132 18.1280925,13.3287861 C18.0220467,13.4614901 17.8877745,13.5689078 17.7350289,13.643237 C17.5838924,13.7213928 17.4066023,13.7314011 17.2476301,13.6707514 C17.0544186,13.5963983 16.8847289,13.4715066 16.7563006,13.3091329 C16.385287,12.8366283 15.9575674,12.411549 15.4827746,12.0434682 C15.3026368,11.9188916 15.1163517,11.8034474 14.9246243,11.6975723 C14.7347728,11.5847274 14.5202325,11.5199606 14.2996532,11.5089017 C14.1193722,11.4796709 13.9388785,11.5598903 13.8397688,11.7132948 C13.7346864,11.8686817 13.7140451,12.0662483 13.7847399,12.24 C13.9024109,12.4853385 14.0681541,12.7045472 14.2721387,12.8846243 L15.1250867,13.7493642 C15.4202241,14.0524105 15.6971632,14.3726623 15.9544509,14.7084393 C16.1577743,14.9780422 16.3230963,15.2742992 16.4457803,15.5889017 C16.5654585,15.8866284 16.6073913,16.2099166 16.5676301,16.5283237 C16.5156748,16.8771893 16.3925901,17.2116585 16.2060116,17.5109827 C15.9258657,18.0224091 15.4772441,18.4210295 14.9364162,18.6390751 C14.4025233,18.8450201 13.8188428,18.8847542 13.2619653,18.7530636 C12.611895,18.6005384 11.9977607,18.3228429 11.4538728,17.9354913 C10.4695132,17.3141684 9.68913679,16.4176238 9.20947977,15.3569942 L9.20947977,15.3569942 Z M16.6147977,8.54913295 C16.6945727,8.39728005 16.8393213,8.29016609 17.0078613,8.2582659 C17.1559673,8.23194486 17.3085749,8.26134632 17.4363006,8.34080925 C17.5634497,8.42532425 17.6567067,8.55198678 17.6996532,8.69849711 C17.7472478,8.85893428 17.7198003,9.03228667 17.6249711,9.17017341 L16.5086705,11.0057803 L15.4984971,10.3847399 L16.6147977,8.54913295 Z M11.3988439,17.3419653 L12.4168786,17.9669364 L11.2927168,19.8025434 C11.1898068,19.9967781 10.9811776,20.1111378 10.7620809,20.0934104 C10.5491541,20.0901214 10.3536183,19.9751881 10.2471676,19.7907514 C10.1298129,19.6000335 10.1407176,19.3570131 10.2746821,19.1775723 L11.3988439,17.3419653 Z" id="Shape" fill="#263238" fill-rule="nonzero"></path>
                                <line x1="5.78196532" y1="19.9597688" x2="5.78196532" y2="21.2647399" id="Path" stroke="#263238" stroke-width="0.5" stroke-linecap="round" stroke-linejoin="round"></line>
                                <line x1="6.7017341" y1="21.2647399" x2="6.7017341" y2="22.6443931" id="Path" stroke="#263238" stroke-width="0.5" stroke-linecap="round" stroke-linejoin="round"></line>
                                <line x1="8.54127168" y1="22.7976879" x2="8.54127168" y2="24.0987283" id="Path" stroke="#263238" stroke-width="0.5" stroke-linecap="round" stroke-linejoin="round"></line>
                                <line x1="11.1472832" y1="24.0987283" x2="11.1472832" y2="25.2504046" id="Path" stroke="#263238" stroke-width="0.5" stroke-linecap="round" stroke-linejoin="round"></line>
                                <line x1="13.9852023" y1="24.6372254" x2="13.9852023" y2="25.1717919" id="Path" stroke="#263238" stroke-width="0.5" stroke-linecap="round" stroke-linejoin="round"></line>
                                <line x1="19.5824277" y1="24.4053179" x2="19.5824277" y2="23.5641618" id="Path" stroke="#263238" stroke-width="0.5" stroke-linecap="round" stroke-linejoin="round"></line>
                                <line x1="20.8087861" y1="23.5641618" x2="20.8087861" y2="22.2591908" id="Path" stroke="#263238" stroke-width="0.5" stroke-linecap="round" stroke-linejoin="round"></line>
                                <circle id="Oval" stroke="#263238" stroke-width="0.5" fill="#FFFFFF" fill-rule="nonzero" stroke-linecap="round" stroke-linejoin="round" transform="translate(14.290325, 13.649776) rotate(-9.940000) translate(-14.290325, -13.649776) " cx="14.2903247" cy="13.6497762" r="10.2982659"></circle>
                                <circle id="Oval" stroke="#263238" stroke-width="0.5" fill="#FFFFFF" fill-rule="nonzero" stroke-linecap="round" stroke-linejoin="round" transform="translate(14.292621, 12.275051) rotate(-9.940000) translate(-14.292621, -12.275051) " cx="14.2926206" cy="12.2750514" r="10.2982659"></circle>
                                <path d="M13.8083237,21.0131792 C17.8106302,21.2339619 21.4515318,18.7080484 22.6461833,14.8818218 C23.8408349,11.0555952 22.2839596,6.90679504 18.867052,4.81109827 L18.6587283,4.68924855" id="Path" stroke="#263238" stroke-width="0.5" fill="#FFFFFF" fill-rule="nonzero" stroke-linecap="round" stroke-linejoin="round"></path>
                                <path d="M9.71653179,19.7357225 C10.7222881,20.3536256 11.8427675,20.7614373 13.0104046,20.9345665" id="Path" stroke="#263238" stroke-width="0.5" fill="#FFFFFF" fill-rule="nonzero" stroke-linecap="round" stroke-linejoin="round"></path>
                                <path d="M17.8136416,4.26080925 C13.8489621,2.51868985 9.20630662,3.93743856 6.89267653,7.5981461 C4.57904643,11.2588536 5.28991317,16.0611204 8.56485549,18.8945665" id="Path" stroke="#263238" stroke-width="0.5" fill="#FFFFFF" fill-rule="nonzero" stroke-linecap="round" stroke-linejoin="round"></path>
                                <path d="M9.20947977,13.4349133 C9.13817222,13.2686005 9.12434103,13.0832626 9.17017341,12.9082081 C9.2111691,12.7434921 9.30171803,12.5953211 9.42959538,12.4836994 C9.55737057,12.3778586 9.70604328,12.3001737 9.86589595,12.2557225 C10.0313262,12.2074828 10.2090601,12.2258204 10.3611561,12.3068208 C10.5419535,12.4031928 10.6928597,12.5473014 10.7974566,12.7234682 C10.8210405,12.7588439 10.8839306,12.8649711 10.9821965,13.0339884 C11.0804624,13.2030058 11.1708671,13.3523699 11.2494798,13.470289 C11.3656557,13.6320497 11.4972972,13.7821211 11.6425434,13.9183815 C11.8177449,14.1004201 12.0113856,14.2637633 12.2203468,14.4057803 C12.3716513,14.5267248 12.536541,14.629616 12.7116763,14.7123699 C12.8866683,14.7982483 13.0680136,14.8705236 13.254104,14.9285549 C13.4222412,14.9775787 13.6008802,14.9775787 13.7690173,14.9285549 C13.9359748,14.8857891 14.0780658,14.776379 14.1620809,14.625896 C14.2420953,14.4649654 14.2420953,14.2758438 14.1620809,14.1149133 C14.0544175,13.8587462 13.8936561,13.6283217 13.6904046,13.4388439 L12.833526,12.5780347 C12.5190751,12.2360694 12.2714451,11.9530636 12.0906358,11.732948 C11.9037526,11.5007561 11.7342743,11.2550781 11.5835838,10.9979191 C11.4394253,10.7736871 11.3430816,10.5221232 11.300578,10.2589595 C11.2695238,10.0135742 11.2828376,9.76460466 11.3398844,9.52393064 C11.4116456,9.22810765 11.5325548,8.94642901 11.6975723,8.69063584 C12.0940517,7.99840178 12.837864,7.57897008 13.6353757,7.59791908 C14.6440872,7.63940758 15.6139203,7.99845217 16.406474,8.62381503 C16.6873469,8.8102347 16.9504956,9.02206942 17.1926012,9.2566474 C17.3730022,9.42925151 17.5423547,9.6130449 17.6996532,9.80693642 C17.809711,9.94450867 17.939422,10.1371098 18.0927168,10.372948 C18.2127324,10.5400177 18.276096,10.7411282 18.2736012,10.9468208 C18.2749704,11.1244044 18.2199091,11.2978474 18.1163006,11.4420809 C18.0100176,11.5735462 17.8757319,11.679632 17.723237,11.7526012 C17.5721005,11.830757 17.3948104,11.8407653 17.2358382,11.7801156 C17.0418601,11.707169 16.8718219,11.5820209 16.7445087,11.4184971 C16.3734951,10.9459925 15.9457755,10.5209132 15.4709827,10.1528324 C15.2908449,10.0282558 15.1045598,9.91281151 14.9128324,9.80693642 C14.7221791,9.69592372 14.5080946,9.63129444 14.2878613,9.6182659 C14.1078532,9.59109821 13.9284352,9.67083954 13.8279769,9.82265896 C13.7228746,9.97950448 13.7022671,10.1782199 13.772948,10.3532948 C13.8908825,10.5973361 14.0566256,10.8152081 14.2603468,10.9939884 L15.1132948,11.8587283 C15.4074868,12.162641 15.6843776,12.4828369 15.942659,12.8178035 C16.1468508,13.088263 16.3122279,13.3859418 16.4339884,13.7021965 C16.5536747,13.9985446 16.5956191,14.3205688 16.5558382,14.6376879 C16.5038829,14.9865534 16.3807982,15.3210226 16.1942197,15.6203468 C15.9140107,16.1326332 15.4655572,16.5324927 14.9246243,16.7523699 C14.3903087,16.9563995 13.8072101,16.996094 13.2501734,16.8663584 C12.6012745,16.7104012 11.987772,16.4329913 11.4420809,16.0487861 C10.458036,15.4148504 9.68173984,14.5059825 9.20947977,13.4349133 Z M16.6147977,6.62705202 C16.6945732,6.47592134 16.839609,6.37004518 17.0078613,6.34011561 C17.1554734,6.31067011 17.3087578,6.3387957 17.4363006,6.41872832 C17.5634497,6.50324332 17.6567067,6.62990585 17.6996532,6.77641618 C17.7472478,6.93685336 17.7198003,7.11020574 17.6249711,7.24809249 L16.492948,9.09549133 L15.4827746,8.47445087 L16.6147977,6.62705202 Z M11.3988439,15.423815 L12.4168786,16.0487861 L11.2927168,17.8804624 C11.1894062,18.0747299 10.9816042,18.1901755 10.7620809,18.1752601 C10.5490109,18.1688552 10.3543334,18.0529403 10.2471676,17.8686705 C10.1298129,17.6779526 10.1407176,17.4349321 10.2746821,17.2554913 L11.3988439,15.423815 Z" id="Shape" fill="#263238" fill-rule="nonzero"></path>
                                <line x1="5.78196532" y1="18.0376879" x2="5.78196532" y2="19.342659" id="Path" stroke="#263238" stroke-width="0.5" stroke-linecap="round" stroke-linejoin="round"></line>
                                <line x1="6.7017341" y1="19.342659" x2="6.7017341" y2="20.7223121" id="Path" stroke="#263238" stroke-width="0.5" stroke-linecap="round" stroke-linejoin="round"></line>
                                <line x1="8.54127168" y1="20.8756069" x2="8.54127168" y2="22.180578" id="Path" stroke="#263238" stroke-width="0.5" stroke-linecap="round" stroke-linejoin="round"></line>
                                <line x1="11.1472832" y1="22.180578" x2="11.1472832" y2="23.3283237" id="Path" stroke="#263238" stroke-width="0.5" stroke-linecap="round" stroke-linejoin="round"></line>
                                <line x1="13.9852023" y1="22.7151445" x2="13.9852023" y2="23.2536416" id="Path" stroke="#263238" stroke-width="0.5" stroke-linecap="round" stroke-linejoin="round"></line>
                                <line x1="19.5824277" y1="22.4871676" x2="19.5824277" y2="21.6420809" id="Path" stroke="#263238" stroke-width="0.5" stroke-linecap="round" stroke-linejoin="round"></line>
                                <line x1="20.8087861" y1="21.6420809" x2="20.8087861" y2="20.3410405" id="Path" stroke="#263238" stroke-width="0.5" stroke-linecap="round" stroke-linejoin="round"></line>
                                <circle id="Oval" stroke="#263238" stroke-width="0.5" fill="#FFFFFF" fill-rule="nonzero" stroke-linecap="round" stroke-linejoin="round" transform="translate(31.801296, 39.069442) rotate(-80.150000) translate(-31.801296, -39.069442) " cx="31.8012957" cy="39.0694419" r="10.2982659"></circle>
                                <circle id="Oval" stroke="#263238" stroke-width="0.5" fill="#FFFFFF" fill-rule="nonzero" stroke-linecap="round" stroke-linejoin="round" transform="translate(31.809929, 37.691909) rotate(-23.980000) translate(-31.809929, -37.691909) " cx="31.8099287" cy="37.6919092" r="10.2982659"></circle>
                                <circle id="Oval" stroke="#263238" stroke-width="0.5" fill="#FFFFFF" fill-rule="nonzero" stroke-linecap="round" stroke-linejoin="round" transform="translate(30.894798, 37.793850) rotate(-72.474432) translate(-30.894798, -37.793850) " cx="30.8947977" cy="37.7938497" r="8.72063851"></circle>
                                <path d="M29.1456647,42.1875145 C28.981592,42.1202154 28.843702,42.0016299 28.7526012,41.8494798 C28.6623626,41.707826 28.6184064,41.5416167 28.6268208,41.3738728 C28.6360501,41.2057182 28.6830734,41.0418083 28.7643931,40.8943353 C28.8438278,40.7437036 28.9771824,40.6285975 29.1378035,40.5720231 C29.3334351,40.5079022 29.543094,40.4997337 29.7431214,40.5484393 C29.7863584,40.5484393 29.9042775,40.5798844 30.0968786,40.627052 C30.2894798,40.6742197 30.4584971,40.7095954 30.5960694,40.7331792 C30.7900609,40.760314 30.9858868,40.7721424 31.1817341,40.7685549 C31.4342233,40.7680921 31.6859273,40.7404179 31.9324855,40.6860116 C32.1236224,40.6597267 32.3109759,40.6109093 32.4906358,40.540578 C32.6740178,40.4743258 32.8515188,40.3928069 33.0212717,40.2968786 C33.1759554,40.2134398 33.3040058,40.0881139 33.3907514,39.9352601 C33.4749482,39.782732 33.4933979,39.6024926 33.4418497,39.4360694 C33.3799403,39.2682503 33.2433191,39.1388962 33.0723699,39.0862428 C32.8133282,38.9864009 32.5358265,38.9435021 32.2587283,38.9604624 L31.0284393,38.9604624 C30.5646243,38.9604624 30.1872832,38.9408092 29.9042775,38.9172254 C29.6075943,38.8948913 29.31317,38.8488875 29.023815,38.7796532 C28.7626683,38.7275472 28.5142792,38.6247194 28.2927168,38.4769942 C28.0943519,38.3303709 27.9239386,38.1493068 27.7895954,37.9424277 C27.6237203,37.6866164 27.5015158,37.4050147 27.4279769,37.1091329 C27.2027902,36.3433217 27.4138492,35.515669 27.9782659,34.9512139 C28.7023457,34.2465105 29.6312738,33.7896155 30.6314451,33.6462428 C30.9588295,33.5765886 31.2914789,33.5345144 31.625896,33.5204624 C31.8732934,33.5052822 32.1213887,33.5052822 32.3687861,33.5204624 C32.5456647,33.5401156 32.7618497,33.5715607 33.0566474,33.622659 C33.2595815,33.6535629 33.4478224,33.7469964 33.5951445,33.8899422 C33.7261392,34.0085075 33.8133733,34.1677444 33.8427746,34.3419653 C33.8696668,34.5060083 33.8589142,34.6740183 33.8113295,34.8332948 C33.7609021,34.9973965 33.6439904,35.1328429 33.4890173,35.2067052 C33.3038114,35.2975721 33.0967308,35.3343561 32.8915607,35.3128324 C32.2942348,35.2573574 31.692386,35.2745154 31.0991908,35.3639306 C30.8838027,35.4060737 30.6711603,35.4612032 30.4624277,35.5290173 C30.2500308,35.5908218 30.054913,35.7011643 29.8924855,35.8513295 C29.7487648,35.9619812 29.6827326,36.1462571 29.7234682,36.3230058 C29.7687961,36.5020553 29.8975308,36.6483447 30.0693642,36.7160694 C30.3232444,36.7960571 30.5900815,36.8267434 30.8554913,36.806474 L32.0700578,36.7828902 C32.4928292,36.7782632 32.9154924,36.7992651 33.3357225,36.8457803 C33.6718573,36.8826088 34.0012474,36.9659485 34.3144509,37.0934104 C34.6102441,37.2146727 34.8719914,37.4062608 35.0769942,37.6515607 C35.6386133,38.4105823 35.7859511,39.3992189 35.4700578,40.2890173 C35.2511192,40.8185196 34.8770278,41.2693476 34.3969942,41.5821965 C33.8373754,41.9467888 33.2128509,42.2003351 32.5574566,42.3290173 C31.4305499,42.6138586 30.2451144,42.564693 29.1456647,42.1875145 L29.1456647,42.1875145 Z M29.3186127,32.1290173 C29.2637978,31.9672728 29.2854921,31.7893797 29.3775723,31.6455491 C29.460855,31.5188429 29.5883922,31.4277448 29.7352601,31.3900578 C29.8825958,31.3556552 30.0373814,31.3751777 30.1715607,31.4450867 C30.324199,31.5239423 30.4316363,31.6691279 30.4624277,31.8381503 L31.020578,33.9331792 L29.8728324,34.2397688 L29.3186127,32.1290173 Z M32.1015029,41.9556069 L33.2571098,41.6490173 L33.8113295,43.7283237 C33.8794459,43.938673 33.8179142,44.1694168 33.654104,44.3179191 C33.5035488,44.4672558 33.2865196,44.5282024 33.0802312,44.4790751 C32.8610002,44.4321431 32.6926917,44.2560425 32.6557225,44.0349133 L32.1015029,41.9556069 Z" id="Shape" fill="#263238" fill-rule="nonzero"></path>
                                <line x1="23.292948" y1="43.4689017" x2="23.292948" y2="44.7738728" id="Path" stroke="#263238" stroke-width="0.5" stroke-linecap="round" stroke-linejoin="round"></line>
                                <line x1="24.2166474" y1="44.7738728" x2="24.2166474" y2="46.153526" id="Path" stroke="#263238" stroke-width="0.5" stroke-linecap="round" stroke-linejoin="round"></line>
                                <line x1="26.056185" y1="46.3068208" x2="26.056185" y2="47.6078613" id="Path" stroke="#263238" stroke-width="0.5" stroke-linecap="round" stroke-linejoin="round"></line>
                                <line x1="28.6621965" y1="47.6078613" x2="28.6621965" y2="48.7595376" id="Path" stroke="#263238" stroke-width="0.5" stroke-linecap="round" stroke-linejoin="round"></line>
                                <line x1="31.5001156" y1="48.1463584" x2="31.5001156" y2="48.6809249" id="Path" stroke="#263238" stroke-width="0.5" stroke-linecap="round" stroke-linejoin="round"></line>
                                <line x1="37.097341" y1="47.9144509" x2="37.097341" y2="47.0732948" id="Path" stroke="#263238" stroke-width="0.5" stroke-linecap="round" stroke-linejoin="round"></line>
                                <line x1="38.3236994" y1="47.0732948" x2="38.3236994" y2="45.7683237" id="Path" stroke="#263238" stroke-width="0.5" stroke-linecap="round" stroke-linejoin="round"></line>
                                <path d="M40.583815,42.5255491 C42.7653201,38.9753248 42.592419,34.460356 40.145789,31.0873664 C37.6991589,27.7143768 33.4610196,26.1481673 29.4089234,27.1195448 C25.3568273,28.0909223 22.2894241,31.4084327 21.6379908,35.5240969 C20.9865575,39.6397612 22.8794886,43.7424005 26.433526,45.9176879 C31.2785762,48.8831536 37.609873,47.3654011 40.583815,42.5255491 Z" id="Path" stroke="#263238" stroke-width="0.5" fill="#FFFFFF" fill-rule="nonzero" stroke-linecap="round" stroke-linejoin="round"></path>
                                <circle id="Oval" stroke="#263238" stroke-width="0.5" fill="#FFFFFF" fill-rule="nonzero" stroke-linecap="round" stroke-linejoin="round" transform="translate(31.816523, 35.771958) rotate(-84.870000) translate(-31.816523, -35.771958) " cx="31.8165231" cy="35.7719581" r="10.2982659"></circle>
                                <path d="M39.7623121,39.4124855 C41.4932683,35.6249583 40.3163042,31.1423031 36.9479769,28.6936416" id="Path" stroke="#263238" stroke-width="0.5" fill="#FFFFFF" fill-rule="nonzero" stroke-linecap="round" stroke-linejoin="round"></path>
                                <path d="M35.1634682,27.6795376 C30.8888323,25.9031013 25.9700742,27.761907 23.9386405,31.921416 C21.9072068,36.080925 23.465462,41.1029942 27.4946493,43.3820045 C31.5238366,45.6610149 36.6308713,44.4090023 39.1491329,40.5248555" id="Path" stroke="#263238" stroke-width="0.5" fill="#FFFFFF" fill-rule="nonzero" stroke-linecap="round" stroke-linejoin="round"></path>
                                <path d="M29.1456647,40.2457803 C28.9818721,40.1799957 28.843914,40.0627313 28.7526012,39.9116763 C28.6622922,39.7685973 28.6183646,39.6011233 28.6268208,39.4321387 C28.6360972,39.2652353 28.6831363,39.1026145 28.7643931,38.9565318 C28.8425562,38.8048933 28.9763722,38.689389 29.1378035,38.6342197 C29.3333985,38.5706045 29.5425617,38.5610971 29.7431214,38.6067052 C29.7863584,38.6067052 29.9042775,38.6381503 30.0968786,38.6853179 C30.2894798,38.7324855 30.4584971,38.7678613 30.5960694,38.7914451 C30.7897013,38.8222254 30.9857257,38.8353814 31.1817341,38.8307514 C31.4342392,38.8269903 31.6857376,38.7980219 31.9324855,38.7442775 C32.1231302,38.7175595 32.3102888,38.6701108 32.4906358,38.6027746 C32.673312,38.5348102 32.8506799,38.4533523 33.0212717,38.3590751 C33.1750903,38.2744664 33.3028547,38.1494204 33.3907514,37.9974566 C33.4749482,37.8449285 33.4933979,37.6646892 33.4418497,37.4982659 C33.3820944,37.3290369 33.2446094,37.1988648 33.0723699,37.1484393 C32.8133282,37.0485975 32.5358265,37.0056987 32.2587283,37.022659 L31.0284393,37.022659 C30.5646243,37.022659 30.1872832,37.0030058 29.9042775,36.979422 C29.6077326,36.9537836 29.3134601,36.9064898 29.023815,36.8379191 C28.7616299,36.7892757 28.5125662,36.6861687 28.2927168,36.5352601 C28.0934748,36.3896272 27.9228968,36.2083882 27.7895954,36.0006936 C27.6231987,35.7451625 27.5009549,35.4634702 27.4279769,35.1673988 C27.2027902,34.4015876 27.4138492,33.5739349 27.9782659,33.0094798 C28.7028737,32.3062131 29.631747,31.8507212 30.6314451,31.7084393 C30.9584998,31.6368555 31.2913177,31.5947599 31.625896,31.582659 C31.8732277,31.5654695 32.1214544,31.5654695 32.3687861,31.582659 C32.5456647,31.582659 32.7618497,31.6337572 33.0566474,31.6848555 C33.2591941,31.7144116 33.4474552,31.8064809 33.5951445,31.9482081 C33.7252348,32.0690958 33.8122019,32.2292258 33.8427746,32.4041618 C33.8696158,32.5668994 33.8588595,32.7336213 33.8113295,32.8915607 C33.7648871,33.0625637 33.64761,33.2055845 33.4890173,33.2846243 C33.3025331,33.3715133 33.0965609,33.4081005 32.8915607,33.3907514 C32.2944633,33.3319865 31.6923709,33.347831 31.0991908,33.4379191 C30.8947977,33.4824663 30.6825434,33.5374952 30.4624277,33.6030058 C30.2497785,33.6662251 30.0546873,33.777898 29.8924855,33.9292486 C29.7487648,34.0399003 29.6827326,34.2241762 29.7234682,34.4009249 C29.7675943,34.5806047 29.8967528,34.7273757 30.0693642,34.7939884 C30.3228414,34.8758515 30.5900483,34.9065803 30.8554913,34.8843931 L32.0700578,34.8647399 C32.4927764,34.8570575 32.9155489,34.8767519 33.3357225,34.9236994 C33.6716905,34.9637096 34.0008295,35.0483076 34.3144509,35.1752601 C34.6120331,35.293306 34.8745165,35.485433 35.0769942,35.7334104 C35.6399433,36.4918809 35.787384,37.481208 35.4700578,38.3708671 C35.2510855,38.8993086 34.8769128,39.3488641 34.3969942,39.6601156 C33.8382078,40.0262983 33.2133627,40.2799747 32.5574566,40.4069364 C31.4290387,40.6893806 30.2424355,40.6333314 29.1456647,40.2457803 Z M29.3186127,30.1872832 C29.2637978,30.0255387 29.2854921,29.8476456 29.3775723,29.703815 C29.5483658,29.4434613 29.8904799,29.3579328 30.1636994,29.5072832 C30.3163377,29.5861389 30.4237751,29.7313245 30.4545665,29.9003468 L31.0127168,31.9953757 L29.8649711,32.2980347 L29.3186127,30.1872832 Z M32.1015029,40.0138728 L33.2571098,39.7072832 L33.8113295,41.782659 C33.8804973,41.9929795 33.8188117,42.2243006 33.654104,42.3722543 C33.5035488,42.5215911 33.2865196,42.5825377 33.0802312,42.5334104 C32.8604728,42.4900944 32.6910213,42.314367 32.6557225,42.0931792 L32.1015029,40.0138728 Z" id="Shape" fill="#263238" fill-rule="nonzero"></path>
                                <line x1="23.292948" y1="41.5271676" x2="23.292948" y2="42.8321387" id="Path" stroke="#263238" stroke-width="0.5" stroke-linecap="round" stroke-linejoin="round"></line>
                                <line x1="24.2166474" y1="42.8321387" x2="24.2166474" y2="44.2117919" id="Path" stroke="#263238" stroke-width="0.5" stroke-linecap="round" stroke-linejoin="round"></line>
                                <line x1="26.056185" y1="44.3650867" x2="26.056185" y2="45.6700578" id="Path" stroke="#263238" stroke-width="0.5" stroke-linecap="round" stroke-linejoin="round"></line>
                                <line x1="28.6621965" y1="45.6700578" x2="28.6621965" y2="46.8178035" id="Path" stroke="#263238" stroke-width="0.5" stroke-linecap="round" stroke-linejoin="round"></line>
                                <line x1="31.5001156" y1="46.2046243" x2="31.5001156" y2="46.7431214" id="Path" stroke="#263238" stroke-width="0.5" stroke-linecap="round" stroke-linejoin="round"></line>
                                <line x1="37.097341" y1="45.9766474" x2="37.097341" y2="45.1315607" id="Path" stroke="#263238" stroke-width="0.5" stroke-linecap="round" stroke-linejoin="round"></line>
                                <line x1="38.3236994" y1="45.1315607" x2="38.3236994" y2="43.8305202" id="Path" stroke="#263238" stroke-width="0.5" stroke-linecap="round" stroke-linejoin="round"></line>
                                <circle id="Oval" stroke="#263238" stroke-width="0.5" fill="#FFFFFF" fill-rule="nonzero" stroke-linecap="round" stroke-linejoin="round" transform="translate(15.174358, 44.620201) rotate(-34.400000) translate(-15.174358, -44.620201) " cx="15.1743578" cy="44.6202009" r="10.2982659"></circle>
                                <circle id="Oval" stroke="#263238" stroke-width="0.5" fill="#FFFFFF" fill-rule="nonzero" stroke-linecap="round" stroke-linejoin="round" transform="translate(15.169345, 43.267790) rotate(-13.650000) translate(-15.169345, -43.267790) " cx="15.1693451" cy="43.2677902" r="10.2982659"></circle>
                                <path d="M19.1972254,51.0275145 C22.0035135,49.5779192 23.8106721,46.7283498 23.9254978,43.5718653 C24.0403235,40.4153808 22.4449891,37.4420365 19.7514451,35.7923699 C19.4800412,35.6243706 19.1991912,35.4721342 18.910289,35.3364162" id="Path" stroke="#263238" stroke-width="0.5" fill="#FFFFFF" fill-rule="nonzero" stroke-linecap="round" stroke-linejoin="round"></path>
                                <path d="M15.0857803,52.0062428 C16.0179338,52.021388 16.9465988,51.8887215 17.8372254,51.6131792" id="Path" stroke="#263238" stroke-width="0.5" fill="#FFFFFF" fill-rule="nonzero" stroke-linecap="round" stroke-linejoin="round"></path>
                                <path d="M10.6127168,50.7052023 C11.5995334,51.3084318 12.6965157,51.709278 13.8397688,51.8843931" id="Path" stroke="#263238" stroke-width="0.5" fill="#FFFFFF" fill-rule="nonzero" stroke-linecap="round" stroke-linejoin="round"></path>
                                <path d="M17.6328324,34.8490173 C13.9376766,33.7715298 9.97214196,35.2330694 7.8600618,38.450875 C5.74798165,41.6686806 5.98452507,45.88835 8.44300578,48.8499422" id="Path" stroke="#263238" stroke-width="0.5" fill="#FFFFFF" fill-rule="nonzero" stroke-linecap="round" stroke-linejoin="round"></path>
                                <path d="M10.0899422,44.416185 C10.0208631,44.2479588 10.0070971,44.0621173 10.0506358,43.8855491 C10.0916584,43.7219539 10.1822725,43.5750492 10.3100578,43.4649711 C10.4382208,43.3566186 10.5884464,43.2774819 10.750289,43.2330636 C10.914773,43.1890504 11.0897113,43.207244 11.2416185,43.2841618 C11.4241795,43.379885 11.5755631,43.5258134 11.6779191,43.7047399 C11.7015029,43.7401156 11.7643931,43.8423121 11.8665896,44.0152601 C11.9687861,44.1882081 12.0552601,44.3336416 12.1299422,44.4515607 C12.2481242,44.6117167 12.379612,44.7616128 12.5230058,44.8996532 C12.6987106,45.0826895 12.8937644,45.2461129 13.1047399,45.387052 C13.2557352,45.5053357 13.4191653,45.6068206 13.5921387,45.689711 C13.766382,45.7772655 13.9478666,45.8495964 14.1345665,45.905896 C14.3027346,45.9547025 14.4813116,45.9547025 14.6494798,45.905896 C14.8161127,45.8601439 14.9575976,45.7497856 15.0425434,45.5993064 C15.1224828,45.4397412 15.1224828,45.2518195 15.0425434,45.0922543 C14.9280531,44.8328345 14.757582,44.6019602 14.5433526,44.416185 L13.6982659,43.5239306 C13.383815,43.1819653 13.136185,42.9028902 12.9553757,42.6788439 C12.7667257,42.4479747 12.5971503,42.202156 12.4483237,41.943815 C12.306934,41.7181916 12.2108115,41.4672051 12.1653179,41.2048555 C12.1362114,40.9607112 12.1495091,40.7133734 12.2046243,40.4737572 C12.2770172,40.1769162 12.397868,39.8940457 12.5623121,39.6365318 C12.9611162,38.9451844 13.706179,38.5274063 14.5040462,38.5477457 C15.5124913,38.5905606 16.4819292,38.9494588 17.2751445,39.5736416 C17.5553963,39.7609086 17.8184711,39.9726838 18.0612717,40.206474 C18.2435557,40.3758156 18.4130373,40.5584354 18.5683237,40.7528324 C18.6783815,40.8943353 18.8120231,41.0830058 18.9613873,41.3227746 C19.0784788,41.4895929 19.1403379,41.6889167 19.1382659,41.8927168 C19.1435095,42.0708525 19.088071,42.2454838 18.9810405,42.3879769 C18.8762759,42.5219546 18.741684,42.6296282 18.5879769,42.7024277 C18.4353193,42.7809794 18.2561268,42.7895807 18.0966474,42.7260116 C17.9028443,42.6547002 17.7327178,42.5308482 17.6053179,42.3683237 C17.234675,41.8968099 16.8083833,41.471838 16.3357225,41.102659 C16.1627746,40.9847399 15.9780347,40.8668208 15.7736416,40.7528324 C15.5834958,40.6412186 15.3689405,40.5777966 15.1486705,40.5680925 C14.9703912,40.5386645 14.791554,40.6172912 14.6927168,40.7685549 C14.5849513,40.924216 14.5627897,41.1236704 14.6337572,41.2991908 C14.7528477,41.5436613 14.9183934,41.7626088 15.1211561,41.943815 L15.974104,42.8085549 C16.270354,43.1105782 16.5473533,43.4308998 16.8034682,43.7676301 C17.0067916,44.0372329 17.1721137,44.33349 17.2947977,44.6480925 C17.4144758,44.9458191 17.4564086,45.2691074 17.4166474,45.5875145 C17.2602029,46.5184646 16.6498781,47.3101179 15.7893642,47.6982659 C15.2554713,47.9042108 14.6717907,47.9439449 14.1149133,47.8122543 C13.4642042,47.6580447 12.8490941,47.3805113 12.3028902,46.9946821 C11.3312258,46.3674811 10.5624817,45.4717508 10.0899422,44.416185 L10.0899422,44.416185 Z M17.4952601,37.6043931 C17.5772328,37.4551783 17.7212267,37.3500628 17.8883237,37.3174566 C18.0364359,37.2899747 18.1894629,37.319457 18.316763,37.4 C18.4446835,37.4828467 18.5371673,37.6103622 18.576185,37.7576879 C18.6231083,37.916382 18.5971922,38.0877165 18.5054335,38.2254335 L17.3734104,40.0924855 L16.363237,39.4714451 L17.4952601,37.6043931 Z M12.2910983,46.4011561 L13.3130636,47.0261272 L12.1849711,48.8578035 C12.0826177,49.0549588 11.871762,49.1712396 11.6504046,49.1526012 C11.4375514,49.1454545 11.2432059,49.0297372 11.1354913,48.8460116 C11.0203102,48.6547363 11.0311563,48.4130229 11.1630058,48.2328324 L12.2910983,46.4011561 Z" id="Shape" fill="#263238" fill-rule="nonzero"></path>
                                <line x1="6.66242775" y1="49.0189595" x2="6.66242775" y2="50.32" id="Path" stroke="#263238" stroke-width="0.5" stroke-linecap="round" stroke-linejoin="round"></line>
                                <line x1="7.58219653" y1="50.32" x2="7.58219653" y2="51.7035838" id="Path" stroke="#263238" stroke-width="0.5" stroke-linecap="round" stroke-linejoin="round"></line>
                                <line x1="9.4217341" y1="51.8568786" x2="9.4217341" y2="53.1579191" id="Path" stroke="#263238" stroke-width="0.5" stroke-linecap="round" stroke-linejoin="round"></line>
                                <line x1="12.0277457" y1="53.1579191" x2="12.0277457" y2="54.3095954" id="Path" stroke="#263238" stroke-width="0.5" stroke-linecap="round" stroke-linejoin="round"></line>
                                <line x1="14.8656647" y1="53.6964162" x2="14.8656647" y2="54.2309827" id="Path" stroke="#263238" stroke-width="0.5" stroke-linecap="round" stroke-linejoin="round"></line>
                                <line x1="20.4628902" y1="53.4645087" x2="20.4628902" y2="52.6233526" id="Path" stroke="#263238" stroke-width="0.5" stroke-linecap="round" stroke-linejoin="round"></line>
                                <line x1="21.6892486" y1="52.6233526" x2="21.6892486" y2="51.3183815" id="Path" stroke="#263238" stroke-width="0.5" stroke-linecap="round" stroke-linejoin="round"></line>
                            </g>
                        </g>
                    </g>
                </g>
            </g>
        </g>
    </g>
</svg>