<?xml version="1.0" encoding="UTF-8"?>
<svg width="417px" height="359px" viewBox="0 0 417 359" version="1.1" xmlns="http://www.w3.org/2000/svg" xmlns:xlink="http://www.w3.org/1999/xlink">
    <title>Cyber Monday-bro</title>
    <g id="Page-1" stroke="none" stroke-width="1" fill="none" fill-rule="evenodd">
        <g id="hashtag" transform="translate(-150.000000, -1074.000000)">
            <g id="basic" transform="translate(150.000000, 878.000000)">
                <g id="Cyber-Monday-bro" transform="translate(0.000000, 196.000000)">
                    <g id="freepik--background-simple--inject-58" transform="translate(11.717854, 0.000000)" fill="#F9FBFF" fill-rule="nonzero">
                        <path d="M66.5964713,311.548448 C80.6188368,313.638132 94.914619,313.276832 108.966279,315.073569 C144.432318,319.604473 166.579062,339.222114 192.123984,357.794913 L350.676316,357.794913 C351.818807,356.603598 352.932003,355.392753 354.015905,354.142848 C392.59694,309.761476 396.707954,235.333572 381.777454,181.304499 C361.759454,108.731922 306.617185,20.7113073 227.736496,3.84736213 C192.846585,-3.61300504 156.091583,2.74393086 126.58212,22.8302859 C60.835193,67.5827241 -1.24990445,144.891267 0.849544429,228.371213 C1.85532691,268.377921 25.2422109,305.377045 66.5964713,311.548448 Z" id="Path"></path>
                    </g>
                    <g id="freepik--Floor--inject-58" transform="translate(0.000000, 356.418065)" stroke="#263238" stroke-linecap="round" stroke-linejoin="round" stroke-width="0.976487849">
                        <line x1="0.898368821" y1="1.37684787" x2="416.433008" y2="1.37684787" id="Path"></line>
                    </g>
                    <g id="freepik--Character--inject-58" transform="translate(218.733278, 16.600293)">
                        <path d="M23.9337172,23.7188899 L23.2111162,17.5377218 C23.2111162,17.5377218 26.1405797,12.1572737 26.1405797,11.6787947 C26.1405797,11.2003156 25.1055026,5.81986758 23.9532469,4.32584117 C22.9120339,3.08331705 21.7363275,1.96000986 20.4476556,0.976487849 C19.1684565,-0.175767813 18.6509179,0.976487849 19.0415131,2.32404108 C17.5791319,1.83027631 16.0658105,1.50271757 14.5301392,1.34755323 C13.6788028,1.57918525 12.8565359,1.90678159 12.0791547,2.32404108 C11.5746708,2.19553053 11.0568413,2.12670508 10.5363039,2.11897863 C9.73834283,2.42465224 8.97819522,2.82110854 8.27085208,3.30052893 C7.70620229,3.45439229 7.15176876,3.64355197 6.61082274,3.86689188 C5.75151343,4.34537093 4.65784704,6.64011738 4.65784704,6.64011738 C4.65784704,6.64011738 3.10523136,7.30412911 2.85134452,7.82166767 C2.59745768,8.33920623 0.273416598,11.571381 0.898368821,11.8350327 C2.30451132,12.459985 4.80432022,10.6730122 4.80432022,10.6730122 C4.80432022,10.6730122 8.50520917,11.0050181 8.71027162,11.971741 C8.91533406,12.938464 11.6885596,17.8306681 13.5243567,18.6216233 L13.5243567,24.4121962 L23.9337172,23.7188899 Z" id="Path" stroke="#263238" stroke-width="0.976487849" fill="#FFFFFF" fill-rule="nonzero" stroke-linecap="round" stroke-linejoin="round"></path>
                        <polygon id="Path" stroke="#263238" stroke-width="0.976487849" fill="#ADC7F7" fill-rule="nonzero" stroke-linecap="round" stroke-linejoin="round" points="124.658439 56.4312328 119.570937 62.9932312 112.325397 57.3881909 111.944567 51.8417399 117.412899 50.8261926"></polygon>
                        <path d="M86.6925913,12.4892796 C86.6925913,12.4892796 93.7916579,9.77464337 99.3869333,14.0126006 C106.456705,19.3832838 115.157212,34.6946133 106.749652,61.9288594 C106.749652,61.9288594 97.6780796,52.8572873 71.6546784,61.9288594 C71.6546784,61.9288594 64.7313795,58.4623275 63.3838263,38.5615052 C62.6807551,28.0642608 61.1964935,8.04625988 86.6925913,12.4892796 Z" id="Path" fill="#263238" fill-rule="nonzero"></path>
                        <path d="M111.944567,51.831975 C111.944567,51.831975 105.30445,52.3592785 102.44334,41.3737902" id="Path" stroke="#263238" stroke-width="0.976487849" stroke-linecap="round" stroke-linejoin="round"></path>
                        <polygon id="Path" stroke="#263238" stroke-width="0.976487849" fill="#ADC7F7" fill-rule="nonzero" stroke-linecap="round" stroke-linejoin="round" points="150.28148 223.947723 142.625815 227.150604 139.090929 218.694219 141.493089 213.675071 146.756359 215.491339"></polygon>
                        <path d="M141.746976,214.104726 C141.746976,214.104726 139.081164,203.675836 130.947021,203.480538" id="Path" stroke="#263238" stroke-width="0.976487849" stroke-linecap="round" stroke-linejoin="round"></path>
                        <path d="M70.961372,48.0724968 C76.3125254,48.5998003 75.9609898,35.5636875 71.3226725,34.7043782 C66.1179923,33.7376552 63.2666478,47.3303661 70.961372,48.0724968 Z" id="Path" stroke="#263238" stroke-width="0.976487849" fill="#ADC7F7" fill-rule="nonzero" stroke-linecap="round" stroke-linejoin="round"></path>
                        <path d="M72.8459936,31.2476112 C65.5320996,30.5347751 66.0105786,48.3556783 72.3479848,49.5274637 C79.4763461,50.8652521 83.3627677,32.2729234 72.8459936,31.2476112 Z" id="Path" stroke="#263238" stroke-width="0.976487849" fill="#757575" fill-rule="nonzero" stroke-linecap="round" stroke-linejoin="round"></path>
                        <path d="M60.034473,317.505024 L61.0109608,320.366134 C59.5374609,322.813859 57.8825604,325.147693 56.0601674,327.348022 C56.0601674,327.348022 55.0836796,327.025781 53.4724746,328.441688 C52.4899945,329.428407 51.8822472,330.726777 51.753856,332.113282 C51.753856,332.113282 44.2934888,341.057911 34.8313216,341.194619 C25.3691543,341.331328 28.2204988,336.556302 28.2204988,336.556302 L60.034473,317.505024 Z" id="Path" stroke="#263238" stroke-width="0.976487849" fill="#ADC7F7" fill-rule="nonzero" stroke-linecap="round" stroke-linejoin="round"></path>
                        <path d="M51.1484336,294.733328 C51.1484336,294.733328 38.4540915,290.055951 35.9640475,299.420469 C35.9640475,299.420469 38.2294993,309.722416 36.8721812,315.346986 C35.5148631,320.971556 28.6794481,331.742217 28.2595584,333.792842 C27.4393086,337.786677 28.0544959,338.060093 28.0544959,338.060093 C28.0544959,338.060093 33.0345839,340.930968 39.703996,337.855031 C46.373408,334.779094 57.944789,321.547684 59.7512915,318.823283 C61.557794,316.098882 54.087662,305.318456 54.087662,305.318456 L51.1484336,294.733328 Z" id="Path" fill="#FFFFFF" fill-rule="nonzero"></path>
                        <path d="M51.1484336,294.733328 C51.1484336,294.733328 38.4540915,290.055951 35.9640475,299.420469 C35.9640475,299.420469 38.2294993,309.722416 36.8721812,315.346986 C35.5148631,320.971556 28.6794481,331.742217 28.2595584,333.792842 C27.4393086,337.786677 28.0544959,338.060093 28.0544959,338.060093 C28.0544959,338.060093 33.0345839,340.930968 39.703996,337.855031 C46.373408,334.779094 57.944789,321.547684 59.7512915,318.823283 C61.557794,316.098882 54.087662,305.318456 54.087662,305.318456 L51.1484336,294.733328 Z" id="Path" fill="#000000" fill-rule="nonzero" opacity="0.7"></path>
                        <path d="M51.1484336,294.733328 C51.1484336,294.733328 38.4540915,290.055951 35.9640475,299.420469 C35.9640475,299.420469 38.2294993,309.722416 36.8721812,315.346986 C35.5148631,320.971556 28.6794481,331.742217 28.2595584,333.792842 C27.4393086,337.786677 28.0544959,338.060093 28.0544959,338.060093 C28.0544959,338.060093 33.0345839,340.930968 39.703996,337.855031 C46.373408,334.779094 57.944789,321.547684 59.7512915,318.823283 C61.557794,316.098882 54.087662,305.318456 54.087662,305.318456 L51.1484336,294.733328 Z" id="Path" stroke="#263238" stroke-width="0.976487849" stroke-linecap="round" stroke-linejoin="round"></path>
                        <path d="M44.6450245,307.964738 C45.749572,314.270086 44.6276706,320.763306 41.471439,326.332474 C41.471439,326.332474 38.336913,329.261938 39.6649364,330.990321" id="Path" stroke="#263238" stroke-width="0.976487849" stroke-linecap="round" stroke-linejoin="round"></path>
                        <path d="M43.2681766,325.053275 C43.2681766,325.053275 36.6280592,325.44387 33.1615274,324.076787" id="Path" stroke="#263238" stroke-width="0.976487849" stroke-linecap="round" stroke-linejoin="round"></path>
                        <path d="M44.4985513,321.381681 C44.4985513,321.381681 38.2880886,322.358169 34.8215567,320.405193" id="Path" stroke="#263238" stroke-width="0.976487849" stroke-linecap="round" stroke-linejoin="round"></path>
                        <path d="M45.5531582,317.358551 C45.5531582,317.358551 40.1141209,318.149506 36.56947,316.460182" id="Path" stroke="#263238" stroke-width="0.976487849" stroke-linecap="round" stroke-linejoin="round"></path>
                        <path d="M46.1585806,312.700704 C46.1585806,312.700704 40.104356,314.604855 37.2432466,312.700704" id="Path" stroke="#263238" stroke-width="0.976487849" stroke-linecap="round" stroke-linejoin="round"></path>
                        <path d="M98.8889245,133.358946 C98.8889245,133.358946 110.606779,167.467666 105.421628,189.819473 C100.236478,212.17128 98.5862133,221.340501 98.8889245,233.48801 C99.1916357,245.635519 86.5363532,308.784988 86.5363532,308.784988 L74.9552073,308.784988 C74.9552073,308.784988 76.6738259,254.101668 76.585942,240.850728 C76.4980581,227.599788 78.9783373,231.222558 75.94146,218.391508 C72.9045828,205.560457 75.1602698,192.641523 70.9418423,178.736336 C70.9418423,178.736336 48.1799105,217.883734 44.0591318,223.547363 C44.0591318,223.547363 48.6388598,240.743314 48.1213212,255.361337 C47.5256636,272.479169 49.0294549,298.248684 49.0294549,298.248684 C49.0294549,298.248684 46.451527,303.082299 39.3719901,301.178147 C39.3719901,301.178147 20.8773102,224.904681 21.9123873,221.106144 C22.9474645,217.307606 30.1539448,176.050994 49.9375886,148.66051 C49.9375886,148.66051 53.3260015,137.001245 55.6500425,129.540878 L98.8889245,133.358946 Z" id="Path" fill="#263238" fill-rule="nonzero"></path>
                        <path d="M89.446287,307.38861 C89.446287,307.38861 84.0365443,303.482659 72.8459936,304.302909 C72.8459936,304.302909 72.0355086,317.729616 70.5121876,321.635568 C68.9888666,325.541519 60.9523716,332.30858 59.46811,333.460836 C57.9838485,334.613091 57.9740836,338.685046 57.9740836,338.685046 L91.9656257,338.685046 C91.5350194,332.872731 90.630388,327.105297 89.2607543,321.44027 L89.446287,307.38861 Z" id="Path" fill="#FFFFFF" fill-rule="nonzero"></path>
                        <path d="M89.446287,307.38861 C89.446287,307.38861 84.0365443,303.482659 72.8459936,304.302909 C72.8459936,304.302909 72.0355086,317.729616 70.5121876,321.635568 C68.9888666,325.541519 60.9523716,332.30858 59.46811,333.460836 C57.9838485,334.613091 57.9740836,338.685046 57.9740836,338.685046 L91.9656257,338.685046 C91.5350194,332.872731 90.630388,327.105297 89.2607543,321.44027 L89.446287,307.38861 Z" id="Path" fill="#000000" fill-rule="nonzero" opacity="0.7"></path>
                        <path d="M89.446287,307.38861 C89.446287,307.38861 84.0365443,303.482659 72.8459936,304.302909 C72.8459936,304.302909 72.0355086,317.729616 70.5121876,321.635568 C68.9888666,325.541519 60.9523716,332.30858 59.46811,333.460836 C57.9838485,334.613091 57.9740836,338.685046 57.9740836,338.685046 L91.9656257,338.685046 C91.5350194,332.872731 90.630388,327.105297 89.2607543,321.44027 L89.446287,307.38861 Z" id="Path" stroke="#263238" stroke-width="0.976487849" stroke-linecap="round" stroke-linejoin="round"></path>
                        <path d="M82.4351042,309.126758 C82.4351042,309.126758 81.6246193,321.489095 79.7107031,324.750564 C78.6801353,326.540521 77.412231,328.182884 75.94146,329.633003 C75.94146,329.633003 73.617419,329.633003 75.94146,332.757764" id="Path" stroke="#263238" stroke-width="0.976487849" stroke-linecap="round" stroke-linejoin="round"></path>
                        <path d="M78.5389177,328.441688 C78.5389177,328.441688 71.283613,324.28185 66.1179923,327.4652" id="Path" stroke="#263238" stroke-width="0.976487849" stroke-linecap="round" stroke-linejoin="round"></path>
                        <path d="M80.286831,325.619638 C80.286831,325.619638 75.218859,321.713687 69.2525183,323.832665" id="Path" stroke="#263238" stroke-width="0.976487849" stroke-linecap="round" stroke-linejoin="round"></path>
                        <path d="M82.4351042,321.264502 C82.4351042,321.264502 76.986302,317.03631 71.2445535,319.731417" id="Path" stroke="#263238" stroke-width="0.976487849" stroke-linecap="round" stroke-linejoin="round"></path>
                        <path d="M83.1674701,315.923114 C83.1674701,315.923114 76.5664123,312.378463 71.7523272,315.073569" id="Path" stroke="#263238" stroke-width="0.976487849" stroke-linecap="round" stroke-linejoin="round"></path>
                        <path d="M91.9558608,338.685046 L91.9558608,341.194619 L88.0499094,341.194619 C86.0106986,340.083168 83.5466516,340.083168 81.5074408,341.194619 L63.1787639,341.194619 C61.2411361,341.186512 59.3285012,340.756669 57.5737236,339.93495 L57.9643187,338.685046 L91.9558608,338.685046 Z" id="Path" stroke="#263238" stroke-width="0.976487849" fill="#ADC7F7" fill-rule="nonzero" stroke-linecap="round" stroke-linejoin="round"></path>
                        <path d="M117.930438,72.1819818 C114.259604,69.7392133 110.216382,67.9088805 105.958697,66.7624743 C105.958697,66.7624743 103.654185,64.5067873 102.44334,66.2742303 C97.560901,73.3244726 71.6156189,63.2275882 71.6156189,63.2275882 C71.6156189,63.2275882 70.1801817,61.6163833 66.4988225,61.6847374 C63.9811722,59.5958052 60.8752299,58.3431889 57.6127831,58.101027 C52.2030404,57.7104319 33.4056493,61.2062584 31.0913731,59.7317617 C28.7770969,58.2572651 24.1387796,21.1800215 24.1387796,21.1800215 L12.9482289,21.1800215 L12.9482289,25.9745768 C12.9482289,25.9745768 7.92908134,37.7900798 8.31967648,54.7809684 C8.71027162,71.7718569 -6.7182364,78.353385 39.6356418,93.8404823 C39.6356418,93.8404823 38.092791,121.650856 43.1119386,134.013192 C43.1119386,134.013192 80.3356554,152.70317 104.025251,152.820348 C104.025251,152.820348 109.298285,156.28688 102.384751,140.448247 L110.343127,129.501819 C110.343127,129.501819 121.543443,149.031576 129.267462,143.641363 C136.99148,138.25115 130.849372,80.3454202 117.930438,72.1819818 Z" id="Path" fill="#ADC7F7" fill-rule="nonzero"></path>
                        <g id="Group" transform="translate(5.858927, 20.506245)" fill="#000000" fill-opacity="0.7" fill-rule="nonzero" opacity="0.2">
                            <path d="M33.6400064,76.8398289 C33.6985957,74.6232014 33.7767147,73.295178 33.7767147,73.295178 C-12.5771635,57.8373753 2.84157964,51.275377 2.46074938,34.235664 C2.07991912,17.195951 7.08930179,5.42927244 7.08930179,5.42927244 L7.08930179,0.624952224 L18.2993823,0.624952224 C18.2993823,0.624952224 22.9279347,37.7314905 25.2519758,39.1864574 C30.4664209,47.2034226 20.9066049,56.6167655 24.2754879,58.1303217 C27.644371,59.6438778 35.8175743,52.2713946 35.8175743,52.2713946 C36.6863652,60.5246417 35.9468661,68.8680484 33.6400064,76.8398289 L33.6400064,76.8398289 Z" id="Path"></path>
                            <path d="M121.33838,99.5334065 C121.33838,99.5334065 119.131518,115.557572 117.969497,123.564772 C111.319615,120.91849 104.4842,108.985809 104.4842,108.985809 L96.5355888,119.893178 C103.449123,135.731811 98.1760884,132.275044 98.1760884,132.275044 C74.4864932,132.157866 37.2627763,113.467888 37.2627763,113.467888 C36.457573,111.390262 35.8462911,109.242603 35.4367441,107.052363 C59.712232,126.455176 91.0965515,128.710863 93.8893067,128.876866 C89.1338109,128.554625 73.0315263,123.613597 71.1273749,119.893178 C69.2232236,116.172759 86.7511805,119.619762 91.3504383,118.848336 C95.9496961,118.076911 100.910254,103.224531 100.910254,103.224531 C97.4730171,103.224531 93.147176,90.8621944 93.547536,89.3291085 C93.947896,87.7960225 99.8654124,88.1377933 99.8654124,88.1377933 C99.8654124,88.1377933 96.6332376,85.0618566 97.5316064,81.0387266 C98.4299752,77.0155967 96.8187703,70.961372 100.011886,71.7327974 C103.205001,72.5042228 102.423811,77.874906 102.423811,77.874906 L121.33838,99.5334065 Z" id="Path"></path>
                        </g>
                        <path d="M117.930438,72.1819818 C114.259604,69.7392133 110.216382,67.9088805 105.958697,66.7624743 C105.958697,66.7624743 103.654185,64.5067873 102.44334,66.2742303 C97.560901,73.3244726 71.6156189,63.2275882 71.6156189,63.2275882 C71.6156189,63.2275882 70.1801817,61.6163833 66.4988225,61.6847374 C63.9811722,59.5958052 60.8752299,58.3431889 57.6127831,58.101027 C52.2030404,57.7104319 33.4056493,61.2062584 31.0913731,59.7317617 C28.7770969,58.2572651 24.1387796,21.1800215 24.1387796,21.1800215 L12.9482289,21.1800215 L12.9482289,25.9745768 C12.9482289,25.9745768 7.92908134,37.7900798 8.31967648,54.7809684 C8.71027162,71.7718569 -6.7182364,78.353385 39.6356418,93.8404823 C39.6356418,93.8404823 38.092791,121.650856 43.1119386,134.013192 C43.1119386,134.013192 80.3356554,152.70317 104.025251,152.820348 C104.025251,152.820348 109.298285,156.28688 102.384751,140.448247 L110.343127,129.501819 C110.343127,129.501819 121.543443,149.031576 129.267462,143.641363 C136.99148,138.25115 130.849372,80.3454202 117.930438,72.1819818 Z" id="Path" stroke="#263238" stroke-width="0.976487849" stroke-linecap="round" stroke-linejoin="round"></path>
                        <path d="M80.3747149,78.6365665 C91.6336198,79.5349353 102.44334,66.2742303 102.44334,66.2742303 C102.44334,66.2742303 96.3402912,66.0203435 95.6079253,63.2275882 C93.147176,54.4391976 99.2209304,42.7994624 99.2209304,42.7994624 C99.2209304,42.7994624 72.2991604,45.728926 77.5136055,51.4609097 C78.4809348,52.5052737 79.299172,53.6784089 79.9450602,54.9469713 C81.8980359,58.8529227 81.0191969,61.958154 80.2087119,62.7588741 C80.1517522,62.813586 80.0896166,62.8626403 80.0231793,62.9053473 C78.4510338,63.7841863 71.6546784,63.2178234 71.6546784,63.2178234 C71.6546784,63.2178234 70.1020627,77.8163167 80.3747149,78.6365665 Z" id="Path" stroke="#263238" stroke-width="0.976487849" fill="#FFFFFF" fill-rule="nonzero" stroke-linecap="round" stroke-linejoin="round"></path>
                        <path d="M98.8986894,69.9848842 C94.9471711,71.6833641 90.680631,72.5253568 86.3801152,72.4553984 L83.1381755,74.4083741" id="Path" stroke="#263238" stroke-width="0.976487849" stroke-linecap="round" stroke-linejoin="round"></path>
                        <path d="M79.7497627,74.3888444 L79.320108,72.1819818 C79.320108,72.1819818 73.6467136,70.9027827 71.6644433,67.748727" id="Path" stroke="#263238" stroke-width="0.976487849" stroke-linecap="round" stroke-linejoin="round"></path>
                        <path d="M80.1696524,62.768639 C88.6065075,64.2529005 91.6238549,53.3357663 91.6238549,53.3357663 C91.6238549,53.3357663 84.8567941,51.9100941 79.9060007,54.9469713 C81.8687413,58.8333929 80.9801373,61.958154 80.1696524,62.768639 Z" id="Path" fill="#263238" fill-rule="nonzero"></path>
                        <path d="M79.8767061,14.8914397 C61.5187345,17.5767813 70.3657144,44.7036137 72.2601009,51.431615 C72.9631721,53.921659 80.7067208,61.1964935 84.1732526,60.5520115 C86.878124,60.034473 96.5062942,51.9003292 97.004303,48.541211 C98.3225616,39.5770525 100.578248,11.8447976 79.8767061,14.8914397 Z" id="Path" stroke="#263238" stroke-width="0.976487849" fill="#FFFFFF" fill-rule="nonzero" stroke-linecap="round" stroke-linejoin="round"></path>
                        <path d="M77.3573674,34.6555538 C77.3573674,35.924988 78.4119743,39.537993 75.9219303,42.0866263 C74.3107253,43.7271259 78.4119743,44.4594918 78.4119743,44.4594918" id="Path" stroke="#263238" stroke-width="0.976487849" stroke-linecap="round" stroke-linejoin="round"></path>
                        <path d="M76.5273528,28.9723945 C74.080585,29.0166968 71.7887702,30.1787944 70.3071252,32.1264502" id="Path" stroke="#263238" stroke-width="0.976487849" stroke-linecap="round" stroke-linejoin="round"></path>
                        <path d="M82.8647589,28.6989779 C85.2196271,28.3883953 87.6132741,28.5679188 89.8954714,29.2262813" id="Path" stroke="#263238" stroke-width="0.976487849" stroke-linecap="round" stroke-linejoin="round"></path>
                        <path d="M73.0412911,37.6533715 C73.1877643,38.3955022 73.7345975,38.9228057 74.2814307,38.815392 C74.8282639,38.7079783 75.14074,38.0244369 75.0040317,37.2725412 C74.8673234,36.5206456 74.3009605,36.003107 73.7638921,36.1105207 C73.2268238,36.2179343 72.894818,36.9014758 73.0412911,37.6533715 Z" id="Path" fill="#263238" fill-rule="nonzero"></path>
                        <path d="M84.9544429,36.2081695 C85.0911512,36.9600651 85.6477493,37.4873685 86.1945825,37.3799549 C86.8062855,37.138768 87.120243,36.4592435 86.9074186,35.8371041 C86.7707103,35.0852084 86.2141122,34.5676699 85.667279,34.6653187 C85.0592196,34.9103494 84.7469072,35.5863131 84.9544429,36.2081695 Z" id="Path" fill="#263238" fill-rule="nonzero"></path>
                        <path d="M78.4119743,49.4395798 C81.3932966,48.7792629 84.1995956,47.4909619 86.6437669,45.6605718 C86.6437669,45.6605718 87.3761328,50.3574784 83.4897111,51.6659721 C80.5114232,52.64246 79.0564563,49.2931066 79.0564563,49.2931066" id="Path" stroke="#263238" stroke-width="0.976487849" stroke-linecap="round" stroke-linejoin="round"></path>
                        <path d="M86.6925913,18.6606828 C86.6925913,18.6606828 86.6925913,32.1264502 98.8986894,36.0226368 L103.380769,22.7228723 L81.3609676,11.5225566 C57.9838485,11.6299703 52.8670522,40.4168321 65.3270371,56.9097119 C65.3270371,56.9097119 62.4952224,20.0180009 86.6925913,18.6606828 Z" id="Path" fill="#263238" fill-rule="nonzero"></path>
                        <path d="M96.359821,36.803827 C96.0766395,35.3098006 99.5627011,31.179257 101.046963,33.5228279 C103.585831,37.5361929 102.287102,41.3347307 100.129064,42.9264059 C99.1525762,43.6490069 97.9807908,44.9575006 96.9847732,43.9028937" id="Path" stroke="#263238" stroke-width="0.976487849" fill="#FFFFFF" fill-rule="nonzero" stroke-linecap="round" stroke-linejoin="round"></path>
                        <path d="M99.3966982,28.5525047 C92.0730393,27.8396686 92.5612832,45.6605718 98.8986894,46.8323573 C106.017286,48.1603807 109.903707,29.5680521 99.3966982,28.5525047 Z" id="Path" stroke="#263238" stroke-width="0.976487849" fill="#757575" fill-rule="nonzero" stroke-linecap="round" stroke-linejoin="round"></path>
                        <path d="M99.9435314,32.9174054 C99.9435314,32.9174054 98.9670435,12.2451576 76.507823,12.5088094 C76.507823,12.5088094 79.8962358,9.87229216 86.3605854,11.5323215 C92.824935,13.1923508 103.361239,18.1040847 103.361239,32.9271703 L99.9435314,32.9174054 Z" id="Path" stroke="#263238" stroke-width="0.976487849" fill="#ADC7F7" fill-rule="nonzero" stroke-linecap="round" stroke-linejoin="round"></path>
                        <path d="M101.125082,31.0132541 C95.7836931,30.4957155 96.1352288,43.5220634 100.763781,44.3911376 C105.978226,45.3578606 108.819806,31.7553849 101.125082,31.0132541 Z" id="Path" stroke="#263238" stroke-width="0.976487849" fill="#ADC7F7" fill-rule="nonzero" stroke-linecap="round" stroke-linejoin="round"></path>
                        <g id="Group" opacity="0.2" transform="translate(33.200587, 146.473177)" stroke="#FFFFFF" stroke-linecap="round" stroke-linejoin="round" stroke-width="0.976487849">
                            <path d="M38.6884486,0.761660523 C38.6884486,0.761660523 34.6164943,15.028148 37.5068983,26.2284636" id="Path"></path>
                            <path d="M36.2081695,29.2946355 C36.2081695,29.2946355 28.2595584,23.6895952 24.7832616,23.1134674" id="Path"></path>
                            <path d="M41.5886175,31.8335039 C41.5886175,31.8335039 26.52141,29.7047604 22.4689854,31.8335039" id="Path"></path>
                            <path d="M38.6884486,29.2946355 C38.6884486,29.2946355 45.9144587,26.0136363 49.9375886,25.2422109" id="Path"></path>
                            <path d="M34.8313216,0.166002934 C34.8313216,0.166002934 31.023019,8.68097698 36.2081695,11.4639674" id="Path"></path>
                            <path d="M4.0426597,73.93966 C3.83759725,74.7110854 9.00321797,77.0351264 9.00321797,77.0351264 C9.00321797,77.0351264 6.93306373,82.4351042 4.0426597,83.2162945" id="Path"></path>
                            <path d="M60.1809462,83.2162945 C58.0717324,88.8799241 52.3690434,92.981173 52.3690434,92.981173" id="Path"></path>
                            <path d="M0.644481981,120.811077 C0.644481981,120.811077 7.83143255,128.535096 9.00321797,131.36691" id="Path"></path>
                        </g>
                        <path d="M126.093876,166.139643 L130.468542,202.650523 C130.588656,203.627534 130.085428,204.575475 129.208872,205.023389 L93.7428335,223.342301 C93.1811439,223.621356 92.5196088,223.613668 91.9645554,223.321637 C91.4095019,223.029605 91.0284749,222.488767 90.9403134,221.867804 L86.0578742,184.565968 C85.9303623,183.561807 86.456558,182.587952 87.3663679,182.144279 L123.32065,164.626087 C123.885398,164.358405 124.544146,164.377176 125.092735,164.676582 C125.641323,164.975988 126.013484,165.51986 126.093876,166.139643 Z" id="Path" stroke="#263238" stroke-width="0.976487849" fill="#BFBFBF" fill-rule="nonzero" stroke-linecap="round" stroke-linejoin="round"></path>
                        <path d="M128.046852,167.301663 L132.421517,203.802779 C132.540073,204.782057 132.037873,205.731955 131.161848,206.185409 L95.6958092,224.494557 C95.1355507,224.773426 94.4755829,224.766907 93.9209423,224.477025 C93.3663018,224.187143 92.9841784,223.649015 92.8932891,223.029825 L88.0108499,185.718224 C87.8785762,184.715817 88.4013874,183.74095 89.3095787,183.296534 L125.263861,165.788107 C125.829528,165.516365 126.491319,165.533005 127.042613,165.832832 C127.593908,166.132659 127.967539,166.679143 128.046852,167.301663 Z" id="Path" stroke="#263238" stroke-width="0.976487849" fill="#BFBFBF" fill-rule="nonzero" stroke-linecap="round" stroke-linejoin="round"></path>
                        <path d="M109.718175,191.538092 C109.715531,191.168245 109.682875,190.799223 109.620526,190.43466 C110.038708,189.985817 110.618592,189.722234 111.231731,189.702294 C112.872231,189.702294 114.161194,191.733389 114.161194,194.242963 C114.161194,196.752537 112.842936,198.783631 111.231731,198.783631 C109.845118,198.783631 108.692863,197.3189 108.370622,195.346394 C109.291169,194.296512 109.773538,192.933296 109.718175,191.538092 L109.718175,191.538092 Z" id="Path" stroke="#263238" stroke-width="0.976487849" fill="#ADC7F7" fill-rule="nonzero" stroke-linecap="round" stroke-linejoin="round"></path>
                        <path d="M115.996992,156.28688 L119.600232,198.783631 C119.600232,198.783631 117.539842,204.447261 115.996992,206.253764 C114.454141,208.060266 111.661386,217.346666 110.225948,219.143403 C108.790511,220.940141 110.997374,221.447914 114.91309,216.038172 C116.183719,217.383844 117.321705,218.848838 118.311268,220.412837 C119.082693,221.955688 121.143083,218.098561 122.949585,217.581023 C124.756088,217.063484 128.359328,215.77452 128.359328,213.977782 C128.359328,212.181045 130.702899,210.95067 130.937256,208.56804 C131.171613,206.185409 128.613215,197.240781 128.613215,197.240781 L129.648292,157.937145 L115.996992,156.28688 Z" id="Path" stroke="#263238" stroke-width="0.976487849" fill="#FFFFFF" fill-rule="nonzero" stroke-linecap="round" stroke-linejoin="round"></path>
                        <path d="M132.421517,119.951767 C133.749541,132.646109 132.655874,148.045323 132.655874,148.045323 L130.400187,167.780142 C130.400187,167.780142 131.523148,171.627504 130.673604,172.662582 C127.841789,176.275587 121.660621,171.95951 116.768417,168.35627 C111.876213,164.75303 114.815441,162.428989 114.815441,162.428989 C114.815441,162.428989 113.936602,154.958857 112.237513,150.330304 C110.538425,145.701752 108.419446,118.467506 108.272973,113.75107 C108.272973,113.75107 107.569901,106.027051 105.861048,103.986191 C104.152194,101.945331 117.803494,86.4777639 121.924273,85.9602254" id="Path" stroke="#263238" stroke-width="0.976487849" fill="#ADC7F7" fill-rule="nonzero" stroke-linecap="round" stroke-linejoin="round"></path>
                        <path d="M40.7976623,66.1472869 C40.7976623,66.1472869 43.9419532,81.0484915 39.6356418,93.8014228" id="Path" stroke="#263238" stroke-width="0.976487849" stroke-linecap="round" stroke-linejoin="round"></path>
                        <path d="M102.384751,140.409188 C96.3591839,143.161306 89.5937536,143.847804 83.1381755,142.362164" id="Path" stroke="#263238" stroke-width="0.976487849" stroke-linecap="round" stroke-linejoin="round"></path>
                        <path d="M66.4988225,61.6847374 C66.4988225,61.6847374 67.2311884,81.3609676 81.0582564,82.5132233" id="Path" stroke="#263238" stroke-width="0.976487849" stroke-linecap="round" stroke-linejoin="round"></path>
                        <path d="M31.1109029,59.7317617 C31.1109029,59.7317617 32.3022181,65.7469269 28.4353262,67.748727 C24.5684343,69.7505271 28.4353262,63.7451268 28.4353262,63.7451268" id="Path" stroke="#263238" stroke-width="0.976487849" stroke-linecap="round" stroke-linejoin="round"></path>
                        <path d="M114.815441,162.468048 C114.815441,162.468048 121.475088,167.291898 126.093876,166.139643" id="Path" stroke="#263238" stroke-width="0.976487849" stroke-linecap="round" stroke-linejoin="round"></path>
                        <path d="M12.9482289,25.9745768 C12.9482289,25.9745768 19.9398819,29.0309838 21.8635629,28.532975" id="Path" stroke="#263238" stroke-width="0.976487849" stroke-linecap="round" stroke-linejoin="round"></path>
                        <polygon id="Path" fill="#263238" fill-rule="nonzero" points="60.6984847 108.390151 60.6984847 108.390151 62.6514604 103.439358 64.2333707 103.810423 62.524517 111.046198 61.4503804 110.792311 62.6709902 105.607161 62.6709902 105.607161 60.7180145 110.616544 59.6438778 110.362657 60.0247081 105.050563 60.0247081 105.050563 58.8138632 110.157594 57.8373753 109.923237 59.5364642 102.697227 61.1183745 103.068293"></polygon>
                        <path d="M64.5946712,105.68528 C64.6911087,105.020373 65.1542618,104.466688 65.7916733,104.254301 C66.4290849,104.041915 67.1317793,104.207137 67.6077611,104.681313 C68.0837429,105.155489 68.2516355,105.857551 68.0416733,106.495765 L67.1530694,110.255243 C67.056632,110.92015 66.5934789,111.473835 65.9560673,111.686222 C65.3186558,111.898608 64.6159614,111.733386 64.1399795,111.25921 C63.6639977,110.785034 63.4961051,110.082972 63.7060673,109.444758 L64.5946712,105.68528 Z M64.8290283,109.776764 C64.7020849,110.294303 64.8876176,110.548189 65.2489181,110.636073 C65.6102186,110.723957 65.8836352,110.577484 66.0008137,110.059946 L66.9773016,106.153994 C67.0944801,105.636456 66.9089474,105.392334 66.5476469,105.30445 C66.1863464,105.216566 65.9226947,105.363039 65.7957513,105.880578 L64.8290283,109.776764 Z" id="Shape" fill="#263238" fill-rule="nonzero"></path>
                        <polygon id="Path" fill="#263238" fill-rule="nonzero" points="69.7505271 107.169541 69.7505271 107.169541 68.5201524 112.413281 67.4948401 112.169159 69.2036939 104.943149 70.6293661 105.275155 70.7563096 109.874413 70.7563096 109.874413 71.7327974 105.548572 72.7092853 105.792694 71.0004315 113.018704 69.838411 112.745287"></polygon>
                        <path d="M73.5881243,105.978226 L75.384862,106.398116 C75.8784969,106.458122 76.3157218,106.745384 76.5667575,107.174636 C76.8177932,107.603888 76.8537892,108.125798 76.6640611,108.585449 L75.7949869,112.237513 C75.7586154,112.730622 75.4951451,113.178824 75.0819824,113.45044 C74.6688197,113.722057 74.1528907,113.786237 73.6857731,113.624126 L71.8890355,113.204236 L73.5881243,105.978226 Z M74.4864932,107.276955 L73.2365887,112.432811 L73.8810707,112.589049 C74.2423712,112.676933 74.496258,112.540225 74.6232014,112.022686 L75.5118054,108.263208 C75.6289839,107.745669 75.4532161,107.511312 75.0919156,107.423428 L74.4864932,107.276955 Z" id="Shape" fill="#263238" fill-rule="nonzero"></path>
                        <path d="M79.7692924,115.059563 L78.6170368,114.786147 L78.7342153,113.428829 L77.3378377,113.096823 L76.830064,114.366257 L75.785222,114.122135 L78.6463314,107.169541 L80.3161256,107.560137 L79.7692924,115.059563 Z M77.7089031,112.1301 L78.8123343,112.383987 L79.1345753,108.604979 L79.1345753,108.604979 L77.7089031,112.1301 Z" id="Shape" fill="#263238" fill-rule="nonzero"></path>
                        <polygon id="Path" fill="#263238" fill-rule="nonzero" points="81.4195569 112.921055 81.1168456 107.745669 82.3081608 108.028851 82.3862799 111.524677 82.3862799 111.524677 84.0170146 108.438976 85.1009161 108.692863 82.532753 113.184707 81.9663901 115.586867 80.8336642 115.31345"></polygon>
                        <polygon id="Path" fill="#263238" fill-rule="nonzero" points="67.0847153 92.9616433 68.227206 93.225295 66.5183523 100.451305 65.4246859 100.187653"></polygon>
                        <path d="M78.519388,95.3540385 C77.4129649,94.7133553 76.0115089,94.9152942 75.1309751,95.8422824 C74.7300529,94.6296548 73.5405562,93.8583088 72.2698657,93.9869555 C70.31689,94.1431936 69.2134588,96.3012317 70.2680656,98.7326865 C71.0033507,100.219585 72.0608119,101.523899 73.3635321,102.550754 L73.617419,102.755816 L73.9298951,102.677697 C75.543666,102.291278 77.0513018,101.550802 78.3436202,100.509894 C80.3161256,98.7424513 80.1989471,96.3109966 78.519388,95.3540385 Z" id="Path" fill="#263238" fill-rule="nonzero"></path>
                        <path d="M19.0415131,2.27521669 C19.9398819,4.02312994 20.9944888,6.46434956 20.5843639,7.23577496 C20.174239,8.00720036 17.2350105,12.0205654 18.2603228,14.461785" id="Path" stroke="#263238" stroke-width="0.976487849" stroke-linecap="round" stroke-linejoin="round"></path>
                        <path d="M4.61878753,6.59129298 L3.58371041,9.52075653 C4.44784923,10.0391719 5.5645441,9.81498697 6.16163833,9.00321797 C7.31389399,7.58731059 9.63793507,8.18296818 9.63793507,8.18296818" id="Path" stroke="#263238" stroke-width="0.976487849" stroke-linecap="round" stroke-linejoin="round"></path>
                        <path d="M12.0791547,2.27521669 C12.0791547,2.27521669 7.54825108,5.20468024 12.9482289,4.53090362 C16.1804037,4.15983824 17.4596027,5.14609097 17.4107784,5.35115341" id="Path" stroke="#263238" stroke-width="0.976487849" stroke-linecap="round" stroke-linejoin="round"></path>
                        <path d="M8.27085208,3.25170454 C8.27085208,3.25170454 6.31787639,4.8140851 7.45060229,5.73198368 C8.5833282,6.64988225 10.9464288,6.27881687 11.4053781,6.22999248 C12.425566,6.23341251 13.4300885,6.48119473 14.3348416,6.95259349" id="Path" stroke="#263238" stroke-width="0.976487849" stroke-linecap="round" stroke-linejoin="round"></path>
                    </g>
                    <g id="freepik--Device--inject-58" transform="translate(62.495222, 13.670830)">
                        <rect id="Rectangle" stroke="#263238" stroke-width="0.976487849" fill="#FFFFFF" fill-rule="nonzero" stroke-linecap="round" stroke-linejoin="round" x="0.039059514" y="0.400360018" width="176.226762" height="343.723723" rx="9.04227749"></rect>
                        <path d="M74.5255722,8.98368821 C74.5295057,9.97984751 73.9324762,10.8801186 73.0132772,11.2640745 C72.0940781,11.6480304 71.0340683,11.4399163 70.3282728,10.7369215 C69.6224772,10.0339267 69.41015,8.97475279 69.790448,8.05403437 C70.170746,7.13331595 71.0686361,6.53270371 72.0648033,6.53270371 C73.4200333,6.53270371 74.5201748,7.62846884 74.5255722,8.98368821 Z" id="Path" stroke="#263238" stroke-width="0.976487849" fill="#ADC7F7" fill-rule="nonzero" stroke-linecap="round" stroke-linejoin="round"></path>
                        <path d="M106.691062,8.98368821 C106.695018,9.60858652 106.321632,10.1741559 105.745433,10.4160397 C105.169233,10.6579234 104.50403,10.5283449 104.060751,10.0878712 C103.617472,9.64739754 103.483672,8.98303079 103.721893,8.40530722 C103.960113,7.82758366 104.523301,7.45060229 105.148212,7.45060229 C105.996506,7.45060229 106.685693,8.13541114 106.691062,8.98368821 L106.691062,8.98368821 Z" id="Path" stroke="#263238" stroke-width="0.976487849" fill="#ADC7F7" fill-rule="nonzero" stroke-linecap="round" stroke-linejoin="round"></path>
                        <rect id="Rectangle" stroke="#263238" stroke-width="0.976487849" fill="#ADC7F7" fill-rule="nonzero" stroke-linecap="round" stroke-linejoin="round" x="78.6268016" y="8.11461403" width="20.174239" height="1.73814837" rx="0.722601009"></rect>
                        <path d="M171.168555,12.0108005 L171.168555,333.333892 C171.168555,336.618225 168.506077,339.280703 165.221744,339.280703 L11.0831371,339.280703 C7.79880406,339.280703 5.13632609,336.618225 5.13632609,333.333892 L5.13632609,12.0108005 C5.13632609,10.4345047 5.76317264,8.92291205 6.87869762,7.80921879 C7.99422261,6.69552554 9.50684336,6.07374638 11.0831371,6.07374638 L42.7213434,6.07374638 C44.8043016,6.07374638 46.6690738,7.36471142 47.3987202,9.31569408 L48.7462734,12.9286991 C49.4691121,14.8819987 51.3311291,16.1791779 53.4138854,16.1804037 L122.881231,16.1804037 C124.966672,16.1804207 126.832172,14.8835276 127.558608,12.9286991 L128.906161,9.31569408 C129.629863,7.36441531 131.492614,6.07374638 133.573773,6.07374638 L165.221744,6.07374638 C168.502267,6.07374638 171.163168,8.73028159 171.168555,12.0108005 L171.168555,12.0108005 Z" id="Path" fill="#ADC7F7" fill-rule="nonzero" opacity="0.4"></path>
                        <path d="M171.168563,314.61462 L171.168563,333.333892 C171.171153,334.911879 170.54545,336.425984 169.429643,337.541791 C168.313836,338.657598 166.799731,339.283301 165.221744,339.280711 L11.0831371,339.280711 C9.50594475,339.280711 7.9933501,338.654166 6.8781067,337.538923 C5.76286331,336.423679 5.13632609,334.911085 5.13632609,333.333892 L5.13632609,314.61462 L171.168563,314.61462 Z" id="Path" fill="#ADC7F7" fill-rule="nonzero"></path>
                        <path d="M171.168563,12.0205654 L171.168563,26.7850617 L5.16562072,26.7850617 L5.16562072,12.0205654 C5.16562072,8.7362324 7.8280987,6.07374336 11.1124317,6.07374336 L42.750638,6.07374336 C44.8344816,6.0693795 46.7007156,7.36288616 47.4280148,9.31569408 L48.7658032,12.9286991 C49.4945812,14.8817098 51.3586272,16.1775916 53.44318,16.1804037 L122.910526,16.1804037 C124.995078,16.1775916 126.859124,14.8817098 127.587902,12.9286991 L128.925691,9.31569408 C129.655337,7.36471142 131.520109,6.07221799 133.603068,6.07374336 L165.221744,6.07374336 C166.799731,6.07115691 168.313836,6.69685996 169.429643,7.81266693 C170.54545,8.9284739 171.171153,10.4425782 171.168563,12.0205654 Z" id="Path" fill="#ADC7F7" fill-rule="nonzero"></path>
                        <path d="M171.168555,11.971741 L171.168555,333.294833 C171.163168,336.575352 168.502267,339.231887 165.221744,339.231887 L11.0831371,339.231887 C9.50684336,339.231887 7.99422261,338.610108 6.87869762,337.496415 C5.76317264,336.382721 5.13632609,334.871129 5.13632609,333.294833 L5.13632609,11.971741 C5.13632609,8.68740801 7.79880406,6.02493003 11.0831371,6.02493003 L42.7213434,6.02493003 C44.806784,6.02493003 46.6722849,7.32180612 47.3987202,9.27663457 L48.7462734,12.8798747 C49.4691121,14.8331743 51.3311291,16.1303535 53.4138854,16.1315793 L122.881231,16.1315793 C124.966672,16.1315963 126.832172,14.8347032 127.558608,12.8798747 L128.896396,9.27663457 C129.619235,7.32333495 131.481252,6.02493003 133.564008,6.02493003 L165.221744,6.02493003 C166.798936,6.02493003 168.311531,6.65146725 169.426775,7.76671065 C170.542018,8.88195405 171.168555,10.3945487 171.168555,11.971741 L171.168555,11.971741 Z" id="Path" stroke="#263238" stroke-width="0.976487849" stroke-linecap="round" stroke-linejoin="round"></path>
                        <rect id="Rectangle" fill="#263238" fill-rule="nonzero" x="41.4226146" y="210.208539" width="93.4498872" height="28.288853" rx="11.7862083"></rect>
                        <path d="M64.9950313,220.940141 L64.9950313,222.688054 C64.9950313,224.846092 63.9501893,226.017878 61.8409755,226.017878 L60.8644877,226.017878 L60.8644877,231.076085 L58.745509,231.076085 L58.745509,217.610317 L61.8702701,217.610317 C63.9501893,217.610317 64.9950313,218.782103 64.9950313,220.940141 Z M60.835193,219.533998 L60.835193,224.094197 L61.8116809,224.094197 C62.4854575,224.094197 62.846758,223.78172 62.846758,222.824762 L62.846758,220.803433 C62.846758,219.826945 62.4854575,219.533998 61.8116809,219.533998 L60.835193,219.533998 Z" id="Shape" fill="#FFFFFF" fill-rule="nonzero"></path>
                        <path d="M67.992849,217.610317 L67.992849,228.000148 C67.992849,228.976636 68.4127387,229.308642 69.0865153,229.308642 C69.760292,229.308642 70.1899466,228.957106 70.1899466,228.000148 L70.1899466,217.610317 L72.1917467,217.610317 L72.1917467,227.86344 C72.1917467,230.021478 71.1078452,231.251852 69.0279261,231.251852 C66.948007,231.251852 65.8738703,230.021478 65.8738703,227.86344 L65.8738703,217.610317 L67.992849,217.610317 Z" id="Path" fill="#FFFFFF" fill-rule="nonzero"></path>
                        <path d="M78.0604387,231.076085 C77.8823489,230.541954 77.8158759,229.976934 77.8651411,229.416055 L77.8651411,227.306842 C77.8651411,226.056937 77.4452513,225.588223 76.4785284,225.588223 L75.7461625,225.588223 L75.7461625,231.076085 L73.6369487,231.076085 L73.6369487,217.610317 L76.830064,217.610317 C79.0173968,217.610317 79.96459,218.586805 79.96459,220.705784 L79.96459,221.760391 C80.1163547,222.866339 79.5629705,223.949725 78.5779772,224.475027 L78.5779772,224.475027 C79.6325841,224.914446 79.9841197,225.920229 79.9841197,227.326371 L79.9841197,229.474645 C79.9466703,230.03106 80.0230916,230.589268 80.2087119,231.115144 L78.0604387,231.076085 Z M75.7461625,219.533998 L75.7461625,223.664542 L76.5761771,223.664542 C77.3671323,223.664542 77.8456114,223.322771 77.8456114,222.248635 L77.8456114,220.920611 C77.8456114,219.944123 77.5136055,219.533998 76.7714747,219.533998 L75.7461625,219.533998 Z" id="Shape" fill="#FFFFFF" fill-rule="nonzero"></path>
                        <path d="M87.5030762,226.056937 L87.5030762,227.84391 C87.5030762,229.992183 86.4289395,231.232323 84.3490204,231.232323 C82.2691013,231.232323 81.1949647,229.992183 81.1949647,227.84391 L81.1949647,220.842492 C81.1949647,218.684454 82.2691013,217.454079 84.3490204,217.454079 C86.4289395,217.454079 87.5030762,218.684454 87.5030762,220.842492 L87.5030762,222.150986 L85.5012761,222.150986 L85.5012761,220.686254 C85.5012761,219.709766 85.0813863,219.35823 84.4076097,219.35823 C83.7338331,219.35823 83.3041784,219.729296 83.3041784,220.686254 L83.3041784,227.961088 C83.3041784,228.937576 83.7338331,229.269582 84.4076097,229.269582 C85.0813863,229.269582 85.5012761,228.918047 85.5012761,227.961088 L85.5012761,226.008113 L87.5030762,226.056937 Z" id="Path" fill="#FFFFFF" fill-rule="nonzero"></path>
                        <polygon id="Path" fill="#FFFFFF" fill-rule="nonzero" points="90.9110188 231.076085 88.7920401 231.076085 88.7920401 217.610317 90.9110188 217.610317 90.9110188 223.38136 93.3131789 223.38136 93.3131789 217.610317 95.471217 217.610317 95.471217 231.076085 93.3131789 231.076085 93.3131789 225.305041 90.9110188 225.305041"></polygon>
                        <path d="M103.859248,231.076085 L101.720739,231.076085 L101.359439,228.634865 L98.7619811,228.634865 L98.3909157,231.076085 L96.43794,231.076085 L98.6252728,217.610317 L101.720739,217.610317 L103.859248,231.076085 Z M98.9768084,226.808833 L101.017668,226.808833 L100.04118,219.973418 L100.04118,219.973418 L98.9768084,226.808833 Z" id="Shape" fill="#FFFFFF" fill-rule="nonzero"></path>
                        <path d="M107.68708,217.454079 C109.747469,217.454079 110.802076,218.684454 110.802076,220.842492 L110.802076,221.262382 L108.800276,221.262382 L108.800276,220.686254 C108.800276,219.709766 108.419446,219.35823 107.745669,219.35823 C107.071893,219.35823 106.681298,219.729296 106.681298,220.686254 C106.681298,221.643212 107.110952,222.395108 108.497565,223.615718 C110.265008,225.178098 110.821606,226.291294 110.821606,227.834145 C110.821606,229.982418 109.747469,231.222558 107.66755,231.222558 C105.587631,231.222558 104.513495,229.982418 104.513495,227.834145 L104.513495,227.00413 L106.515295,227.00413 L106.515295,227.980618 C106.515295,228.957106 106.935184,229.289112 107.608961,229.289112 C108.282738,229.289112 108.702627,228.937576 108.702627,227.980618 C108.702627,227.02366 108.282738,226.262 106.896125,225.051155 C105.128682,223.498539 104.572084,222.375578 104.572084,220.842492 C104.572084,218.733278 105.626691,217.454079 107.68708,217.454079 Z" id="Path" fill="#FFFFFF" fill-rule="nonzero"></path>
                        <polygon id="Path" fill="#FFFFFF" fill-rule="nonzero" points="114.15143 223.283712 117.080893 223.283712 117.080893 225.236687 114.15143 225.236687 114.15143 229.142639 117.803494 229.142639 117.803494 231.095614 112.032451 231.095614 112.032451 217.610317 117.803494 217.610317 117.803494 219.563293 114.15143 219.563293"></polygon>
                        <path d="M107.696845,163.688658 L68.6373309,163.688658 L69.6138188,163.288298 C74.3176321,161.359751 77.3994894,156.790898 77.4257216,151.707152 L77.4257216,137.313721 L98.9084543,137.313721 L98.9084543,151.619268 C98.9044338,156.733422 101.990515,161.343257 106.720357,163.288298 L107.696845,163.688658 Z" id="Path" fill="#FFFFFF" fill-rule="nonzero"></path>
                        <path d="M98.8791596,137.313721 L98.8791596,149.822531 C91.8038113,151.199934 84.603528,151.831595 77.3964269,151.707152 L77.3964269,137.313721 L98.8791596,137.313721 Z" id="Path" fill-opacity="0.7" fill="#000000" fill-rule="nonzero" opacity="0.3"></path>
                        <path d="M107.696845,163.688658 L68.6373309,163.688658 L69.6138188,163.288298 C74.3176321,161.359751 77.3994894,156.790898 77.4257216,151.707152 L77.4257216,137.313721 L98.9084543,137.313721 L98.9084543,151.619268 C98.9044338,156.733422 101.990515,161.343257 106.720357,163.288298 L107.696845,163.688658 Z" id="Path" stroke="#263238" stroke-width="0.976487849" stroke-linecap="round" stroke-linejoin="round"></path>
                        <rect id="Rectangle" stroke="#263238" stroke-width="0.976487849" fill="#FFFFFF" fill-rule="nonzero" stroke-linecap="round" stroke-linejoin="round" x="41.5397931" y="75.5313351" width="93.2155301" height="69.5064051" rx="2.92946355"></rect>
                        <rect id="Rectangle" fill="#BFBFBF" fill-rule="nonzero" x="45.2504469" y="80.7946047" width="85.7942224" height="58.9798661"></rect>
                        <g id="Group" transform="translate(44.918441, 80.072004)" fill="#FFFFFF" fill-rule="nonzero" opacity="0.4">
                            <path d="M59.9270593,0.722601009 C59.9270593,0.722601009 38.5810349,41.0222546 0.361300504,46.0218723 L0.361300504,0.722601009 L59.9270593,0.722601009 Z" id="Path"></path>
                            <path d="M86.1262283,21.5608517 L86.1262283,59.7024671 L44.8207923,59.7024671 C51.1386687,38.9423354 72.4358687,27.1951866 86.1262283,21.5608517 Z" id="Path"></path>
                        </g>
                        <rect id="Rectangle" stroke="#263238" stroke-width="0.976487849" stroke-linecap="round" stroke-linejoin="round" x="45.2504469" y="80.7946047" width="85.7942224" height="58.9798661"></rect>
                        <path d="M68.4127387,161.257203 L107.882378,161.257203 C108.960976,161.257203 109.835353,162.13158 109.835353,163.210179 L109.835353,166.842714 L66.5085873,166.842714 L66.5085873,163.210179 C66.5085873,162.150363 67.3532542,161.283699 68.4127387,161.257203 L68.4127387,161.257203 Z" id="Path" stroke="#263238" stroke-width="0.976487849" fill="#FFFFFF" fill-rule="nonzero" stroke-linecap="round" stroke-linejoin="round"></path>
                        <rect id="Rectangle" stroke="#263238" stroke-width="0.976487849" fill="#BFBFBF" fill-rule="nonzero" stroke-linecap="round" stroke-linejoin="round" x="33.268941" y="178.667982" width="19.4809326" height="19.4809326"></rect>
                        <rect id="Rectangle" stroke="#263238" stroke-width="0.976487849" fill="#BFBFBF" fill-rule="nonzero" stroke-linecap="round" stroke-linejoin="round" x="55.8453401" y="178.667982" width="19.4809326" height="19.4809326"></rect>
                        <rect id="Rectangle" stroke="#263238" stroke-width="0.976487849" fill="#BFBFBF" fill-rule="nonzero" stroke-linecap="round" stroke-linejoin="round" x="78.4119743" y="178.667982" width="19.4809326" height="19.4809326"></rect>
                        <rect id="Rectangle" stroke="#263238" stroke-width="0.976487849" fill="#BFBFBF" fill-rule="nonzero" stroke-linecap="round" stroke-linejoin="round" x="100.978609" y="178.667982" width="19.4809326" height="19.4809326"></rect>
                        <rect id="Rectangle" stroke="#263238" stroke-width="0.976487849" fill="#BFBFBF" fill-rule="nonzero" stroke-linecap="round" stroke-linejoin="round" x="123.555008" y="178.667982" width="19.4809326" height="19.4809326"></rect>
                        <polyline id="Path" stroke="#263238" stroke-width="0.976487849" stroke-linecap="round" stroke-linejoin="round" points="147.654728 191.323264 150.564661 188.403566 147.654728 185.493632"></polyline>
                        <polyline id="Path" stroke="#263238" stroke-width="0.976487849" stroke-linecap="round" stroke-linejoin="round" points="28.6501535 185.493632 25.7304548 188.403566 28.6501535 191.323264"></polyline>
                        <polygon id="Path" stroke="#263238" stroke-width="0.976487849" fill="#ADC7F7" fill-rule="nonzero" stroke-linecap="round" stroke-linejoin="round" points="135.770871 61.4699101 138.143736 65.2782127 142.625815 65.4637454 143.973369 69.7505271 148.269915 71.0492559 148.514037 75.5215703 152.341869 77.8553762 151.46303 82.2495716 154.597556 85.4524517 152.654345 89.4951114 154.900268 93.381533 152.009864 96.8187703 153.210944 101.134847 149.558879 103.742069 149.646763 108.224148 145.467395 109.845118 144.432318 114.210019 139.979533 114.737322 137.899614 118.701863 133.456594 118.106205 130.449012 121.436029 126.298938 119.746705 122.55899 122.226984 118.945985 119.561172 114.717793 121.035669 111.885978 117.549607 107.413663 117.920673 105.538807 113.848718 101.115317 113.096823 100.314597 108.683098 96.2133478 106.857065 96.5453537 102.384751 93.0299974 99.5919958 94.4459048 95.3345087 91.7410334 91.7605632 94.1724882 88.001085 92.4441047 83.8607765 95.7348688 80.8141344 95.0903868 76.3808796 99.0353977 74.2521361 99.5041119 69.7895866 103.859248 68.71545 105.431393 64.5165522 109.913472 64.5556117 112.481635 60.8742525 116.817241 62.0265082 120.205654 59.0970446 124.121371 61.2941423 128.1445 59.3021071 131.38644 62.3975736"></polygon>
                        <path d="M111.415635,102.043456 L112.423635,95.4554558 L116.311635,95.4554558 L115.303635,102.043456 L118.651635,102.043456 L119.659635,95.4554558 L123.115635,95.4554558 L123.727635,91.6394558 L120.271635,91.6394558 L120.919635,87.3914558 L124.411635,87.3914558 L125.023635,83.5754558 L121.531635,83.5754558 L122.503635,77.3474558 L119.155635,77.3474558 L118.183635,83.5754558 L114.295635,83.5754558 L115.267635,77.3474558 L111.919635,77.3474558 L110.947635,83.5754558 L107.491635,83.5754558 L106.843635,87.3914558 L110.335635,87.3914558 L109.687635,91.6394558 L106.231635,91.6394558 L105.583635,95.4554558 L109.075635,95.4554558 L108.067635,102.043456 L111.415635,102.043456 Z M116.923635,91.6394558 L113.035635,91.6394558 L113.683635,87.3914558 L117.571635,87.3914558 L116.923635,91.6394558 Z M137.479635,102.043456 L137.479635,77.2034558 L133.195635,77.2034558 C132.739635,79.9874558 130.663635,81.4514558 126.967635,81.5954558 L126.967635,81.5954558 L126.967635,84.8354558 L132.547635,84.8354558 L132.547635,102.043456 L137.479635,102.043456 Z" id="#1" fill="#FFFFFF" fill-rule="nonzero"></path>
                        <rect id="Rectangle" fill="#ADC7F7" fill-rule="nonzero" x="15.7995734" y="251.650684" width="144.69597" height="12.9482289"></rect>
                        <rect id="Rectangle" fill="#ADC7F7" fill-rule="nonzero" x="22.4494557" y="273.104122" width="107.950732" height="2.78299037" rx="1.16202054"></rect>
                        <rect id="Rectangle" fill="#ADC7F7" fill-rule="nonzero" x="22.4494557" y="281.453093" width="93.8893067" height="2.78299037" rx="1.16202054"></rect>
                        <path d="M106.739887,292.585054 L23.8458333,292.585054 C23.0784514,292.579688 22.4592205,291.956077 22.4592205,291.188677 L22.4592205,291.188677 C22.464587,290.421295 23.0881975,289.802064 23.8555982,289.802064 L106.749652,289.802064 C107.515457,289.802064 108.136299,290.422872 108.136299,291.188677 L108.136299,291.188677 C108.138887,291.559817 107.992612,291.916517 107.73017,292.178959 C107.467727,292.441402 107.111027,292.587677 106.739887,292.585054 L106.739887,292.585054 Z" id="Path" fill="#ADC7F7" fill-rule="nonzero"></path>
                        <rect id="Rectangle" fill="#ADC7F7" fill-rule="nonzero" x="22.4494557" y="298.151035" width="98.5764484" height="2.78299037" rx="1.16202054"></rect>
                        <rect id="Rectangle" fill="#ADC7F7" fill-rule="nonzero" x="139.676822" y="273.104122" width="14.1688387" height="2.78299037" rx="1.16202054"></rect>
                        <rect id="Rectangle" fill="#ADC7F7" fill-rule="nonzero" x="142.020393" y="281.453093" width="11.8252679" height="2.78299037" rx="1.16202054"></rect>
                        <rect id="Rectangle" fill="#ADC7F7" fill-rule="nonzero" x="138.505037" y="289.802064" width="15.3406241" height="2.78299037" rx="1.16202054"></rect>
                        <rect id="Rectangle" fill="#ADC7F7" fill-rule="nonzero" x="147.889085" y="298.151035" width="5.96634076" height="2.78299037" rx="1.16202054"></rect>
                        <rect id="Rectangle" fill="#ADC7F7" fill-rule="nonzero" x="28.366972" y="42.2233346" width="119.570937" height="8.9446287" rx="3.73018358"></rect>
                        <polygon id="Path" stroke="#263238" stroke-width="0.976487849" fill="#FFFFFF" fill-rule="nonzero" stroke-linecap="round" stroke-linejoin="round" points="145.330687 236.983836 127.871084 230.109362 134.745558 247.568964 137.460195 241.426856 140.438482 244.414909 142.166866 242.67676 139.188578 239.698472"></polygon>
                    </g>
                    <g id="freepik--Stuff--inject-58" transform="translate(14.647318, 269.510646)">
                        <path d="M10.7413663,58.5209168 C8.55377755,62.1518612 7.10988279,66.1814893 6.4936442,70.3754793" id="Path" stroke="#263238" stroke-width="0.976487849" stroke-linecap="round" stroke-linejoin="round"></path>
                        <polygon id="Path" stroke="#263238" stroke-width="0.976487849" fill="#ADC7F7" fill-rule="nonzero" stroke-linecap="round" stroke-linejoin="round" points="51.5292638 26.2186988 43.9126586 22.9084049 47.5549583 14.5008446 52.8475224 12.7626962 55.1813284 17.8111384"></polygon>
                        <path d="M52.8475224,12.7626962 C54.8004981,9.12039651 61.6359131,2.41192499 66.3328196,4.21842751" id="Path" stroke="#263238" stroke-width="0.976487849" stroke-linecap="round" stroke-linejoin="round"></path>
                        <polygon id="Path" stroke="#263238" stroke-width="0.976487849" fill="#ADC7F7" fill-rule="nonzero" stroke-linecap="round" stroke-linejoin="round" points="202.796997 65.8445757 208.694983 71.6937379 202.240398 78.197147 196.684183 77.9042006 196.342412 72.3479848"></polygon>
                        <path d="M196.684183,77.9042006 C196.684183,77.9042006 190.424896,86.6925913 183.657835,85.8918712" id="Path" stroke="#263238" stroke-width="0.976487849" stroke-linecap="round" stroke-linejoin="round"></path>
                        <polygon id="Path" stroke="#263238" stroke-width="0.976487849" fill="#ADC7F7" fill-rule="nonzero" stroke-linecap="round" stroke-linejoin="round" points="396.053707 37.2432466 391.962223 44.4692567 383.994082 39.9676477 382.812532 34.5286104 388.075801 32.7318727"></polygon>
                        <path d="M382.783237,34.5286104 C382.783237,34.5286104 376.475125,34.9485001 372.842591,25.1250324" id="Path" stroke="#263238" stroke-width="0.976487849" stroke-linecap="round" stroke-linejoin="round"></path>
                        <path d="M369.112407,72.9045828 C369.112407,72.9045828 368.311687,65.5418645 364.933039,61.6652077" id="Path" stroke="#263238" stroke-width="0.976487849" stroke-linecap="round" stroke-linejoin="round"></path>
                        <rect id="Rectangle" fill="#BFBFBF" fill-rule="nonzero" x="305.962938" y="50.552776" width="61.2453179" height="37.5557227"></rect>
                        <g id="Group" transform="translate(315.405575, 49.800880)" fill="#000000" fill-opacity="0.7" fill-rule="nonzero" opacity="0.2">
                            <polygon id="Path" points="0.32224099 0.751895644 26.3065827 9.02274773 26.3065827 38.3173832 51.8124453 38.3173832 51.8124453 0.751895644"></polygon>
                            <rect id="Rectangle" x="26.0624607" y="0.234357084" width="25.7402197" height="38.0830261"></rect>
                        </g>
                        <rect id="Rectangle" stroke="#263238" stroke-width="0.976487849" stroke-linecap="round" stroke-linejoin="round" x="305.962938" y="50.552776" width="61.2453179" height="37.5557227"></rect>
                        <polyline id="Path" stroke="#263238" stroke-width="0.976487849" stroke-linecap="round" stroke-linejoin="round" points="327.92415 68.227206 326.459418 70.1020627 341.712158 88.1182635"></polyline>
                        <polyline id="Path" stroke="#263238" stroke-width="0.976487849" stroke-linecap="round" stroke-linejoin="round" points="341.712158 79.6521139 341.712158 50.552776 329.554884 66.1277572"></polyline>
                        <line x1="341.721923" y1="83.3334731" x2="341.721923" y2="85.5989249" id="Path" stroke="#263238" stroke-width="0.976487849" stroke-linecap="round" stroke-linejoin="round"></line>
                        <line x1="309.077934" y1="83.6752438" x2="305.962938" y2="88.1084986" id="Path" stroke="#263238" stroke-width="0.976487849" stroke-linecap="round" stroke-linejoin="round"></line>
                        <polyline id="Path" stroke="#263238" stroke-width="0.976487849" stroke-linecap="round" stroke-linejoin="round" points="316.372298 66.6452957 318.598691 70.1020627 310.523136 81.6148545"></polyline>
                        <line x1="310.816082" y1="58.0522026" x2="314.839212" y2="64.2821951" id="Path" stroke="#263238" stroke-width="0.976487849" stroke-linecap="round" stroke-linejoin="round"></line>
                        <line x1="305.962938" y1="50.552776" x2="308.540866" y2="54.5466113" id="Path" stroke="#263238" stroke-width="0.976487849" stroke-linecap="round" stroke-linejoin="round"></line>
                        <rect id="Rectangle" fill="#999999" fill-rule="nonzero" x="315.727816" y="22.2541581" width="61.2453179" height="29.5875818"></rect>
                        <rect id="Rectangle" fill-opacity="0.7" fill="#000000" fill-rule="nonzero" opacity="0.2" x="351.486801" y="22.2541581" width="25.4960977" height="29.5875818"></rect>
                        <rect id="Rectangle" stroke="#263238" stroke-width="0.976487849" stroke-linecap="round" stroke-linejoin="round" x="315.727816" y="22.2541581" width="61.2453179" height="29.5875818"></rect>
                        <polyline id="Path" stroke="#263238" stroke-width="0.976487849" stroke-linecap="round" stroke-linejoin="round" points="337.689028 37.9170232 336.224296 36.4425265 351.477037 22.2541581"></polyline>
                        <polyline id="Path" stroke="#263238" stroke-width="0.976487849" stroke-linecap="round" stroke-linejoin="round" points="351.477037 28.9235701 351.477037 51.8515048 339.319763 39.5770525"></polyline>
                        <line x1="351.486801" y1="26.0234012" x2="351.486801" y2="24.2364284" id="Path" stroke="#263238" stroke-width="0.976487849" stroke-linecap="round" stroke-linejoin="round"></line>
                        <line x1="318.842813" y1="25.7499846" x2="315.727816" y2="22.2541581" id="Path" stroke="#263238" stroke-width="0.976487849" stroke-linecap="round" stroke-linejoin="round"></line>
                        <polyline id="Path" stroke="#263238" stroke-width="0.976487849" stroke-linecap="round" stroke-linejoin="round" points="326.137177 39.1669276 328.363569 36.4425265 320.288015 27.3709544"></polyline>
                        <line x1="320.580961" y1="45.9437533" x2="324.604091" y2="41.0320194" id="Path" stroke="#263238" stroke-width="0.976487849" stroke-linecap="round" stroke-linejoin="round"></line>
                        <line x1="315.727816" y1="51.8515048" x2="318.305744" y2="48.7072139" id="Path" stroke="#263238" stroke-width="0.976487849" stroke-linecap="round" stroke-linejoin="round"></line>
                        <rect id="Rectangle" fill="#263238" fill-rule="nonzero" x="66.3328196" y="4.21842751" width="24.9004402" height="84.0560741"></rect>
                        <path d="M79.398227,40.1531804 C77.3476025,55.6402777 75.0333263,74.9454424 75.0333263,88.2745016 L62.9932312,88.2745016 L62.9932312,3.9059514 C62.9932312,2.20715845 64.3703749,0.830014672 66.0691679,0.830014672 L80.7164856,0.830014672 C80.7164856,0.830014672 81.4586164,24.6660831 79.398227,40.1531804 Z" id="Path" fill="#BFBFBF" fill-rule="nonzero"></path>
                        <path d="M71.8988004,0.790955158 L71.8988004,88.2745016 L62.9932312,88.2745016 L62.9932312,3.9059514 C62.9932312,2.20715845 64.3703749,0.830014672 66.0691679,0.830014672 L71.8988004,0.790955158 Z" id="Path" fill="#000000" fill-rule="nonzero" opacity="0.2"></path>
                        <path d="M79.398227,40.1531804 C77.3476025,55.6402777 75.0333263,74.9454424 75.0333263,88.2745016 L62.9932312,88.2745016 L62.9932312,3.9059514 C62.9932312,2.20715845 64.3703749,0.830014672 66.0691679,0.830014672 L80.7164856,0.830014672 C80.7164856,0.830014672 81.4586164,24.6660831 79.398227,40.1531804 Z" id="Path" stroke="#263238" stroke-width="0.976487849" stroke-linecap="round" stroke-linejoin="round"></path>
                        <line x1="71.8988004" y1="2.90993379" x2="71.8988004" y2="85.4133922" id="Path" stroke="#263238" stroke-width="0.976487849" fill="#BFBFBF" fill-rule="nonzero" stroke-linecap="round" stroke-linejoin="round"></line>
                        <path d="M93.5084765,88.2842665 L93.5084765,3.9059514 C93.5084765,2.20715845 92.1313327,0.830014672 90.4325397,0.830014672 L85.5501005,0.830014672 C85.5501005,0.830014672 84.7591453,24.7051426 86.8097698,40.1922399 C88.8603943,55.6793372 91.1844354,74.984502 91.1844354,88.3135611 L93.5084765,88.2842665 Z" id="Path" stroke="#263238" stroke-width="0.976487849" fill="#BFBFBF" fill-rule="nonzero" stroke-linecap="round" stroke-linejoin="round"></path>
                        <path d="M76.2832308,33.5228279 L76.2832308,33.5228279 C76.7632072,33.5228279 77.152305,33.1337301 77.152305,32.6537537 L77.152305,7.54825108 C77.152305,7.06827466 76.7632072,6.67917689 76.2832308,6.67917689 L76.2832308,6.67917689 C75.8032544,6.67917689 75.4141566,7.06827466 75.4141566,7.54825108 L75.4141566,32.6537537 C75.4141566,33.1337301 75.8032544,33.5228279 76.2832308,33.5228279 L76.2832308,33.5228279 Z" id="Path" fill="#263238" fill-rule="nonzero"></path>
                        <path d="M167.370017,85.3548029 L111.641856,85.3548029 C110.701898,85.3028531 109.90768,84.6396808 109.68888,83.7240682 L101.64262,46.8714168 C101.522097,46.4814117 101.598032,46.0571837 101.846355,45.7332 C102.094678,45.4092162 102.484599,45.2256485 102.892525,45.2406821 L158.620686,45.2406821 C159.55818,45.2988539 160.34918,45.9593392 160.573662,46.8714168 L168.610157,83.7045384 C168.737887,84.0953579 168.666841,84.5239189 168.419832,84.8526154 C168.172824,85.1813119 167.780943,85.3687715 167.370017,85.3548029 L167.370017,85.3548029 Z" id="Path" stroke="#263238" stroke-width="0.976487849" fill="#BFBFBF" fill-rule="nonzero" stroke-linecap="round" stroke-linejoin="round"></path>
                        <path d="M168.346505,85.3548029 L112.618344,85.3548029 C111.678386,85.3028531 110.884167,84.6396808 110.665368,83.7240682 L102.619108,46.8714168 C102.498585,46.4814117 102.57452,46.0571837 102.822843,45.7332 C103.071166,45.4092162 103.461086,45.2256485 103.869013,45.2406821 L159.597174,45.2406821 C160.534667,45.2988539 161.325668,45.9593392 161.55015,46.8714168 L169.586645,83.7045384 C169.714374,84.0953579 169.643329,84.5239189 169.39632,84.8526154 C169.149312,85.1813119 168.75743,85.3687715 168.346505,85.3548029 L168.346505,85.3548029 Z" id="Path" fill="#263238" fill-rule="nonzero"></path>
                        <polygon id="Path" fill="#BFBFBF" fill-rule="nonzero" points="167.330958 81.487911 111.954332 81.487911 109.483818 70.1801817 104.738087 48.4435622 160.114713 48.4435622"></polygon>
                        <path d="M193.813308,85.0911512 L193.813308,86.7218859 L180.367071,87.8839064 L113.126117,87.8839064 C112.362527,87.8785851 111.744826,87.2608837 111.739505,86.4972937 L111.739505,85.1009161 L193.813308,85.0911512 Z" id="Path" stroke="#263238" stroke-width="0.976487849" fill="#BFBFBF" fill-rule="nonzero" stroke-linecap="round" stroke-linejoin="round"></path>
                        <path d="M143.03594,85.0911512 L143.03594,86.7218859 L129.589702,87.8839064 L113.126117,87.8839064 C112.362527,87.8785851 111.744826,87.2608837 111.739505,86.4972937 L111.739505,85.1009161 L143.03594,85.0911512 Z" id="Path" stroke="#263238" stroke-width="0.976487849" fill="#999999" fill-rule="nonzero" stroke-linecap="round" stroke-linejoin="round"></path>
                        <path d="M145.83846,48.4435622 C140.731429,56.255465 130.214655,66.6648255 109.483818,70.1801817 L104.738087,48.4435622 L145.83846,48.4435622 Z" id="Path" fill="#FFFFFF" fill-rule="nonzero" opacity="0.4"></path>
                        <rect id="Rectangle" fill="#757575" fill-rule="nonzero" transform="translate(39.420814, 73.324473) rotate(180.000000) translate(-39.420814, -73.324473) " x="8.79815552" y="58.5306817" width="61.2453179" height="29.5875818"></rect>
                        <rect id="Rectangle" fill="#000000" fill-rule="nonzero" opacity="0.2" transform="translate(21.536440, 73.324473) rotate(180.000000) translate(-21.536440, -73.324473) " x="8.78839064" y="58.5306817" width="25.4960977" height="29.5875818"></rect>
                        <rect id="Rectangle" stroke="#263238" stroke-width="0.976487849" stroke-linecap="round" stroke-linejoin="round" transform="translate(39.420814, 73.324473) rotate(180.000000) translate(-39.420814, -73.324473) " x="8.79815552" y="58.5306817" width="61.2453179" height="29.5875818"></rect>
                        <polyline id="Path" stroke="#263238" stroke-width="0.976487849" stroke-linecap="round" stroke-linejoin="round" points="48.0822617 72.4456335 49.5469935 73.9201302 34.2844884 88.1182635"></polyline>
                        <polyline id="Path" stroke="#263238" stroke-width="0.976487849" stroke-linecap="round" stroke-linejoin="round" points="34.2844884 81.4488515 34.2844884 58.5209168 46.4417621 70.7953691"></polyline>
                        <line x1="34.2844884" y1="84.3490204" x2="34.2844884" y2="86.1359932" id="Path" stroke="#263238" stroke-width="0.976487849" stroke-linecap="round" stroke-linejoin="round"></line>
                        <line x1="66.9284772" y1="84.622437" x2="70.0434734" y2="88.1182635" id="Path" stroke="#263238" stroke-width="0.976487849" stroke-linecap="round" stroke-linejoin="round"></line>
                        <polyline id="Path" stroke="#263238" stroke-width="0.976487849" stroke-linecap="round" stroke-linejoin="round" points="59.634113 71.205494 57.3979558 73.9201302 65.4832752 83.0014672"></polyline>
                        <line x1="65.1903288" y1="64.4286683" x2="61.1671989" y2="69.3404022" id="Path" stroke="#263238" stroke-width="0.976487849" stroke-linecap="round" stroke-linejoin="round"></line>
                        <line x1="70.0434734" y1="58.5209168" x2="67.4557806" y2="61.6652077" id="Path" stroke="#263238" stroke-width="0.976487849" stroke-linecap="round" stroke-linejoin="round"></line>
                        <path d="M51.8026804,58.3060895 C51.6512579,58.2862407 51.5012336,58.2568882 51.353496,58.2182056 C49.4005203,57.7201968 47.5647231,55.3473313 46.0902265,53.8044805 C44.9867952,52.64246 34.4993157,52.64246 33.3958844,53.8044805 C31.9213878,55.3473313 30.0465311,57.7104319 28.1326149,58.2182056 C27.9848773,58.2568882 27.834853,58.2862407 27.6834305,58.3060895 C23.9727767,58.6966846 29.4899331,44.8793816 31.2866707,43.9907776 C33.0834083,43.1021737 35.4074494,43.1998225 35.680866,44.3325484 L43.8052449,44.3325484 C44.0786615,43.1998225 46.3929377,43.1119386 48.1994402,43.9907776 C50.0059428,44.8696167 55.5133342,58.6966846 51.8026804,58.3060895 Z" id="Path" stroke="#263238" stroke-width="0.976487849" fill="#BFBFBF" fill-rule="nonzero" stroke-linecap="round" stroke-linejoin="round"></path>
                        <path d="M51.353496,58.2182056 C49.4005203,57.7201968 47.5647231,55.3473313 46.0902265,53.8044805 C44.9867952,52.64246 34.4993157,52.64246 33.3958844,53.8044805 C31.9213878,55.3473313 30.0465311,57.7104319 28.1326149,58.2182056 C29.8609984,56.5679411 31.9604473,52.2030404 32.9369352,51.0800794 C34.1380152,49.6837018 34.714143,50.4551272 34.714143,50.4551272 L44.7719679,50.4551272 C44.7719679,50.4551272 45.3480957,49.6837018 46.5589407,51.0800794 C47.5256636,52.2030404 49.6251125,56.5679411 51.353496,58.2182056 Z" id="Path" fill="#263238" fill-rule="nonzero"></path>
                        <polygon id="Path" stroke="#263238" stroke-width="0.976487849" fill="#ADC7F7" fill-rule="nonzero" stroke-linecap="round" stroke-linejoin="round" points="377.568792 83.4506516 369.805713 86.3996449 366.544244 77.8456114 369.112407 72.9045828 374.307322 74.8868532"></polygon>
                        <polygon id="Path" stroke="#263238" stroke-width="0.976487849" fill="#ADC7F7" fill-rule="nonzero" stroke-linecap="round" stroke-linejoin="round" points="8.79815552 83.3530028 0.634717102 81.8394467 2.30451132 72.8362287 7.06000715 69.9458247 10.4679497 74.3497849"></polygon>
                    </g>
                </g>
            </g>
        </g>
    </g>
</svg>