<?xml version="1.0" encoding="UTF-8"?>
<svg width="20px" height="20px" viewBox="0 0 20 20" version="1.1" xmlns="http://www.w3.org/2000/svg" xmlns:xlink="http://www.w3.org/1999/xlink">
    <title>error_outline-24px (1)</title>
    <g id="service" stroke="none" stroke-width="1" fill="none" fill-rule="evenodd">
        <g id="register" transform="translate(-976.000000, -324.000000)" fill="#F70E31" fill-rule="nonzero">
            <g id="Register-Discount" transform="translate(360.000000, 64.000000)">
                <g id="email" transform="translate(72.000000, 228.000000)">
                    <g id="error_outline-24px-(1)" transform="translate(544.000000, 32.000000)">
                        <path d="M10,5 C10.55,5 11,5.45 11,6 L11,10 C11,10.55 10.55,11 10,11 C9.45,11 9,10.55 9,10 L9,6 C9,5.45 9.45,5 10,5 Z M9.99,0 C4.47,0 0,4.48 0,10 C0,15.52 4.47,20 9.99,20 C15.52,20 20,15.52 20,10 C20,4.48 15.52,0 9.99,0 Z M10,18 C5.58,18 2,14.42 2,10 C2,5.58 5.58,2 10,2 C14.42,2 18,5.58 18,10 C18,14.42 14.42,18 10,18 Z M11,15 L9,15 L9,13 L11,13 L11,15 Z" id="Shape"></path>
                    </g>
                </g>
            </g>
        </g>
    </g>
</svg>