<?xml version="1.0" encoding="UTF-8"?>
<svg width="153px" height="138px" viewBox="0 0 153 138" version="1.1" xmlns="http://www.w3.org/2000/svg" xmlns:xlink="http://www.w3.org/1999/xlink">
    <title>Influencer-bro</title>
    <g id="Page-1" stroke="none" stroke-width="1" fill="none" fill-rule="evenodd">
        <g id="hashtag" transform="translate(-313.000000, -1872.000000)">
            <g id="tm" transform="translate(298.000000, 1593.000000)">
                <g id="list" transform="translate(0.000000, 280.000000)">
                    <g id="Influencer-bro" transform="translate(15.000000, 0.000000)">
                        <g id="freepik--background-simple--inject-165" transform="translate(0.000000, 5.378531)" fill="#F9FBFF" fill-rule="nonzero">
                            <path d="M146.776271,90.1211299 C146.776271,90.1211299 160.24565,60.1550282 145.128136,31.5758192 C130.010621,2.99661017 97.0248588,-4.42960452 78.8838418,2.98892655 C60.7428249,10.4074576 47.8228249,33.7733333 30.2311864,41.4915254 C12.639548,49.2097175 -9.89649718,73.0827119 5.22101695,101.116384 C20.3385311,129.150056 38.2029379,126.956384 65.9638418,119.80678 C93.7247458,112.657175 136.879774,114.585763 146.776271,90.1211299 Z" id="Path"></path>
                        </g>
                        <g id="freepik--video-app--inject-165" transform="translate(19.209040, 81.062147)" fill-rule="nonzero">
                            <path d="M121.55096,30.6537853 L121.55096,28.5984181 L118.454463,26.1242938 L86.0065537,3.11186441 C85.5340113,2.5740113 84.32,2.34350282 83.2980791,2.58937853 L2.2359322,19.1475706 L0.192090395,19.1475706 L0.152800513,20.8379661 C0.152800513,20.8379661 0.122937853,21.7292655 0.426440678,22.0750282 L28.2987571,53.9620339 C28.7789831,54.5114124 30.019887,54.7303955 31.0687006,54.4768362 L120.417627,31.8101695 C121.27435,31.6219209 121.716158,31.1186441 121.55096,30.6537853 Z" id="Path" stroke="#263238" stroke-width="0.5" fill="#FFFFFF" stroke-linecap="round" stroke-linejoin="round"></path>
                            <path d="M120.417627,29.4858757 L31.0687006,52.1525424 C30.019887,52.4137853 28.7636158,52.1832768 28.2987571,51.6338983 L0.426440678,19.7468927 C-0.0537853107,19.2013559 0.426440678,18.5520904 1.46757062,18.2946893 L83.2980791,0.265084746 C84.32,0.0153672316 85.5340113,0.245875706 86.0065537,0.783728814 L121.40113,28.0451977 C121.877514,28.5868927 121.435706,29.2323164 120.417627,29.4858757 Z" id="Path" stroke="#263238" stroke-width="0.5" fill="#FFFFFF" stroke-linecap="round" stroke-linejoin="round"></path>
                            <path d="M89.6831638,3.60361582 L86.5674576,1.4099435 C85.799096,0.518644068 83.7783051,0.134463277 82.0879096,0.549378531 L42.9629379,9.13966102 L2.30508475,18.0987571 C-5.55111512e-17,18.5751412 -0.0614689266,19.4126554 0.995028249,20.3846328 L11.6176271,32.5362712 L23.4350282,46.0555932 L114.870056,23.0047458 L89.6831638,3.60361582 Z" id="Path" stroke="#263238" stroke-width="0.5" fill="#263238" stroke-linecap="round" stroke-linejoin="round"></path>
                            <path d="M50.9731073,14.4375141 C43.1242938,16.3584181 39.6705085,21.2644068 43.2894915,25.3789831 C46.9084746,29.4935593 56.1941243,31.2454237 64.0352542,29.2976271 C71.8763842,27.3498305 75.2610169,22.4553672 71.6612429,18.3638418 C68.0614689,14.2723164 58.7988701,12.5127684 50.9731073,14.4375141 Z M55.7638418,28.7213559 L46.4858757,18.1563842 L68.5493785,19.1245198 L55.7638418,28.7213559 Z" id="Shape" fill="#ADC7F7"></path>
                            <path d="M115.745989,27.6610169 L32.0483616,48.8524294 C31.399096,49.0137853 30.6307345,48.8524294 30.3349153,48.5297175 L29.6318644,47.7267797 C29.3360452,47.3887006 29.6318644,46.9814689 30.2696045,46.820113 L113.982599,25.6479096 C114.612655,25.4903955 115.36565,25.6479096 115.661469,25.9667797 L116.356836,26.7581921 C116.652655,27.0924294 116.379887,27.4919774 115.745989,27.6610169 Z" id="Path" stroke="#263238" stroke-width="0.5" fill="#ADC7F7" stroke-linecap="round" stroke-linejoin="round"></path>
                            <path d="M36.5932203,46.4090395 C35.9900565,45.7251977 34.4456497,45.4332203 33.1355932,45.759774 C31.8255367,46.0863277 31.260791,46.9123164 31.8639548,47.5923164 C32.4671186,48.2723164 34.0115254,48.5681356 35.3215819,48.2415819 C36.6316384,47.9150282 37.1925424,47.0928814 36.5932203,46.4090395 Z" id="Path" stroke="#263238" stroke-width="0.5" fill="#263238" stroke-linecap="round" stroke-linejoin="round"></path>
                        </g>
                        <g id="freepik--Icons--inject-165" transform="translate(13.830508, 2.689266)" fill-rule="nonzero">
                            <path d="M23.0508475,57.0931073 C23.1327108,57.0875207 23.2148598,57.0875207 23.2967232,57.0931073 C23.8208008,57.0931073 24.2456497,56.6682585 24.2456497,56.1441808 C24.2456497,55.6201031 23.8208008,55.1952542 23.2967232,55.1952542 L23.2967232,55.1952542 L23.2967232,55.1952542 L19.700791,55.1952542 C19.700791,55.1952542 19.9236158,53.8967232 19.9236158,53.4510734 C19.9236158,53.0054237 20.1464407,52.340791 19.539435,51.4879096 C18.9324294,50.6350282 17.5724294,50.9692655 17.5724294,50.9692655 L17.7837288,52.7288136 C17.8139344,53.0070406 17.7604274,53.2879522 17.6300565,53.5355932 L16.0164972,56.5667797 L15.2750282,57.1968362 L15.0522034,60.9425989 C15.5324294,62.0951412 17.0537853,62.460113 17.0537853,62.460113 L21.8983051,62.460113 C22.4379788,62.4751925 22.8881318,62.0508116 22.9048588,61.5111864 C22.90069,61.1847566 22.7276748,60.8837975 22.4476836,60.7159322 C22.7319319,60.7656019 23.023906,60.6923171 23.2510055,60.5143004 C23.4781051,60.3362836 23.6189956,60.0702585 23.6386441,59.7823729 C23.6292607,59.4674627 23.4616781,59.1785272 23.1929944,59.0140113 C23.6646449,58.9499129 24.0197334,58.5524744 24.0305085,58.0766102 C24.0305126,57.5349333 23.5925201,57.0952233 23.0508475,57.0931073 Z" id="Path" fill="#FFFFFF"></path>
                            <path d="M21.8983051,62.5945763 L17.0115254,62.5945763 C16.9462147,62.5945763 15.4133333,62.2103955 14.9062147,60.9848588 C14.9022448,60.9632695 14.9022448,60.9411373 14.9062147,60.919548 L15.1290395,57.1776271 C15.1324357,57.1361789 15.1517039,57.0976424 15.1828249,57.0700565 L15.9012429,56.459209 L17.5032768,53.4510734 C17.6217373,53.2328093 17.6687651,52.9828903 17.6377401,52.7364972 L17.4302825,50.9731073 C17.422184,50.8991144 17.4696328,50.8303954 17.5416949,50.8117514 C17.6031638,50.8117514 19.020791,50.4659887 19.6623729,51.3918644 C20.0317188,51.9045527 20.1810802,52.5434877 20.0772881,53.1667797 C20.0772881,53.2666667 20.0772881,53.3588701 20.0772881,53.439548 C20.0413805,53.9742001 19.9759701,54.5064608 19.8813559,55.0338983 L23.300565,55.0338983 L23.3505085,55.0338983 C23.9565253,55.0419212 24.4481942,55.5268084 24.4646328,56.1326554 C24.456935,56.5917578 24.1664787,56.9983965 23.7346893,57.1545763 C24.032187,57.3523102 24.2121211,57.6848284 24.2149153,58.0420339 C24.2113106,58.481718 23.9450334,58.876595 23.5387571,59.0447458 C23.7234653,59.2398996 23.8265511,59.4983012 23.8268927,59.7670056 C23.8156955,60.3134116 23.4110976,60.7716309 22.8702825,60.8503955 C23.0125733,61.0354379 23.0895763,61.2623941 23.0892655,61.4958192 C23.0814172,61.8009704 22.9503923,62.0899523 22.7260365,62.2969386 C22.5016808,62.5039249 22.2030992,62.6112895 21.8983051,62.5945763 Z M17.0537853,62.2949153 L21.8983051,62.2949153 C22.3558933,62.307877 22.7383354,61.9494447 22.7550282,61.4919774 C22.7515047,61.2176212 22.6061279,60.9646654 22.3708475,60.8235028 C22.313084,60.7846112 22.2897296,60.7110491 22.3144815,60.6459606 C22.3392335,60.5808721 22.4055665,60.5414165 22.4745763,60.5507345 C22.528229,60.5560754 22.5822795,60.5560754 22.6359322,60.5507345 C23.0949985,60.5658542 23.4798128,60.2068087 23.4964972,59.7477966 C23.4909265,59.4750181 23.3459089,59.2241378 23.1123164,59.0831638 C23.0590441,59.0517567 23.03134,58.990192 23.0431638,58.9294915 C23.0555959,58.8689127 23.1048476,58.8227392 23.1661017,58.8142373 C23.5647456,58.7598756 23.8654851,58.424998 23.8768362,58.0228249 C23.8504764,57.5856128 23.4888517,57.2441718 23.0508475,57.2429379 L23.0508475,57.2429379 C22.9711134,57.2388436 22.9085955,57.1729464 22.9087006,57.0931073 C22.9087006,56.9355932 23.0431638,56.9355932 23.2928814,56.9355932 C23.5984975,56.9655253 23.894607,56.8193662 24.0567178,56.5585651 C24.2188286,56.2977639 24.2188286,55.9675468 24.0567178,55.7067457 C23.894607,55.4459445 23.5984975,55.2997854 23.2928814,55.3297175 L23.2928814,55.3297175 C23.2764336,55.3333679 23.2593856,55.3333679 23.2429379,55.3297175 L19.6969492,55.3297175 C19.6544053,55.3296423 19.6138993,55.3114844 19.5855367,55.279774 C19.5557481,55.2462765 19.5430002,55.2009506 19.5509605,55.1568362 C19.6544733,54.5885814 19.7288455,54.0154029 19.7737853,53.439548 C19.7737853,53.3473446 19.7737853,53.2474576 19.7737853,53.139887 C19.8687966,52.5864606 19.7387862,52.0180107 19.4126554,51.560904 C18.9862147,50.9462147 18.0718644,51.0230508 17.7337853,51.0768362 L17.9258757,52.6980791 C17.9612962,53.0066863 17.9023595,53.3187828 17.7568362,53.5932203 L16.1432768,56.6244068 C16.1351797,56.640981 16.1233432,56.6554478 16.1087006,56.6666667 L15.4094915,57.2429379 L15.1943503,60.8888136 C15.6284746,61.88 16.9039548,62.2372881 17.0653107,62.2949153 L17.0537853,62.2949153 Z" id="Shape" fill="#263238"></path>
                            <rect id="Rectangle" fill="#263238" x="11.7943503" y="55.8061017" width="3.91864407" height="7.23028249" rx="0.822146893"></rect>
                            <path d="M100.897401,8.85920904 C100.870508,8.85920904 100.978079,8.8899435 101.062599,8.93220339 C101.282515,9.05659766 101.553101,9.04959703 101.766291,8.91399744 C101.97948,8.77839786 102.100531,8.53629689 102.081097,8.28438561 C102.061663,8.03247433 101.904911,7.8118047 101.673446,7.71050847 L101.673446,7.71050847 L99.3683616,6.5579661 C99.6214636,6.22045989 99.8573938,5.87041131 100.075254,5.50915254 C100.378193,5.11410413 100.51593,4.61687439 100.459435,4.12225989 C100.351864,3.38463277 99.360678,3.15412429 99.360678,3.15412429 L98.9265537,4.34124294 C98.8595189,4.53105857 98.734537,4.69501327 98.5692655,4.8099435 L96.5523164,6.23909605 L95.8723164,6.40813559 L94.5084746,8.7439548 C94.4470056,9.63909605 95.3075706,10.3690395 95.3075706,10.3690395 L98.3810169,11.9057627 L98.4386441,11.9364972 C98.6026881,12.0251453 98.7952291,12.0449949 98.9739087,11.9916792 C99.1525882,11.9383636 99.3027692,11.8162501 99.3914124,11.6522034 C99.4946626,11.4403008 99.4801056,11.1899219 99.3529944,10.9914124 L99.4682486,11.0644068 C99.8122255,11.2464761 100.238662,11.1180314 100.424859,10.7762712 C100.527204,10.5685992 100.514105,10.3226331 100.390282,10.1270056 C100.714787,10.2384131 101.072048,10.0964875 101.231638,9.79276836 C101.393763,9.44251772 101.244987,9.026971 100.897401,8.85920904 L100.897401,8.85920904 Z" id="Path" fill="#FFFFFF"></path>
                            <path d="M98.3963842,12.0363842 L98.3349153,12.0018079 L95.2614689,10.4650847 C95.2551692,10.4667113 95.2485596,10.4667113 95.2422599,10.4650847 C95.2038418,10.4343503 94.339435,9.69672316 94.4047458,8.75163842 C94.4014141,8.73645177 94.4014141,8.72072337 94.4047458,8.70553672 L95.7570621,6.36971751 C95.7697941,6.34374757 95.7939743,6.32525682 95.8223729,6.31977401 L96.4831638,6.15457627 L98.4847458,4.73694915 C98.6321618,4.63409162 98.7436689,4.48765454 98.8036158,4.31819209 L99.2377401,3.11954802 C99.2559474,3.06734029 99.3107679,3.0374382 99.3645198,3.05039548 C99.4067797,3.05039548 100.424859,3.3039548 100.540113,4.10689266 C100.617655,4.54958894 100.521317,5.0051311 100.271186,5.37853107 C100.232768,5.44 100.198192,5.49762712 100.171299,5.54757062 C99.974911,5.88029033 99.76074,6.20218807 99.5297175,6.51186441 L101.731073,7.61446328 L101.761808,7.63751412 C102.150068,7.83629366 102.310029,8.30766984 102.122938,8.70169492 C101.971139,8.99579131 101.652368,9.16437223 101.323842,9.12429379 C101.454056,9.34817311 101.462722,9.62258815 101.346893,9.85423729 C101.200133,10.1378495 100.896641,10.3047696 100.578531,10.2768362 C100.631579,10.4635698 100.613793,10.6633167 100.528588,10.8377401 C100.340632,11.182381 99.9335785,11.3439101 99.560452,11.2219209 C99.5949166,11.3859892 99.5718544,11.5569206 99.4951412,11.7059887 C99.3933835,11.8956409 99.2203815,12.0370404 99.0142714,12.0990176 C98.8081612,12.1609948 98.5858647,12.1384612 98.3963842,12.0363842 L98.3963842,12.0363842 Z M95.3767232,10.280678 L98.4501695,11.8174011 L98.4501695,11.8174011 L98.500113,11.8481356 C98.791089,12.0022382 99.1518834,11.8945129 99.3107345,11.6061017 C99.3986425,11.4291529 99.3869675,11.2190038 99.28,11.0528814 C99.2555097,11.0094653 99.2640547,10.9549116 99.3006474,10.9210633 C99.3372401,10.8872151 99.3922934,10.8829404 99.4336723,10.9107345 C99.4651978,10.9339704 99.4986097,10.9545316 99.5335593,10.9722034 C99.8233004,11.1291565 100.185403,11.0227566 100.344181,10.7340113 C100.429549,10.5582936 100.41941,10.3511726 100.317288,10.1846328 C100.290388,10.148068 100.290388,10.0982597 100.317288,10.0616949 C100.345065,10.0277506 100.390668,10.0140696 100.432542,10.0271186 C100.705203,10.1202874 101.005331,10.0034808 101.143277,9.75050847 C101.279816,9.45018234 101.149734,9.09588018 100.851299,8.95525424 L100.851299,8.95525424 C100.801585,8.92670336 100.782997,8.86418058 100.80904,8.81310734 C100.858983,8.70937853 100.947345,8.75548023 101.120226,8.84 C101.304147,8.93264684 101.523524,8.92013529 101.695719,8.80717834 C101.867914,8.69422139 101.966767,8.49797987 101.955041,8.29237608 C101.943315,8.08677229 101.822791,7.90304232 101.63887,7.81039548 L101.63887,7.81039548 L101.611977,7.81039548 L99.3299435,6.65785311 C99.3010122,6.64308563 99.2799662,6.61642744 99.2723164,6.58485876 C99.2596609,6.55676432 99.2596609,6.52459162 99.2723164,6.49649718 C99.2723164,6.49649718 99.8293785,5.72813559 99.9676836,5.46305085 C99.9984181,5.40158192 100.036836,5.34011299 100.075254,5.27480226 C100.321536,4.94477586 100.421535,4.52811491 100.351864,4.12225989 C100.275028,3.58824859 99.6641808,3.35389831 99.4298305,3.26937853 L99.0264407,4.37581921 C98.9556316,4.58559156 98.8213802,4.76817336 98.6422599,4.89830508 L96.6253107,6.32745763 L96.5907345,6.32745763 L95.9529944,6.48497175 L94.6352542,8.75932203 C94.5891525,9.55073446 95.2768362,10.2 95.3767232,10.280678 L95.3767232,10.280678 Z" id="Shape" fill="#263238"></path>
                            <rect id="Rectangle" fill="#263238" transform="translate(94.167998, 7.365284) rotate(26.640000) translate(-94.167998, -7.365284) " x="92.7580541" y="4.76245874" width="2.81988701" height="5.20564972" rx="0.822146893"></rect>
                            <path d="M103.813333,53.3435028 C103.771073,53.3435028 103.932429,53.3127684 104.059209,53.2897175 C104.400209,53.2407574 104.687889,53.0108338 104.810811,52.6890137 C104.933732,52.3671937 104.872583,52.0040326 104.651053,51.7402106 C104.429523,51.4763886 104.082411,51.35335 103.744181,51.4187571 L103.744181,51.4187571 L103.744181,51.4187571 L100.19435,52.0142373 C100.201939,51.4282781 100.180141,50.842307 100.12904,50.2585311 C100.052203,49.820565 100.163616,49.1059887 99.4375141,48.3837288 C98.7114124,47.6614689 97.4128814,48.1954802 97.4128814,48.1954802 L97.9123164,49.8974011 C97.9948576,50.1639251 97.9948576,50.4491822 97.9123164,50.7157062 L96.8135593,53.9658757 L96.1873446,54.7111864 L96.5715254,58.4415819 C97.2361582,59.4942373 98.7959322,59.5941243 98.7959322,59.5941243 L103.502147,58.8027119 L103.59435,58.8027119 C104.130078,58.727356 104.503308,58.232009 104.428023,57.6962712 C104.369755,57.3750258 104.148539,57.1072386 103.844068,56.9893785 C103.906681,56.9952368 103.969704,56.9952368 104.032316,56.9893785 C104.289971,56.9550495 104.523282,56.8193424 104.680507,56.6123529 C104.837733,56.4053635 104.905878,56.1441997 104.869831,55.8867797 C104.81326,55.5692891 104.596835,55.303478 104.297401,55.1837288 C104.751377,55.0431976 105.036231,54.5939414 104.969718,54.1233898 C104.920471,53.8662625 104.77074,53.639381 104.553689,53.4929972 C104.336637,53.3466135 104.070179,53.2928097 103.813333,53.3435028 Z" id="Path" fill="#FFFFFF"></path>
                            <path d="M103.613559,58.9563842 L103.517514,58.9563842 L98.8189831,59.7247458 L98.7844068,59.7247458 C98.7152542,59.7247458 97.140113,59.5941243 96.440904,58.4876836 C96.4353393,58.4675718 96.4353393,58.4463265 96.440904,58.4262147 L96.0567232,54.6958192 C96.0507268,54.656005 96.0618963,54.6155155 96.0874576,54.5844068 L96.6983051,53.8621469 L97.7816949,50.6311864 C97.8565752,50.3936331 97.8565752,50.1387963 97.7816949,49.9012429 L97.2861017,48.199322 C97.2661125,48.126545 97.3019307,48.0500243 97.3706215,48.0187571 C97.4282486,47.9957062 98.7690395,47.4348023 99.5566102,48.2415819 C100.00384,48.6877276 100.256556,49.292589 100.259661,49.9242938 C100.265025,50.0157004 100.275285,50.1067538 100.290395,50.1970621 C100.342686,50.7294098 100.365772,51.2642226 100.359548,51.799096 L103.732655,51.2343503 L103.782599,51.2343503 C104.381544,51.1406219 104.947136,51.5380647 105.061921,52.1333333 C105.132689,52.5865889 104.913398,53.0359058 104.512542,53.2589831 C104.877982,53.4209605 105.122928,53.7728284 105.147963,54.1717719 C105.172998,54.5707154 104.973962,54.9504444 104.631638,55.1568362 C104.839044,55.3235588 104.976178,55.5621722 105.015819,55.8253107 C105.09243,56.3664513 104.767919,56.8840471 104.247458,57.0508475 C104.418667,57.2091882 104.53222,57.4200736 104.570169,57.6501695 C104.620844,57.9508466 104.547799,58.2592391 104.367639,58.505241 C104.187479,58.751243 103.91551,58.9139535 103.613559,58.9563842 L103.613559,58.9563842 Z M98.7882486,59.459661 L103.475254,58.6720904 L103.475254,58.6720904 L103.55209,58.6720904 C104.006506,58.6104045 104.32578,58.1932882 104.266667,57.7385311 C104.221657,57.4660966 104.033924,57.2387637 103.774915,57.1430508 C103.708768,57.1151502 103.671706,57.0442504 103.686554,56.9740113 C103.69966,56.9040221 103.761347,56.8536986 103.832542,56.8549153 C103.886255,56.8588699 103.940186,56.8588699 103.993898,56.8549153 C104.212626,56.8262506 104.410939,56.711675 104.545021,56.5365028 C104.679103,56.3613305 104.73792,56.1399798 104.708475,55.9213559 C104.660809,55.6546751 104.479425,55.431211 104.228249,55.3297175 C104.168928,55.3096713 104.128997,55.2540284 104.128997,55.1914124 C104.128997,55.1287964 104.168928,55.0731536 104.228249,55.0531073 C104.612137,54.9346637 104.854204,54.5561294 104.800678,54.1579661 C104.706284,53.7102862 104.270096,53.4212043 103.821017,53.5087006 L103.821017,53.5087006 C103.742577,53.5161309 103.671226,53.4630324 103.655819,53.3857627 C103.628927,53.2282486 103.76339,53.2051977 104.04,53.159096 C104.340503,53.1322713 104.600606,52.9392602 104.713362,52.6594253 C104.826117,52.3795904 104.772491,52.0601666 104.574534,51.8324951 C104.376577,51.6048235 104.067703,51.5073343 103.774915,51.580113 L103.728814,51.580113 L100.232768,52.1679096 C100.188654,52.1758699 100.143328,52.163122 100.109831,52.1333333 C100.07812,52.1049708 100.059962,52.0644648 100.059887,52.0219209 C100.059887,52.0219209 100.059887,50.7118644 99.9945763,50.2892655 C99.9766859,50.1915076 99.9651364,50.092695 99.96,49.9934463 C99.9620591,49.4314756 99.7393551,48.8920063 99.3414689,48.4951412 C98.8189831,47.9572881 97.9315254,48.1839548 97.6049718,48.2953672 L98.0659887,49.8628249 C98.1571732,50.1581692 98.1571732,50.4741472 98.0659887,50.7694915 L96.9749153,54.0273446 C96.96828,54.0451452 96.9592312,54.0619501 96.9480226,54.0772881 L96.360226,54.7726554 L96.7444068,58.4031638 C97.3053107,59.2867797 98.6230508,59.4442938 98.7882486,59.459661 Z" id="Shape" fill="#263238"></path>
                            <rect id="Rectangle" fill="#263238" transform="translate(95.041024, 57.182413) rotate(-9.510000) translate(-95.041024, -57.182413) " x="93.0817018" y="53.5672713" width="3.91864407" height="7.23028249" rx="0.822146893"></rect>
                            <path d="M53.239774,0.541694915 C52.2316194,1.13680083 51.6650791,2.26687596 51.7914124,3.43073446 C50.6374858,2.62606343 49.0788954,2.73369639 48.0465329,3.68934794 C47.0141705,4.64499948 46.7867547,6.19066148 47.500113,7.40316384 C48.4912994,9.0820339 50.4967232,9.60836158 52.2831638,9.8580791 C53.0784181,9.96949153 53.8736723,10.0501695 54.6727684,10.1154802 L55.7753672,10.219209 C55.7753672,10.219209 56.2094915,9.2779661 56.2517514,9.18576271 C56.5783051,8.4519774 56.8933333,7.71435028 57.1776271,6.96903955 C57.8230508,5.28248588 58.3301695,3.27322034 57.3389831,1.59050847 C56.4963462,0.169312772 54.6614305,-0.300164258 53.239774,0.541694915 L53.239774,0.541694915 Z" id="Path" fill="#263238"></path>
                            <path d="M111.842712,39.1364972 C110.737708,38.7481539 109.507708,39.041011 108.696271,39.8856497 C108.577118,38.4797591 107.491062,37.3486669 106.09117,37.1725215 C104.691277,36.9963761 103.358866,37.8231578 102.895141,39.1557062 C102.249718,40.9920904 103.133333,42.8668927 104.089944,44.3959322 C104.516384,45.0759322 104.965876,45.7367232 105.426893,46.3936723 C105.488362,46.4781921 106.056949,47.3041808 106.056949,47.3041808 C106.056949,47.3041808 107.055819,47.0314124 107.155706,47.000678 C107.924068,46.7816949 108.692429,46.5473446 109.460791,46.2861017 C111.166554,45.6944633 113.033672,44.7916384 113.68678,42.9552542 C113.950268,42.20438 113.903865,41.3794851 113.557828,40.6628985 C113.21179,39.9463119 112.594612,39.3970426 111.842712,39.1364972 L111.842712,39.1364972 Z" id="Path" fill="#263238"></path>
                            <path d="M7.8680226,67.8309605 C6.73616941,68.1302159 5.88323908,69.0627331 5.68587571,70.2167232 C4.7961046,69.123635 3.26362667,68.8006767 2.00839977,69.4417225 C0.753172876,70.0827683 0.11635223,71.5135898 0.480225989,72.8752542 C0.979661017,74.7577401 2.78531073,75.8103955 4.4180791,76.5364972 C5.15186441,76.859209 5.89717514,77.1550282 6.64632768,77.4354802 L7.67977401,77.819661 C7.67977401,77.819661 8.3520904,77.0320904 8.41740113,76.9514124 C8.93220339,76.3367232 9.43548023,75.7105085 9.91186441,75.0689266 C10.9875706,73.620565 12.0248588,71.8264407 11.5254237,69.9439548 C11.0961033,68.3526876 9.46100247,67.408039 7.8680226,67.8309605 L7.8680226,67.8309605 Z" id="Path" fill="#263238"></path>
                            <path d="M18.3446328,31.7179661 C17.647275,31.4705827 16.8696568,31.6555866 16.3584181,32.1905085 C16.2834685,31.3030769 15.5980576,30.5889705 14.7144441,30.4777075 C13.8308307,30.3664445 12.9897845,30.8883423 12.6971751,31.7294915 C12.2861017,32.8820339 12.8470056,34.0691525 13.4655367,35.0372881 C13.7344633,35.4637288 14.0187571,35.8824859 14.3107345,36.2974011 L14.6949153,36.8698305 L15.3902825,36.6815819 C15.8743503,36.5432768 16.3584181,36.3934463 16.8386441,36.2282486 C17.9143503,35.8440678 19.0899435,35.2870056 19.5010169,34.1267797 C19.8464023,33.142303 19.3288252,32.0641606 18.3446328,31.7179661 L18.3446328,31.7179661 Z" id="Path" fill="#263238"></path>
                            <path d="M34.7376271,79.3563842 C34.0390401,79.1093674 33.2605371,79.2942243 32.7475706,79.8289266 C32.672621,78.941495 31.9872102,78.2273885 31.1035967,78.1161256 C30.2199832,78.0048626 29.378937,78.5267604 29.0863277,79.3679096 C28.679096,80.520452 29.2361582,81.7075706 29.8546893,82.6757062 C30.119774,83.1021469 30.4079096,83.520904 30.699887,83.9358192 L31.0840678,84.5082486 L31.7755932,84.32 C32.2635028,84.1816949 32.7475706,84.0357062 33.2239548,83.8666667 C34.299661,83.4824859 35.479096,82.9254237 35.8901695,81.7651977 C36.2359167,80.7818191 35.7202902,79.7041598 34.7376271,79.3563842 L34.7376271,79.3563842 Z" id="Path" fill="#263238"></path>
                        </g>
                        <g id="freepik--Character--inject-165" transform="translate(14.598870, 0.000000)">
                            <path d="M37.3462147,104.816045 C37.3462147,104.816045 32.9972881,109.341695 32.5554802,111.56226 C32.1136723,113.782825 33.1740113,115.734463 34.9527684,115.200452 C36.7315254,114.666441 38.3258757,109.164972 38.7676836,108.189153 C39.2094915,107.213333 39.7435028,106.145311 39.7435028,106.145311 C39.7435028,106.145311 38.4180791,104.370395 37.3462147,104.816045 Z" id="Path" stroke="#263238" stroke-width="0.5" fill="#ADC7F7" fill-rule="nonzero" stroke-linecap="round" stroke-linejoin="round"></path>
                            <path d="M32.5170621,111.79661 C32.1905085,113.913446 33.239322,115.711412 34.9527684,115.19661 C35.5674576,115.012203 36.1629379,114.228475 36.6931073,113.244972 C35.540565,111.362486 33.6734463,111.485424 32.5170621,111.79661 Z" id="Path" stroke="#263238" stroke-width="0.5" fill="#FFFFFF" fill-rule="nonzero" stroke-linecap="round" stroke-linejoin="round"></path>
                            <path d="M37.3077966,111.981017 C36.339661,113.310282 35.0910734,114.739435 34.1536723,114.489718 C33.2162712,114.24 32.720678,112.480452 32.5516384,111.573785 C32.1136723,113.786667 33.1778531,115.730621 34.9527684,115.200452 C35.8171751,114.943051 36.639322,113.502373 37.3077966,111.981017 Z" id="Path" stroke="#263238" stroke-width="0.5" fill="#FFFFFF" fill-rule="nonzero" stroke-linecap="round" stroke-linejoin="round"></path>
                            <path d="M38.2336723,107.301695 C38.2336723,107.301695 36.2820339,106.233672 36.1936723,106.59096 C36.1053107,106.948249 38.0569492,107.920226 38.3258757,107.920226 C38.5948023,107.920226 38.7676836,107.831864 38.2336723,107.301695 Z" id="Path" stroke="#263238" stroke-width="0.5" fill="#FFFFFF" fill-rule="nonzero" stroke-linecap="round" stroke-linejoin="round"></path>
                            <path d="M37.7918644,107.920226 C37.7918644,107.920226 35.840226,106.856045 35.7518644,107.213333 C35.6635028,107.570621 37.6151412,108.542599 37.880226,108.542599 C38.1453107,108.542599 38.3258757,108.454237 37.7918644,107.920226 Z" id="Path" stroke="#263238" stroke-width="0.5" fill="#FFFFFF" fill-rule="nonzero" stroke-linecap="round" stroke-linejoin="round"></path>
                            <path d="M37.3462147,108.542599 C37.3462147,108.542599 35.3945763,107.478418 35.3062147,107.831864 C35.2178531,108.185311 37.1694915,109.164972 37.4384181,109.164972 C37.7073446,109.164972 37.880226,109.07661 37.3462147,108.542599 Z" id="Path" stroke="#263238" stroke-width="0.5" fill="#FFFFFF" fill-rule="nonzero" stroke-linecap="round" stroke-linejoin="round"></path>
                            <path d="M36.9044068,109.164972 C36.9044068,109.164972 34.9527684,108.100791 34.860565,108.454237 C34.7683616,108.807684 36.7276836,109.787345 36.9927684,109.787345 C37.2578531,109.787345 37.4384181,109.698983 36.9044068,109.164972 Z" id="Path" stroke="#263238" stroke-width="0.5" fill="#FFFFFF" fill-rule="nonzero" stroke-linecap="round" stroke-linejoin="round"></path>
                            <path d="M70.4587571,101.884746 C70.4587571,101.884746 68.1536723,103.659661 67.619661,104.904407 C67.0856497,106.149153 68.1498305,106.502599 69.5712994,106.767684 C70.9927684,107.032768 72.3220339,108.542599 74.2736723,109.072768 C76.2253107,109.602938 78.7148023,109.426215 77.9157062,108.185311 C77.1166102,106.944407 74.5425989,105.342373 74.0969492,104.631638 C73.8278855,104.206523 73.5878657,103.763705 73.3785311,103.306215 L70.4587571,101.884746 Z" id="Path" stroke="#263238" stroke-width="0.5" fill="#ADC7F7" fill-rule="nonzero" stroke-linecap="round" stroke-linejoin="round"></path>
                            <path d="M77.9157062,108.189153 C77.625984,107.781102 77.2865738,107.410719 76.9053107,107.086554 C75.7463088,107.319737 74.7353896,108.021958 74.1123164,109.026667 L74.2736723,109.07661 C76.2291525,109.60678 78.7148023,109.430056 77.9157062,108.189153 Z" id="Path" stroke="#263238" stroke-width="0.5" fill="#FFFFFF" fill-rule="nonzero" stroke-linecap="round" stroke-linejoin="round"></path>
                            <path d="M74.0085876,104.282034 C74.0085876,104.282034 71.7035028,104.727684 72.1453107,105.08113 C72.5871186,105.434576 74.4542373,104.727684 74.0085876,104.282034 Z" id="Path" stroke="#263238" stroke-width="0.5" fill="#FFFFFF" fill-rule="nonzero" stroke-linecap="round" stroke-linejoin="round"></path>
                            <path d="M74.719322,104.727684 C74.719322,104.727684 72.4142373,105.169492 72.8560452,105.52678 C73.2978531,105.884068 75.1649718,105.169492 74.719322,104.727684 Z" id="Path" stroke="#263238" stroke-width="0.5" fill="#FFFFFF" fill-rule="nonzero" stroke-linecap="round" stroke-linejoin="round"></path>
                            <path d="M75.0727684,105.169492 C75.0727684,105.169492 72.7676836,105.615141 73.2094915,105.968588 C73.6512994,106.322034 75.5184181,105.615141 75.0727684,105.169492 Z" id="Path" stroke="#263238" stroke-width="0.5" fill="#FFFFFF" fill-rule="nonzero" stroke-linecap="round" stroke-linejoin="round"></path>
                            <path d="M75.7835028,105.791864 C75.7835028,105.791864 73.4784181,106.233672 73.920226,106.59096 C74.3620339,106.948249 76.2291525,106.233672 75.7835028,105.791864 Z" id="Path" stroke="#263238" stroke-width="0.5" fill="#FFFFFF" fill-rule="nonzero" stroke-linecap="round" stroke-linejoin="round"></path>
                            <path d="M78.0540113,108.542599 C76.3251977,108.999774 74.7308475,108.634802 73.2094915,107.831864 C71.8416146,107.072702 70.4171984,106.420219 68.9489266,105.880226 C68.4451495,105.709148 67.9659657,105.472785 67.5236158,105.177175 C67.2585311,106.199096 68.2612429,106.521808 69.5712994,106.767684 C70.9927684,107.032768 72.3220339,108.542599 74.2736723,109.072768 C76.0255367,109.552994 78.1923164,109.456949 78.0540113,108.542599 Z" id="Path" stroke="#263238" stroke-width="0.5" fill="#FFFFFF" fill-rule="nonzero" stroke-linecap="round" stroke-linejoin="round"></path>
                            <path d="M54.0350282,64.7536723 C54.0350282,64.7536723 50.8424859,79.160452 50.220113,82.6219209 C49.5977401,86.0833898 49.3326554,88.2155932 49.3326554,88.2155932 C49.3326554,88.2155932 47.0275706,89.9021469 44.7224859,93.6287006 C42.4174011,97.3552542 37.3538983,104.816045 37.3538983,104.816045 C37.3538983,104.816045 37.1771751,106.145311 38.7753672,106.59096 C38.7753672,106.59096 39.5744633,106.944407 40.020113,106.59096 C40.4657627,106.237514 55.640904,92.2110734 57.4158192,89.279774 C59.1907345,86.3484746 62.8327684,76.140791 62.8327684,76.140791 L65.1378531,75.6989831 L79.8711864,89.3681356 L69.9285876,102.046102 C69.9285876,102.046102 69.5751412,102.756836 70.5509605,103.379209 C71.5267797,104.001582 73.0366102,103.732655 73.8357062,103.379209 C74.6348023,103.025763 88.6612429,89.2644068 88.7496045,88.2885876 C88.8379661,87.3127684 88.1272316,86.1563842 87.9505085,85.8029379 C87.7737853,85.4494915 73.6589831,66.5938983 73.6589831,66.5938983 L72.859887,64.5538983 C72.859887,64.5538983 63.539661,65.6180791 59.3674576,64.8189831 C55.1952542,64.019887 54.3923164,63.4244068 54.0350282,64.7536723 Z" id="Path" stroke="#263238" stroke-width="0.5" fill="#FFFFFF" fill-rule="nonzero" stroke-linecap="round" stroke-linejoin="round"></path>
                            <line x1="65.1340113" y1="75.6989831" x2="70.1936723" y2="74.1891525" id="Path" stroke="#263238" stroke-width="0.5" stroke-linecap="round" stroke-linejoin="round"></line>
                            <line x1="65.6641808" y1="75.9640678" x2="72.5871186" y2="75.1649718" id="Path" stroke="#263238" stroke-width="0.5" stroke-linecap="round" stroke-linejoin="round"></line>
                            <line x1="79.8673446" y1="89.3681356" x2="82.8870056" y2="91.8537853" id="Path" stroke="#263238" stroke-width="0.5" stroke-linecap="round" stroke-linejoin="round"></line>
                            <path d="M66.5016949,69.4176271 L63.4589831,70.4318644 C63.4589831,70.4318644 68.2420339,70.2858757 68.3880226,70.8659887 C68.5340113,71.4461017 65.4874576,73.7665537 65.4874576,73.7665537" id="Path" stroke="#263238" stroke-width="0.5" stroke-linecap="round" stroke-linejoin="round"></path>
                            <path d="M55.6293785,67.5312994 C55.6293785,67.5312994 57.2429379,70.3050847 53.4549153,71.880226" id="Path" stroke="#263238" stroke-width="0.5" stroke-linecap="round" stroke-linejoin="round"></path>
                            <path d="M74.7731073,35.4829379 C74.7731073,35.4829379 61.9376271,35.1948023 61.3267797,35.3715254 C60.7159322,35.5482486 53.6047458,44.4266667 52.8056497,45.2257627 C52.0065537,46.0248588 49.8743503,47.5308475 49.6976271,48.6833898 C49.520904,49.8359322 51.119096,53.6546893 52.8940113,53.6546893 C54.6689266,53.6546893 57.8653107,50.1048588 57.8653107,50.1048588 C57.8653107,50.1048588 53.6047458,64.8381921 53.7814689,65.4720904 C53.9581921,66.1059887 56.9778531,67.5120904 63.7240678,68.3111864 C70.4702825,69.1102825 73.3285876,66.2711864 73.4899435,65.3837288 C73.6512994,64.4962712 73.3093785,62.9864407 73.3093785,62.9864407 L75.6144633,58.9025989 C75.6144633,58.9025989 79.6983051,61.9491525 81.5615819,60.6160452 C83.4248588,59.2829379 83.4248588,55.199096 84.3123164,53.9581921 C85.199774,52.7172881 87.3319774,46.059435 86.6174011,45.1719774 C85.9028249,44.2845198 74.7731073,35.4829379 74.7731073,35.4829379 Z" id="Path" stroke="#263238" stroke-width="0.5" fill="#ADC7F7" fill-rule="nonzero" stroke-linecap="round" stroke-linejoin="round"></path>
                            <path d="M81.7306215,45.0720904 C81.7306215,45.0720904 79.2449718,43.2702825 78.8915254,44.0693785 C78.5380791,44.8684746 76.2291525,49.3096045 74.5310734,51.1728814 C72.8329944,53.0361582 71.9570621,54.8110734 73.0212429,56.2325424 C73.7851571,57.2063744 74.6477507,58.0985794 75.5952542,58.8949153" id="Path" stroke="#263238" stroke-width="0.5" stroke-linecap="round" stroke-linejoin="round"></path>
                            <line x1="57.8537853" y1="50.1087006" x2="61.0501695" y2="39.4553672" id="Path" stroke="#263238" stroke-width="0.5" stroke-linecap="round" stroke-linejoin="round"></line>
                            <path d="M72.2259887,35.9938983 C72.2259887,35.9938983 67.519774,35.459887 65.479774,33.419887 C63.439774,31.379887 62.3717514,29.3360452 58.8219209,28.8097175 C56.7030407,28.4893317 54.5480328,28.4893317 52.4291525,28.8097175 L53.3166102,33.419887 C53.3166102,33.419887 57.5810169,31.8216949 59.7093785,33.0625989 C61.8377401,34.3035028 62.9057627,37.4115254 65.8332203,38.2106215 C68.760678,39.0097175 72.4910734,38.8329944 72.4910734,38.8329944 L72.2259887,35.9938983 Z" id="Path" stroke="#263238" stroke-width="0.5" fill="#263238" fill-rule="nonzero" stroke-linecap="round" stroke-linejoin="round"></path>
                            <path d="M76.140791,36.7929944 C76.9751139,37.5124086 77.5646068,38.4738595 77.8273446,39.5437288 C78.180791,41.2302825 76.5825989,43.2702825 75.3416949,44.4266667 C74.100791,45.5830508 72.8560452,46.1132203 69.659661,46.5550282 C66.4632768,46.9968362 63.6241808,43.7159322 61.4919774,43.3624859 C59.359774,43.0090395 55.0108475,45.4024859 55.0108475,45.4024859 L55.9021469,41.5837288 C57.8287647,40.4529644 60.0733284,39.9859656 62.2910734,40.2544633 C66.0214689,40.6962712 68.5071186,43.3624859 69.9247458,43.7120904 C71.3423729,44.0616949 73.920226,43.2664407 74.4542373,41.2264407 C74.9882486,39.1864407 74.2736723,37.319322 75.1649718,36.700791 C76.0562712,36.0822599 76.140791,36.7929944 76.140791,36.7929944 Z" id="Path" stroke="#263238" stroke-width="0.5" fill="#263238" fill-rule="nonzero" stroke-linecap="round" stroke-linejoin="round"></path>
                            <path d="M75.6836158,20.280904 C75.6836158,20.280904 73.1096045,20.9916384 72.0454237,22.5859887 C70.9812429,24.180339 67.8732203,33.5044068 67.9615819,34.3035028 C68.0499435,35.1025989 72.0454237,34.3035028 72.0454237,34.3035028 C72.0454237,34.3035028 69.2946893,40.0662147 69.2946893,41.0497175 C69.2946893,42.0332203 70.5355932,42.559548 72.1337853,42.2022599 C73.7319774,41.8449718 79.1758192,32.4748023 79.1758192,32.4748023 C79.1758192,32.4748023 80.7893785,34.3496045 81.8074576,33.7080226 C82.96,32.9703955 82.6065537,31.4874576 81.719096,31.4874576 C80.8316384,31.4874576 84.2047458,27.8492655 83.0522034,25.4519774 C81.899661,23.0546893 76.759322,19.4818079 75.6836158,20.280904 Z" id="Path" stroke="#263238" stroke-width="0.5" fill="#FFFFFF" fill-rule="nonzero" stroke-linecap="round" stroke-linejoin="round"></path>
                            <path d="M74.719322,17.4418079 C74.719322,17.4418079 69.7480226,17.4418079 69.4829379,19.839096 C69.2178531,22.2363842 71.7880226,23.2967232 74.6309605,22.8549153 C77.4738983,22.4131073 80.0440678,22.5898305 80.3936723,23.0316384 C80.7432768,23.4734463 76.9360452,24.3647458 77.819661,24.9871186 C78.336816,25.3543889 78.96071,25.5407468 79.5945763,25.5172881 C79.5945763,25.5172881 78.3498305,25.8745763 78.4420339,26.7620339 C78.5342373,27.6494915 79.3064407,31.5719774 79.9249718,31.5719774 C80.5435028,31.5719774 81.7267797,31.4912994 81.7267797,31.4912994 C82.8489883,30.9244566 83.8693925,30.1753812 84.7464407,29.2745763 C86.079548,27.8531073 86.4329944,24.8334463 84.7464407,23.0585311 C83.059887,21.2836158 81.7267797,19.5701695 80.3975141,18.1525424 C79.0682486,16.7349153 77.8235028,15.2212429 75.1611299,14.8677966 C72.4987571,14.5143503 71.0734463,15.5746893 74.719322,17.4418079 Z" id="Path" stroke="#263238" stroke-width="0.5" fill="#263238" fill-rule="nonzero" stroke-linecap="round" stroke-linejoin="round"></path>
                            <path d="M85.0845198,26.6045198 C85.1754329,27.1245294 85.1935349,27.6546612 85.1383051,28.179661" id="Path" stroke="#FFFFFF" stroke-width="0.5" stroke-linecap="round" stroke-linejoin="round"></path>
                            <path d="M75.960226,20.2424859 C75.960226,20.2424859 70.5125424,20.7726554 72.5717514,21.8137853 C74.6309605,22.8549153 77.7812429,20.9071186 81.7498305,22.4745763 C83.1012629,22.9657914 84.1834163,24.00332 84.7310734,25.3328814" id="Path" stroke="#FFFFFF" stroke-width="0.5" stroke-linecap="round" stroke-linejoin="round"></path>
                            <path d="M79.2680226,24.3762712 C79.2680226,24.3762712 82.9907345,26.1972881 83.4940113,28.840452" id="Path" stroke="#FFFFFF" stroke-width="0.5" stroke-linecap="round" stroke-linejoin="round"></path>
                            <path d="M72.0569492,34.3073446 C72.0569492,34.3073446 76.3175141,34.0384181 77.4700565,33.0625989" id="Path" stroke="#263238" stroke-width="0.5" stroke-linecap="round" stroke-linejoin="round"></path>
                            <path d="M67.9731073,24.7181921 C67.9731073,24.7181921 74.4542373,24.6298305 78.0924294,25.4289266 C78.0924294,25.4289266 77.4546893,27.5303955 76.3905085,28.2411299 C75.3263277,28.9518644 73.4784181,28.4485876 73.0327684,28.0912994 C72.5871186,27.7340113 72.2336723,25.6056497 72.2336723,25.6056497 L71.5229379,25.6056497 L71.1694915,26.6736723 C71.1694915,26.6736723 70.900565,28.0912994 69.9247458,28.0912994 C68.9489266,28.0912994 67.9731073,27.9145763 67.9731073,24.7181921 Z" id="Path" stroke="#263238" stroke-width="0.5" fill="#ADC7F7" fill-rule="nonzero" stroke-linecap="round" stroke-linejoin="round"></path>
                            <path d="M71.3538983,26.1242938 C70.2793923,25.7966114 69.1327638,25.7886024 68.0537853,26.1012429 C68.3073446,27.9683616 69.1141243,28.0951412 69.9247458,28.0951412 C70.900565,28.0951412 71.1694915,26.6775141 71.1694915,26.6775141 L71.3538983,26.1242938 Z" id="Path" stroke="#263238" stroke-width="0.5" fill="#263238" fill-rule="nonzero" stroke-linecap="round" stroke-linejoin="round"></path>
                            <path d="M77.4470056,26.9464407 C75.8449718,25.4673446 74.2352542,26.9118644 72.4180791,26.5123164 C72.5640678,27.1385311 72.7830508,27.8953672 73.0327684,28.0912994 C73.4784181,28.4485876 75.3378531,28.9518644 76.3905085,28.2411299 C76.8357664,27.894724 77.1969371,27.4521258 77.4470056,26.9464407 Z" id="Path" stroke="#263238" stroke-width="0.5" fill="#263238" fill-rule="nonzero" stroke-linecap="round" stroke-linejoin="round"></path>
                            <polygon id="Path" stroke="#263238" stroke-width="0.5" fill="#ADC7F7" fill-rule="nonzero" stroke-linecap="round" stroke-linejoin="round" points="78.0924294 25.4289266 82.1224859 31.6449718 81.7306215 31.4912994 77.719774 26.500791"></polygon>
                            <path d="M70.7238418,30.7575141 C70.7238418,30.7575141 73.8318644,31.6449718 74.719322,29.7778531" id="Path" stroke="#263238" stroke-width="0.5" stroke-linecap="round" stroke-linejoin="round"></path>
                            <line x1="74.1853107" y1="29.4244068" x2="75.5184181" y2="29.9584181" id="Path" stroke="#263238" stroke-width="0.5" stroke-linecap="round" stroke-linejoin="round"></line>
                            <path d="M71.699661,26.6736723 C71.699661,26.6736723 68.9489266,27.0271186 68.9489266,27.4727684 C68.9489266,27.9184181 70.7238418,29.159322 70.7238418,29.159322" id="Path" stroke="#263238" stroke-width="0.5" fill="#FFFFFF" fill-rule="nonzero" stroke-linecap="round" stroke-linejoin="round"></path>
                            <path d="M71.3462147,35.8171751 C70.9681069,35.7951619 70.6033165,35.9603229 70.3703955,36.2589831 C69.8363842,36.7929944 68.6146893,38.8944633 68.299661,39.7166102 C67.7310734,41.2264407 69.7288136,43.9425989 71.7880226,42.9936723 C72.8099435,42.5326554 73.0635028,42.9360452 74.219887,41.5145763 C75.3762712,40.0931073 75.6067797,38.9981921 75.6067797,38.5563842 C75.6067797,38.1145763 76.4058757,38.1107345 74.719322,38.9098305 C73.0327684,39.7089266 69.659661,38.3911864 71.3462147,35.8171751 Z" id="Path" stroke="#263238" stroke-width="0.5" fill="#263238" fill-rule="nonzero" stroke-linecap="round" stroke-linejoin="round"></path>
                            <path d="M15.3672316,6.12384181 C14.2813001,6.58196958 13.5653753,7.6348002 13.5385311,8.81310734 C12.5048935,7.85655698 10.9437552,7.75132443 9.7910942,8.56050172 C8.6384332,9.369679 8.20700856,10.8737067 8.75548023,12.1708475 C9.52384181,13.9649718 11.4447458,14.760226 13.1620339,15.2442938 C13.9303955,15.459435 14.6987571,15.6284746 15.4940113,15.8244068 C15.5938983,15.8244068 16.5735593,16.0741243 16.5735593,16.0741243 C16.5735593,16.0741243 17.1267797,15.2020339 17.1844068,15.1136723 C17.6070056,14.4336723 18.0180791,13.7421469 18.4022599,13.039096 C19.2666667,11.4562712 20.0388701,9.53152542 19.2858757,7.73740113 C18.6493441,6.20972535 16.8949074,5.48731023 15.3672316,6.12384181 L15.3672316,6.12384181 Z" id="Path" fill="#263238" fill-rule="nonzero"></path>
                            <path d="M32.4748023,13.4463277 C31.3753354,13.0414724 30.1407121,13.3163338 29.3168362,14.1493785 C29.2110996,12.7470059 28.1420349,11.6080417 26.7491582,11.4138158 C25.3562815,11.21959 24.0164169,12.0226478 23.5310734,13.3425989 C22.8587571,15.1674576 23.7154802,17.0537853 24.6528814,18.5981921 C25.0677966,19.2820339 25.5096045,19.9505085 25.9629379,20.6112994 L26.5814689,21.5333333 C26.5814689,21.5333333 27.5841808,21.2720904 27.6840678,21.2451977 C28.4524294,21.0338983 29.220791,20.8110734 29.9891525,20.5613559 C31.7025989,19.9927684 33.5812429,19.1129944 34.2535593,17.2881356 C34.5284391,16.5428738 34.4953548,15.7188468 34.1616124,14.9980208 C33.82787,14.2771949 33.2209235,13.7188661 32.4748023,13.4463277 L32.4748023,13.4463277 Z" id="Path" fill="#263238" fill-rule="nonzero"></path>
                            <path d="M30.7344633,11.9096045 C30.8162537,11.9021806 30.8985485,11.9021806 30.980339,11.9096045 C31.5044166,11.9096045 31.9292655,11.4847556 31.9292655,10.960678 C31.9292655,10.4366003 31.5044166,10.0117514 30.980339,10.0117514 L30.980339,10.0117514 L30.980339,10.0117514 L27.3844068,10.0117514 C27.3844068,10.0117514 27.6072316,8.71322034 27.6072316,8.26757062 C27.6072316,7.8219209 27.8300565,7.15728814 27.2230508,6.30440678 C26.6160452,5.45152542 25.2483616,5.76271186 25.2483616,5.76271186 L25.459661,7.52225989 C25.4905806,7.80051506 25.437034,8.08163482 25.3059887,8.32903955 L23.6924294,11.360226 L22.9509605,11.9902825 L22.7281356,15.7360452 C23.2083616,16.8885876 24.7297175,17.2727684 24.7297175,17.2727684 L29.5819209,17.2727684 C30.1222343,17.2856947 30.5717396,16.8602088 30.5884746,16.32 C30.5835687,15.9937724 30.4107449,15.6931462 30.1312994,15.5247458 C30.1926283,15.5306133 30.2543773,15.5306133 30.3157062,15.5247458 C30.8553799,15.5398253 31.305533,15.1154443 31.3222599,14.5758192 C31.3192364,14.2530525 31.1510331,13.9543466 30.8766102,13.7844068 C31.3476593,13.7220642 31.7030874,13.3258759 31.7141243,12.8508475 C31.6934814,12.3248553 31.2608602,11.9091996 30.7344633,11.9096045 L30.7344633,11.9096045 Z" id="Path" fill="#FFFFFF" fill-rule="nonzero"></path>
                            <path d="M29.5819209,17.3880226 L24.6951412,17.3880226 C24.6298305,17.3880226 23.0969492,17.0038418 22.5898305,15.7821469 C22.5864457,15.7605082 22.5864457,15.7384748 22.5898305,15.7168362 L22.8126554,11.9710734 C22.8162268,11.9307641 22.8355539,11.8934904 22.8664407,11.8673446 L23.5848588,11.2526554 L25.1868927,8.24836158 C25.3054124,8.02872703 25.3524195,7.77757494 25.3213559,7.5299435 L25.1023729,5.76271186 C25.0942744,5.68871893 25.1417232,5.61999991 25.2137853,5.60135593 C25.2752542,5.60135593 26.6928814,5.25559322 27.3344633,6.18146893 C27.7038092,6.69415724 27.8531706,7.33309219 27.7493785,7.95638418 C27.7493785,8.05627119 27.7493785,8.14847458 27.7493785,8.22915254 C27.7139296,8.76384805 27.6485161,9.29613422 27.5534463,9.82350282 L30.9726554,9.82350282 C30.9890727,9.81958463 31.0061816,9.81958463 31.0225989,9.82350282 C31.6279902,9.82947677 32.1202224,10.3132221 32.1367232,10.9184181 C32.1301239,11.377882 31.8392674,11.7850812 31.4067797,11.940339 C31.7054015,12.1388312 31.8854867,12.4730692 31.8870056,12.8316384 C31.8828844,13.2702376 31.6165209,13.6637292 31.2108475,13.8305085 C31.3961325,14.026841 31.4992324,14.2866529 31.4989831,14.5566102 C31.4875121,15.1021682 31.0825876,15.5591311 30.5423729,15.6361582 C30.6846637,15.8212006 30.7616667,16.0481569 30.7613559,16.2815819 C30.7554429,16.5859794 30.6268944,16.8750989 30.4048509,17.0834003 C30.1828074,17.2917016 29.8860754,17.4015423 29.5819209,17.3880226 Z M24.7374011,17.0883616 L29.5819209,17.0883616 C30.0395091,17.1013233 30.4219512,16.742891 30.4386441,16.2854237 C30.4351206,16.0110675 30.2897437,15.7581118 30.0544633,15.6169492 C29.9951894,15.5796472 29.9696634,15.5062601 29.9929944,15.440226 C30.0178508,15.3726941 30.0872067,15.3323709 30.1581921,15.3441808 C30.2118448,15.3495217 30.2658953,15.3495217 30.319548,15.3441808 C30.5396734,15.3524848 30.7540681,15.2729256 30.9154893,15.1230345 C31.0769105,14.9731434 31.172111,14.7652213 31.180113,14.5450847 C31.1752692,14.2721038 31.030063,14.020897 30.7959322,13.880452 C30.7429,13.8469766 30.7155303,13.7846344 30.7267797,13.7229379 C30.7420357,13.663986 30.789905,13.6191085 30.8497175,13.6076836 C31.240869,13.5563689 31.5397259,13.2332803 31.560452,12.839322 C31.5437591,12.3818547 31.161317,12.0234224 30.7037288,12.0363842 L30.7037288,12.0363842 C30.6239948,12.0322899 30.5614769,11.9663927 30.5615819,11.8865537 C30.5615819,11.7290395 30.6960452,11.7290395 30.9457627,11.7290395 C31.2451794,11.7497879 31.5311705,11.6018144 31.6871918,11.3454197 C31.843213,11.089025 31.843213,10.7670202 31.6871918,10.5106255 C31.5311705,10.2542308 31.2451794,10.1062573 30.9457627,10.1270056 L30.9457627,10.1270056 L30.8958192,10.1270056 L27.3498305,10.1270056 C27.3064294,10.1270259 27.2653971,10.1072172 27.2384181,10.0732203 C27.2087429,10.0412032 27.1959257,9.99705504 27.2038418,9.95412429 C27.3072927,9.38456996 27.3816641,8.81011565 27.4266667,8.23299435 C27.4266667,8.14079096 27.4266667,8.04090395 27.4266667,7.93333333 C27.5212436,7.37991894 27.3912711,6.81163509 27.0655367,6.35435028 C26.639096,5.73966102 25.7247458,5.81649718 25.3866667,5.87028249 L25.5787571,7.49536723 C25.6133873,7.80270831 25.5544731,8.11334704 25.4097175,8.38666667 L23.819209,11.4101695 C23.8112594,11.4279192 23.7994466,11.4436697 23.7846328,11.4562712 L23.0892655,12.0440678 L22.8741243,15.6899435 C23.3120904,16.6734463 24.5875706,17.0461017 24.7489266,17.0883616 L24.7374011,17.0883616 Z" id="Shape" fill="#263238" fill-rule="nonzero"></path>
                            <rect id="Rectangle" fill="#263238" fill-rule="nonzero" x="19.4779661" y="10.599548" width="3.91864407" height="7.23028249" rx="0.822146893"></rect>
                            <path d="M45.8865537,21.5525424 L45.6867797,19.6316384 L45.6867797,19.6316384 C45.6885771,19.6240599 45.6885771,19.6161661 45.6867797,19.6085876 L45.3871186,16.7118644 L45.4178531,16.7118644 C45.4278432,16.715095 45.4385974,16.715095 45.4485876,16.7118644 C45.5546762,16.6842814 45.6183175,16.5759191 45.5907345,16.4698305 C45.5631514,16.3637419 45.4547892,16.3001006 45.3487006,16.3276836 L45.3487006,16.3276836 L43.7966102,1.34463277 C43.7881313,1.27719354 43.7453066,1.21896656 43.6834557,1.19078134 C43.6216048,1.16259612 43.5495651,1.16847983 43.4931073,1.20632768 C42.5030234,1.88246374 41.477038,2.50446739 40.419661,3.06960452 L40.419661,3.06960452 L40.2506215,3.16180791 L40.0662147,3.26169492 L40.0662147,3.26169492 C38.6285549,4.03439069 37.117714,4.66240635 35.5559322,5.13649718 L35.5559322,5.13649718 L35.3215819,5.20180791 C34.2890586,5.50401318 33.216122,5.64525725 32.140565,5.62056497 C31.8024859,5.62056497 31.4490395,5.57830508 31.0955932,5.54757062 L30.8036158,5.52067797 C29.8700565,5.43615819 28.8827119,5.30937853 27.88,5.18259887 L27.4574011,5.12881356 L27.4574011,5.12881356 L27.0924294,5.08655367 C26.0628249,4.9520904 24.9986441,4.82531073 23.899887,4.73694915 L23.899887,4.73694915 L23.7077966,4.73694915 L23.7077966,4.73694915 L23.5157062,4.73694915 L23.5157062,4.73694915 C22.1559267,4.62854471 20.7906907,4.60544861 19.4280226,4.66779661 L19.1706215,4.66779661 L19.0438418,4.66779661 L19.0438418,4.66779661 C17.552069,4.76014739 16.0719023,4.9890524 14.6219209,5.35163842 L14.6219209,5.35163842 L14.4912994,5.38621469 L14.4375141,5.38621469 L14.2953672,5.42463277 L14.2492655,5.42463277 L14.2492655,5.42463277 L13.9496045,5.50531073 C12.6473412,5.88221836 11.3840535,6.38264498 10.1769492,6.99977401 L10.1769492,6.99977401 L10.0770621,7.04971751 L10.0079096,7.08429379 L9.94259887,7.11887006 L9.82350282,7.18033898 L9.82350282,7.18033898 C8.54730416,7.85188928 7.31886199,8.61051971 6.14689266,9.45084746 L6.14689266,9.45084746 L5.99322034,9.56225989 L5.8280226,9.68135593 L5.8280226,9.68135593 C4.75440964,10.4596622 3.72811007,11.3012279 2.75457627,12.2015819 L2.75457627,12.2015819 L2.62779661,12.320678 L2.62779661,12.320678 L2.58169492,12.3667797 L2.47028249,12.4705085 L2.47028249,12.4705085 C1.61355687,13.2316109 0.854746615,14.0962416 0.211299435,15.0445198 L0.211299435,15.0445198 L0.211299435,15.0445198 C0.144710415,15.1509458 0.0930061754,15.2659877 0.0576271186,15.3864407 C0.055917747,15.4120242 0.055917747,15.4376933 0.0576271186,15.4632768 C0.0539788593,15.4964726 0.0539788593,15.5299681 0.0576271186,15.5631638 L0.0576271186,15.5631638 L0.0576271186,15.5631638 C0.0734669768,15.6446097 0.115248799,15.7187387 0.176723164,15.7744633 C0.343935333,15.9005671 0.547406317,15.9692891 0.756836158,15.9703955 C0.841355932,15.9703955 0.941242938,15.9703955 1.04497175,15.9703955 L1.07186441,15.9703955 C1.29468927,15.9703955 1.55977401,15.9703955 1.87096045,15.9473446 L1.87096045,15.9473446 L2.04768362,15.9473446 L2.9620339,15.8781921 L3.69966102,15.8167232 C4.9771611,15.7072356 6.25952989,15.6649175 7.54146893,15.6899435 L7.54146893,15.6899435 L7.94485876,15.7245198 L7.94485876,15.7245198 L9.60451977,15.8705085 C10.0893461,15.9565561 10.5690279,16.0694224 11.0413559,16.2085876 L11.3179661,16.2892655 C12.7262885,16.7468798 14.1022055,17.2987868 15.4363842,17.9412429 L15.4363842,17.9412429 L15.7245198,18.0757062 C16.4621469,18.4214689 17.2228249,18.7851601 18.0065537,19.1667797 C18.7902825,19.5483992 19.5676083,19.919774 20.3385311,20.280904 L20.419209,20.319322 L20.5114124,20.3615819 L20.5114124,20.3615819 C21.6946893,20.9186441 22.9048588,21.460339 24.1649718,21.959774 L24.1649718,21.959774 L24.2341243,21.9866667 L24.360904,22.040452 L24.4377401,22.0711864 L24.5376271,22.1096045 L24.5376271,22.1096045 C24.8987571,22.2517514 25.2637288,22.3938983 25.6325424,22.5245198 C26.7263769,22.9115471 27.8457513,23.2221992 28.9825989,23.4542373 L28.9825989,23.4542373 L29.0479096,23.4542373 L29.1823729,23.4849718 L29.3129944,23.5080226 L29.3667797,23.5080226 L29.3667797,23.5080226 C30.6782563,23.7590177 32.0034341,23.9322016 33.3353672,24.0266667 L33.3853107,24.0266667 L33.5312994,24.0266667 L33.619661,24.0266667 L33.719548,24.0266667 L33.719548,24.0266667 C34.4456497,24.0689266 35.1679096,24.0958192 35.8786441,24.0958192 C36.320452,24.0958192 36.7545763,24.0958192 37.1810169,24.0650847 L37.1810169,24.0650847 L37.300113,24.0650847 L37.3731073,24.0650847 C39.11623,24.0021871 40.8468436,23.7444635 42.5326554,23.2967232 L42.5326554,23.2967232 L42.6671186,23.2583051 L42.7170621,23.2583051 L42.8054237,23.2314124 L42.9053107,23.200678 L42.9053107,23.200678 C44.1923164,22.8164972 45.2103955,22.2748023 45.8366102,21.6140113 C45.8574287,21.5972952 45.8744532,21.5763419 45.8865537,21.5525424 Z M29.339887,23.1776271 L29.1132203,21.0108475 C30.3945703,21.2857144 31.6898798,21.4909119 32.9934463,21.6255367 L33.2815819,23.7116384 C31.9580202,23.6142105 30.6416614,23.4358734 29.339887,23.1776271 L29.339887,23.1776271 Z M20.5037288,19.9812429 L20.3923164,18.36 C21.7177401,18.8555932 22.9240678,19.2820339 24.0766102,19.6546893 L24.1457627,21.5755932 C22.8971751,21.0761582 21.6870056,20.5344633 20.5075706,19.9774011 L20.5037288,19.9812429 Z M8.65559322,15.4056497 C8.37898305,15.3825989 8.10621469,15.3749153 7.83344633,15.3633898 L7.83344633,15.3633898 L7.60677966,14.5527684 C8.65688648,14.4256017 9.71532138,14.3806439 10.7724294,14.4183051 L10.9222599,15.5708475 L10.7532203,15.5708475 L10.7224859,15.5708475 C10.3728814,15.5708475 10.0309605,15.540113 9.68903955,15.540113 L9.68903955,15.540113 C9.33559322,15.4748023 8.99367232,15.4325424 8.65559322,15.4056497 Z M1.65581921,15.6361582 C2.12836158,15.3211299 2.63163842,15.0137853 3.15412429,14.7179661 L3.33084746,15.2903955 L3.24632768,15.3211299 L3.21943503,15.3211299 L2.61242938,15.559322 L2.61242938,15.559322 C2.27435028,15.5977401 1.94779661,15.620791 1.65581921,15.6361582 L1.65581921,15.6361582 Z M10.1654237,9.70824859 C8.85152542,10.1654237 7.69514124,10.6225989 6.63864407,11.0912994 L6.28903955,9.84655367 C7.43710023,9.01652241 8.64117671,8.26686285 9.89265537,7.60293785 L10.1654237,9.70824859 Z M10.5880226,9.96180791 C11.5100565,9.64677966 12.5089266,9.31254237 13.6115254,8.97830508 C13.9380791,8.87457627 14.2569492,8.78237288 14.5681356,8.69785311 L14.7640678,10.799322 C13.4197392,10.8937272 12.0842551,11.0876292 10.7685876,11.379435 L10.5880226,9.96564972 L10.5880226,9.96180791 Z M27.3651977,7.84112994 L26.0781921,7.68361582 C25.3751412,7.58372881 24.7028249,7.48768362 24.0112994,7.41084746 L23.9267797,5.14418079 C25.0255367,5.23254237 26.0897175,5.35932203 27.119322,5.49378531 L27.119322,5.49378531 L27.3651977,7.84112994 Z M43.8158192,5.28248588 L43.8158192,5.28248588 L44.4958192,11.8481356 L44.4958192,11.8481356 C44.4704582,11.8430644 44.4443441,11.8430644 44.4189831,11.8481356 C43.4947021,12.1270036 42.5401665,12.2934024 41.5760452,12.3437288 L40.9037288,6.83841808 C41.9237408,6.41788064 42.8992658,5.89665684 43.8158192,5.28248588 L43.8158192,5.28248588 Z M42.2099435,20.7880226 C40.5910928,21.1842113 38.9320726,21.393039 37.2655367,21.4103955 L36.8813559,17.480226 L36.9966102,17.480226 C38.7331073,17.480226 40.3428249,17.4110734 41.7911864,17.2650847 L42.2214689,20.7841808 L42.2099435,20.7880226 Z M20.2040678,15.620791 L20.8494915,15.7360452 C21.8637288,15.9166102 22.9010169,16.120226 23.9536723,16.2777401 L24.0650847,19.2436158 C22.9125424,18.859435 21.6985311,18.440678 20.3654237,17.9335593 L20.2040678,15.620791 Z M10.3920904,11.4677966 C9.25026945,11.7370892 8.12629381,12.0771047 7.02666667,12.4858757 L6.74237288,11.4677966 C7.77966102,10.999096 8.92451977,10.5496045 10.2,10.0924294 L10.3920904,11.4677966 Z M10.4420339,11.8519774 L10.7224859,14.0264407 C9.64590592,13.9923201 8.56829667,14.0411272 7.49920904,14.1724294 L7.11502825,12.8585311 C8.20039233,12.4493414 9.31186616,12.1130756 10.4420339,11.8519774 L10.4420339,11.8519774 Z M10.8262147,11.7636158 C12.1379561,11.4708447 13.4695857,11.2756589 14.8101695,11.179661 L15.1098305,14.4067797 C13.7879124,14.2114034 12.4569382,14.0831785 11.1220339,14.0225989 L10.8262147,11.7636158 Z M32.340339,16.9270056 C31.7064407,16.880904 31.0072316,16.8232768 30.1581921,16.7425989 C29.6510734,16.6926554 29.1516384,16.6388701 28.6483616,16.5774011 L28.1527684,11.7828249 C29.3629379,11.940339 30.4885876,12.1055367 31.579661,12.259209 L31.6987571,12.259209 L32.340339,16.9270056 Z M24.0266667,7.77966102 C24.6874576,7.85265537 25.340565,7.94870056 26.0244068,8.04474576 L27.4074576,8.23683616 L27.7263277,11.3371751 C26.4623729,11.1835028 25.2867797,11.060565 24.1419209,10.9529944 L24.0266667,7.77966102 Z M23.9421469,15.8858757 C22.9176648,15.714275 21.9098305,15.5388324 20.9186441,15.359548 L20.1771751,15.2289266 L19.8928814,11.1105085 C21.1529944,11.1412429 22.4284746,11.2103955 23.7731073,11.3218079 L23.9421469,15.8858757 Z M15.1520904,10.7570621 L14.9446328,8.57491525 C16.3626705,8.17584098 17.8106135,7.8919054 19.2743503,7.72587571 L19.4779661,10.699435 C18.2985311,10.6763842 17.0960452,10.699435 15.9012429,10.7224859 C15.6515254,10.7570621 15.3979661,10.7570621 15.1520904,10.7570621 Z M15.1866667,11.1412429 C15.4287006,11.1412429 15.6707345,11.1143503 15.9166102,11.1066667 C17.1152542,11.0682486 18.3177401,11.060565 19.5048588,11.0836158 L19.7853107,15.1444068 C18.4445198,14.9062147 16.9308475,14.6449718 15.4940113,14.4451977 L15.1866667,11.1412429 Z M24.1572881,11.3371751 C25.3098305,11.4332203 26.4931073,11.5561582 27.7685876,11.7213559 L28.2641808,16.519774 C27.0616949,16.3737853 25.7977401,16.1855367 24.3263277,15.9435028 L24.1572881,11.3371751 Z M30.1274576,17.099887 C31.0149153,17.1844068 31.7410169,17.2458757 32.4018079,17.2881356 L32.939661,21.2029379 C31.6405529,21.0694088 30.3501552,20.8616112 29.0748023,20.580565 L28.6906215,16.9462147 C29.1708475,17.0307345 29.6472316,17.080678 30.1274576,17.1267797 L30.1274576,17.099887 Z M32.1059887,12.3091525 C33.519774,12.5089266 34.7952542,12.6933333 35.9938983,12.7816949 L36.439548,17.0653107 C35.2524294,17.0653107 34.0115254,17.0076836 32.739887,16.9231638 L32.1059887,12.3091525 Z M41.7335593,16.8540113 C40.2544633,17 38.6101695,17.0729944 36.8275706,17.0691525 L36.3857627,12.8124294 C36.9312994,12.8546893 37.4499435,12.8738983 37.9224859,12.8738983 C39.1211299,12.8738983 40.2275706,12.8316384 41.2302825,12.7509605 L41.7335593,16.8540113 Z M41.6221469,12.7163842 C42.6099577,12.6620268 43.5876604,12.4891876 44.5342373,12.2015819 L44.5342373,12.2015819 L44.9683616,16.3699435 L44.9491525,16.3699435 C44.0168852,16.569756 43.0741692,16.7172558 42.1254237,16.8117514 L41.6221469,12.7163842 Z M41.1918644,12.3667797 C40.2083616,12.4474576 39.1096045,12.4897175 37.9301695,12.4897175 C37.4384181,12.4897175 36.9044068,12.4666667 36.3435028,12.4244068 L35.9055367,8.23299435 C37.4852084,7.98391265 39.0317199,7.55733321 40.5157062,6.96135593 L41.1918644,12.3667797 Z M35.9516384,12.3936723 C34.7645198,12.2899435 33.4775141,12.1170621 32.0522034,11.9134463 L31.5835028,8.52881356 L32.1482486,8.52881356 C33.2782886,8.53042963 34.4069387,8.44953662 35.5251977,8.28677966 L35.9516384,12.3936723 Z M31.6526554,11.8519774 L31.6526554,11.8519774 C30.5346893,11.6944633 29.3783051,11.5254237 28.1297175,11.360226 L27.8070056,8.25988701 C28.7021469,8.36745763 29.8585311,8.48271186 31.2031638,8.52112994 L31.6526554,11.8519774 Z M23.7577401,10.9068927 C22.4092655,10.7954802 21.1337853,10.7263277 19.8659887,10.6955932 L19.6546893,7.6759322 C20.9819499,7.55671785 22.3177683,7.56958701 23.6424859,7.71435028 L23.7577401,10.9068927 Z M19.2474576,7.35706215 C17.7811327,7.52268334 16.330604,7.80662208 14.9100565,8.20610169 L14.679548,5.7319774 C16.1237943,5.36609976 17.5990485,5.13587265 19.0861017,5.04429379 L19.2474576,7.35706215 Z M6.28519774,11.2526554 C5.16172981,11.7667528 4.07680576,12.3612141 3.03887006,13.0314124 L2.93898305,12.7048588 L2.9120904,12.620339 C3.88292377,11.7273301 4.90120025,10.8873162 5.96248588,10.1039548 L6.28519774,11.2526554 Z M3.1579661,13.4079096 C4.19153641,12.7393353 5.27123317,12.1449244 6.38892655,11.6291525 L6.66937853,12.6241808 C5.54238059,13.064843 4.44516075,13.5781622 3.38463277,14.160904 L3.1579661,13.4232768 L3.1579661,13.4079096 Z M3.69581921,15.1520904 L3.49988701,14.5220339 C4.55689764,13.9401703 5.65022634,13.4268704 6.77310734,12.9853107 L7.11887006,14.2108475 C6.1094555,14.3606425 5.11901137,14.6182352 4.16451977,14.979209 L3.69581921,15.1520904 Z M11.3141243,15.6054237 L11.1642938,14.4259887 C12.3168362,14.4720904 13.6422599,14.5950282 15.140565,14.8101695 L15.2711864,16.2239548 C13.9705379,15.913764 12.6473906,15.7069419 11.3141243,15.6054237 L11.3141243,15.6054237 Z M15.540113,14.8370621 C16.980791,15.040678 18.4944633,15.2980791 19.8237288,15.5324294 L19.9774011,17.7645198 L18.7672316,17.2919774 C17.7650676,16.8960083 16.7384649,16.5649289 15.6937853,16.300791 L15.540113,14.8370621 Z M24.460791,19.3511864 L24.3493785,16.3238418 C25.8246328,16.5658757 27.0962712,16.7541243 28.3102825,16.9039548 L28.6944633,20.5037288 C27.3229379,20.219435 25.9360452,19.8429379 24.4531073,19.3703955 L24.460791,19.3511864 Z M32.8013559,17.3227119 C34.0653107,17.4033898 35.3062147,17.4494915 36.4894915,17.4571751 L36.8813559,21.4142373 C35.6937364,21.4309694 34.5060972,21.3822326 33.3238418,21.2682486 L32.8013559,17.3227119 Z M37.5344633,23.7577401 L37.3270056,21.7753672 C38.9887713,21.7573292 40.6433227,21.5537318 42.259887,21.1683616 L42.4865537,23.039322 C40.8676822,23.4713203 39.2051311,23.7187698 37.5306215,23.7769492 L37.5344633,23.7577401 Z M42.1753672,17.2266667 C43.1291179,17.1297431 44.0768855,16.9809731 45.0144633,16.7810169 L45.0144633,16.7810169 L45.2949153,19.5163842 L45.2949153,19.5163842 L45.2103955,19.5701695 C44.3992426,20.0708982 43.5172434,20.4464925 42.5941243,20.6842938 L42.1753672,17.2266667 Z M43.7774011,4.85220339 L43.7774011,4.85220339 L43.7274576,4.87141243 L43.6890395,4.9059887 C42.8034687,5.51449575 41.857161,6.02949314 40.8653107,6.44271186 L40.5041808,3.48836158 L40.5041808,3.48836158 C41.8910734,2.72 42.9744633,2.03231638 43.4546893,1.70576271 L43.7774011,4.85220339 Z M40.139209,3.69966102 L40.4964972,6.61559322 C39.0130139,7.21560392 37.4664789,7.64605615 35.8863277,7.89875706 L35.640452,5.55141243 L35.640452,5.55141243 C37.2022889,5.08730248 38.713357,4.46691508 40.1507345,3.69966102 L40.139209,3.69966102 Z M35.2524294,5.65129944 L35.2524294,5.65129944 L35.4906215,7.95638418 C34.3862413,8.11594954 33.2717798,8.19555393 32.1559322,8.19458517 L31.5374011,8.19458517 L31.2338983,5.96632768 L31.2338983,5.96632768 C31.5412429,5.98937853 31.8485876,6.01627119 32.1482486,6.02779661 C33.1942061,6.04793105 34.237465,5.91461136 35.2447458,5.6320904 L35.2524294,5.65129944 Z M30.8343503,5.9279096 L30.8343503,5.9279096 L31.1455367,8.17920904 C29.8047458,8.14079096 28.6522034,8.02169492 27.7647458,7.91028249 L27.5227119,5.53988701 L27.8531073,5.58214689 C28.8788701,5.69740113 29.8700565,5.82033898 30.8266667,5.90870056 L30.8343503,5.9279096 Z M23.5349153,5.11344633 L23.6155932,7.36858757 C22.2878427,7.23007656 20.9498372,7.21978421 19.620113,7.33785311 L19.4587571,5.03276836 C20.8212244,4.96545196 22.1866135,4.98598412 23.5464407,5.09423729 L23.5349153,5.11344633 Z M14.0571751,5.90485876 L14.2876836,5.84338983 L14.5220339,8.32519774 C14.1839548,8.41740113 13.8420339,8.51728814 13.4847458,8.62870056 C12.4282486,8.95909605 11.4332203,9.28180791 10.5265537,9.59683616 L10.2461017,7.4300565 C11.4665275,6.79104804 12.746903,6.27375059 14.0687006,5.88564972 L14.0571751,5.90485876 Z M2.59322034,12.8969492 L2.59322034,12.8969492 L2.70463277,13.2503955 C2.20135593,13.580791 1.71728814,13.9303955 1.25627119,14.2684746 L1.25627119,14.2684746 C1.60587571,13.8727684 2.05536723,13.4079096 2.59322034,12.8969492 Z M0.418757062,15.4901695 C0.426178739,15.4351735 0.443076677,15.38188 0.468700565,15.3326554 L0.852881356,15.0368362 C1.46757062,14.5758192 2.12067797,14.0917514 2.80836158,13.6345763 L3.02350282,14.3414689 C2.36655367,14.7256497 1.74033898,15.1098305 1.1640678,15.4940113 C1.08723164,15.5477966 1.01039548,15.5977401 0.941242938,15.6515254 C0.759631222,15.6640192 0.57825854,15.6240105 0.418757062,15.5362712 C0.410521788,15.5220073 0.410521788,15.5044334 0.418757062,15.4901695 Z M6.78847458,15.340339 C5.76655367,15.340339 4.81378531,15.3941243 3.97242938,15.459435 L3.97242938,15.459435 L4.29129944,15.340339 C5.23886349,14.988397 6.22165952,14.7397999 7.22259887,14.5988701 L7.43389831,15.3672316 L7.43389831,15.3672316 L6.78847458,15.340339 Z M11.5484746,16.0126554 L11.5715254,16.0126554 C12.8313734,16.1180248 14.0811491,16.3209689 15.3096045,16.619661 L15.3979661,17.5455367 L15.3979661,17.5455367 C14.1485452,16.9536025 12.8627939,16.4416116 11.5484746,16.0126554 L11.5484746,16.0126554 Z M15.8013559,17.7337853 L15.7091525,16.7272316 C16.6983591,16.9805281 17.6709196,17.2948781 18.6212429,17.6684746 L19.9697175,18.1948023 L19.9966102,18.1948023 L20.1080226,19.7814689 L20.1080226,19.7814689 C19.4549153,19.4741243 18.8133333,19.1629379 18.1871186,18.8555932 C17.3611299,18.4714124 16.5697175,18.0910734 15.8013559,17.7337853 Z M24.5414689,21.7369492 L24.4684746,19.7814689 C25.959096,20.2463277 27.3498305,20.6266667 28.7175141,20.9340113 L28.9441808,23.1046328 C27.8652097,22.878567 26.8025134,22.5808067 25.7631638,22.2133333 C25.3559322,22.0558192 24.9448588,21.8983051 24.5414689,21.7369492 L24.5414689,21.7369492 Z M33.6772881,23.7385311 L33.6772881,23.7385311 L33.3891525,21.660113 C34.4341243,21.7561582 35.459887,21.8022599 36.5010169,21.8022599 L36.9312994,21.8022599 L37.1425989,23.7961582 C35.9872869,23.8380365 34.8305688,23.8188006 33.6772881,23.7385311 Z M42.859209,22.9240678 L42.859209,22.9240678 L42.6363842,21.0684746 C43.5804605,20.8209691 44.4855451,20.4434195 45.3256497,19.9466667 L45.4870056,21.5064407 C44.7322892,22.1755538 43.8328549,22.6607749 42.859209,22.9240678 Z" id="Shape" fill="#ADC7F7" fill-rule="nonzero"></path>
                            <line x1="43.2587571" y1="0.138305085" x2="47.6614689" y2="39.3746893" id="Path" stroke="#263238" stroke-width="1.15254237" stroke-linecap="round" stroke-linejoin="round"></line>
                            <path d="M48.3568362,32.9742373 C48.3568362,32.9742373 50.6619209,32.3518644 50.9308475,33.0625989 C51.199774,33.7733333 51.019209,35.7249718 50.9308475,35.9938983 C50.8424859,36.2628249 49.7783051,36.6162712 49.7783051,36.0822599 C49.7783051,35.5482486 49.1751412,34.3073446 49.1751412,34.3073446 L48.3568362,32.9742373 Z" id="Path" stroke="#263238" stroke-width="0.5" stroke-linecap="round" stroke-linejoin="round"></path>
                            <path d="M53.5048588,54.4576271 C54.2653437,53.3326559 54.4301951,51.9077664 53.9466667,50.6388701 C53.1475706,48.4221469 49.7744633,44.6033898 48.5335593,42.3828249 C47.2926554,40.1622599 48.0879096,40.3428249 48.0879096,40.3428249 C48.0879096,40.3428249 49.240452,39.8088136 49.3326554,39.1902825 C49.4248588,38.5717514 49.7744633,34.660791 49.7744633,34.0384181 C49.7744633,33.4160452 46.7586441,32.1751412 45.5138983,31.9984181 C44.2691525,31.8216949 44.7148023,32.9742373 45.0720904,35.6366102 C45.4293785,38.2989831 45.959548,45.7559322 46.4013559,48.3337853 C46.8431638,50.9116384 47.4693785,53.6585311 49.7744633,54.9877966 C52.079548,56.3170621 53.5048588,54.4576271 53.5048588,54.4576271 Z" id="Path" stroke="#263238" stroke-width="0.5" fill="#FFFFFF" fill-rule="nonzero" stroke-linecap="round" stroke-linejoin="round"></path>
                            <path d="M44.9837288,34.2189831 C44.9837288,34.2189831 45.6022599,33.6849718 46.0479096,33.6849718 C46.4935593,33.6849718 49.5055367,34.8375141 49.5055367,34.8375141" id="Path" stroke="#263238" stroke-width="0.5" stroke-linecap="round" stroke-linejoin="round"></path>
                            <path d="M45.6022599,36.5240678 C46.0216959,36.2901515 46.4698429,36.1119259 46.9353672,35.9938983 C47.4693785,35.9055367 49.3326554,36.2589831 49.3326554,36.2589831" id="Path" stroke="#263238" stroke-width="0.5" stroke-linecap="round" stroke-linejoin="round"></path>
                            <path d="M46.6702825,37.680452 C46.9246483,37.4197003 47.283502,37.288309 47.6461017,37.3231638 C48.1943191,37.3573854 48.7336931,37.4779666 49.2442938,37.680452" id="Path" stroke="#263238" stroke-width="0.5" stroke-linecap="round" stroke-linejoin="round"></path>
                            <line x1="48.3568362" y1="39.0097175" x2="46.6702825" y2="39.720452" id="Path" stroke="#263238" stroke-width="0.5" stroke-linecap="round" stroke-linejoin="round"></line>
                            <line x1="47.7421469" y1="39.5975141" x2="51.1613559" y2="70.5317514" id="Path" stroke="#263238" stroke-width="1.15254237" stroke-linecap="round" stroke-linejoin="round"></line>
                            <path d="M54.1233898,56.4976271 C54.1233898,56.4976271 52.9708475,54.9877966 51.8183051,53.6585311 C50.6657627,52.3292655 49.0637288,53.7468927 49.0637288,53.7468927 C49.0637288,53.7468927 47.2888136,54.0119774 47.2888136,54.6343503 C47.2888136,55.2567232 47.9111864,56.320904 47.9111864,56.320904 C47.9111864,56.320904 47.6461017,58.0074576 48.3568362,58.6259887 C49.0675706,59.2445198 49.5093785,59.4250847 49.9511864,59.4250847 C50.3929944,59.4250847 70.9927684,59.7785311 72.679322,59.6901695 C74.3658757,59.6018079 78.4420339,60.3125424 79.8673446,58.3570621 C81.2926554,56.4015819 80.4013559,53.4779661 77.3816949,53.2090395 C74.3620339,52.940113 62.1143503,56.5859887 54.1233898,56.4976271 Z" id="Path" stroke="#263238" stroke-width="0.5" fill="#FFFFFF" fill-rule="nonzero" stroke-linecap="round" stroke-linejoin="round"></path>
                        </g>
                    </g>
                </g>
            </g>
        </g>
    </g>
</svg>