<?xml version="1.0" encoding="UTF-8"?>
<svg width="157px" height="137px" viewBox="0 0 157 137" version="1.1" xmlns="http://www.w3.org/2000/svg" xmlns:xlink="http://www.w3.org/1999/xlink">
    <title>Mail sent-bro</title>
    <g id="Page-1" stroke="none" stroke-width="1" fill="none" fill-rule="evenodd">
        <g id="hashtag" transform="translate(-298.000000, -2564.000000)">
            <g id="tm" transform="translate(298.000000, 1593.000000)">
                <g id="list" transform="translate(0.000000, 280.000000)">
                    <g id="Mail-sent-bro" transform="translate(0.000000, 691.000000)">
                        <g id="freepik--background-simple--inject-1--inject-58" transform="translate(0.000000, 18.651429)" fill="#F9FBFF" fill-rule="nonzero">
                            <path d="M125.081143,94.3218286 C125.081143,94.3218286 136.998629,91.2132571 146.324343,75.6704 C156.776914,58.2468571 152.2928,27.8450286 138.370286,13.0754286 C125.454171,-0.621714286 96.8592,-3.03085714 80.2672,3.65257143 C64.5883429,9.97074286 52.5465143,25.1561143 42.9643429,27.2272 C33.3821714,29.2982857 21.4608,25.9332571 8.50971429,40.1782857 C-4.44137143,54.4233143 -1.59314286,86.5504 13.1725714,97.1700571 C27.9382857,107.789714 49.6982857,95.3554286 68.6100571,86.8068571 C87.5218286,78.2582857 90.6265143,96.9097143 125.081143,94.3218286 Z" id="Path"></path>
                        </g>
                        <g id="freepik--Character--inject-1--inject-58" transform="translate(14.765714, 32.251429)">
                            <path d="M106.367543,49.3485714 L106.367543,49.3252571 C103.1968,48.2722286 98.3318857,48.6297143 97.6091429,49.0610286 C96.8407353,49.5754034 96.1806605,50.2354782 95.6662857,51.0038857 C93.9584335,53.4268789 92.7340795,56.1566078 92.0603429,59.0434286 L57.5746286,62.2491429 C56.304,59.5058286 54.3883429,57.0461714 52.4649143,55.5618286 C51.9153273,55.1016605 51.2820063,54.7520146 50.5997714,54.5321143 C50.2994599,54.4961903 49.9954093,54.5066748 49.6982857,54.5632 C48.4470857,50.9378286 46.6752,47.4406857 44.4603429,47.2192 C39.7974857,46.7529143 31.6608,48.3149714 29.4420571,52.8379429 C27.2233143,57.3609143 26.5277714,68.6528 26.5277714,68.6528 L24.9734857,70.2070857 C23.8398598,67.9985949 22.2631216,66.0475137 20.3417143,64.4756571 C19.7939465,64.0128407 19.1600782,63.6628926 18.4765714,63.4459429 C18.088,63.3371429 16.5337143,63.5780571 14.9056,64.1104 C14.8395429,64.0482286 14.7773714,63.9860571 14.7074286,63.9277714 C13.1531429,62.6260571 9.96685714,61.9149714 8.1872,65.2333714 C6.40754286,68.5517714 8.54468571,74.8349714 9.60937143,76.2571429 C10.1264372,76.9836492 10.7748463,77.6070181 11.5211429,78.0950857 C12.7762286,81.2036571 15.0182857,85.1670857 18.4688,85.3497143 C20.8601993,85.4784068 23.1896666,84.5624994 24.8530286,82.8395429 C27.0912,80.5081143 27.3321143,77.2324571 26.4889143,74.0267429 L26.8502857,73.4982857 C26.8502857,73.4982857 27.6546286,74.6445714 30.736,74.1821714 C31.6292529,74.0901801 32.4761145,73.7390093 33.1723429,73.1718857 C34.6178286,76.8594286 36.9531429,80.5547429 40.664,81.1065143 C43.8866141,81.5995722 47.1643113,80.6663291 49.6438857,78.5497143 C50.3561279,77.9345982 50.9775513,77.2215967 51.4896,76.432 C53.5673813,76.317322 55.5247747,75.4205304 56.9684571,73.9218286 C58.2601748,72.544231 58.9989023,70.738914 59.0434286,68.8509714 L63.6324571,68.3147429 C66.5132245,69.5996876 69.6561337,70.1880679 72.8066286,70.0322286 C75.8234544,69.8384221 78.6791536,68.6021887 80.8850286,66.5350857 L91.3414857,65.6413714 C91.5163429,69.6941714 92.9734857,73.4128 96.3929143,75.4605714 C99.0423634,77.0419001 102.251293,77.3840913 105.174629,76.3970286 C109.9968,74.7805714 111.1392,67.6153143 111.450057,63.2594286 C111.931886,56.2651429 109.701486,50.3394286 106.367543,49.3485714 Z" id="Path" stroke="#263238" stroke-width="0.5" fill="#263238" fill-rule="nonzero" stroke-linecap="round" stroke-linejoin="round"></path>
                            <path d="M42.5252571,78.8566857 C42.1242694,79.369312 41.6129436,79.7850133 41.0292571,80.0729143" id="Path" stroke="#FFFFFF" stroke-width="0.5" stroke-linecap="round" stroke-linejoin="round"></path>
                            <path d="M44.4098286,69.6475429 C44.4098286,69.6475429 44.8722286,74.6989714 43.1508571,77.9046857" id="Path" stroke="#FFFFFF" stroke-width="0.5" stroke-linecap="round" stroke-linejoin="round"></path>
                            <path d="M45.7737143,75.2274286 C45.3346286,77.1702857 44.4603429,79.0548571 42.7661714,79.8902857" id="Path" stroke="#FFFFFF" stroke-width="0.5" stroke-linecap="round" stroke-linejoin="round"></path>
                            <path d="M47.8836571,69.2628571 C47.8836571,69.2628571 48.6608,77.6598857 44.5069714,79.6882286" id="Path" stroke="#FFFFFF" stroke-width="0.5" stroke-linecap="round" stroke-linejoin="round"></path>
                            <path d="M49.6244571,69.0685714 C49.6244571,69.0685714 50.4016,77.4694857 46.2438857,79.4939429" id="Path" stroke="#FFFFFF" stroke-width="0.5" stroke-linecap="round" stroke-linejoin="round"></path>
                            <path d="M102.046629,74.9554286 C101.599999,75.5194091 101.045125,75.9884091 100.414629,76.3348571" id="Path" stroke="#FFFFFF" stroke-width="0.5" stroke-linecap="round" stroke-linejoin="round"></path>
                            <path d="M105.170743,64.4678857 C105.170743,64.4678857 104.922057,70.2148571 102.7888,73.8713143" id="Path" stroke="#FFFFFF" stroke-width="0.5" stroke-linecap="round" stroke-linejoin="round"></path>
                            <path d="M105.7264,70.8326857 C105.026971,73.0436571 103.907886,75.1885714 102.139886,76.1211429" id="Path" stroke="#FFFFFF" stroke-width="0.5" stroke-linecap="round" stroke-linejoin="round"></path>
                            <path d="M108.621257,64.0404571 C108.621257,64.0404571 108.205486,73.6148571 103.865143,75.9074286" id="Path" stroke="#FFFFFF" stroke-width="0.5" stroke-linecap="round" stroke-linejoin="round"></path>
                            <path d="M110.354286,63.8306286 C110.354286,63.8306286 109.938514,73.4011429 105.598171,75.6976" id="Path" stroke="#FFFFFF" stroke-width="0.5" stroke-linecap="round" stroke-linejoin="round"></path>
                            <path d="M19.5645714,84.0518857 C19.2338969,84.5585639 18.7978539,84.9879802 18.2861714,85.3108571" id="Path" stroke="#FFFFFF" stroke-width="0.5" stroke-linecap="round" stroke-linejoin="round"></path>
                            <path d="M20.1785143,75.8802286 C20.1785143,75.8802286 21.2742857,80.1545143 20.0386286,83.1426286" id="Path" stroke="#FFFFFF" stroke-width="0.5" stroke-linecap="round" stroke-linejoin="round"></path>
                            <path d="M22.2107429,80.4692571 C22.0358857,82.1984 21.4336,83.9392 19.9298286,84.8950857" id="Path" stroke="#FFFFFF" stroke-width="0.5" stroke-linecap="round" stroke-linejoin="round"></path>
                            <path d="M23.4580571,75.0486857 C23.4580571,75.0486857 25.2843429,82.1401143 21.5696,84.4754286" id="Path" stroke="#FFFFFF" stroke-width="0.5" stroke-linecap="round" stroke-linejoin="round"></path>
                            <path d="M25.0978286,74.6290286 C25.0978286,74.6290286 26.928,81.7204571 23.2093714,84.0596571" id="Path" stroke="#FFFFFF" stroke-width="0.5" stroke-linecap="round" stroke-linejoin="round"></path>
                            <path d="M38.4918857,66.7682286 C39.4166857,72.0566857 38.8377143,76.5796571 37.2057143,76.8710857 C35.5737143,77.1625143 33.4948571,73.0980571 32.5700571,67.8096 C31.6452571,62.5211429 32.2242286,57.9981714 33.8601143,57.7067429 C35.496,57.4153143 37.5670857,61.4758857 38.4918857,66.7682286 Z" id="Path" stroke="#263238" stroke-width="0.5" fill="#ADC7F7" fill-rule="nonzero" stroke-linecap="round" stroke-linejoin="round"></path>
                            <path d="M37.6681143,66.8809143 C37.9245714,68.9092571 37.6875429,70.6073143 37.1318857,70.6772571 C36.5762286,70.7472 35.9234286,69.1618286 35.6669714,67.1334857 C35.4105143,65.1051429 35.6669714,63.4032 36.2032,63.3332571 C36.7394286,63.2633143 37.4116571,64.8525714 37.6681143,66.8809143 Z" id="Path" stroke="#263238" stroke-width="0.5" fill="#ADC7F7" fill-rule="nonzero" stroke-linecap="round" stroke-linejoin="round"></path>
                            <path d="M33.7707429,62.0315429 C33.8258508,61.3506943 33.9336789,60.6751449 34.0932571,60.0109714" id="Path" stroke="#263238" stroke-width="0.5" stroke-linecap="round" stroke-linejoin="round"></path>
                            <path d="M36.3469714,74.9632 C35.2717032,72.8101992 34.5026624,70.5174638 34.0621714,68.1515429 C33.7695491,66.4779985 33.6510502,64.7786462 33.7085714,63.0806857" id="Path" stroke="#263238" stroke-width="0.5" stroke-linecap="round" stroke-linejoin="round"></path>
                            <ellipse id="Oval" stroke="#263238" stroke-width="0.5" fill="#ADC7F7" fill-rule="nonzero" stroke-linecap="round" stroke-linejoin="round" transform="translate(13.715275, 75.598902) rotate(-15.490000) translate(-13.715275, -75.598902) " cx="13.7152754" cy="75.5989017" rx="2.20708571" ry="7.14582857"></ellipse>
                            <path d="M15.4573714,75.1613714 C15.8265143,76.6068571 15.8070857,77.8580571 15.4107429,77.9590857 C15.0144,78.0601143 14.4004571,76.9682286 14.0313143,75.5266286 C13.6621714,74.0850286 13.6816,72.8260571 14.0779429,72.7289143 C14.4742857,72.6317714 15.0882286,73.7158857 15.4573714,75.1613714 Z" id="Path" stroke="#263238" stroke-width="0.5" stroke-linecap="round" stroke-linejoin="round"></path>
                            <path d="M12.2011429,72.0022857 C12.1794629,71.5043559 12.1963515,71.005495 12.2516571,70.5101714" id="Path" stroke="#263238" stroke-width="0.5" stroke-linecap="round" stroke-linejoin="round"></path>
                            <path d="M15.2281143,81.1298286 C14.2564649,79.6680973 13.49396,78.0776925 12.9627429,76.4048 C12.599644,75.2203543 12.3600451,74.0015247 12.2477714,72.7677714" id="Path" stroke="#263238" stroke-width="0.5" stroke-linecap="round" stroke-linejoin="round"></path>
                            <path d="M98.9186286,10.1028571 C94.8230857,1.65142857 93.0550857,0.917028571 90.3312,0.777142857 C87.6073143,0.637257143 81.1764571,-0.1632 74.0112,0.983085714 C74.0112,0.983085714 54.0230857,0.633371429 38.5579429,10.0018286 C22.4128,19.7821714 14.5558857,28.3734857 13.4562286,32.8265143 C12.3565714,37.2795429 8.60297143,48.8822857 6.82331429,55.5346286 C5.04365714,62.1869714 3.83131429,68.0466286 6.10057143,73.4322286 C7.47222857,76.6884571 8.93325714,77.6676571 10.8100571,77.6522958 C10.5229144,77.1368723 10.269802,76.6033892 10.0523429,76.0550857 C8.1872,71.4349714 8.41257143,64.8253714 10.5419429,64.3979429 C12.6713143,63.9705143 13.9419429,68.3963429 15.2281143,73.2224 C15.4834199,74.2861554 15.8292127,75.3261336 16.2617143,76.3309714 C19.4441143,75.1302857 24.5421714,72.4452571 31.3188571,69.6553143 C30.675527,65.4167016 30.6611243,61.1063602 31.2761143,56.8635429 C32.2786286,50.2306286 36.5179429,48.7657143 38.3636571,52.8029714 C39.8907429,56.1291429 40.4580571,63.5741714 40.6096,66.0843429 C43.3296,65.1478857 45.6066286,64.5300571 47.0093714,64.4445714 C47.0093714,64.4445714 70.1993143,59.2066286 87.2925714,58.7869714 C104.385829,58.3673143 112.938286,57.9593143 112.938286,57.9593143 C112.938286,57.9593143 103.014171,18.5387429 98.9186286,10.1028571 Z" id="Path" fill="#FFFFFF" fill-rule="nonzero"></path>
                            <g id="Group" transform="translate(5.440000, 0.388571)" fill="#ADC7F7" fill-rule="nonzero">
                                <path d="M38.8299429,50.4909714 C38.8299429,50.4909714 36.4790857,53.7083429 33.6192,54.3961143 C34.6294857,58.1030857 35.0452571,63.5897143 35.1734857,65.6646857 C37.6020571,64.8292571 39.6653714,64.2425143 41.0797714,64.0715429 C41.2857143,62.8592 41.4100571,62.0859429 41.4100571,62.0859429 L38.8299429,50.4909714 Z" id="Path"></path>
                                <path d="M9.88914286,73.1835429 C10.9693714,73.2923429 11.6882286,73.7586286 13.8836571,73.2107429 C17.7693714,72.2432 14.9755429,64.7437714 21.4219429,61.6818286 C22.6733314,61.0508123 24.035094,60.6681465 25.432,60.5549714 C25.4899602,59.182655 25.6196612,57.8143095 25.8205714,56.4555429 C25.9917123,55.1209009 26.3857632,53.8244736 26.9862857,52.6203429 C25.2260571,52.0802286 24.9074286,51.5634286 21.9076571,52.9894857 C15.4573714,56.0514286 16.4249143,63.9510857 12.5586286,64.9186286 C9.47337143,65.6957714 9.3024,64.4562286 6.95931429,65.0313143 C8.05508571,66.5856 8.90217143,69.6125714 9.75702857,72.8027429 C9.82308571,72.9465143 9.85417143,73.0514286 9.88914286,73.1835429 Z" id="Path" opacity="0.2"></path>
                                <path d="M3.54377143,66.5428571 C1.73691429,67.7862857 0.660571429,69.6514286 0.0466285714,71.2251429 C0.213167457,71.8460589 0.418211899,72.4560012 0.660571429,73.0514286 C2.03222857,76.3076571 3.49325714,77.2868571 5.37005714,77.2713143 C5.08291442,76.7560723 4.82980202,76.2225892 4.61234286,75.6742857 C3.4272,72.7328 3.10857143,68.9908571 3.54377143,66.5428571 Z" id="Path" opacity="0.2"></path>
                                <path d="M84.8912,0.388571429 L84.1878857,0.345828571 C55.8493714,7.59657143 44.3204571,41.752 40.3531429,58.2118857 C40.5668571,59.8477714 40.8,61.4525714 41.0525714,63.0146286 C41.5344,62.9213714 41.2002286,64.056 41.5693714,64.0368182 C41.5693714,64.0368182 64.7593143,58.7986286 81.8525714,58.3789714 C98.9458286,57.9593143 107.498286,57.5513143 107.498286,57.5513143 C107.498286,57.5513143 97.5741714,18.1501714 93.4786286,9.71428571 C89.3830857,1.2784 87.6150857,0.512914286 84.8912,0.388571429 Z" id="Path" opacity="0.2" style="mix-blend-mode: multiply;"></path>
                            </g>
                            <path d="M98.9186286,10.1028571 C94.8230857,1.65142857 93.0550857,0.917028571 90.3312,0.777142857 C87.6073143,0.637257143 81.1764571,-0.1632 74.0112,0.983085714 C74.0112,0.983085714 54.0230857,0.633371429 38.5579429,10.0018286 C22.4128,19.7821714 14.5558857,28.3734857 13.4562286,32.8265143 C12.3565714,37.2795429 8.60297143,48.8822857 6.82331429,55.5346286 C5.04365714,62.1869714 3.83131429,68.0466286 6.10057143,73.4322286 C7.47222857,76.6884571 8.93325714,77.6676571 10.8100571,77.6522958 C10.5229144,77.1368723 10.269802,76.6033892 10.0523429,76.0550857 C8.1872,71.4349714 8.41257143,64.8253714 10.5419429,64.3979429 C12.6713143,63.9705143 13.9419429,68.3963429 15.2281143,73.2224 C15.4834199,74.2861554 15.8292127,75.3261336 16.2617143,76.3309714 C19.4441143,75.1302857 24.5421714,72.4452571 31.3188571,69.6553143 C30.675527,65.4167016 30.6611243,61.1063602 31.2761143,56.8635429 C32.2786286,50.2306286 36.5179429,48.7657143 38.3636571,52.8029714 C39.8907429,56.1291429 40.4580571,63.5741714 40.6096,66.0843429 C43.3296,65.1478857 45.6066286,64.5300571 47.0093714,64.4445714 C47.0093714,64.4445714 70.1993143,59.2066286 87.2925714,58.7869714 C104.385829,58.3673143 112.938286,57.9593143 112.938286,57.9593143 C112.938286,57.9593143 103.014171,18.5387429 98.9186286,10.1028571 Z" id="Path" stroke="#263238" stroke-width="0.5" stroke-linecap="round" stroke-linejoin="round"></path>
                            <path d="M14.0934857,52.7524571 C14.6381293,53.2055451 15.3963287,53.3010783 16.0363429,52.9972571 C17.2603429,52.5076571 17.3846857,50.6658286 17.3846857,50.6658286 L19.2187429,50.5453714 L19.5878857,44.7906286 L15.5467429,46.3798857 C15.5467429,46.3798857 14.4626286,52.0180571 14.0934857,52.7524571 Z" id="Path" fill="#ADC7F7" fill-rule="nonzero" opacity="0.2"></path>
                            <path d="M8.79337143,69.5814857 C7.63307668,70.19816 6.53595601,70.9269709 5.51771429,71.7574857 C5.67882708,72.3267316 5.87345232,72.8859547 6.10057143,73.4322286 C7.47222857,76.6884571 8.93325714,77.6676571 10.8100571,77.6521143 C10.5229144,77.1368723 10.269802,76.6033892 10.0523429,76.0550857 C9.2557631,73.9879007 8.82959279,71.7965435 8.79337143,69.5814857 L8.79337143,69.5814857 Z" id="Path" stroke="#263238" stroke-width="0.5" fill="#263238" fill-rule="nonzero" stroke-linecap="round" stroke-linejoin="round"></path>
                            <path d="M14.9833143,66.3718857 C14.7691293,66.3708502 14.5725266,66.2531865 14.4704,66.0649143 C14.3232523,65.7856263 14.4269583,65.4399397 14.7035429,65.2877714 C14.7968,65.2372571 22.3584,60.5510857 28.6221714,57.2210286 C28.9065192,57.0697341 29.259677,57.1775951 29.4109714,57.4619429 C29.5622659,57.7462906 29.4544049,58.0994484 29.1700571,58.2507429 C22.9101714,61.5769143 15.3524571,66.2592 15.2592,66.3097143 C15.1741392,66.3538851 15.0790991,66.3753026 14.9833143,66.3718857 L14.9833143,66.3718857 Z" id="Path" stroke="#263238" stroke-width="0.5" fill="#263238" fill-rule="nonzero"></path>
                            <path d="M24.8685714,27.4214857 L24.6004571,34.0932571 C24.5421714,35.0025143 25.0706286,35.4416 25.7661714,35.0491429 L36.5101714,28.0548571 C37.3131098,27.495006 37.7712138,26.5611787 37.7225143,25.5835429 L37.6564571,18.1424 C37.5787429,17.4662857 37.1202286,17.1904 36.5568,17.4818286 C34.5362286,18.5270857 30.6349714,22.0630857 25.9721143,25.3542857 C25.3334599,25.8604579 24.9337657,26.6091807 24.8685714,27.4214857 L24.8685714,27.4214857 Z" id="Path" stroke="#263238" stroke-width="0.5" fill="#ADC7F7" fill-rule="nonzero" stroke-linecap="round" stroke-linejoin="round"></path>
                            <line x1="32.1270857" y1="25.5408" x2="37.3766857" y2="26.8230857" id="Path" stroke="#263238" stroke-width="0.5" stroke-linecap="round" stroke-linejoin="round"></line>
                            <line x1="24.9462857" y1="35.0802286" x2="28.1869714" y2="27.9227429" id="Path" stroke="#263238" stroke-width="0.5" stroke-linecap="round" stroke-linejoin="round"></line>
                            <path d="M24.9307429,27.2 L29.6946286,27.7945143 C30.1881143,27.8683429 30.8020571,27.4603429 31.2489143,26.7531429 L37.4660571,17.8509714" id="Path" stroke="#263238" stroke-width="0.5" stroke-linecap="round" stroke-linejoin="round"></path>
                            <path d="M51.5284571,15.0260571 L52.632,31.7346286 C52.6897501,32.7093679 53.1458411,33.6174553 53.8932519,34.2458095 C54.6406627,34.8741637 55.6136021,35.1674735 56.5837714,35.0569143 L93.7001143,30.2386286 C94.735045,30.1193694 95.6655995,29.5522069 96.2458885,28.6870081 C96.8261774,27.8218092 96.997808,26.7456364 96.7154286,25.7428571 L92.0292571,9.17417143 C91.5720425,7.55088195 90.0352481,6.47382621 88.3533714,6.59794286 C82.3382857,7.04091429 67.9106286,8.33485714 54.2912,11.3696 C52.6028367,11.7531556 51.4362401,13.2971322 51.5284571,15.0260571 L51.5284571,15.0260571 Z" id="Path" stroke="#263238" stroke-width="0.5" fill="#ADC7F7" fill-rule="nonzero" stroke-linecap="round" stroke-linejoin="round"></path>
                            <line x1="79.1170286" y1="20.2057143" x2="96.0626286" y2="28.2336" id="Path" stroke="#263238" stroke-width="0.5" stroke-linecap="round" stroke-linejoin="round"></line>
                            <line x1="54.0386286" y1="34.3225143" x2="68.3497143" y2="21.5152" id="Path" stroke="#263238" stroke-width="0.5" stroke-linecap="round" stroke-linejoin="round"></line>
                            <path d="M51.6528,14.5869714 L72.1888,23.0306286 C73.7641909,23.6740807 75.570821,23.3282923 76.7972571,22.1485714 L91.4347429,8.32708571" id="Path" stroke="#263238" stroke-width="0.5" stroke-linecap="round" stroke-linejoin="round"></path>
                            <ellipse id="Oval" stroke="#263238" stroke-width="0.5" fill="#263238" fill-rule="nonzero" stroke-linecap="round" stroke-linejoin="round" transform="translate(92.512437, 26.396116) rotate(-1.410000) translate(-92.512437, -26.396116) " cx="92.5124373" cy="26.3961157" rx="6.31817143" ry="6.20937143"></ellipse>
                            <path d="M91.8310857,29.3604598 L91.8116571,29.3604598 C91.5629295,29.3611024 91.3289204,29.2426534 91.1821714,29.0418286 L88.6992,25.6146286 C88.4470426,25.2669732 88.5244589,24.7807289 88.8721143,24.5285714 C89.2197696,24.276414 89.706014,24.3538304 89.9581714,24.7014857 L91.8116571,27.2582857 L96.2413714,21.1382857 C96.4935289,20.7906304 96.9797732,20.713214 97.3274286,20.9653714 C97.6750839,21.2175289 97.7525003,21.7037732 97.5003429,22.0514286 L92.4489143,29.0457143 C92.3037819,29.2417786 92.0750121,29.3583217 91.8310857,29.3604598 Z" id="Path" stroke="#263238" stroke-width="0.5" fill="#FFFFFF" fill-rule="nonzero" stroke-linecap="round" stroke-linejoin="round"></path>
                            <path d="M68.3613714,46.1078857 C68.3613714,46.1078857 81.5728,43.5744 90.6265143,43.7531429 L91.1705143,45.9291429 C91.1705143,45.9291429 72.1616,46.8306286 68.5401143,48.6491429 L68.3613714,46.1078857 Z" id="Path" stroke="#263238" stroke-width="0.5" fill="#263238" fill-rule="nonzero" stroke-linecap="round" stroke-linejoin="round"></path>
                            <path d="M68.5401143,48.6413714 L68.9286857,50.8173714 C69.01226,51.3217 69.4834268,51.6668772 69.9894857,51.5945143 C73.304,51.1204571 84.9378286,49.5234286 90.9723429,49.6710857 C91.2738442,49.6803361 91.5616197,49.5449791 91.7467576,49.306835 C91.9318954,49.0686909 91.992111,48.7564245 91.9088,48.4665143 L91.1860571,45.9369143" id="Path" stroke="#263238" stroke-width="0.5" stroke-linecap="round" stroke-linejoin="round"></path>
                            <path d="M20.3300571,44.7984 L20.2562286,35.8224 L20.7030857,26.5938286 C20.709926,26.4131573 20.6053214,26.2467633 20.4395418,26.1746105 C20.2737622,26.1024577 20.0807031,26.1392986 19.9531429,26.2674286 C18.2822857,27.9771429 15.4224,30.5650286 14.5753143,32.6866286 C13.4756571,35.4338286 12.1739429,48.9561143 12.1739429,48.9561143 L20.3300571,44.7984 Z" id="Path" stroke="#263238" stroke-width="0.5" fill="#263238" fill-rule="nonzero" stroke-linecap="round" stroke-linejoin="round"></path>
                            <rect id="Rectangle" stroke="#263238" stroke-width="0.5" fill="#263238" fill-rule="nonzero" stroke-linecap="round" stroke-linejoin="round" x="7.48" y="42.9954286" width="3.70308571" height="9.10811429" rx="1.20068571"></rect>
                            <path d="M10.8022857,36.7316571 C11.4184831,36.8498599 12.0202954,37.0335299 12.5974857,37.2795429 C13.076083,37.5150632 13.5110352,37.8304364 13.8836571,38.2121143 L15.8265143,35.6436571 C15.8265143,35.6436571 12.9782857,34.4507429 12.4381714,33.7241143 L11.9019429,32.9936 L10.8022857,36.7316571 Z" id="Path" fill="#FFFFFF" fill-rule="nonzero"></path>
                            <path d="M12.4342857,33.7241143 L11.9330286,33.0285714 L11.8747429,33.0674286 L10.8022857,36.72 C10.8022857,36.72 11.0082286,36.7588571 11.2996571,36.8288 L14.0779429,34.816 C13.4707482,34.550357 12.9145304,34.1808601 12.4342857,33.7241143 L12.4342857,33.7241143 Z" id="Path" fill="#ADC7F7" fill-rule="nonzero" opacity="0.5" style="mix-blend-mode: multiply;"></path>
                            <path d="M10.8022857,36.7316571 C11.4184831,36.8498599 12.0202954,37.0335299 12.5974857,37.2795429 C13.076083,37.5150632 13.5110352,37.8304364 13.8836571,38.2121143 L15.8265143,35.6436571 C15.8265143,35.6436571 12.9782857,34.4507429 12.4381714,33.7241143 L11.9019429,32.9936 L10.8022857,36.7316571 Z" id="Path" stroke="#263238" stroke-width="0.5" stroke-linecap="round" stroke-linejoin="round"></path>
                            <polygon id="Path" stroke="#263238" stroke-width="0.5" fill="#ADC7F7" fill-rule="nonzero" stroke-linecap="round" stroke-linejoin="round" points="14.9056 34.5517714 12.5314286 37.5787429 12.8539429 38.6084571 16.4715429 34.8509714"></polygon>
                            <path d="M11.1053714,25.9993143 C9.50057143,24.7558857 5.31954286,25.5485714 4.49965714,28.4939429 C3.99451429,30.3085714 4.27428571,33.0285714 4.27428571,33.0285714 L9.03817143,32.0182857 L9.42674286,32.6050286 C10.2038857,33.7707429 11.8864,32.9936 12.3216,32.6050286 C12.5586286,32.3990857 12.5430857,31.7929143 12.4809143,31.2916571 L12.6713756,31.2489143 C12.6713756,31.2489143 12.7062857,27.2466286 11.1053714,25.9993143 Z" id="Path" stroke="#263238" stroke-width="0.5" fill="#263238" fill-rule="nonzero" stroke-linecap="round" stroke-linejoin="round"></path>
                            <path d="M9.32571429,31.6608 C7.23476934,31.4278528 5.11824829,31.6289223 3.10857143,32.2514286 C5.55111512e-17,33.2928 -0.477942857,34.1942857 1.74857143,34.1398857 C3.97508571,34.0854857 9.32571429,31.6608 9.32571429,31.6608 Z" id="Path" stroke="#263238" stroke-width="0.5" fill="#263238" fill-rule="nonzero" stroke-linecap="round" stroke-linejoin="round"></path>
                            <ellipse id="Oval" fill="#ADC7F7" fill-rule="nonzero" cx="5.48662857" cy="29.6324571" rx="1" ry="1"></ellipse>
                            <path d="M20.2562286,35.8224 C20.2562286,35.8224 16.0013714,34.7421714 14.6918857,35.7369143 C13.3824,36.7316571 13.0482286,38.3753143 13.4678857,40.3686857 C13.8875429,42.3620571 14.9094857,47.6038857 14.9094857,47.6038857 L20.3300571,44.7984 L20.2562286,35.8224 Z" id="Path" stroke="#263238" stroke-width="0.5" fill="#263238" fill-rule="nonzero" stroke-linecap="round" stroke-linejoin="round"></path>
                            <path d="M13.5028571,46.7684571 C13.5028571,46.7684571 13.2736,48.7812571 13.0054857,49.0649143 C12.7373714,49.3485714 5.66537143,43.4073143 5.23405714,42.8477714 C4.80274286,42.2882286 5.09805714,40.2909714 5.23405714,39.6653714 C5.37005714,39.0397714 5.1408,38.6978286 4.45691429,39.1291429 C3.77302857,39.5604571 3.95565714,41.3556571 3.95565714,41.3556571 C3.95565714,41.3556571 1.86902857,40.8544 1.45325714,40.7961143 C1.03748571,40.7378286 0.676114286,41.2546286 0.738285714,41.6665143 C0.800457143,42.0784 1.34834286,42.1133714 1.34834286,42.1133714 C1.20817295,42.7098007 1.24737637,43.3343517 1.46102857,43.9085714 C1.82628571,44.6624 2.23817143,45.1364571 3.01531429,45.3229714 C3.81713177,45.4480471 4.62893033,45.4974835 5.44,45.4706286 C5.44,45.4706286 9.05371429,48.9133714 10.1028571,50.1995429 C11.152,51.4857143 13.3629714,53.2342857 14.4626286,52.9195429 C15.5622857,52.6048 16.6114286,47.1142857 16.6114286,47.1142857 L13.5028571,46.7684571 Z" id="Path" fill="#FFFFFF" fill-rule="nonzero"></path>
                            <path d="M13.0054857,49.0649143 L15.0726857,49.7526857 C15.2081603,50.6486188 14.6704545,51.509608 13.8059429,51.7810286 C12.8928,52.0841143 11.2530286,51.0466286 10.0873143,50.1723429 L10.1222857,50.2150857 C11.1908571,51.5051429 13.3824,53.2498286 14.4820571,52.9350857 C15.5817143,52.6203429 16.6308571,47.1298286 16.6308571,47.1298286 L13.5028571,46.7412571 C13.5028571,46.7412571 13.2736,48.7812571 13.0054857,49.0649143 Z" id="Path" fill="#ADC7F7" fill-rule="nonzero" opacity="0.5" style="mix-blend-mode: multiply;"></path>
                            <path d="M13.5028571,46.7684571 C13.5028571,46.7684571 13.2736,48.7812571 13.0054857,49.0649143 C12.7373714,49.3485714 5.66537143,43.4073143 5.23405714,42.8477714 C4.80274286,42.2882286 5.09805714,40.2909714 5.23405714,39.6653714 C5.37005714,39.0397714 5.1408,38.6978286 4.45691429,39.1291429 C3.77302857,39.5604571 3.95565714,41.3556571 3.95565714,41.3556571 C3.95565714,41.3556571 1.86902857,40.8544 1.45325714,40.7961143 C1.03748571,40.7378286 0.676114286,41.2546286 0.738285714,41.6665143 C0.800457143,42.0784 1.34834286,42.1133714 1.34834286,42.1133714 C1.20817295,42.7098007 1.24737637,43.3343517 1.46102857,43.9085714 C1.82628571,44.6624 2.23817143,45.1364571 3.01531429,45.3229714 C3.81713177,45.4480471 4.62893033,45.4974835 5.44,45.4706286 C5.44,45.4706286 9.05371429,48.9133714 10.1028571,50.1995429 C11.152,51.4857143 13.3629714,53.2342857 14.4626286,52.9195429 C15.5622857,52.6048 16.6114286,47.1142857 16.6114286,47.1142857 L13.5028571,46.7684571 Z" id="Path" stroke="#263238" stroke-width="0.5" stroke-linecap="round" stroke-linejoin="round"></path>
                            <polygon id="Path" stroke="#263238" stroke-width="0.5" fill="#263238" fill-rule="nonzero" points="6.43474286 43.9396571 5.44 45.4861714 5.94902857 45.832 6.96708571 44.3748571"></polygon>
                            <circle id="Oval" stroke="#263238" stroke-width="0.5" fill="#FFFFFF" fill-rule="nonzero" stroke-linecap="round" stroke-linejoin="round" cx="6.0928" cy="45.0082286" r="1"></circle>
                            <path d="M5.1408,33.5259429 C5.1408,33.5259429 5.37782857,34.1126857 5.77417143,35.1424 C6.17051429,36.1721143 8.29988571,38.3442286 9.34125714,38.4685714 C10.3826286,38.5929143 11.6299429,34.8082286 11.8281143,34.0272 C11.8941714,33.7707429 11.9602286,33.3588571 11.9602286,33.3588571 C11.9602286,33.3588571 13.2697143,32.7410286 12.9666286,31.9949714 C12.6635429,31.2489143 12.0496,30.9069714 11.7581714,31.1362286 C11.4667429,31.3654857 11.4162286,32.3330286 10.9810286,32.3408 C10.5458286,32.3485714 10.3088,32.2125714 9.92411429,31.6996571 C9.53942857,31.1867429 5.55268571,32.2514286 5.1408,33.5259429 Z" id="Path" fill="#FFFFFF" fill-rule="nonzero"></path>
                            <g id="Group" transform="translate(5.051429, 30.697143)" fill="#ADC7F7" fill-rule="nonzero" opacity="0.5">
                                <path d="M4.86491429,1.00251429 C4.47634286,0.493485714 0.501257143,1.55817143 0.0893714286,2.8288 L0.314742857,3.40388571 C1.83424506,2.48749137 3.48550179,1.80995191 5.21074286,1.39497143 C5.0818444,1.27681682 4.9659128,1.14525399 4.86491429,1.00251429 L4.86491429,1.00251429 Z" id="Path"></path>
                                <path d="M7.86468571,1.19291429 C7.54605714,0.524571429 6.98262857,0.221485714 6.69897143,0.439085714 C6.52117544,0.671047104 6.38929152,0.934814944 6.3104,1.21622857 C6.82653516,1.15841621 7.34704878,1.15060851 7.86468571,1.19291429 L7.86468571,1.19291429 Z" id="Path"></path>
                            </g>
                            <path d="M5.1408,33.5259429 C5.1408,33.5259429 5.37782857,34.1126857 5.77417143,35.1424 C6.17051429,36.1721143 8.29988571,38.3442286 9.34125714,38.4685714 C10.3826286,38.5929143 11.6299429,34.8082286 11.8281143,34.0272 C11.8941714,33.7707429 11.9602286,33.3588571 11.9602286,33.3588571 C11.9602286,33.3588571 13.2697143,32.7410286 12.9666286,31.9949714 C12.6635429,31.2489143 12.0496,30.9069714 11.7581714,31.1362286 C11.4667429,31.3654857 11.4162286,32.3330286 10.9810286,32.3408 C10.5458286,32.3485714 10.3088,32.2125714 9.92411429,31.6996571 C9.53942857,31.1867429 5.55268571,32.2514286 5.1408,33.5259429 Z" id="Path" stroke="#263238" stroke-width="0.5" stroke-linecap="round" stroke-linejoin="round"></path>
                            <path d="M6.55131429,33.8057143 C6.62125714,34.0427429 6.59794286,34.2603429 6.50468571,34.2875429 C6.41142857,34.3147429 6.27542857,34.1437714 6.20548571,33.8989714 C6.13554286,33.6541714 6.15885714,33.4443429 6.25211429,33.4171429 C6.34537143,33.3899429 6.48137143,33.5764571 6.55131429,33.8057143 Z" id="Path" stroke="#263238" stroke-width="0.5" fill="#263238" fill-rule="nonzero"></path>
                            <path d="M5.82857143,33.1451429 C6.37257143,32.9897143 6.60571429,33.3977143 6.67177143,33.7746286 L6.7728,34.2214857 L7.11085714,35.9506286 L7.62377143,35.7330286" id="Path" stroke="#263238" stroke-width="0.5" stroke-linecap="round" stroke-linejoin="round"></path>
                            <path d="M8.04342857,33.2772571 C8.28311869,33.0142856 8.63390738,32.8814767 8.98765714,32.9197714" id="Path" stroke="#263238" stroke-width="0.5" stroke-linecap="round" stroke-linejoin="round"></path>
                            <path d="M8.49417143,32.2009143 C8.04251204,32.2953286 7.68905016,32.6472669 7.59268571,33.0985143" id="Path" stroke="#263238" stroke-width="0.5" stroke-linecap="round" stroke-linejoin="round"></path>
                            <path d="M8.08617143,36.2925714 C8.08617143,36.2925714 9.21302857,36.0672 9.3024,35.2589714" id="Path" stroke="#263238" stroke-width="0.5" stroke-linecap="round" stroke-linejoin="round"></path>
                            <path d="M17.6528,49.6827429 L11.9641143,48.0973714 C11.9641143,48.0973714 12.4653714,38.3830857 13.3435429,36.7394286 C14.7113143,34.1865143 17.8470857,35.3366857 18.4377143,38.5462857 C18.9894857,41.5771429 17.6528,49.6827429 17.6528,49.6827429 Z" id="Path" stroke="#263238" stroke-width="0.5" fill="#ADC7F7" fill-rule="nonzero" stroke-linecap="round" stroke-linejoin="round"></path>
                            <path d="M12.1001143,47.0171429 C12.1001143,47.0171429 15.2086857,47.7321143 17.1010286,48.3538286" id="Path" stroke="#263238" stroke-width="0.5" stroke-linecap="round" stroke-linejoin="round"></path>
                            <path d="M17.0233143,35.0413714 C17.0233143,35.0413714 18.8729143,35.1851429 20.0813714,36.1798857" id="Path" stroke="#ADC7F7" stroke-width="0.5" stroke-linecap="round" stroke-linejoin="round"></path>
                            <path d="M49.6166857,59.8905143 C49.6166857,59.8905143 41.3323429,62.8125714 40.5746286,63.6091429 C39.8169143,64.4057143 39.8946286,67.5142857 41.6820571,69.0258286 C43.4694857,70.5373714 56.2107429,67.1101714 65.3188571,66.1115429 C74.4269714,65.1129143 94.4228571,63.6441143 102.582857,63.2477714 C110.742857,62.8514286 114.453714,63.9277714 115.168686,61.3826286 C115.883657,58.8374857 115.794286,56.1174857 114.24,55.5657143 C112.685714,55.0139429 84.3666286,50.4793143 49.6166857,59.8905143 Z" id="Path" stroke="#263238" stroke-width="0.5" fill="#263238" fill-rule="nonzero" stroke-linecap="round" stroke-linejoin="round"></path>
                            <path d="M39.984,65.3072 C39.984,65.3072 40.3725714,68.6761143 42.4436571,69.1929143 C44.5147429,69.7097143 69.1268571,65.0468571 83.6322286,64.5300571 C98.1376,64.0132571 110.832229,63.6246857 110.832229,63.6246857" id="Path" stroke="#FFFFFF" stroke-width="0.5" stroke-linecap="round" stroke-linejoin="round"></path>
                            <path d="M52.0064,67.0169143 C61.6274286,64.6854857 81.4173714,61.3904 114.717943,62.3268571" id="Path" stroke="#FFFFFF" stroke-width="0.5" stroke-linecap="round" stroke-linejoin="round"></path>
                            <path d="M44.1184,69.0685714 C44.1184,69.0685714 46.3293714,68.5323429 49.6905143,67.6153143" id="Path" stroke="#FFFFFF" stroke-width="0.5" stroke-linecap="round" stroke-linejoin="round"></path>
                            <path d="M46.1467429,69.4532571 C46.2513173,70.8977477 46.2122688,72.3490512 46.0301714,73.7858286" id="Path" stroke="#FFFFFF" stroke-width="0.5" stroke-linecap="round" stroke-linejoin="round"></path>
                            <path d="M45.7931429,7.3168 C45.7931429,7.3168 43.9396571,9.48891429 43.7958857,11.4356571" id="Path" stroke="#263238" stroke-width="0.5" stroke-linecap="round" stroke-linejoin="round"></path>
                            <path d="M43.6016,13.0054857 C43.6016,13.0054857 42.2066286,35.1968 45.8980571,58.8141714" id="Path" stroke="#263238" stroke-width="0.5" stroke-linecap="round" stroke-linejoin="round"></path>
                            <path d="M44.0406857,38.6473143 C44.0406857,38.6473143 41.0292571,39.6964571 40.9904,41.0564571 C40.8893714,44.7129143 41.2740571,52.5154286 42.0706286,53.2731429 C42.8672,54.0308571 45.3424,52.0258286 45.3424,52.0258286 C45.3424,52.0258286 48.8395429,52.3289143 49.2281143,51.544 C49.6166857,50.7590857 48.1595429,39.712 47.9419429,38.7483429 C47.7243429,37.7846857 44.0406857,38.6473143 44.0406857,38.6473143 Z" id="Path" stroke="#263238" stroke-width="0.5" fill="#ADC7F7" fill-rule="nonzero" stroke-linecap="round" stroke-linejoin="round"></path>
                            <path d="M106.942629,43.9085714 C107.726453,44.2915295 108.578159,44.51601 109.448914,44.5691429 C108.485257,40.9476571 107.393371,36.9142857 106.266514,32.8886857 C105.248457,32.8187429 103.935086,32.8187429 103.962286,33.2772571 C103.981714,34.0621714 105.959543,43.3412571 106.942629,43.9085714 Z" id="Path" stroke="#263238" stroke-width="0.5" fill="#ADC7F7" fill-rule="nonzero" stroke-linecap="round" stroke-linejoin="round"></path>
                            <path d="M43.6093714,39.7897143 C43.6093714,39.7897143 43.7414857,46.784 44.2582857,49.504" id="Path" stroke="#263238" stroke-width="0.5" stroke-linecap="round" stroke-linejoin="round"></path>
                            <path d="M79.9330286,41.4061714 C79.9330286,41.4061714 97.2710857,38.6123429 117.472914,42.1833143" id="Path" stroke="#263238" stroke-width="0.5" stroke-linecap="round" stroke-linejoin="round"></path>
                            <path d="M132.716571,52.36 C133.909486,52.7174857 135.082971,53.0944 136.213714,53.4985143" id="Path" stroke="#263238" stroke-width="0.5" stroke-linecap="round" stroke-linejoin="round"></path>
                            <path d="M101.588114,47.0832 C101.588114,47.0832 115.335771,47.9186286 128.500571,51.2098286" id="Path" stroke="#263238" stroke-width="0.5" stroke-linecap="round" stroke-linejoin="round"></path>
                            <path d="M59.7467429,79.0976 C71.066417,77.3677471 82.5668535,77.1625689 93.9410286,78.4875429" id="Path" stroke="#263238" stroke-width="0.5" stroke-linecap="round" stroke-linejoin="round"></path>
                            <path d="M58.3245714,77.2674286 C58.3245714,77.2674286 66.4612571,76.2493714 69.1074286,76.0473143" id="Path" stroke="#263238" stroke-width="0.5" stroke-linecap="round" stroke-linejoin="round"></path>
                            <path d="M112.817829,1.79908571 C113.983543,1.96617143 115.149257,2.18765714 116.206171,2.44022857" id="Path" stroke="#263238" stroke-width="0.5" stroke-linecap="round" stroke-linejoin="round"></path>
                            <path d="M96.0665143,1.4144 C100.854237,1.07620355 105.660942,1.10868129 110.443657,1.51154286" id="Path" stroke="#263238" stroke-width="0.5" stroke-linecap="round" stroke-linejoin="round"></path>
                            <path d="M33.3744,48.4859429 C33.3744,48.4859429 44.9849143,42.9876571 61.7828571,41.4605714" id="Path" stroke="#263238" stroke-width="0.5" stroke-linecap="round" stroke-linejoin="round"></path>
                            <path d="M52.9273143,38.4025143 C52.9273143,38.4025143 59.9565714,36.5723429 70.6500571,35.9584" id="Path" stroke="#263238" stroke-width="0.5" stroke-linecap="round" stroke-linejoin="round"></path>
                            <path d="M33.184,77.2246857 C34.595048,79.751973 36.8720988,81.6840162 39.5954286,82.6646857" id="Path" stroke="#263238" stroke-width="0.5" stroke-linecap="round" stroke-linejoin="round"></path>
                            <path d="M32.7954286,78.9732571 C32.7954286,78.9732571 34.544,81.6932571 36.8754286,82.8589714" id="Path" stroke="#263238" stroke-width="0.5" stroke-linecap="round" stroke-linejoin="round"></path>
                            <path d="M90.1097143,69.2589714 C90.1097143,69.2589714 91.2754286,74.6989714 95.9382857,77.0304" id="Path" stroke="#263238" stroke-width="0.5" stroke-linecap="round" stroke-linejoin="round"></path>
                            <path d="M90.6925714,74.1161143 C91.6166419,75.4694599 92.8931385,76.5444044 94.384,77.2246857" id="Path" stroke="#263238" stroke-width="0.5" stroke-linecap="round" stroke-linejoin="round"></path>
                            <path d="M13.8176,84.592 C13.8176,84.592 14.9833143,86.5348571 19.0633143,86.5348571" id="Path" stroke="#263238" stroke-width="0.5" stroke-linecap="round" stroke-linejoin="round"></path>
                            <path d="M13.0404571,85.7577143 C14.5268862,86.9938623 16.3590881,87.7403149 18.2861714,87.8948571" id="Path" stroke="#263238" stroke-width="0.5" stroke-linecap="round" stroke-linejoin="round"></path>
                        </g>
                        <g id="freepik--Floor--inject-1--inject-58" transform="translate(10.880000, 112.685714)">
                            <path d="M69.4532571,0.528457143 C59.1334176,1.08984795 48.8894353,2.62241224 38.8571429,5.10582857 L39.0980571,5.4672 C39.0980571,5.4672 47.6466286,3.65257143 63.4459429,7.53828571 C79.2452571,11.424 80.2866286,14.5325714 97.6402286,14.5325714 C114.993829,14.5325714 131.834514,10.3904 131.834514,10.3904 L129.728457,9.22468571 C114.146743,2.63062857 92.7908571,-0.777142857 69.4532571,0.528457143 Z" id="Path" fill="#ADC7F7" fill-rule="nonzero"></path>
                            <path d="M69.4532571,0.528457143 C59.1334176,1.08984795 48.8894353,2.62241224 38.8571429,5.10582857 L39.0980571,5.4672 C39.0980571,5.4672 47.6466286,3.65257143 63.4459429,7.53828571 C79.2452571,11.424 80.2866286,14.5325714 97.6402286,14.5325714 C114.993829,14.5325714 131.834514,10.3904 131.834514,10.3904 L129.728457,9.22468571 C114.146743,2.63062857 92.7908571,-0.777142857 69.4532571,0.528457143 Z" id="Path" fill="#FFFFFF" fill-rule="nonzero" opacity="0.5"></path>
                            <path d="M31.4354286,9.41897143 C31.4354286,9.41897143 51.8354286,6.3104 69.5154286,18.1618286" id="Path" stroke="#263238" stroke-width="0.5" stroke-linecap="round" stroke-linejoin="round"></path>
                            <path d="M52.8068571,13.8875429 C52.8068571,13.8875429 61.1611429,16.4132571 66.2125714,21.8532571" id="Path" stroke="#263238" stroke-width="0.5" stroke-linecap="round" stroke-linejoin="round"></path>
                            <path d="M102.155429,3.97897143 C102.155429,3.97897143 114.006857,5.14468571 124.692571,11.5561143" id="Path" stroke="#263238" stroke-width="0.5" stroke-linecap="round" stroke-linejoin="round"></path>
                            <path d="M139.108571,14.0196571 C141.242732,15.3256171 143.274356,16.7921799 145.185829,18.4066286" id="Path" stroke="#263238" stroke-width="0.5" stroke-linecap="round" stroke-linejoin="round"></path>
                            <path d="M0.0816,23.1860571 C14.2450286,11.1403429 39.8363429,2.2032 69.4532571,0.528457143 C96.4861714,-1.0064 120.869029,3.8352 136.676114,12.5741714" id="Path" stroke="#263238" stroke-width="0.5" stroke-linecap="round" stroke-linejoin="round"></path>
                            <path d="M86.4182857,3.78468571 C86.4182857,3.78468571 98.6582857,4.36754286 106.818286,7.08754286" id="Path" stroke="#263238" stroke-width="0.5" stroke-linecap="round" stroke-linejoin="round"></path>
                        </g>
                        <g id="freepik--Clouds--inject-1--inject-58" transform="translate(1.942857, 0.000000)" fill-rule="nonzero">
                            <path d="M39.8596571,24.2235429 C39.8596571,24.2235429 39.4710857,18.8496 31.6025143,18.6553143 C23.7339429,18.4610286 25.84,24.0331429 23.7300571,25.3776 C21.6201143,26.7220571 21.0411429,24.6004571 18.9273143,25.9526857 C16.8134857,27.3049143 17.7616,29.9860571 16.048,30.3707429 C14.3344,30.7554286 12.0146286,28.6416 9.90468571,29.9821714 C7.79474286,31.3227429 7.79085714,32.4768 6.83108571,32.4768 C5.87131429,32.4768 3.95177143,31.6996571 2.8016,32.4768 C1.65142857,33.2539429 0.303085714,34.1942857 0.303085714,34.1942857 L48.8745143,34.1942857 C48.8745143,34.1942857 49.4496,32.4651429 47.3202286,31.3149714 C45.1908571,30.1648 44.2466286,31.1206857 43.4811429,30.1492571 C42.7156571,29.1778286 45.6182857,26.7220571 39.8596571,24.2235429 Z" id="Path" fill="#ADC7F7"></path>
                            <path d="M68.7188571,3.65645714 C68.7188571,3.65645714 68.4857143,0.423542857 63.7529143,0.306971429 C59.0201143,0.1904 60.2868571,3.54377143 59.0162286,4.352 C57.7456,5.16022857 57.3997714,3.8896 56.1291429,4.69782857 C54.8585143,5.50605714 55.4374857,7.12251429 54.3961143,7.35177143 C53.3547429,7.58102857 51.9714286,6.31428571 50.7008,7.12251429 C49.4301714,7.93074286 49.4301714,8.6224 48.8512,8.6224 C48.2722286,8.6224 47.1181714,8.16388571 46.4265143,8.6224 C45.7348571,9.08091429 44.9266286,9.66377143 44.9266286,9.66377143 L74.1472,9.66377143 C74.1472,9.66377143 74.4930286,8.6224 73.2224,7.93074286 C71.9517714,7.23908571 71.3766857,7.81417143 70.9142857,7.23908571 C70.4518857,6.664 72.1849143,5.16022857 68.7188571,3.65645714 Z" id="Path" fill="#ADC7F7"></path>
                            <path d="M39.8596571,24.2235429 C39.8596571,24.2235429 39.4710857,18.8496 31.6025143,18.6553143 C23.7339429,18.4610286 25.84,24.0331429 23.7300571,25.3776 C21.6201143,26.7220571 21.0411429,24.6004571 18.9273143,25.9526857 C16.8134857,27.3049143 17.7616,29.9860571 16.048,30.3707429 C14.3344,30.7554286 12.0146286,28.6416 9.90468571,29.9821714 C7.79474286,31.3227429 7.79085714,32.4768 6.83108571,32.4768 C5.87131429,32.4768 3.95177143,31.6996571 2.8016,32.4768 C1.65142857,33.2539429 0.303085714,34.1942857 0.303085714,34.1942857 L48.8745143,34.1942857 C48.8745143,34.1942857 49.4496,32.4651429 47.3202286,31.3149714 C45.1908571,30.1648 44.2466286,31.1206857 43.4811429,30.1492571 C42.7156571,29.1778286 45.6182857,26.7220571 39.8596571,24.2235429 Z" id="Path" fill="#FFFFFF" opacity="0.7"></path>
                            <path d="M68.7188571,3.65645714 C68.7188571,3.65645714 68.4857143,0.423542857 63.7529143,0.306971429 C59.0201143,0.1904 60.2868571,3.54377143 59.0162286,4.352 C57.7456,5.16022857 57.3997714,3.8896 56.1291429,4.69782857 C54.8585143,5.50605714 55.4374857,7.12251429 54.3961143,7.35177143 C53.3547429,7.58102857 51.9714286,6.31428571 50.7008,7.12251429 C49.4301714,7.93074286 49.4301714,8.6224 48.8512,8.6224 C48.2722286,8.6224 47.1181714,8.16388571 46.4265143,8.6224 C45.7348571,9.08091429 44.9266286,9.66377143 44.9266286,9.66377143 L74.1472,9.66377143 C74.1472,9.66377143 74.4930286,8.6224 73.2224,7.93074286 C71.9517714,7.23908571 71.3766857,7.81417143 70.9142857,7.23908571 C70.4518857,6.664 72.1849143,5.16022857 68.7188571,3.65645714 Z" id="Path" fill="#FFFFFF" opacity="0.8"></path>
                        </g>
                    </g>
                </g>
            </g>
        </g>
    </g>
</svg>