<?xml version="1.0" encoding="UTF-8"?>
<svg width="145px" height="137px" viewBox="0 0 145 137" version="1.1" xmlns="http://www.w3.org/2000/svg" xmlns:xlink="http://www.w3.org/1999/xlink">
    <title>New message-bro</title>
    <g id="Page-1" stroke="none" stroke-width="1" fill="none" fill-rule="evenodd">
        <g id="hashtag" transform="translate(-304.000000, -2067.000000)">
            <g id="tm" transform="translate(298.000000, 1593.000000)">
                <g id="list" transform="translate(0.000000, 280.000000)">
                    <g id="2" transform="translate(6.000000, 188.000000)">
                        <g id="New-message-bro" transform="translate(0.000000, 6.000000)">
                            <g id="freepik--background-simple--inject-2" transform="translate(7.576602, 0.000000)" fill="#F9FBFF" fill-rule="nonzero">
                                <path d="M121.172591,48.6796657 C120.246682,43.791748 119.063081,38.9561828 117.626741,34.1932033 C113.308078,20.4075766 104.712423,6.45905292 89.949415,1.76913649 C79.0504735,-1.68958217 67.2877994,0.697047354 58.0784401,7.74707521 C43.633649,18.801337 33.1211142,33.886351 17.3163231,43.4593872 C4.12167131,51.4564903 -2.78440111,64.3745961 1.65169916,82.6342061 C6.08779944,100.893816 20.9076323,111.531365 37.1253482,110.239554 C50.6041226,109.152312 64.6966017,110.31532 76.349415,116.857716 C86.763454,122.703064 105.163231,117.615376 120.384624,101.647688 C129.253036,92.3398329 128.393092,80.5051811 125.502618,69.4471309 C123.71454,62.597883 122.55532,55.6122563 121.172591,48.6796657 Z" id="Path"></path>
                            </g>
                            <g id="freepik--Shadow--inject-2" transform="translate(0.000000, 131.075209)" fill-rule="nonzero">
                                <path d="M144.110752,2.45481894 C144.110752,3.6367688 111.910195,4.59899721 72.2012256,4.59899721 C32.4922563,4.59899721 0.287910864,3.6367688 0.287910864,2.45481894 C0.287910864,1.27286908 32.488468,0.310640669 72.2012256,0.310640669 C111.913983,0.310640669 144.110752,1.27286908 144.110752,2.45481894 Z" id="Path" fill="#ADC7F7"></path>
                                <path d="M144.110752,2.45481894 C144.110752,3.6367688 111.910195,4.59899721 72.2012256,4.59899721 C32.4922563,4.59899721 0.287910864,3.6367688 0.287910864,2.45481894 C0.287910864,1.27286908 32.488468,0.310640669 72.2012256,0.310640669 C111.913983,0.310640669 144.110752,1.27286908 144.110752,2.45481894 Z" id="Path" fill="#FFFFFF" opacity="0.3"></path>
                            </g>
                            <g id="freepik--Plants--inject-2" transform="translate(9.849582, 51.899721)">
                                <path d="M120.494485,40.3491922 C120.494485,40.3681337 121.468078,39.3452925 121.521114,39.2733148 C122.138607,38.4474652 122.847019,36.4851253 122.17649,35.5418384 C121.942794,35.2321118 121.588533,35.0362317 121.201959,35.0029935 C120.815384,34.9697553 120.432887,35.102288 120.149749,35.3675766 C119.536045,35.9055153 119.392089,36.9018384 119.445125,37.6708635 C119.509526,38.5724791 120.494485,40.3454039 120.494485,40.3491922 Z" id="Path" fill="#ADC7F7" fill-rule="nonzero"></path>
                                <path d="M129.343955,36.8260724 C128.39688,36.1631198 126.442117,36.8866852 125.620056,37.5079666 C125.548078,37.5647911 124.532813,38.5345961 124.551755,38.5421727 L124.574485,38.5421727 C124.263844,38.6558217 123.934262,38.7770474 123.574373,38.9210028 C122.915209,39.1861838 122.172702,39.4968245 121.384735,39.8832312 C120.5341,40.2968605 119.706988,40.7572104 118.907187,41.2621727 C118.010887,41.8248815 117.166542,42.4663811 116.384178,43.1790529 C116.374411,43.1869126 116.36552,43.1958035 116.35766,43.205571 C116.524345,42.9138719 116.967577,42.0690808 116.994095,42.008468 C117.372925,41.0462396 117.535822,38.9778273 116.641783,38.2391086 C116.332499,38.0032016 115.937581,37.9097381 115.555366,37.9819905 C115.173151,38.0542428 114.839602,38.2854128 114.637772,38.6179387 C114.190752,39.2998329 114.311978,40.296156 114.569582,41.0235097 C114.857493,41.845571 116.164457,43.2017827 116.270529,43.2964903 C115.490375,44.0407544 114.761363,44.8368453 114.088468,45.6793315 C113.709638,46.1680223 113.311866,46.6718663 112.951978,47.1946518 C113.088357,46.9370474 113.209582,46.7021727 113.220947,46.668078 C113.599777,45.7096379 113.762674,43.6374373 112.868635,42.8987187 C112.559974,42.6629448 112.165618,42.5695402 111.783994,42.6418175 C111.40237,42.7140948 111.069481,42.9452352 110.868412,43.2775487 C110.417604,43.9556546 110.542618,44.955766 110.796435,45.6793315 C111.050251,46.4028969 112.148858,47.6 112.440557,47.9068524 L111.997326,48.4902507 C111.315432,49.4411142 110.641114,50.3844011 109.947855,51.3011699 C109.705404,51.6231755 109.455376,51.9338162 109.190195,52.2406685 C109.311421,52.0095822 109.413705,51.8163788 109.42507,51.7860724 C109.8039,50.823844 109.966797,48.7554318 109.072758,47.9977716 C108.763889,47.76067 108.368595,47.666473 107.985991,47.738799 C107.603386,47.8111249 107.269754,48.0431152 107.068747,48.3766017 C106.617939,49.0584958 106.742953,50.0548189 107.000557,50.7821727 C107.258162,51.5095265 108.24312,52.5854039 108.587855,52.9528691 C108.322674,53.2635097 108.057493,53.5703621 107.784735,53.858273 C107.59532,54.0514763 107.428635,54.2371031 107.224067,54.4303064 L106.644457,54.9758217 C106.265627,55.3091922 105.886797,55.6577159 105.489025,55.9759331 C105.223844,56.1994429 104.970028,56.4040111 104.731365,56.6123677 C104.973816,56.2979387 105.443565,55.6652925 105.489025,55.608468 C105.915776,54.8071771 106.129697,53.9097554 106.110306,53.002117 C106.160814,52.9149712 106.203901,52.8237301 106.239109,52.7293593 C106.382303,52.3680813 106.365491,51.9630125 106.192851,51.614843 C106.020211,51.2666736 105.707956,51.0081004 105.333705,50.9033983 C104.197214,50.6268524 102.644011,52.0020056 102.102284,52.8808914 C102.071978,52.9339276 101.784067,53.5324791 101.613593,53.9150975 C101.677994,53.6764345 101.749972,53.4415599 101.814373,53.1953203 C101.950752,52.7066295 102.071978,52.2141504 102.193203,51.68 C102.24624,51.4223955 102.303064,51.1610028 102.359889,50.89961 C102.416713,50.6382173 102.450808,50.357883 102.500056,50.0851253 C102.594763,49.4486908 102.662953,48.8008914 102.719777,48.1455153 C103.147855,48.2629526 104.67454,48.6607242 105.439777,48.5243454 C106.205014,48.3879666 107.140724,48.0470195 107.527131,47.3310306 C107.725072,46.9964584 107.770827,46.5933156 107.6529,46.2228935 C107.534973,45.8524714 107.264572,45.5499797 106.909638,45.3914206 C105.841337,44.9444011 104.087354,46.0695265 103.416825,46.8537047 C103.375153,46.9029526 102.95844,47.5204457 102.73493,47.8651811 C102.765237,47.486351 102.795543,47.0772145 102.814485,46.6756546 C102.859944,45.5391643 102.875097,44.3534262 102.894039,43.1866295 C102.894039,42.8305292 102.894039,42.474429 102.916769,42.1183287 C103.068301,42.16 104.87532,42.6714206 105.731476,42.5388301 C106.489136,42.4251811 107.432423,42.0652925 107.822618,41.3455153 C108.017859,41.0099275 108.061702,40.6073079 107.943268,40.2375625 C107.824834,39.8678171 107.555223,39.5656008 107.201337,39.4059053 C106.136825,38.9626741 104.379053,40.0877994 103.708524,40.8719777 C103.659276,40.9288022 103.060724,41.8190529 102.916769,42.0539276 C102.93571,41.2697493 102.962228,40.485571 103.019053,39.716546 C103.092156,38.6770697 103.231342,37.6432996 103.435766,36.6215042 C103.507744,36.6215042 105.390529,37.1821727 106.269415,37.0457939 C107.027075,36.9321448 107.966574,36.5722563 108.356769,35.8524791 C108.552243,35.5173738 108.596636,35.1151538 108.478949,34.7454846 C108.361261,34.3758154 108.092505,34.0732894 107.739276,33.9128691 C106.670975,33.4696379 104.913203,34.5909749 104.246462,35.3789415 C104.201003,35.4281894 103.742618,36.1062953 103.534262,36.4320891 L103.473649,36.4093593 C103.707788,35.3858277 104.033635,34.3854636 104.447242,33.42039 C104.666964,32.8862396 104.905627,32.3899721 105.151866,31.9050696 C105.492813,32.0414485 107.046017,32.6627298 107.856713,32.6172702 C108.667409,32.5718106 109.599331,32.3293593 110.065292,31.6588301 C110.296575,31.3470715 110.384898,30.9518992 110.308353,30.5713395 C110.231807,30.1907797 109.997565,29.8604877 109.663733,29.6623955 C108.652256,29.1055153 106.780836,30.0412256 106.030752,30.7344847 C105.989081,30.7723677 105.617827,31.2080223 105.348858,31.5300279 C105.462507,31.317883 105.576156,31.0943733 105.689805,30.889805 C106.114095,30.1321448 106.545961,29.4502507 106.936156,28.8554875 C107.159666,28.522117 107.368022,28.2228412 107.568802,27.942507 C107.970362,27.904624 109.599331,27.7189972 110.285014,27.3288022 C110.970696,26.9386072 111.69805,26.2718663 111.800334,25.4611699 C111.8634,25.0779717 111.760107,24.6860613 111.516359,24.3837279 C111.272612,24.0813946 110.911532,23.8973167 110.523677,23.8776602 C109.368245,23.8473538 108.137047,25.525571 107.7961,26.4991643 C107.765794,26.5862953 107.455153,27.9538719 107.474095,27.9500836 L107.500613,27.9500836 C107.303621,28.202637 107.095265,28.4905478 106.875543,28.8138162 C106.470195,29.4010028 106.019387,30.0677437 105.579944,30.8254039 C105.096348,31.6380885 104.659971,32.477957 104.272981,33.3408357 C103.836702,34.3059569 103.485581,35.3073503 103.223621,36.3335933 C103.225741,36.3461321 103.225741,36.3589376 103.223621,36.3714763 C103.223621,36.0343175 103.109972,35.0910306 103.094819,35.0190529 C102.882674,34.0113649 101.871198,32.1854039 100.723343,32.0717549 C100.335906,32.0424794 99.9543064,32.1793855 99.6738448,32.4482816 C99.3933832,32.7171778 99.2405382,33.0926778 99.2534819,33.4810028 C99.2534819,34.2954875 99.9088579,35.0607242 100.522563,35.5228969 C101.215822,36.0494708 103.053148,36.4623955 103.200891,36.4927019 C102.963166,37.5450277 102.794855,38.611839 102.697047,39.6862396 C102.640223,40.3113092 102.598552,40.9401671 102.564457,41.58039 C102.537939,41.2886908 102.511421,41.0272981 102.503844,40.9932033 C102.287911,39.981727 101.276435,38.1595543 100.128579,38.042117 C99.7411432,38.0128415 99.3595432,38.1497476 99.0790816,38.4186437 C98.79862,38.6875399 98.645775,39.0630399 98.6587187,39.4513649 C98.6587187,40.2658496 99.3140947,41.0310864 99.9277994,41.4970474 C100.541504,41.9630084 102.113649,42.349415 102.526574,42.4479109 C102.526574,42.6903621 102.503844,42.9328134 102.496267,43.1752646 C102.450808,44.3420613 102.412925,45.5088579 102.340947,46.6491365 C102.314429,47.0506964 102.272758,47.448468 102.234875,47.8424513 C102.212145,47.5848468 102.185627,47.3651253 102.181838,47.3348189 C101.965905,46.3233426 100.954429,44.5011699 99.8065738,44.3837326 C99.4191376,44.3544571 99.0375376,44.4913632 98.757076,44.7602593 C98.4766144,45.0291555 98.3237694,45.4046555 98.3367131,45.7929805 C98.3367131,46.6112535 98.9920891,47.3727019 99.6057939,47.838663 C100.219499,48.304624 101.640111,48.6569359 102.128802,48.770585 C102.079554,49.1759331 102.026518,49.5812813 101.958329,49.967688 C101.905292,50.2328691 101.874986,50.4942618 101.806797,50.7556546 L101.624958,51.5133148 C101.488579,52.0020056 101.355989,52.5096379 101.212033,52.9831755 C101.113538,53.3127577 101.015042,53.6271866 100.916546,53.9454039 C100.946852,53.543844 100.988524,52.7596657 100.984735,52.6914763 C100.927911,51.6648468 100.204345,49.7062953 99.090585,49.4183844 C98.7124925,49.3318299 98.3154304,49.4098975 97.9982505,49.6331517 C97.6810705,49.856406 97.4736111,50.2038443 97.4275209,50.5889694 C97.302507,51.3958774 97.8328691,52.2482451 98.3708078,52.801337 C98.9087465,53.354429 100.643788,54.0779944 100.855933,54.161337 C100.689248,54.6841226 100.526351,55.1879666 100.363454,55.6766574 C99.7989972,57.3245682 99.2686351,58.6769916 98.8860167,59.6164903 C98.8860167,59.650585 98.8594986,59.6808914 98.8443454,59.7111978 L99.5338162,60.0900279 C99.556546,60.029415 99.5830641,59.9688022 99.6057939,59.9044011 C99.984624,58.945961 100.480891,57.5670195 101.011253,55.8888022 C101.181727,55.3584401 101.352201,54.790195 101.522674,54.2030084 C102.100781,54.2753947 102.682681,54.3133447 103.265292,54.3166574 C103.473649,55.1614485 104.439666,56.5479666 104.56468,56.7260167 C104.14039,57.0707521 103.723677,57.4041226 103.325905,57.7109749 C101.946964,58.7754875 100.757437,59.6051253 99.9164345,60.1809471 L99.8179387,60.2491365 L100.575599,60.6658496 C101.393872,60.078663 102.469749,59.2641783 103.746407,58.2489136 C104.178273,57.90039 104.636657,57.5177716 105.09883,57.1124234 C105.269304,57.2563788 106.652033,58.4307521 107.470306,58.6656267 C108.209025,58.8777716 109.212925,58.945961 109.864513,58.4572702 C110.18289,58.2353367 110.391981,57.8885835 110.439673,57.5034285 C110.487366,57.1182736 110.369169,56.7309932 110.11454,56.4381058 C109.33415,55.5857382 107.269526,55.8698607 106.32624,56.301727 C106.273203,56.3282451 105.704958,56.6805571 105.348858,56.8927019 C105.538273,56.729805 105.727688,56.5744847 105.913315,56.4040111 C106.292145,56.074429 106.670975,55.7296936 107.072535,55.3584401 L107.64078,54.8015599 C107.833983,54.6159331 108.01961,54.4 108.209025,54.1992201 C108.640891,53.7218942 109.053816,53.2180501 109.459164,52.7028412 C109.754652,53.0362117 110.811588,54.2181616 111.512423,54.5363788 C112.213259,54.8545961 113.194429,55.0743175 113.914206,54.6916992 C114.261829,54.5196897 114.520359,54.2085244 114.625765,53.8352705 C114.731172,53.4620166 114.673596,53.0615835 114.467298,52.7331476 C113.823287,51.7747075 111.739721,51.7406128 110.747187,52.0247354 C110.682786,52.0436769 109.989526,52.3277994 109.610696,52.4906964 C109.849359,52.1800557 110.095599,51.869415 110.326685,51.5436212 C111.004791,50.6079109 111.660167,49.6494708 112.319331,48.6796657 L112.929248,47.8007799 C113.031532,47.9182173 114.258942,49.3426184 115.046908,49.6949304 C115.743955,50.0169359 116.725125,50.2366574 117.444903,49.8502507 C117.79429,49.6800437 118.054463,49.3688585 118.160084,48.994845 C118.265705,48.6208314 118.206739,48.2195217 117.997994,47.8916992 C117.353983,46.9332591 115.270418,46.8991643 114.277883,47.1870752 C114.205905,47.2060167 113.21337,47.6189415 112.967131,47.7363788 C113.41415,47.0923677 113.868747,46.4521448 114.342284,45.8422284 C114.973605,45.0132449 115.659549,44.2273202 116.395543,43.4896936 C116.444791,43.5465181 117.71766,45.0353203 118.52078,45.4065738 C119.221616,45.7323677 120.202786,45.9483008 120.922563,45.5656825 C121.271064,45.3945687 121.530411,45.0833937 121.635924,44.7097626 C121.741437,44.3361315 121.68317,43.9352629 121.475655,43.6071309 C120.831643,42.6449025 118.748078,42.6145961 117.755543,42.8987187 C117.691142,42.9176602 116.93727,43.2320891 116.58117,43.3874095 L116.543287,43.330585 C117.303521,42.6088392 118.126281,41.9559555 119.001894,41.37961 C119.483008,41.0538162 119.956546,40.7696936 120.426295,40.5083008 C120.634652,40.8075766 121.600669,42.1751532 122.290139,42.5918663 C122.97961,43.0085794 123.900167,43.3154318 124.657827,43.0123677 C125.023944,42.8793659 125.315972,42.5965516 125.460639,42.234885 C125.605305,41.8732184 125.588881,41.4670234 125.415487,41.1182173 C124.881337,40.0915877 122.812925,39.8339833 121.79766,40.0082451 C121.740836,40.0082451 121.187744,40.1749304 120.789972,40.296156 L121.426407,39.9476323 C122.203008,39.5460724 122.941727,39.2202786 123.589526,38.9399443 C123.968357,38.784624 124.301727,38.6482451 124.619944,38.5270195 C124.979833,38.7164345 126.43454,39.4627298 127.222507,39.5119777 C128.010474,39.5612256 128.987855,39.4096936 129.518217,38.7922006 C129.763262,38.5115599 129.883202,38.1430921 129.85031,37.7719799 C129.817418,37.4008677 129.63454,37.0592392 129.343955,36.8260724 Z" id="Path" fill="#ADC7F7" fill-rule="nonzero"></path>
                                <path d="M102.73493,30.0639554 C103.284234,30.7837326 105.083677,31.7194429 105.087465,31.7194429 C105.091253,31.7194429 105.34507,30.348078 105.348858,30.2571588 C105.409471,29.2267409 104.916992,27.2037883 103.833538,26.7870752 C103.467449,26.6571723 103.063389,26.6890831 102.72223,26.8748416 C102.381071,27.0606 102.135004,27.3826769 102.04546,27.7606685 C101.833315,28.5448468 102.284123,29.454039 102.73493,30.0639554 Z" id="Path" fill="#ADC7F7" fill-rule="nonzero"></path>
                                <g id="Group" opacity="0.5" transform="translate(97.359331, 23.866295)" fill="#FFFFFF" fill-rule="nonzero">
                                    <path d="M23.1351532,16.4828969 C23.1351532,16.5018384 24.1087465,15.4789972 24.1617827,15.4070195 C24.7792758,14.5811699 25.487688,12.6188301 24.8171588,11.6755432 C24.5834621,11.3658165 24.2292019,11.1699364 23.8426273,11.1366982 C23.4560526,11.1034601 23.073555,11.2359928 22.7904178,11.5012813 C22.1767131,12.0392201 22.0327577,13.0355432 22.0857939,13.8045682 C22.150195,14.7061838 23.1351532,16.4791086 23.1351532,16.4828969 Z" id="Path"></path>
                                    <path d="M31.984624,12.9597772 C31.0375487,12.2968245 29.0827855,13.02039 28.2607242,13.6416713 C28.1887465,13.6984958 27.1734819,14.6683008 27.1924234,14.6758774 L27.2151532,14.6758774 C26.9045125,14.7895265 26.5749304,14.9107521 26.2150418,15.0547075 C25.5558774,15.3198886 24.8133705,15.6305292 24.0254039,16.0169359 C23.1747688,16.4305652 22.3476566,16.8909151 21.5478552,17.3958774 C20.6515557,17.9585862 19.8072104,18.6000859 19.0248468,19.3127577 C19.0150793,19.3206174 19.0061884,19.3295082 18.9983287,19.3392758 C19.1650139,19.0475766 19.6082451,18.2027855 19.6347632,18.1421727 C20.0135933,17.1799443 20.1764903,15.111532 19.2824513,14.3728134 C18.9731671,14.1369064 18.57825,14.0434428 18.1960349,14.1156952 C17.8138197,14.1879476 17.4802701,14.4191175 17.2784401,14.7516435 C16.8314206,15.4335376 16.9526462,16.4298607 17.2102507,17.1572145 C17.4981616,17.9792758 18.8051253,19.3354875 18.9111978,19.430195 C18.1310431,20.1744591 17.4020313,20.9705501 16.7291365,21.8130362 C16.3503064,22.301727 15.9525348,22.805571 15.5926462,23.3283565 C15.7290251,23.0707521 15.8502507,22.8358774 15.8616156,22.8017827 C16.2404457,21.8433426 16.4033426,19.7711421 15.5093036,19.0324234 C15.2006425,18.7966496 14.8062867,18.703245 14.4246626,18.7755223 C14.0430385,18.8477996 13.7101495,19.0789399 13.5090808,19.4112535 C13.058273,20.0893593 13.1832869,21.0894708 13.4371031,21.8130362 C13.6909192,22.5366017 14.7895265,23.7337047 15.0812256,24.0405571 L14.6379944,24.6239554 C13.9561003,25.5748189 13.2817827,26.5181058 12.5885237,27.4348747 C12.3460724,27.7568802 12.0960446,28.0675209 11.8308635,28.3743733 C11.9520891,28.1432869 12.0543733,27.9500836 12.0657382,27.9197772 C12.4445682,26.9575487 12.6074652,24.8891365 11.7134262,24.1314763 C11.4045572,23.8943748 11.0092637,23.8001777 10.6266592,23.8725037 C10.2440548,23.9448297 9.91042236,24.1768199 9.70941504,24.5103064 C9.25860724,25.1922006 9.38362117,26.1885237 9.64122563,26.9158774 C9.89883008,27.6432312 10.8837883,28.7191086 11.2285237,29.0865738 C10.9633426,29.3972145 10.6981616,29.7040669 10.4254039,29.9919777 C10.2359889,30.1851811 10.0693036,30.3708078 9.86473538,30.5640111 L9.28512535,31.1095265 C8.90629526,31.4428969 8.52746518,31.7914206 8.12969359,32.1096379 C7.86451253,32.3331476 7.61069638,32.5377159 7.37203343,32.7460724 C7.61448468,32.4316435 8.08423398,31.7989972 8.12969359,31.7421727 C8.55644474,30.9408819 8.77036503,30.0434602 8.75097493,29.1358217 C8.80148299,29.0486759 8.84456905,28.9574349 8.87977716,28.8630641 C9.02297198,28.501786 9.00615981,28.0967173 8.83351976,27.7485478 C8.6608797,27.4003783 8.34862459,27.1418051 7.97437326,27.0371031 C6.83788301,26.7605571 5.28467967,28.1357103 4.74295265,29.0145961 C4.71264624,29.0676323 4.42473538,29.6661838 4.25426184,30.0488022 C4.31866295,29.8101393 4.39064067,29.5752646 4.45504178,29.3290251 C4.59142061,28.8403343 4.71264624,28.3478552 4.83387187,27.8137047 C4.88690808,27.5561003 4.94373259,27.2947075 5.0005571,27.0333148 C5.05738162,26.771922 5.09147632,26.4915877 5.14072423,26.2188301 C5.23543175,25.5823955 5.30362117,24.9345961 5.36044568,24.2792201 C5.78852368,24.3966574 7.31520891,24.794429 8.08044568,24.6580501 C8.84568245,24.5216713 9.78139276,24.1807242 10.1677994,23.4647354 C10.3657408,23.1301631 10.4114959,22.7270203 10.2935686,22.3565982 C10.1756412,21.9861761 9.90524077,21.6836844 9.55030641,21.5251253 C8.48200557,21.0781058 6.72802228,22.2032312 6.05749304,22.9874095 C6.01582173,23.0366574 5.59910864,23.6541504 5.37559889,23.9988858 C5.40590529,23.6200557 5.4362117,23.2109192 5.4551532,22.8093593 C5.50061281,21.6728691 5.51576602,20.4871309 5.53470752,19.3203343 C5.53470752,18.964234 5.53470752,18.6081337 5.55743733,18.2520334 C5.70896936,18.2937047 7.51598886,18.8051253 8.37214485,18.6725348 C9.12980501,18.5588858 10.0730919,18.1989972 10.4632869,17.4792201 C10.6585279,17.1436322 10.702371,16.7410126 10.5839369,16.3712672 C10.4655028,16.0015219 10.195892,15.6993055 9.84200557,15.53961 C8.77749304,15.0963788 7.01972145,16.2215042 6.3491922,17.0056825 C6.29994429,17.062507 5.70139276,17.9527577 5.55743733,18.1876323 C5.57637883,17.403454 5.60289694,16.6192758 5.65972145,15.8502507 C5.73282499,14.8107744 5.87201067,13.7770044 6.07643454,12.7552089 C6.14841226,12.7552089 8.03119777,13.3158774 8.91008357,13.1794986 C9.66774373,13.0658496 10.6072423,12.705961 10.9974373,11.9861838 C11.1929116,11.6510786 11.237305,11.2488586 11.1196173,10.8791893 C11.0019296,10.5095201 10.7331737,10.2069941 10.3799443,10.0465738 C9.31164345,9.60334262 7.55387187,10.7246797 6.88713092,11.5126462 C6.84167131,11.5618942 6.38328691,12.24 6.17493036,12.5657939 L6.11431755,12.5430641 C6.34845626,11.5195324 6.67430363,10.5191683 7.08791086,9.55409471 C7.30763231,9.01994429 7.54629526,8.52367688 7.79253482,8.03877437 C8.13348189,8.1751532 9.68668524,8.79643454 10.4973816,8.75097493 C11.308078,8.70551532 12.24,8.46306407 12.705961,7.79253482 C12.9372432,7.4807762 13.0255664,7.08560396 12.9490212,6.7050442 C12.872476,6.32448443 12.638234,5.99419248 12.3044011,5.79610028 C11.2929248,5.23922006 9.42150418,6.17493036 8.67142061,6.86818942 C8.6297493,6.90607242 8.25849582,7.34172702 7.98952646,7.66373259 C8.10317549,7.45158774 8.21682451,7.22807799 8.33047354,7.02350975 C8.75476323,6.26584958 9.18662953,5.58395543 9.57682451,4.9891922 C9.80033426,4.65582173 10.0086908,4.35654596 10.2094708,4.0762117 C10.6110306,4.03832869 12.24,3.85270195 12.9256825,3.46250696 C13.6113649,3.07231198 14.3387187,2.40557103 14.4410028,1.59487465 C14.5040686,1.21167643 14.4007751,0.819766003 14.1570279,0.517432648 C13.9132806,0.215099292 13.5522008,0.0310214239 13.1643454,0.0113649025 C12.0089136,-0.0189415042 10.7777159,1.65927577 10.4367688,2.63286908 C10.4064624,2.72 10.0958217,4.0875766 10.1147632,4.0837883 L10.1412813,4.0837883 C9.94428969,4.33634169 9.73593315,4.62425255 9.5162117,4.94752089 C9.11086351,5.53470752 8.66005571,6.20144847 8.22061281,6.95910864 C7.73701695,7.7717932 7.30063947,8.61166175 6.91364903,9.47454039 C6.47737093,10.4396616 6.12624944,11.4410551 5.86428969,12.4672981 C5.86640913,12.4798368 5.86640913,12.4926423 5.86428969,12.5051811 C5.86428969,12.1680223 5.75064067,11.2247354 5.73548747,11.1527577 C5.52334262,10.1450696 4.5118663,8.31910864 3.36401114,8.20545961 C2.97657498,8.17618412 2.59497492,8.3130902 2.31451335,8.58198635 C2.03405177,8.8508825 1.88120674,9.22638253 1.89415042,9.61470752 C1.89415042,10.4291922 2.54952646,11.194429 3.1632312,11.6566017 C3.85649025,12.1831755 5.69381616,12.5961003 5.84155989,12.6264067 C5.60383439,13.6787324 5.4355237,14.7455438 5.33771588,15.8199443 C5.28089136,16.4450139 5.23922006,17.0738719 5.20512535,17.7140947 C5.17860724,17.4223955 5.15208914,17.1610028 5.14451253,17.1269081 C4.92857939,16.1154318 3.91710306,14.2932591 2.76924791,14.1758217 C2.38181174,14.1465462 2.00021169,14.2834523 1.71975011,14.5523485 C1.43928854,14.8212446 1.28644351,15.1967446 1.29938719,15.5850696 C1.29938719,16.3995543 1.95476323,17.1647911 2.56846797,17.6307521 C3.1821727,18.0967131 4.75431755,18.4831198 5.16724234,18.5816156 C5.16724234,18.8240669 5.14451253,19.0665181 5.13693593,19.3089694 C5.09147632,20.475766 5.05359331,21.6425627 4.9816156,22.7828412 C4.95509749,23.1844011 4.91342618,23.5821727 4.87554318,23.976156 C4.85281337,23.7185515 4.82629526,23.4988301 4.82250696,23.4685237 C4.60657382,22.4570474 3.59509749,20.6348747 2.44724234,20.5174373 C2.05980617,20.4881618 1.67820612,20.6250679 1.39774454,20.8939641 C1.11728297,21.1628602 0.964437943,21.5383602 0.977381616,21.9266852 C0.977381616,22.7449582 1.63275766,23.5064067 2.2464624,23.9723677 C2.86016713,24.4383287 4.28077994,24.7906407 4.76947075,24.9042897 C4.72022284,25.3096379 4.66718663,25.7149861 4.59899721,26.1013928 C4.545961,26.3665738 4.5156546,26.6279666 4.44746518,26.8893593 L4.26562674,27.6470195 C4.12924791,28.1357103 3.99665738,28.6433426 3.85270195,29.1168802 C3.75420613,29.4464624 3.65571031,29.7608914 3.55721448,30.0791086 C3.58752089,29.6775487 3.6291922,28.8933705 3.6254039,28.8251811 C3.56857939,27.7985515 2.84501393,25.84 1.73125348,25.5520891 C1.35316104,25.4655346 0.956098973,25.5436022 0.638919011,25.7668565 C0.321739048,25.9901107 0.114279631,26.3375491 0.068189415,26.7226741 C-0.0568245125,27.5295822 0.473537604,28.3819499 1.01147632,28.9350418 C1.54941504,29.4881337 3.28445682,30.2116992 3.49660167,30.2950418 C3.32991643,30.8178273 3.1670195,31.3216713 3.00412256,31.8103621 C2.43966574,33.458273 1.90930362,34.8106964 1.52668524,35.750195 C1.52668524,35.7842897 1.50016713,35.8145961 1.48501393,35.8449025 L2.17448468,36.2237326 C2.19721448,36.1631198 2.22373259,36.102507 2.2464624,36.0381058 C2.62529248,35.0796657 3.12155989,33.7007242 3.65192201,32.022507 C3.82239554,31.4921448 3.99286908,30.9238997 4.16334262,30.3367131 C4.74144965,30.4090994 5.32334917,30.4470494 5.905961,30.4503621 C6.11431755,31.2951532 7.08033426,32.6816713 7.20534819,32.8597214 C6.7810585,33.2044568 6.3643454,33.5378273 5.96657382,33.8446797 C4.58763231,34.9091922 3.39810585,35.7388301 2.55710306,36.3146518 L2.45860724,36.3828412 L3.21626741,36.7995543 C4.03454039,36.2123677 5.11041783,35.397883 6.38707521,34.3826184 C6.8189415,34.0340947 7.27732591,33.6514763 7.73949861,33.2461281 C7.90997214,33.3900836 9.29270195,34.5644568 10.1109749,34.7993315 C10.8496936,35.0114763 11.8535933,35.0796657 12.5051811,34.5909749 C12.8235589,34.3690415 13.032649,34.0222882 13.0803418,33.6371333 C13.1280345,33.2519783 13.0098379,32.864698 12.7552089,32.5718106 C11.9748189,31.7194429 9.91019499,32.0035655 8.96690808,32.4354318 C8.91387187,32.4619499 8.34562674,32.8142618 7.98952646,33.0264067 C8.1789415,32.8635097 8.36835655,32.7081894 8.55398329,32.5377159 C8.93281337,32.2081337 9.31164345,31.8633983 9.71320334,31.4921448 L10.2814485,30.9352646 C10.4746518,30.7496379 10.6602786,30.5337047 10.8496936,30.3329248 C11.2815599,29.8555989 11.6944847,29.3517549 12.0998329,28.836546 C12.3953203,29.1699164 13.4522563,30.3518663 14.1530919,30.6700836 C14.8539276,30.9883008 15.8350975,31.2080223 16.5548747,30.8254039 C16.9024976,30.6533944 17.1610276,30.3422291 17.2664339,29.9689752 C17.3718403,29.5957213 17.3142645,29.1952883 17.1079666,28.8668524 C16.4639554,27.9084123 14.38039,27.8743175 13.3878552,28.1584401 C13.323454,28.1773816 12.630195,28.4615042 12.2513649,28.6244011 C12.4900279,28.3137604 12.7362674,28.0031198 12.9673538,27.6773259 C13.6454596,26.7416156 14.3008357,25.7831755 14.96,24.8133705 L15.5699164,23.9344847 C15.6722006,24.051922 16.89961,25.4763231 17.6875766,25.8286351 C18.384624,26.1506407 19.3657939,26.3703621 20.085571,25.9839554 C20.4349583,25.8137484 20.6951318,25.5025632 20.8007527,25.1285497 C20.9063735,24.7545362 20.8474075,24.3532264 20.638663,24.0254039 C19.9946518,23.0669638 17.9110864,23.0328691 16.9185515,23.3207799 C16.8465738,23.3397214 15.854039,23.7526462 15.6077994,23.8700836 C16.0548189,23.2260724 16.509415,22.5858496 16.9829526,21.9759331 C17.6142738,21.1469497 18.3002178,20.3610249 19.0362117,19.6233983 C19.0854596,19.6802228 20.3583287,21.1690251 21.1614485,21.5402786 C21.8622841,21.8660724 22.843454,22.0820056 23.5632312,21.6993872 C23.9117326,21.5282734 24.1710795,21.2170984 24.2765923,20.8434673 C24.3821051,20.4698363 24.3238383,20.0689676 24.1163231,19.7408357 C23.472312,18.7786072 21.3887465,18.7483008 20.3962117,19.0324234 C20.3318106,19.0513649 19.5779387,19.3657939 19.2218384,19.5211142 L19.1839554,19.4642897 C19.9441893,18.742544 20.7669496,18.0896602 21.6425627,17.5133148 C22.1236769,17.1875209 22.5972145,16.9033983 23.0669638,16.6420056 C23.2753203,16.9412813 24.241337,18.3088579 24.9308078,18.725571 C25.6202786,19.1422841 26.5408357,19.4491365 27.2984958,19.1460724 C27.6646128,19.0130706 27.9566406,18.7302563 28.1013072,18.3685897 C28.2459739,18.0069232 28.2295498,17.6007282 28.056156,17.251922 C27.5220056,16.2252925 25.4535933,15.967688 24.4383287,16.1419499 C24.3815042,16.1419499 23.8284123,16.3086351 23.4306407,16.4298607 L24.0670752,16.081337 C24.8436769,15.6797772 25.5823955,15.3539833 26.230195,15.073649 C26.6090251,14.9183287 26.9423955,14.7819499 27.2606128,14.6607242 C27.6205014,14.8501393 29.0752089,15.5964345 29.8631755,15.6456825 C30.6511421,15.6949304 31.6285237,15.5433983 32.1588858,14.9259053 C32.4039307,14.6452646 32.5238709,14.2767968 32.4909785,13.9056846 C32.4580861,13.5345724 32.2752086,13.1929439 31.984624,12.9597772 Z" id="Path"></path>
                                    <path d="M5.37559889,6.19766017 C5.92490251,6.91743733 7.7243454,7.85314763 7.7281337,7.85314763 C7.73192201,7.85314763 7.98573816,6.48178273 7.98952646,6.39086351 C8.05013928,5.36044568 7.55766017,3.33749304 6.47420613,2.92077994 C6.10811709,2.790877 5.70405796,2.82278788 5.36289852,3.00854631 C5.02173907,3.19430473 4.77567286,3.51638159 4.68612813,3.89437326 C4.47398329,4.67855153 4.92479109,5.58774373 5.37559889,6.19766017 Z" id="Path"></path>
                                </g>
                                <path d="M28.7910864,10.9103064 C28.8138162,10.9103064 28.4955989,9.32300836 28.4615042,9.22830084 C28.0826741,8.09181058 26.7188858,6.11810585 25.3854039,6.1218887 C24.9374829,6.13592695 24.5166005,6.33954356 24.2275811,6.68203149 C23.9385618,7.02451941 23.8086072,7.47364469 23.8700836,7.91754875 C23.9685794,8.85325905 24.8095822,9.65259053 25.5710306,10.1109749 C26.457493,10.6527019 28.7910864,10.9103064 28.7910864,10.9103064 Z" id="Path" fill="#ADC7F7" fill-rule="nonzero"></path>
                                <path d="M31.3709192,0.223509749 C30.1132033,0.674317549 29.4767688,3.00033426 29.529805,4.18986072 C29.529805,4.29214485 29.768468,5.8945961 29.7911978,5.8832312 L29.8177159,5.8832312 C29.7154318,6.26206128 29.6131476,6.64089136 29.5070752,7.07654596 C29.3176602,7.87587744 29.1282451,8.78128134 28.9539833,9.78139276 C28.7740894,10.8585371 28.6551998,11.9449853 28.597883,13.0355432 C28.5313738,14.2554126 28.5732091,15.4787773 28.7228969,16.6912535 C28.7247219,16.7063517 28.7247219,16.7216148 28.7228969,16.7367131 C28.56,16.3806128 28.0675209,15.4070195 28.018273,15.3350418 C27.3666852,14.3387187 25.5179944,12.7968802 24.2299721,13.1529805 C23.8019354,13.285489 23.4500748,13.5931361 23.2616174,13.9996551 C23.0731601,14.4061742 23.0657506,14.8735046 23.2412256,15.2857939 C23.5821727,16.1608914 24.6050139,16.710195 25.4611699,16.9526462 C26.4271866,17.2291922 28.5789415,16.9033983 28.749415,16.8768802 C28.931391,18.1080279 29.1959054,19.3255533 29.5411699,20.5212256 C29.7381616,21.218273 29.957883,21.9153203 30.1889694,22.6123677 C30.0374373,22.3093036 29.8972702,22.0403343 29.8745404,22.0062396 C29.2191643,21.0099164 27.3742618,19.468078 26.0862396,19.8241783 C25.65773,19.9547767 25.3050497,20.2615683 25.1163623,20.6678607 C24.927675,21.074153 24.9208134,21.5415473 25.097493,21.9532033 C25.4384401,22.8320891 26.4612813,23.3813928 27.3174373,23.623844 C28.1735933,23.8662953 30.0222841,23.623844 30.5109749,23.5594429 C30.6018942,23.824624 30.6890251,24.0935933 30.7799443,24.3587744 C31.2193872,25.6316435 31.6664067,26.9045125 32.0641783,28.1470752 C32.2043454,28.5903064 32.325571,29.0335376 32.4430084,29.4729805 C32.3066295,29.2040111 32.1929805,28.9805014 32.1702507,28.950195 C31.518663,27.9538719 29.6699721,26.4120334 28.3819499,26.7681337 C27.9534403,26.8987322 27.60076,27.2055238 27.4120726,27.6118161 C27.2233853,28.0181084 27.2165238,28.4855027 27.3932033,28.8971588 C27.7341504,29.7760446 28.7569916,30.3253482 29.6131476,30.5677994 C30.4693036,30.8102507 32.1399443,30.5981058 32.7195543,30.5147632 C32.8332033,30.9731476 32.9468524,31.4277437 33.0339833,31.8747632 C33.0908078,32.1816156 33.1627855,32.4733148 33.2006685,32.7877437 C33.2385515,33.1021727 33.2840111,33.3976602 33.3294708,33.6969359 C33.3900836,34.2803343 33.4544847,34.8826741 33.4999443,35.4547075 C33.534039,35.8335376 33.5567688,36.2123677 33.5832869,36.5911978 C33.4506964,36.1479666 33.1665738,35.284234 33.1362674,35.2160446 C32.6645567,34.2796511 31.9617671,33.4790708 31.0943733,32.8900279 C31.0459895,32.7837287 30.9876414,32.6822538 30.9201114,32.5869638 C30.6774091,32.2096673 30.2860606,31.9530229 29.8432966,31.8807938 C29.4005325,31.8085648 28.9479099,31.9275304 28.597883,32.2081337 C27.590195,33.0832312 27.8402228,35.473649 28.3061838,36.5722563 C28.3327019,36.6366574 28.711532,37.3033983 28.9539833,37.7087465 C28.7721448,37.4852368 28.6016713,37.2655153 28.4122563,37.034429 C28.0334262,36.5836212 27.6545961,36.14039 27.2454596,35.6630641 L26.62039,34.9849582 C26.4158217,34.7538719 26.1733705,34.5379387 25.9460724,34.3106407 C25.4157103,33.7954318 24.8474652,33.2991643 24.2678552,32.7953203 C24.6466852,32.4695265 26.0559331,31.28 26.457493,30.4958217 C26.8590529,29.7116435 27.1393872,28.5751532 26.7226741,27.7303621 C26.5383857,27.3218061 26.1888545,27.0110455 25.7615385,26.8758372 C25.3342225,26.7406289 24.8695498,26.7937649 24.4837883,27.0219499 C23.3472981,27.7303621 23.2412256,30.1321448 23.5329248,31.2875766 C23.5518663,31.3595543 23.8549304,32.1626741 24.0291922,32.602117 C23.6768802,32.3142061 23.3283565,32.022507 22.9646797,31.7383844 C21.9077437,30.9238997 20.8167131,30.1321448 19.7294708,29.3366017 C19.3961003,29.0941504 19.0665181,28.8441226 18.7369359,28.6016713 C18.8808914,28.484234 20.5666852,27.124234 21.0099164,26.230195 C21.407688,25.4346518 21.6955989,24.3095265 21.2788858,23.4647354 C21.0945974,23.0561793 20.7450662,22.7454187 20.3177502,22.6102105 C19.8904342,22.4750022 19.4257615,22.5281382 19.04,22.7563231 C17.9035097,23.4647354 17.793649,25.8665181 18.0891365,27.0219499 C18.0891365,27.1090808 18.5475209,28.2683008 18.6725348,28.5562117 C17.9451811,28.0144847 17.2291922,27.4689694 16.5397214,26.9007242 C15.6043006,26.1398837 14.7185521,25.3199336 13.8879109,24.4459053 C13.9561003,24.3928691 15.7214485,22.9798329 16.1608914,22.0630641 C16.558663,21.2675209 16.8465738,20.1423955 16.4298607,19.2976045 C16.2455723,18.8890484 15.8960411,18.5782878 15.4687251,18.4430795 C15.0414091,18.3078713 14.5767364,18.3610073 14.1909749,18.5891922 C13.0544847,19.2976045 12.944624,21.6993872 13.2401114,22.8548189 C13.2401114,22.930585 13.5924234,23.8132591 13.7591086,24.2299721 L13.6947075,24.2678552 C12.8864927,23.3650967 12.1612583,22.3913553 11.5277994,21.3584401 C11.1716992,20.7977716 10.8648468,20.2219499 10.5769359,19.6877994 C10.9292479,19.4567131 12.5468524,18.3922006 13.0506964,17.6118106 C13.5545404,16.8314206 13.9409471,15.778273 13.6189415,14.8955989 C13.4806329,14.4690698 13.1675808,14.1214121 12.757834,13.9393024 C12.3480873,13.7571927 11.8802549,13.7577906 11.4709749,13.9409471 C10.2700836,14.5243454 9.89504178,16.89961 10.0579387,18.0777716 C10.0579387,18.1421727 10.2284123,18.7861838 10.3534262,19.2521448 C10.2284123,19.002117 10.0958217,18.7445125 9.9745961,18.4944847 C9.5351532,17.5852925 9.19041783,16.7291365 8.88735376,15.9638997 C8.72066852,15.5282451 8.58050139,15.1342618 8.45169916,14.7592201 C8.68278552,14.3538719 9.58818942,12.6983844 9.67910864,11.7929805 C9.77002786,10.8875766 9.62986072,9.75487465 8.92144847,9.11844011 C8.60199661,8.80422676 8.16413557,8.64045884 7.71689324,8.66791475 C7.26965092,8.69537066 6.85510949,8.911467 6.57649025,9.26239554 C5.78094708,10.3306964 6.54239554,12.6150418 7.2318663,13.5848468 C7.28869081,13.6681894 8.36835655,14.8766574 8.36835655,14.8539276 L8.36835655,14.8274095 C8.48579387,15.2062396 8.6145961,15.5850696 8.74718663,15.9942061 C9.03130919,16.7518663 9.36089136,17.6345404 9.78139276,18.5550975 C10.2224199,19.5535414 10.7220844,20.5250409 11.2777716,21.4645125 C11.8965538,22.5195089 12.6064071,23.5183739 13.3992201,24.4496936 L13.4295265,24.48 C13.096156,24.2754318 12.1490808,23.7223398 12.0695265,23.69961 C10.9747075,23.2298607 8.58428969,22.9646797 7.7054039,23.9685794 C7.42095826,24.3153638 7.29691715,24.766507 7.36408623,25.2099673 C7.4312553,25.6534276 7.68333305,26.0476017 8.05771588,26.2945961 C8.81537604,26.8363231 9.9821727,26.7302507 10.8269638,26.4612813 C11.7854039,26.1582173 13.3992201,24.6997214 13.5280223,24.5671309 C14.3534324,25.4923404 15.2393145,26.3617705 16.1798329,27.1696936 C16.7291365,27.6432312 17.2973816,28.1054039 17.8732033,28.5562117 L17.2784401,28.2228412 C16.1836212,27.7530919 13.7932033,27.4879109 12.9143175,28.4955989 C12.6296512,28.8412568 12.5050547,29.2914861 12.5715152,29.7343149 C12.6379756,30.1771437 12.8892481,30.570962 13.2628412,30.8178273 C14.0205014,31.3633426 15.1872981,31.2534819 16.0358774,30.9845125 C16.8844568,30.7155432 18.3088579,29.4994986 18.6649582,29.1699164 L19.3316992,29.6889136 C20.4037883,30.5071866 21.4758774,31.3216713 22.502507,32.1513092 C22.8623955,32.4430084 23.2071309,32.7460724 23.5556546,33.0453482 C23.2942618,32.8976045 23.0745404,32.7725905 23.0366574,32.7574373 C21.9456267,32.287688 19.5514206,32.022507 18.6763231,33.0264067 C18.391511,33.3727001 18.2668557,33.8235025 18.3332967,34.266924 C18.3997377,34.7103456 18.6510461,35.1048146 19.0248468,35.3524234 C19.782507,35.8941504 20.9493036,35.788078 21.797883,35.5191086 C22.6464624,35.2501393 23.9231198,34.1477437 24.3587744,33.761337 C24.7072981,34.0795543 25.0520334,34.3977716 25.374039,34.7235655 C25.5899721,34.9470752 25.8096936,35.1516435 26.0142618,35.3903064 L26.6241783,36.0797772 C27.0030084,36.5343733 27.3818384,37.0003343 27.7341504,37.4511421 C27.98039,37.7617827 28.2114763,38.0648468 28.4425627,38.3679109 C28.0864624,38.0724234 27.3742618,37.5079666 27.3060724,37.4700836 C26.2945961,36.8374373 23.9723677,36.2123677 22.9533148,37.0912535 C22.6192328,37.3902131 22.428292,37.8173103 22.428292,38.2656267 C22.428292,38.7139432 22.6192328,39.1410404 22.9533148,39.44 C23.6314206,40.095376 24.7906407,40.1635655 25.6695265,40.0271866 C26.6355432,39.8756546 28.3895265,38.7315877 28.6054596,38.5876323 C28.9842897,39.0914763 29.3631198,39.5839554 29.6927019,40.057493 C30.8746518,41.6864624 31.7952089,43.0881337 32.4240669,44.0768802 L32.488468,44.1791643 L33.3029526,43.7813928 L33.1741504,43.5881894 C32.5149861,42.6032312 31.556546,41.2053482 30.3291365,39.5877437 C29.9503064,39.0725348 29.5222284,38.5345961 29.0827855,37.9852925 C29.5337819,37.4867807 29.9562207,36.963159 30.348078,36.4169359 C31.2837883,36.795766 33.2385515,36.795766 33.4885794,36.795766 C33.5302507,37.4284123 33.5643454,38.042117 33.5870752,38.621727 C33.6704178,40.6295265 33.6666295,42.3077437 33.6438997,43.482117 L33.6438997,43.6184958 L34.5379387,43.1828412 C34.5379387,42.0160446 34.4962674,40.4438997 34.3750418,38.5800557 C34.3371588,37.9398329 34.2841226,37.2541504 34.2197214,36.5533148 C34.4697493,36.4927019 36.4927019,35.9699164 37.2503621,35.36 C37.9436212,34.8031198 38.6747632,33.9015042 38.6520334,32.9620056 C38.6553926,32.5132971 38.4677696,32.0843322 38.1360047,31.7822021 C37.8042398,31.4800719 37.3596413,31.3332883 36.9132033,31.3784958 C35.5910864,31.5489694 34.4811142,33.6817827 34.2613928,34.856156 C34.2613928,34.9243454 34.1932033,35.6895822 34.1628969,36.1706964 C34.1363788,35.8865738 34.113649,35.6062396 34.0833426,35.3107521 C34.0227298,34.7311421 33.9469638,34.1477437 33.8674095,33.5264624 L33.7196657,32.6134819 C33.6779944,32.3104178 33.5946518,31.9959889 33.5302507,31.6815599 C33.3711421,30.9542061 33.1741504,30.2306407 32.9582173,29.4994986 C33.4658496,29.4502507 35.2766574,29.2343175 36.0532591,28.7910864 C36.8298607,28.3478552 37.6822284,27.5674652 37.7996657,26.6317549 C37.8713485,26.189187 37.7511377,25.7370366 37.469129,25.3885027 C37.1871203,25.0399688 36.7700114,24.8280472 36.3222284,24.8057939 C34.9887465,24.7716992 33.5681337,26.6999443 33.1779387,27.8364345 C33.1514206,27.904624 32.9620056,28.7456267 32.8635097,29.2077994 C32.7309192,28.7721448 32.602117,28.3364903 32.4543733,27.8970474 C32.022507,26.6355432 31.5489694,25.374039 31.0792201,24.1087465 L30.6587187,22.9495265 C30.8405571,22.930585 32.9998886,22.7260167 33.8674095,22.225961 C34.6250696,21.7827298 35.4963788,21.0023398 35.6138162,20.0704178 C35.6854401,19.6274628 35.5653132,19.1749483 35.2834236,18.8258389 C35.001534,18.4767295 34.5844818,18.2639683 34.1363788,18.2406685 C32.8028969,18.2103621 31.3822841,20.1348189 30.9920891,21.2713092 C30.9617827,21.3584401 30.6890251,22.5631198 30.6322006,22.8737604 C30.3253482,22.0213928 30.0260724,21.1690251 29.768468,20.3166574 C29.4089094,19.1685151 29.1254349,17.9979173 28.9198886,16.8124791 C29.0032312,16.8124791 31.2572702,16.6003343 32.1475209,16.0889136 C32.9051811,15.6456825 33.7764903,14.8652925 33.8939276,13.9295822 C33.9643636,13.4872144 33.843686,13.0357418 33.561926,12.6875153 C33.2801659,12.3392887 32.8638173,12.127052 32.4164903,12.1036212 C31.0830084,12.0695265 29.6623955,13.9977716 29.2722006,15.1342618 C29.2456825,15.2100279 29.0373259,16.1267967 28.9464067,16.5662396 L28.8706407,16.5662396 C28.6967895,15.3673429 28.6295997,14.1553908 28.6698607,12.944624 C28.6698607,12.277883 28.7342618,11.6414485 28.7948747,11.0239554 C29.2191643,11.0239554 31.1549861,11.0239554 32.0035655,10.6451253 C32.8521448,10.2662953 33.761337,9.61091922 33.9810585,8.69415042 C34.1010112,8.26192338 34.0310912,7.79906076 33.7888198,7.42155126 C33.5465484,7.04404176 33.1548854,6.78766172 32.7119777,6.71665738 C31.3898607,6.53481894 29.7646797,8.31153203 29.2532591,9.36846797 C29.2229526,9.42908078 29.0070195,10.0541504 28.8516992,10.5049582 C28.8857939,10.224624 28.9161003,9.93671309 28.950195,9.67153203 C29.0865738,8.67142061 29.2722006,7.77738162 29.4426741,6.96289694 C29.5449582,6.50830084 29.643454,6.09916435 29.7419499,5.71654596 C30.158663,5.50440111 31.8330919,4.62930362 32.3937604,3.91710306 C32.954429,3.20490251 33.4734262,2.18963788 33.2461281,1.26529248 C32.9887982,0.481803899 32.1720933,0.0280789448 31.3709192,0.223509749 L31.3709192,0.223509749 Z" id="Path" fill="#ADC7F7" fill-rule="nonzero"></path>
                                <path d="M7.2545961,20.7864067 C8.29637883,20.7447354 10.3799443,19.6764345 10.383742,19.6764345 C10.3875209,19.6764345 9.24724234,18.5172145 9.17905292,18.4528134 C8.24713092,17.6951532 6.01203343,16.823844 4.90206128,17.5587744 C4.53472256,17.8163119 4.29455643,18.218201 4.24176102,18.6637074 C4.18896562,19.1092138 4.32854574,19.5561053 4.62551532,19.8923677 C5.22406685,20.6235097 6.3643454,20.8356546 7.2545961,20.7864067 Z" id="Path" fill="#ADC7F7" fill-rule="nonzero"></path>
                                <g id="Group" opacity="0.5" transform="translate(4.167131, 0.000000)" fill="#FFFFFF" fill-rule="nonzero">
                                    <path d="M24.6239554,10.9103064 C24.6466852,10.9103064 24.328468,9.32300836 24.2943733,9.22830084 C23.9155432,8.09181058 22.5517549,6.11810585 21.218273,6.1218887 C20.770352,6.13592695 20.3494696,6.33954356 20.0604502,6.68203149 C19.7714309,7.02451941 19.6414762,7.47364469 19.7029526,7.91754875 C19.8014485,8.85325905 20.6424513,9.65259053 21.4038997,10.1109749 C22.2903621,10.6527019 24.6239554,10.9103064 24.6239554,10.9103064 Z" id="Path"></path>
                                    <path d="M27.2037883,0.223509749 C25.9460724,0.674317549 25.3096379,3.00033426 25.3626741,4.18986072 C25.3626741,4.29214485 25.601337,5.8945961 25.6240669,5.8832312 L25.650585,5.8832312 C25.5483008,6.26206128 25.4460167,6.64089136 25.3399443,7.07654596 C25.1505292,7.87587744 24.9611142,8.78128134 24.7868524,9.78139276 C24.6069585,10.8585371 24.4880689,11.9449853 24.4307521,13.0355432 C24.3642429,14.2554126 24.4060782,15.4787773 24.555766,16.6912535 C24.557591,16.7063517 24.557591,16.7216148 24.555766,16.7367131 C24.3928691,16.3806128 23.90039,15.4070195 23.8511421,15.3350418 C23.1995543,14.3387187 21.3508635,12.7968802 20.0628412,13.1529805 C19.6348045,13.285489 19.2829438,13.5931361 19.0944865,13.9996551 C18.9060292,14.4061742 18.8986196,14.8735046 19.0740947,15.2857939 C19.4150418,16.1608914 20.437883,16.710195 21.294039,16.9526462 C22.2600557,17.2291922 24.4118106,16.9033983 24.5822841,16.8768802 C24.7642601,18.1080279 25.0287744,19.3255533 25.374039,20.5212256 C25.5710306,21.218273 25.7907521,21.9153203 26.0218384,22.6123677 C25.8703064,22.3093036 25.7301393,22.0403343 25.7074095,22.0062396 C25.0520334,21.0099164 23.2071309,19.468078 21.9191086,19.8241783 C21.4905991,19.9547767 21.1379188,20.2615683 20.9492314,20.6678607 C20.760544,21.074153 20.7536825,21.5415473 20.9303621,21.9532033 C21.2713092,22.8320891 22.2941504,23.3813928 23.1503064,23.623844 C24.0064624,23.8662953 25.8551532,23.623844 26.343844,23.5594429 C26.4347632,23.824624 26.5218942,24.0935933 26.6128134,24.3587744 C27.0522563,25.6316435 27.4992758,26.9045125 27.8970474,28.1470752 C28.0372145,28.5903064 28.1584401,29.0335376 28.2758774,29.4729805 C28.1394986,29.2040111 28.0258496,28.9805014 28.0031198,28.950195 C27.351532,27.9538719 25.5028412,26.4120334 24.2148189,26.7681337 C23.7863094,26.8987322 23.4336291,27.2055238 23.2449417,27.6118161 C23.0562543,28.0181084 23.0493928,28.4855027 23.2260724,28.8971588 C23.5670195,29.7760446 24.5898607,30.3253482 25.4460167,30.5677994 C26.3021727,30.8102507 27.9728134,30.5981058 28.5524234,30.5147632 C28.6660724,30.9731476 28.7797214,31.4277437 28.8668524,31.8747632 C28.9236769,32.1816156 28.9956546,32.4733148 29.0335376,32.7877437 C29.0714206,33.1021727 29.1168802,33.3976602 29.1623398,33.6969359 C29.2229526,34.2803343 29.2873538,34.8826741 29.3328134,35.4547075 C29.3669081,35.8335376 29.3896379,36.2123677 29.416156,36.5911978 C29.2835655,36.1479666 28.9994429,35.284234 28.9691365,35.2160446 C28.4974258,34.2796511 27.7946362,33.4790708 26.9272423,32.8900279 C26.8788586,32.7837287 26.8205105,32.6822538 26.7529805,32.5869638 C26.5102782,32.2096673 26.1189297,31.9530229 25.6761656,31.8807938 C25.2334016,31.8085648 24.780779,31.9275304 24.4307521,32.2081337 C23.4230641,33.0832312 23.6730919,35.473649 24.1390529,36.5722563 C24.165571,36.6366574 24.5444011,37.3033983 24.7868524,37.7087465 C24.6050139,37.4852368 24.4345404,37.2655153 24.2451253,37.034429 C23.8662953,36.5836212 23.4874652,36.14039 23.0783287,35.6630641 L22.4532591,34.9849582 C22.2486908,34.7538719 22.0062396,34.5379387 21.7789415,34.3106407 C21.2485794,33.7954318 20.6803343,33.2991643 20.1007242,32.7953203 C20.4795543,32.4695265 21.8888022,31.28 22.2903621,30.4958217 C22.691922,29.7116435 22.9722563,28.5751532 22.5555432,27.7303621 C22.3712547,27.3218061 22.0217236,27.0110455 21.5944076,26.8758372 C21.1670916,26.7406289 20.7024188,26.7937649 20.3166574,27.0219499 C19.1801671,27.7303621 19.0740947,30.1321448 19.3657939,31.2875766 C19.3847354,31.3595543 19.6877994,32.1626741 19.8620613,32.602117 C19.5097493,32.3142061 19.1612256,32.022507 18.7975487,31.7383844 C17.7406128,30.9238997 16.6495822,30.1321448 15.5623398,29.3366017 C15.2289694,29.0941504 14.8993872,28.8441226 14.569805,28.6016713 C14.7137604,28.484234 16.3995543,27.124234 16.8427855,26.230195 C17.2405571,25.4346518 17.528468,24.3095265 17.1117549,23.4647354 C16.9274664,23.0561793 16.5779353,22.7454187 16.1506193,22.6102105 C15.7233033,22.4750022 15.2586305,22.5281382 14.8728691,22.7563231 C13.7363788,23.4647354 13.6265181,25.8665181 13.9220056,27.0219499 C13.9220056,27.1090808 14.38039,28.2683008 14.5054039,28.5562117 C13.7780501,28.0144847 13.0620613,27.4689694 12.3725905,26.9007242 C11.4371697,26.1398837 10.5514212,25.3199336 9.72077994,24.4459053 C9.78896936,24.3928691 11.5543175,22.9798329 11.9937604,22.0630641 C12.391532,21.2675209 12.6794429,20.1423955 12.2627298,19.2976045 C12.0784414,18.8890484 11.7289102,18.5782878 11.3015942,18.4430795 C10.8742782,18.3078713 10.4096055,18.3610073 10.023844,18.5891922 C8.88735376,19.2976045 8.77749304,21.6993872 9.0729805,22.8548189 C9.0729805,22.930585 9.42529248,23.8132591 9.59197772,24.2299721 L9.5275766,24.2678552 C8.71936182,23.3650967 7.9941274,22.3913553 7.36066852,21.3584401 C7.00456825,20.7977716 6.69771588,20.2219499 6.40980501,19.6877994 C6.76211699,19.4567131 8.37972145,18.3922006 8.88356546,17.6118106 C9.38740947,16.8314206 9.77381616,15.778273 9.45181058,14.8955989 C9.313502,14.4690698 9.00044988,14.1214121 8.59070311,13.9393024 C8.18095634,13.7571927 7.71312395,13.7577906 7.30384401,13.9409471 C6.10295265,14.5243454 5.72791086,16.89961 5.8908078,18.0777716 C5.8908078,18.1421727 6.06128134,18.7861838 6.18629526,19.2521448 C6.06128134,19.002117 5.92869081,18.7445125 5.80746518,18.4944847 C5.36802228,17.5852925 5.02328691,16.7291365 4.72022284,15.9638997 C4.5535376,15.5282451 4.41337047,15.1342618 4.28456825,14.7592201 C4.5156546,14.3538719 5.4210585,12.6983844 5.51197772,11.7929805 C5.60289694,10.8875766 5.46272981,9.75487465 4.75431755,9.11844011 C4.43486569,8.80422676 3.99700465,8.64045884 3.54976232,8.66791475 C3.10252,8.69537066 2.68797857,8.911467 2.40935933,9.26239554 C1.61381616,10.3306964 2.37526462,12.6150418 3.06473538,13.5848468 C3.12155989,13.6681894 4.20122563,14.8766574 4.20122563,14.8539276 L4.20122563,14.8274095 C4.31866295,15.2062396 4.44746518,15.5850696 4.58005571,15.9942061 C4.86417827,16.7518663 5.19376045,17.6345404 5.61426184,18.5550975 C6.05528896,19.5535414 6.55495344,20.5250409 7.11064067,21.4645125 C7.72942292,22.5195089 8.4392762,23.5183739 9.23208914,24.4496936 L9.26239554,24.48 C8.92902507,24.2754318 7.98194986,23.7223398 7.90239554,23.69961 C6.8075766,23.2298607 4.41715877,22.9646797 3.53827298,23.9685794 C3.25382734,24.3153638 3.12978624,24.766507 3.19695531,25.2099673 C3.26412438,25.6534276 3.51620213,26.0476017 3.89058496,26.2945961 C4.64824513,26.8363231 5.81504178,26.7302507 6.65983287,26.4612813 C7.61827298,26.1582173 9.23208914,24.6997214 9.36089136,24.5671309 C10.1863015,25.4923404 11.0721836,26.3617705 12.0127019,27.1696936 C12.5620056,27.6432312 13.1302507,28.1054039 13.7060724,28.5562117 L13.1113092,28.2228412 C12.0164903,27.7530919 9.62607242,27.4879109 8.74718663,28.4955989 C8.46252029,28.8412568 8.3379238,29.2914861 8.40438424,29.7343149 C8.47084468,30.1771437 8.72211715,30.570962 9.09571031,30.8178273 C9.85337047,31.3633426 11.0201671,31.2534819 11.8687465,30.9845125 C12.7173259,30.7155432 14.141727,29.4994986 14.4978273,29.1699164 L15.1645682,29.6889136 C16.2366574,30.5071866 17.3087465,31.3216713 18.335376,32.1513092 C18.6952646,32.4430084 19.04,32.7460724 19.3885237,33.0453482 C19.1271309,32.8976045 18.9074095,32.7725905 18.8695265,32.7574373 C17.7784958,32.287688 15.3842897,32.022507 14.5091922,33.0264067 C14.2243801,33.3727001 14.0997247,33.8235025 14.1661658,34.266924 C14.2326068,34.7103456 14.4839152,35.1048146 14.8577159,35.3524234 C15.615376,35.8941504 16.7821727,35.788078 17.6307521,35.5191086 C18.4793315,35.2501393 19.7559889,34.1477437 20.1916435,33.761337 C20.5401671,34.0795543 20.8849025,34.3977716 21.2069081,34.7235655 C21.4228412,34.9470752 21.6425627,35.1516435 21.8471309,35.3903064 L22.4570474,36.0797772 C22.8358774,36.5343733 23.2147075,37.0003343 23.5670195,37.4511421 C23.8132591,37.7617827 24.0443454,38.0648468 24.2754318,38.3679109 C23.9193315,38.0724234 23.2071309,37.5079666 23.1389415,37.4700836 C22.1274652,36.8374373 19.8052368,36.2123677 18.7861838,37.0912535 C18.4521019,37.3902131 18.2611611,37.8173103 18.2611611,38.2656267 C18.2611611,38.7139432 18.4521019,39.1410404 18.7861838,39.44 C19.4642897,40.095376 20.6235097,40.1635655 21.5023955,40.0271866 C22.4684123,39.8756546 24.2223955,38.7315877 24.4383287,38.5876323 C24.8171588,39.0914763 25.1959889,39.5839554 25.525571,40.057493 C26.7075209,41.6864624 27.628078,43.0881337 28.2569359,44.0768802 L28.321337,44.1791643 L29.1358217,43.7813928 L29.0070195,43.5881894 C28.3478552,42.6032312 27.389415,41.2053482 26.1620056,39.5877437 C25.7831755,39.0725348 25.3550975,38.5345961 24.9156546,37.9852925 C25.366651,37.4867807 25.7890898,36.963159 26.1809471,36.4169359 C27.1166574,36.795766 29.0714206,36.795766 29.3214485,36.795766 C29.3631198,37.4284123 29.3972145,38.042117 29.4199443,38.621727 C29.5032869,40.6295265 29.4994986,42.3077437 29.4767688,43.482117 L29.4767688,43.6184958 L30.3708078,43.1828412 C30.3708078,42.0160446 30.3291365,40.4438997 30.2079109,38.5800557 C30.1700279,37.9398329 30.1169916,37.2541504 30.0525905,36.5533148 C30.3026184,36.4927019 32.325571,35.9699164 33.0832312,35.36 C33.7764903,34.8031198 34.5076323,33.9015042 34.4849025,32.9620056 C34.4882617,32.5132971 34.3006387,32.0843322 33.9688738,31.7822021 C33.6371089,31.4800719 33.1925104,31.3332883 32.7460724,31.3784958 C31.4239554,31.5489694 30.3139833,33.6817827 30.0942618,34.856156 C30.0942618,34.9243454 30.0260724,35.6895822 29.995766,36.1706964 C29.9692479,35.8865738 29.9465181,35.6062396 29.9162117,35.3107521 C29.8555989,34.7311421 29.7798329,34.1477437 29.7002786,33.5264624 L29.5525348,32.6134819 C29.5108635,32.3104178 29.4275209,31.9959889 29.3631198,31.6815599 C29.2040111,30.9542061 29.0070195,30.2306407 28.7910864,29.4994986 C29.2987187,29.4502507 31.1095265,29.2343175 31.8861281,28.7910864 C32.6627298,28.3478552 33.5150975,27.5674652 33.6325348,26.6317549 C33.7042176,26.189187 33.5840068,25.7370366 33.3019981,25.3885027 C33.0199894,25.0399688 32.6028804,24.8280472 32.1550975,24.8057939 C30.8216156,24.7716992 29.4010028,26.6999443 29.0108078,27.8364345 C28.9842897,27.904624 28.7948747,28.7456267 28.6963788,29.2077994 C28.5637883,28.7721448 28.4349861,28.3364903 28.2872423,27.8970474 C27.855376,26.6355432 27.3818384,25.374039 26.9120891,24.1087465 L26.4915877,22.9495265 C26.6734262,22.930585 28.8327577,22.7260167 29.7002786,22.225961 C30.4579387,21.7827298 31.3292479,21.0023398 31.4466852,20.0704178 C31.5183092,19.6274628 31.3981822,19.1749483 31.1162926,18.8258389 C30.834403,18.4767295 30.4173509,18.2639683 29.9692479,18.2406685 C28.635766,18.2103621 27.2151532,20.1348189 26.8249582,21.2713092 C26.7946518,21.3584401 26.5218942,22.5631198 26.4650696,22.8737604 C26.1582173,22.0213928 25.8589415,21.1690251 25.601337,20.3166574 C25.2417785,19.1685151 24.958304,17.9979173 24.7527577,16.8124791 C24.8361003,16.8124791 27.0901393,16.6003343 27.98039,16.0889136 C28.7380501,15.6456825 29.6093593,14.8652925 29.7267967,13.9295822 C29.7972327,13.4872144 29.6765551,13.0357418 29.3947951,12.6875153 C29.113035,12.3392887 28.6966864,12.127052 28.2493593,12.1036212 C26.9158774,12.0695265 25.4952646,13.9977716 25.1050696,15.1342618 C25.0785515,15.2100279 24.870195,16.1267967 24.7792758,16.5662396 L24.7035097,16.5662396 C24.5296586,15.3673429 24.4624688,14.1553908 24.5027298,12.944624 C24.5027298,12.277883 24.5671309,11.6414485 24.6277437,11.0239554 C25.0520334,11.0239554 26.9878552,11.0239554 27.8364345,10.6451253 C28.6850139,10.2662953 29.5942061,9.61091922 29.8139276,8.69415042 C29.9338803,8.26192338 29.8639603,7.79906076 29.6216889,7.42155126 C29.3794175,7.04404176 28.9877545,6.78766172 28.5448468,6.71665738 C27.2227298,6.53481894 25.5975487,8.31153203 25.0861281,9.36846797 C25.0558217,9.42908078 24.8398886,10.0541504 24.6845682,10.5049582 C24.718663,10.224624 24.7489694,9.93671309 24.7830641,9.67153203 C24.9194429,8.67142061 25.1050696,7.77738162 25.2755432,6.96289694 C25.3778273,6.50830084 25.4763231,6.09916435 25.5748189,5.71654596 C25.991532,5.50440111 27.665961,4.62930362 28.2266295,3.91710306 C28.7872981,3.20490251 29.3062953,2.18963788 29.0789972,1.26529248 C28.8216673,0.481803899 28.0049623,0.0280789448 27.2037883,0.223509749 L27.2037883,0.223509749 Z" id="Path"></path>
                                    <path d="M3.08746518,20.7864067 C4.12924791,20.7447354 6.21281337,19.6764345 6.21661109,19.6764345 C6.22038997,19.6764345 5.08011142,18.5172145 5.01192201,18.4528134 C4.08,17.6951532 1.84490251,16.823844 0.734930362,17.5587744 C0.367591636,17.8163119 0.127425507,18.218201 0.0746301052,18.6637074 C0.0218347036,19.1092138 0.161414816,19.5561053 0.458384401,19.8923677 C1.05693593,20.6235097 2.19721448,20.8356546 3.08746518,20.7864067 Z" id="Path"></path>
                                </g>
                                <path d="M19.9870752,49.3956546 C19.9870752,49.3956546 26.3135376,34.1477437 29.8555989,34.8106964 C33.3976602,35.473649 23.7943175,59.1202228 23.7943175,59.1202228 C23.7943175,59.1202228 34.9243454,38.1254596 42.5161003,38.1254596 C50.1078552,38.1254596 39.7316992,61.3288022 30.1207799,69.0645125 C30.1207799,69.0645125 45.2967131,52.7104178 54.1499721,56.2486908 C63.0032312,59.7869638 36.443454,76.3569916 36.443454,76.3569916 C36.443454,76.3569916 51.8732033,71.4966017 50.1040669,75.2545961 C48.3349304,79.0125905 43.5275766,79.6717549 43.5275766,79.6717549 L60.9802786,80.5582173 L0.257604457,80.5582173 L13.9182173,79.232312 C13.9182173,79.232312 -0.250027855,72.1595543 3.54584958,69.2880223 C7.34172702,66.4164903 15.6873538,72.6027855 15.6873538,72.6027855 C15.6873538,72.6027855 1.26908078,56.691922 4.04969359,50.7215599 C6.83030641,44.7511978 19.229415,61.552312 19.229415,61.552312 C19.229415,61.552312 9.11086351,40.1143175 11.1338162,36.367688 C13.1567688,32.6210585 19.9870752,49.3956546 19.9870752,49.3956546 Z" id="Path" fill="#ADC7F7" fill-rule="nonzero"></path>
                                <path d="M19.9870752,49.3956546 C19.9870752,49.3956546 26.3135376,34.1477437 29.8555989,34.8106964 C33.3976602,35.473649 23.7943175,59.1202228 23.7943175,59.1202228 C23.7943175,59.1202228 34.9243454,38.1254596 42.5161003,38.1254596 C50.1078552,38.1254596 39.7316992,61.3288022 30.1207799,69.0645125 C30.1207799,69.0645125 45.2967131,52.7104178 54.1499721,56.2486908 C63.0032312,59.7869638 36.443454,76.3569916 36.443454,76.3569916 C36.443454,76.3569916 51.8732033,71.4966017 50.1040669,75.2545961 C48.3349304,79.0125905 43.5275766,79.6717549 43.5275766,79.6717549 L60.9802786,80.5582173 L0.257604457,80.5582173 L13.9182173,79.232312 C13.9182173,79.232312 -0.250027855,72.1595543 3.54584958,69.2880223 C7.34172702,66.4164903 15.6873538,72.6027855 15.6873538,72.6027855 C15.6873538,72.6027855 1.26908078,56.691922 4.04969359,50.7215599 C6.83030641,44.7511978 19.229415,61.552312 19.229415,61.552312 C19.229415,61.552312 9.11086351,40.1143175 11.1338162,36.367688 C13.1567688,32.6210585 19.9870752,49.3956546 19.9870752,49.3956546 Z" id="Path" fill="#FFFFFF" fill-rule="nonzero" opacity="0.5"></path>
                                <path d="M17.9641226,50.1987744 C23.5291365,66.6437883 23.5291365,78.2814485 23.5291365,78.2814485 C23.5291365,78.2814485 16.9526462,78.5314763 10.1223398,73.4740947" id="Path" stroke="#263238" stroke-width="0.5" stroke-linecap="round" stroke-linejoin="round"></path>
                                <path d="M20.7485237,59.0558217 C21.89254,54.1392171 23.412326,49.3176961 25.2944847,44.6337604" id="Path" stroke="#263238" stroke-width="0.5" stroke-linecap="round" stroke-linejoin="round"></path>
                                <path d="M37.1897493,49.4411142 L23.0252925,70.4396657 C23.0252925,70.4396657 13.410585,62.3440669 10.1223398,57.7905292" id="Path" stroke="#263238" stroke-width="0.5" stroke-linecap="round" stroke-linejoin="round"></path>
                                <path d="M23.2791086,75.4970474 C23.2791086,75.4970474 38.2012256,68.4129248 44.2738719,64.3670195" id="Path" stroke="#263238" stroke-width="0.5" stroke-linecap="round" stroke-linejoin="round"></path>
                                <path d="M101.59844,49.3956546 C101.59844,49.3956546 95.275766,34.1477437 91.7488579,34.8106964 C88.2219499,35.473649 97.8101393,59.1202228 97.8101393,59.1202228 C97.8101393,59.1202228 86.6801114,38.1254596 79.0921448,38.1254596 C71.5041783,38.1254596 81.8727577,61.3288022 91.4874652,69.0645125 C91.4874652,69.0645125 76.3077437,52.7104178 67.4544847,56.2486908 C58.6012256,59.7869638 85.1647911,76.3569916 85.1647911,76.3569916 C85.1647911,76.3569916 69.7312535,71.4966017 71.5041783,75.2545961 C73.2771031,79.0125905 78.0806685,79.6717549 78.0806685,79.6717549 L60.6128134,80.5582173 L121.331699,80.5582173 L107.671086,79.232312 C107.671086,79.232312 121.835543,72.1595543 118.043454,69.2880223 C114.251365,66.4164903 105.898162,72.6027855 105.898162,72.6027855 C105.898162,72.6027855 120.320223,56.691922 117.535822,50.7215599 C114.751421,44.7511978 102.3561,61.552312 102.3561,61.552312 C102.3561,61.552312 112.47844,40.1143175 110.451699,36.3563231 C108.424958,32.5983287 101.59844,49.3956546 101.59844,49.3956546 Z" id="Path" fill="#ADC7F7" fill-rule="nonzero"></path>
                                <path d="M101.59844,49.3956546 C101.59844,49.3956546 95.275766,34.1477437 91.7488579,34.8106964 C88.2219499,35.473649 97.8101393,59.1202228 97.8101393,59.1202228 C97.8101393,59.1202228 86.6801114,38.1254596 79.0921448,38.1254596 C71.5041783,38.1254596 81.8727577,61.3288022 91.4874652,69.0645125 C91.4874652,69.0645125 76.3077437,52.7104178 67.4544847,56.2486908 C58.6012256,59.7869638 85.1647911,76.3569916 85.1647911,76.3569916 C85.1647911,76.3569916 69.7312535,71.4966017 71.5041783,75.2545961 C73.2771031,79.0125905 78.0806685,79.6717549 78.0806685,79.6717549 L60.6128134,80.5582173 L121.331699,80.5582173 L107.671086,79.232312 C107.671086,79.232312 121.835543,72.1595543 118.043454,69.2880223 C114.251365,66.4164903 105.898162,72.6027855 105.898162,72.6027855 C105.898162,72.6027855 120.320223,56.691922 117.535822,50.7215599 C114.751421,44.7511978 102.3561,61.552312 102.3561,61.552312 C102.3561,61.552312 112.47844,40.1143175 110.451699,36.3563231 C108.424958,32.5983287 101.59844,49.3956546 101.59844,49.3956546 Z" id="Path" fill="#FFFFFF" fill-rule="nonzero" opacity="0.5"></path>
                                <path d="M103.621393,50.1987744 C98.0563788,66.6437883 98.0563788,78.2814485 98.0563788,78.2814485 C98.0563788,78.2814485 104.632869,78.5314763 111.463175,73.4740947" id="Path" stroke="#263238" stroke-width="0.5" stroke-linecap="round" stroke-linejoin="round"></path>
                                <path d="M100.84078,59.0558217 C99.6967636,54.1392171 98.1769776,49.3176961 96.2948189,44.6337604" id="Path" stroke="#263238" stroke-width="0.5" stroke-linecap="round" stroke-linejoin="round"></path>
                                <path d="M84.395766,49.4411142 L98.5640111,70.4396657 C98.5640111,70.4396657 108.17493,62.3440669 111.463175,57.7905292" id="Path" stroke="#263238" stroke-width="0.5" stroke-linecap="round" stroke-linejoin="round"></path>
                                <path d="M98.310195,75.4970474 C98.310195,75.4970474 83.3842897,68.4129248 77.3116435,64.3670195" id="Path" stroke="#263238" stroke-width="0.5" stroke-linecap="round" stroke-linejoin="round"></path>
                            </g>
                            <g id="freepik--Device--inject-2" transform="translate(40.155989, 18.941504)" fill-rule="nonzero">
                                <rect id="Rectangle" stroke="#263238" stroke-width="0.5" fill="#263238" x="0.0303064067" y="0.189415042" width="63.605571" height="114.630195" rx="2.55710306"></rect>
                                <path d="M36.2313092,7.03866295 L28.3137604,7.03866295 C28.0977457,7.03866295 27.8905783,6.95285142 27.7378328,6.80010591 C27.5850873,6.64736041 27.4992758,6.44019304 27.4992758,6.22417827 L27.4992758,6.22417827 C27.4992758,6.00851025 27.5852056,5.80173026 27.738061,5.64958583 C27.8909164,5.4974414 28.0980948,5.4124741 28.3137604,5.41347303 L36.2313092,5.41347303 C36.6790444,5.41347303 37.0420144,5.77644303 37.0420144,6.22417827 L37.0420144,6.22417827 C37.0430134,6.43984394 36.9580461,6.6470223 36.8059016,6.79987768 C36.6537572,6.95273307 36.4469772,7.03866295 36.2313092,7.03866295 Z" id="Path" fill="#ADC7F7"></path>
                                <path d="M59.6164903,104.576045 L4.04969359,104.576045 L4.04969359,7.13337047 L17.2216156,7.13337047 L18.7028412,8.36077994 C19.2191482,8.79243917 19.8709757,9.02849192 20.5439554,9.02752089 L43.7813928,9.02752089 C44.4788805,9.02367225 45.1515171,8.76807036 45.6755432,8.30774373 L47.0128134,7.13337047 L59.6051253,7.13337047 L59.6164903,104.576045 Z" id="Path" stroke="#263238" stroke-width="0.5" fill="#FFFFFF" stroke-linecap="round" stroke-linejoin="round"></path>
                                <polygon id="Path" fill="#ADC7F7" points="26.2415599 14.3159889 25.4838997 11.7702507 6.57270195 11.7702507 6.57270195 14.3159889 6.57270195 99.4012256 6.57270195 101.950752 57.2639554 101.950752 57.2639554 14.3159889"></polygon>
                                <rect id="Rectangle" fill="#FFFFFF" x="8.35320334" y="18.9036212" width="47.1264624" height="80.2437883"></rect>
                                <path d="M33.6098107,107.587744 C33.6113383,107.075639 33.3040337,106.613106 32.8313497,106.416068 C32.3586658,106.219031 31.8138207,106.326347 31.4511637,106.687918 C31.0885067,107.049489 30.9795575,107.59401 31.1751767,108.067283 C31.3707958,108.540555 31.8324053,108.849248 32.3445125,108.849248 C33.0409802,108.847181 33.60565,108.284202 33.6098107,107.587744 L33.6098107,107.587744 Z" id="Path" fill="#ADC7F7"></path>
                            </g>
                            <g id="freepik--Message--inject-2" transform="translate(52.657382, 23.866295)">
                                <ellipse id="Oval" fill="#ADC7F7" fill-rule="nonzero" cx="15.8767688" cy="68.6402228" rx="15.5168802" ry="22.0782173"></ellipse>
                                <ellipse id="Oval" fill="#FFFFFF" fill-rule="nonzero" opacity="0.5" cx="15.8767688" cy="68.6402228" rx="15.5168802" ry="22.0782173"></ellipse>
                                <path d="M18.0777716,43.9973259 C18.0777716,43.9973259 17.1079666,42.3759331 16.2177159,42.2963788 C15.3274652,42.2168245 4.72779944,48.8690808 3.10640669,52.3315877 C1.48501393,55.7940947 -0.0492479109,62.7418384 4.24289694,69.4281894 C8.42896936,75.9327019 14.9903064,75.7167688 18.3922006,75.3909749 C21.7940947,75.0651811 24.0746518,73.9589972 27.5220056,71.1935376 C30.9693593,68.428078 34.1325905,64.3556546 34.5909749,61.590195 C35.0493593,58.8247354 33.3635655,57.2866852 32.287688,56.9040669 C31.2118106,56.5214485 24.9876323,56.5972145 20.4530362,51.9792758 C15.9184401,47.361337 18.0777716,43.9973259 18.0777716,43.9973259 Z" id="Path" stroke="#263238" stroke-width="0.5" fill="#263238" fill-rule="nonzero" stroke-linecap="round" stroke-linejoin="round"></path>
                                <path d="M19.4529248,41.8910306 C19.4529248,41.8910306 16.7026184,42.9441783 15.0016713,44.804234 C13.3007242,46.6642897 12.2513649,49.5812813 12.1718106,53.8696379 C12.0922563,58.1579944 13.4674095,63.0108078 18.8051253,65.1171031 C24.1428412,67.2233983 28.9198886,65.6020056 30.4579387,64.1435097 C31.9959889,62.6850139 33.8674095,58.5633426 33.8674095,58.5633426 C33.8674095,58.5633426 25.374039,60.8363231 21.3281337,56.0516992 C17.2822284,51.2670752 19.4529248,41.8910306 19.4529248,41.8910306 Z" id="Path" stroke="#263238" stroke-width="0.5" fill="#FFFFFF" fill-rule="nonzero" stroke-linecap="round" stroke-linejoin="round"></path>
                                <path d="M66.9885237,44.88 C64.9125348,41.7660167 59.9574373,40.8454596 56.0403343,39.5763788 C52.1232312,38.3072981 49.816156,35.788078 50.8541504,29.5525348 C51.8921448,23.3169916 57.2942618,13.1870752 57.1919777,11.3421727 C57.0896936,9.49727019 38.5232312,9.61470752 36.7919777,10.2056825 C35.0607242,10.7966574 34.7197772,10.6640669 33.105961,12.7400557 C32.2115769,13.8611825 31.4024062,15.0477129 30.6852368,16.2896936 L32.6854596,12.0846797 L32.8332033,12.0846797 C33.0505467,11.5320208 33.3591661,11.0197894 33.7461838,10.5693593 C35.5064081,8.52733224 36.5038565,5.93798302 36.568468,3.24278552 C36.644234,-0.72356546 33.8219499,-0.340947075 33.2877994,0.878885794 C32.753649,2.09871866 29.6283008,6.29615599 28.711532,7.44022284 C27.7947632,8.58428969 25.8892479,11.7134262 25.8892479,11.7134262 L23.7715877,19.0551532 C23.7715877,19.0551532 23.309415,21.2447911 20.6576045,29.5449582 C18.0057939,37.8451253 19.1612256,41.6713092 19.1612256,41.6713092 C19.1612256,41.6713092 18.4679666,41.3265738 16.8541504,46.2816713 C15.2403343,51.2367688 15.9335933,57.5745961 18.8127019,60.5711421 C21.6918106,63.567688 25.4990529,63.454039 29.7646797,61.7265738 C32.3886747,60.6023107 34.5740485,58.6523667 35.9888579,56.1729248 C35.9888579,56.1729248 40.485571,55.0364345 43.8268524,52.4869081 C47.1681337,49.9373816 49.702507,47.3007242 54.551532,47.5318106 C59.4005571,47.7628969 64.9238997,50.5283565 66.7688022,50.4109192 C68.6137047,50.2934819 69.0645125,47.990195 66.9885237,44.88 Z" id="Path" fill="#FFFFFF" fill-rule="nonzero"></path>
                                <g id="Group" transform="translate(15.532033, 33.715877)" fill-rule="nonzero">
                                    <path d="M21.7296936,0.378830084 C8.90629526,2.29192201 4.87554318,5.35286908 6.15598886,9.56545961 C6.42171959,10.4008136 6.85337002,11.1739188 7.42506964,11.8384401 C7.42506964,11.9179944 7.42506964,12.0051253 7.44779944,12.0960446 C7.44779944,12.0960446 7.67509749,12.2324234 8.01604457,12.4748747 C8.46495748,12.9085282 8.95039162,13.3027058 9.46696379,13.6530362 C10.3079666,14.4523677 11.0618384,15.4524791 10.9065181,16.3806128 C10.5769359,18.3581058 5.98172702,21.8130362 3.65949861,21.9797214 C1.33727019,22.1464067 0.530362117,19.8393315 0.200779944,22.3093036 C-0.128802228,24.7792758 4.9778273,30.8708635 9.91777159,30.2116992 C14.8577159,29.5525348 18.9755989,22.6350975 18.9755989,22.6350975 C18.9755989,22.6350975 18.3164345,21.4986072 21.6274095,18.0247354 C23.8018942,15.7517549 26.9120891,14.7478552 29.2949304,13.8159331 C31.5445636,13.1542651 33.7374553,12.3130866 35.8524791,11.3005014 C41.7129805,8.42896936 48.6758774,10.3458496 48.6758774,10.3458496 C48.6758774,10.3458496 34.5530919,-1.55699164 21.7296936,0.378830084 Z" id="Path" fill="#ADC7F7"></path>
                                    <path d="M21.7296936,0.378830084 C8.90629526,2.29192201 4.87554318,5.35286908 6.15598886,9.56545961 C6.42171959,10.4008136 6.85337002,11.1739188 7.42506964,11.8384401 C7.42506964,11.9179944 7.42506964,12.0051253 7.44779944,12.0960446 C7.44779944,12.0960446 7.67509749,12.2324234 8.01604457,12.4748747 C8.46495748,12.9085282 8.95039162,13.3027058 9.46696379,13.6530362 C10.3079666,14.4523677 11.0618384,15.4524791 10.9065181,16.3806128 C10.5769359,18.3581058 5.98172702,21.8130362 3.65949861,21.9797214 C1.33727019,22.1464067 0.530362117,19.8393315 0.200779944,22.3093036 C-0.128802228,24.7792758 4.9778273,30.8708635 9.91777159,30.2116992 C14.8577159,29.5525348 18.9755989,22.6350975 18.9755989,22.6350975 C18.9755989,22.6350975 18.3164345,21.4986072 21.6274095,18.0247354 C23.8018942,15.7517549 26.9120891,14.7478552 29.2949304,13.8159331 C31.5445636,13.1542651 33.7374553,12.3130866 35.8524791,11.3005014 C41.7129805,8.42896936 48.6758774,10.3458496 48.6758774,10.3458496 C48.6758774,10.3458496 34.5530919,-1.55699164 21.7296936,0.378830084 Z" id="Path" fill="#FFFFFF" opacity="0.5"></path>
                                </g>
                                <path d="M66.9885237,44.88 C64.9125348,41.7660167 59.9574373,40.8454596 56.0403343,39.5763788 C52.1232312,38.3072981 49.816156,35.788078 50.8541504,29.5525348 C51.8921448,23.3169916 57.2942618,13.1870752 57.1919777,11.3421727 C57.0896936,9.49727019 38.5232312,9.61470752 36.7919777,10.2056825 C35.0607242,10.7966574 34.7197772,10.6640669 33.105961,12.7400557 C32.2115769,13.8611825 31.4024062,15.0477129 30.6852368,16.2896936 L32.6854596,12.0846797 L32.8332033,12.0846797 C33.0505467,11.5320208 33.3591661,11.0197894 33.7461838,10.5693593 C35.5064081,8.52733224 36.5038565,5.93798302 36.568468,3.24278552 C36.644234,-0.72356546 33.8219499,-0.340947075 33.2877994,0.878885794 C32.753649,2.09871866 29.6283008,6.29615599 28.711532,7.44022284 C27.7947632,8.58428969 25.8892479,11.7134262 25.8892479,11.7134262 L23.7715877,19.0551532 C23.7715877,19.0551532 23.309415,21.2447911 20.6576045,29.5449582 C18.0057939,37.8451253 19.1612256,41.6713092 19.1612256,41.6713092 C19.1612256,41.6713092 18.4679666,41.3265738 16.8541504,46.2816713 C15.2403343,51.2367688 15.9335933,57.5745961 18.8127019,60.5711421 C21.6918106,63.567688 25.4990529,63.454039 29.7646797,61.7265738 C32.3886747,60.6023107 34.5740485,58.6523667 35.9888579,56.1729248 C35.9888579,56.1729248 40.485571,55.0364345 43.8268524,52.4869081 C47.1681337,49.9373816 49.702507,47.3007242 54.551532,47.5318106 C59.4005571,47.7628969 64.9238997,50.5283565 66.7688022,50.4109192 C68.6137047,50.2934819 69.0645125,47.990195 66.9885237,44.88 Z" id="Path" stroke="#263238" stroke-width="0.5" stroke-linecap="round" stroke-linejoin="round"></path>
                                <path d="M67.0529248,50.3844011 C67.0529248,50.3844011 67.295376,49.4145961 64.5450696,48.1114206 C61.7947632,46.8082451 60.6620613,47.7060724 60.6620613,48.3538719 C60.6620613,49.0016713 66.6286351,50.3844011 67.0529248,50.3844011 Z" id="Path" stroke="#263238" stroke-width="0.5" fill="#FFFFFF" fill-rule="nonzero" stroke-linecap="round" stroke-linejoin="round"></path>
                                <path d="M40.9932033,5.99688022 L34.0530362,11.3383844 L43.3608914,11.3383844 C43.3608914,11.3383844 43.3608914,4.77704735 40.9932033,5.99688022 Z" id="Path" stroke="#263238" stroke-width="0.5" fill="#FFFFFF" fill-rule="nonzero" stroke-linecap="round" stroke-linejoin="round"></path>
                                <path d="M32.287688,44.5238997 C33.2734219,43.4098808 34.5022089,42.5375457 35.8789972,41.9743733" id="Path" stroke="#263238" stroke-width="0.5" stroke-linecap="round" stroke-linejoin="round"></path>
                                <path d="M31.0261838,46.5961003 C31.1325445,46.288231 31.2709453,45.9923835 31.4391086,45.7134262" id="Path" stroke="#263238" stroke-width="0.5" stroke-linecap="round" stroke-linejoin="round"></path>
                                <path d="M28.2607242,53.7938719 C27.8895056,53.4672477 27.5425883,53.1139998 27.2227298,52.7369359" id="Path" stroke="#263238" stroke-width="0.5" stroke-linecap="round" stroke-linejoin="round"></path>
                                <path d="M35.9888579,56.1729248 C33.8484596,56.4164409 31.6860541,55.9733468 29.8139276,54.9076323" id="Path" stroke="#263238" stroke-width="0.5" stroke-linecap="round" stroke-linejoin="round"></path>
                                <path d="M61.9387187,10.88 L26.9651253,10.88 C22.1350418,10.88 18.221727,14.6190529 18.221727,19.2142618 L18.221727,35.6933705 C18.221727,39.7013928 21.18039,43.0502507 25.1277994,43.8571588 L23.2828969,49.3161003 L31.821727,44.0579387 L61.9387187,44.0579387 C66.7650139,44.0579387 70.682117,40.3188858 70.682117,35.7236769 L70.682117,19.2445682 C70.682117,14.6190529 66.7650139,10.88 61.9387187,10.88 Z" id="Path" stroke="#263238" stroke-width="0.757660167" fill="#ADC7F7" fill-rule="nonzero"></path>
                                <line x1="23.9155432" y1="21.9759331" x2="63.2305292" y2="21.9759331" id="Path" stroke="#263238" stroke-width="0.781939387" stroke-linecap="round"></line>
                                <line x1="23.9155432" y1="26.0256267" x2="63.2305292" y2="26.0256267" id="Path" stroke="#263238" stroke-width="0.781939387" stroke-linecap="round"></line>
                                <line x1="23.9155432" y1="30.071532" x2="63.2305292" y2="30.071532" id="Path" stroke="#263238" stroke-width="0.781939387" stroke-linecap="round"></line>
                                <line x1="23.9155432" y1="34.1174373" x2="63.2305292" y2="34.1174373" id="Path" stroke="#263238" stroke-width="0.781939387" stroke-linecap="round"></line>
                                <ellipse id="Oval" fill="#263238" fill-rule="nonzero" cx="70.3638997" cy="20.6689694" rx="4.87554318" ry="4.65582173"></ellipse>
                                <path d="M69.9850696,23.9572145 C69.8248455,23.6371549 69.7529196,23.2801411 69.7767131,22.9230084 L69.7767131,19.1347075 L68.9205571,19.6120334 C68.8283492,19.6653315 68.723988,19.6940309 68.617493,19.695376 C68.456022,19.6970393 68.3015704,19.6294667 68.1932033,19.5097493 C68.0816657,19.3938979 68.0203968,19.2386833 68.0227298,19.077883 C68.0202131,18.9686093 68.0520099,18.8612951 68.113649,18.7710306 C68.2020885,18.6652825 68.3069777,18.5744638 68.4242897,18.5020613 L70.0835655,17.6534819 C70.2688569,17.5205823 70.485613,17.4383194 70.7124234,17.4148189 C71.2768802,17.4148189 71.5572145,17.8391086 71.5572145,18.687688 L71.5572145,23.0555989 C71.5572145,23.8852368 71.261727,24.2981616 70.6669638,24.2981616 C70.3935415,24.3222809 70.1298275,24.1904239 69.9850696,23.9572145 L69.9850696,23.9572145 Z" id="Path" fill="#FFFFFF" fill-rule="nonzero"></path>
                                <path d="M51.6572702,8.44033426 C51.6572702,8.44033426 51.8125905,11.4899164 54.5591086,12.9408357 C57.3056267,14.3917549 60.8135933,14.0773259 60.8893593,12.2551532 C60.9651253,10.4329805 58.8285237,8.51610028 57.3813928,6.07264624 C55.9342618,3.6291922 52.725571,5.0081337 51.3542061,6.68635097" id="Path" stroke="#263238" stroke-width="0.5" fill="#FFFFFF" fill-rule="nonzero" stroke-linecap="round" stroke-linejoin="round"></path>
                                <path d="M56.3888579,10.88 C56.1577716,12.0998329 56.9987744,12.7741504 57.7602228,13.1529805 C58.5216713,13.5318106 60.0332033,13.3083008 60.8893593,12.24 C60.9272423,11.345961 60.4385515,10.4367688 59.7528691,9.45559889 C58.7982173,9.57682451 56.5669081,9.92534819 56.3888579,10.88 Z" id="Path" stroke="#263238" stroke-width="0.5" fill="#FFFFFF" fill-rule="nonzero" stroke-linecap="round" stroke-linejoin="round"></path>
                                <path d="M45.9369359,8.44033426 C45.9369359,8.44033426 46.088468,11.4899164 48.8349861,12.9408357 C51.5815042,14.3917549 55.0932591,14.0773259 55.1690251,12.2551532 C55.2447911,10.4329805 53.1081894,8.51610028 51.6572702,6.07264624 C50.206351,3.6291922 47.0052368,5.0081337 45.6300836,6.68635097" id="Path" stroke="#263238" stroke-width="0.5" fill="#FFFFFF" fill-rule="nonzero" stroke-linecap="round" stroke-linejoin="round"></path>
                                <path d="M50.6685237,10.88 C50.4374373,12.0998329 51.2784401,12.7741504 52.0398886,13.1529805 C52.801337,13.5318106 54.3128691,13.3083008 55.1690251,12.24 C55.2031198,11.345961 54.714429,10.4367688 54.0325348,9.45559889 C53.077883,9.57682451 50.8465738,9.92534819 50.6685237,10.88 Z" id="Path" stroke="#263238" stroke-width="0.5" fill="#FFFFFF" fill-rule="nonzero" stroke-linecap="round" stroke-linejoin="round"></path>
                                <path d="M40.6143733,8.44033426 C40.6143733,8.44033426 40.7659053,11.4899164 43.5124234,12.9408357 C46.2589415,14.3917549 49.7669081,14.0773259 49.8426741,12.2551532 C49.9184401,10.4329805 47.7856267,8.51610028 46.3347075,6.07264624 C44.8837883,3.6291922 41.6788858,5.0081337 40.3075209,6.68635097" id="Path" stroke="#263238" stroke-width="0.5" fill="#FFFFFF" fill-rule="nonzero" stroke-linecap="round" stroke-linejoin="round"></path>
                                <path d="M45.3421727,10.88 C45.1148747,12.0998329 45.9520891,12.7741504 46.7173259,13.1529805 C47.4825627,13.5318106 48.9903064,13.3083008 49.8426741,12.24 C49.8805571,11.345961 49.3918663,10.4367688 48.7061838,9.45559889 C47.751532,9.57682451 45.5202228,9.92534819 45.3421727,10.88 Z" id="Path" stroke="#263238" stroke-width="0.5" fill="#FFFFFF" fill-rule="nonzero" stroke-linecap="round" stroke-linejoin="round"></path>
                                <path d="M19.1612256,41.6713092 C19.1612256,41.6713092 19.3733705,46.3612256 21.9607799,49.5168802" id="Path" stroke="#263238" stroke-width="0.5" stroke-linecap="round" stroke-linejoin="round"></path>
                                <path d="M11.6300836,61.2454596 C11.6300836,62.2001114 10.993649,62.9729248 10.2094708,62.9729248 C9.42529248,62.9729248 8.78885794,62.2152646 8.78885794,61.2454596 C8.78885794,60.2756546 9.42529248,59.5179944 10.2094708,59.5179944 C10.993649,59.5179944 11.6300836,60.2908078 11.6300836,61.2454596 Z" id="Path" fill="#FFFFFF" fill-rule="nonzero"></path>
                                <path d="M8.09559889,63.3972145 C8.09559889,64.3518663 7.45916435,65.1246797 6.67498607,65.1246797 C5.8908078,65.1246797 5.25437326,64.3670195 5.25437326,63.3972145 C5.25437326,62.4274095 5.8908078,61.665961 6.67498607,61.665961 C7.45916435,61.665961 8.09559889,62.4425627 8.09559889,63.3972145 Z" id="Path" stroke="#263238" stroke-width="0.5" stroke-linecap="round" stroke-linejoin="round"></path>
                            </g>
                        </g>
                    </g>
                </g>
            </g>
        </g>
    </g>
</svg>