<?xml version="1.0" encoding="UTF-8"?>
<svg width="191px" height="170px" viewBox="0 0 191 170" version="1.1" xmlns="http://www.w3.org/2000/svg" xmlns:xlink="http://www.w3.org/1999/xlink">
    <title>Ok-bro</title>
    <g id="Page-1" stroke="none" stroke-width="1" fill="none" fill-rule="evenodd">
        <g id="hashtag-copy" transform="translate(-977.000000, -238.000000)">
            <g id="check_ok" transform="translate(752.000000, 74.000000)">
                <g id="Ok-bro" transform="translate(225.000000, 164.000000)">
                    <g id="freepik--background-simple--inject-81" fill-rule="nonzero">
                        <path d="M180.2,29.03175 C180.2,29.03175 167.85375,4.3095 140.58575,0.646 C113.31775,-3.0175 94.26075,14.83675 74.20925,23.9955 C63.70325,28.7895 51.68425,26.928 40.545,29.2485 C4.86625,36.669 -8.57225,83.164 6.28575,109.60325 C19.1505,132.49375 41.786,144.39375 76.262,147.1435 C110.738,149.89325 134.912,153.0935 165.78825,130.662 C196.6645,108.2305 194.599,61.53575 180.2,29.03175 Z" id="Path" fill="#ADC7F7"></path>
                        <path d="M180.2,29.03175 C180.2,29.03175 167.85375,4.3095 140.58575,0.646 C113.31775,-3.0175 94.26075,14.83675 74.20925,23.9955 C63.70325,28.7895 51.68425,26.928 40.545,29.2485 C4.86625,36.669 -8.57225,83.164 6.28575,109.60325 C19.1505,132.49375 41.786,144.39375 76.262,147.1435 C110.738,149.89325 134.912,153.0935 165.78825,130.662 C196.6645,108.2305 194.599,61.53575 180.2,29.03175 Z" id="Path" fill="#FFFFFF" opacity="0.7"></path>
                    </g>
                    <g id="freepik--Plants--inject-81" transform="translate(138.975000, 62.475000)">
                        <path d="M35.6065,75.50125 C37.077,67.048 51.0425,50.87675 47.00075,40.953 C42.959,31.02925 33.031,62.628 29.35475,63.00625 C25.6785,63.3845 28.98925,48.671 34.136,34.7055 C39.28275,20.74 43.3245,6.035 34.136,0.52275 C24.9475,-4.9895 25.313,38.74725 23.10725,37.27675 C20.9015,35.80625 24.57775,17.42925 22.0065,6.035 C19.43525,-5.35925 13.55325,3.82925 13.55325,17.085 C13.55325,30.34075 17.595,37.66775 14.654,38.76 C11.713,39.85225 2.69025,35.7425 2.89425,50.15425 C3.09825,64.566 14.2885,81.76575 10.2425,79.56 C6.1965,77.35425 -1.15175,68.901 0.31875,82.501 C1.36,92.1145 8.81875,101.354 13.11125,105.94825 L32.76325,105.94825 C35.7595,102.867 41.582,96.373 45.51325,88.7485 C51.0425,78.07675 34.136,83.95875 35.6065,75.50125 Z" id="Path" fill="#ADC7F7" fill-rule="nonzero"></path>
                        <path d="M11.713,105.08975 C8.075,99.875 6.375,93.5 4.675,87.55 C3.825,83.725 3.825,79.475 6.8,76.925 C9.775,74.8 11.475,78.625 13.175,80.325 C14.45,79.475 13.6,78.2 13.6,77.35 C12.7520694,70.5830478 12.3262458,63.76987 12.325,56.95 C12.325,52.7 14.025,49.3 15.725,45.475 C16.575,44.2 17.425,42.925 18.7,42.5 C19.975,42.075 21.25,42.5 21.675,43.775 C22.525,46.75 22.525,49.725 22.95,52.7 C23.8,51.85 23.375,50.575 23.375,49.725 C25.075,37.4 23.8,25.5 27.625,13.6 C28.05,12.75 29.325,11.9 30.175,12.325 C33.15,12.75 33.15,16.575 33.15,19.125 C34.85,31.45 31.025,43.35 29.75,55.675 C29.75,56.525 29.325,57.375 30.175,58.225 C30.6,55.25 32.3,52.275 33.15,49.3 C33.575,48.025 34.425,46.325 35.7,45.475 C36.55,45.05 37.4,45.475 38.25,46.325 C39.95,48.875 40.375,51.425 39.95,54.4 C38.675,61.625 36.125,67.575 33.15,73.95 L31.875,77.775 C31.45,80.325 29.75,83.3 31.45,85.425 C34.425,85 35.275,81.6 37.825,79.9 C40.375,78.2 41.225,80.325 41.65,82.025 C43.35,90.525 40.375,98.175 36.091,105.07275" id="Path" stroke="#263238" stroke-width="0.5" stroke-linecap="round" stroke-linejoin="round"></path>
                        <path d="M23.61725,103.46625 C23.61725,103.46625 22.627,83.606 25.109,65.48825" id="Path" stroke="#263238" stroke-width="0.5" stroke-linecap="round" stroke-linejoin="round"></path>
                        <polyline id="Path" stroke="#263238" stroke-width="0.5" stroke-linecap="round" stroke-linejoin="round" points="15.4275 90.8055 23.61725 99.74325 30.81675 93.534"></polyline>
                        <polyline id="Path" stroke="#263238" stroke-width="0.5" stroke-linecap="round" stroke-linejoin="round" points="21.38175 68.4675 23.61725 79.883 30.073 68.4675"></polyline>
                        <line x1="25.3555" y1="62.509" x2="26.843" y2="51.83725" id="Path" stroke="#263238" stroke-width="0.5" stroke-linecap="round" stroke-linejoin="round"></line>
                    </g>
                    <g id="freepik--Window--inject-81" transform="translate(19.550000, 2.975000)" stroke="#263238" stroke-linecap="round" stroke-linejoin="round" stroke-width="0.5">
                        <rect id="Rectangle" x="0.36975" y="34.98175" width="26.7665" height="33.46025"></rect>
                        <rect id="Rectangle" x="33.83" y="34.98175" width="26.7665" height="33.46025"></rect>
                        <rect id="Rectangle" x="0.36975" y="73.916" width="26.7665" height="33.46025"></rect>
                        <rect id="Rectangle" x="33.83" y="73.916" width="26.7665" height="33.46025"></rect>
                        <rect id="Rectangle" x="0.36975" y="112.85025" width="26.7665" height="33.46025"></rect>
                        <rect id="Rectangle" x="33.83" y="112.85025" width="26.7665" height="33.46025"></rect>
                        <path d="M30.787,0.306 L30.787,0.306 C14.3236677,0.306 0.9775,13.6521677 0.9775,30.1155 L60.5965,30.1155 C60.5965,13.6521677 47.2503323,0.306 30.787,0.306 Z" id="Path"></path>
                    </g>
                    <g id="freepik--Character--inject-81" transform="translate(16.150000, 13.600000)">
                        <path d="M72.73875,5.661 C72.73875,5.661 72.73875,-0.714 61.795,0.561 C50.85125,1.836 46.2655,11.50475 42.959,13.5405 C39.6525,15.57625 33.541,17.3655 33.286,20.41275 C33.031,23.46 35.836,24.73925 33.031,27.03 C30.226,29.32075 25.925,31.36925 26.92375,34.425 C27.9225,37.48075 30.74875,40.53225 29.47375,42.57225 C28.19875,44.61225 24.63725,46.64375 27.94375,48.94725 C31.25025,51.25075 32.78025,51.748 32.78025,54.7995 C32.78025,57.851 31.50525,59.8995 34.56525,60.911 C37.62525,61.9225 39.3975,59.891 41.1825,63.7075 C42.9675,67.524 44.744,68.544 47.79975,67.779 C50.8555,67.014 55.17775,65.74325 56.72475,66.76325 C58.27175,67.78325 63.09975,70.58825 65.12275,69.054 C67.14575,67.51975 68.94775,65.229 71.995,66.504 C75.04225,67.779 77.5965,69.55975 78.86725,67.269 C80.138,64.97825 78.86725,64.46825 83.70375,63.444 C88.54025,62.41975 90.321,62.68325 90.321,58.61175 C90.321,54.54025 90.066,53.51175 92.35675,51.7395 C94.6475,49.96725 96.68325,50.7195 95.9225,46.393 C95.16175,42.0665 93.63175,41.0465 94.3925,36.72 C95.15325,32.3935 93.1175,30.86775 91.59175,29.59275 C90.066,28.31775 88.28525,26.03125 88.79525,23.7405 C89.30525,21.44975 93.12175,21.1905 89.301,17.12325 C85.48025,13.056 83.70375,14.3225 82.926,11.26675 C82.14825,8.211 79.611,1.5895 72.73875,5.661 Z" id="Path" stroke="#263238" stroke-width="0.5" fill="#263238" fill-rule="nonzero" stroke-linecap="round" stroke-linejoin="round"></path>
                        <path d="M62.968,13.32375 C61.39975,15.80575 60.1885,18.6065 57.664,20.97375 C54.0175,24.37375 44.676,27.34875 44.22125,30.54475 C43.7665,33.74075 45.36025,35.5555 42.17275,38.28825 C38.98525,41.021 33.97025,41.68825 33.97025,44.44225 C33.97025,47.19625 35.3345,48.08875 34.6545,50.13725" id="Path" stroke="#616161" stroke-width="0.5"></path>
                        <path d="M69.7425,10.26375 C69.7425,10.26375 68.6035,7.28875 65.41175,10.26375 C65.16525,10.49325 64.9315,10.73125 64.7105,10.9735" id="Path" stroke="#616161" stroke-width="0.5"></path>
                        <path d="M44.0045,23.28575 C41.1995,23.96575 38.98525,24.4545 38.75575,26.4435 C38.29675,30.31525 38.981,32.8185 36.24825,33.96175 C33.5155,35.105 29.87325,36.93675 31.008,39.202 C32.14275,41.46725 32.37225,42.177 32.147,43.07375" id="Path" stroke="#616161" stroke-width="0.5"></path>
                        <path d="M69.275,6.61725 C69.275,6.61725 62.9,2.52025 59.5,6.1625 C56.1,9.80475 57.67675,14.365 52.4365,19.38 C51.1056111,20.6192502 49.5347653,21.5724615 47.821,22.18075" id="Path" stroke="#616161" stroke-width="0.5"></path>
                        <path d="M91.44725,38.93 C91.8296471,39.523748 92.3578794,40.0095461 92.9815,40.341" id="Path" stroke="#616161" stroke-width="0.5"></path>
                        <path d="M73.84375,12.325 C73.84375,12.325 79.53875,10.50175 80.903,13.68925 C82.26725,16.87675 82.95575,22.576 85.46325,23.48975 C87.97075,24.4035 89.1055,25.76775 89.1055,30.7785 C89.1025525,32.3934534 89.3432612,33.9996104 89.8195,35.54275" id="Path" stroke="#616161" stroke-width="0.5"></path>
                        <path d="M36.9325,52.87 C38.75575,49.895 41.259,51.051 41.4885,47.85925 C41.718,44.6675 39.89475,43.758 41.71375,41.7095 C43.53275,39.661 46.49925,38.7345 46.49925,38.7345" id="Path" stroke="#616161" stroke-width="0.5"></path>
                        <path d="M39.43575,59.2535 C38.593904,58.5563967 37.8630383,57.7352476 37.26825,56.81825" id="Path" stroke="#616161" stroke-width="0.5"></path>
                        <path d="M102.5185,154.8105 C102.5185,154.8105 103.27925,144.37675 98.6935,133.93875 C94.10775,123.50075 93.075,122.7485 93.075,119.69275 C93.075,116.637 96.1435,113.07125 96.6535,106.199 C97.1635,99.32675 96.9085,95.999 96.9085,95.999 C96.9085,95.999 107.85225,113.305 115.4895,114.325 C123.12675,115.345 127.70825,108.21775 124.9075,98.54475 C122.10675,88.87175 109.888,80.98375 105.05575,74.61725 C100.2235,68.25075 89.27125,68.24225 83.674,68.24225 C78.07675,68.24225 75.276,66.2065 74.256,62.39 C73.236,58.5735 73.24025,50.915 73.24025,50.915 C73.24025,50.915 66.61875,54.9865 55.42,50.405 C55.42,50.405 56.44,64.4045 55.165,66.44025 C53.89,68.476 52.122,70.55 44.48475,70.55 C36.8475,70.55 30.48525,72.08 26.92375,75.65 C23.36225,79.22 8.59775,93.466 4.78125,99.0675 C0.96475,104.669 2.99625,110.77625 7.57775,113.067 C12.15925,115.35775 16.74075,113.31775 20.0515,110.26625 C23.36225,107.21475 33.796,97.5375 33.796,97.5375 C33.796,97.5375 33.796,103.394 36.59675,111.792 C39.3975,120.19 41.69675,119.17425 39.64825,125.2815 C37.59975,131.38875 33.541,133.17375 32.27025,141.06175 C31.5090958,145.60223 31.1676544,150.203154 31.25025,154.80625" id="Path" fill="#ADC7F7" fill-rule="nonzero"></path>
                        <g id="Group" opacity="0.2" transform="translate(2.975000, 50.575000)" fill="#000000" fill-rule="nonzero">
                            <path d="M82.841,25.64875 C82.66675,25.64875 82.02925,26.07375 82.841,27.3105 C83.65275,26.08225 83.01525,25.64875 82.841,25.64875 Z" id="Path"></path>
                            <path d="M103.241,25.64875 C103.06675,25.64875 102.42925,26.07375 103.241,27.3105 C104.05275,26.08225 103.41525,25.64875 103.241,25.64875 Z" id="Path"></path>
                            <path d="M103.241,35.84875 C103.06675,35.84875 102.42925,36.27375 103.241,37.5105 C104.05275,36.28225 103.41525,35.84875 103.241,35.84875 Z" id="Path"></path>
                            <path d="M82.841,35.84875 C82.66675,35.84875 82.02925,36.27375 82.841,37.5105 C83.65275,36.28225 83.01525,35.84875 82.841,35.84875 Z" id="Path"></path>
                            <path d="M93.041,30.74875 C92.86675,30.74875 92.22925,31.17375 93.041,32.4105 C93.85275,31.18225 93.21525,30.74875 93.041,30.74875 Z" id="Path"></path>
                            <path d="M93.041,20.54875 C92.86675,20.54875 92.22925,20.97375 93.041,22.2105 C93.85275,20.98225 93.21525,20.54875 93.041,20.54875 Z" id="Path"></path>
                            <path d="M83.3,27.5655 C84.7705,27.64625 84.8215,26.877 84.7365,26.7155 C84.6515,26.554 83.93325,26.24375 83.3,27.5655 Z" id="Path"></path>
                            <path d="M104.94525,27.27225 L104.38,26.69 C104.069806,26.9103202 103.828188,27.2138156 103.683,27.5655 C104.125965,27.638237 104.57972,27.5328193 104.94525,27.27225 Z" id="Path"></path>
                            <path d="M93.5,32.6655 C94.9705,32.74625 95.0215,31.977 94.9365,31.8155 C94.8515,31.654 94.13325,31.34375 93.5,32.6655 Z" id="Path"></path>
                            <path d="M93.5,22.4655 C94.9705,22.54625 95.0215,21.777 94.9365,21.6155 C94.8515,21.454 94.13325,21.14375 93.5,22.4655 Z" id="Path"></path>
                            <path d="M101.3625,26.72825 C101.2775,26.877 101.33275,27.64625 102.799,27.57825 C102.14875,26.24375 101.45175,26.57525 101.3625,26.72825 Z" id="Path"></path>
                            <path d="M101.3625,36.92825 C101.301344,37.1497589 101.390768,37.3853572 101.5835,37.5105 L101.5835,37.5105 C101.945081,37.7382565 102.376372,37.8287371 102.799,37.7655 C102.758902,37.6778095 102.713484,37.5926509 102.663,37.5105 C102.05525,36.4905 101.4475,36.78375 101.3625,36.92825 Z" id="Path"></path>
                            <path d="M91.1625,31.82825 C91.0775,31.977 91.13275,32.74625 92.599,32.67825 C91.94875,31.34375 91.25175,31.67525 91.1625,31.82825 Z" id="Path"></path>
                            <path d="M91.1625,21.62825 C91.0775,21.777 91.13275,22.54625 92.599,22.47825 C91.94875,21.14375 91.25175,21.47525 91.1625,21.62825 Z" id="Path"></path>
                            <path d="M82.841,56.24875 C82.66675,56.24875 82.02925,56.67375 82.841,57.9105 C83.65275,56.68225 83.01525,56.24875 82.841,56.24875 Z" id="Path"></path>
                            <path d="M103.241,56.24875 C103.1135,56.24875 102.748,56.47825 102.86275,57.069 C103.04125,57.26025 103.21975,57.4515 103.4025,57.6385 C103.955,56.6185 103.4025,56.24875 103.241,56.24875 Z" id="Path"></path>
                            <path d="M82.841,66.44875 C82.66675,66.44875 82.02925,66.87375 82.841,68.1105 C83.65275,66.88225 83.01525,66.44875 82.841,66.44875 Z" id="Path"></path>
                            <path d="M113.441,61.34875 C113.26675,61.34875 112.62925,61.77375 113.441,63.0105 C114.25275,61.78225 113.61525,61.34875 113.441,61.34875 Z" id="Path"></path>
                            <path d="M82.841,46.04875 C82.66675,46.04875 82.02925,46.47375 82.841,47.7105 C83.65275,46.48225 83.01525,46.04875 82.841,46.04875 Z" id="Path"></path>
                            <path d="M103.241,46.04875 C103.06675,46.04875 102.42925,46.47375 103.241,47.7105 C104.05275,46.48225 103.41525,46.04875 103.241,46.04875 Z" id="Path"></path>
                            <path d="M93.041,51.14875 C92.86675,51.14875 92.22925,51.57375 93.041,52.8105 C93.85275,51.58225 93.21525,51.14875 93.041,51.14875 Z" id="Path"></path>
                            <path d="M113.441,51.14875 C113.26675,51.14875 112.62925,51.57375 113.441,52.8105 C114.25275,51.58225 113.61525,51.14875 113.441,51.14875 Z" id="Path"></path>
                            <path d="M93.041,40.94875 C92.86675,40.94875 92.22925,41.37375 93.041,42.6105 C93.85275,41.38225 93.21525,40.94875 93.041,40.94875 Z" id="Path"></path>
                            <path d="M113.441,40.94875 C113.26675,40.94875 112.62925,41.37375 113.441,42.6105 C114.25275,41.38225 113.61525,40.94875 113.441,40.94875 Z" id="Path"></path>
                            <path d="M83.3,58.1655 C84.7705,58.24625 84.8215,57.477 84.7365,57.3155 C84.6515,57.154 83.93325,56.84375 83.3,58.1655 Z" id="Path"></path>
                            <path d="M103.76375,58.0125 L103.91675,58.16975 C105.1535,58.16975 105.19175,57.4685 105.1195,57.31975 C105.04725,57.1710031 104.3885,56.8735 103.76375,58.0125 Z" id="Path"></path>
                            <path d="M84.3965,67.37525 C84.2105696,67.3715072 84.0295147,67.4348765 83.8865,67.55375 C83.7998983,67.6223353 83.7201881,67.6991988 83.6485,67.78325 C83.5631161,67.8858252 83.4863549,67.995281 83.419,68.1105 C83.4202205,68.1189562 83.4202205,68.1275438 83.419,68.136 C83.38075,68.204 83.33825,68.2805 83.3,68.3655 C83.7226505,68.429508 84.1542088,68.3389713 84.5155,68.1105 L84.5155,68.1105 C84.5457023,68.0871564 84.5741149,68.061585 84.6005,68.034 C84.6429403,67.9882542 84.6787099,67.9367459 84.70675,67.881 C84.791672,67.7809102 84.8044162,67.6382086 84.738574,67.5246546 C84.6727317,67.4111006 84.5425531,67.3512702 84.4135,67.37525 L84.3965,67.37525 Z" id="Path"></path>
                            <path d="M113.9,63.2655 C115.36625,63.34625 115.4215,62.577 115.3365,62.4155 C115.2515,62.254 114.53325,61.94375 113.9,63.2655 Z" id="Path"></path>
                            <path d="M83.3,47.9655 C84.7705,48.04625 84.8215,47.277 84.7365,47.1155 C84.6515,46.954 83.93325,46.64375 83.3,47.9655 Z" id="Path"></path>
                            <path d="M105.1195,47.12825 C105.03025,46.97525 104.33325,46.64375 103.683,47.97825 C105.14925,48.04625 105.2045,47.277 105.1195,47.12825 Z" id="Path"></path>
                            <path d="M93.5,53.0655 C93.6231673,53.0718869 93.7465827,53.0718869 93.86975,53.0655 C93.86975,52.853 93.891,52.6405 93.8995,52.445 C93.7385916,52.6325963 93.6041724,52.841375 93.5,53.0655 Z" id="Path"></path>
                            <path d="M113.9,53.0655 C115.36625,53.14625 115.4215,52.377 115.3365,52.2155 C115.2515,52.054 114.53325,51.74375 113.9,53.0655 Z" id="Path"></path>
                            <path d="M93.5,42.8655 C94.9705,42.94625 95.0215,42.177 94.9365,42.0155 C94.8515,41.854 94.13325,41.54375 93.5,42.8655 Z" id="Path"></path>
                            <path d="M113.9,42.8655 C115.36625,42.94625 115.4215,42.177 115.3365,42.0155 C115.2515,41.854 114.53325,41.54375 113.9,42.8655 Z" id="Path"></path>
                            <path d="M91.92325,63.2315 L92.157,62.59825 C91.664,62.08825 91.2305,62.30925 91.1625,62.42825 C91.0945,62.54725 91.11575,63.08275 91.92325,63.2315 Z" id="Path"></path>
                            <path d="M121.7625,57.32825 C121.696891,57.5788589 121.815649,57.8411889 122.04725,57.95725 C122.1365,57.71075 122.213,57.45575 122.28525,57.1965 C122.100247,57.1339538 121.89576,57.1854911 121.7625,57.32825 L121.7625,57.32825 Z" id="Path"></path>
                            <path d="M111.5625,62.42825 C111.47325,62.577 111.53275,63.34625 112.999,63.27825 C112.34875,61.94375 111.65175,62.27525 111.5625,62.42825 Z" id="Path"></path>
                            <path d="M101.3625,47.12825 C101.2775,47.277 101.33275,48.04625 102.799,47.97825 C102.14875,46.64375 101.45175,46.97525 101.3625,47.12825 Z" id="Path"></path>
                            <path d="M91.1625,52.22825 C91.0775,52.377 91.13275,53.14625 92.599,53.07825 C91.94875,51.74375 91.25175,52.07525 91.1625,52.22825 Z" id="Path"></path>
                            <path d="M111.5625,52.22825 C111.47325,52.377 111.53275,53.14625 112.999,53.07825 C112.34875,51.74375 111.65175,52.07525 111.5625,52.22825 Z" id="Path"></path>
                            <path d="M91.1625,42.02825 C91.0775,42.177 91.13275,42.94625 92.599,42.87825 C91.94875,41.54375 91.25175,41.87525 91.1625,42.02825 Z" id="Path"></path>
                            <path d="M111.5625,42.02825 C111.47325,42.177 111.53275,42.94625 112.999,42.87825 C112.34875,41.54375 111.65175,41.87525 111.5625,42.02825 Z" id="Path"></path>
                            <path d="M104.8985,37.5105 L104.8985,37.5105 C105.091232,37.3853572 105.180656,37.1497589 105.1195,36.92825 C105.0345,36.78375 104.42675,36.50325 103.819,37.5105 L103.819,37.5105 C103.768516,37.5926509 103.723098,37.6778095 103.683,37.7655 C104.10565,37.829508 104.537209,37.7389713 104.8985,37.5105 L104.8985,37.5105 Z" id="Path"></path>
                            <path d="M84.4985,37.5105 L84.4985,37.5105 C84.6912317,37.3853572 84.7806559,37.1497589 84.7195,36.92825 C84.6345,36.78375 84.02675,36.50325 83.419,37.5105 L83.419,37.5105 C83.3685156,37.5926509 83.3230977,37.6778095 83.283,37.7655 C83.7056505,37.829508 84.1372088,37.7389713 84.4985,37.5105 L84.4985,37.5105 Z" id="Path"></path>
                            <path d="M82.841,86.84875 C82.66675,86.84875 82.02925,87.27375 82.841,88.5105 C83.65275,87.28225 83.01525,86.84875 82.841,86.84875 Z" id="Path"></path>
                            <path d="M82.841,97.04875 C82.66675,97.04875 82.02925,97.47375 82.841,98.7105 C83.65275,97.48225 83.01525,97.04875 82.841,97.04875 Z" id="Path"></path>
                            <path d="M93.041,91.94875 C92.86675,91.94875 92.22925,92.37375 93.041,93.6105 C93.85275,92.38225 93.21525,91.94875 93.041,91.94875 Z" id="Path"></path>
                            <path d="M82.841,76.64875 C82.66675,76.64875 82.02925,77.07375 82.841,78.3105 C83.65275,77.08225 83.01525,76.64875 82.841,76.64875 Z" id="Path"></path>
                            <path d="M93.041,81.74875 C92.86675,81.74875 92.22925,82.17375 93.041,83.4105 C93.85275,82.18225 93.21525,81.74875 93.041,81.74875 Z" id="Path"></path>
                            <path d="M83.3,88.7655 C84.7705,88.84625 84.8215,88.077 84.7365,87.9155 C84.6515,87.754 83.93325,87.44375 83.3,88.7655 Z" id="Path"></path>
                            <path d="M84.3965,97.97525 L84.30725,97.97525 C84.197631,97.9832219 84.0913907,98.0166949 83.997,98.073 L83.8865,98.1495 C83.697369,98.3043647 83.5388185,98.493184 83.419,98.70625 L83.419,98.70625 C83.3685156,98.7884009 83.3230977,98.8735595 83.283,98.96125 C83.7056505,99.025258 84.1372088,98.9347213 84.4985,98.70625 L84.4985,98.70625 C84.6912317,98.5811072 84.7806559,98.3455089 84.7195,98.124 C84.6387489,98.0295915 84.5207325,97.97525 84.3965,97.97525 Z" id="Path"></path>
                            <path d="M93.5,93.8655 C94.9705,93.94625 95.0215,93.177 94.9365,93.0155 C94.8515,92.854 94.13325,92.54375 93.5,93.8655 Z" id="Path"></path>
                            <path d="M83.3,78.5655 C84.7705,78.64625 84.8215,77.877 84.7365,77.7155 C84.6515,77.554 83.93325,77.24375 83.3,78.5655 Z" id="Path"></path>
                            <path d="M93.5,83.6655 C94.9705,83.74625 95.0215,82.977 94.9365,82.8155 C94.8515,82.654 94.13325,82.34375 93.5,83.6655 Z" id="Path"></path>
                            <path d="M91.1625,93.02825 C91.0775,93.177 91.13275,93.94625 92.599,93.87825 C91.94875,92.54375 91.25175,92.87525 91.1625,93.02825 Z" id="Path"></path>
                            <path d="M91.1625,82.82825 C91.0775,82.977 91.13275,83.74625 92.599,83.67825 C91.94875,82.34375 91.25175,82.67525 91.1625,82.82825 Z" id="Path"></path>
                            <path d="M93.041,102.14875 C92.86675,102.14875 92.22925,102.57375 93.041,103.8105 C93.85275,102.58225 93.21525,102.14875 93.041,102.14875 Z" id="Path"></path>
                            <path d="M93.5,104.0655 C94.9705,104.14625 95.0215,103.377 94.9365,103.2155 C94.8515,103.054 94.13325,102.74375 93.5,104.0655 Z" id="Path"></path>
                            <path d="M91.1625,103.22825 C91.0775,103.377 91.13275,104.14625 92.599,104.07825 C91.94875,102.74375 91.25175,103.07525 91.1625,103.22825 Z" id="Path"></path>
                            <path d="M62.441,5.24875 C62.26675,5.24875 61.62925,5.67375 62.441,6.9105 C63.25275,5.68225 62.61525,5.24875 62.441,5.24875 Z" id="Path"></path>
                            <path d="M52.48325,0.289 C52.48325,0.5185 52.51725,0.83725 52.54275,1.23675 C52.7076253,0.935855996 52.6844628,0.566910891 52.48325,0.289 Z" id="Path"></path>
                            <path d="M63.9965,6.17525 C63.8105696,6.17150724 63.6295147,6.23487648 63.4865,6.35375 C63.3998983,6.42233533 63.3201881,6.49919876 63.2485,6.58325 C63.1631161,6.68582521 63.0863549,6.79528102 63.019,6.9105 L63.019,6.936 C62.98075,7.004 62.93825,7.0805 62.9,7.1655 C63.3226505,7.22950804 63.7542088,7.13897133 64.1155,6.9105 L64.1155,6.9105 C64.1457023,6.88715638 64.1741149,6.86158495 64.2005,6.834 C64.2429403,6.78825419 64.2787099,6.73674594 64.30675,6.681 C64.3674955,6.57333876 64.3783559,6.44456437 64.3365,6.32825 C64.2527797,6.22760687 64.1273489,6.17116299 63.9965,6.17525 Z" id="Path"></path>
                            <path d="M52.7,2.0655 C54.1705,2.14625 54.2215,1.377 54.1365,1.2155 C54.0515,1.054 53.33325,0.74375 52.7,2.0655 Z" id="Path"></path>
                            <path d="M42.432,26.1205 C42.4244708,26.0554539 42.4057802,25.9921935 42.37675,25.9335 L42.37675,25.9335 C42.3644141,25.9070251 42.3502117,25.8814606 42.33425,25.857 L42.33425,25.857 C42.307243,25.8155867 42.2743093,25.7783574 42.2365,25.7465 L42.2365,25.7465 C42.2059515,25.7201707 42.1715532,25.6986718 42.1345,25.68275 L42.1345,25.68275 C42.0812825,25.6547892 42.0177175,25.6547892 41.9645,25.68275 C41.769,25.76775 41.45025,26.10775 41.80725,26.89825 C41.8780068,27.0453839 41.9589537,27.1873961 42.0495,27.32325 C42.1400463,27.1873961 42.2209932,27.0453839 42.29175,26.89825 C42.3920151,26.698773 42.4471524,26.4796747 42.45325,26.2565 C42.4555093,26.2168655 42.4555093,26.1771345 42.45325,26.1375 L42.432,26.1205 Z" id="Path"></path>
                            <path d="M62.441,25.64875 C62.26675,25.64875 61.62925,26.07375 62.441,27.3105 C63.25275,26.08225 62.61525,25.64875 62.441,25.64875 Z" id="Path"></path>
                            <path d="M62.441,35.84875 C62.26675,35.84875 61.62925,36.27375 62.441,37.5105 C63.25275,36.28225 62.61525,35.84875 62.441,35.84875 Z" id="Path"></path>
                            <path d="M42.432,36.3205 C42.4244708,36.2554539 42.4057802,36.1921935 42.37675,36.1335 L42.37675,36.1335 C42.3644141,36.1070251 42.3502117,36.0814606 42.33425,36.057 L42.33425,36.057 C42.307243,36.0155867 42.2743093,35.9783574 42.2365,35.9465 L42.2365,35.9465 C42.2059515,35.9201707 42.1715532,35.8986718 42.1345,35.88275 L42.1345,35.88275 C42.0812825,35.8547892 42.0177175,35.8547892 41.9645,35.88275 C41.769,35.96775 41.45025,36.30775 41.80725,37.09825 C41.8780068,37.2453839 41.9589537,37.3873961 42.0495,37.52325 C42.1400463,37.3873961 42.2209932,37.2453839 42.29175,37.09825 C42.3920151,36.898773 42.4471524,36.6796747 42.45325,36.4565 C42.4555093,36.4168655 42.4555093,36.3771345 42.45325,36.3375 L42.432,36.3205 Z" id="Path"></path>
                            <path d="M52.241,30.74875 C52.06675,30.74875 51.42925,31.17375 52.241,32.4105 C53.05275,31.18225 52.41525,30.74875 52.241,30.74875 Z" id="Path"></path>
                            <path d="M72.641,30.74875 C72.46675,30.74875 71.82925,31.17375 72.641,32.4105 C73.45275,31.18225 72.81525,30.74875 72.641,30.74875 Z" id="Path"></path>
                            <path d="M62.441,15.44875 C62.26675,15.44875 61.62925,15.87375 62.441,17.1105 C63.25275,15.88225 62.61525,15.44875 62.441,15.44875 Z" id="Path"></path>
                            <path d="M52.241,20.54875 C52.06675,20.54875 51.42925,20.97375 52.241,22.2105 C53.05275,20.98225 52.41525,20.54875 52.241,20.54875 Z" id="Path"></path>
                            <path d="M72.641,20.54875 C72.46675,20.54875 71.82925,20.97375 72.641,22.2105 C73.45275,20.98225 72.81525,20.54875 72.641,20.54875 Z" id="Path"></path>
                            <path d="M42.5,27.5655 C43.9705,27.64625 44.0215,26.877 43.9365,26.7155 C43.8515,26.554 43.13325,26.24375 42.5,27.5655 Z" id="Path"></path>
                            <path d="M62.9,27.5655 C64.36625,27.64625 64.4215,26.877 64.3365,26.7155 C64.2515,26.554 63.53325,26.24375 62.9,27.5655 Z" id="Path"></path>
                            <path d="M52.7,32.6655 C54.1705,32.74625 54.2215,31.977 54.1365,31.8155 C54.0515,31.654 53.33325,31.34375 52.7,32.6655 Z" id="Path"></path>
                            <path d="M73.1,32.6655 C74.56625,32.74625 74.6215,31.977 74.5365,31.8155 C74.4515,31.654 73.73325,31.34375 73.1,32.6655 Z" id="Path"></path>
                            <path d="M62.9,17.3655 C64.36625,17.44625 64.4215,16.677 64.3365,16.5155 C64.2515,16.354 63.53325,16.04375 62.9,17.3655 Z" id="Path"></path>
                            <path d="M52.7,22.4655 C54.1705,22.54625 54.2215,21.777 54.1365,21.6155 C54.0515,21.454 53.33325,21.14375 52.7,22.4655 Z" id="Path"></path>
                            <path d="M73.1,22.4655 C74.56625,22.54625 74.6215,21.777 74.5365,21.6155 C74.4515,21.454 73.73325,21.14375 73.1,22.4655 Z" id="Path"></path>
                            <path d="M54.1195,11.42825 C54.0345,11.28375 53.414,11.00325 52.79775,12.0445 C52.79775,12.121 52.79775,12.19325 52.79775,12.2655 C54.14925,12.325 54.2045,11.57275 54.1195,11.42825 Z" id="Path"></path>
                            <path d="M60.5625,26.72825 C60.4775,26.877 60.53275,27.64625 61.999,27.57825 C61.34875,26.24375 60.65175,26.57525 60.5625,26.72825 Z" id="Path"></path>
                            <path d="M60.5625,36.92825 C60.5013441,37.1497589 60.5907683,37.3853572 60.7835,37.5105 L60.7835,37.5105 C61.1450808,37.7382565 61.5763716,37.8287371 61.999,37.7655 C61.9589023,37.6778095 61.9134844,37.5926509 61.863,37.5105 C61.25525,36.4905 60.6475,36.78375 60.5625,36.92825 Z" id="Path"></path>
                            <path d="M50.3625,31.82825 C50.2775,31.977 50.33275,32.74625 51.799,32.67825 C51.14875,31.34375 50.45175,31.67525 50.3625,31.82825 Z" id="Path"></path>
                            <path d="M80.9625,26.72825 C80.87325,26.877 80.93275,27.64625 82.399,27.57825 C81.74875,26.24375 81.05175,26.57525 80.9625,26.72825 Z" id="Path"></path>
                            <path d="M82.263,37.5105 C81.65525,36.4905 81.0475,36.78375 80.9625,36.92825 C80.9013441,37.1497589 80.9907683,37.3853572 81.1835,37.5105 L81.1835,37.5105 C81.5447912,37.7389713 81.9763495,37.829508 82.399,37.7655 C82.3589023,37.6778095 82.3134844,37.5926509 82.263,37.5105 Z" id="Path"></path>
                            <path d="M70.7625,31.82825 C70.67325,31.977 70.73275,32.74625 72.199,32.67825 C71.54875,31.34375 70.85175,31.67525 70.7625,31.82825 Z" id="Path"></path>
                            <path d="M60.5625,16.52825 C60.4775,16.677 60.53275,17.44625 61.999,17.37825 C61.34875,16.04375 60.65175,16.37525 60.5625,16.52825 Z" id="Path"></path>
                            <path d="M50.3625,21.62825 C50.2775,21.777 50.33275,22.54625 51.799,22.47825 C51.14875,21.14375 50.45175,21.47525 50.3625,21.62825 Z" id="Path"></path>
                            <path d="M70.7625,21.62825 C70.67325,21.777 70.73275,22.54625 72.199,22.47825 C71.54875,21.14375 70.85175,21.47525 70.7625,21.62825 Z" id="Path"></path>
                            <path d="M71.4,12.20175 C71.36175,12.08275 71.3235,11.968 71.2895,11.84475 C71.2555,11.7215 71.196,11.475 71.1535,11.27525 C71.005915,11.2586838 70.859647,11.3159191 70.7625,11.42825 C70.6945,11.543 70.71575,12.0275 71.4,12.20175 Z" id="Path"></path>
                            <path d="M61.863,6.9105 C61.7956451,6.79528102 61.7188839,6.68582521 61.6335,6.58325 C61.5629414,6.49814357 61.4831151,6.4211682 61.3955,6.35375 C61.2524853,6.23487648 61.0714304,6.17150724 60.8855,6.17525 C60.7605795,6.17629991 60.6424475,6.23225718 60.5625,6.32825 C60.5206441,6.44456437 60.5315045,6.57333876 60.59225,6.681 C60.6202901,6.73674594 60.6560597,6.78825419 60.6985,6.834 L60.7835,6.9105 L60.7835,6.9105 C61.1450808,7.13825648 61.5763716,7.22873708 61.999,7.1655 C61.96075,7.0805 61.91825,7.004 61.88,6.936 L61.863,6.9105 Z" id="Path"></path>
                            <path d="M42.432,56.7205 C42.4244708,56.6554539 42.4057802,56.5921935 42.37675,56.5335 L42.37675,56.5335 C42.3644141,56.5070251 42.3502117,56.4814606 42.33425,56.457 L42.33425,56.457 C42.307243,56.4155867 42.2743093,56.3783574 42.2365,56.3465 L42.2365,56.3465 C42.2059515,56.3201707 42.1715532,56.2986718 42.1345,56.28275 L42.1345,56.28275 C42.0812825,56.2547892 42.0177175,56.2547892 41.9645,56.28275 C41.769,56.36775 41.45025,56.70775 41.80725,57.49825 C41.8780068,57.6453839 41.9589537,57.7873961 42.0495,57.92325 C42.1400463,57.7873961 42.2209932,57.6453839 42.29175,57.49825 C42.3920151,57.298773 42.4471524,57.0796747 42.45325,56.8565 C42.4555093,56.8168655 42.4555093,56.7771345 42.45325,56.7375 L42.432,56.7205 Z" id="Path"></path>
                            <path d="M62.441,56.24875 C62.26675,56.24875 61.62925,56.67375 62.441,57.9105 C63.25275,56.68225 62.61525,56.24875 62.441,56.24875 Z" id="Path"></path>
                            <path d="M62.441,66.44875 C62.26675,66.44875 61.62925,66.87375 62.441,68.1105 C63.25275,66.88225 62.61525,66.44875 62.441,66.44875 Z" id="Path"></path>
                            <path d="M42.432,66.9205 C42.4244708,66.8554539 42.4057802,66.7921935 42.37675,66.7335 L42.37675,66.7335 C42.3644141,66.7070251 42.3502117,66.6814606 42.33425,66.657 L42.33425,66.657 C42.307243,66.6155867 42.2743093,66.5783574 42.2365,66.5465 L42.2365,66.5465 C42.2059515,66.5201707 42.1715532,66.4986718 42.1345,66.48275 L42.1345,66.48275 C42.0814715,66.4540334 42.0175285,66.4540334 41.9645,66.48275 C41.769,66.56775 41.45025,66.90775 41.80725,67.69825 C41.8780068,67.8453839 41.9589537,67.9873961 42.0495,68.12325 C42.1400463,67.9873961 42.2209932,67.8453839 42.29175,67.69825 C42.3920151,67.498773 42.4471524,67.2796747 42.45325,67.0565 C42.4555093,67.0168655 42.4555093,66.9771345 42.45325,66.9375 L42.432,66.9205 Z" id="Path"></path>
                            <path d="M52.241,61.34875 C52.06675,61.34875 51.42925,61.77375 52.241,63.0105 C53.05275,61.78225 52.41525,61.34875 52.241,61.34875 Z" id="Path"></path>
                            <path d="M72.641,61.34875 C72.46675,61.34875 71.82925,61.77375 72.641,63.0105 C73.45275,61.78225 72.81525,61.34875 72.641,61.34875 Z" id="Path"></path>
                            <path d="M42.432,46.5205 C42.4244708,46.4554539 42.4057802,46.3921935 42.37675,46.3335 L42.37675,46.3335 C42.3644141,46.3070251 42.3502117,46.2814606 42.33425,46.257 L42.33425,46.257 C42.307243,46.2155867 42.2743093,46.1783574 42.2365,46.1465 L42.2365,46.1465 C42.2059515,46.1201707 42.1715532,46.0986718 42.1345,46.08275 L42.1345,46.08275 C42.0812825,46.0547892 42.0177175,46.0547892 41.9645,46.08275 C41.769,46.16775 41.45025,46.50775 41.80725,47.29825 C41.8780068,47.4453839 41.9589537,47.5873961 42.0495,47.72325 C42.1400463,47.5873961 42.2209932,47.4453839 42.29175,47.29825 C42.3920151,47.098773 42.4471524,46.8796747 42.45325,46.6565 C42.4555093,46.6168655 42.4555093,46.5771345 42.45325,46.5375 L42.432,46.5205 Z" id="Path"></path>
                            <path d="M62.441,46.04875 C62.26675,46.04875 61.62925,46.47375 62.441,47.7105 C63.25275,46.48225 62.61525,46.04875 62.441,46.04875 Z" id="Path"></path>
                            <path d="M52.241,51.14875 C52.06675,51.14875 51.42925,51.57375 52.241,52.8105 C53.05275,51.58225 52.41525,51.14875 52.241,51.14875 Z" id="Path"></path>
                            <path d="M72.641,51.14875 C72.46675,51.14875 71.82925,51.57375 72.641,52.8105 C73.45275,51.58225 72.81525,51.14875 72.641,51.14875 Z" id="Path"></path>
                            <path d="M52.241,40.94875 C52.06675,40.94875 51.42925,41.37375 52.241,42.6105 C53.05275,41.38225 52.41525,40.94875 52.241,40.94875 Z" id="Path"></path>
                            <path d="M72.641,40.94875 C72.46675,40.94875 71.82925,41.37375 72.641,42.6105 C73.45275,41.38225 72.81525,40.94875 72.641,40.94875 Z" id="Path"></path>
                            <path d="M42.5,58.1655 C43.9705,58.24625 44.0215,57.477 43.9365,57.3155 C43.8515,57.154 43.13325,56.84375 42.5,58.1655 Z" id="Path"></path>
                            <path d="M62.9,58.1655 C64.36625,58.24625 64.4215,57.477 64.3365,57.3155 C64.2515,57.154 63.53325,56.84375 62.9,58.1655 Z" id="Path"></path>
                            <path d="M63.9965,67.37525 C63.8105696,67.3715072 63.6295147,67.4348765 63.4865,67.55375 C63.3998983,67.6223353 63.3201881,67.6991988 63.2485,67.78325 C63.1631161,67.8858252 63.0863549,67.995281 63.019,68.1105 L63.019,68.136 C62.98075,68.204 62.93825,68.2805 62.9,68.3655 C63.3226505,68.429508 63.7542088,68.3389713 64.1155,68.1105 L64.1155,68.1105 C64.1457023,68.0871564 64.1741149,68.061585 64.2005,68.034 C64.2429403,67.9882542 64.2787099,67.9367459 64.30675,67.881 C64.3674955,67.7733388 64.3783559,67.6445644 64.3365,67.52825 C64.2527797,67.4276069 64.1273489,67.371163 63.9965,67.37525 Z" id="Path"></path>
                            <path d="M43.5965,67.37525 C43.4105696,67.3715072 43.2295147,67.4348765 43.0865,67.55375 C42.9998983,67.6223353 42.9201881,67.6991988 42.8485,67.78325 C42.7631161,67.8858252 42.6863549,67.995281 42.619,68.1105 L42.619,68.136 C42.58075,68.204 42.53825,68.2805 42.5,68.3655 C42.9226505,68.429508 43.3542088,68.3389713 43.7155,68.1105 L43.7155,68.1105 C43.7457023,68.0871564 43.7741149,68.061585 43.8005,68.034 C43.8429403,67.9882542 43.8787099,67.9367459 43.90675,67.881 C43.991672,67.7809102 44.0044162,67.6382086 43.938574,67.5246546 C43.8727317,67.4111006 43.7425531,67.3512702 43.6135,67.37525 L43.5965,67.37525 Z" id="Path"></path>
                            <path d="M52.7,63.2655 C54.1705,63.34625 54.2215,62.577 54.1365,62.4155 C54.0515,62.254 53.33325,61.94375 52.7,63.2655 Z" id="Path"></path>
                            <path d="M73.1,63.2655 C74.56625,63.34625 74.6215,62.577 74.5365,62.4155 C74.4515,62.254 73.73325,61.94375 73.1,63.2655 Z" id="Path"></path>
                            <path d="M42.5,47.9655 C43.9705,48.04625 44.0215,47.277 43.9365,47.1155 C43.8515,46.954 43.13325,46.64375 42.5,47.9655 Z" id="Path"></path>
                            <path d="M62.9,47.9655 C64.36625,48.04625 64.4215,47.277 64.3365,47.1155 C64.2515,46.954 63.53325,46.64375 62.9,47.9655 Z" id="Path"></path>
                            <path d="M52.7,53.0655 C54.1705,53.14625 54.2215,52.377 54.1365,52.2155 C54.0515,52.054 53.33325,51.74375 52.7,53.0655 Z" id="Path"></path>
                            <path d="M73.1,53.0655 C74.56625,53.14625 74.6215,52.377 74.5365,52.2155 C74.4515,52.054 73.73325,51.74375 73.1,53.0655 Z" id="Path"></path>
                            <path d="M52.7,42.8655 C54.1705,42.94625 54.2215,42.177 54.1365,42.0155 C54.0515,41.854 53.33325,41.54375 52.7,42.8655 Z" id="Path"></path>
                            <path d="M73.1,42.8655 C74.56625,42.94625 74.6215,42.177 74.5365,42.0155 C74.4515,41.854 73.73325,41.54375 73.1,42.8655 Z" id="Path"></path>
                            <path d="M60.5625,57.32825 C60.4775,57.477 60.53275,58.24625 61.999,58.17825 C61.34875,56.84375 60.65175,57.17525 60.5625,57.32825 Z" id="Path"></path>
                            <path d="M50.3625,62.42825 C50.2775,62.577 50.33275,63.34625 51.799,63.27825 C51.14875,61.94375 50.45175,62.27525 50.3625,62.42825 Z" id="Path"></path>
                            <path d="M80.9625,57.32825 C80.87325,57.477 80.93275,58.24625 82.399,58.17825 C81.74875,56.84375 81.05175,57.17525 80.9625,57.32825 Z" id="Path"></path>
                            <path d="M70.7625,62.42825 C70.67325,62.577 70.73275,63.34625 72.199,63.27825 C71.54875,61.94375 70.85175,62.27525 70.7625,62.42825 Z" id="Path"></path>
                            <path d="M44.45075,69.3855 C44.45075,69.3855 55.50075,72.22025 69.38125,61.455 C83.26175,50.68975 88.65075,54.9355 88.08125,62.5855 C87.51175,70.2355 75.616,77.32025 70.516,78.17025 C62.13075,79.5685 54.65075,81.855 44.45075,69.3855 Z" id="Path"></path>
                            <path d="M60.5625,47.12825 C60.4775,47.277 60.53275,48.04625 61.999,47.97825 C61.34875,46.64375 60.65175,46.97525 60.5625,47.12825 Z" id="Path"></path>
                            <path d="M50.3625,52.22825 C50.2775,52.377 50.33275,53.14625 51.799,53.07825 C51.14875,51.74375 50.45175,52.07525 50.3625,52.22825 Z" id="Path"></path>
                            <path d="M80.9625,47.12825 C80.87325,47.277 80.93275,48.04625 82.399,47.97825 C81.74875,46.64375 81.05175,46.97525 80.9625,47.12825 Z" id="Path"></path>
                            <path d="M70.7625,52.22825 C70.67325,52.377 70.73275,53.14625 72.199,53.07825 C71.54875,51.74375 70.85175,52.07525 70.7625,52.22825 Z" id="Path"></path>
                            <path d="M50.3625,42.02825 C50.2775,42.177 50.33275,42.94625 51.799,42.87825 C51.14875,41.54375 50.45175,41.87525 50.3625,42.02825 Z" id="Path"></path>
                            <path d="M70.7625,42.02825 C70.67325,42.177 70.73275,42.94625 72.199,42.87825 C71.54875,41.54375 70.85175,41.87525 70.7625,42.02825 Z" id="Path"></path>
                            <path d="M64.0985,37.5105 L64.0985,37.5105 C64.2912317,37.3853572 64.3806559,37.1497589 64.3195,36.92825 C64.2345,36.78375 63.62675,36.50325 63.019,37.5105 L63.019,37.5105 C62.9685156,37.5926509 62.9230977,37.6778095 62.883,37.7655 C63.3056505,37.829508 63.7372088,37.7389713 64.0985,37.5105 L64.0985,37.5105 Z" id="Path"></path>
                            <path d="M43.6985,37.5105 L43.6985,37.5105 C43.8912317,37.3853572 43.9806559,37.1497589 43.9195,36.92825 C43.8345,36.78375 43.22675,36.50325 42.619,37.5105 L42.619,37.5105 C42.5685156,37.5926509 42.5230977,37.6778095 42.483,37.7655 C42.9056505,37.829508 43.3372088,37.7389713 43.6985,37.5105 L43.6985,37.5105 Z" id="Path"></path>
                            <path d="M42.432,87.3205 C42.4244708,87.2554539 42.4057802,87.1921935 42.37675,87.1335 L42.37675,87.1335 C42.3644141,87.1070251 42.3502117,87.0814606 42.33425,87.057 L42.33425,87.057 C42.307243,87.0155867 42.2743093,86.9783574 42.2365,86.9465 L42.2365,86.9465 C42.2059515,86.9201707 42.1715532,86.8986718 42.1345,86.88275 L42.1345,86.88275 C42.0814715,86.8540334 42.0175285,86.8540334 41.9645,86.88275 C41.769,86.96775 41.45025,87.30775 41.80725,88.09825 C41.8780068,88.2453839 41.9589537,88.3873961 42.0495,88.52325 C42.1400463,88.3873961 42.2209932,88.2453839 42.29175,88.09825 C42.3920151,87.898773 42.4471524,87.6796747 42.45325,87.4565 C42.4555093,87.4168655 42.4555093,87.3771345 42.45325,87.3375 L42.432,87.3205 Z" id="Path"></path>
                            <path d="M62.441,86.84875 C62.26675,86.84875 61.62925,87.27375 62.441,88.5105 C63.25275,87.28225 62.61525,86.84875 62.441,86.84875 Z" id="Path"></path>
                            <path d="M62.441,97.04875 C62.26675,97.04875 61.62925,97.47375 62.441,98.7105 C63.25275,97.48225 62.61525,97.04875 62.441,97.04875 Z" id="Path"></path>
                            <path d="M42.432,97.5205 C42.4244708,97.4554539 42.4057802,97.3921935 42.37675,97.3335 L42.37675,97.3335 C42.3644141,97.3070251 42.3502117,97.2814606 42.33425,97.257 L42.33425,97.257 C42.307243,97.2155867 42.2743093,97.1783574 42.2365,97.1465 L42.2365,97.1465 C42.2059515,97.1201707 42.1715532,97.0986718 42.1345,97.08275 L42.1345,97.08275 C42.0814715,97.0540334 42.0175285,97.0540334 41.9645,97.08275 C41.769,97.16775 41.45025,97.50775 41.80725,98.29825 C41.8780068,98.4453839 41.9589537,98.5873961 42.0495,98.72325 C42.1400463,98.5873961 42.2209932,98.4453839 42.29175,98.29825 C42.3920151,98.098773 42.4471524,97.8796747 42.45325,97.6565 C42.4555093,97.6168655 42.4555093,97.5771345 42.45325,97.5375 L42.432,97.5205 Z" id="Path"></path>
                            <path d="M52.241,91.94875 C52.06675,91.94875 51.42925,92.37375 52.241,93.6105 C53.05275,92.38225 52.41525,91.94875 52.241,91.94875 Z" id="Path"></path>
                            <path d="M72.641,91.94875 C72.46675,91.94875 71.82925,92.37375 72.641,93.6105 C73.45275,92.38225 72.81525,91.94875 72.641,91.94875 Z" id="Path"></path>
                            <path d="M42.432,77.1205 C42.4244708,77.0554539 42.4057802,76.9921935 42.37675,76.9335 L42.37675,76.9335 C42.3644141,76.9070251 42.3502117,76.8814606 42.33425,76.857 L42.33425,76.857 C42.307243,76.8155867 42.2743093,76.7783574 42.2365,76.7465 L42.2365,76.7465 C42.2059515,76.7201707 42.1715532,76.6986718 42.1345,76.68275 L42.1345,76.68275 C42.0814715,76.6540334 42.0175285,76.6540334 41.9645,76.68275 C41.769,76.76775 41.45025,77.10775 41.80725,77.89825 C41.8780068,78.0453839 41.9589537,78.1873961 42.0495,78.32325 C42.1400463,78.1873961 42.2209932,78.0453839 42.29175,77.89825 C42.3920151,77.698773 42.4471524,77.4796747 42.45325,77.2565 C42.4555093,77.2168655 42.4555093,77.1771345 42.45325,77.1375 L42.432,77.1205 Z" id="Path"></path>
                            <path d="M62.441,76.64875 C62.26675,76.64875 61.62925,77.07375 62.441,78.3105 C63.25275,77.08225 62.61525,76.64875 62.441,76.64875 Z" id="Path"></path>
                            <path d="M52.241,81.74875 C52.06675,81.74875 51.42925,82.17375 52.241,83.4105 C53.05275,82.18225 52.41525,81.74875 52.241,81.74875 Z" id="Path"></path>
                            <path d="M72.641,81.74875 C72.46675,81.74875 71.82925,82.17375 72.641,83.4105 C73.45275,82.18225 72.81525,81.74875 72.641,81.74875 Z" id="Path"></path>
                            <path d="M52.241,71.54875 C52.06675,71.54875 51.42925,71.97375 52.241,73.2105 C53.05275,71.98225 52.41525,71.54875 52.241,71.54875 Z" id="Path"></path>
                            <path d="M72.641,71.54875 C72.46675,71.54875 71.82925,71.97375 72.641,73.2105 C73.45275,71.98225 72.81525,71.54875 72.641,71.54875 Z" id="Path"></path>
                            <path d="M42.5,88.7655 C43.9705,88.84625 44.0215,88.077 43.9365,87.9155 C43.8515,87.754 43.13325,87.44375 42.5,88.7655 Z" id="Path"></path>
                            <path d="M62.9,88.7655 C64.36625,88.84625 64.4215,88.077 64.3365,87.9155 C64.2515,87.754 63.53325,87.44375 62.9,88.7655 Z" id="Path"></path>
                            <path d="M63.9965,97.97525 L63.90725,97.97525 C63.797631,97.9832219 63.6913907,98.0166949 63.597,98.073 L63.4865,98.1495 C63.297369,98.3043647 63.1388185,98.493184 63.019,98.70625 L63.019,98.70625 C62.9685156,98.7884009 62.9230977,98.8735595 62.883,98.96125 C63.3056505,99.025258 63.7372088,98.9347213 64.0985,98.70625 L64.0985,98.70625 C64.2912317,98.5811072 64.3806559,98.3455089 64.3195,98.124 C64.2387489,98.0295915 64.1207325,97.97525 63.9965,97.97525 Z" id="Path"></path>
                            <path d="M43.5965,97.97525 L43.50725,97.97525 C43.397631,97.9832219 43.2913907,98.0166949 43.197,98.073 L43.0865,98.1495 C42.897369,98.3043647 42.7388185,98.493184 42.619,98.70625 L42.619,98.70625 C42.5685156,98.7884009 42.5230977,98.8735595 42.483,98.96125 C42.9056505,99.025258 43.3372088,98.9347213 43.6985,98.70625 L43.6985,98.70625 C43.8912317,98.5811072 43.9806559,98.3455089 43.9195,98.124 C43.8387489,98.0295915 43.7207325,97.97525 43.5965,97.97525 Z" id="Path"></path>
                            <path d="M52.7,93.8655 C54.1705,93.94625 54.2215,93.177 54.1365,93.0155 C54.0515,92.854 53.33325,92.54375 52.7,93.8655 Z" id="Path"></path>
                            <path d="M73.1,93.8655 C74.56625,93.94625 74.6215,93.177 74.5365,93.0155 C74.4515,92.854 73.73325,92.54375 73.1,93.8655 Z" id="Path"></path>
                            <path d="M42.5,78.5655 C43.9705,78.64625 44.0215,77.877 43.9365,77.7155 C43.8515,77.554 43.13325,77.24375 42.5,78.5655 Z" id="Path"></path>
                            <path d="M62.9,78.5655 C64.36625,78.64625 64.4215,77.877 64.3365,77.7155 C64.2515,77.554 63.53325,77.24375 62.9,78.5655 Z" id="Path"></path>
                            <path d="M52.7,83.6655 C54.1705,83.74625 54.2215,82.977 54.1365,82.8155 C54.0515,82.654 53.33325,82.34375 52.7,83.6655 Z" id="Path"></path>
                            <path d="M73.1,83.6655 C74.56625,83.74625 74.6215,82.977 74.5365,82.8155 C74.4515,82.654 73.73325,82.34375 73.1,83.6655 Z" id="Path"></path>
                            <path d="M52.7,73.4655 C54.1705,73.54625 54.2215,72.777 54.1365,72.6155 C54.0515,72.454 53.33325,72.14375 52.7,73.4655 Z" id="Path"></path>
                            <path d="M73.1,73.4655 C74.56625,73.54625 74.6215,72.777 74.5365,72.6155 C74.4515,72.454 73.73325,72.14375 73.1,73.4655 Z" id="Path"></path>
                            <path d="M60.5625,87.92825 C60.4775,88.077 60.53275,88.84625 61.999,88.77825 C61.34875,87.44375 60.65175,87.77525 60.5625,87.92825 Z" id="Path"></path>
                            <path d="M61.3955,98.175 L61.285,98.0985 C61.1908753,98.0416039 61.0844898,98.0080851 60.97475,98.00075 L60.8855,98.00075 C60.7605795,98.0017999 60.6424475,98.0577572 60.5625,98.15375 C60.5013441,98.3752589 60.5907683,98.6108572 60.7835,98.736 L60.7835,98.736 C61.1450808,98.9637565 61.5763716,99.0542371 61.999,98.991 C61.9589023,98.9033095 61.9134844,98.8181509 61.863,98.736 C61.7450019,98.5204658 61.5862225,98.3299305 61.3955,98.175 Z" id="Path"></path>
                            <path d="M50.3625,93.02825 C50.2775,93.177 50.33275,93.94625 51.799,93.87825 C51.14875,92.54375 50.45175,92.87525 50.3625,93.02825 Z" id="Path"></path>
                            <path d="M80.9625,87.92825 C80.87325,88.077 80.93275,88.84625 82.399,88.77825 C81.74875,87.44375 81.05175,87.77525 80.9625,87.92825 Z" id="Path"></path>
                            <path d="M82.263,98.7105 C82.1431815,98.497434 81.984631,98.3086147 81.7955,98.15375 L81.685,98.07725 C81.5906093,98.0209449 81.484369,97.9874719 81.37475,97.9795 L81.2855,97.9795 C81.1605795,97.9805499 81.0424475,98.0365072 80.9625,98.1325 C80.9013441,98.3540089 80.9907683,98.5896072 81.1835,98.71475 L81.1835,98.71475 C81.5447912,98.9432213 81.9763495,99.033758 82.399,98.96975 C82.3589023,98.8820595 82.3134844,98.7969009 82.263,98.71475 L82.263,98.7105 Z" id="Path"></path>
                            <path d="M70.7625,93.02825 C70.67325,93.177 70.73275,93.94625 72.199,93.87825 C71.54875,92.54375 70.85175,92.87525 70.7625,93.02825 Z" id="Path"></path>
                            <path d="M60.5625,77.72825 C60.4775,77.877 60.53275,78.64625 61.999,78.57825 C61.34875,77.24375 60.65175,77.57525 60.5625,77.72825 Z" id="Path"></path>
                            <path d="M50.3625,82.82825 C50.2775,82.977 50.33275,83.74625 51.799,83.67825 C51.14875,82.34375 50.45175,82.67525 50.3625,82.82825 Z" id="Path"></path>
                            <path d="M80.9625,77.72825 C80.87325,77.877 80.93275,78.64625 82.399,78.57825 C81.74875,77.24375 81.05175,77.57525 80.9625,77.72825 Z" id="Path"></path>
                            <path d="M70.7625,82.82825 C70.67325,82.977 70.73275,83.74625 72.199,83.67825 C71.54875,82.34375 70.85175,82.67525 70.7625,82.82825 Z" id="Path"></path>
                            <path d="M50.3625,72.62825 C50.2775,72.777 50.33275,73.54625 51.799,73.47825 C51.14875,72.14375 50.45175,72.47525 50.3625,72.62825 Z" id="Path"></path>
                            <path d="M70.7625,72.62825 C70.67325,72.777 70.73275,73.54625 72.199,73.47825 C71.54875,72.14375 70.85175,72.47525 70.7625,72.62825 Z" id="Path"></path>
                            <path d="M61.863,68.1105 C61.7956451,67.995281 61.7188839,67.8858252 61.6335,67.78325 C61.5629414,67.6981436 61.4831151,67.6211682 61.3955,67.55375 C61.2524853,67.4348765 61.0714304,67.3715072 60.8855,67.37525 C60.7605795,67.3762999 60.6424475,67.4322572 60.5625,67.52825 C60.5206441,67.6445644 60.5315045,67.7733388 60.59225,67.881 C60.6202901,67.9367459 60.6560597,67.9882542 60.6985,68.034 L60.7835,68.1105 L60.7835,68.1105 C61.1450808,68.3382565 61.5763716,68.4287371 61.999,68.3655 C61.96075,68.2805 61.91825,68.204 61.88,68.136 L61.863,68.1105 Z" id="Path"></path>
                            <path d="M82.263,68.1105 C82.1956451,67.995281 82.1188839,67.8858252 82.0335,67.78325 C81.9618119,67.6991988 81.8821017,67.6223353 81.7955,67.55375 C81.6524853,67.4348765 81.4714304,67.3715072 81.2855,67.37525 C81.1605795,67.3762999 81.0424475,67.4322572 80.9625,67.52825 C80.9206441,67.6445644 80.9315045,67.7733388 80.99225,67.881 C81.0202901,67.9367459 81.0560597,67.9882542 81.0985,68.034 C81.1248851,68.061585 81.1532977,68.0871564 81.1835,68.1105 L81.1835,68.1105 C81.5447912,68.3389713 81.9763495,68.429508 82.399,68.3655 C82.36075,68.2805 82.31825,68.204 82.28,68.136 C82.2729054,68.1285438 82.267154,68.1199166 82.263,68.1105 Z" id="Path"></path>
                            <path d="M52.241,102.14875 C52.06675,102.14875 51.42925,102.57375 52.241,103.8105 C53.05275,102.58225 52.41525,102.14875 52.241,102.14875 Z" id="Path"></path>
                            <path d="M72.641,102.14875 C72.46675,102.14875 71.82925,102.57375 72.641,103.8105 C73.45275,102.58225 72.81525,102.14875 72.641,102.14875 Z" id="Path"></path>
                            <path d="M52.7,104.0655 C54.1705,104.14625 54.2215,103.377 54.1365,103.2155 C54.0515,103.054 53.33325,102.74375 52.7,104.0655 Z" id="Path"></path>
                            <path d="M73.1,104.0655 C74.56625,104.14625 74.6215,103.377 74.5365,103.2155 C74.4515,103.054 73.73325,102.74375 73.1,104.0655 Z" id="Path"></path>
                            <path d="M50.3625,103.22825 C50.2775,103.377 50.33275,104.14625 51.799,104.07825 C51.14875,102.74375 50.45175,103.07525 50.3625,103.22825 Z" id="Path"></path>
                            <path d="M70.7625,103.22825 C70.67325,103.377 70.73275,104.14625 72.199,104.07825 C71.54875,102.74375 70.85175,103.07525 70.7625,103.22825 Z" id="Path"></path>
                            <path d="M21.641,35.84875 C21.46675,35.84875 20.82925,36.27375 21.641,37.5105 C22.45275,36.28225 21.81525,35.84875 21.641,35.84875 Z" id="Path"></path>
                            <path d="M31.841,30.74875 C31.66675,30.74875 31.02925,31.17375 31.841,32.4105 C32.65275,31.18225 32.01525,30.74875 31.841,30.74875 Z" id="Path"></path>
                            <path d="M32.215,20.93975 L31.43725,21.1395 C31.4632426,21.5285106 31.6037187,21.9011419 31.841,22.2105 C32.23625,21.6155 32.3,21.20325 32.215,20.93975 Z" id="Path"></path>
                            <path d="M22.1,27.5655 C23.56625,27.64625 23.6215,26.877 23.5365,26.7155 C23.4515,26.554 22.73325,26.24375 22.1,27.5655 Z" id="Path"></path>
                            <path d="M32.3,32.6655 C33.76625,32.74625 33.8215,31.977 33.7365,31.8155 C33.6515,31.654 32.93325,31.34375 32.3,32.6655 Z" id="Path"></path>
                            <path d="M32.3,22.4655 C33.76625,22.54625 33.8215,21.777 33.7365,21.6155 C33.6515,21.454 32.93325,21.14375 32.3,22.4655 Z" id="Path"></path>
                            <path d="M19.7625,36.92825 C19.7013441,37.1497589 19.7907683,37.3853572 19.9835,37.5105 L19.9835,37.5105 C20.3450808,37.7382565 20.7763716,37.8287371 21.199,37.7655 C21.1589023,37.6778095 21.1134844,37.5926509 21.063,37.5105 C20.45525,36.4905 19.8475,36.78375 19.7625,36.92825 Z" id="Path"></path>
                            <path d="M40.1625,26.72825 C40.07325,26.877 40.13275,27.64625 41.599,27.57825 C40.94875,26.24375 40.25175,26.57525 40.1625,26.72825 Z" id="Path"></path>
                            <path d="M41.463,37.5105 C40.85525,36.4905 40.2475,36.78375 40.1625,36.92825 C40.1013441,37.1497589 40.1907683,37.3853572 40.3835,37.5105 L40.3835,37.5105 C40.7447912,37.7389713 41.1763495,37.829508 41.599,37.7655 C41.5589023,37.6778095 41.5134844,37.5926509 41.463,37.5105 L41.463,37.5105 Z" id="Path"></path>
                            <path d="M29.9625,31.82825 C29.87325,31.977 29.93275,32.74625 31.399,32.67825 C30.74875,31.34375 30.05175,31.67525 29.9625,31.82825 Z" id="Path"></path>
                            <path d="M30.27275,21.4795 L30.05175,21.5475 C30.0165077,21.5676418 29.9860568,21.5951926 29.9625,21.62825 C29.87325,21.777 29.93275,22.54625 31.399,22.47825 C30.98675,21.624 30.5575,21.454 30.27275,21.4795 Z" id="Path"></path>
                            <path d="M1.241,56.24875 C1.06675,56.24875 0.42925,56.67375 1.241,57.9105 C2.05275,56.68225 1.41525,56.24875 1.241,56.24875 Z" id="Path"></path>
                            <path d="M11.441,61.34875 C11.26675,61.34875 10.62925,61.77375 11.441,63.0105 C12.25275,61.78225 11.61525,61.34875 11.441,61.34875 Z" id="Path"></path>
                            <path d="M21.641,46.04875 C21.46675,46.04875 20.82925,46.47375 21.641,47.7105 C22.45275,46.48225 21.81525,46.04875 21.641,46.04875 Z" id="Path"></path>
                            <path d="M11.441,51.14875 C11.26675,51.14875 10.62925,51.57375 11.441,52.8105 C12.25275,51.58225 11.61525,51.14875 11.441,51.14875 Z" id="Path"></path>
                            <path d="M31.841,51.14875 C31.66675,51.14875 31.02925,51.57375 31.841,52.8105 C32.65275,51.58225 32.01525,51.14875 31.841,51.14875 Z" id="Path"></path>
                            <path d="M11.441,40.94875 C11.26675,40.94875 10.62925,41.37375 11.441,42.6105 C12.25275,41.38225 11.61525,40.94875 11.441,40.94875 Z" id="Path"></path>
                            <path d="M31.841,40.94875 C31.66675,40.94875 31.02925,41.37375 31.841,42.6105 C32.65275,41.38225 32.01525,40.94875 31.841,40.94875 Z" id="Path"></path>
                            <path d="M1.7,58.1655 C3.1705,58.24625 3.22575,57.477 3.1365,57.3155 C3.04725,57.154 2.33325,56.84375 1.7,58.1655 Z" id="Path"></path>
                            <path d="M12.13375,62.832 C12.512,62.69175 12.88175,62.5345 13.24725,62.356 C13.06875,62.237 12.60975,62.15625 12.13375,62.832 Z" id="Path"></path>
                            <path d="M3.1195,47.12825 C3.0693758,47.0642464 2.99890818,47.0192671 2.91975,47.00075 C2.65625,47.3365 2.4055,47.65525 2.18875,47.957 C3.162,47.855 3.196,47.26 3.1195,47.12825 Z" id="Path"></path>
                            <path d="M22.1,47.9655 C23.56625,48.04625 23.6215,47.277 23.5365,47.1155 C23.4515,46.954 22.73325,46.64375 22.1,47.9655 Z" id="Path"></path>
                            <path d="M11.9,53.0655 C13.3705,53.14625 13.4215,52.377 13.3365,52.2155 C13.2515,52.054 12.53325,51.74375 11.9,53.0655 Z" id="Path"></path>
                            <path d="M32.3,53.0655 C33.76625,53.14625 33.8215,52.377 33.7365,52.2155 C33.6515,52.054 32.93325,51.74375 32.3,53.0655 Z" id="Path"></path>
                            <path d="M11.9,42.8655 C13.3705,42.94625 13.4215,42.177 13.3365,42.0155 C13.2515,41.854 12.53325,41.54375 11.9,42.8655 Z" id="Path"></path>
                            <path d="M32.3,42.8655 C33.76625,42.94625 33.8215,42.177 33.7365,42.0155 C33.6515,41.854 32.93325,41.54375 32.3,42.8655 Z" id="Path"></path>
                            <path d="M9.5625,62.42825 C9.48175,62.56425 9.52425,63.21025 10.642,63.27825 L10.96075,63.206 C10.32325,61.96075 9.65175,62.2795 9.5625,62.42825 Z" id="Path"></path>
                            <path d="M40.1625,57.32825 C40.07325,57.477 40.13275,58.24625 41.599,58.17825 C40.94875,56.84375 40.25175,57.17525 40.1625,57.32825 Z" id="Path"></path>
                            <path d="M19.7625,47.12825 C19.6775,47.277 19.73275,48.04625 21.199,47.97825 C20.54875,46.64375 19.85175,46.97525 19.7625,47.12825 Z" id="Path"></path>
                            <path d="M9.5625,52.22825 C9.4775,52.377 9.53275,53.14625 10.999,53.07825 C10.34875,51.74375 9.65175,52.07525 9.5625,52.22825 Z" id="Path"></path>
                            <path d="M40.1625,47.12825 C40.07325,47.277 40.13275,48.04625 41.599,47.97825 C40.94875,46.64375 40.25175,46.97525 40.1625,47.12825 Z" id="Path"></path>
                            <path d="M9.5625,42.02825 C9.4775,42.177 9.53275,42.94625 10.999,42.87825 C10.34875,41.54375 9.65175,41.87525 9.5625,42.02825 Z" id="Path"></path>
                            <path d="M29.9625,42.02825 C29.87325,42.177 29.93275,42.94625 31.399,42.87825 C30.74875,41.54375 30.05175,41.87525 29.9625,42.02825 Z" id="Path"></path>
                            <path d="M23.2985,37.5105 L23.2985,37.5105 C23.4912317,37.3853572 23.5806559,37.1497589 23.5195,36.92825 C23.4345,36.78375 22.82675,36.50325 22.219,37.5105 L22.219,37.5105 C22.1685156,37.5926509 22.1230977,37.6778095 22.083,37.7655 C22.5056505,37.829508 22.9372088,37.7389713 23.2985,37.5105 L23.2985,37.5105 Z" id="Path"></path>
                            <path d="M31.841,91.94875 C31.66675,91.94875 31.02925,92.37375 31.841,93.6105 C32.65275,92.38225 32.01525,91.94875 31.841,91.94875 Z" id="Path"></path>
                            <path d="M32.16825,82.7645 L31.81125,83.36375 L31.841,83.4105 C31.9784766,83.2107672 32.0885412,82.9934967 32.16825,82.7645 L32.16825,82.7645 Z" id="Path"></path>
                            <path d="M32.3,93.8655 C33.76625,93.94625 33.8215,93.177 33.7365,93.0155 C33.6515,92.854 32.93325,92.54375 32.3,93.8655 Z" id="Path"></path>
                            <path d="M32.3,83.6655 C33.76625,83.74625 33.8215,82.977 33.7365,82.8155 C33.6515,82.654 32.93325,82.34375 32.3,83.6655 Z" id="Path"></path>
                            <path d="M40.1625,87.92825 C40.07325,88.077 40.13275,88.84625 41.599,88.77825 C40.94875,87.44375 40.25175,87.77525 40.1625,87.92825 Z" id="Path"></path>
                            <path d="M41.463,98.7105 C41.3431815,98.497434 41.184631,98.3086147 40.9955,98.15375 L40.885,98.07725 C40.7906093,98.0209449 40.684369,97.9874719 40.57475,97.9795 L40.4855,97.9795 C40.3605795,97.9805499 40.2424475,98.0365072 40.1625,98.1325 C40.1013441,98.3540089 40.1907683,98.5896072 40.3835,98.71475 L40.3835,98.71475 C40.7447912,98.9432213 41.1763495,99.033758 41.599,98.96975 C41.5589023,98.8820595 41.5134844,98.7969009 41.463,98.71475 L41.463,98.7105 Z" id="Path"></path>
                            <path d="M29.9625,93.02825 C29.87325,93.177 29.93275,93.94625 31.399,93.87825 C30.74875,92.54375 30.05175,92.87525 29.9625,93.02825 Z" id="Path"></path>
                            <path d="M40.1625,77.72825 C40.07325,77.877 40.13275,78.64625 41.599,78.57825 C40.94875,77.24375 40.25175,77.57525 40.1625,77.72825 Z" id="Path"></path>
                            <path d="M41.463,68.1105 C41.3956451,67.995281 41.3188839,67.8858252 41.2335,67.78325 C41.1618119,67.6991988 41.0821017,67.6223353 40.9955,67.55375 C40.8524853,67.4348765 40.6714304,67.3715072 40.4855,67.37525 C40.3605795,67.3762999 40.2424475,67.4322572 40.1625,67.52825 C40.1206441,67.6445644 40.1315045,67.7733388 40.19225,67.881 C40.2202901,67.9367459 40.2560597,67.9882542 40.2985,68.034 C40.3248851,68.061585 40.3532977,68.0871564 40.3835,68.1105 L40.3835,68.1105 C40.7447912,68.3389713 41.1763495,68.429508 41.599,68.3655 C41.56075,68.2805 41.51825,68.204 41.48,68.136 L41.463,68.1105 Z" id="Path"></path>
                            <path d="M31.841,102.14875 C31.66675,102.14875 31.02925,102.57375 31.841,103.8105 C32.65275,102.58225 32.01525,102.14875 31.841,102.14875 Z" id="Path"></path>
                            <path d="M32.3,104.0655 C33.76625,104.14625 33.8215,103.377 33.7365,103.2155 C33.6515,103.054 32.93325,102.74375 32.3,104.0655 Z" id="Path"></path>
                            <path d="M29.9625,103.22825 C29.87325,103.377 29.93275,104.14625 31.399,104.07825 C30.74875,102.74375 30.05175,103.07525 29.9625,103.22825 Z" id="Path"></path>
                            <path d="M0.24225,57.39625 C0.326671177,57.6589415 0.424550527,57.917116 0.5355,58.16975 L0.799,58.16975 C0.669918119,57.8756095 0.480198944,57.6120302 0.24225,57.39625 L0.24225,57.39625 Z" id="Path"></path>
                        </g>
                        <path d="M102.5185,154.8105 C102.5185,154.8105 103.27925,144.37675 98.6935,133.93875 C94.10775,123.50075 93.075,122.7485 93.075,119.69275 C93.075,116.637 96.1435,113.07125 96.6535,106.199 C97.1635,99.32675 96.9085,95.999 96.9085,95.999 C96.9085,95.999 107.85225,113.305 115.4895,114.325 C123.12675,115.345 127.70825,108.21775 124.9075,98.54475 C122.10675,88.87175 109.888,80.98375 105.05575,74.61725 C100.2235,68.25075 89.27125,68.24225 83.674,68.24225 C78.07675,68.24225 75.276,66.2065 74.256,62.39 C73.236,58.5735 73.24025,50.915 73.24025,50.915 C73.24025,50.915 66.61875,54.9865 55.42,50.405 C55.42,50.405 56.44,64.4045 55.165,66.44025 C53.89,68.476 52.122,70.55 44.48475,70.55 C36.8475,70.55 30.48525,72.08 26.92375,75.65 C23.36225,79.22 8.59775,93.466 4.78125,99.0675 C0.96475,104.669 2.99625,110.77625 7.57775,113.067 C12.15925,115.35775 16.74075,113.31775 20.0515,110.26625 C23.36225,107.21475 33.796,97.5375 33.796,97.5375 C33.796,97.5375 33.796,103.394 36.59675,111.792 C39.3975,120.19 41.69675,119.17425 39.64825,125.2815 C37.59975,131.38875 33.541,133.17375 32.27025,141.06175 C31.5090958,145.60223 31.1676544,150.203154 31.25025,154.80625" id="Path" stroke="#263238" stroke-width="0.5" stroke-linecap="round" stroke-linejoin="round"></path>
                        <path d="M33.796,97.54175 C34.0047528,94.7889145 34.5690261,92.0746889 35.47475,89.46675" id="Path" stroke="#263238" stroke-width="0.5" fill="#FFFFFF" fill-rule="nonzero" stroke-linecap="round" stroke-linejoin="round"></path>
                        <path d="M96.9,96.016 C96.3395356,93.9035922 95.5604091,91.8553584 94.57525,89.9045" id="Path" stroke="#263238" stroke-width="0.5" stroke-linecap="round" stroke-linejoin="round"></path>
                        <line x1="59.51275" y1="124.2275" x2="75.54375" y2="119.08925" id="Path" stroke="#263238" stroke-width="0.5" stroke-linecap="round" stroke-linejoin="round"></line>
                        <path d="M66.77175,119.9945 C70.5168957,118.487436 74.4249264,117.421998 78.41675,116.81975" id="Path" stroke="#263238" stroke-width="0.5" stroke-linecap="round" stroke-linejoin="round"></path>
                        <path d="M62.30075,87.618 C74.99975,90.066 79.9,77.894 81.60425,68.16575 C77.3755,67.69825 75.1485,65.7305 74.2645,62.41975 C73.24875,58.59475 73.24875,50.94475 73.24875,50.94475 C73.24875,50.94475 66.62725,55.01625 55.4285,50.43475 C55.4285,50.43475 56.4485,64.43425 55.1735,66.47 C54.2895,67.8895 53.1505,69.309 49.963,70.03575 C49.84825,74.40475 50.728,85.3825 62.30075,87.618 Z" id="Path" fill="#B2B2B2" fill-rule="nonzero"></path>
                        <path d="M73.98825,61.16175 C73.24875,57.14125 73.24875,50.96175 73.24875,50.96175 C73.24875,50.96175 66.62725,55.03325 55.4285,50.45175 C55.4285,50.45175 55.8535,56.304 55.811,60.99175 C65.45,64.34075 71.026,62.92125 73.98825,61.16175 Z" id="Path" fill="#000000" fill-rule="nonzero" opacity="0.2"></path>
                        <path d="M62.30075,87.618 C74.99975,90.066 79.9,77.894 81.60425,68.16575 C77.3755,67.69825 75.1485,65.7305 74.2645,62.41975 C73.24875,58.59475 73.24875,50.94475 73.24875,50.94475 C73.24875,50.94475 66.62725,55.01625 55.4285,50.43475 C55.4285,50.43475 56.4485,64.43425 55.1735,66.47 C54.2895,67.8895 53.1505,69.309 49.963,70.03575 C49.84825,74.40475 50.728,85.3825 62.30075,87.618 Z" id="Path" stroke="#263238" stroke-width="0.5" stroke-linecap="round" stroke-linejoin="round"></path>
                        <circle id="Oval" stroke="#263238" stroke-width="0.5" fill="#ADC7F7" fill-rule="nonzero" stroke-linecap="round" stroke-linejoin="round" cx="81.50225" cy="42.92925" r="3.1535"></circle>
                        <circle id="Oval" stroke="#263238" stroke-width="0.5" fill="#ADC7F7" fill-rule="nonzero" stroke-linecap="round" stroke-linejoin="round" cx="47.81675" cy="42.92925" r="3.1535"></circle>
                        <path d="M81.21325,32.181 C81.21325,32.181 82.79,27.30625 84.65575,29.0275 C86.5215,30.74875 84.082,37.3405 82.79,38.91725 C81.498,40.494 80.21025,40.494 80.35475,38.3435 C80.49925,36.193 81.21325,32.181 81.21325,32.181 Z" id="Path" stroke="#263238" stroke-width="0.5" fill="#B2B2B2" fill-rule="nonzero" stroke-linecap="round" stroke-linejoin="round"></path>
                        <path d="M48.61575,37.0855 C48.61575,37.0855 49.04075,48.47125 57.42175,54.05575 C65.80275,59.64025 72.029,56.41875 75.46725,51.69275 C78.9055,46.96675 81.056,42.24075 81.056,35.3685 C81.056,28.49625 81.906,25.483 79.5515,21.18625 C77.197,16.8895 69.02425,14.74325 69.02425,14.74325 C65.6290127,18.9804862 61.9695627,22.9990677 58.06775,26.775 C51.6205,33.00125 48.61575,37.0855 48.61575,37.0855 Z" id="Path" fill="#B2B2B2" fill-rule="nonzero"></path>
                        <path d="M69.02425,14.74325 C65.6290127,18.9804862 61.9695627,22.9990677 58.06775,26.775 C51.6205,33.00125 48.61575,37.0855 48.61575,37.0855 C48.7714006,39.3039566 49.2098674,41.4934346 49.9205,43.60075 C61.2425,34.93925 67.42625,19.37575 69.071,14.756 L69.02425,14.74325 Z" id="Path" fill="#000000" fill-rule="nonzero" opacity="0.2"></path>
                        <path d="M48.61575,37.0855 C48.61575,37.0855 49.04075,48.47125 57.42175,54.05575 C65.80275,59.64025 72.029,56.41875 75.46725,51.69275 C78.9055,46.96675 81.056,42.24075 81.056,35.3685 C81.056,28.49625 81.906,25.483 79.5515,21.18625 C77.197,16.8895 69.02425,14.74325 69.02425,14.74325 C65.6290127,18.9804862 61.9695627,22.9990677 58.06775,26.775 C51.6205,33.00125 48.61575,37.0855 48.61575,37.0855 Z" id="Path" stroke="#263238" stroke-width="0.5" stroke-linecap="round" stroke-linejoin="round"></path>
                        <line x1="56.542" y1="35.74675" x2="61.36575" y2="36.19725" id="Path" stroke="#263238" stroke-width="0.5" stroke-linecap="round" stroke-linejoin="round"></line>
                        <path d="M71.162,35.59375 C71.162,35.59375 74.32825,34.99025 75.837,35.59375" id="Path" stroke="#263238" stroke-width="0.5" stroke-linecap="round" stroke-linejoin="round"></path>
                        <path d="M60.7155,33.541 C60.7155,34.6885 60.20125,35.61925 59.568,35.61925 C58.93475,35.61925 58.42475,34.6885 58.42475,33.541 C58.42475,32.3935 58.93475,31.46275 59.568,31.46275 C60.20125,31.46275 60.7155,32.3935 60.7155,33.541 Z" id="Path" fill="#263238" fill-rule="nonzero"></path>
                        <path d="M63.29525,40.8 C64.8762847,41.7919197 66.9227588,41.6186365 68.3145,40.375" id="Path" stroke="#263238" stroke-width="0.5" stroke-linecap="round" stroke-linejoin="round"></path>
                        <path d="M64.6,45.6535 C64.6,45.6535 69.04125,47.51925 71.621,41.497" id="Path" stroke="#263238" stroke-width="0.5" stroke-linecap="round" stroke-linejoin="round"></path>
                        <path d="M70.3205,33.61325 C70.3205,33.61325 73.04475,31.7475 75.769,32.895" id="Path" stroke="#263238" stroke-width="0.85" stroke-linecap="round" stroke-linejoin="round"></path>
                        <path d="M69.462,28.9 C69.462,28.9 72.471,25.891 76.6275,28.32625" id="Path" stroke="#263238" stroke-width="0.85" stroke-linecap="round" stroke-linejoin="round"></path>
                        <path d="M63.0105,27.01725 C63.0105,27.01725 60.43075,24.4375 56.84375,26.877" id="Path" stroke="#263238" stroke-width="0.85" stroke-linecap="round" stroke-linejoin="round"></path>
                        <path d="M4.78125,99.07175 C4.78125,99.07175 0.19975,104.17175 0.19975,109.5055 C0.19975,114.83925 3.25125,119.7055 11.67475,127.3215 C20.09825,134.9375 27.96075,140.556 31.2715,142.341 C34.58225,144.126 37.88875,141.831 37.88875,141.831 C37.88875,141.831 43.36275,147.30075 43.996,146.03 C44.62925,144.75925 42.08775,142.84675 41.57775,142.086 C41.1301105,141.481643 40.6185664,140.927352 40.052,140.43275 C40.052,140.43275 42.72525,140.811 43.74525,141.70775 C44.76525,142.6045 46.41425,144.126 47.17925,143.9985 C47.94425,143.871 47.94425,143.2335 46.79675,141.70775 C45.8716589,140.512859 44.7542409,139.480181 43.49025,138.652 C42.72525,138.14625 40.1795,136.74375 40.1795,136.74375 C40.1795,136.74375 43.8685,136.48875 45.1435,137.25375 C46.4185,138.01875 49.8525,140.3095 50.1075,139.2895 C50.3625,138.2695 50.3625,137.63625 49.0875,136.48875 C47.8125,135.34125 45.2625,133.93875 43.74525,133.688 C42.6993386,133.495639 41.675551,133.198043 40.6895,132.79975 C40.6895,132.79975 43.61775,131.77975 44.6335,131.77975 C45.64925,131.77975 49.7335,133.8155 50.86825,133.56475 C52.003,133.314 51.37825,132.28975 50.49,131.65225 C49.60175,131.01475 45.6535,129.489 43.996,129.3615 C42.3385,129.234 33.05225,132.41725 31.909,132.41725 C30.76575,132.41725 27.8375,128.34575 24.78175,122.87175 C21.726,117.39775 20.58275,108.87225 14.093,105.94825" id="Path" fill="#ADC7F7" fill-rule="nonzero"></path>
                        <g id="Group" opacity="0.2" transform="translate(2.125000, 106.675000)" fill="#000000" fill-rule="nonzero">
                            <path d="M2.091,1.8105 C2.90275,0.58225 2.26525,0.14875 2.091,0.14875 C2.26525,0.14875 2.90275,0.58225 2.091,1.8105 Z" id="Path"></path>
                            <path d="M2.091,10.34875 C2.26525,10.34875 2.90275,10.77375 2.091,12.0105 C2.90275,10.78225 2.26525,10.34875 2.091,10.34875 Z" id="Path"></path>
                            <path d="M12.291,5.24875 C12.11675,5.24875 11.47925,5.67375 12.291,6.9105 C13.10275,5.68225 12.46525,5.24875 12.291,5.24875 Z" id="Path"></path>
                            <path d="M3.9695,1.22825 C3.88025,1.07525 3.18325,0.74375 2.533,2.07825 C4.0035,2.14625 4.05875,1.377 3.9695,1.22825 Z" id="Path"></path>
                            <path d="M3.825,11.934 C3.86744028,11.8882542 3.9032099,11.8367459 3.93125,11.781 C4.01617204,11.6809102 4.02891622,11.5382086 3.96307396,11.4246546 C3.89723171,11.3111006 3.76705305,11.2512702 3.638,11.27525 C3.45206963,11.2715072 3.27101467,11.3348765 3.128,11.45375 C3.04139833,11.5223353 2.96168811,11.5991988 2.89,11.68325 C2.80461607,11.7858252 2.72785486,11.895281 2.6605,12.0105 L3.74,12.0105 C3.77020225,11.9871564 3.79861495,11.961585 3.825,11.934 L3.825,11.934 Z" id="Path"></path>
                            <path d="M14.1695,6.32825 C14.08025,6.17525 13.38325,5.84375 12.733,7.17825 C14.2035,7.24625 14.2545,6.477 14.1695,6.32825 Z" id="Path"></path>
                            <path d="M11.849,7.1655 C11.19875,5.84375 10.50175,6.17525 10.4125,6.3155 C10.32325,6.45575 10.38275,7.24625 11.849,7.1655 Z" id="Path"></path>
                            <path d="M2.091,0.14875 L2.091,1.8105 C2.90275,0.58225 2.26525,0.14875 2.091,0.14875 Z" id="Path"></path>
                            <path d="M2.091,10.34875 L2.091,12.0105 C2.90275,10.78225 2.26525,10.34875 2.091,10.34875 Z" id="Path"></path>
                            <path d="M22.491,30.74875 C22.3378967,30.7803013 22.2113767,30.8876031 22.15525,31.0335 L22.8735,31.5605 C22.97975,30.974 22.6185,30.74875 22.491,30.74875 Z" id="Path"></path>
                            <path d="M32.691,35.84875 C32.4709867,35.9027147 32.3122003,36.094294 32.3,36.3205 C32.5552598,36.3004564 32.8092258,36.2664051 33.06075,36.2185 C33.0193372,36.0341376 32.8753624,35.8901628 32.691,35.84875 Z" id="Path"></path>
                            <path d="M22.491,20.54875 C22.31675,20.54875 21.67925,20.97375 22.491,22.2105 C23.30275,20.98225 22.66525,20.54875 22.491,20.54875 Z" id="Path"></path>
                            <path d="M32.691,27.3105 C33.50275,26.08225 32.86525,25.64875 32.691,25.64875 C32.51675,25.64875 31.875,26.08225 32.691,27.3105 Z" id="Path"></path>
                            <path d="M12.291,17.1105 C13.10275,15.88225 12.46525,15.44875 12.291,15.44875 C12.11675,15.44875 11.475,15.88225 12.291,17.1105 Z" id="Path"></path>
                            <path d="M24.3695,31.82825 C24.3015,31.7135 23.8935,31.49675 23.42175,31.9515 C23.65125,32.1215 23.88075,32.283 24.106,32.44025 C24.3255096,32.322389 24.4347332,32.0687086 24.3695,31.82825 L24.3695,31.82825 Z" id="Path"></path>
                            <path d="M22.95,22.4655 C24.41625,22.54625 24.4715,21.777 24.3865,21.6155 C24.3015,21.454 23.58325,21.14375 22.95,22.4655 Z" id="Path"></path>
                            <path d="M33.15,27.5655 C34.61625,27.64625 34.6715,26.877 34.5865,26.7155 C34.5015,26.554 33.78325,26.24375 33.15,27.5655 Z" id="Path"></path>
                            <path d="M12.75,17.3655 C14.2205,17.44625 14.2715,16.677 14.1865,16.5155 C14.1015,16.354 13.38325,16.04375 12.75,17.3655 Z" id="Path"></path>
                            <path d="M42.30025,32.66975 C41.93475,32.38075 41.599,32.147 41.344,31.97275 L41.0465,31.78575 L41.0125,31.82825 C40.9275,31.97275 40.98275,32.691 42.30025,32.66975 Z" id="Path"></path>
                            <path d="M22.049,22.4655 C21.39875,21.14375 20.70175,21.47525 20.6125,21.6155 C20.52325,21.75575 20.58275,22.54625 22.049,22.4655 Z" id="Path"></path>
                            <path d="M30.8125,26.72825 C30.72325,26.877 30.78275,27.64625 32.249,27.57825 C31.59875,26.24375 30.90175,26.57525 30.8125,26.72825 Z" id="Path"></path>
                            <path d="M10.4125,16.52825 C10.3275,16.677 10.38275,17.44625 11.849,17.37825 C11.19875,16.04375 10.50175,16.37525 10.4125,16.52825 Z" id="Path"></path>
                            <path d="M3.7485,12.0105 L2.669,12.0105 C2.67022055,12.0189562 2.67022055,12.0275438 2.669,12.036 C2.63075,12.104 2.58825,12.1805 2.55,12.2655 C2.96709925,12.325326 3.39188418,12.2349462 3.7485,12.0105 L3.7485,12.0105 Z" id="Path"></path>
                            <path d="M2.091,0.14875 C1.91675,0.14875 1.27925,0.57375 2.091,1.8105 L2.091,0.14875 Z" id="Path"></path>
                            <path d="M2.091,12.0105 L2.091,10.34875 C1.91675,10.34875 1.275,10.78225 2.091,12.0105 Z" id="Path"></path>
                            <path d="M1.649,2.0655 C0.99875,0.74375 0.30175,1.07525 0.2125,1.2155 C0.12325,1.35575 0.18275,2.14625 1.649,2.0655 Z" id="Path"></path>
                            <path d="M1.275,11.68325 C1.20331189,11.5991988 1.12360167,11.5223353 1.037,11.45375 L1.00725,11.4325 C1.139,11.62375 1.27075,11.81925 1.43225,12.0105 L1.52575,12.0105 C1.45161753,11.8944896 1.36773049,11.7850099 1.275,11.68325 L1.275,11.68325 Z" id="Path"></path>
                            <path d="M1.53,12.036 C1.52877945,12.0275438 1.52877945,12.0189562 1.53,12.0105 L1.4365,12.0105 L1.6235,12.2655 L1.666,12.2655 C1.61075,12.1805 1.56825,12.104 1.53,12.036 Z" id="Path"></path>
                        </g>
                        <path d="M4.78125,99.07175 C4.78125,99.07175 0.19975,104.17175 0.19975,109.5055 C0.19975,114.83925 3.25125,119.7055 11.67475,127.3215 C20.09825,134.9375 27.96075,140.556 31.2715,142.341 C34.58225,144.126 37.88875,141.831 37.88875,141.831 C37.88875,141.831 43.36275,147.30075 43.996,146.03 C44.62925,144.75925 42.08775,142.84675 41.57775,142.086 C41.1301105,141.481643 40.6185664,140.927352 40.052,140.43275 C40.052,140.43275 42.72525,140.811 43.74525,141.70775 C44.76525,142.6045 46.41425,144.126 47.17925,143.9985 C47.94425,143.871 47.94425,143.2335 46.79675,141.70775 C45.8716589,140.512859 44.7542409,139.480181 43.49025,138.652 C42.72525,138.14625 40.1795,136.74375 40.1795,136.74375 C40.1795,136.74375 43.8685,136.48875 45.1435,137.25375 C46.4185,138.01875 49.8525,140.3095 50.1075,139.2895 C50.3625,138.2695 50.3625,137.63625 49.0875,136.48875 C47.8125,135.34125 45.2625,133.93875 43.74525,133.688 C42.6993386,133.495639 41.675551,133.198043 40.6895,132.79975 C40.6895,132.79975 43.61775,131.77975 44.6335,131.77975 C45.64925,131.77975 49.7335,133.8155 50.86825,133.56475 C52.003,133.314 51.37825,132.28975 50.49,131.65225 C49.60175,131.01475 45.6535,129.489 43.996,129.3615 C42.3385,129.234 33.05225,132.41725 31.909,132.41725 C30.76575,132.41725 27.8375,128.34575 24.78175,122.87175 C21.726,117.39775 20.58275,108.87225 14.093,105.94825" id="Path" stroke="#263238" stroke-width="0.5" stroke-linecap="round" stroke-linejoin="round"></path>
                        <path d="M50.46875,131.648 C49.57625,131.01475 45.63225,129.48475 43.97475,129.35725 C42.31725,129.22975 33.031,132.413 31.88775,132.413 C30.7445,132.413 27.81625,128.3415 24.7605,122.8675 C23.0605,119.82875 21.9555,115.8465 20.19175,112.40825 C10.84175,111.13325 6.834,116.59875 4.981,120.53 C7.04413124,122.949256 9.27372351,125.221452 11.6535,127.33 C20.0515,134.98 27.9395,140.5645 31.25025,142.3495 C34.561,144.1345 37.8675,141.8395 37.8675,141.8395 C37.8675,141.8395 43.3415,147.30925 43.97475,146.0385 C44.608,144.76775 42.0665,142.85525 41.5565,142.0945 C41.1088605,141.490143 40.5973164,140.935852 40.03075,140.44125 C40.03075,140.44125 42.704,140.8195 43.724,141.71625 C44.744,142.613 46.393,144.1345 47.158,144.007 C47.923,143.8795 47.923,143.242 46.7755,141.71625 C45.8504089,140.521359 44.7329909,139.488681 43.469,138.6605 C42.704,138.15475 40.15825,136.75225 40.15825,136.75225 C40.15825,136.75225 43.84725,136.49725 45.12225,137.26225 C46.39725,138.02725 49.83125,140.318 50.08625,139.298 C50.34125,138.278 50.34125,137.64475 49.06625,136.49725 C47.79125,135.34975 45.24125,133.94725 43.724,133.6965 C42.6780886,133.504139 41.654301,133.206543 40.66825,132.80825 C40.66825,132.80825 43.5965,131.78825 44.61225,131.78825 C45.628,131.78825 49.71225,133.824 50.847,133.57325 C51.98175,133.3225 51.357,132.2855 50.46875,131.648 Z" id="Path" stroke="#263238" stroke-width="0.5" fill="#B2B2B2" fill-rule="nonzero" stroke-linecap="round" stroke-linejoin="round"></path>
                        <path d="M105.723,103.84875 C104.6605,101.422 105.57,96.1095 106.6325,88.52325 C107.695,80.937 108.7575,73.19775 108.7575,69.10075 C108.7575,65.00375 109.43325,59.32575 108.09875,57.494 C106.76425,55.66225 101.9065,50.694 101.54525,48.3905 C101.184,46.087 104.4565,42.56375 104.4565,42.56375 C104.4565,42.56375 105.42975,40.7405 106.27975,41.71375 C107.12975,42.687 106.76425,43.89825 106.27975,45.59825 C105.79525,47.29825 105.3065,48.63275 105.3065,48.63275 C105.3065,48.63275 109.5565,49.96725 110.64875,49.2405 C111.741,48.51375 111.64325,44.35725 111.56675,42.3215 C111.4095,38.352 109.82,40.04775 108.71925,41.92625 C108.188,42.82725 105.077,42.29175 106.896,39.984 C108.715,37.67625 110.4065,35.6405 112.1065,37.46375 C113.8065,39.287 115.01775,42.806 115.01775,42.806 C115.01775,42.806 116.23325,37.02175 117.33825,33.62175 C118.44325,30.22175 120.42375,28.8745 121.13775,29.1125 C121.85175,29.3505 121.771,30.53625 121.057,32.198 C120.343,33.85975 118.762,38.4455 118.36675,39.95 C117.9715,41.4545 117.895,43.19275 118.6855,43.0355 C119.476,42.87825 122.24275,38.05025 123.0375,35.99325 C123.83225,33.93625 125.01375,32.04075 126.35675,31.1695 C127.69975,30.29825 128.809,31.4075 128.2565,32.83125 C127.159023,35.405971 125.913097,37.9148529 124.525,40.34525 C123.652486,41.9160016 122.91186,43.556467 122.31075,45.24975 C123.61366,43.861489 124.98679,42.5408437 126.42475,41.293 C128.3245,39.712 130.3815,39.3975 131.0105,39.95 C131.6395,40.5025 131.09125,40.58325 129.51025,41.84975 C127.92925,43.11625 125.56625,44.625 123.675,47.702 C122.210294,49.9582375 121.066031,52.4069613 120.275,54.978 C119.687126,56.665707 118.91761,58.2845407 117.98,59.806 C117.98,59.806 119.46325,71.8505 122.0345,78.47625 C124.60575,85.102 129.15325,94.792 127.76775,101.71525 C126.38225,108.6385 123.71325,112.19575 119.95625,113.28375 C117.747355,113.928758 115.363476,113.488876 113.53025,112.098" id="Path" fill="#ADC7F7" fill-rule="nonzero"></path>
                        <g id="Group" opacity="0.2" transform="translate(104.125000, 31.450000)" fill="#000000" fill-rule="nonzero">
                            <path d="M22.491,3.97375 C22.6465673,4.00784278 22.7744317,4.11812577 22.831,4.267 L22.831,4.267 C22.7764736,4.11670673 22.6476711,4.00561461 22.491,3.97375 Z" id="Path"></path>
                            <path d="M22.491,3.97375 L22.491,4.96825 L22.831,4.267 C22.7744317,4.11812577 22.6465673,4.00784278 22.491,3.97375 Z" id="Path"></path>
                            <path d="M22.491,66.8355 C23.30275,65.60725 22.66525,65.17375 22.491,65.17375 C22.66525,65.17375 23.30275,65.60725 22.491,66.8355 Z" id="Path"></path>
                            <path d="M23.88075,66.98 C23.88075,66.6966667 23.868,66.4133333 23.8425,66.13 C23.579,66.198 23.2475,66.44875 22.933,67.09475 C23.2534595,67.122851 23.5762567,67.0837679 23.88075,66.98 L23.88075,66.98 Z" id="Path"></path>
                            <path d="M22.491,65.17375 L22.491,66.8355 C23.30275,65.60725 22.66525,65.17375 22.491,65.17375 Z" id="Path"></path>
                            <path d="M2.091,14.17375 C1.94225,14.17375 1.47475,14.484 1.80625,15.30425 C1.9125,14.96 2.02725,14.58175 2.142,14.18225 L2.091,14.17375 Z" id="Path"></path>
                            <path d="M12.291,20.9355 C13.10275,19.70725 12.46525,19.27375 12.291,19.27375 C12.11675,19.27375 11.475,19.70725 12.291,20.9355 Z" id="Path"></path>
                            <path d="M22.3125,5.3295 L22.491,4.96825 L22.491,3.97375 C22.3295,3.97375 21.78975,4.33925 22.3125,5.3295 Z" id="Path"></path>
                            <path d="M12.291,9.07375 C12.11675,9.07375 11.47925,9.49875 12.291,10.7355 C13.10275,9.50725 12.46525,9.07375 12.291,9.07375 Z" id="Path"></path>
                            <path d="M3.93975,25.806 C4.00049546,25.6983388 4.01135595,25.5695644 3.9695,25.45325 C3.88955249,25.3572572 3.77142047,25.3012999 3.6465,25.30025 C3.56721146,25.298118 3.48814567,25.3096185 3.41275,25.33425 C3.587,25.54675 3.74425,25.738 3.87175,25.908 C3.8987566,25.8771023 3.92161623,25.8428129 3.93975,25.806 Z" id="Path"></path>
                            <path d="M14.1695,20.35325 C14.08025,20.20025 13.38325,19.86875 12.733,21.20325 C14.19925,21.27125 14.2545,20.502 14.1695,20.35325 Z" id="Path"></path>
                            <path d="M13.96125,10.727 C13.9446045,10.4935463 13.9446045,10.2592037 13.96125,10.02575 C13.68925,9.94075 13.192,10.02575 12.72025,10.9905 C13.1523012,11.060463 13.5949037,10.9664857 13.96125,10.727 Z" id="Path"></path>
                            <path d="M14.18225,0 C14.0675,0.19125 13.96125,0.3995 13.85075,0.61625 C14.0861288,0.507549378 14.2212771,0.256312067 14.18225,0 L14.18225,0 Z" id="Path"></path>
                            <path d="M0.2125,15.25325 C0.1275,15.39775 0.18275,16.13725 1.5555,16.10325 L1.59375,15.99275 C0.9605,14.79425 0.30175,15.1045 0.2125,15.25325 Z" id="Path"></path>
                            <path d="M10.4125,20.35325 C10.32325,20.502 10.38275,21.27125 11.849,21.20325 C11.19875,19.86875 10.50175,20.20025 10.4125,20.35325 Z" id="Path"></path>
                            <path d="M20.6125,5.05325 C20.5275,5.202 20.58275,5.967 22.032,5.90324138 L22.032,5.90324138 C21.3945,4.573 20.70175,4.90025 20.6125,5.05325 Z" id="Path"></path>
                            <path d="M11.849,10.9905 C11.7028664,10.6487401 11.4644645,10.3544168 11.1605,10.1405 C11.0925,10.45925 11.033,10.727 10.9905,10.931 C11.2710055,11.0007569 11.5615534,11.0208939 11.849,10.9905 Z" id="Path"></path>
                            <path d="M10.67175,10.76525 C10.60375,10.58675 10.51875,10.3785 10.421,10.14475 L10.421,10.14475 C10.3507928,10.3846948 10.4545498,10.6414493 10.67175,10.76525 L10.67175,10.76525 Z" id="Path"></path>
                            <path d="M12.291,51.5355 C13.10275,50.30725 12.46525,49.87375 12.291,49.87375 C12.11675,49.87375 11.475,50.30725 12.291,51.5355 Z" id="Path"></path>
                            <path d="M12.291,39.67375 C12.11675,39.67375 11.47925,40.09875 12.291,41.3355 C13.10275,40.10725 12.46525,39.67375 12.291,39.67375 Z" id="Path"></path>
                            <path d="M12.291,29.47375 C12.11675,29.47375 11.47925,29.89875 12.291,31.1355 C13.10275,29.90725 12.46525,29.47375 12.291,29.47375 Z" id="Path"></path>
                            <path d="M3.9865,45.9 C3.9865,45.98925 3.96525,46.08275 3.9525,46.172 C3.99075687,46.0867673 4.00259939,45.9920272 3.9865,45.9 L3.9865,45.9 Z" id="Path"></path>
                            <path d="M3.9695,56.05325 C3.8845,55.90875 3.27675,55.62825 2.669,56.6355 L3.7485,56.6355 C3.94123171,56.5103572 4.03065588,56.2747589 3.9695,56.05325 L3.9695,56.05325 Z" id="Path"></path>
                            <path d="M12.75,51.7905 C14.21625,51.87125 14.2715,51.102 14.1865,50.9405 C14.1015,50.779 13.38325,50.46875 12.75,51.7905 Z" id="Path"></path>
                            <path d="M14.1695,40.75325 C14.08025,40.60025 13.38325,40.26875 12.733,41.60325 C14.19925,41.67125 14.2545,40.902 14.1695,40.75325 Z" id="Path"></path>
                            <path d="M12.75,31.3905 C13.8295,31.45 14.144,31.0505 14.19925,30.77425 L14.161,30.5235 C13.9995,30.36625 13.345,30.14525 12.75,31.3905 Z" id="Path"></path>
                            <path d="M21.42425,56.06175 C20.99925,55.7685 20.672,55.947 20.6125,56.06175 C20.5513441,56.2832589 20.6407683,56.5188572 20.8335,56.644 L21.624,56.644 L21.42425,56.06175 Z" id="Path"></path>
                            <path d="M10.4125,50.95325 C10.32325,51.102 10.38275,51.87125 11.849,51.80325 C11.19875,50.46875 10.50175,50.80025 10.4125,50.95325 Z" id="Path"></path>
                            <path d="M10.4125,40.75325 C10.32325,40.902 10.38275,41.67125 11.849,41.60325 C11.19875,40.26875 10.50175,40.60025 10.4125,40.75325 Z" id="Path"></path>
                            <path d="M10.4125,30.55325 C10.32325,30.702 10.38275,31.47125 11.849,31.40325 C11.19875,30.06875 10.50175,30.40025 10.4125,30.55325 Z" id="Path"></path>
                            <path d="M12.291,80.47375 C12.12525,80.47375 11.54725,80.86475 12.172,81.94425 L12.3845,81.98675 C13.0475,80.87325 12.45675,80.47375 12.291,80.47375 Z" id="Path"></path>
                            <path d="M2.091,66.8355 C2.90275,65.60725 2.26525,65.17375 2.091,65.17375 C1.91675,65.17375 1.275,65.60725 2.091,66.8355 Z" id="Path"></path>
                            <path d="M22.491,65.17375 C22.31675,65.17375 21.67925,65.59875 22.491,66.8355 L22.491,65.17375 Z" id="Path"></path>
                            <path d="M12.291,71.9355 C13.10275,70.70725 12.46525,70.27375 12.291,70.27375 C12.11675,70.27375 11.475,70.70725 12.291,71.9355 Z" id="Path"></path>
                            <path d="M12.291,60.07375 C12.11675,60.07375 11.47925,60.49875 12.291,61.7355 C13.10275,60.50725 12.46525,60.07375 12.291,60.07375 Z" id="Path"></path>
                            <path d="M14.1695,81.55325 C14.08875,81.413 13.5065,81.12825 12.8945,82.0675 C13.2439596,82.1122238 13.5962797,82.1306922 13.9485,82.12275 C14.1369601,82.0001859 14.225954,81.7708554 14.1695,81.55325 L14.1695,81.55325 Z" id="Path"></path>
                            <path d="M2.55,67.0905 C4.01625,67.17125 4.0715,66.402 3.9865,66.2405 C3.9015,66.079 3.18325,65.76875 2.55,67.0905 Z" id="Path"></path>
                            <path d="M12.75,72.1905 C14.21625,72.27125 14.2715,71.502 14.1865,71.3405 C14.1015,71.179 13.38325,70.86875 12.75,72.1905 Z" id="Path"></path>
                            <path d="M14.1695,61.15325 C14.08025,61.00025 13.38325,60.66875 12.733,62.00325 C14.19925,62.07125 14.2545,61.302 14.1695,61.15325 Z" id="Path"></path>
                            <path d="M20.6125,76.45325 C20.5445,76.568 20.56575,77.04825 21.24575,77.22675 C21.3605,77.02275 21.47525,76.80175 21.5815,76.602 C21.10125,76.1175 20.6805,76.33425 20.6125,76.45325 Z" id="Path"></path>
                            <path d="M10.65475,81.413 C10.8973111,81.5275601 11.1455493,81.6296924 11.3985,81.719 C11.2226245,81.492016 10.9394395,81.3755056 10.65475,81.413 L10.65475,81.413 Z" id="Path"></path>
                            <path d="M1.649,67.0905 C1.55107587,66.8756089 1.42377604,66.675362 1.27075,66.4955 C1.27075,66.69525 1.23675,66.89075 1.224,67.08625 C1.3654474,67.0963332 1.50737924,67.0977525 1.649,67.0905 Z" id="Path"></path>
                            <path d="M22.049,67.0905 C21.39875,65.76875 20.70175,66.10025 20.6125,66.2405 C20.52325,66.38075 20.58275,67.17125 22.049,67.0905 Z" id="Path"></path>
                            <path d="M10.4125,71.35325 C10.32325,71.502 10.38275,72.27125 11.849,72.20325 C11.19875,70.86875 10.50175,71.20025 10.4125,71.35325 Z" id="Path"></path>
                            <path d="M10.4125,61.15325 C10.32325,61.302 10.38275,62.07125 11.849,62.00325 C11.19875,60.66875 10.50175,61.00025 10.4125,61.15325 Z" id="Path"></path>
                            <path d="M2.669,56.6355 C2.62225,56.712 2.57975,56.797 2.533,56.88625 L2.533,56.88625 C2.95565049,56.950258 3.38720882,56.8597213 3.7485,56.63125 L2.669,56.63125 L2.669,56.6355 Z" id="Path"></path>
                            <path d="M21.624,56.6355 L20.825,56.6355 C21.0847393,56.809613 21.3921604,56.8987206 21.70475,56.8905 L21.624,56.6355 Z" id="Path"></path>
                        </g>
                        <path d="M105.723,103.84875 C104.6605,101.422 105.57,96.1095 106.6325,88.52325 C107.695,80.937 108.7575,73.19775 108.7575,69.10075 C108.7575,65.00375 109.43325,59.32575 108.09875,57.494 C106.76425,55.66225 101.9065,50.694 101.54525,48.3905 C101.184,46.087 104.4565,42.56375 104.4565,42.56375 C104.4565,42.56375 105.42975,40.7405 106.27975,41.71375 C107.12975,42.687 106.76425,43.89825 106.27975,45.59825 C105.79525,47.29825 105.3065,48.63275 105.3065,48.63275 C105.3065,48.63275 109.5565,49.96725 110.64875,49.2405 C111.741,48.51375 111.64325,44.35725 111.56675,42.3215 C111.4095,38.352 109.82,40.04775 108.71925,41.92625 C108.188,42.82725 105.077,42.29175 106.896,39.984 C108.715,37.67625 110.4065,35.6405 112.1065,37.46375 C113.8065,39.287 115.01775,42.806 115.01775,42.806 C115.01775,42.806 116.23325,37.02175 117.33825,33.62175 C118.44325,30.22175 120.42375,28.8745 121.13775,29.1125 C121.85175,29.3505 121.771,30.53625 121.057,32.198 C120.343,33.85975 118.762,38.4455 118.36675,39.95 C117.9715,41.4545 117.895,43.19275 118.6855,43.0355 C119.476,42.87825 122.24275,38.05025 123.0375,35.99325 C123.83225,33.93625 125.01375,32.04075 126.35675,31.1695 C127.69975,30.29825 128.809,31.4075 128.2565,32.83125 C127.159023,35.405971 125.913097,37.9148529 124.525,40.34525 C123.652486,41.9160016 122.91186,43.556467 122.31075,45.24975 C123.61366,43.861489 124.98679,42.5408437 126.42475,41.293 C128.3245,39.712 130.3815,39.3975 131.0105,39.95 C131.6395,40.5025 131.09125,40.58325 129.51025,41.84975 C127.92925,43.11625 125.56625,44.625 123.675,47.702 C122.210294,49.9582375 121.066031,52.4069613 120.275,54.978 C119.687126,56.665707 118.91761,58.2845407 117.98,59.806 C117.98,59.806 119.46325,71.8505 122.0345,78.47625 C124.60575,85.102 129.15325,94.792 127.76775,101.71525 C126.38225,108.6385 123.71325,112.19575 119.95625,113.28375 C117.747355,113.928758 115.363476,113.488876 113.53025,112.098" id="Path" stroke="#263238" stroke-width="0.5" stroke-linecap="round" stroke-linejoin="round"></path>
                        <path d="M123.675,47.702 C125.57475,44.6165 127.9505,43.112 129.5315,41.84975 C131.1125,40.5875 131.6565,40.5025 131.03175,39.95 C130.407,39.3975 128.34575,39.712 126.446,41.293 C125.00804,42.5408437 123.63491,43.861489 122.332,45.24975 C122.926264,43.5571443 123.659774,41.9166972 124.525,40.34525 C125.908754,37.9145548 127.15042,35.4056787 128.24375,32.83125 C128.79625,31.4075 127.69125,30.28125 126.344,31.1695 C124.99675,32.05775 123.81525,33.93625 123.02475,35.99325 C122.23425,38.05025 119.46325,42.87825 118.67275,43.0355 C117.88225,43.19275 117.95875,41.45025 118.354,39.95 C118.74925,38.44975 120.3345,33.85975 121.04425,32.198 C121.754,30.53625 121.83475,29.3505 121.125,29.1125 C120.41525,28.8745 118.43475,30.2175 117.3255,33.62175 C116.21625,37.026 115.005,42.806 115.005,42.806 C115.005,42.806 113.79375,39.28275 112.09375,37.46375 C110.39375,35.64475 108.69375,37.67625 106.88325,39.984 C105.07275,42.29175 108.15825,42.82725 108.7065,41.92625 C109.80725,40.04775 111.39675,38.352 111.554,42.3215 C111.6305,44.35725 111.72825,48.5095 110.636,49.2405 C109.54375,49.9715 105.29375,48.63275 105.29375,48.63275 C105.29375,48.63275 105.77825,47.29825 106.267,45.59825 C106.75575,43.89825 107.117,42.68275 106.267,41.71375 C105.417,40.74475 104.44375,42.56375 104.44375,42.56375 C104.44375,42.56375 101.167,46.08275 101.5325,48.3905 C101.898,50.69825 106.7515,55.67075 108.086,57.494 C109.4205,59.31725 108.74475,65.00375 108.74475,69.10075 C108.74475,73.19775 107.68225,80.937 106.61975,88.52325 C106.61975,88.62525 106.59,88.71875 106.57725,88.8165 C108.256,90.58025 111.67725,93.109 117.4615,92.9135 C121.3375,92.78175 124.083,90.831 125.94025,88.68475 C124.70775,85.017 123.16075,81.45975 122.01325,78.48475 C119.442,71.859 117.95875,59.8145 117.95875,59.8145 C118.89636,58.2930407 119.665876,56.674207 120.25375,54.9865 C121.050705,52.4113744 122.202166,49.9596914 123.675,47.702 Z" id="Path" stroke="#263238" stroke-width="0.5" fill="#B2B2B2" fill-rule="nonzero" stroke-linecap="round" stroke-linejoin="round"></path>
                        <path d="M112.0385,59.33 C112.0385,59.33 111.32875,56.32525 112.35725,54.4255 C112.898136,53.3452993 113.789698,52.4807086 114.886,51.97325" id="Path" stroke="#263238" stroke-width="0.5" stroke-linecap="round" stroke-linejoin="round"></path>
                    </g>
                </g>
            </g>
        </g>
    </g>
</svg>