<?xml version="1.0" encoding="UTF-8"?>
<svg width="142px" height="121px" viewBox="0 0 142 121" version="1.1" xmlns="http://www.w3.org/2000/svg" xmlns:xlink="http://www.w3.org/1999/xlink">
    <title>Secure data-bro</title>
    <g id="Page-1" stroke="none" stroke-width="1" fill="none" fill-rule="evenodd">
        <g id="hashtag" transform="translate(-306.000000, -2416.000000)">
            <g id="tm" transform="translate(298.000000, 1593.000000)">
                <g id="list" transform="translate(0.000000, 280.000000)">
                    <g id="4" transform="translate(8.000000, 536.000000)">
                        <g id="Secure-data-bro" transform="translate(0.000000, 8.000000)">
                            <g id="freepik--background-simple--inject-2" transform="translate(70.666667, 60.423773) scale(-1, 1) translate(-70.666667, -60.423773) translate(0.000000, 0.868217)" fill="#F9FBFF" fill-rule="nonzero">
                                <path d="M41.678553,114.858501 C41.678553,114.858501 64.0324548,124.715866 87.2649096,113.298191 C110.497364,101.880517 123.40155,76.7960724 134.390491,56.7510078 C145.379432,36.7059432 141.067494,15.1884238 124.533127,4.31896641 C107.99876,-6.55049096 95.481137,6.77891473 71.4122997,5.72465116 C47.3434625,4.6703876 41.0951938,0.734470284 20.3226873,12.9744703 C-0.449819121,25.2144703 -6.0303876,57.2816537 8.23731266,82.3555556 C22.5050129,107.429457 41.678553,114.858501 41.678553,114.858501 Z" id="Path"></path>
                            </g>
                            <g id="freepik--Shield--inject-2" transform="translate(17.777778, 0.888889)" stroke-linecap="round" stroke-linejoin="round" stroke-width="0.5">
                                <path d="M20.3402584,24.6486822 C14.9760789,31.5382052 11.6740178,39.8067609 10.8167442,48.496124 L4.21705426,47.53323 C5.24877996,37.6265189 9.06211157,28.2138033 15.2165375,20.3824289 L20.3402584,24.6486822 Z" id="Path" stroke="#808080"></path>
                                <path d="M78.0822739,101.803204 C59.162704,109.986477 37.2166228,106.480639 21.7881137,92.8103359 L26.2125065,87.820155 C39.7058877,99.7653704 58.8906713,102.828142 75.4325581,95.6779328 L78.0822739,101.803204 Z" id="Path" stroke="#808080"></path>
                                <path d="M75.4290439,95.6779328 C58.8871571,102.828142 39.7023735,99.7653704 26.2089922,87.820155 L21.7881137,92.8103359 C14.7936619,86.6185074 9.55691448,78.6906536 6.60671835,69.8273902 L13.020155,67.9543152 L15.722584,67.1671318 L20.4527132,65.7860465 L52.3863566,56.4593282 L52.3863566,56.4593282 L54.565168,55.8232558 L31.3362274,82.0287339 C34.3211217,84.6831829 37.7013232,86.8564236 41.3552455,88.4702842 L55.9532817,55.4191214 L56.8529199,55.1555556 L56.3222739,54.582739 L55.9708527,54.2313178 L55.7529716,53.9958656 L55.1168992,53.3141085 L54.930646,53.1137984 L53.5249612,51.5921447 L29.5861499,25.8294574 L26.2371059,22.223876 L24.3218605,20.1610336 L19.7850129,15.258708 C29.6980488,5.48973464 43.0617874,0.0212584343 56.9794315,0.0386149443 L56.9794315,53.1032558 L52.8256331,14.6683204 C46.075825,15.3859441 39.6369344,17.8802564 34.165168,21.8970543 L56.9794315,53.1032558 L61.1472868,91.5381912 C65.016145,91.1274408 68.7998472,90.1296716 72.3681654,88.5792248 L74.3220672,93.0949871 L75.4290439,95.6779328 Z" id="Path" stroke="#808080"></path>
                                <path d="M22.4909561,26.4549871 C17.4591498,32.9404083 14.3733676,40.7218932 13.5929716,48.89323 L10.8167442,48.496124 C11.6753118,39.8092103 14.9773053,31.5432604 20.3402584,24.6557106 L22.4909561,26.4549871 Z" id="Path" stroke="#808080"></path>
                                <polyline id="Path" stroke="#808080" points="54.5686822 55.8232558 55.3523514 54.9376744 55.8829974 54.3402584 55.9884238 54.2207752 56.9794315 53.1032558 54.9482171 53.1032558 54.4 53.1032558 42.6801034 53.1032558 18.3231008 53.1032558"></polyline>
                                <polyline id="Path" stroke="#808080" points="13.4032041 53.1032558 10.5918346 53.1032558 0.0491989664 53.1032558"></polyline>
                                <line x1="21.7845995" y1="92.8103359" x2="15.8631525" y2="99.4908527" id="Path" stroke="#808080"></line>
                                <polyline id="Path" stroke="#808080" points="26.2089922 87.820155 28.0750388 85.7151421 31.3397416 82.0287339"></polyline>
                                <path d="M103.367047,53.1032558 C103.372563,71.594773 92.3950802,88.3233526 75.4290439,95.6779328 L74.3080103,93.0949871 C88.3541908,87.0096085 98.1772448,74.000328 100.184766,58.8247926 C102.192287,43.6492571 96.0898347,28.5332443 84.1091473,19.0048579 L85.8662532,16.801447 C96.9347166,25.5967244 103.379828,38.9658013 103.367047,53.1032558 L103.367047,53.1032558 Z" id="Path" stroke="#808080"></path>
                                <path d="M84.1091473,19.0048579 L81.0447545,22.870491 C78.4651119,20.8093369 75.6303479,19.0895801 72.610646,17.7537984 L74.5996899,13.2485788 C78.0024599,14.753103 81.198325,16.6876289 84.1091473,19.0048579 Z" id="Path" stroke="#808080"></path>
                                <polyline id="Path" stroke="#808080" points="85.862739 16.801447 95.2843411 4.95855297 105.826977 4.95855297"></polyline>
                                <line x1="81.0447545" y1="22.8529199" x2="56.9794315" y2="53.1032558" id="Path" stroke="#808080"></line>
                                <path d="M53.6057881,21.8900258 L52.8256331,14.6683204 C46.075825,15.3859441 39.6369344,17.8802564 34.165168,21.8970543 L38.4525065,27.7622739 C42.8968094,24.5017823 48.1249528,22.4757554 53.6057881,21.8900258 L53.6057881,21.8900258 Z" id="Path" stroke="#808080"></path>
                                <path d="M60.4760724,85.4621189 L61.1472868,91.5381912 C65.016145,91.1274408 68.7998472,90.1296716 72.3681654,88.5792248 L69.9082171,82.8862016 C66.917788,84.2316015 63.7352414,85.1007545 60.4760724,85.4621189 L60.4760724,85.4621189 Z" id="Path" stroke="#808080"></path>
                                <path d="M61.1472868,91.5381912 C54.4009379,92.2619761 47.5827264,91.2041658 41.3728165,88.4702842 L55.9708527,55.4191214 L54.582739,55.8232558 L31.3537984,82.0287339 C23.0748944,74.6956226 18.3402019,64.1628513 18.3511953,53.1032558 C18.3511953,51.9224806 18.4039276,50.7522481 18.5128682,49.5890439 C19.163292,42.3218442 21.866569,35.3893647 26.3073902,29.6002067 C27.3296651,28.2655508 28.4378179,26.9989228 29.6248062,25.8083721 C31.0422315,24.3830928 32.5697865,23.0717455 34.1932817,21.8865116 L57.0075452,53.0927132 L61.1472868,91.5381912 Z" id="Path" stroke="#808080"></path>
                                <line x1="75.6047545" y1="10.9327132" x2="74.5891473" y2="13.2310078" id="Path" stroke="#808080"></line>
                                <line x1="72.6001034" y1="17.7362274" x2="56.9794315" y2="53.1032558" id="Path" stroke="#808080"></line>
                                <polyline id="Path" stroke="#808080" points="52.0243928 7.27090439 52.2949871 9.77653747 52.8256331 14.6683204"></polyline>
                                <line x1="56.9794315" y1="53.1032558" x2="14.8088889" y2="34.4779328" id="Path" stroke="#808080"></line>
                                <path d="M18.5444961,57.2570543 L13.6527132,57.7877003 C13.4861271,56.2317806 13.4028385,54.6680679 13.4032029,53.1032558 L18.3231008,53.1032558 C18.3222274,54.4908271 18.396133,55.8774372 18.5444961,57.2570543 L18.5444961,57.2570543 Z" id="Path" stroke="#808080"></path>
                                <line x1="13.6527132" y1="57.7877003" x2="11.1470801" y2="58.0582946" id="Path" stroke="#808080"></line>
                                <line x1="56.9794315" y1="53.1032558" x2="19.7639276" y2="80.3102842" id="Path" stroke="#808080"></line>
                                <polyline id="Path" stroke="#808080" points="38.3541085 95.2737984 39.3697158 92.9755039 41.3587597 88.4702842"></polyline>
                                <polyline id="Path" stroke="#808080" points="55.9567959 55.4191214 56.1184496 55.0501292 56.2836176 54.6776227 56.3257881 54.582739 56.9794315 53.1032558"></polyline>
                                <polyline id="Path" stroke="#808080" points="62.2929199 105.155762 61.663876 96.4299742 61.13323 91.5381912"></polyline>
                                <polyline id="Path" stroke="#808080" points="84.1864599 90.3187597 82.6964341 88.284031 79.7936951 84.3094574"></polyline>
                                <line x1="56.9794315" y1="53.1032558" x2="99.1499742" y2="71.7285788" id="Path" stroke="#808080"></line>
                                <line x1="56.9794315" y1="53.1032558" x2="102.811783" y2="48.1482171" id="Path" stroke="#808080"></line>
                                <line x1="94.1949354" y1="25.8962274" x2="92.1602067" y2="27.3862532" id="Path" stroke="#808080"></line>
                                <line x1="88.1856331" y1="30.2889922" x2="56.9794315" y2="53.1032558" id="Path" stroke="#808080"></line>
                                <path d="M56.9794315,23.9282687 C52.6639793,27.9485271 41.6188114,32.0109561 28.7392248,40.6242894 C28.7392248,40.6242894 29.5439793,69.7395349 56.9794315,85.6554005 L56.9794315,23.9282687 Z" id="Path" stroke="#263238" fill="#ADC7F7" fill-rule="nonzero"></path>
                                <path d="M56.9794315,23.9282687 C61.2948837,27.9485271 72.3400517,32.0109561 85.2196382,40.6242894 C85.2196382,40.6242894 84.4148837,69.7395349 56.9794315,85.6554005 L56.9794315,23.9282687 Z" id="Path" stroke="#263238" fill="#263238" fill-rule="nonzero"></path>
                                <path d="M56.9794315,26.4057881 C51.7713695,30.0219121 42.7433592,33.4658398 30.8090956,41.4501292 C30.8090956,41.4501292 31.5576227,68.4287339 56.9794315,83.1743669 C82.4012403,68.4287339 83.1462532,41.4677003 83.1462532,41.4677003 C71.2155039,33.4658398 62.2296641,30.0219121 56.9794315,26.4057881 Z" id="Path" stroke="#263238" fill="#263238" fill-rule="nonzero"></path>
                                <path d="M83.1462532,41.4677003 C71.1979328,33.4834109 62.2296641,30.0394832 56.9794315,26.4233592 L56.9794315,83.1743669 C82.4012403,68.4287339 83.1462532,41.4677003 83.1462532,41.4677003 Z" id="Path" stroke="#263238" fill="#ADC7F7" fill-rule="nonzero"></path>
                                <path d="M66.8930233,53.6057881 L47.3891473,53.6057881 C46.9641354,53.6104739 46.5546722,53.4461192 46.250848,53.1488855 C45.9470238,52.8516519 45.7737303,52.445891 45.7690956,52.0208786 L45.7690956,43.0280103 C45.7690956,36.8886822 50.8682171,31.8914729 57.1410853,31.8914729 C63.4139535,31.8914729 68.5271318,36.8992248 68.5271318,43.0280103 L68.5271318,52.0103359 C68.5243813,52.4393573 68.3500861,52.8494427 68.0431067,53.1491602 C67.7361273,53.4488777 67.3219876,53.6133073 66.8930233,53.6057881 L66.8930233,53.6057881 Z M49.009199,50.4429974 L65.2729716,50.4429974 L65.2729716,43.0280103 C65.143659,38.6299577 61.5410386,35.1317054 57.1410853,35.1317054 C52.741132,35.1317054 49.1385115,38.6299577 49.009199,43.0280103 L49.009199,50.4429974 Z" id="Shape" stroke="#263238" fill="#FFFFFF" fill-rule="nonzero"></path>
                                <rect id="Rectangle" stroke="#263238" fill="#FFFFFF" fill-rule="nonzero" x="44.5637209" y="49.2727649" width="24.8314212" height="20.5405685"></rect>
                                <path d="M59.5623773,57.8017571 C59.5098969,56.3461954 58.3146987,55.1933135 56.8581912,55.1933135 C55.4016837,55.1933135 54.2064855,56.3461954 54.1540052,57.8017571 C54.1552124,58.7787094 54.6960062,59.6750751 55.5596899,60.1316796 L55.1063566,64.798553 L58.5819121,64.798553 L58.1285788,60.1316796 C59.0031566,59.6827006 59.555695,58.7848257 59.5623773,57.8017571 L59.5623773,57.8017571 Z" id="Path" stroke="#263238" fill="#263238" fill-rule="nonzero"></path>
                            </g>
                        </g>
                    </g>
                </g>
            </g>
        </g>
    </g>
</svg>