<?xml version="1.0" encoding="UTF-8"?>
<svg width="185px" height="161px" viewBox="0 0 185 161" version="1.1" xmlns="http://www.w3.org/2000/svg" xmlns:xlink="http://www.w3.org/1999/xlink">
    <title>Teddy bear-bro</title>
    <g id="Page-1" stroke="none" stroke-width="1" fill="none" fill-rule="evenodd">
        <g id="hashtag-copy" transform="translate(-283.000000, -745.000000)">
            <g id="check_but" transform="translate(55.000000, 572.000000)">
                <g id="Teddy-bear-bro" transform="translate(228.000000, 173.000000)">
                    <g id="freepik--background-simple--inject-54" transform="translate(10.625000, 0.000000)" fill-rule="nonzero">
                        <path d="M43.08225,117.87375 C40.375,116.77725 37.7315,115.6425 35.1645,114.5035 C26.129,110.5 16.7365,105.3235 9.99175,97.75 C1.06675,87.74975 -0.544,73.06175 0.21675,60.20975 C0.79475,50.57075 3.7315,40.9105 9.7325,33.32425 C17.3315,23.732 29.83075,18.921 41.6075,16.252 C55.165,13.175 69.2325,13.47675 82.8155,10.625 C96.1095,7.82 107.7205,-0.25925 121.805,0.36975 C139.98225,1.17725 161.84,13.8465 167.13125,31.81975 C169.592,40.20075 168.538,49.24475 165.7585,57.511 C158.80125,78.13625 144.28325,96.81925 126.939,110.05375 C116.76025,117.8185 104.8645,123.65375 92.14425,126.02525 C75.24625,129.15325 58.65,124.15525 43.08225,117.87375 Z" id="Path" fill="#ADC7F7"></path>
                        <path d="M43.08225,117.87375 C40.375,116.77725 37.7315,115.6425 35.1645,114.5035 C26.129,110.5 16.7365,105.3235 9.99175,97.75 C1.06675,87.74975 -0.544,73.06175 0.21675,60.20975 C0.79475,50.57075 3.7315,40.9105 9.7325,33.32425 C17.3315,23.732 29.83075,18.921 41.6075,16.252 C55.165,13.175 69.2325,13.47675 82.8155,10.625 C96.1095,7.82 107.7205,-0.25925 121.805,0.36975 C139.98225,1.17725 161.84,13.8465 167.13125,31.81975 C169.592,40.20075 168.538,49.24475 165.7585,57.511 C158.80125,78.13625 144.28325,96.81925 126.939,110.05375 C116.76025,117.8185 104.8645,123.65375 92.14425,126.02525 C75.24625,129.15325 58.65,124.15525 43.08225,117.87375 Z" id="Path" fill="#FFFFFF" opacity="0.7"></path>
                    </g>
                    <g id="freepik--Floor--inject-54" transform="translate(12.325000, 127.925000)" stroke="#263238" stroke-linecap="round" stroke-linejoin="round" stroke-width="0.5">
                        <line x1="169.85125" y1="0.42925" x2="153.36125" y2="0.42925" id="Path"></line>
                        <line x1="16.84275" y1="0.42925" x2="0.35275" y2="0.42925" id="Path"></line>
                    </g>
                    <g id="freepik--Shape--inject-54" transform="translate(12.325000, 132.175000)" fill-rule="nonzero">
                        <ellipse id="Oval" fill="#ADC7F7" cx="85.85" cy="14.1015" rx="85.595" ry="13.89325"></ellipse>
                        <ellipse id="Oval" fill="#FFFFFF" opacity="0.5" cx="85.85" cy="14.1015" rx="85.595" ry="13.89325"></ellipse>
                    </g>
                    <g id="freepik--Plant--inject-54" transform="translate(104.125000, 55.250000)" fill-rule="nonzero">
                        <path d="M0.03825,45.9 L4.57725,78.914 C4.57725,81.464 16.30725,83.5125 30.77425,83.5125 C45.24125,83.5125 56.9755,81.4555 56.9755,78.914 L61.5145,45.9 L0.03825,45.9 Z" id="Path" stroke="#263238" stroke-width="0.5" fill="#FFFFFF" stroke-linecap="round" stroke-linejoin="round"></path>
                        <ellipse id="Oval" stroke="#263238" stroke-width="0.5" fill="#FFFFFF" stroke-linecap="round" stroke-linejoin="round" cx="30.77425" cy="45.883" rx="30.736" ry="4.59425"></ellipse>
                        <path d="M55.3095,45.9 C55.3095,46.53325 54.2385,47.12825 52.3345,47.64675 C48.178,48.79425 40.0775,49.56775 30.75725,49.56775 C21.437,49.56775 13.33225,48.79425 9.18425,47.64675 C7.29725,47.12825 6.20925,46.53325 6.20925,45.9 C6.20925,43.87275 17.19125,42.23225 30.74025,42.23225 C44.28925,42.23225 55.3095,43.85575 55.3095,45.9 Z" id="Path" stroke="#263238" stroke-width="0.5" fill="#FFFFFF" stroke-linecap="round" stroke-linejoin="round"></path>
                        <path d="M52.3515,47.62975 C48.195,48.77725 40.0945,49.55075 30.77425,49.55075 C21.454,49.55075 13.34925,48.77725 9.20125,47.62975 C11.68325,46.04875 20.40425,44.88 30.77425,44.88 C41.14425,44.88 49.8695,46.04875 52.3515,47.62975 Z" id="Path" fill="#263238"></path>
                        <g id="freepik--freepik--Plant--inject-303--inject-54" transform="translate(16.150000, 0.000000)" fill="#263238">
                            <path d="M29.427,13.175 C29.44825,13.175 29.9115,11.41975 29.9285,11.288 C30.1155,9.94075 29.68625,7.2335 28.31775,6.5705 C27.4104567,6.16665247 26.3473183,6.57102475 25.93775,7.47575 C25.91225,7.53525 25.891,7.599 25.86975,7.6585 C25.50425,8.66575 25.97175,9.9025 26.52,10.7525 C27.166,11.7725 29.42275,13.175 29.427,13.175 Z" id="Path"></path>
                            <path d="M2.4395,12.60975 C3.5275,13.0815 6.19225,13.03475 6.19652332,13.03475 C6.20075,13.03475 5.62275,11.2795 5.576,11.1775 C4.98525,9.9535 3.1365,7.9305 1.62775,8.13875 C1.15633417,8.2148732 0.73457303,8.47542286 0.455512437,8.86291842 C0.176451845,9.25041399 0.0630230924,9.73301372 0.14025,10.20425 C0.14025,10.268 0.16575,10.33175 0.18275,10.39125 C0.425,11.424 1.50875,12.20175 2.4395,12.60975 Z" id="Path"></path>
                            <path d="M37.55725,3.5615 L37.3915,3.5275 C35.8785,3.36175 34.085,5.43575 33.52825,6.6725 C33.4815,6.783 32.929,8.5425 32.9545,8.5425 L32.9885,8.5425 C32.70375,8.8655 32.402,9.21825 32.079,9.60925 C31.484,10.336 30.804,11.1605 30.1665,12.10825 C29.91575,12.46525 29.66925,12.82225 29.43125,13.18775 L29.43125,13.18775 C28.9920833,13.8649167 28.577,14.55625 28.186,15.26175 C27.5060867,16.4833458 26.9371395,17.7634769 26.486,19.08675 L26.486,17.34425 C26.31175,16.00125 25.17275,13.498 23.6895,13.22175 C23.2160886,13.1484839 22.732962,13.2662806 22.3464026,13.5492261 C21.9598433,13.8321717 21.7015161,14.2570886 21.62825,14.7305 C21.62825,14.79425 21.62825,14.85375 21.62825,14.9175 C21.54325,15.98425 22.31675,17.0425 23.07325,17.731 C23.92325,18.49175 26.29475,19.23125 26.47325,19.2865 C26.0490311,20.6412522 25.7153782,22.0227171 25.4745,23.42175 C25.33,24.2335 25.211,25.058 25.1005,25.8825 C25.1103926,25.623064 25.1032941,25.3632587 25.07925,25.10475 C24.905,23.7575 23.76175,21.27975 22.2785,20.9865 C21.2964345,20.8337567 20.3761195,21.5049782 20.2215,22.48675 C20.2215,22.54625 20.2215,22.61 20.2215,22.67375 C20.13225,23.74475 20.91,24.79875 21.67075,25.4915 C22.4315,26.18425 24.44175,26.84725 24.973,27.01725 C24.93475,27.336 24.888,27.6505 24.854,27.96925 C24.67125,29.495 24.49275,31.02075 24.28025,32.50825 C24.1995,33.031 24.11025,33.5495 24.0125,34.0595 L24.0125,33.38375 C23.83825,32.0365 22.695,29.55875 21.216,29.2655 C20.2339345,29.1127567 19.3136195,29.7839782 19.159,30.76575 C19.159,30.82525 19.159,30.89325 19.159,30.957 C19.06975,32.02375 19.8475,33.082 20.604,33.7705 C21.3605,34.459 23.1795,35.0455 23.81275,35.2665 C23.698,35.78925 23.59175,36.31625 23.46,36.81775 C23.36225,37.15775 23.29,37.49775 23.1795,37.82925 C23.069,38.16075 22.9585,38.50075 22.85225,38.83225 C22.627,39.457 22.39325,40.10725 22.15525,40.71925 C21.99375,41.14425 21.83225,41.5395 21.6665,41.94325 C21.74725,41.4205 21.8875,40.39625 21.89175,40.31125 C21.874417,39.1162661 21.5510413,37.9456751 20.9525,36.91125 C20.9629711,36.7797081 20.9629711,36.6475419 20.9525,36.516 C20.8921161,36.0412429 20.6453562,35.6100065 20.266644,35.3174015 C19.8879318,35.0247965 19.4083781,34.89486 18.93375,34.95625 L18.7595,34.986 C17.289,35.377 16.35825,37.961 16.286,39.3125 C16.286,39.39325 16.337,40.2645 16.3795,40.81275 L16.1585,39.8565 C16.00125,39.20625 15.83125,38.5815 15.6485,37.87175 C15.5465,37.54025 15.4445,37.2045 15.34675,36.8645 C15.249,36.5245 15.1045,36.1845 14.98975,35.84025 C14.6965,35.0455 14.365,34.255 14.01225,33.4645 C14.58175,33.3285 16.592,32.81425 17.41225,32.1895 C18.2325,31.56475 19.06975,30.566 19.06125,29.49075 C19.0761311,29.015022 18.9013032,28.5528884 18.5752706,28.20613 C18.2492381,27.8593717 17.7987419,27.6564296 17.323,27.642 C17.2564858,27.6377087 17.1897642,27.6377087 17.12325,27.642 C15.606,27.80775 14.297,30.21325 14.025,31.5435 C14.025,31.62425 13.9145,32.606 13.8805,33.1415 C13.6595,32.6655 13.4555,32.198 13.21325,31.722 C12.5375,30.362 11.81075,29.00625 11.08825,27.6505 L10.438,26.40525 C10.642,26.35425 13.04325,25.7975 13.9485,25.08775 C14.756,24.4715 15.606,23.46 15.5975,22.38475 C15.6112201,21.9090308 15.4352996,21.4473638 15.1084769,21.1014101 C14.7816542,20.7554563 14.3307302,20.5535854 13.855,20.54025 C13.7899888,20.5338839 13.7245112,20.5338839 13.6595,20.54025 C12.1465,20.70175 10.83325,23.09025 10.56125,24.4375 C10.56125,24.5395 10.4125,25.942 10.39975,26.299 C9.9195,25.38525 9.45625,24.46725 9.0355,23.545 C8.4602443,22.30284 7.96482146,21.0252453 7.55225,19.72 C7.64575,19.72 10.1575,19.12925 11.06275,18.40675 C11.87025,17.78625 12.72025,16.779 12.71175,15.70375 C12.7355197,14.7076972 11.9482599,13.880504 10.95225,13.855 L10.7695,13.855 C9.2565,14.02075 7.9475,16.4305 7.67125,17.76075 C7.67125,17.84575 7.5565,18.921 7.5225,19.42675 L7.4375,19.42675 C7.05761347,18.0997621 6.79732394,16.7414206 6.65975,15.368 C6.579,14.6115 6.5365,13.88475 6.51525,13.175 C6.9955,13.1155 9.18,12.82225 10.0895,12.2995 C10.999,11.77675 11.91275,10.863 12.02325,9.79625 C12.0833173,9.32211958 11.952122,8.84358527 11.6586521,8.46638083 C11.3651823,8.08917639 10.9335947,7.84435113 10.45925,7.786 C10.3898986,7.78174423 10.3203514,7.78174423 10.251,7.786 C8.73375,7.786 7.17825,10.03425 6.7405,11.322 C6.71925,11.39425 6.56625,12.13375 6.46,12.6735 L6.46,11.71725 C6.46,10.56975 6.53225,9.52425 6.6045,8.585 C6.65125,8.05375 6.70225,7.57775 6.75325,7.1315 C7.17825,6.82975 8.94625,5.58875 9.4945,4.7005 C10.04275,3.81225 10.45075,2.5755 10.0555,1.58525 C9.72485477,0.650661342 8.7000507,0.160124326 7.76475,0.48875 C7.70525,0.51 7.64575,0.53975 7.582,0.5695 C6.2305,1.2665 5.882,3.9695 6.09875,5.32525 C6.12,5.44 6.62575,7.1995 6.65125,7.1995 L6.67675,7.1995 C6.6215,7.6245 6.562,8.075 6.50675,8.5935 C6.41325,9.52425 6.31975,10.57825 6.29425,11.73 C6.24822132,12.974416 6.27660525,14.2204707 6.37925,15.4615 C6.4908761,16.8488733 6.72266188,18.223946 7.072,19.57125 L7.072,19.62225 C6.83825,19.24825 6.1285,18.2155 6.069,18.1475 C5.18925,17.119 2.86025,15.657 1.462,16.252 C0.5571801,16.6663101 0.159507819,17.735649 0.57375,18.6405 C0.59925,18.7 0.63325,18.75525 0.663,18.8105 C1.1815,19.74975 2.41825,20.213 3.42125,20.3575 C4.55175,20.52325 6.93175,19.8305 7.123,19.7795 C7.51737438,21.1392044 7.9986136,22.4721945 8.56375,23.77025 C8.89525,24.531 9.248,25.28325 9.6135,26.0355 C9.3925,25.721 9.1885,25.43625 9.1885,25.398 C8.30875,24.37375 5.97975,22.91175 4.5815,23.5025 C3.6761335,23.9185654 3.27868889,24.9891937 3.69325,25.89525 C3.71875,25.9505 3.75275,26.01 3.7825,26.061 C4.301,27.00025 5.53775,27.46775 6.54075,27.61225 C7.54375,27.75675 9.6135,27.21275 10.1405,27.064 C10.285,27.34875 10.421,27.63775 10.5655,27.9395 C11.254,29.31225 11.94675,30.6765 12.5885,32.04075 C12.818,32.521 13.0135,33.0055 13.226,33.4815 C13.0305,33.201 12.869,32.963 12.83925,32.929 C11.9595,31.9005 9.6305,30.44275 8.23225,31.03775 C7.79803764,31.2358482 7.46041782,31.5984768 7.29379979,32.0457146 C7.12718176,32.4929525 7.14524195,32.9880893 7.344,33.422 C7.37375,33.4815 7.4035,33.541 7.43325,33.592 C7.95175,34.53125 9.1885,34.9945 10.1915,35.14325 C11.1945,35.292 13.056,34.799 13.702,34.6205 C13.90175,35.11775 14.09725,35.615 14.263,36.108 C14.3735,36.448 14.49675,36.7625 14.59025,37.111 C14.68375,37.4595 14.77725,37.78675 14.87075,38.11825 C15.028,38.7685 15.1895,39.43575 15.29575,40.0775 C15.3935,40.5025 15.48275,40.953 15.56775,41.3525 C15.351,40.87225 14.9005,39.9415 14.85375,39.865 C14.13125,38.72175 12.05725,36.924 10.5825,37.315 C10.1245321,37.4463621 9.73765119,37.7545457 9.5072221,38.1715506 C9.27679302,38.5885554 9.22175425,39.0801088 9.35425,39.53775 C9.36742907,39.5885622 9.38447889,39.6382908 9.40525,39.6865 C9.77075,40.69375 10.9225,41.33975 11.8915,41.63725 C12.9625,41.9645 15.32125,41.667 15.623,41.63725 C15.76325,42.347 15.895,43.0355 16.0055,43.68575 C16.39225,45.9 16.63875,47.76575 16.79175,49.08325 L17.8245,49.08325 C17.8245,49.08325 17.8245,49.0535 17.8245,49.0365 C17.6375,47.69775 17.3485,45.7895 16.898,43.5115 C16.75775,42.79325 16.59625,42.02825 16.4135,41.2505 C17.1274029,40.963631 17.8228951,40.6329173 18.496,40.26025 C19.27375,41.11025 21.267,42.092 21.52625,42.21525 C21.2585,42.89525 20.98225,43.537 20.71875,44.14475 C19.8305,46.20175 19.01875,47.889 18.39825,49.0705 L19.5075,49.0705 C20.06,47.90175 20.7825,46.35475 21.5135,44.523 C21.78975,43.843 22.0745,43.112 22.3635,42.364 C22.64825,42.4235 24.9985,42.8995 26.08225,42.653 C27.06825,42.42775 28.27525,41.871 28.713,40.89775 C28.9273313,40.4709549 28.9621398,39.9761854 28.8096766,39.5235851 C28.6572134,39.0709849 28.3301334,38.6981214 27.90125,38.488 C27.846,38.45825 27.78225,38.43275 27.72275,38.40725 C26.27775,37.927 24.0805,39.56325 23.273,40.6555 C23.2305,40.7235 22.79275,41.47575 22.525,41.973 C22.6355,41.66275 22.75025,41.36525 22.865,41.05075 C23.0945,40.42175 23.29,39.77575 23.5365,39.11275 C23.63425,38.777 23.732,38.4455 23.834,38.1055 C23.936,37.7655 24.01675,37.40425 24.106,37.0515 C24.30575,36.227 24.463,35.3855 24.60325,34.53125 C25.1515,34.731 27.11075,35.40675 28.11375,35.343 C29.11675,35.27925 30.39175,34.918 30.97825,34 C31.5507735,33.1910738 31.3606743,32.0713896 30.55325,31.49675 L30.38325,31.39475 C29.03175,30.6935 26.60925,31.98125 25.64875,32.9375 C25.585,32.997 24.973,33.762 24.64575,34.187 C24.7265,33.67275 24.80725,33.16275 24.87525,32.64 C25.058,31.1355 25.2025,29.60125 25.35125,28.0755 C25.398,27.608 25.449,27.1405 25.49575,26.67725 C25.69125,26.74525 28.00325,27.61225 29.14225,27.52725 C30.15375,27.45075 31.42025,27.10225 32.011,26.18425 C32.5868446,25.3731984 32.3966174,24.2489557 31.586,23.6725 C31.5233595,23.6288247 31.4580672,23.5890815 31.3905,23.5535 C30.039,22.8565 27.6165,24.14 26.656,25.1005 C26.58375,25.17275 25.704,26.2735 25.49575,26.5625 C25.59775,25.534 25.71675,24.514 25.874,23.48975 C26.0777658,22.1329544 26.3716661,20.7912355 26.75375,19.4735 C26.83875,19.51175 29.25275,20.417 30.41725,20.35325 C31.42875,20.281 32.6995,19.92825 33.286,19.01025 C33.8589515,18.19998 33.6689496,17.078969 32.861,16.50275 L32.6995,16.405 C31.348,15.708 28.9255,16.9915 27.965,17.94775 C27.897,18.01575 27.2255,18.853 26.91525,19.26525 L26.83875,19.227 C27.2551895,17.90714 27.7885539,16.6270656 28.4325,15.402 C28.781,14.72625 29.1465,14.08875 29.5205,13.498 C29.9455,13.71475 31.9345,14.6795 32.99275,14.71775 C34.051,14.756 35.309,14.53075 35.989,13.702 C36.3058574,13.3424882 36.4668625,12.8717967 36.4365728,12.3935396 C36.4062832,11.9152824 36.1871819,11.4686643 35.8275,11.152 C35.7765,11.11375 35.7255,11.067 35.6745,11.033 C34.3995,10.183 31.8495,11.203 30.79975,12.053 C30.74025,12.0955 30.20475,12.62675 29.818,13.022 C29.99225,12.75425 30.1665,12.47375 30.33225,12.21875 C30.96975,11.25825 31.60725,10.421 32.18525,9.66875 C32.51675,9.24375 32.82275,8.8825 33.116,8.5425 C33.64725,8.5425 35.79775,8.466 36.74125,8.024 C37.68475,7.582 38.70475,6.7915 38.93425,5.7375 C39.045518,5.2659541 38.9622153,4.76946736 38.703137,4.36005978 C38.4440588,3.9506522 38.0310334,3.66281804 37.55725,3.5615 Z" id="Path"></path>
                        </g>
                    </g>
                    <g id="freepik--Boxes--inject-54" transform="translate(0.000000, 1.700000)" stroke="#263238" stroke-linecap="round" stroke-linejoin="round" stroke-width="0.5">
                        <polygon id="Path" points="0.306 86.01575 17.8075 96.9085 22.814 77.367 5.3125 66.47425"></polygon>
                        <polygon id="Path" points="22.814 77.367 41.395 75.718 36.3885 95.26375 17.8075 96.9085"></polygon>
                        <polygon id="Path" points="41.395 75.718 23.8935 64.82525 5.3125 66.47425 22.814 77.367"></polygon>
                        <path d="M23.30275,54.57425 C23.2267428,55.3581157 22.6858859,56.0189441 21.9325187,56.2484225 C21.1791515,56.477901 20.361738,56.2308067 19.8616465,55.6224229 C19.3615549,55.014039 19.277337,54.164258 19.648285,53.4695494 C20.0192329,52.7748407 20.7722451,52.3721087 21.556,52.44925 C22.6247583,52.5544428 23.4063963,53.5053407 23.30275,54.57425 L23.30275,54.57425 Z" id="Path"></path>
                        <path d="M37.3235,43.23525 C37.2842757,43.6289563 37.0106119,43.9597335 36.6312206,44.0720073 C36.2518292,44.1842812 35.8422279,44.0557038 35.5950639,43.7467489 C35.3478999,43.4377939 35.3123711,43.0099585 35.5051876,42.6644661 C35.6980041,42.3189738 36.0807861,42.1245943 36.4735,42.17275 C36.9984664,42.2371229 37.3759337,42.708957 37.3235,43.23525 L37.3235,43.23525 Z" id="Path"></path>
                        <path d="M39.2445,56.72475 C39.1396455,57.7887933 38.4041508,58.6849009 37.3809765,58.9952184 C36.3578021,59.305536 35.2484454,58.9689515 34.5701987,58.1424142 C33.8919519,57.3158769 33.7783844,56.1621595 34.2824527,55.2192397 C34.786521,54.2763199 35.8089572,53.72989 36.873,53.83475 C38.324726,53.980167 39.385252,55.2725643 39.2445,56.72475 L39.2445,56.72475 Z" id="Path"></path>
                        <path d="M168.40625,61.2 C168.359199,61.6808489 168.027059,62.0859769 167.564769,62.2263967 C167.10248,62.3668165 166.601127,62.2148609 166.294585,61.8414153 C165.988043,61.4679697 165.936712,60.9466149 166.164536,60.5205568 C166.39236,60.0944988 166.854452,59.8476845 167.33525,59.89525 C167.650681,59.9253177 167.941096,60.0799431 168.142135,60.3248598 C168.343174,60.5697764 168.438234,60.8847574 168.40625,61.2 L168.40625,61.2 Z" id="Path"></path>
                        <circle id="Oval" cx="147.69175" cy="46.05725" r="2.35875"></circle>
                        <polygon id="Path" points="181.492 30.88475 157.845 40.78725 155.5755 15.79725 179.2225 5.899"></polygon>
                        <polygon id="Path" points="155.5755 15.79725 133.08875 10.0895 135.3625 35.0795 157.845 40.78725"></polygon>
                        <polygon id="Path" points="133.08875 10.0895 156.74 0.187 179.2225 5.899 155.5755 15.79725"></polygon>
                    </g>
                    <g id="freepik--teddy-bear--inject-54" transform="translate(31.875000, 27.200000)">
                        <path d="M104.2525,114.9625 C102.068,119.085 99.98125,121.7625 97.92425,123.5305 C95.1575,125.88925 92.45875,126.55225 89.71325,126.7435 C84.983,127.0665 76.20675,125.67675 67.70675,119.87125 L67.337,119.6205 C66.9677289,119.78152 66.5903937,119.923376 66.2065,120.0455 C64.7427318,120.518238 63.2412814,120.865164 61.7185,121.0825 L61.7185,121.0825 C57.8205027,121.626428 53.8591276,121.517267 49.997,120.7595 C48.652709,120.503781 47.3221828,120.18037 46.0105,119.7905 C45.0877182,121.399658 43.9621867,122.883703 42.6615,124.20625 C40.08175,126.837 36.08675,129.50175 30.96975,128.5285 C21.5475,126.7435 19.35025,122.842 18.04975,117.0535 C17.4126903,113.991507 17.236497,110.851541 17.527,107.7375 C17.646,106.369 17.799,105.52325 17.799,105.52325 C17.799,105.52325 14.399,106.845 12.6055,102.0255 C12.6055,102.0255 12.44825,112.557 7.83275,113.65775 C5.61,114.18475 3.961,113.23275 2.7795,111.639 C1.46625,109.85825 0.7225,107.2445 0.408,104.89425 C0.3315,104.32475 0.28475,103.768 0.255,103.241 C0.0085,98.61275 1.31325,90.5675 3.7485,83.096 C6.18375,75.6245 13.6595,65.705 19.91975,60.09925 C26.18,54.4935 30.175,52.275 30.175,52.275 C30.175,52.275 26.86425,45.1095 26.53275,37.64225 C26.4528939,36.1717258 26.518378,34.6969098 26.72825,33.23925 C26.72825,33.23925 18.7,32.725 15.77175,25.66575 C13.5235,20.23 13.43425,15.32125 14.95575,11.7215 C15.3887218,10.6699529 15.9933685,9.697635 16.745,8.84425 C19.9155,5.27 27.33175,2.01025 36.43525,10.54425 L36.63075,10.45925 L36.63075,10.45925 C38.165,9.81325 48.10575,5.87775 59.03675,7.3185 C60.3382919,7.49425965 61.6282956,7.74686763 62.9,8.075 L62.93825,8.075 C64.6495732,8.5065721 66.3181739,9.09264497 67.9235,9.826 C67.9235,9.826 70.363,1.61925 79.05,0.969 C82.093,0.7395 84.22225,1.887 85.6885,3.5615 C88.42125,6.6725 88.88025,11.6365 88.723,12.99225 C88.48075,15.11725 87.84325,21.607 79.798,23.39625 C79.8809824,24.9671053 80.0798566,26.5296879 80.393,28.07125 C80.84775,29.98375 84.34125,33.966 83.61025,39.81825 C82.87925,45.6705 80.26975,50.15425 75.2505,53.16325 C75.2435502,53.1737665 75.232952,53.1813366 75.22075,53.1845 L75.22075,53.1845 L75.29725,53.26525 C75.429,53.41825 75.72225,53.74125 76.1175,54.21725 C78.472,57.02225 84.89375,65.093 88.6295,73.9245 C92.6415,83.436 92.565,90.01075 92.4545,91.596 C92.4545,91.8425 92.429,91.96575 92.429,91.96575 C93.6504934,92.3263323 94.6008454,93.2895269 94.945,94.51575 C94.945,94.51575 99.1695,88.45525 103.5555,91.137 C107.9415,93.81875 106.25,100.1555 106.25,100.1555 C106.25,100.1555 109.37375,105.29375 104.2525,114.9625 Z" id="Path" fill="#ADC7F7" fill-rule="nonzero"></path>
                        <path d="M80.75,94.724 C80.3505,107.35925 74.66825,115.33225 67.80025,119.238 C67.677,119.15725 67.456,119.7055 67.33275,119.6205 C66.9634789,119.78152 66.5861437,119.923376 66.20225,120.0455 C64.7384818,120.518238 63.2370314,120.865164 61.71425,121.0825 C64.17925,118.81725 69.4195,113.38575 71.451,106.5815 C74.1455,97.5545 74.1455,84.2095 72.79825,75.3185 C71.451,66.4275 68.35275,55.90875 68.35275,55.90875 L72.17775,55.1905 C72.17775,55.1905 81.28975,77.74525 80.75,94.724 Z" id="Path" fill="#000000" fill-rule="nonzero" opacity="0.2"></path>
                        <path d="M45.44525,89.505 C45.44525,89.505 42.9845,86.8615 41.25475,85.952 L41.7095,87.77525 C41.7095,87.77525 35.78925,86.04125 30.05175,92.1485 C30.05175,92.1485 25.76775,86.50025 22.40175,88.502 C19.03575,90.50375 21.76425,94.6985 21.76425,94.6985 L19.7625,93.4235 C19.7625,93.4235 20.4,96.883 22.3125,98.158 C22.3125,98.158 17.4845,107.9075 18.7595,119.1105 C18.7595,119.1105 15.283,108.9105 19.47775,98.94425 C19.47775,98.94425 15.37225,91.4685 20.3915,87.1165 C25.41075,82.7645 29.78825,89.675 29.78825,89.675 C29.78825,89.675 34.425,82.36925 40.528,84.0225 C44.90125,85.22525 45.44525,89.505 45.44525,89.505 Z" id="Path" fill="#FFFFFF" fill-rule="nonzero" opacity="0.6"></path>
                        <path d="M92.73925,91.732 C91.8595,91.56625 90.25725,91.94875 88.99925,93.09625 C86.3921237,95.4554271 83.5429668,97.5324625 80.49925,99.29275 C80.49925,99.29275 81.14525,87.00175 79.5685,79.53875 C77.99175,72.07575 71.247,55.73875 71.247,55.73875 L76.12175,54.23 C78.47625,57.035 84.898,65.10575 88.63375,73.93725 C92.65,83.44025 92.8285,90.14675 92.73925,91.732 Z" id="Path" fill="#000000" fill-rule="nonzero" opacity="0.2"></path>
                        <path d="M99.3395,122.281 C96.57275,124.63975 92.45875,126.531 89.71325,126.7435 C84.915,127.07075 75.95175,125.63425 67.337,119.6205 C66.9677289,119.78152 66.5903937,119.923376 66.2065,120.0455 L66.147,119.969 C66.147,119.969 72.5645,117.32975 76.20675,111.9195 L75.57775,115.0645 C75.57775,115.0645 87.57125,113.52175 90.967,110.00275 C90.95,110.00275 90.525,125.04775 99.3395,122.281 Z" id="Path" fill="#000000" fill-rule="nonzero" opacity="0.2"></path>
                        <path d="M42.75075,55.05025 C42.75075,55.05025 35.598,55.05025 31.79425,52.8615 C31.79425,52.8615 23.1455,61.2765 18.649,69.0115 C14.1525,76.7465 13.345,81.464 13.345,81.464 L12.19325,76.3895 C10.734626,79.5295802 9.50044904,82.7691174 8.5,86.08375 C7.47575,89.48375 6.99975,93.0155 5.74175,96.3305 C4.54325,99.48825 2.50325,102.2805 0.41225,104.91125 C0.33575,104.34175 0.289,103.785 0.25925,103.258 C0.01275,98.62975 1.3175,90.5845 3.75275,83.113 C6.188,75.6415 13.66375,65.722 19.924,60.11625 C26.18425,54.5105 30.175,52.275 30.175,52.275 C30.175,52.275 26.86425,45.1095 26.53275,37.64225 L26.72825,33.23925 C26.72825,33.23925 28.85325,20.094 33.45175,16.286 L34.4335,17.02125 C34.4335,17.02125 33.8555,20.247 37.54875,27.85875 C37.54875,27.85875 33.97025,26.129 33.29875,24.50975 C33.8640544,26.5597251 34.6700812,28.5355608 35.7,30.396 C35.7,30.396 34.493,30.99525 32.555,29.52475 C32.538,29.52475 31.45,49.05775 42.75075,55.05025 Z" id="Path" fill="#FFFFFF" fill-rule="nonzero" opacity="0.6"></path>
                        <path d="M39.0065,14.26725 L34.93075,11.19025 L34.84575,13.51925 C34.84575,13.51925 30.9315,8.942 28.271,8.194 L29.597,10.183 C29.34625,10.09375 22.17225,7.5055 14.95575,11.7215 C15.3887218,10.6699529 15.9933685,9.697635 16.745,8.84425 C19.9155,5.27 27.33175,2.01025 36.43525,10.54425 L36.63075,10.45925 L36.63075,10.45925 L36.839,11.1945 L39.0065,14.26725 Z" id="Path" fill="#FFFFFF" fill-rule="nonzero" opacity="0.6"></path>
                        <path d="M20.88025,12.6055 C20.88025,12.6055 17.39525,15.34675 17.561,19.159 L19.3035,17.085 C18.9309098,19.2035262 19.0164109,21.377284 19.55425,23.46 L20.298,21.386 C20.298,21.386 21.54325,27.1065 27.5995,28.02025 C27.5995,28.02025 29.971,19.33325 33.5495,16.17975 C33.53675,16.19675 26.775,11.11375 20.88025,12.6055 Z" id="Path" fill="#000000" fill-rule="nonzero" opacity="0.2"></path>
                        <path d="M88.73575,12.988 C88.4935,15.113 87.856,21.60275 79.81075,23.392 C79.8937324,24.9628553 80.0926066,26.5254379 80.40575,28.067 C80.8605,29.9795 84.354,33.96175 83.623,39.814 C82.892,45.66625 80.2825,50.15 75.26325,53.159 C80.31225,39.05325 71.14925,32.15125 69.05825,30.51075 C66.96725,28.87025 67.04375,27.404 67.04375,23.6555 C67.04375,19.907 65.025,15.0535 65.025,15.0535 C63.2655,10.3785 60.49025,8.1855 59.041,7.31425 C58.7350443,7.12479561 58.413754,6.96130718 58.0805,6.8255 C59.7233662,7.08641584 61.337307,7.50484493 62.9,8.075 L62.93825,8.075 C66.62725,9.2905 70.68175,10.94375 70.68175,10.94375 C76.28325,3.56575 82.45425,3.1365 85.6885,3.5615 C88.434,6.66825 88.893,11.61525 88.73575,12.988 Z" id="Path" fill="#000000" fill-rule="nonzero" opacity="0.2"></path>
                        <path d="M30.0985,96.43675 C30.0985,96.43675 36.142,92.9985 40.04775,95.37425 C43.9535,97.75 46.09975,102.11475 45.48775,108.09025 C44.87575,114.06575 40.65975,125.8 30.396,125.018 C20.13225,124.236 21.046,113.91275 21.50925,111.1545 C21.9725,108.39625 24.36525,99.722 30.0985,96.43675 Z" id="Path" fill="#000000" fill-rule="nonzero" opacity="0.4"></path>
                        <path d="M106.61975,100.91625 C106.61975,100.91625 103.64475,94.86425 99.603,96.53025 C95.56125,98.19625 91.0095,104.3375 91.103,110.738 C91.1965,117.1385 92.33125,120.64475 95.66325,122.4 C98.99525,124.15525 102.5015,118.63025 102.5015,118.63025 C102.5015,118.63025 108.54925,107.7545 106.61975,100.91625 Z" id="Path" fill="#000000" fill-rule="nonzero" opacity="0.4"></path>
                        <path d="M54.3575,6.8 C56.9090507,6.84032042 59.4491472,7.15088747 61.93525,7.7265 C69.836,9.5625 78.11925,14.83675 79.679,23.307 C79.968,24.87525 79.9935,26.537 80.39725,28.07125 C81.141,30.8805 82.9685,33.17125 83.49125,36.06125 C84.8555,43.588 79.577,53.7285 71.25125,54.298" id="Path" stroke="#263238" stroke-width="0.5" stroke-linecap="round" stroke-linejoin="round"></path>
                        <path d="M36.47775,10.625 C39.8205234,9.09785987 43.3435824,8.00109889 46.9625,7.361" id="Path" stroke="#263238" stroke-width="0.5" stroke-linecap="round" stroke-linejoin="round"></path>
                        <path d="M61.625,30.45975 C61.625,31.5945 61.14475,32.51675 60.554,32.51675 C59.96325,32.51675 59.48725,31.5945 59.48725,30.45975 C59.48725,29.325 59.96325,28.40275 60.554,28.40275 C61.14475,28.40275 61.625,29.325 61.625,30.45975 Z" id="Path" fill="#263238" fill-rule="nonzero"></path>
                        <path d="M74.936,28.73425 C74.936,29.869 74.46,30.787 73.86925,30.787 C73.2785,30.787 72.79825,29.869 72.79825,28.73425 C72.79825,27.5995 73.2785,26.67725 73.86925,26.67725 C74.46,26.67725 74.936,27.59525 74.936,28.73425 Z" id="Path" fill="#263238" fill-rule="nonzero"></path>
                        <path d="M68.765,32.52525 C68.4436651,32.6249144 68.1878378,32.8697803 68.0742059,33.1864456 C67.9605741,33.5031109 68.002346,33.854767 68.187,34.136 C68.95625,35.32175 70.363,37.111 71.944,37.1535 C74.3325,37.2555 74.732,33.27325 74.23475,32.57625 C73.82675,32.011 70.7965,31.90475 68.765,32.52525 Z" id="Path" fill="#263238" fill-rule="nonzero"></path>
                        <path d="M13.47675,66.7675 C5.12125,76.80175 -0.12325,89.55175 0.238,102.782 C0.2975,104.788 0.45475,106.93 1.258,108.7915 C3.8505,114.784 6.9275,114.6225 9.52,113.00325 C12.1125,111.384 12.43125,101.6685 12.43125,101.6685 C12.43125,101.6685 13.70625,105.23 16.1585,105.7145 C16.7982851,105.779065 17.4356216,105.570735 17.91375,105.14075" id="Path" stroke="#263238" stroke-width="0.5" stroke-linecap="round" stroke-linejoin="round"></path>
                        <path d="M26.66875,33.5155 C25.6105,42.704 30.175,52.275 30.175,52.275 C30.09,52.10075 19.55,60.43925 18.58525,61.336 L17.578,62.305" id="Path" stroke="#263238" stroke-width="0.5" stroke-linecap="round" stroke-linejoin="round"></path>
                        <path d="M66.89925,31.66675 C68.6430816,30.4945378 70.8389138,30.2171032 72.8195,30.91875" id="Path" stroke="#263238" stroke-width="0.5" stroke-linecap="round" stroke-linejoin="round"></path>
                        <path d="M77.775,1.04125 C78.4752055,0.908943113 79.187748,0.853364792 79.9,0.8755 C87.74975,1.173 90.202,11.5685 87.81775,17.663 C86.44925,21.148 83.3,22.78425 79.69175,23.29425" id="Path" stroke="#263238" stroke-width="0.5" stroke-linecap="round" stroke-linejoin="round"></path>
                        <path d="M68.1955,9.88125 C68.75225,6.97 70.87725,4.35625 73.54625,2.7115" id="Path" stroke="#263238" stroke-width="0.5" stroke-linecap="round" stroke-linejoin="round"></path>
                        <path d="M75.65,15.3425 C75.65,15.3425 77.83875,5.36775 84.898,7.395" id="Path" stroke="#263238" stroke-width="0.5" stroke-linecap="round" stroke-linejoin="round"></path>
                        <path d="M77.18425,11.69175 C77.18425,11.69175 82.96,10.41675 83.8525,14.6115 C84.745,18.80625 78.863,20.1025 78.863,20.1025" id="Path" stroke="#263238" stroke-width="0.5" stroke-linecap="round" stroke-linejoin="round"></path>
                        <path d="M73.474,3.54025 C73.474,3.54025 73.474,1.91675 74.12,1.20275" id="Path" stroke="#263238" stroke-width="0.5" stroke-linecap="round" stroke-linejoin="round"></path>
                        <path d="M75.5225,0.7735 C75.21971,1.38549412 75.0736713,2.06311392 75.0975,2.7455" id="Path" stroke="#263238" stroke-width="0.5" stroke-linecap="round" stroke-linejoin="round"></path>
                        <path d="M77.4095,0.136 C77.1737452,0.70185117 77.0663362,1.31292144 77.095,1.92525" id="Path" stroke="#263238" stroke-width="0.5" stroke-linecap="round" stroke-linejoin="round"></path>
                        <path d="M69.3685,30.6 C69.1769577,30.507197 68.9947856,30.3961859 68.8245,30.2685" id="Path" stroke="#263238" stroke-width="0.5" stroke-linecap="round" stroke-linejoin="round"></path>
                        <path d="M67.915,29.37175 C67.369749,28.6078485 67.0973066,27.6827419 67.1415,26.74525 C67.22225,24.0295 66.6315,10.659 58.4545,7.39925" id="Path" stroke="#263238" stroke-width="0.5" stroke-linecap="round" stroke-linejoin="round" stroke-dasharray="1.291328483819961,1.291328483819961"></path>
                        <path d="M57.84675,7.17825 C57.64275,7.1145 57.42175,7.055 57.2305,7.004" id="Path" stroke="#263238" stroke-width="0.5" stroke-linecap="round" stroke-linejoin="round"></path>
                        <path d="M24.82425,5.1 C24.2792248,5.12507267 23.7366818,5.18898481 23.20075,5.29125 C14.365,6.9615 10.92675,16.85975 16.1585,26.299 C19.42675,32.2065 24.94325,33.3115 28.237,33.39225" id="Path" stroke="#263238" stroke-width="0.5" stroke-linecap="round" stroke-linejoin="round"></path>
                        <path d="M38.1225,12.93275 C36.3719573,10.4163887 34.0951985,8.31074932 31.45,6.76175" id="Path" stroke="#263238" stroke-width="0.5" stroke-linecap="round" stroke-linejoin="round"></path>
                        <path d="M35.52575,17.99875 C35.52575,17.99875 26.7325,7.96875 17.25075,14.3735" id="Path" stroke="#263238" stroke-width="0.5" stroke-linecap="round" stroke-linejoin="round"></path>
                        <path d="M27.54425,12.93275 C27.54425,12.93275 20.0175,19.669 28.05,25.959" id="Path" stroke="#263238" stroke-width="0.5" stroke-linecap="round" stroke-linejoin="round"></path>
                        <path d="M27.625,29.036 C27.625,29.036 28.135,21.31375 33.51975,16.23925" id="Path" stroke="#263238" stroke-width="0.5" stroke-linecap="round" stroke-linejoin="round"></path>
                        <path d="M28.7895,4.7515 C29.2311748,5.3339557 29.5151546,6.02048425 29.614,6.74475" id="Path" stroke="#263238" stroke-width="0.5" stroke-linecap="round" stroke-linejoin="round"></path>
                        <path d="M30.12825,4.62825 C30.5626758,5.36594033 30.7779122,6.21214356 30.74875,7.06775" id="Path" stroke="#263238" stroke-width="0.5" stroke-linecap="round" stroke-linejoin="round"></path>
                        <path d="M26.095,4.182 C26.7901854,4.74040153 27.246183,5.54295732 27.37,6.426" id="Path" stroke="#263238" stroke-width="0.5" stroke-linecap="round" stroke-linejoin="round"></path>
                        <path d="M35.61925,53.4905 C35.61925,53.4905 51.7055,58.67975 65.84525,55.56875" id="Path" stroke="#263238" stroke-width="0.5" stroke-linecap="round" stroke-linejoin="round"></path>
                        <path d="M46.00625,119.7905 C56.4655,122.72725 62.26675,122.07275 68.646,118.68975 C76.0155,114.7755 79.60675,106.78975 80.5715,98.8125 C82.3395,84.0905 77.37975,68.73525 72.199,55.1905" id="Path" stroke="#263238" stroke-width="0.5" stroke-linecap="round" stroke-linejoin="round"></path>
                        <path d="M61.45075,120.96775 C61.45075,121.06975 83.0875,110.058 68.82875,56.60575" id="Path" stroke="#263238" stroke-width="0.5" stroke-linecap="round" stroke-linejoin="round" stroke-dasharray="1.275,1.275"></path>
                        <path d="M67.59625,119.52275 C67.59625,119.52275 80.49925,129.268 92.6925,126.259 C104.88575,123.25 109.19525,102.66725 106.267,100.1555 C106.267,100.1555 107.372,90.865 101.9915,90.63975 C96.611,90.4145 94.9875,94.53275 94.9875,94.53275 C94.9875,94.53275 93.98875,90.933 91.1625,91.98275 C88.33625,93.0325 83.85675,97.93275 80.91575,99.13125" id="Path" stroke="#263238" stroke-width="0.5" stroke-linecap="round" stroke-linejoin="round"></path>
                        <path d="M104.77525,98.9825 C103.18575,95.8885 100.283,96.118 97.78825,97.478 C95.2935,98.838 93.63175,101.35825 92.6075,104.006 C90.9210217,108.396327 90.7445726,113.223256 92.106,117.725 C92.4427734,119.028699 93.0803103,120.235362 93.9675,121.24825 C94.894,122.21725 96.288,122.825 97.597,122.52325 C98.6523028,122.245567 99.6323591,121.735937 100.46575,121.0315" id="Path" stroke="#263238" stroke-width="0.5" stroke-linecap="round" stroke-linejoin="round"></path>
                        <path d="M72.335,119.051 C72.335,119.051 80.2145,123.913 92.174,119.55675" id="Path" stroke="#263238" stroke-width="0.5" stroke-linecap="round" stroke-linejoin="round" stroke-dasharray="1.275,1.275"></path>
                        <path d="M2.87725,111.43925 C3.944,111.27775 4.7685,110.432 5.42725,109.58625 C9.02275,105.04725 10.52725,99.2545 11.968,93.6445 C12.393,94.1715 13.18775,93.74225 13.69775,93.279 C15.504,91.64275 16.24775,89.16925 16.95325,86.84025 C18.89975,80.57575 21.37325,74.426 24.9475,68.92225 C28.52175,63.4185 33.2435,58.565 39.01925,55.44975" id="Path" stroke="#263238" stroke-width="0.5" stroke-linecap="round" stroke-linejoin="round" stroke-dasharray="1.275,1.275"></path>
                        <path d="M75.19525,53.3715 C75.19525,53.3715 91.93175,70.3375 92.5905,91.375" id="Path" stroke="#263238" stroke-width="0.5" stroke-linecap="round" stroke-linejoin="round"></path>
                        <path d="M19.47775,98.94425 C19.47775,98.94425 11.135,123.352 28.40275,127.90375 C45.6705,132.4555 51.30175,108.03925 50.388,104.703 C50.388,104.703 56.763,101.065 54.179,96.06275 C52.156,92.1315 46.29525,94.24375 46.29525,94.24375 C46.29525,94.24375 46.75,85.44625 40.08175,83.93325 C33.4135,82.42025 29.78825,89.675 29.78825,89.675 C29.78825,89.675 25.01975,83.674 20.4,87.125 C15.079,91.05625 19.47775,98.94425 19.47775,98.94425 Z" id="Path" stroke="#263238" stroke-width="0.5" stroke-linecap="round" stroke-linejoin="round"></path>
                        <path d="M24.803,102 C21.5985,107.304 20.213,114.5885 22.321,119.38675 C23.4479545,121.904087 25.5980206,123.819038 28.2285,124.64825 C38.8535,127.92925 45.36025,115.53625 45.5685,106.896 C45.6365,103.95075 45.25825,100.878 43.66875,98.396 C40.732,93.7975 34.39525,93.94625 30.0985,96.43675 C29.83075,96.58975 29.56725,96.75975 29.308,96.9425" id="Path" stroke="#263238" stroke-width="0.5" stroke-linecap="round" stroke-linejoin="round"></path>
                        <path d="M26.8515,86.7765 C26.8515,86.7765 28.424,75.174 34.1275,63.96675" id="Path" stroke="#263238" stroke-width="0.5" stroke-linecap="round" stroke-linejoin="round"></path>
                        <path d="M14.36075,63.325 C15.8412964,62.6567696 17.5056856,62.5143218 19.07825,62.92125" id="Path" stroke="#263238" stroke-width="0.5" stroke-linecap="round" stroke-linejoin="round"></path>
                        <path d="M13.668,65.025 C14.6013621,64.7411884 15.5882458,64.680054 16.5495,64.8465" id="Path" stroke="#263238" stroke-width="0.5" stroke-linecap="round" stroke-linejoin="round"></path>
                        <path d="M26.49875,96.84475 C27.4871144,97.0920673 28.4397679,97.4648448 29.3335,97.954" id="Path" stroke="#263238" stroke-width="0.5" stroke-linecap="round" stroke-linejoin="round"></path>
                        <path d="M26.5965,98.379 C27.2529694,98.5246522 27.895677,98.7265648 28.5175,98.9825" id="Path" stroke="#263238" stroke-width="0.5" stroke-linecap="round" stroke-linejoin="round"></path>
                        <line x1="24.225" y1="101.29025" x2="25.81875" y2="101.3455" id="Path" stroke="#263238" stroke-width="0.5" stroke-linecap="round" stroke-linejoin="round"></line>
                        <path d="M66.555,55.9555 C66.555,55.9555 66.13,58.82 68.255,58.96875 C70.38,59.1175 73.032,58.82 72.37325,55.9555 C71.7145,53.091 67.575,54.63375 66.555,55.9555 Z" id="Path" fill="#263238" fill-rule="nonzero"></path>
                        <path d="M46.784,60.52425 C46.784,60.52425 47.634,66.89925 51.782,67.47725 C55.93,68.05525 68.0255,57.0775 68.0255,57.0775 L68.31875,54.91425 L46.784,60.52425 Z" id="Path" fill="#263238" fill-rule="nonzero"></path>
                        <path d="M68.31875,54.91425 C68.31875,54.91425 49.98,63.66925 47.005,60.8175 C44.03,57.96575 68.425,54.825 68.425,54.825 L68.31875,54.91425 Z" id="Path" fill="#263238" fill-rule="nonzero"></path>
                        <path d="M46.784,60.52425 C46.784,60.52425 47.634,66.89925 51.782,67.47725 C55.93,68.05525 68.0255,57.0775 68.0255,57.0775 L68.31875,54.91425 L46.784,60.52425 Z" id="Path" fill="#263238" fill-rule="nonzero"></path>
                        <path d="M68.31875,54.91425 C68.31875,54.91425 49.98,63.66925 47.005,60.8175 C44.03,57.96575 68.425,54.825 68.425,54.825 L68.31875,54.91425 Z" id="Path" fill="#000000" fill-rule="nonzero" opacity="0.2"></path>
                        <path d="M70.77525,54.05575 L70.3715,55.73025 C70.3715,55.73025 77.0355,62.02875 84.21375,63.563 C91.392,65.09725 88.97375,55.87475 88.97375,55.87475 L70.77525,54.05575 Z" id="Path" fill="#263238" fill-rule="nonzero"></path>
                        <path d="M70.77525,54.05575 L70.3715,55.73025 C70.3715,55.73025 77.0355,62.02875 84.21375,63.563 C91.392,65.09725 88.97375,55.87475 88.97375,55.87475 L70.77525,54.05575 Z" id="Path" fill="#263238" fill-rule="nonzero"></path>
                        <path d="M70.77525,54.05575 C70.77525,54.05575 85.6205,58.86675 88.5275,56.79275 C91.4345,54.71875 79.73425,51.98175 70.77525,54.05575 Z" id="Path" fill="#263238" fill-rule="nonzero"></path>
                        <path d="M70.77525,54.05575 C70.77525,54.05575 85.6205,58.86675 88.5275,56.79275 C91.4345,54.71875 79.73425,51.98175 70.77525,54.05575 Z" id="Path" fill="#000000" fill-rule="nonzero" opacity="0.2"></path>
                        <path d="M67.8555,57.32825 C67.8555,57.32825 64.651,69.7255 62.09675,75.24625 L68.66725,79.25825 C68.66725,79.25825 71.21725,63.1975 69.4705,56.8565 L67.8555,57.32825 Z" id="Path" fill="#263238" fill-rule="nonzero"></path>
                        <path d="M69.3515,57.443 C69.3515,57.443 75.259,70.72425 75.5055,80.76275 L81.9825,75.50125 C81.9825,75.50125 74.85525,58.3355 70.89,56.37625 C66.92475,54.417 69.3515,57.443 69.3515,57.443 Z" id="Path" fill="#263238" fill-rule="nonzero"></path>
                        <path d="M75.24625,53.18875 L75.32275,53.2695 L75.225,53.24825 C75.225,53.24825 75.225,53.21 75.24625,53.18875 Z" id="Path" fill="#000000" fill-rule="nonzero" opacity="0.2"></path>
                        <path d="M46.82225,5.75875 C47.7792897,6.19495268 48.5174004,7.0021174 48.8665,7.99425" id="Path" stroke="#263238" stroke-width="0.5" stroke-linecap="round" stroke-linejoin="round"></path>
                        <path d="M49.00675,5.7885 C49.4843009,6.36424813 49.9028962,6.98644593 50.25625,7.64575" id="Path" stroke="#263238" stroke-width="0.5" stroke-linecap="round" stroke-linejoin="round"></path>
                        <path d="M51.7055,5.627 C52.1443367,6.40422157 52.4746561,7.23788506 52.68725,8.10475" id="Path" stroke="#263238" stroke-width="0.5" stroke-linecap="round" stroke-linejoin="round"></path>
                        <path d="M39.6185,55.04175 C30.9995,64.21325 26.656,86.75525 26.656,86.75525 C26.656,86.75525 23.1965,84.17975 19.533,87.63925 C15.623,91.32825 19.4735,98.94425 19.4735,98.94425 L17.646,107.47825 C17.646,107.47825 17.60775,107.576 17.52275,107.7545 C17.64175,106.386 17.79475,105.54025 17.79475,105.54025 C17.79475,105.54025 14.39475,106.862 12.60125,102.0425 C12.60125,102.0425 12.444,112.574 7.8285,113.67475 C5.60575,114.20175 3.95675,113.24975 2.77525,111.656 C8.3555,109.5565 11.98075,93.6445 11.98075,93.6445 C16.31575,93.54675 19.244,79.08825 22.3805,73.185 C28.611,61.4635 39.321,55.2075 39.6185,55.04175 Z" id="Path" fill="#000000" fill-rule="nonzero" opacity="0.2"></path>
                        <path d="M41.50125,84.3965 C41.50125,84.3965 47.702,85.51425 48.69225,90.848 C48.69225,90.848 53.52875,88.366 56.63125,92.45875 C59.73375,96.5515 58.98575,101.88525 54.76975,105.3575 C54.76975,105.3575 54.026,115.651 48.44575,120.36 L46.00625,119.7905 C46.00625,119.7905 50.38375,110.2535 50.405,104.703 C50.405,104.703 55.505,101.75775 54.27675,96.5515 C53.0485,91.34525 46.325,94.24375 46.325,94.24375 C46.325,94.24375 46.2145,87.24825 41.50125,84.3965 Z" id="Path" fill="#000000" fill-rule="nonzero" opacity="0.2"></path>
                    </g>
                </g>
            </g>
        </g>
    </g>
</svg>