<?xml version="1.0" encoding="UTF-8"?>
<svg width="139px" height="138px" viewBox="0 0 139 138" version="1.1" xmlns="http://www.w3.org/2000/svg" xmlns:xlink="http://www.w3.org/1999/xlink">
    <title>Vault-bro</title>
    <g id="Page-1" stroke="none" stroke-width="1" fill="none" fill-rule="evenodd">
        <g id="hashtag" transform="translate(-307.000000, -2240.000000)">
            <g id="tm" transform="translate(298.000000, 1593.000000)">
                <g id="list" transform="translate(0.000000, 280.000000)">
                    <g id="Vault-bro" transform="translate(10.000000, 368.000000)">
                        <g id="freepik--background-simple--inject-1--inject-569" transform="translate(0.000000, 0.342569)" fill="#F9FBFF" fill-rule="nonzero">
                            <path d="M112.95194,25.8331486 C105.607254,19.3928463 98.221461,12.5620151 90.0340554,7.37551637 C76.8725441,-0.962619647 58.4183375,-4.08 46.4010076,7.98186398 C42.7012594,11.6987406 41.9476071,16.8270025 40.4745592,21.6332494 C38.8644836,26.9362217 35.8635768,30.8552141 31.0676071,33.7259446 C26.6142065,36.3911335 21.5852897,37.8847355 16.7927456,39.8682116 C10.6504786,42.4100756 4.98095718,46.1235264 2.062267,52.3137531 C-1.40110831,59.6892695 0.195264484,66.2083627 4.89874055,72.4979345 C9.46861461,78.5888161 16.4433249,84.2720403 15.3334005,92.6341562 C14.8675063,96.2071537 13.4252897,99.5643325 12.284534,102.979748 C11.1437783,106.395164 10.2770781,110.057229 11.0444332,113.578841 C13.5075063,125.089169 31.3074055,128.076373 40.6081612,124.256725 C56.7089169,117.645139 72.5698741,126.65471 88.7939547,127.021259 C100.198086,127.281612 114.997078,124.027204 118.463879,111.427506 C121.447657,100.59204 110.745793,88.6295214 119.114761,79.1746096 C125.647557,71.7956675 131.96796,62.3339043 131.241713,52.0191436 C130.532594,42.0058438 122.8933,34.4076574 115.709622,28.2311335 C114.791537,27.4523594 113.872309,26.6530311 112.95194,25.8331486 Z" id="Path"></path>
                        </g>
                        <g id="freepik--Shadow--inject-1--inject-569" transform="translate(25.692695, 128.806045)" fill-rule="nonzero">
                            <ellipse id="Oval" fill="#ADC7F7" cx="15.8472544" cy="3.38115869" rx="15.795869" ry="3.15848866"></ellipse>
                            <ellipse id="Oval" fill="#FFFFFF" opacity="0.5" cx="15.8472544" cy="3.38115869" rx="15.795869" ry="3.15848866"></ellipse>
                        </g>
                        <g id="freepik--Vault--inject-1--inject-569" transform="translate(0.342569, 0.000000)">
                            <circle id="Oval" stroke="#2E353A" stroke-width="0.5" fill="#ADC7F7" fill-rule="nonzero" stroke-linecap="round" transform="translate(67.954379, 67.940015) rotate(-45.000000) translate(-67.954379, -67.940015) " cx="67.9543794" cy="67.9400152" r="47.9083123"></circle>
                            <circle id="Oval" stroke="#2E353A" stroke-width="0.5" fill="#2E353A" fill-rule="nonzero" stroke-linecap="round" cx="67.955466" cy="67.9383375" r="43.7460957"></circle>
                            <circle id="Oval" stroke="#2E353A" stroke-width="0.5" fill="#FFFFFF" fill-rule="nonzero" stroke-linecap="round" cx="67.955466" cy="67.9383375" r="40.4779849"></circle>
                            <path d="M67.955466,31.3416623 C53.1517954,31.3416623 39.8058538,40.2593615 34.1410544,53.9363024 C28.476255,67.6132433 31.6082322,83.3558679 42.076498,93.8231539 C52.5447638,104.29044 68.2876814,107.420943 81.964092,101.754864 C95.6405026,96.0887843 104.556952,82.7420081 104.555567,67.9383375 C104.555567,58.2317023 100.699386,48.9226756 93.8354377,42.0593692 C86.9714888,35.1960628 77.6621012,31.3407539 67.955466,31.3416623 Z M67.955466,101.568363 C49.3745481,101.568363 34.311738,86.5055526 34.311738,67.9246348 C34.311738,49.3437169 49.3745481,34.2809068 67.955466,34.2809068 C86.5363839,34.2809068 101.599197,49.3437169 101.599197,67.9246348 C101.602829,76.8498801 98.0598371,85.4108147 91.7500202,91.7232015 C85.4402032,98.0355884 76.8807121,101.582065 67.955466,101.582065 L67.955466,101.568363 Z" id="Shape" stroke="#2E353A" stroke-width="0.5" fill="#ADC7F7" fill-rule="nonzero" stroke-linecap="round"></path>
                            <path d="M67.955466,47.7918385 C59.8052706,47.7918385 52.4576603,52.7015811 49.3390357,60.2315124 C46.2204111,67.7614437 47.9449811,76.4285542 53.7085294,82.1911226 C59.4720777,87.9536911 68.1394813,89.6767874 75.6688822,86.5568826 C83.1982832,83.4369777 88.106776,76.0885328 88.1053907,67.9383375 C88.1053907,62.5945603 85.9823488,57.4697003 82.2034065,53.6914004 C78.4244641,49.9131005 73.2992432,47.7909301 67.955466,47.7918385 Z M67.955466,86.4576322 C57.7275419,86.4576322 49.4361713,78.1662616 49.4361713,67.9383375 C49.4361713,57.7104135 57.7275419,49.4190428 67.955466,49.4190428 C78.18339,49.4190428 86.4747607,57.7104135 86.4747607,67.9383375 C86.4747607,72.8499599 84.5236263,77.5604149 81.0505849,81.0334564 C77.5775434,84.5064979 72.8670883,86.4576322 67.955466,86.4576322 L67.955466,86.4576322 Z" id="Shape" stroke="#2E353A" stroke-width="0.5" fill="#ADC7F7" fill-rule="nonzero" stroke-linecap="round"></path>
                            <path d="M67.955466,56.2909824 C61.5228094,56.2909824 56.3081108,61.5056809 56.3081108,67.9383375 C56.3081108,74.3709942 61.5228094,79.5856927 67.955466,79.5856927 C74.3881226,79.5856927 79.6028212,74.3709942 79.6028212,67.9383375 C79.6028212,64.8492669 78.3756926,61.8867165 76.1913898,59.7024137 C74.007087,57.5181109 71.0445366,56.2909824 67.955466,56.2909824 Z M68.8495718,58.1168766 C70.9020582,58.3002824 72.8448077,59.1248423 74.4026196,60.4737531 L68.8564232,66.026801 L68.8495718,58.1168766 Z M67.0647859,66.026801 L61.511738,60.4737531 C63.0691765,59.1242435 65.0121281,58.2995978 67.0647859,58.1168766 L67.0647859,66.026801 Z M65.804131,67.2874559 L58.1134509,67.2874559 C58.2442737,65.2646739 58.9981903,63.3320147 60.2716373,61.7549622 L65.804131,67.2874559 Z M65.804131,69.0688161 L60.4908816,74.3854912 C59.1944896,72.8893276 58.381214,71.0358714 58.1579849,69.0688161 L65.804131,69.0688161 Z M67.0647859,70.3328967 L67.0647859,77.7632242 C65.1275896,77.5913844 63.2852629,76.8472991 61.7720907,75.6255919 L67.0647859,70.3328967 Z M68.8495718,70.3328967 L74.142267,75.6255919 C72.630674,76.8455078 70.7910836,77.589451 68.8564232,77.7632242 L68.8495718,70.3328967 Z M70.1102267,69.0688161 L77.7632242,69.0688161 C77.5385343,71.0354775 76.7254405,72.8885194 75.4303275,74.3854912 L70.1102267,69.0688161 Z M70.1102267,67.2874559 L75.6392947,61.7549622 C76.9127416,63.3320147 77.6666583,65.2646739 77.7974811,67.2874559 L70.1102267,67.2874559 Z" id="Shape" stroke="#2E353A" stroke-width="0.5" fill="#ADC7F7" fill-rule="nonzero" stroke-linecap="round"></path>
                            <circle id="Oval" stroke="#2E353A" stroke-width="0.5" fill="#FFFFFF" fill-rule="nonzero" stroke-linecap="round" cx="67.955466" cy="67.9383375" r="6.59788413"></circle>
                            <path d="M115.627406,72.7000504 C66.9825693,57.5756171 33.6128967,80.8394962 24.5724937,88.2801008 C33.7278691,107.793529 54.7859173,118.791926 76.0316131,115.156658 C97.2773089,111.52139 113.480659,94.1473402 115.627406,72.7000504 Z" id="Path" fill="#ADC7F7" fill-rule="nonzero" style="mix-blend-mode: multiply;"></path>
                            <rect id="Rectangle" stroke="#2E353A" stroke-width="0.5" fill="#2E353A" fill-rule="nonzero" stroke-linecap="round" x="108.272443" y="28.0564232" width="5.94357683" height="10.1057935" rx="2.53501259"></rect>
                            <rect id="Rectangle" stroke="#2E353A" stroke-width="0.5" fill="#2E353A" fill-rule="nonzero" stroke-linecap="round" x="108.272443" y="99.0881612" width="5.94357683" height="10.1057935" rx="2.53501259"></rect>
                            <rect id="Rectangle" stroke="#2E353A" stroke-width="0.5" fill="#2E353A" fill-rule="nonzero" stroke-linecap="round" x="64.9853904" y="28.0564232" width="5.94357683" height="10.1057935" rx="2.53501259"></rect>
                            <rect id="Rectangle" stroke="#2E353A" stroke-width="0.5" fill="#2E353A" fill-rule="nonzero" stroke-linecap="round" x="64.9853904" y="99.0881612" width="5.94357683" height="10.1057935" rx="2.53501259"></rect>
                            <circle id="Oval" stroke="#2E353A" stroke-width="0.5" fill="#FFFFFF" fill-rule="nonzero" stroke-linecap="round" cx="67.955466" cy="16.6591436" r="1"></circle>
                            <path d="M51.3271537,19.4202519 C51.144172,18.9195479 50.5901853,18.661706 50.089268,18.844103 C49.5883507,19.0265001 49.3298623,19.5801853 49.5116745,20.0813152 C49.6934867,20.5824451 50.2468698,20.8415797 50.7482116,20.6603526 C50.9897146,20.5730532 51.1865211,20.3931912 51.2951521,20.1605021 C51.4037832,19.9278131 51.4152984,19.6614477 51.3271537,19.4202519 L51.3271537,19.4202519 Z" id="Path" stroke="#2E353A" stroke-width="0.5" fill="#FFFFFF" fill-rule="nonzero" stroke-linecap="round"></path>
                            <path d="M35.7334005,28.035869 C35.3878312,27.631563 34.7804574,27.582638 34.3746285,27.9264177 C33.9687997,28.2701974 33.9171918,28.8773491 34.2591751,29.2846929 C34.6011585,29.6920366 35.2080763,29.7463264 35.616927,29.4061461 C35.8164041,29.2413889 35.9411637,29.0032706 35.9630759,28.7454801 C35.9849881,28.4876896 35.9022081,28.2319304 35.7334005,28.035869 Z" id="Path" stroke="#2E353A" stroke-width="0.5" fill="#FFFFFF" fill-rule="nonzero" stroke-linecap="round"></path>
                            <path d="M24.0312343,41.4508816 C23.6944949,41.252644 23.2714943,41.2767906 22.9595013,41.5120604 C22.6475083,41.7473303 22.5079742,42.1473838 22.6059715,42.5256536 C22.7039689,42.9039234 23.0201958,43.1859041 23.4071779,43.2400923 C23.79416,43.2942805 24.175676,43.1100031 24.3738035,42.773199 C24.6422458,42.3131599 24.4892799,41.7227114 24.0312343,41.4508816 Z" id="Path" stroke="#2E353A" stroke-width="0.5" fill="#FFFFFF" fill-rule="nonzero" stroke-linecap="round"></path>
                            <path d="M17.6217632,58.0826196 C17.0964878,57.9905833 16.5959914,58.3415875 16.5036006,58.8668007 C16.4112097,59.3920138 16.7618761,59.892747 17.2870268,59.9854923 C17.8121775,60.0782375 18.3131472,59.7279091 18.4062469,59.2028212 C18.4510354,58.950211 18.3935035,58.6901597 18.2463386,58.4800159 C18.0991737,58.2698721 17.8744636,58.1268967 17.6217632,58.0826196 Z" id="Path" stroke="#2E353A" stroke-width="0.5" fill="#FFFFFF" fill-rule="nonzero" stroke-linecap="round"></path>
                            <path d="M17.2860453,75.892796 C16.7609574,75.9858956 16.410629,76.4868653 16.5033742,77.012016 C16.5961195,77.5371667 17.0968527,77.8878331 17.6220658,77.7954423 C18.147279,77.7030514 18.4982832,77.202555 18.4062469,76.6772796 C18.3619698,76.4245792 18.2189944,76.1998692 18.0088506,76.0527043 C17.7987068,75.9055393 17.5386555,75.8480074 17.2860453,75.892796 L17.2860453,75.892796 Z" id="Path" stroke="#2E353A" stroke-width="0.5" fill="#FFFFFF" fill-rule="nonzero" stroke-linecap="round"></path>
                            <path d="M23.0617632,92.7437783 C22.7249591,92.9419058 22.5406817,93.3234218 22.5948699,93.7104039 C22.6490581,94.097386 22.9310388,94.413613 23.3093086,94.5116103 C23.6875784,94.6096077 24.087632,94.4700736 24.3229018,94.1580806 C24.5581716,93.8460876 24.5823182,93.4230869 24.3840806,93.0863476 C24.2547744,92.8648981 24.0424536,92.7041955 23.7942118,92.6398842 C23.5459699,92.5755728 23.2823282,92.6129691 23.0617632,92.7437783 L23.0617632,92.7437783 Z" id="Path" stroke="#2E353A" stroke-width="0.5" fill="#FFFFFF" fill-rule="nonzero" stroke-linecap="round"></path>
                            <path d="M34.256927,106.600705 C33.9178859,107.01043 33.9737624,107.617128 34.3819363,107.958035 C34.7901103,108.298942 35.3970564,108.245834 35.7398222,107.83922 C36.082588,107.432606 36.0322501,106.825424 35.627204,106.480806 C35.4303192,106.313294 35.1745119,106.231678 34.9169929,106.254211 C34.6594738,106.276744 34.4217281,106.401546 34.256927,106.600705 Z" id="Path" stroke="#2E353A" stroke-width="0.5" fill="#FFFFFF" fill-rule="nonzero" stroke-linecap="round"></path>
                            <path d="M49.5081108,115.788413 C49.3268838,116.289755 49.5860184,116.843138 50.0871483,117.02495 C50.5882781,117.206762 51.1419634,116.948274 51.3243605,116.447357 C51.5067575,115.946439 51.2489156,115.392453 50.7482116,115.209471 C50.5070671,115.120366 50.2402994,115.13142 50.0073538,115.240171 C49.7744082,115.348922 49.5946411,115.546333 49.5081108,115.788413 L49.5081108,115.788413 Z" id="Path" stroke="#2E353A" stroke-width="0.5" fill="#FFFFFF" fill-rule="nonzero" stroke-linecap="round"></path>
                            <path d="M66.9894146,119.214106 C66.9880353,119.60684 67.2237301,119.961611 67.5863061,120.112544 C67.948882,120.263478 68.3666983,120.180752 68.6444052,119.903045 C68.9221121,119.625338 69.004838,119.207522 68.8539044,118.844946 C68.7029708,118.48237 68.3482005,118.246675 67.955466,118.248054 C67.4219339,118.248054 66.9894146,118.680574 66.9894146,119.214106 L66.9894146,119.214106 Z" id="Path" stroke="#2E353A" stroke-width="0.5" fill="#FFFFFF" fill-rule="nonzero" stroke-linecap="round"></path>
                            <path d="M84.587204,116.473552 C84.7701857,116.974256 85.3241724,117.232098 85.8250896,117.049701 C86.3260069,116.867303 86.5844954,116.313618 86.4026832,115.812488 C86.220871,115.311358 85.6674879,115.052224 85.1661461,115.233451 C84.9246431,115.32075 84.7278366,115.500612 84.6192055,115.733301 C84.5105745,115.96599 84.4990593,116.232356 84.587204,116.473552 L84.587204,116.473552 Z" id="Path" stroke="#2E353A" stroke-width="0.5" fill="#FFFFFF" fill-rule="nonzero" stroke-linecap="round"></path>
                            <path d="M100.177531,107.844232 C100.522497,108.252637 101.132964,108.304713 101.54212,107.960638 C101.951276,107.616563 102.004682,107.006211 101.661499,106.596306 C101.318316,106.186401 100.708082,106.131666 100.297431,106.473955 C100.098271,106.638756 99.9734696,106.876501 99.9509367,107.134021 C99.9284038,107.39154 100.01002,107.647347 100.177531,107.844232 Z" id="Path" stroke="#2E353A" stroke-width="0.5" fill="#FFFFFF" fill-rule="nonzero" stroke-linecap="round"></path>
                            <path d="M111.883123,94.4189421 C112.219863,94.6171797 112.642863,94.5930331 112.954856,94.3577632 C113.266849,94.1224934 113.406384,93.7224399 113.308386,93.3441701 C113.210389,92.9659003 112.894162,92.6839195 112.50718,92.6297313 C112.120198,92.5755431 111.738682,92.7598206 111.540554,93.0966247 C111.272112,93.5566638 111.425078,94.1471123 111.883123,94.4189421 Z" id="Path" stroke="#2E353A" stroke-width="0.5" fill="#FFFFFF" fill-rule="nonzero" stroke-linecap="round"></path>
                            <path d="M118.289169,77.7974811 C118.814444,77.8895175 119.314941,77.5385133 119.407331,77.0133001 C119.499722,76.4880869 119.149056,75.9873537 118.623905,75.8946085 C118.098755,75.8018632 117.597785,76.1521916 117.504685,76.6772796 C117.459897,76.9298898 117.517429,77.1899411 117.664593,77.4000849 C117.811758,77.6102287 118.036468,77.7532041 118.289169,77.7974811 L118.289169,77.7974811 Z" id="Path" stroke="#2E353A" stroke-width="0.5" fill="#FFFFFF" fill-rule="nonzero" stroke-linecap="round"></path>
                            <path d="M118.624887,59.9873048 C119.149975,59.8942052 119.500303,59.3932354 119.407558,58.8680847 C119.314813,58.342934 118.814079,57.9922677 118.288866,58.0846585 C117.763653,58.1770493 117.412649,58.6775458 117.504685,59.2028212 C117.548962,59.4555215 117.691938,59.6802316 117.902081,59.8273965 C118.112225,59.9745614 118.372276,60.0320933 118.624887,59.9873048 L118.624887,59.9873048 Z" id="Path" stroke="#2E353A" stroke-width="0.5" fill="#FFFFFF" fill-rule="nonzero" stroke-linecap="round"></path>
                            <path d="M112.849169,43.1363224 C113.186944,42.9390096 113.372386,42.557471 113.318853,42.1699675 C113.265319,41.7824641 112.983379,41.4654942 112.604758,41.3671512 C112.226138,41.2688082 111.825582,41.4085064 111.590238,41.7209766 C111.354893,42.0334467 111.331219,42.457003 111.530277,42.7937531 C111.800778,43.2513641 112.390164,43.4044515 112.849169,43.1363224 Z" id="Path" stroke="#2E353A" stroke-width="0.5" fill="#FFFFFF" fill-rule="nonzero" stroke-linecap="round"></path>
                            <path d="M101.660856,29.2793955 C102.004287,28.8696268 101.951147,28.2591758 101.542078,27.9149124 C101.133009,27.570649 100.522451,27.6225465 100.177356,28.0309138 C99.8322606,28.4392811 99.8829152,29.0499434 100.290579,29.395869 C100.487411,29.5628914 100.742727,29.6445155 100.999945,29.6226519 C101.257162,29.6007884 101.495039,29.477243 101.660856,29.2793955 Z" id="Path" stroke="#2E353A" stroke-width="0.5" fill="#FFFFFF" fill-rule="nonzero" stroke-linecap="round"></path>
                            <path d="M86.4028212,20.0814106 C86.5361277,19.7140278 86.4349449,19.3025174 86.1464728,19.0388421 C85.8580008,18.7751669 85.4390771,18.7112787 85.0851227,18.8769804 C84.7311682,19.042682 84.5119227,19.4053253 84.5296605,19.7957432 C84.5473982,20.1861611 84.7986244,20.5274296 85.1661461,20.6603526 C85.4068703,20.748387 85.672764,20.7367812 85.9049022,20.628107 C86.1370404,20.5194329 86.3162518,20.3226655 86.4028212,20.0814106 L86.4028212,20.0814106 Z" id="Path" stroke="#2E353A" stroke-width="0.5" fill="#FFFFFF" fill-rule="nonzero" stroke-linecap="round"></path>
                            <path d="M114.812091,42.6190428 L114.812091,34.2980353 L61.8645844,34.2980353 L61.8645844,47.4869521 L77.2802015,47.4869521 C78.6593807,47.4869521 79.9820723,48.0348289 80.9572993,49.0100559 C81.9325262,49.9852829 82.480403,51.3079745 82.480403,52.6871537 L82.480403,83.4190428 C82.4785119,86.2896969 80.1508562,88.6158193 77.2802015,88.6158186 L61.8645844,88.6158186 L61.8645844,102.661159 L114.812091,102.661159 L114.812091,94.3332997 L101.520403,94.3332997 C99.1492258,94.3314089 97.2280093,92.4086591 97.2280101,90.0374811 L97.2280101,46.9319899 C97.2280093,44.560812 99.1492258,42.6380622 101.520403,42.6361713 L114.812091,42.6190428 Z" id="Path" stroke="#2E353A" stroke-width="0.5" fill="#FFFFFF" fill-rule="nonzero" stroke-linecap="round"></path>
                            <path d="M85.0702267,69.7745088 L85.0702267,83.4190428 C85.0645651,87.7246835 81.5755651,91.2136835 77.2699244,91.2193451 L64.4646851,91.2193451 L64.4646851,100.050781 L112.21199,100.050781 L112.21199,96.9471033 L101.520403,96.9471033 C97.7134574,96.9433265 94.6282604,93.8581295 94.6244836,90.0511839 L94.6244836,70.4288161 C91.4571403,70.0052364 88.2657447,69.786679 85.0702267,69.7745088 L85.0702267,69.7745088 Z" id="Path" fill="#ADC7F7" fill-rule="nonzero"></path>
                            <path d="M64.4646851,41.9544584 C70.8398992,40.1730982 79.626801,38.2992443 91.3666499,36.9015617 L64.4646851,36.9015617 L64.4646851,41.9544584 Z" id="Path" fill="#ADC7F7" fill-rule="nonzero"></path>
                            <path d="M95.8063476,43.0575315 C90.5239295,44.0852393 85.6662972,45.1780353 81.5794458,46.1886146 C83.7606127,47.6358259 85.071363,50.0798157 85.0702267,52.6974307 L85.0702267,56.4143073 C88.3725945,54.8761713 91.5790428,53.5024685 94.6244836,52.2829219 L94.6244836,46.9319899 C94.6206314,45.5511543 95.0324453,44.201121 95.8063476,43.0575315 Z" id="Path" fill="#ADC7F7" fill-rule="nonzero"></path>
                            <line x1="67.6608564" y1="7.47486146" x2="67.6608564" y2="5.35093199" id="Path" stroke="#2E353A" stroke-width="0.5" stroke-linecap="round"></line>
                            <line x1="67.6608564" y1="13.9391436" x2="67.6608564" y2="8.73551637" id="Path" stroke="#2E353A" stroke-width="0.5" stroke-linecap="round"></line>
                            <line x1="67.6608564" y1="127.291889" x2="67.6608564" y2="121.718287" id="Path" stroke="#2E353A" stroke-width="0.5" stroke-linecap="round"></line>
                            <line x1="117.463577" y1="68.1986902" x2="126.01068" y2="68.1986902" id="Path" stroke="#2E353A" stroke-width="0.5" stroke-linecap="round"></line>
                            <line x1="7.41319899" y1="68.1986902" x2="18.3308816" y2="68.1986902" id="Path" stroke="#2E353A" stroke-width="0.5" stroke-linecap="round"></line>
                            <line x1="4.85420655" y1="68.1986902" x2="5.83052897" y2="68.1986902" id="Path" stroke="#2E353A" stroke-width="0.5" stroke-linecap="round"></line>
                            <line x1="127.870831" y1="68.1986902" x2="129.864584" y2="68.1986902" id="Path" stroke="#2E353A" stroke-width="0.5" stroke-linecap="round"></line>
                        </g>
                        <g id="freepik--Character--inject-1--inject-569" transform="translate(29.118388, 47.274559)">
                            <path d="M18.9440806,83.2443325 C18.2524077,82.9592493 17.5825975,82.6237716 16.9400504,82.2406045 C16.9400504,82.2406045 20.6466499,63.8172292 20.7836776,57.7674559 C20.9207053,51.7176826 21.7462972,39.1967758 21.7462972,39.1967758 L5.13853904,39.1967758 C5.13853904,39.1967758 5.96413098,51.7142569 6.10115869,57.7674559 C6.2381864,63.8206549 9.18428212,82.2406045 9.18428212,82.2406045 C8.54037819,82.6234594 7.86945243,82.9589223 7.1768262,83.2443325 C6.2861461,83.5869018 5.17279597,84.0219647 5.72775819,84.2446348 C6.48164829,84.4907108 7.28044745,84.5679007 8.0675063,84.4707305 C9.23201292,84.1609459 10.3546884,83.7111856 11.4109824,83.1312846 C11.8563224,82.7887154 12.4386902,46.9011587 12.4386902,46.9011587 L13.6274055,46.9011587 C13.6274055,46.9011587 14.2508816,82.7989924 14.6962217,83.1312846 C15.7527882,83.7106088 16.8753922,84.1603405 18.0396977,84.4707305 C18.8267566,84.5679007 19.6255557,84.4907108 20.3794458,84.2446348 C20.9481108,84.0322418 19.8347607,83.5869018 18.9440806,83.2443325 Z" id="Path" stroke="#2E353A" stroke-width="0.5" fill="#2E353A" fill-rule="nonzero" stroke-linecap="round" stroke-linejoin="round"></path>
                            <path d="M4.11083123,16.3542569 C2.94177728,16.4588239 1.90269192,17.1416881 1.34287154,18.1732997 C0.414508816,19.9169773 -0.0513853904,28.1626196 0.298035264,29.0944081 C0.647455919,30.0261965 1.45934509,30.9511335 3.08312343,29.6733501 C4.70690176,28.3955668 4.82680101,27.1177834 4.82680101,27.1177834 L4.11083123,16.3542569 Z" id="Path" stroke="#2E353A" stroke-width="0.5" fill="#FFFFFF" fill-rule="nonzero" stroke-linecap="round" stroke-linejoin="round"></path>
                            <path d="M22.9898237,16.1624181 C22.9898237,16.1624181 25.3878086,15.7342065 25.8605542,17.5943577 C26.3332997,19.4545088 28.2996474,24.9116373 27.6042317,27.1177834 C26.9088161,29.3239295 24.2333501,29.2108816 22.3766247,28.0461461 C20.5198992,26.8814106 22.9898237,16.1624181 22.9898237,16.1624181 Z" id="Path" stroke="#2E353A" stroke-width="0.5" fill="#FFFFFF" fill-rule="nonzero" stroke-linecap="round" stroke-linejoin="round"></path>
                            <polygon id="Path" stroke="#2E353A" stroke-width="0.5" fill="#FFFFFF" fill-rule="nonzero" stroke-linecap="round" stroke-linejoin="round" points="12.0413098 13.2026196 4.11768262 16.3542569 5.15224181 39.2070529 21.7462972 39.2070529 22.9898237 16.1624181 15.9911335 13.3088161"></polygon>
                            <rect id="Rectangle" stroke="#2E353A" stroke-width="0.5" fill="#2E353A" fill-rule="nonzero" stroke-linecap="round" stroke-linejoin="round" x="5.58730479" y="20.0265995" width="5.49481108" height="1"></rect>
                            <rect id="Rectangle" stroke="#2E353A" stroke-width="0.5" fill="#2E353A" fill-rule="nonzero" stroke-linecap="round" stroke-linejoin="round" x="16.2823174" y="20.0265995" width="5.49481108" height="1"></rect>
                            <rect id="Rectangle" stroke="#2E353A" stroke-width="0.5" fill="#2E353A" fill-rule="nonzero" stroke-linecap="round" stroke-linejoin="round" x="5.15224181" y="36.4116877" width="16.6420151" height="2.79536524"></rect>
                            <rect id="Rectangle" stroke="#2E353A" stroke-width="0.5" fill="#FFFFFF" fill-rule="nonzero" stroke-linecap="round" x="12.2674055" y="36.2952141" width="2.6720403" height="1.51073048"></rect>
                            <polygon id="Path" fill="#ADC7F7" fill-rule="nonzero" points="15.2032242 16.3062972 13.6787909 15.6074559 12.5209068 16.1521411 13.4801008 19.2797985 11.8460453 35.9046851 13.3944584 37.5729975 15.2032242 35.8361713 14.1001511 19.2797985"></polygon>
                            <polygon id="Path" stroke="#2E353A" stroke-width="0.5" fill="#2E353A" fill-rule="nonzero" stroke-linecap="round" stroke-linejoin="round" points="17.3511335 14.0042317 23.2844332 16.186398 22.4725441 17.4710327 17.0702267 15.5800504"></polygon>
                            <path d="M12.8497733,16.4433249 L10.6436272,18.5364232 C10.6436272,18.5364232 9.36584383,14.9360202 9.36584383,14.3536524 C9.36584383,13.7712846 10.8731486,12.0310327 10.8731486,12.0310327 L16.5666499,11.9145592 L18.6563224,14.4701259 L16.9160705,18.4199496 L14.4769773,16.5597985 L12.8497733,16.4433249 Z" id="Path" stroke="#2E353A" stroke-width="0.5" fill="#FFFFFF" fill-rule="nonzero" stroke-linecap="round" stroke-linejoin="round"></path>
                            <polygon id="Path" stroke="#2E353A" stroke-width="0.5" fill="#2E353A" fill-rule="nonzero" stroke-linecap="round" stroke-linejoin="round" points="9.36584383 14.3399496 3.42911839 16.5255416 4.24100756 17.8101763 9.64332494 15.919194"></polygon>
                            <polygon id="Path" fill="#FFFFFF" fill-rule="nonzero" points="16.8544081 14.8161209 13.9254408 17.378539 11.058136 14.8161209 11.058136 7.98528967 16.8544081 7.98528967"></polygon>
                            <polygon id="Path" fill="#ADC7F7" fill-rule="nonzero" style="mix-blend-mode: multiply;" points="10.969068 12.3907305 13.0450378 14.7989924 14.9360202 14.7989924 16.8544081 12.6819144 16.6694207 10.6744584 11.058136 10.4072544"></polygon>
                            <polygon id="Path" stroke="#2E353A" stroke-width="0.5" stroke-linecap="round" stroke-linejoin="round" points="16.8544081 14.8161209 13.9254408 17.378539 11.058136 14.8161209 11.058136 7.98528967 16.8544081 7.98528967"></polygon>
                            <path d="M10.4312343,6.16624685 C10.4312343,6.16624685 9.35899244,5.88534005 9.46518892,6.63556675 C9.57138539,7.38579345 9.8968262,8.78690176 10.4312343,9.10891688 L10.969068,9.43093199 L10.4312343,6.16624685 Z" id="Path" stroke="#2E353A" stroke-width="0.5" fill="#FFFFFF" fill-rule="nonzero" stroke-linecap="round" stroke-linejoin="round"></path>
                            <path d="M17.6251889,6.16624685 C17.6251889,6.16624685 18.7008564,5.88534005 18.5912343,6.63556675 C18.4816121,7.38579345 18.1630227,8.78690176 17.6251889,9.10891688 L17.0873552,9.43093199 L17.6251889,6.16624685 Z" id="Path" stroke="#2E353A" stroke-width="0.5" fill="#FFFFFF" fill-rule="nonzero" stroke-linecap="round" stroke-linejoin="round"></path>
                            <path d="M18.1321935,4.9227204 C18.1338063,3.31127938 17.1875741,1.84958857 15.7166892,1.19137692 C14.2458044,0.53316526 12.5253775,0.801542988 11.324855,1.87648041 C10.1243324,2.95141784 9.66825699,4.63186141 10.1606045,6.16624685 L11.1883123,11.0547103 L13.0861461,13.7198992 L14.9188917,13.7198992 L16.7619144,11.3972796 L17.8889673,6.27929471 C18.0465762,5.84421951 18.1288301,5.38545112 18.1321935,4.9227204 L18.1321935,4.9227204 Z" id="Path" stroke="#2E353A" stroke-width="0.5" fill="#FFFFFF" fill-rule="nonzero" stroke-linecap="round" stroke-linejoin="round"></path>
                            <path d="M10.9622166,5.73460957 C10.9622166,5.73460957 11.6165239,5.02549118 12.2091688,5.26186398 C12.8018136,5.49823678 12.5688665,6.21078086 14.2851385,6.38891688 C15.2514043,6.50676236 16.231815,6.40368452 17.1524433,6.08745592 L17.244937,4.60070529 L10.9622166,3.72030227 L10.9622166,5.73460957 Z" id="Path" fill="#ADC7F7" fill-rule="nonzero"></path>
                            <path d="M17.2517884,4.60070529 C17.0234314,5.11208946 16.8788463,5.65688617 16.8235768,6.21420655 C16.8235768,6.85823678 17.3614106,8.14629723 17.3614106,8.14629723 C17.3614106,8.14629723 18.649471,5.46055416 18.5432746,4.49450882 C18.4370781,3.52846348 17.1455919,4.27869018 17.2517884,4.60070529 Z" id="Path" stroke="#2E353A" stroke-width="0.5" fill="#2E353A" fill-rule="nonzero" stroke-linecap="round" stroke-linejoin="round"></path>
                            <path d="M10.4826196,7.93390428 C10.4826196,7.93390428 10.4826196,7.76604534 10.5100252,7.51596977 C10.5716877,6.83083123 10.7326952,5.48453401 11.1266499,5.24473552 C11.6644836,4.9227204 11.6096725,3.23042821 11.6096725,3.23042821 C11.6096725,3.23042821 10.8594458,4.07657431 13.4389924,4.94327456 C16.018539,5.80997481 18.1116373,5.46740554 19.5093199,3.64151134 C20.9070025,1.81561713 19.6155164,0.524130982 19.4031234,1.16816121 C19.1907305,1.81219144 18.7556675,2.67546599 18.0054408,2.02801008 C17.2552141,1.38055416 16.0699244,0.0959193955 13.9220151,0.0959193955 C11.7741058,0.0959193955 10.8046348,2.02801008 10.8046348,2.02801008 C10.102669,2.3722678 9.64807361,3.07590237 9.62277078,3.85732997 C9.62277078,5.13853904 10.4826196,7.93390428 10.4826196,7.93390428 Z" id="Path" stroke="#2E353A" stroke-width="0.5" fill="#2E353A" fill-rule="nonzero" stroke-linecap="round" stroke-linejoin="round"></path>
                            <path d="M18.0431234,4.53219144 C16.5221159,4.5938539 15.227204,3.56957179 13.9048866,2.66518892 C12.5825693,1.76080605 11.6884635,2.66518892 11.6884635,2.66518892 C11.8990635,1.65494855 12.7615602,0.911852856 13.7918388,0.852997481 C15.5869018,0.736523929 16.1898237,3.20302267 17.8444332,3.41884131" id="Path" stroke="#FFFFFF" stroke-width="0.5" stroke-linecap="round" stroke-linejoin="round"></path>
                            <path d="M13.7541562,7.84483627 L10.1606045,7.84483627 L10.5408564,9.03012594 C10.6151569,9.26066865 10.8296189,9.41701837 11.0718388,9.41722922 L12.9285642,9.41722922 C13.1833003,9.41685885 13.4050728,9.24311347 13.466398,8.99586902 L13.7541562,7.84483627 Z" id="Path" stroke="#2E353A" stroke-width="0.5" fill="#2E353A" fill-rule="nonzero" stroke-linecap="round" stroke-linejoin="round"></path>
                            <path d="M17.7450882,7.84483627 L14.1481108,7.84483627 L14.5283627,9.03012594 C14.6026632,9.26066865 14.8171252,9.41701837 15.0593451,9.41722922 L16.9160705,9.41722922 C17.171662,9.41720441 17.3946081,9.2436451 17.45733,8.99586902 L17.7450882,7.84483627 Z" id="Path" stroke="#2E353A" stroke-width="0.5" fill="#2E353A" fill-rule="nonzero" stroke-linecap="round" stroke-linejoin="round"></path>
                            <line x1="10.1606045" y1="7.84483627" x2="9.97904282" y2="6.08745592" id="Path" stroke="#2E353A" stroke-width="0.5" fill="#FFFFFF" fill-rule="nonzero" stroke-linecap="round" stroke-linejoin="round"></line>
                            <line x1="17.7450882" y1="7.84483627" x2="18.1527456" y2="6.17652393" id="Path" stroke="#2E353A" stroke-width="0.5" fill="#FFFFFF" fill-rule="nonzero" stroke-linecap="round" stroke-linejoin="round"></line>
                            <line x1="13.7541562" y1="7.84483627" x2="14.1481108" y2="7.84483627" id="Path" stroke="#2E353A" stroke-width="0.5" fill="#FFFFFF" fill-rule="nonzero" stroke-linecap="round" stroke-linejoin="round"></line>
                            <line x1="13.6548111" y1="8.40322418" x2="14.2919899" y2="8.40322418" id="Path" stroke="#2E353A" stroke-width="0.5" fill="#FFFFFF" fill-rule="nonzero" stroke-linecap="round" stroke-linejoin="round"></line>
                            <path d="M14.6996474,10.6744584 C14.6996474,10.6744584 14.4290176,11.0821159 14.1104282,11.0821159 C13.7918388,11.0821159 13.5212091,10.6744584 13.5212091,10.6744584" id="Path" stroke="#2E353A" stroke-width="0.5" stroke-linecap="round" stroke-linejoin="round"></path>
                            <path d="M5.0665995,37.4565239 C5.0665995,37.4565239 2.16161209,38.7343073 2.16161209,39.5496222 C2.16161209,40.364937 3.08997481,45.5891184 3.67234257,46.7435768 C4.25471033,47.8980353 4.71717884,48.3707809 5.76201511,47.6719395 C6.80685139,46.9730982 5.0665995,37.4565239 5.0665995,37.4565239 Z" id="Path" stroke="#2E353A" stroke-width="0.5" fill="#2E353A" fill-rule="nonzero" stroke-linecap="round" stroke-linejoin="round"></path>
                            <rect id="Rectangle" stroke="#2E353A" stroke-width="0.5" fill="#2E353A" fill-rule="nonzero" stroke-linecap="round" stroke-linejoin="round" x="21.5613098" y="34.7844836" width="1.62720403" height="10.1057935"></rect>
                            <rect id="Rectangle" stroke="#2E353A" stroke-width="0.5" fill="#2E353A" fill-rule="nonzero" stroke-linecap="round" stroke-linejoin="round" x="20.7494207" y="32.6948111" width="3.25098237" height="3.02146096"></rect>
                            <path d="M27.4877582,25.2610579 C27.4877582,25.2610579 28.1728967,27.8166247 26.4394962,28.7449874 C25.7851889,29.0875567 22.7226196,28.5120403 19.1222166,27.5836776 C15.5218136,26.6553149 13.5451889,25.9564736 13.5451889,25.9564736 L3.43939547,25.7235264 C3.43939547,25.7235264 2.51103275,23.866801 3.90528967,22.818539 C5.2995466,21.7702771 10.4141058,23.2844332 10.4141058,23.2844332 L20.8693199,23.5173804 C20.8693199,23.5173804 23.075466,22.4896725 26.096927,23.4009068" id="Path" stroke="#2E353A" stroke-width="0.5" fill="#FFFFFF" fill-rule="nonzero" stroke-linecap="round" stroke-linejoin="round"></path>
                            <path d="M2.05541562,25.9564736 C2.05541562,25.9564736 4.49450882,23.9832746 6.35465995,23.2844332 C8.21481108,22.5855919 18.5535516,22.3560705 18.5535516,22.3560705 C18.5535516,22.3560705 21.4551134,23.2844332 20.8761713,23.5173804 C20.2972292,23.7503275 17.9711839,23.9832746 16.9263476,24.4457431 C15.8815113,24.9082116 9.83858942,29.0944081 2.53843829,30.1392443 C0.935214106,30.3687657 0.561813602,30.2557179 0.21581864,28.6285139" id="Path" stroke="#2E353A" stroke-width="0.5" fill="#FFFFFF" fill-rule="nonzero" stroke-linecap="round" stroke-linejoin="round"></path>
                            <polygon id="Path" stroke="#2E353A" stroke-width="0.5" fill="#2E353A" fill-rule="nonzero" stroke-linecap="round" stroke-linejoin="round" points="16.8715365 22.4793955 17.066801 24.1477078 17.7553652 24.1477078 17.8512846 22.3834761"></polygon>
                        </g>
                    </g>
                </g>
            </g>
        </g>
    </g>
</svg>