<?xml version="1.0" encoding="UTF-8"?>
<svg width="192px" height="134px" viewBox="0 0 192 134" version="1.1" xmlns="http://www.w3.org/2000/svg" xmlns:xlink="http://www.w3.org/1999/xlink">
    <title>1</title>
    <g id="Page-1" stroke="none" stroke-width="1" fill="none" fill-rule="evenodd">
        <g id="shopping-on-splitchek-copy" transform="translate(-149.000000, -1043.000000)" stroke="#0B0212">
            <g id="introduction" transform="translate(150.000000, 895.000000)">
                <g id="stars" transform="translate(0.000000, 101.000000)">
                    <g id="1" transform="translate(0.000000, 48.000000)">
                        <path d="M163.328138,102.142883 C163.684013,101.814921 163.85281,101.331034 163.778138,100.852883 L162.418138,91.4928825 C162.337698,90.9440786 162.575186,90.3970919 163.031076,90.081149 C163.486967,89.7652061 164.082513,89.7348812 164.568138,90.0028825 L172.858138,94.5728825 C173.283359,94.798664 173.792917,94.798664 174.218138,94.5728825 L182.688138,90.3428825 C183.185128,90.0927865 183.781062,90.1468952 184.22488,90.4824134 C184.668699,90.8179317 184.883247,91.3765315 184.778138,91.9228825 L182.988138,101.222883 C182.889228,101.694315 183.036058,102.183747 183.378138,102.522883 L190.018138,109.262883 C190.412221,109.658443 190.546186,110.244126 190.363247,110.77167 C190.180309,111.299215 189.712508,111.676221 189.158138,111.742883 L179.768138,112.912883 C179.291439,112.971186 178.873277,113.258673 178.648138,113.682883 L174.288138,122.092883 C174.031272,122.586715 173.51595,122.891518 172.959454,122.878774 C172.402957,122.86603 171.902129,122.537956 171.668138,122.032883 L167.668138,113.462883 C167.465998,113.027684 167.061644,112.720674 166.588138,112.642883 L157.248138,111.092883 C156.703395,111.0097 156.250927,110.628836 156.076035,110.106268 C155.901144,109.5837 156.033206,109.007207 156.418138,108.612883 L163.328138,102.142883 Z" id="Path"></path>
                        <path d="M0.227330927,124.821504 L3.54733093,121.721504 C3.7163141,121.56238 3.7982214,121.33155 3.76733093,121.101504 L3.08733093,116.611504 C3.05411147,116.3563 3.16360777,116.103449 3.3724616,115.953074 C3.58131543,115.802699 3.8558406,115.779055 4.08733093,115.891504 L8.08733093,118.081504 C8.2935252,118.191726 8.54113666,118.191726 8.74733093,118.081504 L12.8073309,116.081504 C13.0458937,115.962287 13.3314718,115.988986 13.543802,116.150357 C13.7561322,116.311728 13.8583197,116.579731 13.8073309,116.841504 L12.9473309,121.311504 C12.9053483,121.536813 12.9763194,121.768403 13.1373309,121.931504 L16.3273309,125.171504 C16.5167406,125.360776 16.5815809,125.641517 16.4943565,125.89468 C16.407132,126.147844 16.1831274,126.329067 15.9173309,126.361504 L11.4073309,126.921504 C11.1757976,126.951673 10.9738975,127.09375 10.8673309,127.301504 L8.77733093,131.301504 C8.66037042,131.542997 8.41565674,131.696381 8.14733093,131.696381 C7.87900512,131.696381 7.63429144,131.542997 7.51733093,131.301504 L5.58733093,127.181504 C5.48968335,126.971282 5.29556642,126.821961 5.06733093,126.781504 L0.587330927,126.041504 C0.321684496,125.994897 0.10538186,125.801804 0.0290509625,125.543127 C-0.0472799351,125.28445 0.0295425944,125.004861 0.227330927,124.821504 L0.227330927,124.821504 Z" id="Path"></path>
                        <path d="M51.79,38.0811448 L44.74,44.4111448 C44.3816375,44.7298088 44.205424,45.2059601 44.27,45.6811448 L45.48,55.0711448 C45.5510725,55.6222029 45.3032008,56.1658375 44.8405687,56.4735515 C44.3779366,56.7812655 43.7807444,56.7997148 43.3,56.5211448 L35.11,51.8211448 C34.6958737,51.5728066 34.184387,51.550241 33.75,51.7611448 L25.2,55.8211448 C24.6962162,56.0556644 24.1032474,55.9860565 23.6674708,55.641243 C23.2316943,55.2964295 23.0276044,54.735355 23.14,54.1911448 L25.14,44.9311448 C25.2384589,44.460241 25.1002647,43.9709587 24.77,43.6211448 L18.27,36.7411448 C17.8832765,36.3398776 17.7607438,35.7524808 17.9547841,35.2300646 C18.1488245,34.7076483 18.6250982,34.3426654 19.18,34.2911448 L28.6,33.2911448 C29.0763789,33.240223 29.4980562,32.9603487 29.73,32.5411448 L34.26,24.2311448 C34.5259331,23.7413797 35.0474874,23.4457289 35.6043031,23.4691067 C36.1611189,23.4924845 36.6560557,23.8308123 36.88,24.3411448 L40.72,32.9911448 C40.9087395,33.4322362 41.3074498,33.7481954 41.78,33.8311448 L51.09,35.5811448 C51.6256467,35.6910805 52.0549597,36.0911136 52.2023965,36.6176737 C52.3498334,37.1442339 52.190675,37.7090389 51.79,38.0811448 L51.79,38.0811448 Z" id="Path"></path>
                        <path d="M24.76,7.04114476 L21.38,10.0411448 C21.2075501,10.19419 21.1215259,10.4223413 21.15,10.6511448 L21.74,15.1611448 C21.773145,15.4259331 21.652857,15.6865321 21.429845,15.8330828 C21.206833,15.9796335 20.9198976,15.9866385 20.69,15.8511448 L16.76,13.5811448 C16.5538057,13.4709221 16.3061943,13.4709221 16.1,13.5811448 L12,15.5411448 C11.7578116,15.6644786 11.4661241,15.6364774 11.251822,15.4693217 C11.0375198,15.302166 10.9393435,15.0260735 11,14.7611448 L11.95,10.3111448 C11.9980516,10.0842935 11.9306445,9.84836852 11.77,9.68114476 L8.65,6.38114476 C8.46497257,6.18717895 8.40696492,5.90458033 8.50062151,5.6534104 C8.59427809,5.40224048 8.82314944,5.22661369 9.09,5.20114476 L13.61,4.73114476 C13.838957,4.70215723 14.0418196,4.56937444 14.16,4.37114476 L16.33,0.371144757 C16.4562519,0.133910529 16.7071724,-0.0101026543 16.9756981,0.000553128419 C17.2442238,0.0112089112 17.4829436,0.174652266 17.59,0.421144757 L19.43,4.57114476 C19.5264747,4.78414079 19.7203743,4.93702318 19.95,4.98114476 L24.41,5.82114476 C24.6788868,5.86351882 24.8988258,6.05792736 24.9738896,6.31957808 C25.0489533,6.58122881 24.965528,6.8626681 24.76,7.04114476 Z" id="Path"></path>
                    </g>
                </g>
            </g>
        </g>
    </g>
</svg>