<?xml version="1.0" encoding="UTF-8"?>
<svg width="189px" height="121px" viewBox="0 0 189 121" version="1.1" xmlns="http://www.w3.org/2000/svg" xmlns:xlink="http://www.w3.org/1999/xlink">
    <title>hello</title>
    <g id="Page-1" stroke="none" stroke-width="1" fill="none" fill-rule="evenodd">
        <g id="shopping-on-splitchek-copy" transform="translate(-626.000000, -895.000000)">
            <g id="introduction" transform="translate(150.000000, 895.000000)">
                <g id="hello" transform="translate(476.000000, 0.000000)">
                    <g id="Group-12" transform="translate(0.000000, -0.000000)">
                        <path d="M58.533755,98.31355 C58.445755,96.02855 62.381755,95.26655 63.460755,97.84955 C65.090755,101.75255 66.258755,105.81155 67.350755,109.89355 C68.589755,105.93055 69.580755,101.88155 70.593755,97.86955 C70.793755,97.07855 71.467755,96.41455 72.253755,96.21055 C75.454755,95.37155 78.702755,94.72855 81.981755,94.28755 C94.275755,92.63455 106.672755,92.97455 119.034755,92.33455 C130.125755,91.76255 141.683755,90.52355 151.750755,85.48055 C159.986755,81.35355 167.454755,75.53655 173.349755,68.43955 C178.859755,61.80755 183.359755,53.47955 183.564755,44.67355 C183.950755,28.09455 170.346755,16.07655 155.918755,10.67155 C140.609755,4.93454999 123.909755,3.61654999 107.685755,4.07254999 C90.326755,4.56254999 72.945755,7.06354999 56.185755,11.63355 C48.908755,13.61555 41.676755,15.94755 34.767755,18.99655 C28.712755,21.66855 22.508755,24.77155 17.619755,29.31355 C5.69375504,40.39355 -0.343244958,59.51455 6.89675504,74.81455 C11.201755,83.91355 19.209755,89.87655 28.726755,92.83255 C38.444755,95.85055 48.686755,96.00755 58.533755,98.31355" id="Fill-41" fill="#FFFFFF"></path>
                        <path d="M6.89675504,74.81455 C-0.343244958,59.51455 5.69375504,40.39355 17.619755,29.31355 C22.508755,24.77155 28.712755,21.66855 34.767755,18.99655 C41.676755,15.94755 48.908755,13.61555 56.185755,11.63355 C72.945755,7.06354999 90.326755,4.56254999 107.685755,4.07254999 C123.909755,3.61654999 140.609755,4.93454999 155.918755,10.67155 C170.346755,16.07655 183.950755,28.09455 183.564755,44.67355 C183.359755,53.47955 178.859755,61.80755 173.349755,68.43955 C167.454755,75.53655 159.986755,81.35355 151.750755,85.48055 C141.683755,90.52355 130.125755,91.76255 119.034755,92.33455 C106.672755,92.97455 94.275755,92.63455 81.981755,94.28755 C78.702755,94.72855 75.454755,95.37155 72.253755,96.21055 C71.467755,96.41455 70.793755,97.07855 70.593755,97.86955 C69.580755,101.88155 68.589755,105.93055 67.350755,109.89355 C66.258755,105.81155 65.090755,101.75255 63.460755,97.84955 C62.381755,95.26655 58.445755,96.02855 58.533755,98.31355 C48.686755,96.00755 38.444755,95.85055 28.726755,92.83255 C19.209755,89.87655 11.201755,83.91355 6.89675504,74.81455 Z M59.347755,100.68855 C61.597755,106.47155 62.962755,112.55455 64.660755,118.51455 C65.375755,121.01855 68.447755,120.59555 69.318755,118.51455 C71.756755,112.69355 73.330755,106.57455 74.848755,100.46255 C98.298755,94.68855 123.252755,100.03755 146.513755,92.80355 C163.657755,87.47255 179.489755,73.78655 186.177755,57.03055 C189.515755,48.66855 189.697755,39.21455 186.098755,30.91655 C182.793755,23.29755 176.904755,17.06855 169.956755,12.63255 C157.131755,4.44254999 141.278755,1.68454999 126.366755,0.520549988 C108.896755,-0.845450012 91.191755,0.575549988 73.967755,3.63054999 C58.611755,6.35354999 43.208755,10.49755 29.127755,17.30755 C22.749755,20.39155 16.774755,24.18955 11.978755,29.46855 C6.31575504,35.70055 2.46175504,43.56355 0.822755042,51.80855 C-0.787244958,59.90655 -0.0572449582,68.25655 3.21475504,75.84455 C6.83875504,84.25355 13.988755,90.67455 22.352755,94.17155 C34.197755,99.12655 46.924755,98.68655 59.347755,100.68855 L59.347755,100.68855 Z" id="Fill-42" fill="#000000"></path>
                    </g>
                    <path d="M55.865755,74.28355 C55.298755,66.02955 55.263755,57.73855 55.097755,49.47055 C55.016755,45.48455 55.088755,41.47955 54.895755,37.50055 C54.831755,36.16155 55.047755,34.22155 54.591755,32.95555 C54.349755,32.28555 54.150755,31.57055 53.515755,31.16755 C54.178755,31.58855 53.829755,31.21955 53.727755,30.58255 C53.559755,29.52655 51.770755,29.52655 51.603755,30.58255 C51.504755,31.21955 51.153755,31.59055 51.818755,31.16755 C51.182755,31.57155 50.983755,32.28455 50.742755,32.95555 C50.286755,34.23155 50.528755,36.15255 50.458755,37.50055 C50.250755,41.47055 50.421755,45.49655 50.433755,49.47055 C50.433755,49.64255 50.435755,49.81255 50.436755,49.98255 C48.203755,49.96055 45.903755,50.23955 43.727755,50.39255 C41.590755,50.54255 39.470755,50.82555 37.370755,51.22755 C37.434755,50.57655 37.499755,49.92655 37.568755,49.27655 C38.011755,45.02855 38.546755,40.79355 38.873755,36.53255 C39.134755,33.13155 40.003755,28.30155 37.535755,25.57755 C36.854755,24.82455 35.739755,25.14055 35.221755,25.87655 C34.156755,27.39255 34.172755,28.90755 34.018755,30.69055 C33.849755,32.64055 33.611755,34.59155 33.371755,36.53255 C32.824755,40.99455 32.179755,45.44255 31.659755,49.90855 C31.156755,54.22455 30.765755,58.55955 30.731755,62.90655 C30.716755,64.96555 30.867755,67.03355 31.134755,69.07355 C31.452755,71.51755 31.569755,73.73455 34.226755,74.63055 C34.925755,74.86655 35.792755,74.60355 36.295755,74.08455 C37.993755,72.32655 37.279755,70.68355 37.017755,68.54455 C36.765755,66.47855 36.736755,64.39355 36.728755,62.31455 C36.718755,59.59155 36.872755,56.86655 37.099755,54.14855 C39.308755,54.11855 41.518755,54.13255 43.727755,54.12955 C45.937755,54.12455 48.227755,54.36555 50.466755,54.33055 C50.530755,60.98455 50.700755,67.64955 51.168755,74.28355 C51.381755,77.28655 56.073755,77.31055 55.865755,74.28355" id="Fill-43" fill="#000000"></path>
                    <path d="M77.556755,65.98955 C74.538755,66.54555 71.422755,66.14255 68.430755,65.49455 C67.764755,60.42655 67.396755,55.32355 67.047755,50.22355 C69.831755,49.92955 72.618755,49.73855 75.365755,49.11455 C78.057755,48.50255 76.917755,44.34455 74.225755,44.97955 C71.766755,45.56155 69.255755,45.81055 66.795755,46.32955 C66.495755,40.98155 66.361755,35.34955 65.023755,30.18155 C69.004755,30.06355 73.070755,30.73055 76.978755,30.06655 C78.712755,29.77155 78.712755,26.87255 76.978755,26.57755 C72.870755,25.88155 67.915755,26.42855 63.806755,27.66155 C62.752755,27.05055 61.154755,27.65555 61.089755,29.17355 C60.807755,35.72955 61.838755,42.48955 62.249755,49.04055 C62.649755,55.41555 63.094755,61.78255 63.960755,68.11555 C64.067755,68.89855 64.917755,69.61855 65.643755,69.79855 C69.835755,70.83055 74.576755,71.74255 78.845755,70.66255 C81.910755,69.88555 80.585755,65.43055 77.556755,65.98955" id="Fill-44" fill="#000000"></path>
                    <path d="M96.419755,66.49255 C94.145755,67.18055 91.735755,67.27355 89.354755,67.28855 C89.030755,60.43555 88.998755,53.57355 89.057755,46.71555 C89.125755,39.23755 89.847755,31.50355 88.924755,24.06655 C88.707755,22.31355 86.422755,22.31655 86.200755,24.06655 C85.295755,31.23955 85.570755,38.66755 85.432755,45.89055 C85.282755,53.65555 85.275755,61.41955 85.678755,69.17655 C85.730755,70.20355 86.494755,71.06055 87.562755,71.06255 C90.841755,71.06555 94.262755,71.10655 97.431755,70.15955 C99.775755,69.45855 98.772755,65.77855 96.419755,66.49255" id="Fill-45" fill="#000000"></path>
                    <path d="M115.966755,64.68155 C113.751755,65.34255 111.409755,65.43455 109.092755,65.44055 C108.876755,59.16155 109.235755,52.88655 109.695755,46.62155 C109.952755,43.11955 110.230755,39.62355 110.418755,36.11655 C110.604755,32.64055 111.080755,28.79455 110.261755,25.37855 C109.923755,23.96055 107.766755,23.97555 107.421755,25.37855 C106.634755,28.55255 106.791755,32.05855 106.553755,35.31255 C106.298755,38.81355 105.985755,42.31255 105.710755,45.81155 C105.141755,53.01955 104.664755,60.24555 105.100755,67.47555 C105.167755,68.57955 105.977755,69.51655 107.139755,69.5115699 C110.426755,69.50355 113.862755,69.53055 117.036755,68.56455 C119.513755,67.81355 118.462755,63.93755 115.966755,64.68155" id="Fill-46" fill="#000000"></path>
                    <path d="M133.018755,64.02155 C132.096755,62.41355 131.498755,60.41155 131.030755,58.62255 C130.021755,54.75955 129.575755,50.74255 129.442755,46.75855 C129.320755,43.04655 129.504755,39.26255 130.498755,35.66655 C130.873755,34.31355 131.431755,32.58155 132.401755,31.51755 C132.780755,31.84655 133.158755,32.18055 133.512755,32.55155 C134.588755,33.67655 135.343755,35.08355 135.989755,36.48755 C137.458755,39.67555 137.860755,43.39655 137.906755,46.86255 C137.975755,52.20455 136.976755,59.74755 133.018755,64.02155 Z M140.026755,34.12855 C138.693755,30.99655 135.646755,26.38655 131.821755,26.43955 C130.778755,26.45355 129.888755,27.40955 129.916755,28.40755 C125.192755,31.08855 124.723755,40.41455 124.643755,44.98055 C124.561755,49.72055 125.064755,54.51855 126.154755,59.13155 C126.969755,62.58255 128.223755,66.73355 130.982755,69.16455 C132.052755,70.10755 133.284755,70.00855 134.362755,69.16455 C140.716755,64.19755 142.544755,54.43855 142.552778,46.86255 C142.557755,42.48255 141.741755,38.15755 140.026755,34.12855 L140.026755,34.12855 Z" id="Fill-47" fill="#000000"></path>
                    <path d="M157.988755,45.74455 C158.085755,38.44955 157.829755,31.31555 156.997755,24.06655 C156.803755,22.39055 154.301755,22.29355 154.310755,24.06655 C154.347755,31.00355 154.073755,37.97155 153.933755,44.91155 C153.860755,48.52455 153.756755,52.13655 153.669755,55.74955 C153.599755,58.71655 152.868755,62.91455 154.686755,65.48555 C155.194755,66.20555 156.112755,66.20155 156.620755,65.48555 C158.308755,63.10955 157.790755,59.34755 157.825755,56.58355 C157.870755,52.97155 157.941755,49.35755 157.988755,45.74455" id="Fill-48" fill="#000000"></path>
                    <path d="M157.592755,75.13455 C157.592755,74.62255 157.386755,74.12555 157.024755,73.76455 C156.637755,73.37655 156.202755,73.25955 155.680755,73.19855 C155.586755,73.15955 155.489755,73.12255 155.389755,73.09255 C154.067755,72.66955 152.707755,73.79855 152.707755,75.13455 C152.707755,76.47055 154.067755,77.60055 155.389755,77.17855 C155.489755,77.14655 155.586755,77.10955 155.680755,77.06955 C156.202755,77.00955 156.637755,76.89355 157.024755,76.50655 C157.386755,76.14455 157.592755,75.64655 157.592755,75.13455" id="Fill-49" fill="#000000"></path>
                </g>
            </g>
        </g>
    </g>
</svg>